<svg width="32" height="32" viewBox="0 0 32 32" fill="none" xmlns="http://www.w3.org/2000/svg">
<rect width="32" height="32" rx="16" fill="#25263F"/>
<path d="M21.9089 10.1291C20.7696 9.6016 19.5514 9.21827 18.2779 9C18.1215 9.27982 17.9387 9.65618 17.8127 9.95557C16.4589 9.7541 15.1175 9.7541 13.7886 9.95557C13.6626 9.65618 13.4757 9.27982 13.3179 9C12.043 9.21827 10.8234 9.60301 9.68414 10.1318C7.3862 13.5679 6.76327 16.9187 7.07474 20.2218C8.59885 21.348 10.0759 22.0322 11.528 22.4799C11.8866 21.9916 12.2063 21.4726 12.4818 20.9255C11.9572 20.7283 11.4547 20.4848 10.9799 20.2022C11.1058 20.1099 11.229 20.0133 11.3481 19.914C14.244 21.2543 17.3905 21.2543 20.2519 19.914C20.3723 20.0133 20.4955 20.1099 20.6201 20.2022C20.1439 20.4862 19.64 20.7297 19.1154 20.9269C19.3908 21.4726 19.7092 21.993 20.0691 22.4813C21.5227 22.0336 23.0011 21.3495 24.5252 20.2218C24.8907 16.3926 23.9009 13.0727 21.9089 10.1291ZM12.8763 18.1904C12.007 18.1904 11.2941 17.3873 11.2941 16.4094C11.2941 15.4315 11.9918 14.627 12.8763 14.627C13.7609 14.627 14.4738 15.43 14.4586 16.4094C14.46 17.3873 13.7609 18.1904 12.8763 18.1904ZM18.7236 18.1904C17.8543 18.1904 17.1414 17.3873 17.1414 16.4094C17.1414 15.4315 17.839 14.627 18.7236 14.627C19.6082 14.627 20.3211 15.43 20.3059 16.4094C20.3059 17.3873 19.6082 18.1904 18.7236 18.1904Z" fill="#7C81FF"/>
</svg>
