<svg width="15" height="15" viewBox="0 0 15 15" fill="none" xmlns="http://www.w3.org/2000/svg">
<path d="M10.8 0H3.60002C1.62022 0 0 1.6195 0 3.6V10.8C0 12.7798 1.62022 14.4 3.60002 14.4H10.8C12.7798 14.4 14.4 12.7798 14.4 10.8V3.6C14.4 1.6195 12.7798 0 10.8 0ZM7.20002 10.1999C5.54292 10.1999 4.19992 8.8564 4.19992 7.2C4.19992 5.5429 5.54292 4.1999 7.20002 4.1999C8.85632 4.1999 10.2 5.5429 10.2 7.2C10.2 8.8564 8.85632 10.1999 7.20002 10.1999ZM11.1 4.1999C10.6025 4.1999 10.2 3.7969 10.2 3.2999C10.2 2.803 10.6025 2.3999 11.1 2.3999C11.5976 2.3999 12 2.803 12 3.2999C12 3.7969 11.5976 4.1999 11.1 4.1999Z" fill="#E13189"/>
</svg>
