<svg width="20" height="16" viewBox="0 0 20 16" fill="none" xmlns="http://www.w3.org/2000/svg">
<path d="M16.1116 4.96705C17.1223 4.91352 17.7795 4.70907 18.5524 4.28438C19.5687 3.72618 20 1.9745 20 1.9745C17.5044 3.65136 14.0926 4.00608 14.0926 4.00608C13.076 5.63554 12.1393 6.58942 11.3557 7.14278C11.2268 7.06788 11.111 6.97245 11.013 6.86029C10.7704 6.5404 10.7422 6.21535 10.75 6.1602C10.7578 6.10506 10.8147 6.01574 10.9441 5.97639C10.988 5.96083 11.035 5.95593 11.0812 5.9621C11.1274 5.96827 11.1715 5.98533 11.2098 6.01187C11.1719 5.78614 11.1509 5.67811 11.0182 5.56621C10.8949 5.46269 10.6707 5.44689 10.6707 5.44689C10.5581 5.35608 10.4229 5.29725 10.2795 5.27663C9.90294 5.22406 9.65412 5.38595 9.47746 5.55041C9.2416 5.77001 9.22315 6.17923 9.05329 6.64907C8.97703 6.85652 8.82858 7.02977 8.63494 7.1373C7.85324 6.58264 6.92011 5.62974 5.90708 4.00673C5.90708 4.00673 2.49523 3.65201 0 1.97515C0 1.97515 0.43097 3.72682 1.44725 4.28502C2.22053 4.70972 2.87767 4.91417 3.88812 4.9677C3.88812 4.9677 2.52564 5.08411 0.959977 4.3321C0.959977 4.3321 1.84004 5.71455 2.66833 6.16601C3.49662 6.61747 4.53101 6.7958 5.26709 6.75936C5.26709 6.75936 3.9868 7.06668 2.92296 6.61747C2.92296 6.61747 4.04051 8.08408 6.04264 8.03635C6.04264 8.03635 5.39328 8.19985 4.78791 8.09182C4.78791 8.09182 5.70906 8.86995 6.47038 8.99797C6.47038 8.99797 6.77775 9.05892 7.41321 8.99023C7.21736 9.11138 6.99236 9.17767 6.7619 9.1821C6.7619 9.1821 7.41224 9.56907 7.89627 9.61131C8.02458 9.61979 8.15344 9.6146 8.28065 9.59583C8.18702 9.65247 8.0835 9.69099 7.97554 9.70934C7.97554 9.70934 8.62102 9.93862 9.04326 9.73869C8.57443 11.1553 8.22888 11.58 8.22888 11.58L8.35312 11.7277C8.36596 11.7432 8.38226 11.7555 8.40071 11.7636C8.41917 11.7718 8.43927 11.7755 8.45942 11.7745C8.47957 11.7735 8.49921 11.7678 8.51676 11.7579C8.53431 11.748 8.5493 11.7341 8.56052 11.7174L8.83877 11.3369L8.51296 11.926L8.64982 12.0624C8.66399 12.0768 8.68133 12.0876 8.70045 12.0941C8.71958 12.1005 8.73995 12.1024 8.75995 12.0996C8.77995 12.0969 8.79901 12.0894 8.81562 12.078C8.83223 12.0666 8.84592 12.0514 8.8556 12.0337L9.03776 11.7316L8.79574 12.2846L8.94522 12.4075C8.96072 12.4204 8.97904 12.4296 8.99872 12.4342C9.0184 12.4388 9.03889 12.4387 9.05855 12.434C9.07821 12.4293 9.09649 12.4201 9.11193 12.4071C9.12736 12.3941 9.13953 12.3776 9.14744 12.3591L9.25939 12.1253L9.12188 12.5671L9.28366 12.6726C9.30045 12.6834 9.31954 12.6902 9.33943 12.6925C9.35932 12.6948 9.37947 12.6924 9.39828 12.6856C9.4171 12.6788 9.43407 12.6677 9.44786 12.6532C9.46166 12.6388 9.4719 12.6213 9.47779 12.6023L9.60721 12.2301L9.51208 12.7332C9.50508 12.7705 9.50908 12.8091 9.52361 12.8442C9.53814 12.8794 9.56257 12.9096 9.59394 12.9312L9.87673 13.0814L9.98609 12.372L10.0951 13.0814L10.3782 12.9312C10.4096 12.9096 10.434 12.8794 10.4486 12.8442C10.4631 12.8091 10.4671 12.7705 10.4601 12.7332L10.3685 12.2301L10.4979 12.6023C10.5038 12.6213 10.5141 12.6388 10.5279 12.6532C10.5417 12.6677 10.5586 12.6788 10.5775 12.6856C10.5963 12.6924 10.6164 12.6948 10.6363 12.6925C10.6562 12.6902 10.6753 12.6834 10.6921 12.6726L10.8539 12.5671L10.7163 12.1253L10.8283 12.3591C10.8362 12.3776 10.8484 12.3941 10.8638 12.4071C10.8792 12.4201 10.8975 12.4293 10.9172 12.434C10.9368 12.4387 10.9573 12.4388 10.977 12.4342C10.9967 12.4296 11.015 12.4204 11.0305 12.4075L11.18 12.2846L10.9377 11.7316L11.1201 12.0337C11.1298 12.0514 11.1435 12.0666 11.1601 12.078C11.1767 12.0894 11.1958 12.0969 11.2158 12.0996C11.2358 12.1024 11.2562 12.1005 11.2753 12.0941C11.2944 12.0876 11.3117 12.0768 11.3259 12.0624L11.4628 11.926L11.1344 11.3372L11.4126 11.7177C11.4238 11.7345 11.4388 11.7484 11.4564 11.7583C11.474 11.7683 11.4937 11.774 11.5139 11.775C11.5341 11.776 11.5542 11.7723 11.5727 11.7641C11.5912 11.756 11.6075 11.7436 11.6203 11.728L11.7446 11.5803C11.7446 11.5803 11.3977 11.1543 10.9276 9.73127V9.72772C11.3482 9.95023 12.0222 9.71096 12.0222 9.71096C11.9143 9.69256 11.8109 9.65405 11.7174 9.59745C11.8445 9.6162 11.9733 9.62139 12.1015 9.61292C12.5868 9.57003 13.2358 9.18371 13.2358 9.18371C13.0054 9.17928 12.7804 9.113 12.5845 8.99184C13.22 9.06053 13.5274 8.99958 13.5274 8.99958C14.2903 8.87059 15.2098 8.09343 15.2098 8.09343C14.6045 8.20146 13.9551 8.03796 13.9551 8.03796C15.9572 8.08472 17.0751 6.61908 17.0751 6.61908C16.0113 7.06829 14.731 6.76097 14.731 6.76097C15.4667 6.79741 16.5014 6.61876 17.3294 6.16762C18.1574 5.71648 19.0397 4.33178 19.0397 4.33178C17.474 5.08347 16.1116 4.96705 16.1116 4.96705Z" fill="#D9B06E"/>
<path d="M17.4634 6.90931C17.4372 6.94381 17.0945 7.38399 16.4642 7.79579C16.4487 11.3356 13.5549 14.2101 10 14.2101C6.44514 14.2101 3.55098 11.3353 3.53544 7.79579C2.90517 7.38399 2.56285 6.94381 2.53632 6.90931L2.29527 6.59264C2.23632 6.98136 2.20679 7.37395 2.20694 7.76709C2.2202 9.81834 3.04709 11.7811 4.5071 13.2269C5.96711 14.6727 7.94169 15.4841 9.99984 15.4841C12.058 15.4841 14.0326 14.6727 15.4926 13.2269C16.9526 11.7811 17.7795 9.81834 17.7927 7.76709C17.7928 7.37397 17.7634 6.98139 17.7047 6.59264L17.4634 6.90931Z" fill="#D9B06E"/>
<path d="M3.99456 3.14572C4.47633 3.26923 4.90536 3.3563 5.23862 3.41563C5.8432 2.75647 6.57891 2.23004 7.39887 1.86988C8.21883 1.50971 9.10507 1.3237 10.0011 1.3237C10.8972 1.3237 11.7834 1.50971 12.6034 1.86988C13.4234 2.23004 14.1591 2.75647 14.7636 3.41563C15.0969 3.3563 15.5259 3.26923 16.0077 3.14572C16.0773 3.12767 16.1491 3.10864 16.2225 3.08865C16.0042 2.80154 15.7664 2.5297 15.5107 2.27505C14.7871 1.55378 13.9281 0.981625 12.9826 0.59127C12.0372 0.200914 11.0239 0 10.0005 0C8.97712 0 7.96377 0.200914 7.01832 0.59127C6.07286 0.981625 5.21382 1.55378 4.49024 2.27505C4.23458 2.5297 3.99675 2.80154 3.77843 3.08865C3.85188 3.10864 3.9237 3.12767 3.99456 3.14572Z" fill="#D9B06E"/>
</svg>
