<svg width="20" height="12" viewBox="0 0 20 12" fill="none" xmlns="http://www.w3.org/2000/svg">
<path d="M11.2 5.6C11.2 8.6928 8.69279 11.2 5.59999 11.2C2.5072 11.2 0 8.6928 0 5.6C0 2.5072 2.5072 0 5.59999 0C8.69279 0 11.2 2.5072 11.2 5.6Z" fill="#00AB6C"/>
<path d="M16.8 5.6C16.8 8.6928 15.7255 11.2 14.4 11.2C13.0745 11.2 12 8.6928 12 5.6C12 2.5072 13.0745 0 14.4 0C15.7255 0 16.8 2.5072 16.8 5.6Z" fill="#00AB6C"/>
<path d="M19.1996 5.5998C19.1996 8.2508 18.8414 10.3998 18.3996 10.3998C17.9578 10.3998 17.5996 8.2508 17.5996 5.5998C17.5996 2.9488 17.9577 0.799805 18.3996 0.799805C18.8414 0.799805 19.1996 2.9488 19.1996 5.5998Z" fill="#00AB6C"/>
</svg>
