<svg width="60" height="30" viewBox="0 0 60 30" fill="none" xmlns="http://www.w3.org/2000/svg">
<g id="Union">
<path d="M30.0103 0H44.4206C31.9138 11.5439 14.7621 11.9639 0 6.86392V0H2.37931C11.1517 4.77595 21.3 5.23194 30.0103 0Z" fill="#B44646" fill-opacity="0.33"/>
<path d="M46.4999 0H55.5206C54.2681 1.11808 53.0483 2.30219 51.8268 3.48794C48.5384 6.67999 45.2377 9.88395 41.2551 11.8439C36.8006 14.2296 31.8337 14.3691 26.999 14.5049C26.5567 14.5174 26.1154 14.5298 25.6758 14.5438C33.3413 11.2199 40.6344 6.74392 46.4999 0Z" fill="#B44646" fill-opacity="0.33"/>
<path d="M60 0.912294C45.4242 20.6521 20.638 24.648 5.87292e-05 17.5441V30H20.0793C34.4586 26.688 48.7759 20.5561 60 9.3122V0.912294Z" fill="#B44646" fill-opacity="0.33"/>
<path d="M48.0931 30C52.3862 27.216 56.4104 23.856 60 19.9561V30H48.0931Z" fill="#B44646" fill-opacity="0.33"/>
<path d="M7.43694 11.8851C6.2499 11.6615 5.06353 11.438 3.87949 11.2077C10.7691 17.5436 19.914 19.4876 28.4484 17.4116C21.6594 14.5638 14.5363 13.2222 7.43694 11.8851Z" fill="#B44646" fill-opacity="0.33"/>
<path d="M31.3966 30C41.6276 26.004 51.4655 20.3521 60 12.6482V16.6082C52.9035 22.5001 44.7621 26.484 36.6207 30H31.3966Z" fill="#B44646" fill-opacity="0.33"/>
</g>
</svg>
