<svg width="200" height="278" viewBox="0 0 200 278" fill="none" xmlns="http://www.w3.org/2000/svg">
<g clip-path="url(#clip0_2709_120508)">
<rect y="0.00439453" width="200" height="278" rx="10" fill="url(#paint0_linear_2709_120508)"/>
<path d="M161 206.278C161 212.685 169.563 215.95 172.454 221.916L172.491 222.004L172.527 221.916C175.418 215.95 184 212.685 184 206.295C184 200.93 176.663 198.864 173.076 203.348C173.003 203.577 173.076 201.918 173.314 201C174.174 198.247 177.267 194.24 178.767 193.004C176.681 194.734 168.264 194.717 166.196 193.004C167.697 194.258 170.643 198.105 171.649 201C171.85 201.794 171.979 202.606 172.033 203.418C168.557 198.547 161 200.806 161 206.278Z" fill="#EAEAEA"/>
<path d="M39 71.7311C39 65.3239 30.4367 62.0586 27.5457 56.0926L27.5091 56.0044L27.4725 56.0926C24.5815 62.0586 16 65.3239 16 71.7135C16 77.0793 23.3373 79.1444 26.9236 74.6611C26.9968 74.4317 26.9236 76.0908 26.6857 77.0086C25.8258 79.7621 22.7335 83.7688 21.2331 85.0044C23.319 83.2746 31.7359 83.2923 33.8035 85.0044C32.3031 83.7512 29.3572 79.9034 28.3508 77.0086C28.1496 76.2144 28.0215 75.4024 27.9666 74.5905C31.4431 79.4621 39 77.2028 39 71.7311Z" fill="#EAEAEA"/>
<path d="M145 143.919C145 117.886 111.496 104.586 100.167 80.3356L100 80L99.8328 80.3356C88.5253 104.565 55 117.886 55 143.919C55 165.715 83.6972 174.127 97.7009 155.898C97.9935 154.975 97.68 161.687 96.7394 165.463C93.3744 176.645 81.3144 192.944 75.4412 198C83.5718 190.993 116.47 190.993 124.601 198C118.727 192.944 107.232 177.211 103.302 165.463C102.487 162.212 102.006 158.918 101.797 155.646C115.425 175.407 145 166.156 145 143.919Z" fill="#EAEAEA"/>
<path d="M16 47.0044L24.0205 16.0044H30.9402L39 47.0044H32.8667L29.5248 31.3142C29.1578 29.761 28.804 28.1128 28.4632 26.3694C28.1225 24.6261 27.7818 22.9461 27.441 21.3295H27.2838C26.9954 22.9461 26.6809 24.6261 26.3402 26.3694C25.9994 28.1128 25.6456 29.761 25.2786 31.3142L21.8974 47.0044H16ZM21.2684 39.6348V34.167H33.6137V39.6348H21.2684Z" fill="#EAEAEA"/>
<path d="M184 231.004L175.979 262.004L169.06 262.004L161 231.004L167.133 231.004L170.475 246.695C170.842 248.248 171.196 249.896 171.537 251.639C171.877 253.383 172.218 255.063 172.559 256.679L172.716 256.679C173.005 255.063 173.319 253.383 173.66 251.639C174.001 249.896 174.354 248.248 174.721 246.695L178.103 231.004L184 231.004ZM178.732 238.374L178.732 243.842L166.386 243.842L166.386 238.374L178.732 238.374Z" fill="#EAEAEA"/>
</g>
<defs>
<linearGradient id="paint0_linear_2709_120508" x1="0" y1="278.004" x2="200" y2="0.00440461" gradientUnits="userSpaceOnUse">
<stop stop-color="#101010"/>
<stop offset="0.712851" stop-color="#201F1F"/>
<stop offset="1" stop-color="#101010"/>
</linearGradient>
<clipPath id="clip0_2709_120508">
<rect width="200" height="278" fill="white"/>
</clipPath>
</defs>
</svg>
