<svg width="200" height="278" viewBox="0 0 200 278" fill="none" xmlns="http://www.w3.org/2000/svg">
<g clip-path="url(#clip0_2709_120315)">
<rect y="0.00439453" width="200" height="278" rx="10" fill="url(#paint0_linear_2709_120315)"/>
<path d="M155 206.278C155 212.685 163.563 215.95 166.454 221.916L166.491 222.004L166.527 221.916C169.418 215.95 178 212.685 178 206.295C178 200.93 170.663 198.864 167.076 203.348C167.003 203.577 167.076 201.918 167.314 201C168.174 198.247 171.267 194.24 172.767 193.004C170.681 194.734 162.264 194.717 160.196 193.004C161.697 194.258 164.643 198.105 165.649 201C165.85 201.794 165.979 202.606 166.033 203.418C162.557 198.547 155 200.806 155 206.278Z" fill="#EAEAEA"/>
<path d="M45 71.7306C45 65.3234 36.4367 62.0581 33.5457 56.0922L33.5091 56.0039L33.4725 56.0922C30.5815 62.0581 22 65.3234 22 71.713C22 77.0788 29.3373 79.1439 32.9236 74.6606C32.9968 74.4312 32.9236 76.0903 32.6857 77.0082C31.8258 79.7617 28.7335 83.7684 27.2331 85.0039C29.319 83.2741 37.7359 83.2918 39.8035 85.0039C38.3031 83.7507 35.3572 79.9029 34.3508 77.0082C34.1496 76.2139 34.0215 75.402 33.9666 74.59C37.4431 79.4616 45 77.2023 45 71.7306Z" fill="#EAEAEA"/>
<path d="M12 46.4394V40.8415H18.4732V23.5775H12.8912V19.2968C14.5174 18.9832 15.8933 18.6068 17.0191 18.1678C18.1761 17.7287 19.2706 17.1956 20.3026 16.5684H25.3686V40.8415H30.9506V46.4394H12Z" fill="#EAEAEA"/>
<path d="M44.352 47.0039C41.1623 47.0039 38.5824 45.6711 36.6123 43.0054C34.6735 40.3398 33.7041 36.4667 33.7041 31.3863C33.7041 26.2745 34.6735 22.4328 36.6123 19.8613C38.5824 17.2897 41.1623 16.0039 44.352 16.0039C47.5417 16.0039 50.106 17.3054 52.0448 19.9083C54.0149 22.4799 55 26.3059 55 31.3863C55 36.4667 54.0149 40.3398 52.0448 43.0054C50.106 45.6711 47.5417 47.0039 44.352 47.0039ZM44.352 41.6412C45.1338 41.6412 45.8374 41.359 46.4629 40.7945C47.0883 40.1986 47.573 39.1637 47.917 37.6898C48.2923 36.1845 48.4799 34.0833 48.4799 31.3863C48.4799 28.6579 48.2923 26.5724 47.917 25.1299C47.573 23.6873 47.0883 22.6994 46.4629 22.1663C45.8374 21.6331 45.1338 21.3666 44.352 21.3666C43.5702 21.3666 42.8666 21.6331 42.2412 22.1663C41.6158 22.6994 41.1154 23.6873 40.7402 25.1299C40.3962 26.5724 40.2242 28.6579 40.2242 31.3863C40.2242 34.0833 40.3962 36.1845 40.7402 37.6898C41.1154 39.1637 41.6158 40.1986 42.2412 40.7945C42.8666 41.359 43.5702 41.6412 44.352 41.6412Z" fill="#EAEAEA"/>
<path d="M188 231.569L188 237.167L181.527 237.167L181.527 254.431L187.109 254.431L187.109 258.712C185.483 259.025 184.107 259.401 182.981 259.841C181.824 260.28 180.729 260.813 179.697 261.44L174.631 261.44L174.631 237.167L169.049 237.167L169.049 231.569L188 231.569Z" fill="#EAEAEA"/>
<path d="M155.648 231.004C158.838 231.004 161.418 232.337 163.388 235.003C165.327 237.669 166.296 241.542 166.296 246.622C166.296 251.734 165.327 255.575 163.388 258.147C161.418 260.719 158.838 262.004 155.648 262.004C152.458 262.004 149.894 260.703 147.955 258.1C145.985 255.528 145 251.702 145 246.622C145 241.542 145.985 237.669 147.955 235.003C149.894 232.337 152.458 231.004 155.648 231.004ZM155.648 236.367C154.866 236.367 154.163 236.649 153.537 237.214C152.912 237.81 152.427 238.845 152.083 240.319C151.708 241.824 151.52 243.925 151.52 246.622C151.52 249.35 151.708 251.436 152.083 252.878C152.427 254.321 152.912 255.309 153.537 255.842C154.163 256.375 154.866 256.642 155.648 256.642C156.43 256.642 157.133 256.375 157.759 255.842C158.384 255.309 158.885 254.321 159.26 252.878C159.604 251.436 159.776 249.35 159.776 246.622C159.776 243.925 159.604 241.824 159.26 240.319C158.885 238.845 158.384 237.81 157.759 237.214C157.133 236.649 156.43 236.367 155.648 236.367Z" fill="#EAEAEA"/>
<path d="M85 85.935C85 81.0744 78.2983 78.5972 76.0358 74.0713L76.0071 74.0044L75.9785 74.0713C73.716 78.5972 67 81.0744 67 85.9216C67 89.9922 72.7422 91.5589 75.5489 88.1578C75.6062 87.9837 75.5489 89.2424 75.3628 89.9387C74.6897 92.0275 72.2697 95.0671 71.0955 96.0044C72.7279 94.6922 79.315 94.7056 80.9332 96.0044C79.759 95.0537 77.4535 92.1346 76.6659 89.9387C76.5083 89.3361 76.4081 88.7202 76.3651 88.1042C79.0859 91.7999 85 90.086 85 85.935Z" fill="#EAEAEA"/>
<path d="M133 85.935C133 81.0744 126.298 78.5972 124.036 74.0713L124.007 74.0044L123.978 74.0713C121.716 78.5972 115 81.0744 115 85.9216C115 89.9922 120.742 91.5589 123.549 88.1578C123.606 87.9837 123.549 89.2424 123.363 89.9387C122.69 92.0275 120.27 95.0671 119.095 96.0044C120.728 94.6922 127.315 94.7056 128.933 96.0044C127.759 95.0537 125.453 92.1346 124.666 89.9387C124.508 89.3361 124.408 88.7202 124.365 88.1042C127.086 91.7999 133 90.086 133 85.935Z" fill="#EAEAEA"/>
<path d="M133 123.935C133 119.074 126.298 116.597 124.036 112.071L124.007 112.004L123.978 112.071C121.716 116.597 115 119.074 115 123.922C115 127.992 120.742 129.559 123.549 126.158C123.606 125.984 123.549 127.242 123.363 127.939C122.69 130.028 120.27 133.067 119.095 134.004C120.728 132.692 127.315 132.706 128.933 134.004C127.759 133.054 125.453 130.135 124.666 127.939C124.508 127.336 124.408 126.72 124.365 126.104C127.086 129.8 133 128.086 133 123.935Z" fill="#EAEAEA"/>
<path d="M67 154.074C67 158.934 73.7017 161.412 75.9642 165.937L75.9929 166.004L76.0215 165.937C78.284 161.412 85 158.934 85 154.087C85 150.017 79.2578 148.45 76.4511 151.851C76.3938 152.025 76.4511 150.766 76.6372 150.07C77.3103 147.981 79.7303 144.942 80.9045 144.004C79.2721 145.317 72.685 145.303 71.0668 144.004C72.241 144.955 74.5465 147.874 75.3341 150.07C75.4917 150.673 75.5919 151.289 75.6349 151.905C72.9141 148.209 67 149.923 67 154.074Z" fill="#EAEAEA"/>
<path d="M109 104.935C109 100.074 102.298 97.5972 100.036 93.0713L100.007 93.0044L99.9785 93.0713C97.716 97.5972 91 100.074 91 104.922C91 108.992 96.7422 110.559 99.5489 107.158C99.6062 106.984 99.5489 108.242 99.3628 108.939C98.6897 111.028 96.2697 114.067 95.0955 115.004C96.7279 113.692 103.315 113.706 104.933 115.004C103.759 114.054 101.453 111.135 100.666 108.939C100.508 108.336 100.408 107.72 100.365 107.104C103.086 110.8 109 109.086 109 104.935Z" fill="#EAEAEA"/>
<path d="M91 173.074C91 177.934 97.7017 180.412 99.9642 184.937L99.9929 185.004L100.022 184.937C102.284 180.412 109 177.934 109 173.087C109 169.017 103.258 167.45 100.451 170.851C100.394 171.025 100.451 169.766 100.637 169.07C101.31 166.981 103.73 163.942 104.905 163.004C103.272 164.317 96.685 164.303 95.0668 163.004C96.241 163.955 98.5465 166.874 99.3341 169.07C99.4917 169.673 99.5919 170.289 99.6349 170.905C96.9141 167.209 91 168.923 91 173.074Z" fill="#EAEAEA"/>
<path d="M85 123.935C85 119.074 78.2983 116.597 76.0358 112.071L76.0071 112.004L75.9785 112.071C73.716 116.597 67 119.074 67 123.922C67 127.992 72.7422 129.559 75.5489 126.158C75.6062 125.984 75.5489 127.242 75.3628 127.939C74.6897 130.028 72.2697 133.067 71.0955 134.004C72.7279 132.692 79.315 132.706 80.9332 134.004C79.759 133.054 77.4535 130.135 76.6659 127.939C76.5083 127.336 76.4081 126.72 76.3651 126.104C79.0859 129.8 85 128.086 85 123.935Z" fill="#EAEAEA"/>
<path d="M115 154.074C115 158.934 121.702 161.412 123.964 165.937L123.993 166.004L124.022 165.937C126.284 161.412 133 158.934 133 154.087C133 150.017 127.258 148.45 124.451 151.851C124.394 152.025 124.451 150.766 124.637 150.07C125.31 147.981 127.73 144.942 128.905 144.004C127.272 145.317 120.685 145.303 119.067 144.004C120.241 144.955 122.547 147.874 123.334 150.07C123.492 150.673 123.592 151.289 123.635 151.905C120.914 148.209 115 149.923 115 154.074Z" fill="#EAEAEA"/>
<path d="M115 192.074C115 196.934 121.702 199.412 123.964 203.937L123.993 204.004L124.022 203.937C126.284 199.412 133 196.934 133 192.087C133 188.017 127.258 186.45 124.451 189.851C124.394 190.025 124.451 188.766 124.637 188.07C125.31 185.981 127.73 182.942 128.905 182.004C127.272 183.317 120.685 183.303 119.067 182.004C120.241 182.955 122.547 185.874 123.334 188.07C123.492 188.673 123.592 189.289 123.635 189.905C120.914 186.209 115 187.923 115 192.074Z" fill="#EAEAEA"/>
<path d="M67 192.074C67 196.934 73.7017 199.412 75.9642 203.937L75.9929 204.004L76.0215 203.937C78.284 199.412 85 196.934 85 192.087C85 188.017 79.2578 186.45 76.4511 189.851C76.3938 190.025 76.4511 188.766 76.6372 188.07C77.3103 185.981 79.7303 182.942 80.9045 182.004C79.2721 183.317 72.685 183.303 71.0668 182.004C72.241 182.955 74.5465 185.874 75.3341 188.07C75.4917 188.673 75.5919 189.289 75.6349 189.905C72.9141 186.209 67 187.923 67 192.074Z" fill="#EAEAEA"/>
</g>
<defs>
<linearGradient id="paint0_linear_2709_120315" x1="0" y1="278.004" x2="200" y2="0.00440461" gradientUnits="userSpaceOnUse">
<stop stop-color="#101010"/>
<stop offset="0.712851" stop-color="#201F1F"/>
<stop offset="1" stop-color="#101010"/>
</linearGradient>
<clipPath id="clip0_2709_120315">
<rect width="200" height="278" fill="white"/>
</clipPath>
</defs>
</svg>
