<svg width="200" height="278" viewBox="0 0 200 278" fill="none" xmlns="http://www.w3.org/2000/svg">
<g clip-path="url(#clip0_2709_119887)">
<rect y="0.00439453" width="200" height="278" rx="10" fill="url(#paint0_linear_2709_119887)"/>
<path d="M161 206.278C161 212.685 169.563 215.95 172.454 221.916L172.491 222.004L172.527 221.916C175.418 215.95 184 212.685 184 206.295C184 200.93 176.663 198.864 173.076 203.348C173.003 203.577 173.076 201.918 173.314 201C174.174 198.247 177.267 194.24 178.767 193.004C176.681 194.734 168.264 194.717 166.196 193.004C167.697 194.258 170.643 198.105 171.649 201C171.85 201.794 171.979 202.606 172.033 203.418C168.557 198.547 161 200.806 161 206.278Z" fill="#EAEAEA"/>
<path d="M39 71.7311C39 65.3239 30.4367 62.0586 27.5457 56.0926L27.5091 56.0044L27.4725 56.0926C24.5815 62.0586 16 65.3239 16 71.7135C16 77.0793 23.3373 79.1444 26.9236 74.6611C26.9968 74.4317 26.9236 76.0908 26.6857 77.0086C25.8258 79.7621 22.7335 83.7688 21.2331 85.0044C23.319 83.2746 31.7359 83.2923 33.8035 85.0044C32.3031 83.7512 29.3572 79.9034 28.3508 77.0086C28.1496 76.2144 28.0215 75.4024 27.9666 74.5905C31.4431 79.4621 39 77.2028 39 71.7311Z" fill="#EAEAEA"/>
<path d="M26.7125 47.1631C23.9947 47.1631 21.6012 46.5331 19.5319 45.273C17.4936 44.013 15.8876 42.2151 14.7141 39.8794C13.5714 37.5437 13 34.7317 13 31.4433C13 28.1856 13.5714 25.4043 14.7141 23.0993C15.8876 20.7943 17.4936 19.0426 19.5319 17.844C21.6012 16.6147 23.9947 16 26.7125 16C29.4302 16 31.8083 16.6147 33.8466 17.844C35.9159 19.0426 37.5218 20.7943 38.6645 23.0993C39.8381 25.4043 40.4249 28.1856 40.4249 31.4433C40.4249 34.7317 39.8381 37.5437 38.6645 39.8794C37.5218 42.2151 35.9159 44.013 33.8466 45.273C31.8083 46.5331 29.4302 47.1631 26.7125 47.1631ZM26.7125 41.6312C28.1022 41.6312 29.2913 41.2317 30.2796 40.4326C31.2987 39.6028 32.0708 38.435 32.5958 36.9291C33.1518 35.4232 33.4297 33.5946 33.4297 31.4433C33.4297 29.4456 33.1518 27.74 32.5958 26.3262C32.0708 24.8818 31.2987 23.7754 30.2796 23.0071C29.2913 22.2388 28.1022 21.8546 26.7125 21.8546C25.3536 21.8546 24.1645 22.2388 23.1454 23.0071C22.1262 23.7754 21.3387 24.8818 20.7827 26.3262C20.2577 27.74 19.9952 29.4456 19.9952 31.4433C19.9952 33.5946 20.2577 35.4232 20.7827 36.9291C21.3387 38.435 22.1262 39.6028 23.1454 40.4326C24.1645 41.2317 25.3536 41.6312 26.7125 41.6312ZM36.6725 55C33.3679 55 30.5884 54.1856 28.3339 52.5567C26.0793 50.9279 24.427 48.8688 23.377 46.3794L30.3259 45.6879C30.6965 46.6407 31.2678 47.3936 32.0399 47.9468C32.812 48.5307 33.6613 48.9456 34.5879 49.1915C35.5453 49.4374 36.5027 49.5603 37.4601 49.5603C38.1086 49.5603 38.7109 49.5142 39.2668 49.422C39.8536 49.3298 40.3632 49.2222 40.7955 49.0993L42 53.9858C41.475 54.2624 40.7492 54.4929 39.8227 54.6773C38.8962 54.8924 37.8461 55 36.6725 55Z" fill="#EAEAEA"/>
<path d="M173.288 230.837C176.005 230.837 178.399 231.467 180.468 232.727C182.506 233.987 184.112 235.785 185.286 238.121C186.429 240.456 187 243.268 187 246.557C187 249.814 186.429 252.596 185.286 254.901C184.112 257.206 182.506 258.957 180.468 260.156C178.399 261.385 176.005 262 173.288 262C170.57 262 168.192 261.385 166.153 260.156C164.084 258.957 162.478 257.206 161.335 254.901C160.162 252.596 159.575 249.814 159.575 246.557C159.575 243.268 160.162 240.456 161.335 238.121C162.478 235.785 164.084 233.987 166.153 232.727C168.192 231.467 170.57 230.837 173.288 230.837ZM173.288 236.369C171.898 236.369 170.709 236.768 169.72 237.567C168.701 238.397 167.929 239.565 167.404 241.071C166.848 242.577 166.57 244.405 166.57 246.557C166.57 248.554 166.848 250.26 167.404 251.674C167.929 253.118 168.701 254.225 169.72 254.993C170.709 255.761 171.898 256.145 173.288 256.145C174.646 256.145 175.835 255.761 176.855 254.993C177.874 254.225 178.661 253.118 179.217 251.674C179.742 250.26 180.005 248.554 180.005 246.557C180.005 244.405 179.742 242.577 179.217 241.071C178.661 239.565 177.874 238.397 176.855 237.567C175.835 236.768 174.646 236.369 173.288 236.369ZM163.327 223C166.632 223 169.412 223.814 171.666 225.443C173.921 227.072 175.573 229.131 176.623 231.621L169.674 232.312C169.304 231.359 168.732 230.606 167.96 230.053C167.188 229.469 166.339 229.054 165.412 228.809C164.455 228.563 163.497 228.44 162.54 228.44C161.891 228.44 161.289 228.486 160.733 228.578C160.146 228.67 159.637 228.778 159.204 228.901L158 224.014C158.525 223.738 159.251 223.507 160.177 223.323C161.104 223.108 162.154 223 163.327 223Z" fill="#EAEAEA"/>
<path d="M145 143.919C145 117.886 111.496 104.586 100.167 80.3356L100 80L99.8328 80.3356C88.5253 104.565 55 117.886 55 143.919C55 165.715 83.6972 174.127 97.7009 155.898C97.9935 154.975 97.68 161.687 96.7394 165.463C93.3744 176.645 81.3144 192.944 75.4412 198C83.5718 190.993 116.47 190.993 124.601 198C118.727 192.944 107.232 177.211 103.302 165.463C102.487 162.212 102.006 158.918 101.797 155.646C115.425 175.407 145 166.156 145 143.919Z" fill="#EAEAEA"/>
</g>
<defs>
<linearGradient id="paint0_linear_2709_119887" x1="0" y1="278.004" x2="200" y2="0.00440461" gradientUnits="userSpaceOnUse">
<stop stop-color="#101010"/>
<stop offset="0.712851" stop-color="#201F1F"/>
<stop offset="1" stop-color="#101010"/>
</linearGradient>
<clipPath id="clip0_2709_119887">
<rect width="200" height="278" fill="white"/>
</clipPath>
</defs>
</svg>
