<svg width="200" height="278" viewBox="0 0 200 278" fill="none" xmlns="http://www.w3.org/2000/svg">
<g clip-path="url(#clip0_2709_119951)">
<rect y="0.00439453" width="200" height="278" rx="10" fill="url(#paint0_linear_2709_119951)"/>
<path d="M16.1951 47.0044V42.6443C18.7967 40.3764 21.1057 38.2522 23.122 36.2718C25.1707 34.2914 26.7642 32.4547 27.9024 30.7617C29.0732 29.0688 29.6585 27.5196 29.6585 26.1141C29.6585 24.6128 29.2683 23.4789 28.4878 22.7123C27.7073 21.9137 26.6341 21.5144 25.2683 21.5144C24.1626 21.5144 23.1545 21.8339 22.2439 22.4727C21.3659 23.0796 20.5366 23.7983 19.7561 24.6288L16 20.9874C17.4959 19.3264 19.0244 18.0806 20.5854 17.2501C22.1789 16.4196 24.065 16.0044 26.2439 16.0044C28.2602 16.0044 30.0325 16.4037 31.561 17.2022C33.122 18.0008 34.3252 19.1188 35.1707 20.5562C36.0488 21.9936 36.4878 23.6865 36.4878 25.635C36.4878 27.4557 35.9837 29.2445 34.9756 31.0013C34 32.7262 32.6992 34.4511 31.0732 36.176C29.4472 37.9008 27.7236 39.6577 25.9024 41.4464C26.6829 41.3506 27.561 41.2708 28.5366 41.2069C29.5122 41.111 30.3577 41.0631 31.0732 41.0631H38V47.0044H16.1951Z" fill="#EAEAEA"/>
<path d="M182.805 231.004L182.805 235.365C180.203 237.632 177.894 239.757 175.878 241.737C173.829 243.717 172.236 245.554 171.098 247.247C169.927 248.94 169.341 250.489 169.341 251.895C169.341 253.396 169.732 254.53 170.512 255.297C171.293 256.095 172.366 256.494 173.732 256.494C174.837 256.494 175.846 256.175 176.756 255.536C177.634 254.929 178.463 254.21 179.244 253.38L183 257.021C181.504 258.682 179.976 259.928 178.415 260.759C176.821 261.589 174.935 262.004 172.756 262.004C170.74 262.004 168.967 261.605 167.439 260.807C165.878 260.008 164.675 258.89 163.829 257.453C162.951 256.015 162.512 254.322 162.512 252.374C162.512 250.553 163.016 248.764 164.024 247.007C165 245.283 166.301 243.558 167.927 241.833C169.553 240.108 171.276 238.351 173.098 236.562C172.317 236.658 171.439 236.738 170.463 236.802C169.488 236.898 168.642 236.946 167.927 236.946L161 236.946L161 231.004L182.805 231.004Z" fill="#EAEAEA"/>
<path d="M161 206.278C161 212.685 169.563 215.95 172.454 221.916L172.491 222.004L172.527 221.916C175.418 215.95 184 212.685 184 206.295C184 200.93 176.663 198.864 173.076 203.348C173.003 203.577 173.076 201.918 173.314 201C174.174 198.247 177.267 194.24 178.767 193.004C176.681 194.734 168.264 194.717 166.196 193.004C167.697 194.258 170.643 198.105 171.649 201C171.85 201.794 171.979 202.606 172.033 203.418C168.557 198.547 161 200.806 161 206.278Z" fill="#EAEAEA"/>
<path d="M39 71.7311C39 65.3239 30.4367 62.0586 27.5457 56.0926L27.5091 56.0044L27.4725 56.0926C24.5815 62.0586 16 65.3239 16 71.7135C16 77.0793 23.3373 79.1444 26.9236 74.6611C26.9968 74.4317 26.9236 76.0908 26.6857 77.0086C25.8258 79.7621 22.7335 83.7688 21.2331 85.0044C23.319 83.2746 31.7359 83.2923 33.8035 85.0044C32.3031 83.7512 29.3572 79.9034 28.3508 77.0086C28.1496 76.2144 28.0215 75.4024 27.9666 74.5905C31.4431 79.4621 39 77.2028 39 71.7311Z" fill="#EAEAEA"/>
<path d="M109 85.935C109 81.0744 102.298 78.5972 100.036 74.0713L100.007 74.0044L99.9785 74.0713C97.716 78.5972 91 81.0744 91 85.9216C91 89.9922 96.7422 91.5589 99.5489 88.1578C99.6062 87.9837 99.5489 89.2424 99.3628 89.9387C98.6897 92.0275 96.2697 95.0671 95.0955 96.0044C96.7279 94.6922 103.315 94.7056 104.933 96.0044C103.759 95.0537 101.453 92.1346 100.666 89.9387C100.508 89.3361 100.408 88.7202 100.365 88.1042C103.086 91.7999 109 90.086 109 85.935Z" fill="#EAEAEA"/>
<path d="M91 192.074C91 196.934 97.7017 199.412 99.9642 203.937L99.9929 204.004L100.022 203.937C102.284 199.412 109 196.934 109 192.087C109 188.017 103.258 186.45 100.451 189.851C100.394 190.025 100.451 188.766 100.637 188.07C101.31 185.981 103.73 182.942 104.905 182.004C103.272 183.317 96.685 183.303 95.0668 182.004C96.241 182.955 98.5465 185.874 99.3341 188.07C99.4917 188.673 99.5919 189.289 99.6349 189.905C96.9141 186.209 91 187.923 91 192.074Z" fill="#EAEAEA"/>
</g>
<defs>
<linearGradient id="paint0_linear_2709_119951" x1="0" y1="278.004" x2="200" y2="0.00440461" gradientUnits="userSpaceOnUse">
<stop stop-color="#101010"/>
<stop offset="0.712851" stop-color="#201F1F"/>
<stop offset="1" stop-color="#101010"/>
</linearGradient>
<clipPath id="clip0_2709_119951">
<rect width="200" height="278" fill="white"/>
</clipPath>
</defs>
</svg>
