<svg width="200" height="278" viewBox="0 0 200 278" fill="none" xmlns="http://www.w3.org/2000/svg">
<g clip-path="url(#clip0_2709_119991)">
<rect y="0.00439453" width="200" height="278" rx="10" fill="url(#paint0_linear_2709_119991)"/>
<path d="M161 206.278C161 212.685 169.563 215.95 172.454 221.916L172.491 222.004L172.527 221.916C175.418 215.95 184 212.685 184 206.295C184 200.93 176.663 198.864 173.076 203.348C173.003 203.577 173.076 201.918 173.314 201C174.174 198.247 177.267 194.24 178.767 193.004C176.681 194.734 168.264 194.717 166.196 193.004C167.697 194.258 170.643 198.105 171.649 201C171.85 201.794 171.979 202.606 172.033 203.418C168.557 198.547 161 200.806 161 206.278Z" fill="#EAEAEA"/>
<path d="M39 71.7311C39 65.3239 30.4367 62.0586 27.5457 56.0926L27.5091 56.0044L27.4725 56.0926C24.5815 62.0586 16 65.3239 16 71.7135C16 77.0793 23.3373 79.1444 26.9236 74.6611C26.9968 74.4317 26.9236 76.0908 26.6857 77.0086C25.8258 79.7621 22.7335 83.7688 21.2331 85.0044C23.319 83.2746 31.7359 83.2923 33.8035 85.0044C32.3031 83.7512 29.3572 79.9034 28.3508 77.0086C28.1496 76.2144 28.0215 75.4024 27.9666 74.5905C31.4431 79.4621 39 77.2028 39 71.7311Z" fill="#EAEAEA"/>
<path d="M26.6389 47.0044C25.0022 47.0044 23.5098 46.8162 22.1619 46.4399C20.8461 46.0949 19.6747 45.6088 18.6477 44.9816C17.6207 44.3544 16.7381 43.6174 16 42.7707L19.2735 38.3959C20.2042 39.274 21.2312 39.9953 22.3545 40.5598C23.4778 41.1243 24.6813 41.4065 25.965 41.4065C27.4413 41.4065 28.6287 41.1086 29.5274 40.5127C30.4581 39.8855 30.9234 39.0074 30.9234 37.8784C30.9234 37.0003 30.6988 36.2477 30.2495 35.6205C29.8001 34.9619 28.9818 34.4601 27.7943 34.1152C26.6389 33.7702 24.938 33.5977 22.6915 33.5977V28.7055C24.5208 28.7055 25.965 28.533 27.0241 28.188C28.0831 27.843 28.8213 27.3726 29.2385 26.7768C29.6878 26.1809 29.9125 25.491 29.9125 24.707C29.9125 23.6407 29.5755 22.8253 28.9015 22.2608C28.2597 21.6964 27.345 21.4141 26.1575 21.4141C25.0664 21.4141 24.0715 21.6493 23.1729 22.1197C22.3063 22.5588 21.3917 23.2017 20.4289 24.0484L16.8665 19.8147C18.2786 18.623 19.771 17.6979 21.3435 17.0393C22.9161 16.3494 24.6331 16.0044 26.4945 16.0044C28.5806 16.0044 30.4099 16.3337 31.9825 16.9923C33.5872 17.6195 34.8228 18.5446 35.6893 19.7677C36.5879 20.9594 37.0372 22.4333 37.0372 24.1895C37.0372 25.7262 36.5879 27.0433 35.6893 28.141C34.8228 29.2386 33.5711 30.1324 31.9344 30.8223V31.0105C33.0897 31.3554 34.1327 31.8572 35.0635 32.5158C35.9942 33.143 36.7163 33.9427 37.2298 34.9149C37.7433 35.887 38 37.016 38 38.3018C38 40.1521 37.4705 41.7358 36.4114 43.053C35.3844 44.3387 34.0044 45.3266 32.2713 46.0165C30.5704 46.6751 28.6929 47.0044 26.6389 47.0044Z" fill="#EAEAEA"/>
<path d="M172.361 231.004C173.998 231.004 175.49 231.193 176.838 231.569C178.154 231.914 179.325 232.4 180.352 233.027C181.379 233.654 182.262 234.391 183 235.238L179.726 239.613C178.796 238.735 177.769 238.014 176.646 237.449C175.522 236.885 174.319 236.602 173.035 236.602C171.559 236.602 170.371 236.9 169.473 237.496C168.542 238.123 168.077 239.001 168.077 240.13C168.077 241.008 168.301 241.761 168.751 242.388C169.2 243.047 170.018 243.549 171.206 243.894C172.361 244.239 174.062 244.411 176.309 244.411L176.309 249.303C174.479 249.303 173.035 249.476 171.976 249.821C170.917 250.166 170.179 250.636 169.761 251.232C169.312 251.828 169.088 252.518 169.088 253.302C169.088 254.368 169.425 255.183 170.098 255.748C170.74 256.312 171.655 256.595 172.842 256.595C173.934 256.595 174.929 256.359 175.827 255.889C176.694 255.45 177.608 254.807 178.571 253.96L182.133 258.194C180.721 259.386 179.229 260.311 177.656 260.969C176.084 261.659 174.367 262.004 172.505 262.004C170.419 262.004 168.59 261.675 167.018 261.017C165.413 260.389 164.177 259.464 163.311 258.241C162.412 257.049 161.963 255.575 161.963 253.819C161.963 252.283 162.412 250.965 163.311 249.868C164.177 248.77 165.429 247.876 167.066 247.186L167.066 246.998C165.91 246.653 164.867 246.152 163.937 245.493C163.006 244.866 162.284 244.066 161.77 243.094C161.257 242.122 161 240.993 161 239.707C161 237.857 161.53 236.273 162.589 234.956C163.616 233.67 164.996 232.682 166.729 231.992C168.43 231.334 170.307 231.004 172.361 231.004Z" fill="#EAEAEA"/>
<path d="M109 85.935C109 81.0744 102.298 78.5972 100.036 74.0713L100.007 74.0044L99.9785 74.0713C97.716 78.5972 91 81.0744 91 85.9216C91 89.9922 96.7422 91.5589 99.5489 88.1578C99.6062 87.9837 99.5489 89.2424 99.3628 89.9387C98.6897 92.0275 96.2697 95.0671 95.0955 96.0044C96.7279 94.6922 103.315 94.7056 104.933 96.0044C103.759 95.0537 101.453 92.1346 100.666 89.9387C100.508 89.3361 100.408 88.7202 100.365 88.1042C103.086 91.7999 109 90.086 109 85.935Z" fill="#EAEAEA"/>
<path d="M109 139.935C109 135.074 102.298 132.597 100.036 128.071L100.007 128.004L99.9785 128.071C97.716 132.597 91 135.074 91 139.922C91 143.992 96.7422 145.559 99.5489 142.158C99.6062 141.984 99.5489 143.242 99.3628 143.939C98.6897 146.028 96.2697 149.067 95.0955 150.004C96.7279 148.692 103.315 148.706 104.933 150.004C103.759 149.054 101.453 146.135 100.666 143.939C100.508 143.336 100.408 142.72 100.365 142.104C103.086 145.8 109 144.086 109 139.935Z" fill="#EAEAEA"/>
<path d="M91 192.074C91 196.934 97.7017 199.412 99.9642 203.937L99.9929 204.004L100.022 203.937C102.284 199.412 109 196.934 109 192.087C109 188.017 103.258 186.45 100.451 189.851C100.394 190.025 100.451 188.766 100.637 188.07C101.31 185.981 103.73 182.942 104.905 182.004C103.272 183.317 96.685 183.303 95.0668 182.004C96.241 182.955 98.5465 185.874 99.3341 188.07C99.4917 188.673 99.5919 189.289 99.6349 189.905C96.9141 186.209 91 187.923 91 192.074Z" fill="#EAEAEA"/>
</g>
<defs>
<linearGradient id="paint0_linear_2709_119991" x1="0" y1="278.004" x2="200" y2="0.00440461" gradientUnits="userSpaceOnUse">
<stop stop-color="#101010"/>
<stop offset="0.712851" stop-color="#201F1F"/>
<stop offset="1" stop-color="#101010"/>
</linearGradient>
<clipPath id="clip0_2709_119991">
<rect width="200" height="278" fill="white"/>
</clipPath>
</defs>
</svg>
