<svg width="200" height="278" viewBox="0 0 200 278" fill="none" xmlns="http://www.w3.org/2000/svg">
<g clip-path="url(#clip0_2709_120039)">
<rect y="0.00439453" width="200" height="278" rx="10" fill="url(#paint0_linear_2709_120039)"/>
<path d="M160 206.278C160 212.685 168.563 215.95 171.454 221.916L171.491 222.004L171.527 221.916C174.418 215.95 183 212.685 183 206.295C183 200.93 175.663 198.864 172.076 203.348C172.003 203.577 172.076 201.918 172.314 201C173.174 198.247 176.267 194.24 177.767 193.004C175.681 194.734 167.264 194.717 165.196 193.004C166.697 194.258 169.643 198.105 170.649 201C170.85 201.794 170.979 202.606 171.033 203.418C167.557 198.547 160 200.806 160 206.278Z" fill="#EAEAEA"/>
<path d="M39 71.7311C39 65.3239 30.4367 62.0586 27.5457 56.0926L27.5091 56.0044L27.4725 56.0926C24.5815 62.0586 16 65.3239 16 71.7135C16 77.0793 23.3373 79.1444 26.9236 74.6611C26.9968 74.4317 26.9236 76.0908 26.6857 77.0086C25.8258 79.7621 22.7335 83.7688 21.2331 85.0044C23.319 83.2746 31.7359 83.2923 33.8035 85.0044C32.3031 83.7512 29.3572 79.9034 28.3508 77.0086C28.1496 76.2144 28.0215 75.4024 27.9666 74.5905C31.4431 79.4621 39 77.2028 39 71.7311Z" fill="#EAEAEA"/>
<path d="M29.6082 47.0044V29.0879C29.6082 28.1115 29.6412 26.9561 29.7072 25.6217C29.8062 24.2873 29.8722 23.132 29.9052 22.1556H29.7072C29.3113 23.0018 28.899 23.8642 28.4701 24.743C28.0412 25.5892 27.5959 26.4679 27.134 27.3792L22.9773 34.1162H40V39.5839H16V34.6532L27.4804 16.0044H36.3876V47.0044H29.6082Z" fill="#EAEAEA"/>
<path d="M170.392 231.004L170.392 248.921C170.392 249.897 170.359 251.053 170.293 252.387C170.194 253.721 170.128 254.877 170.095 255.853L170.293 255.853C170.689 255.007 171.101 254.145 171.53 253.266C171.959 252.42 172.404 251.541 172.866 250.63L177.023 243.893L160 243.893L160 238.425L184 238.425L184 243.356L172.52 262.004L163.612 262.004L163.612 231.004L170.392 231.004Z" fill="#EAEAEA"/>
<path d="M85 85.935C85 81.0744 78.2983 78.5972 76.0358 74.0713L76.0071 74.0044L75.9785 74.0713C73.716 78.5972 67 81.0744 67 85.9216C67 89.9922 72.7422 91.5589 75.5489 88.1578C75.6062 87.9837 75.5489 89.2424 75.3628 89.9387C74.6897 92.0275 72.2697 95.0671 71.0955 96.0044C72.7279 94.6922 79.315 94.7056 80.9332 96.0044C79.759 95.0537 77.4535 92.1346 76.6659 89.9387C76.5083 89.3361 76.4081 88.7202 76.3651 88.1042C79.0859 91.7999 85 90.086 85 85.935Z" fill="#EAEAEA"/>
<path d="M133 85.935C133 81.0744 126.298 78.5972 124.036 74.0713L124.007 74.0044L123.978 74.0713C121.716 78.5972 115 81.0744 115 85.9216C115 89.9922 120.742 91.5589 123.549 88.1578C123.606 87.9837 123.549 89.2424 123.363 89.9387C122.69 92.0275 120.27 95.0671 119.095 96.0044C120.728 94.6922 127.315 94.7056 128.933 96.0044C127.759 95.0537 125.453 92.1346 124.666 89.9387C124.508 89.3361 124.408 88.7202 124.365 88.1042C127.086 91.7999 133 90.086 133 85.935Z" fill="#EAEAEA"/>
<path d="M115 192.074C115 196.934 121.702 199.412 123.964 203.937L123.993 204.004L124.022 203.937C126.284 199.412 133 196.934 133 192.087C133 188.017 127.258 186.45 124.451 189.851C124.394 190.025 124.451 188.766 124.637 188.07C125.31 185.981 127.73 182.942 128.905 182.004C127.272 183.317 120.685 183.303 119.067 182.004C120.241 182.955 122.547 185.874 123.334 188.07C123.492 188.673 123.592 189.289 123.635 189.905C120.914 186.209 115 187.923 115 192.074Z" fill="#EAEAEA"/>
<path d="M67 192.074C67 196.934 73.7017 199.412 75.9642 203.937L75.9929 204.004L76.0215 203.937C78.284 199.412 85 196.934 85 192.087C85 188.017 79.2578 186.45 76.4511 189.851C76.3938 190.025 76.4511 188.766 76.6372 188.07C77.3103 185.981 79.7303 182.942 80.9045 182.004C79.2721 183.317 72.685 183.303 71.0668 182.004C72.241 182.955 74.5465 185.874 75.3341 188.07C75.4917 188.673 75.5919 189.289 75.6349 189.905C72.9141 186.209 67 187.923 67 192.074Z" fill="#EAEAEA"/>
</g>
<defs>
<linearGradient id="paint0_linear_2709_120039" x1="0" y1="278.004" x2="200" y2="0.00440461" gradientUnits="userSpaceOnUse">
<stop stop-color="#101010"/>
<stop offset="0.712851" stop-color="#201F1F"/>
<stop offset="1" stop-color="#101010"/>
</linearGradient>
<clipPath id="clip0_2709_120039">
<rect width="200" height="278" fill="white"/>
</clipPath>
</defs>
</svg>
