{
  "asset": {
    "generator": "Khronos glTF Blender I/O v3.6.27",
    "version": "2.0"
  },
  "extensionsUsed": ["KHR_materials_specular", "KHR_materials_ior"],
  "scene": 0,
  "scenes": [
    {
      "name": "Scene",
      "nodes": [0, 3]
    }
  ],
  "nodes": [
    {
      "name": "Empty",
      "rotation": [
        0, -0.7071068286895752, 0.7071068286895752, 1.1520233300643667e-7
      ],
      "scale": [2.5216500759124756, 2.5216500759124756, 2.5216500759124756],
      "translation": [
        -3.0050902366638184, 1.8207826614379883, -2.7256343364715576
      ]
    },
    {
      "mesh": 0,
      "name": "Curve.001",
      "rotation": [0, 0, 1, 0.00019041416817344725],
      "scale": [6.696171760559082, 9.98657512664795, 6.696170806884766],
      "translation": [
        0.012906034477055073, 0.1374867558479309, 0.16858035326004028
      ]
    },
    {
      "mesh": 1,
      "name": "Text",
      "rotation": [0, 0, 1, 0.0001905176613945514],
      "scale": [0.7963481545448303, 1.1876623630523682, 0.7963480353355408],
      "translation": [
        -0.015239118598401546, -0.13561606407165527, 0.016042068600654602
      ]
    },
    {
      "children": [1, 2],
      "mesh": 2,
      "name": "Cylinder",
      "rotation": [
        0.7071068286895752, -0.00012451234215404838, 0.0001245123567059636,
        0.7071068286895752
      ],
      "scale": [1.4632006883621216, 0.981101393699646, 1.4632008075714111],
      "translation": [
        -0.015682034194469452, -0.033442094922065735, -0.014331204816699028
      ]
    }
  ],
  "animations": [
    {
      "channels": [
        {
          "sampler": 0,
          "target": {
            "node": 3,
            "path": "translation"
          }
        },
        {
          "sampler": 1,
          "target": {
            "node": 3,
            "path": "rotation"
          }
        },
        {
          "sampler": 2,
          "target": {
            "node": 3,
            "path": "scale"
          }
        }
      ],
      "name": "Coin flip",
      "samplers": [
        {
          "input": 12,
          "interpolation": "STEP",
          "output": 13
        },
        {
          "input": 14,
          "interpolation": "LINEAR",
          "output": 15
        },
        {
          "input": 12,
          "interpolation": "STEP",
          "output": 16
        }
      ]
    }
  ],
  "materials": [
    {
      "doubleSided": true,
      "name": "\u041e\u0440\u0451\u043b",
      "pbrMetallicRoughness": {
        "baseColorFactor": [1, 0.28211942315101624, 0, 1],
        "roughnessFactor": 0.08549222350120544
      }
    },
    {
      "doubleSided": true,
      "extensions": {
        "KHR_materials_specular": {
          "specularColorFactor": [
            1.3393346148791572, 1.2223959221874148, 1.1187501844834558
          ]
        },
        "KHR_materials_ior": {
          "ior": 1.4500000476837158
        }
      },
      "name": "Material.001",
      "pbrMetallicRoughness": {
        "baseColorFactor": [1, 0.5010713934898376, 0.05885827913880348, 1],
        "metallicFactor": 0.8808290362358093,
        "roughnessFactor": 0.29015541076660156
      }
    }
  ],
  "meshes": [
    {
      "name": "Curve.004",
      "primitives": [
        {
          "attributes": {
            "POSITION": 0,
            "NORMAL": 1,
            "TEXCOORD_0": 2
          },
          "indices": 3,
          "material": 0
        }
      ]
    },
    {
      "name": "DRAX",
      "primitives": [
        {
          "attributes": {
            "POSITION": 4,
            "NORMAL": 5,
            "TEXCOORD_0": 6
          },
          "indices": 7,
          "material": 0
        }
      ]
    },
    {
      "name": "Cylinder",
      "primitives": [
        {
          "attributes": {
            "POSITION": 8,
            "NORMAL": 9,
            "TEXCOORD_0": 10
          },
          "indices": 11,
          "material": 1
        }
      ]
    }
  ],
  "accessors": [
    {
      "bufferView": 0,
      "componentType": 5126,
      "count": 5364,
      "max": [0.08669774979352951, 0.0010000000474974513, 0.04962723329663277],
      "min": [
        -0.08775864541530609, -0.0010000000474974513, -0.08877982199192047
      ],
      "type": "VEC3"
    },
    {
      "bufferView": 1,
      "componentType": 5126,
      "count": 5364,
      "type": "VEC3"
    },
    {
      "bufferView": 2,
      "componentType": 5126,
      "count": 5364,
      "type": "VEC2"
    },
    {
      "bufferView": 3,
      "componentType": 5123,
      "count": 15984,
      "type": "SCALAR"
    },
    {
      "bufferView": 4,
      "componentType": 5126,
      "count": 190,
      "max": [0.7713414430618286, 0.010999999940395355, 0.267378032207489],
      "min": [-0.7713414430618286, -0.010999999940395355, -0.267378032207489],
      "type": "VEC3"
    },
    {
      "bufferView": 5,
      "componentType": 5126,
      "count": 190,
      "type": "VEC3"
    },
    {
      "bufferView": 6,
      "componentType": 5126,
      "count": 190,
      "type": "VEC2"
    },
    {
      "bufferView": 7,
      "componentType": 5123,
      "count": 516,
      "type": "SCALAR"
    },
    {
      "bufferView": 8,
      "componentType": 5126,
      "count": 29803,
      "max": [0.9999864101409912, 0.14289937913417816, 0.9999455213546753],
      "min": [-0.9999864101409912, -0.14289937913417816, -1],
      "type": "VEC3"
    },
    {
      "bufferView": 9,
      "componentType": 5126,
      "count": 29803,
      "type": "VEC3"
    },
    {
      "bufferView": 10,
      "componentType": 5126,
      "count": 29803,
      "type": "VEC2"
    },
    {
      "bufferView": 11,
      "componentType": 5123,
      "count": 139050,
      "type": "SCALAR"
    },
    {
      "bufferView": 12,
      "componentType": 5126,
      "count": 2,
      "max": [2.5],
      "min": [0.041666666666666664],
      "type": "SCALAR"
    },
    {
      "bufferView": 13,
      "componentType": 5126,
      "count": 2,
      "type": "VEC3"
    },
    {
      "bufferView": 14,
      "componentType": 5126,
      "count": 60,
      "max": [2.5],
      "min": [0.041666666666666664],
      "type": "SCALAR"
    },
    {
      "bufferView": 15,
      "componentType": 5126,
      "count": 60,
      "type": "VEC4"
    },
    {
      "bufferView": 16,
      "componentType": 5126,
      "count": 2,
      "type": "VEC3"
    }
  ],
  "bufferViews": [
    {
      "buffer": 0,
      "byteLength": 64368,
      "byteOffset": 0,
      "target": 34962
    },
    {
      "buffer": 0,
      "byteLength": 64368,
      "byteOffset": 64368,
      "target": 34962
    },
    {
      "buffer": 0,
      "byteLength": 42912,
      "byteOffset": 128736,
      "target": 34962
    },
    {
      "buffer": 0,
      "byteLength": 31968,
      "byteOffset": 171648,
      "target": 34963
    },
    {
      "buffer": 0,
      "byteLength": 2280,
      "byteOffset": 203616,
      "target": 34962
    },
    {
      "buffer": 0,
      "byteLength": 2280,
      "byteOffset": 205896,
      "target": 34962
    },
    {
      "buffer": 0,
      "byteLength": 1520,
      "byteOffset": 208176,
      "target": 34962
    },
    {
      "buffer": 0,
      "byteLength": 1032,
      "byteOffset": 209696,
      "target": 34963
    },
    {
      "buffer": 0,
      "byteLength": 357636,
      "byteOffset": 210728,
      "target": 34962
    },
    {
      "buffer": 0,
      "byteLength": 357636,
      "byteOffset": 568364,
      "target": 34962
    },
    {
      "buffer": 0,
      "byteLength": 238424,
      "byteOffset": 926000,
      "target": 34962
    },
    {
      "buffer": 0,
      "byteLength": 278100,
      "byteOffset": 1164424,
      "target": 34963
    },
    {
      "buffer": 0,
      "byteLength": 8,
      "byteOffset": 1442524
    },
    {
      "buffer": 0,
      "byteLength": 24,
      "byteOffset": 1442532
    },
    {
      "buffer": 0,
      "byteLength": 240,
      "byteOffset": 1442556
    },
    {
      "buffer": 0,
      "byteLength": 960,
      "byteOffset": 1442796
    },
    {
      "buffer": 0,
      "byteLength": 24,
      "byteOffset": 1443756
    }
  ],
  "buffers": [
    {
      "byteLength": 1443780,
      "uri": "data:application/octet-stream;base64,"
    }
  ]
}
