<svg width="54" height="74" viewBox="0 0 54 74" fill="none" xmlns="http://www.w3.org/2000/svg">
<g clip-path="url(#clip0_3238_56736)">
<rect x="0.518555" y="0.00146484" width="53" height="74" rx="2.65" fill="#292929"/>
<path fill-rule="evenodd" clip-rule="evenodd" d="M42.9187 55.0275C43.4719 55.0226 45.937 52.4943 45.9273 51.9411C45.9322 52.4943 48.4605 54.9595 49.0137 54.9498C48.4605 54.9547 45.9953 57.4829 46.005 58.0361C46.0001 57.4829 43.4719 55.0226 42.9187 55.0275Z" fill="#E04749"/>
<path fill-rule="evenodd" clip-rule="evenodd" d="M10.8538 18.6449C10.3006 18.6498 7.83541 21.178 7.84512 21.7312C7.84027 21.178 5.312 18.7128 4.75879 18.7225C5.312 18.7177 7.77718 16.1894 7.76747 15.6362C7.77233 16.1894 10.3006 18.6498 10.8538 18.6449Z" fill="#E04749"/>
<path d="M8.36497 12.5121V7.7429C8.36497 7.483 8.37372 7.17546 8.3912 6.82026C8.41743 6.46507 8.43491 6.15752 8.44365 5.89762H8.3912C8.28629 6.12287 8.17702 6.35244 8.06337 6.58635C7.94972 6.8116 7.8317 7.04551 7.7093 7.28808L6.60778 9.08138H11.1188V10.5368H4.75879V9.22433L7.8011 4.26025H10.1615V12.5121H8.36497Z" fill="#E04749"/>
<path d="M45.6721 61.4904L45.6721 66.2595C45.6721 66.5194 45.6634 66.827 45.6459 67.1822C45.6197 67.5374 45.6022 67.8449 45.5935 68.1048L45.6459 68.1048C45.7508 67.8796 45.8601 67.65 45.9737 67.4161C46.0874 67.1908 46.2054 66.9569 46.3278 66.7144L47.4293 64.9211L42.9183 64.9211L42.9183 63.4656L49.2783 63.4656L49.2783 64.7781L46.236 69.7422L43.8756 69.7422L43.8756 61.4904L45.6721 61.4904Z" fill="#E04749"/>
<path fill-rule="evenodd" clip-rule="evenodd" d="M23.5732 22.4892C23.044 22.4938 20.686 24.9122 20.6953 25.4413C20.6907 24.9122 18.2723 22.5542 17.7432 22.5635C18.2723 22.5588 20.6303 20.1405 20.621 19.6113C20.6257 20.1405 23.044 22.4938 23.5732 22.4892Z" fill="#E04749"/>
<path fill-rule="evenodd" clip-rule="evenodd" d="M36.2929 22.4892C35.7637 22.4938 33.4057 24.9122 33.415 25.4413C33.4104 24.9122 30.992 22.5542 30.4629 22.5635C30.992 22.5588 33.35 20.1405 33.3408 19.6113C33.3454 20.1405 35.7637 22.4938 36.2929 22.4892Z" fill="#E04749"/>
<path fill-rule="evenodd" clip-rule="evenodd" d="M30.463 51.1832C30.9921 51.1785 33.3501 48.7602 33.3408 48.231C33.3455 48.7602 35.7638 51.1182 36.293 51.1089C35.7638 51.1135 33.4058 53.5319 33.4151 54.061C33.4105 53.5319 30.9921 51.1785 30.463 51.1832Z" fill="#E04749"/>
<path fill-rule="evenodd" clip-rule="evenodd" d="M17.7432 51.1832C18.2724 51.1785 20.6304 48.7602 20.6211 48.231C20.6257 48.7602 23.0441 51.1182 23.5732 51.1089C23.0441 51.1135 20.6861 53.5319 20.6954 54.061C20.6907 53.5319 18.2724 51.1785 17.7432 51.1832Z" fill="#E04749"/>
</g>
<defs>
<clipPath id="clip0_3238_56736">
<rect width="53" height="74" fill="white" transform="translate(0.518555)"/>
</clipPath>
</defs>
</svg>
