<svg width="54" height="74" viewBox="0 0 54 74" fill="none" xmlns="http://www.w3.org/2000/svg">
<g clip-path="url(#clip0_3238_57166)">
<rect x="0.75" y="0.0012207" width="53" height="74" rx="2.65" fill="#292929"/>
<path d="M41.8249 54.6635C41.8249 56.3614 44.0942 57.2267 44.8603 58.8077L44.87 58.8311L44.8797 58.8077C45.6458 57.2267 47.9199 56.3614 47.9199 54.6682C47.9199 53.2462 45.9755 52.699 45.0252 53.887C45.0058 53.9478 45.0252 53.5082 45.0882 53.2649C45.3161 52.5352 46.1355 51.4735 46.5332 51.1461C45.9804 51.6044 43.7499 51.5998 43.202 51.1461C43.5996 51.4782 44.3803 52.4978 44.647 53.2649C44.7003 53.4754 44.7342 53.6906 44.7488 53.9057C43.8275 52.6148 41.8249 53.2135 41.8249 54.6635Z" fill="#EAEAEA"/>
<path d="M12.6751 19.0086C12.6751 17.3107 10.4058 16.4454 9.6397 14.8645L9.63 14.8411L9.6203 14.8645C8.85418 16.4454 6.58008 17.3107 6.58008 19.004C6.58008 20.4259 8.52446 20.9732 9.47484 19.7851C9.49423 19.7243 9.47484 20.164 9.4118 20.4072C9.18391 21.1369 8.36445 22.1986 7.96685 22.5261C8.51962 22.0677 10.7501 22.0724 11.298 22.5261C10.9004 22.194 10.1197 21.1743 9.85305 20.4072C9.79971 20.1967 9.76577 19.9815 9.75122 19.7664C10.6725 21.0574 12.6751 20.4586 12.6751 19.0086Z" fill="#EAEAEA"/>
<path d="M3.92969 12.3615V10.8715H5.64509V6.276H4.16587V5.13653C4.59679 5.05305 4.96141 4.95288 5.25974 4.83601C5.56636 4.71914 5.85641 4.57723 6.12988 4.41027H7.47236V10.8715H8.95159V12.3615H3.92969Z" fill="#EAEAEA"/>
<path d="M12.503 12.5118C11.6577 12.5118 10.974 12.157 10.452 11.4475C9.93816 10.7379 9.68127 9.70695 9.68127 8.3546C9.68127 6.99391 9.93816 5.97131 10.452 5.28679C10.974 4.60227 11.6577 4.26001 12.503 4.26001C13.3482 4.26001 14.0278 4.60644 14.5416 5.29931C15.0636 5.98383 15.3247 7.00226 15.3247 8.3546C15.3247 9.70695 15.0636 10.7379 14.5416 11.4475C14.0278 12.157 13.3482 12.5118 12.503 12.5118ZM12.503 11.0843C12.7102 11.0843 12.8966 11.0092 13.0623 10.8589C13.2281 10.7003 13.3565 10.4249 13.4477 10.0325C13.5471 9.63182 13.5969 9.07252 13.5969 8.3546C13.5969 7.62835 13.5471 7.07322 13.4477 6.68922C13.3565 6.30522 13.2281 6.04226 13.0623 5.90035C12.8966 5.75844 12.7102 5.68748 12.503 5.68748C12.2958 5.68748 12.1093 5.75844 11.9436 5.90035C11.7779 6.04226 11.6453 6.30522 11.5458 6.68922C11.4547 7.07322 11.4091 7.62835 11.4091 8.3546C11.4091 9.07252 11.4547 9.63182 11.5458 10.0325C11.6453 10.4249 11.7779 10.7003 11.9436 10.8589C12.1093 11.0092 12.2958 11.0843 12.503 11.0843Z" fill="#EAEAEA"/>
<path d="M50.5703 61.6406L50.5703 63.1307L48.8549 63.1307L48.8549 67.7262L50.3341 67.7262L50.3341 68.8657C49.9032 68.9491 49.5386 69.0493 49.2403 69.1662C48.9336 69.2831 48.6436 69.425 48.3701 69.5919L47.0276 69.5919L47.0276 63.1307L45.5484 63.1307L45.5484 61.6406L50.5703 61.6406Z" fill="#EAEAEA"/>
<path d="M41.997 61.4904C42.8423 61.4904 43.526 61.8452 44.048 62.5547C44.5618 63.2643 44.8187 64.2952 44.8187 65.6476C44.8187 67.0083 44.5618 68.0309 44.048 68.7154C43.526 69.3999 42.8423 69.7422 41.997 69.7422C41.1518 69.7422 40.4722 69.3958 39.9584 68.7029C39.4364 68.0184 39.1753 66.9999 39.1753 65.6476C39.1753 64.2952 39.4364 63.2643 39.9584 62.5547C40.4722 61.8452 41.1518 61.4904 41.997 61.4904ZM41.997 62.9179C41.7898 62.9179 41.6034 62.993 41.4377 63.1433C41.2719 63.3019 41.1435 63.5773 41.0523 63.9697C40.9529 64.3704 40.9031 64.9297 40.9031 65.6476C40.9031 66.3739 40.9529 66.929 41.0523 67.313C41.1435 67.697 41.2719 67.9599 41.4377 68.1018C41.6034 68.2438 41.7898 68.3147 41.997 68.3147C42.2042 68.3147 42.3907 68.2438 42.5564 68.1018C42.7221 67.9599 42.8547 67.697 42.9542 67.313C43.0453 66.929 43.0909 66.3739 43.0909 65.6476C43.0909 64.9297 43.0453 64.3704 42.9542 63.9697C42.8547 63.5773 42.7221 63.3019 42.5564 63.1433C42.3907 62.993 42.2042 62.9179 41.997 62.9179Z" fill="#EAEAEA"/>
<path d="M23.2749 22.7729C23.2749 21.4849 21.4989 20.8284 20.8994 19.6291L20.8918 19.6113L20.8842 19.6291C20.2846 20.8284 18.5049 21.4849 18.5049 22.7694C18.5049 23.8481 20.0266 24.2633 20.7703 23.362C20.7855 23.3158 20.7703 23.6494 20.721 23.8339C20.5427 24.3875 19.9014 25.1929 19.5902 25.4413C20.0228 25.0936 21.7684 25.0971 22.1972 25.4413C21.886 25.1894 21.275 24.4158 21.0663 23.8339C21.0246 23.6742 20.998 23.511 20.9866 23.3478C21.7076 24.3271 23.2749 23.8729 23.2749 22.7729Z" fill="#EAEAEA"/>
<path d="M35.9956 22.7729C35.9956 21.4849 34.2196 20.8284 33.6201 19.6291L33.6125 19.6113L33.6049 19.6291C33.0053 20.8284 31.2256 21.4849 31.2256 22.7694C31.2256 23.8481 32.7473 24.2633 33.4911 23.362C33.5062 23.3158 33.491 23.6494 33.4417 23.8339C33.2634 24.3875 32.6221 25.1929 32.3109 25.4413C32.7435 25.0936 34.4891 25.0971 34.9179 25.4413C34.6067 25.1894 33.9958 24.4158 33.787 23.8339C33.7453 23.6742 33.7187 23.511 33.7073 23.3478C34.4283 24.3271 35.9956 23.8729 35.9956 22.7729Z" fill="#EAEAEA"/>
<path d="M35.9956 32.8428C35.9956 31.5547 34.2196 30.8982 33.6201 29.6989L33.6125 29.6812L33.6049 29.6989C33.0053 30.8982 31.2256 31.5547 31.2256 32.8392C31.2256 33.9179 32.7473 34.3331 33.4911 33.4318C33.5062 33.3857 33.491 33.7192 33.4417 33.9037C33.2634 34.4573 32.6221 35.2628 32.3109 35.5112C32.7435 35.1634 34.4891 35.167 34.9179 35.5112C34.6067 35.2592 33.9958 34.4857 33.787 33.9037C33.7453 33.7441 33.7187 33.5808 33.7073 33.4176C34.4283 34.397 35.9956 33.9428 35.9956 32.8428Z" fill="#EAEAEA"/>
<path d="M18.5044 40.8296C18.5044 42.1177 20.2804 42.7741 20.8799 43.9735L20.8875 43.9912L20.8951 43.9735C21.4947 42.7741 23.2744 42.1177 23.2744 40.8331C23.2744 39.7544 21.7527 39.3393 21.0089 40.2406C20.9938 40.2867 21.009 39.9531 21.0583 39.7686C21.2366 39.2151 21.8779 38.4096 22.1891 38.1612C21.7565 38.509 20.0109 38.5054 19.5821 38.1612C19.8933 38.4131 20.5042 39.1867 20.713 39.7686C20.7547 39.9283 20.7813 40.0915 20.7927 40.2548C20.0716 39.2754 18.5044 39.7296 18.5044 40.8296Z" fill="#EAEAEA"/>
<path d="M29.6352 27.8079C29.6352 26.5198 27.8593 25.8633 27.2597 24.664L27.2521 24.6462L27.2445 24.664C26.645 25.8633 24.8652 26.5198 24.8652 27.8043C24.8652 28.883 26.3869 29.2982 27.1307 28.3969C27.1459 28.3508 27.1307 28.6843 27.0814 28.8688C26.903 29.4224 26.2617 30.2279 25.9505 30.4762C26.3831 30.1285 28.1287 30.132 28.5575 30.4762C28.2464 30.2243 27.6354 29.4508 27.4267 28.8688C27.3849 28.7091 27.3584 28.5459 27.347 28.3827C28.068 29.362 29.6352 28.9079 29.6352 27.8079Z" fill="#EAEAEA"/>
<path d="M24.8648 45.8645C24.8648 47.1526 26.6407 47.809 27.2403 49.0084L27.2479 49.0261L27.2555 49.0084C27.855 47.809 29.6348 47.1526 29.6348 45.8681C29.6348 44.7894 28.1131 44.3742 27.3693 45.2755C27.3541 45.3216 27.3693 44.9881 27.4186 44.8035C27.597 44.25 28.2383 43.4445 28.5495 43.1961C28.1169 43.5439 26.3713 43.5403 25.9425 43.1961C26.2536 43.4481 26.8646 44.2216 27.0733 44.8035C27.1151 44.9632 27.1416 45.1264 27.153 45.2897C26.432 44.3103 24.8648 44.7645 24.8648 45.8645Z" fill="#EAEAEA"/>
<path d="M23.2749 32.8428C23.2749 31.5547 21.4989 30.8982 20.8994 29.6989L20.8918 29.6812L20.8842 29.6989C20.2846 30.8982 18.5049 31.5547 18.5049 32.8392C18.5049 33.9179 20.0266 34.3331 20.7703 33.4318C20.7855 33.3857 20.7703 33.7192 20.721 33.9037C20.5427 34.4573 19.9014 35.2628 19.5902 35.5112C20.0228 35.1634 21.7684 35.167 22.1972 35.5112C21.886 35.2592 21.275 34.4857 21.0663 33.9037C21.0246 33.7441 20.998 33.5808 20.9866 33.4176C21.7076 34.397 23.2749 33.9428 23.2749 32.8428Z" fill="#EAEAEA"/>
<path d="M31.2251 40.8296C31.2251 42.1177 33.0011 42.7741 33.6006 43.9735L33.6082 43.9912L33.6158 43.9735C34.2154 42.7741 35.9951 42.1177 35.9951 40.8331C35.9951 39.7544 34.4734 39.3393 33.7297 40.2406C33.7145 40.2867 33.7297 39.9531 33.779 39.7686C33.9573 39.2151 34.5986 38.4096 34.9098 38.1612C34.4772 38.509 32.7316 38.5054 32.3028 38.1612C32.614 38.4131 33.225 39.1867 33.4337 39.7686C33.4754 39.9283 33.502 40.0915 33.5134 40.2548C32.7924 39.2754 31.2251 39.7296 31.2251 40.8296Z" fill="#EAEAEA"/>
<path d="M31.2251 50.8997C31.2251 52.1877 33.0011 52.8442 33.6006 54.0435L33.6082 54.0613L33.6158 54.0435C34.2154 52.8442 35.9951 52.1877 35.9951 50.9032C35.9951 49.8245 34.4734 49.4093 33.7297 50.3106C33.7145 50.3568 33.7297 50.0232 33.779 49.8387C33.9573 49.2852 34.5986 48.4797 34.9098 48.2313C34.4772 48.579 32.7316 48.5755 32.3028 48.2313C32.614 48.4832 33.225 49.2568 33.4337 49.8387C33.4754 49.9984 33.502 50.1616 33.5134 50.3248C32.7924 49.3455 31.2251 49.7997 31.2251 50.8997Z" fill="#EAEAEA"/>
<path d="M18.5044 50.8997C18.5044 52.1877 20.2804 52.8442 20.8799 54.0435L20.8875 54.0613L20.8951 54.0435C21.4947 52.8442 23.2744 52.1877 23.2744 50.9032C23.2744 49.8245 21.7527 49.4093 21.0089 50.3106C20.9938 50.3568 21.009 50.0232 21.0583 49.8387C21.2366 49.2852 21.8779 48.4797 22.1891 48.2313C21.7565 48.579 20.0109 48.5755 19.5821 48.2313C19.8933 48.4832 20.5042 49.2568 20.713 49.8387C20.7547 49.9984 20.7813 50.1616 20.7927 50.3248C20.0716 49.3455 18.5044 49.7997 18.5044 50.8997Z" fill="#EAEAEA"/>
</g>
<defs>
<clipPath id="clip0_3238_57166">
<rect width="53" height="74" fill="white" transform="translate(0.75)"/>
</clipPath>
</defs>
</svg>
