<svg width="54" height="74" viewBox="0 0 54 74" fill="none" xmlns="http://www.w3.org/2000/svg">
<g clip-path="url(#clip0_3238_57239)">
<rect x="0.258789" y="0.0012207" width="53" height="74" rx="2.65" fill="#292929"/>
<path d="M45.9636 56.9654C46.8063 58.6256 49.0034 58.0043 49.0185 56.3703C49.0335 54.5379 46.7712 53.5825 46.0238 51.8702L46.0137 51.8493L46.0037 51.8754C45.2212 53.5721 42.9387 54.4805 42.9237 56.3129C42.9036 57.9417 45.0857 58.6047 45.9636 56.9654Z" fill="#E04749"/>
<path d="M7.55402 16.7067C6.71128 15.0466 4.51415 15.6678 4.4991 17.3018C4.48405 19.1342 6.74639 20.0896 7.49382 21.8019L7.50385 21.8228L7.51389 21.7967C8.29643 20.1 10.5788 19.1916 10.5939 17.3592C10.614 15.7304 8.43187 15.0674 7.55402 16.7067Z" fill="#E04749"/>
<path d="M4.49902 12.5121V4.26025H6.36427V7.63944H6.41503L8.87665 4.26025H10.9322L8.43254 7.55085L11.389 12.5121H9.34613L7.32862 9.03162L6.36427 10.2972V12.5121H4.49902Z" fill="#E04749"/>
<path d="M49.0186 61.4904V69.7422H47.1533V66.363H47.1026L44.6409 69.7422H42.5854L45.085 66.4516L42.1286 61.4904H44.1714L46.189 64.9708L47.1533 63.7052V61.4904H49.0186Z" fill="#E04749"/>
<path d="M26.7618 27.9904C23.0259 20.4541 13.5088 23.3749 13.5088 30.8453C13.5088 39.219 23.3749 42.1794 26.7077 49.9729L26.7618 50.085L26.8099 49.9729C30.1427 42.1794 40.0088 39.219 40.0088 30.8453C40.0148 23.3683 30.4977 20.4541 26.7618 27.9904Z" fill="#E04749"/>
</g>
<defs>
<clipPath id="clip0_3238_57239">
<rect width="53" height="74" fill="white" transform="translate(0.258789)"/>
</clipPath>
</defs>
</svg>
