<svg width="54" height="74" viewBox="0 0 54 74" fill="none" xmlns="http://www.w3.org/2000/svg">
<g clip-path="url(#clip0_3238_57298)">
<rect x="0.25" y="0.0012207" width="53" height="74" rx="2.65" fill="#292929"/>
<path d="M42.9148 54.6635C42.9148 56.3614 45.184 57.2267 45.9501 58.8077L45.9598 58.8311L45.9695 58.8077C46.7357 57.2267 49.0098 56.3614 49.0098 54.6682C49.0098 53.2462 47.0654 52.699 46.115 53.887C46.0956 53.9478 46.115 53.5082 46.178 53.2649C46.4059 52.5352 47.2254 51.4735 47.623 51.1461C47.0702 51.6044 44.8398 51.5998 44.2918 51.1461C44.6894 51.4782 45.4701 52.4978 45.7368 53.2649C45.7901 53.4754 45.8241 53.6906 45.8386 53.9057C44.9173 52.6148 42.9148 53.2135 42.9148 54.6635Z" fill="#EAEAEA"/>
<path d="M10.5852 19.0086C10.5852 17.3107 8.31597 16.4454 7.54985 14.8645L7.54015 14.8411L7.53045 14.8645C6.76434 16.4454 4.49023 17.3107 4.49023 19.004C4.49023 20.4259 6.43462 20.9732 7.38499 19.7851C7.40439 19.7243 7.38499 20.164 7.32196 20.4072C7.09406 21.1369 6.27461 22.1986 5.877 22.5261C6.42977 22.0677 8.66025 22.0724 9.20816 22.5261C8.81056 22.194 8.02989 21.1743 7.7632 20.4072C7.70987 20.1967 7.67592 19.9815 7.66137 19.7664C8.58265 21.0574 10.5852 20.4586 10.5852 19.0086Z" fill="#EAEAEA"/>
<path d="M7.30956 12.5121C6.87581 12.5121 6.48034 12.462 6.12314 12.3618C5.77445 12.27 5.46403 12.1406 5.19188 11.9736C4.91972 11.8067 4.68584 11.6105 4.49023 11.3851L5.35772 10.2206C5.60436 10.4543 5.87651 10.6463 6.17417 10.7966C6.47184 10.9468 6.79077 11.022 7.13096 11.022C7.52217 11.022 7.83685 10.9427 8.07498 10.7841C8.32162 10.6171 8.44494 10.3834 8.44494 10.0828C8.44494 9.8491 8.38541 9.64876 8.26634 9.4818C8.14727 9.3065 7.9304 9.17293 7.61573 9.08111C7.30956 8.98928 6.8588 8.94337 6.26347 8.94337V7.64111C6.74824 7.64111 7.13096 7.5952 7.41161 7.50337C7.69227 7.41155 7.88788 7.28633 7.99844 7.12772C8.11751 6.96911 8.17704 6.78546 8.17704 6.57677C8.17704 6.29294 8.08774 6.0759 7.90914 5.92564C7.73905 5.77538 7.49666 5.70025 7.18198 5.70025C6.89282 5.70025 6.62918 5.76286 6.39104 5.88807C6.16142 6.00494 5.91903 6.17607 5.66389 6.40146L4.71986 5.27451C5.09407 4.95729 5.48954 4.71103 5.90627 4.53573C6.32301 4.35208 6.77801 4.26025 7.27128 4.26025C7.82409 4.26025 8.30886 4.34791 8.7256 4.52321C9.15083 4.69017 9.47827 4.93643 9.70789 5.26199C9.94603 5.57921 10.0651 5.97155 10.0651 6.43903C10.0651 6.84807 9.94603 7.19868 9.70789 7.49085C9.47827 7.78302 9.14658 8.02094 8.71284 8.20459V8.25468C9.01901 8.3465 9.29541 8.48007 9.54205 8.65537C9.78869 8.82232 9.98005 9.03519 10.1161 9.29398C10.2522 9.55276 10.3202 9.85328 10.3202 10.1955C10.3202 10.6881 10.1799 11.1096 9.89925 11.4602C9.6271 11.8025 9.26139 12.0654 8.80214 12.2491C8.35139 12.4244 7.85386 12.5121 7.30956 12.5121Z" fill="#EAEAEA"/>
<path d="M45.9258 61.4904C46.3595 61.4904 46.755 61.5405 47.1122 61.6406C47.4609 61.7325 47.7713 61.8619 48.0435 62.0288C48.3156 62.1958 48.5495 62.392 48.7451 62.6173L47.8776 63.7819C47.631 63.5481 47.3588 63.3561 47.0612 63.2059C46.7635 63.0556 46.4446 62.9805 46.1044 62.9805C45.7132 62.9805 45.3985 63.0598 45.1604 63.2184C44.9137 63.3853 44.7904 63.6191 44.7904 63.9196C44.7904 64.1533 44.8499 64.3537 44.969 64.5206C45.0881 64.6959 45.3049 64.8295 45.6196 64.9213C45.9258 65.0132 46.3765 65.0591 46.9719 65.0591L46.9719 66.3613C46.4871 66.3613 46.1044 66.4072 45.8237 66.4991C45.5431 66.5909 45.3475 66.7161 45.2369 66.8747C45.1178 67.0333 45.0583 67.217 45.0583 67.4257C45.0583 67.7095 45.1476 67.9265 45.3262 68.0768C45.4963 68.2271 45.7387 68.3022 46.0534 68.3022C46.3425 68.3022 46.6062 68.2396 46.8443 68.1144C47.0739 67.9975 47.3163 67.8264 47.5715 67.601L48.5155 68.7279C48.1413 69.0451 47.7458 69.2914 47.3291 69.4667C46.9123 69.6504 46.4573 69.7422 45.9641 69.7422C45.4113 69.7422 44.9265 69.6545 44.5098 69.4792C44.0845 69.3123 43.7571 69.066 43.5275 68.7405C43.2893 68.4232 43.1703 68.0309 43.1703 67.5634C43.1703 67.1544 43.2893 66.8038 43.5275 66.5116C43.7571 66.2194 44.0888 65.9815 44.5225 65.7979L44.5225 65.7478C44.2163 65.6559 43.9399 65.5224 43.6933 65.3471C43.4467 65.1801 43.2553 64.9672 43.1192 64.7085C42.9832 64.4497 42.9151 64.1492 42.9151 63.8069C42.9151 63.3144 43.0554 62.8928 43.3361 62.5422C43.6083 62.2 43.974 61.937 44.4332 61.7533C44.884 61.578 45.3815 61.4904 45.9258 61.4904Z" fill="#EAEAEA"/>
<path d="M29.1352 22.7727C29.1352 21.4846 27.3593 20.8282 26.7597 19.6288L26.7521 19.6111L26.7445 19.6288C26.145 20.8282 24.3652 21.4846 24.3652 22.7691C24.3652 23.8479 25.8869 24.263 26.6307 23.3617C26.6459 23.3156 26.6307 23.6491 26.5814 23.8337C26.403 24.3872 25.7617 25.1927 25.4505 25.4411C25.8831 25.0933 27.6287 25.0969 28.0575 25.4411C27.7464 25.1891 27.1354 24.4156 26.9267 23.8337C26.8849 23.674 26.8584 23.5108 26.847 23.3475C27.568 24.3269 29.1352 23.8727 29.1352 22.7727Z" fill="#EAEAEA"/>
<path d="M29.1352 37.0828C29.1352 35.7947 27.3593 35.1382 26.7597 33.9389L26.7521 33.9211L26.7445 33.9389C26.145 35.1382 24.3652 35.7947 24.3652 37.0792C24.3652 38.1579 25.8869 38.5731 26.6307 37.6718C26.6459 37.6257 26.6307 37.9592 26.5814 38.1437C26.403 38.6973 25.7617 39.5028 25.4505 39.7511C25.8831 39.4034 27.6287 39.4069 28.0575 39.7511C27.7464 39.4992 27.1354 38.7257 26.9267 38.1437C26.8849 37.984 26.8584 37.8208 26.847 37.6576C27.568 38.6369 29.1352 38.1828 29.1352 37.0828Z" fill="#EAEAEA"/>
<path d="M24.3648 50.8997C24.3648 52.1877 26.1407 52.8442 26.7403 54.0435L26.7479 54.0613L26.7555 54.0435C27.355 52.8442 29.1348 52.1877 29.1348 50.9032C29.1348 49.8245 27.6131 49.4093 26.8693 50.3106C26.8541 50.3568 26.8693 50.0232 26.9186 49.8387C27.097 49.2852 27.7383 48.4797 28.0495 48.2313C27.6169 48.579 25.8713 48.5755 25.4425 48.2313C25.7536 48.4832 26.3646 49.2568 26.5733 49.8387C26.6151 49.9984 26.6416 50.1616 26.653 50.3248C25.932 49.3455 24.3648 49.7997 24.3648 50.8997Z" fill="#EAEAEA"/>
</g>
<defs>
<clipPath id="clip0_3238_57298">
<rect width="53" height="74" fill="white" transform="translate(0.25)"/>
</clipPath>
</defs>
</svg>
