<svg width="565" height="326" viewBox="0 0 565 326" fill="none" xmlns="http://www.w3.org/2000/svg">
<g style="mix-blend-mode:color-burn">
<path d="M384.348 262.579C386.388 278.988 393.898 289.626 409.446 302.106C429.881 318.516 493.764 325.213 493.764 325.213C432.425 284.972 419.194 229.615 419.194 229.615C359.714 213.389 324.864 198.342 304.626 185.711C307.345 183.604 310.812 181.707 314.892 180.096C326.53 176.098 338.375 175.583 340.385 175.7C342.396 175.816 345.656 176.725 347.102 178.821C347.673 179.531 347.856 180.294 347.635 181.045C347.414 181.797 346.796 182.515 345.832 183.142C354.057 182.487 357.992 182.126 362.059 179.952C365.821 177.931 366.377 174.286 366.377 174.286C369.677 172.441 371.809 170.235 372.548 167.902C374.43 161.776 368.508 157.763 362.498 154.922C354.473 151.13 339.556 150.902 322.417 148.226C314.849 147.024 308.521 144.643 304.585 141.516C324.732 128.721 359.38 113.397 418.446 96.6557C418.446 96.6557 431.072 41.1737 491.969 0.347798C491.969 0.347798 428.163 7.65661 407.907 24.2625C392.497 36.898 385.103 47.608 383.242 64.0304C383.242 64.0304 378.878 41.9199 406.148 16.356C406.148 16.356 355.839 30.8944 339.458 44.4281C323.076 57.9617 316.668 74.795 318.062 86.7449C318.062 86.7449 306.747 66.0029 323.025 48.6437C323.025 48.6437 269.67 67.0545 271.587 99.5673C271.587 99.5673 265.57 89.0483 269.454 79.1961C269.454 79.1961 241.174 94.2956 236.576 106.684C236.576 106.684 234.382 111.688 236.941 121.998C232.508 118.838 230.072 115.195 229.89 111.452C229.89 111.452 215.844 122.084 214.347 129.954C214.049 132.039 214.25 134.131 214.945 136.194C212.872 134.684 211.46 133.009 210.781 131.258C210.781 131.258 202.481 141.784 209.806 148.607C158.131 141.241 142.622 135.703 142.622 135.703L137.25 137.747C136.685 137.958 136.238 138.225 135.944 138.526C135.65 138.828 135.516 139.155 135.555 139.482C135.593 139.809 135.802 140.127 136.165 140.41C136.527 140.694 137.034 140.935 137.644 141.114L151.538 145.567L130.035 140.378L125.076 142.625C124.554 142.858 124.161 143.142 123.927 143.453C123.694 143.765 123.626 144.096 123.729 144.421C123.832 144.745 124.104 145.053 124.523 145.321C124.942 145.589 125.495 145.809 126.14 145.963L137.169 148.868L116.991 145.035L112.526 147.484C112.055 147.738 111.724 148.038 111.557 148.358C111.391 148.678 111.394 149.011 111.568 149.33C111.741 149.648 112.079 149.944 112.554 150.192C113.03 150.441 113.63 150.635 114.307 150.761L122.838 152.538L106.723 150.382L102.894 153.028C102.5 153.303 102.253 153.614 102.172 153.938C102.092 154.261 102.18 154.588 102.43 154.892C102.68 155.197 103.085 155.471 103.613 155.692C104.141 155.914 104.778 156.077 105.474 156.169L119.049 158.206L100.705 156.749C99.3428 156.642 97.9369 156.714 96.6575 156.956C95.3781 157.198 94.2799 157.6 93.4956 158.114L88.0435 162.734L113.911 164.385L88.0629 166.281L93.565 170.853C94.3549 171.359 95.4575 171.751 96.7395 171.98C98.0214 172.21 99.428 172.268 100.789 172.148L119.116 170.572L105.564 172.74C104.87 172.839 104.235 173.008 103.709 173.235C103.183 173.462 102.781 173.739 102.535 174.046C102.288 174.353 102.203 174.68 102.287 175.003C102.371 175.326 102.622 175.635 103.019 175.906L106.877 178.515L122.967 176.203L114.456 178.063C113.78 178.195 113.182 178.395 112.71 178.648C112.237 178.901 111.902 179.2 111.732 179.52C111.563 179.84 111.563 180.173 111.733 180.492C111.902 180.811 112.237 181.107 112.71 181.356L117.202 183.763L137.337 179.729L126.341 182.746C125.698 182.906 125.146 183.132 124.731 183.403C124.315 183.675 124.046 183.986 123.947 184.311C123.847 184.637 123.918 184.967 124.155 185.277C124.393 185.586 124.789 185.866 125.313 186.094L130.297 188.293L151.729 182.855L137.885 187.441C137.275 187.627 136.769 187.873 136.408 188.16C136.047 188.447 135.84 188.768 135.806 189.096C135.771 189.424 135.908 189.751 136.207 190.05C136.506 190.349 136.958 190.612 137.527 190.817L142.921 192.809C142.921 192.809 158.417 187.101 210.243 179.214L210.373 179.213C202.3 186.084 211.081 196.99 211.081 196.99C211.742 195.234 213.136 193.548 215.191 192.019C214.518 194.087 214.341 196.179 214.661 198.26C216.267 206.136 230.405 216.61 230.405 216.61C230.546 212.866 232.942 209.2 237.341 205.997C234.893 216.331 237.142 221.313 237.142 221.313C241.911 233.683 270.318 248.482 270.318 248.482C266.327 238.668 272.229 228.091 272.229 228.091C270.702 260.621 324.22 278.521 324.22 278.521C307.754 261.32 318.841 240.469 318.841 240.469C317.578 252.427 324.181 269.203 340.698 282.572C357.214 295.941 407.762 310.029 407.762 310.029C380.226 284.73 384.348 262.579 384.348 262.579Z" fill="#eaeaea" fill-opacity="0.7" mix-blend-mode="color-burn"/>
<path d="M313.677 284.878C312.417 284.459 296.343 278.971 281.278 268.805C152.259 269.176 47.2322 222.677 46.9173 164.935C46.6024 107.192 151.128 59.6754 280.133 58.7999C295.086 48.4896 311.099 42.8517 312.354 42.4147L323.875 38.4436C309.702 37.5544 295.39 37.144 281.061 37.2156C206.299 37.7922 134.834 51.5691 82.2675 75.539C29.7005 99.5089 0.299447 131.725 0.481763 165.156C0.66408 198.587 30.415 230.518 83.2406 253.979C136.066 277.44 207.677 290.525 282.442 290.38C296.77 290.312 311.076 289.765 325.24 288.743L313.677 284.878Z" fill="#EAEAEA" fill-opacity="0.7"/>
<path d="M449.658 65.4386C445.199 73.2858 442.064 80.27 439.931 85.6936C464.009 95.398 483.262 107.256 496.461 120.511C509.661 133.766 516.52 148.129 516.599 162.684C516.678 177.239 509.977 191.667 496.923 205.049C483.868 218.432 464.746 230.475 440.774 240.411C442.966 245.814 446.178 252.767 450.722 260.571C451.387 261.698 452.086 262.861 452.822 264.051C463.267 260.454 473.153 256.543 482.412 252.345C508.637 240.465 529.415 226.411 543.559 210.985C557.702 195.559 564.936 179.063 564.845 162.44C564.754 145.818 557.342 129.393 543.03 114.104C528.719 98.8159 507.789 84.963 481.436 73.3368C472.132 69.2288 462.203 65.4135 451.719 61.9179C450.997 63.1144 450.31 64.2845 449.658 65.4386Z" fill="#EAEAEA" fill-opacity="0.7"/>
</g>
</svg>
