<?xml version="1.0" encoding="UTF-8" standalone="no"?>
<!-- Uploaded to: SVG Repo, www.svgrepo.com, Generator: SVG Repo Mixer Tools -->

<svg
   fill="#000000"
   version="1.1"
   id="Capa_1"
   width="800px"
   height="800px"
   viewBox="0 0 567.123 567.123"
   xml:space="preserve"
   sodipodi:docname="accept-svgrepo-com.svg"
   inkscape:version="1.3 (1:1.3+202307231459+0e150ed6c4)"
   xmlns:inkscape="http://www.inkscape.org/namespaces/inkscape"
   xmlns:sodipodi="http://sodipodi.sourceforge.net/DTD/sodipodi-0.dtd"
   xmlns="http://www.w3.org/2000/svg"
   xmlns:svg="http://www.w3.org/2000/svg"><defs
   id="defs2" /><sodipodi:namedview
   id="namedview2"
   pagecolor="#ffffff"
   bordercolor="#000000"
   borderopacity="0.25"
   inkscape:showpageshadow="2"
   inkscape:pageopacity="0.0"
   inkscape:pagecheckerboard="0"
   inkscape:deskcolor="#d1d1d1"
   inkscape:zoom="1.02"
   inkscape:cx="399.5098"
   inkscape:cy="400"
   inkscape:window-width="1846"
   inkscape:window-height="1016"
   inkscape:window-x="74"
   inkscape:window-y="27"
   inkscape:window-maximized="1"
   inkscape:current-layer="Capa_1" />&#10;<path
   d="m 447.52457,122.48389 c -1.8515,0 -3.64006,0.17037 -5.36662,0.50953 -1.72657,0.33915 -3.39129,0.84704 -4.99279,1.52442 -1.6015,0.67737 -3.13987,1.52327 -4.61618,2.53793 -1.47631,1.01465 -2.88997,2.19767 -4.24096,3.54867 l -199.40826,199.40964 -90.0917,-90.10554 c -1.3525,-1.351 -2.76797,-2.53238 -4.24511,-3.54591 -1.47714,-1.01353 -3.01601,-1.85928 -4.61757,-2.53516 -1.60156,-0.67587 -3.26564,-1.18223 -4.9914,-1.52026 -1.72577,-0.33804 -3.51272,-0.50676 -5.36247,-0.50676 -1.85125,0 -3.64011,0.16872 -5.36662,0.50676 -1.72652,0.33803 -3.39123,0.84439 -4.99279,1.52026 -1.60156,0.67588 -3.14118,1.52163 -4.61757,2.53516 -1.47639,1.01353 -2.88996,2.19491 -4.24096,3.54591 l -43.556042,43.5685 c -1.353999,1.351 -2.538171,2.76474 -3.552826,4.24096 -1.014656,1.47622 -1.859288,3.01481 -2.535162,4.61618 -0.675874,1.60138 -1.18261,3.26494 -1.520266,4.99141 -0.337656,1.72646 -0.506756,3.51651 -0.506756,5.368 0,1.85125 0.170016,3.64011 0.50814,5.36663 0.338125,1.72651 0.845402,3.38984 1.521651,4.9914 0.67625,1.60156 1.520788,3.14118 2.535162,4.61757 1.014374,1.47638 2.197558,2.88996 3.550057,4.24096 L 209.68321,474.76336 c 1.351,1.354 2.76457,2.539 4.24096,3.55421 1.47639,1.01522 3.016,1.86131 4.61756,2.53794 1.60157,0.67662 3.26489,1.18343 4.99141,1.52165 1.72651,0.33822 3.51537,0.50814 5.36662,0.50814 1.84975,0 3.63809,-0.16901 5.36385,-0.50676 1.72577,-0.33775 3.38984,-0.84402 4.99141,-1.52027 1.60156,-0.67624 3.14042,-1.52243 4.61756,-2.53793 1.47714,-1.01549 2.89123,-2.20148 4.24373,-3.55698 L 510.29855,212.58943 c 1.3505,-1.35099 2.53348,-2.76457 3.54729,-4.24096 1.01381,-1.47639 1.85866,-3.016 2.53516,-4.61756 0.6765,-1.60156 1.18447,-3.26628 1.52303,-4.99279 0.33857,-1.72651 0.50814,-3.51537 0.50814,-5.36662 0,-1.84825 -0.16957,-3.63377 -0.50814,-5.35832 -0.33856,-1.72454 -0.84653,-3.38745 -1.52303,-4.98863 -0.6765,-1.60119 -1.52135,-3.14078 -2.53516,-4.61895 -1.01381,-1.47817 -2.19679,-2.89516 -3.54729,-4.25066 l -43.55604,-43.5505 c -1.3525,-1.351 -2.7679,-2.53402 -4.24512,-3.54867 -1.47722,-1.01466 -3.01733,-1.86056 -4.61895,-2.53793 -1.60162,-0.67738 -3.2643,-1.18527 -4.99002,-1.52442 -1.72571,-0.33916 -3.51435,-0.50953 -5.36385,-0.50953 z"
   style="fill:#806600"
   id="path2" />&#10;</svg>
