<svg width="23" height="15" viewBox="0 0 23 15" fill="none" xmlns="http://www.w3.org/2000/svg">
<path d="M0 1.25C0 0.559644 0.559644 0 1.25 0H21.25C21.9404 0 22.5 0.559644 22.5 1.25C22.5 1.94036 21.9404 2.5 21.25 2.5H1.25C0.559645 2.5 0 1.94036 0 1.25Z" fill="#7E7E7E"/>
<path d="M0 7.5C0 6.80964 0.559644 6.25 1.25 6.25H21.25C21.9404 6.25 22.5 6.80964 22.5 7.5C22.5 8.19036 21.9404 8.75 21.25 8.75H1.25C0.559645 8.75 0 8.19036 0 7.5Z" fill="#7E7E7E"/>
<path d="M0 13.75C0 13.0596 0.559644 12.5 1.25 12.5H21.25C21.9404 12.5 22.5 13.0596 22.5 13.75C22.5 14.4404 21.9404 15 21.25 15H1.25C0.559645 15 0 14.4404 0 13.75Z" fill="#7E7E7E"/>
</svg>
