<?xml version="1.0" encoding="UTF-8" standalone="no"?>
<!-- Uploaded to: SVG Repo, www.svgrepo.com, Generator: SVG Repo Mixer Tools -->

<svg
   fill="#000000"
   height="800px"
   width="800px"
   version="1.1"
   id="Layer_1"
   viewBox="0 0 64 64"
   enable-background="new 0 0 64 64"
   xml:space="preserve"
   sodipodi:docname="pen.svg"
   inkscape:version="1.3 (1:1.3+202307231459+0e150ed6c4)"
   xmlns:inkscape="http://www.inkscape.org/namespaces/inkscape"
   xmlns:sodipodi="http://sodipodi.sourceforge.net/DTD/sodipodi-0.dtd"
   xmlns="http://www.w3.org/2000/svg"
   xmlns:svg="http://www.w3.org/2000/svg"><defs
   id="defs1" /><sodipodi:namedview
   id="namedview1"
   pagecolor="#ffffff"
   bordercolor="#000000"
   borderopacity="0.25"
   inkscape:showpageshadow="2"
   inkscape:pageopacity="0.0"
   inkscape:pagecheckerboard="0"
   inkscape:deskcolor="#d1d1d1"
   showguides="true"
   inkscape:lockguides="false"
   inkscape:zoom="1.02"
   inkscape:cx="399.5098"
   inkscape:cy="400"
   inkscape:window-width="1846"
   inkscape:window-height="1016"
   inkscape:window-x="74"
   inkscape:window-y="27"
   inkscape:window-maximized="1"
   inkscape:current-layer="Layer_1" />&#10;<path
   id="Auto-Pen_1_"
   d="M47.8398476,13.7096834l2.2842026-3.9970999c0.5194969-0.9087,0.7968979-1.9438996,0.8027-2.9950995  l0.006897-1.2359004c0.0078011-1.7157998-0.8066978-3.3275998-2.1581993-4.3348999l-0.4960976-0.3286  c-1.6485023-0.961-3.6963005-0.9561-5.3409004,0.0141l-1.0555992,0.6226c-0.9014015,0.5331999-1.6514015,1.2954-2.1699028,2.2045999  L13.6875515,49.2027855c-0.4316998,0.7558975-0.6924,1.5780983-0.7744999,2.4418983l-1.0908003,11.3583984l1.5948,0.8959999  l9.0351009-6.7631989c0.6630993-0.4961014,1.2099991-1.1152,1.6239986-1.8402977l22.7714977-39.849102l2.6094017,1.5219002  L37.4277496,38.0221825c-0.2744026,0.4794006-0.107399,1.0903015,0.3721008,1.3642006  c0.1561966,0.0894012,0.3270988,0.1318016,0.4950981,0.1318016c0.347599,0,0.6846008-0.1805992,0.8690987-0.5039024  l13.0137024-22.7743988L47.8398476,13.7096834z M41.4492531,4.6510839c0.3475952-0.6084003,0.8495941-1.1187003,1.4481964-1.4732001  l1.0575981-0.6235001c0.5137024-0.3027999,1.089901-0.4540999,1.6660995-0.4540999  c0.3916016,0,0.7841034,0.0697999,1.1562004,0.2098999l0.5371017,0.2613001  c1.0038986,0.6058998,1.6231003,1.7123997,1.6191978,2.8988998l-0.006897,1.2363  c-0.0039024,0.7070999-0.190403,1.4029002-0.5390015,2.0132003l-2.2753983,3.9819002l-6.7198029-3.9194002  C39.3117485,8.7354841,41.4492531,4.6510839,41.4492531,4.6510839z M22.3398514,54.3033829  c-0.2772999,0.4858017-0.6425991,0.8999023-1.0849991,1.230999l-7.2255011,5.4082031l0.8740005-9.107502  c0.0546999-0.5727005,0.2343998-1.1395988,0.5205002-1.6405983l22.7728996-39.8520012  c0.0593987,0.059,6.9230995,4.0962,6.9230995,4.0962L22.3398514,54.3033829z"
   style="fill:#806600" />&#10;</svg>
