<svg width="53" height="74" viewBox="0 0 53 74" fill="none" xmlns="http://www.w3.org/2000/svg">
<g clip-path="url(#clip0_3238_56641)">
<rect y="0.000976562" width="53" height="74" rx="2.64815" fill="#292929"/>
<path d="M45.6727 56.9256C46.5149 58.5846 48.7105 57.9638 48.7255 56.3309C48.7405 54.4998 46.4798 53.5451 45.7329 51.8339L45.7229 51.8131L45.7128 51.8391C44.9308 53.5346 42.65 54.4424 42.635 56.2735C42.6149 57.9012 44.7955 58.5637 45.6727 56.9256Z" fill="#E04749"/>
<path d="M7.29017 16.696C6.44802 15.037 4.25242 15.6578 4.23738 17.2907C4.22234 19.1218 6.48311 20.0765 7.23001 21.7877L7.24004 21.8085L7.25006 21.7824C8.03206 20.087 10.3129 19.1792 10.3279 17.3481C10.348 15.7204 8.1674 15.0579 7.29017 16.696Z" fill="#E04749"/>
<path d="M7.01474 12.5125C6.43717 12.5125 5.9403 12.3924 5.52411 12.1521C5.11642 11.9119 4.77668 11.5349 4.50488 11.0213L5.70248 10.2259C5.82139 10.4496 5.98277 10.6236 6.18661 10.7478C6.39046 10.8721 6.60705 10.9343 6.83637 10.9343C7.2016 10.9343 7.47339 10.8266 7.65176 10.6111C7.83862 10.3957 7.93205 10.0105 7.93205 9.4554V4.26074H9.80488V9.60453C9.80488 10.1348 9.70721 10.6236 9.51185 11.071C9.3165 11.5101 9.01073 11.8622 8.59455 12.1273C8.18685 12.3841 7.66025 12.5125 7.01474 12.5125Z" fill="#E04749"/>
<path d="M45.9853 61.4904C46.5628 61.4904 47.0597 61.6105 47.4759 61.8508C47.8836 62.091 48.2233 62.468 48.4951 62.9817L47.2975 63.777C47.1786 63.5533 47.0172 63.3794 46.8134 63.2551C46.6095 63.1308 46.393 63.0687 46.1636 63.0687C45.7984 63.0687 45.5266 63.1764 45.3482 63.3918C45.1614 63.6072 45.068 63.9924 45.068 64.5475V69.7422H43.1951V64.3984C43.1951 63.8682 43.2928 63.3794 43.4881 62.932C43.6835 62.4929 43.9893 62.1408 44.4055 61.8756C44.8131 61.6188 45.3397 61.4904 45.9853 61.4904Z" fill="#E04749"/>
<path d="M27.485 27.9717C23.7517 20.4406 14.2412 23.3595 14.2412 30.8246C14.2412 39.1924 24.1004 42.1508 27.4309 49.9388L27.485 50.0508L27.5331 49.9388C30.8635 42.1508 40.7227 39.1924 40.7227 30.8246C40.7287 23.3529 31.2182 20.4406 27.485 27.9717Z" fill="#E04749"/>
</g>
<defs>
<clipPath id="clip0_3238_56641">
<rect width="53" height="74" rx="2.65" fill="white"/>
</clipPath>
</defs>
</svg>
