<svg width="53" height="74" viewBox="0 0 53 74" fill="none" xmlns="http://www.w3.org/2000/svg">
<g clip-path="url(#clip0_3238_56650)">
<rect y="0.000976562" width="53" height="74" rx="2.64815" fill="#292929"/>
<path fill-rule="evenodd" clip-rule="evenodd" d="M43.8025 55.9305C44.2726 55.9357 44.6846 55.6698 44.8801 55.2787C45.0333 55.1014 45.2657 55.0284 45.5034 54.9814C45.4453 55.263 45.3766 55.5759 45.1495 55.7584C44.748 55.9409 44.4681 56.3424 44.4575 56.8065C44.4469 57.4531 44.9752 57.985 45.6301 57.9955C46.2851 58.0059 46.8239 57.4844 46.8344 56.8378C46.8397 56.3737 46.5703 55.967 46.1742 55.774C45.984 55.6333 45.8995 55.2891 45.8467 54.9919C46.0791 55.044 46.3115 55.1274 46.4594 55.3047C46.6443 55.701 47.051 55.9826 47.5211 55.9878C48.1761 55.9983 48.7149 55.4768 48.7254 54.8302C48.736 54.1836 48.2078 53.6517 47.5528 53.6413C47.0827 53.6361 46.6232 53.9437 46.4277 54.34C46.2587 54.5173 46.0474 54.5591 45.8044 54.6008C45.7833 54.267 45.8044 53.9072 45.8573 53.6987C46.1055 53.0208 46.7235 52.2125 47.0563 51.9414C46.6126 52.3116 44.822 52.2855 44.3888 51.9049C44.711 52.1864 45.3502 53.0521 45.5351 53.6934C45.5932 53.949 45.5773 54.4287 45.572 54.5956C45.3238 54.5486 45.1072 54.5017 44.9435 54.314C44.7586 53.9177 44.3096 53.5944 43.8395 53.5892C43.1845 53.5787 42.6458 54.1002 42.6352 54.7468C42.6193 55.3882 43.1476 55.9201 43.8025 55.9305Z" fill="#EAEAEA"/>
<path fill-rule="evenodd" clip-rule="evenodd" d="M9.15939 17.6911C8.68928 17.6859 8.27728 17.9518 8.08184 18.3429C7.92866 18.5202 7.69625 18.5932 7.45855 18.6401C7.51666 18.3586 7.58532 18.0457 7.81245 17.8632C8.21389 17.6807 8.49384 17.2791 8.5044 16.815C8.51497 16.1684 7.98676 15.6366 7.33178 15.6261C6.67681 15.6157 6.13803 16.1372 6.12747 16.7838C6.12218 17.2479 6.39157 17.6546 6.78773 17.8475C6.97788 17.9883 7.0624 18.3325 7.11522 18.6297C6.88281 18.5776 6.65039 18.4941 6.50249 18.3168C6.31762 17.9205 5.9109 17.639 5.4408 17.6337C4.78582 17.6233 4.24705 18.1448 4.23648 18.7914C4.22592 19.438 4.75412 19.9699 5.4091 19.9803C5.87921 19.9855 6.33875 19.6778 6.53419 19.2815C6.70322 19.1042 6.9145 19.0625 7.15748 19.0208C7.1786 19.3545 7.15748 19.7143 7.10466 19.9229C6.8564 20.6008 6.23839 21.4091 5.90562 21.6802C6.34932 21.31 8.13994 21.3361 8.57307 21.7167C8.25087 21.4351 7.61173 20.5695 7.42686 19.9281C7.36876 19.6726 7.3846 19.1929 7.38988 19.026C7.63814 19.073 7.85471 19.1199 8.01845 19.3076C8.20333 19.7039 8.65231 20.0272 9.12241 20.0324C9.77739 20.0429 10.3162 19.5214 10.3267 18.8748C10.3426 18.2334 9.81436 17.7015 9.15939 17.6911Z" fill="#EAEAEA"/>
<path d="M7.01474 12.5125C6.43717 12.5125 5.9403 12.3924 5.52411 12.1521C5.11642 11.9119 4.77668 11.5349 4.50488 11.0213L5.70248 10.2259C5.82139 10.4496 5.98277 10.6236 6.18661 10.7478C6.39046 10.8721 6.60705 10.9343 6.83637 10.9343C7.2016 10.9343 7.47339 10.8266 7.65176 10.6111C7.83862 10.3957 7.93205 10.0105 7.93205 9.4554V4.26074H9.80488V9.60453C9.80488 10.1348 9.70721 10.6236 9.51185 11.071C9.3165 11.5101 9.01073 11.8622 8.59455 12.1273C8.18685 12.3841 7.66025 12.5125 7.01474 12.5125Z" fill="#EAEAEA"/>
<path d="M45.9853 61.4904C46.5628 61.4904 47.0597 61.6105 47.4759 61.8508C47.8836 62.091 48.2233 62.468 48.4951 62.9817L47.2975 63.777C47.1786 63.5533 47.0172 63.3794 46.8134 63.2551C46.6095 63.1308 46.393 63.0687 46.1636 63.0687C45.7984 63.0687 45.5266 63.1764 45.3482 63.3918C45.1614 63.6072 45.068 63.9924 45.068 64.5475V69.7422H43.1951V64.3984C43.1951 63.8682 43.2928 63.3794 43.4881 62.932C43.6835 62.4929 43.9893 62.1408 44.4055 61.8756C44.8131 61.6188 45.3397 61.4904 45.9853 61.4904Z" fill="#EAEAEA"/>
<path fill-rule="evenodd" clip-rule="evenodd" d="M35.5509 32.4499C33.4978 32.4499 31.7298 33.6411 30.8981 35.3598C30.247 36.132 29.2347 36.4663 28.2129 36.6877C28.4458 35.4493 28.7309 34.0932 29.7004 33.2927C31.4351 32.4687 32.6376 30.7171 32.6376 28.6829C32.6376 25.8577 30.3278 23.5693 27.4762 23.5693C24.6247 23.5693 22.3149 25.8577 22.3149 28.6829C22.3149 30.7171 23.5173 32.4687 25.252 33.2927C26.0932 33.9001 26.4687 35.3975 26.7301 36.6877C25.713 36.4663 24.7007 36.132 24.0544 35.3645C23.2226 33.6459 21.4547 32.4546 19.4016 32.4546C16.55 32.4546 14.2402 34.743 14.2402 37.5682C14.2402 40.3934 16.55 42.6818 19.4016 42.6818C21.4547 42.6818 23.4128 41.3021 24.2445 39.5835C24.9621 38.7924 25.8841 38.6041 26.9487 38.4063C27.0532 39.8519 26.9962 41.4199 26.7776 42.3333C25.732 45.3045 23.0943 48.8501 21.6876 50.0508C23.6029 48.4216 31.3639 48.4216 33.2792 50.0508C31.8676 48.8501 29.0446 45.1114 28.1891 42.3333C27.9182 41.2174 27.9515 39.1362 27.9705 38.4016C29.0541 38.6041 29.9904 38.7877 30.7175 39.5835C31.5492 41.3021 33.5073 42.6818 35.5604 42.6818C38.412 42.6818 40.7217 40.3934 40.7217 37.5682C40.7122 34.7383 38.4025 32.4499 35.5509 32.4499Z" fill="#EAEAEA"/>
</g>
<defs>
<clipPath id="clip0_3238_56650">
<rect width="53" height="74" rx="2.65" fill="white"/>
</clipPath>
</defs>
</svg>
