<svg width="53" height="74" viewBox="0 0 53 74" fill="none" xmlns="http://www.w3.org/2000/svg">
<g clip-path="url(#clip0_3238_56660)">
<rect y="0.000976562" width="53" height="74" rx="2.64815" fill="#1E1E1E"/>
<path fill-rule="evenodd" clip-rule="evenodd" d="M43.8025 55.9305C44.2726 55.9357 44.6846 55.6698 44.8801 55.2787C45.0333 55.1014 45.2657 55.0284 45.5034 54.9814C45.4453 55.263 45.3766 55.5759 45.1495 55.7584C44.748 55.9409 44.4681 56.3424 44.4575 56.8065C44.4469 57.4531 44.9752 57.985 45.6301 57.9955C46.2851 58.0059 46.8239 57.4844 46.8344 56.8378C46.8397 56.3737 46.5703 55.967 46.1742 55.774C45.984 55.6333 45.8995 55.2891 45.8467 54.9919C46.0791 55.044 46.3115 55.1274 46.4594 55.3047C46.6443 55.701 47.051 55.9826 47.5211 55.9878C48.1761 55.9983 48.7149 55.4768 48.7254 54.8302C48.736 54.1836 48.2078 53.6517 47.5528 53.6413C47.0827 53.6361 46.6232 53.9437 46.4277 54.34C46.2587 54.5173 46.0474 54.5591 45.8044 54.6008C45.7833 54.267 45.8044 53.9072 45.8573 53.6987C46.1055 53.0208 46.7235 52.2125 47.0563 51.9414C46.6126 52.3116 44.822 52.2855 44.3888 51.9049C44.711 52.1864 45.3502 53.0521 45.5351 53.6934C45.5932 53.949 45.5773 54.4287 45.572 54.5956C45.3238 54.5486 45.1072 54.5017 44.9435 54.314C44.7586 53.9177 44.3096 53.5944 43.8395 53.5892C43.1845 53.5787 42.6458 54.1002 42.6352 54.7468C42.6193 55.3882 43.1476 55.9201 43.8025 55.9305Z" fill="#3E3E3E"/>
<path fill-rule="evenodd" clip-rule="evenodd" d="M9.16036 17.6911C8.69026 17.6859 8.27825 17.9518 8.08282 18.3429C7.92964 18.5202 7.69722 18.5932 7.45953 18.6401C7.51763 18.3586 7.5863 18.0457 7.81343 17.8632C8.21487 17.6807 8.49482 17.2791 8.50538 16.815C8.51594 16.1684 7.98774 15.6366 7.33276 15.6261C6.67778 15.6157 6.13901 16.1372 6.12844 16.7838C6.12316 17.2479 6.39255 17.6546 6.7887 17.8475C6.97886 17.9883 7.06337 18.3325 7.11619 18.6297C6.88378 18.5776 6.65137 18.4941 6.50347 18.3168C6.3186 17.9205 5.91188 17.639 5.44177 17.6337C4.7868 17.6233 4.24802 18.1448 4.23746 18.7914C4.2269 19.438 4.7551 19.9699 5.41008 19.9803C5.88018 19.9855 6.33973 19.6778 6.53517 19.2815C6.70419 19.1042 6.91548 19.0625 7.15845 19.0208C7.17958 19.3545 7.15845 19.7143 7.10563 19.9229C6.85737 20.6008 6.23937 21.4091 5.9066 21.6802C6.35029 21.31 8.14092 21.3361 8.57405 21.7167C8.25184 21.4351 7.61271 20.5695 7.42783 19.9281C7.36973 19.6726 7.38558 19.1929 7.39086 19.026C7.63912 19.073 7.85569 19.1199 8.01943 19.3076C8.2043 19.7039 8.65328 20.0272 9.12339 20.0324C9.77837 20.0429 10.3171 19.5214 10.3277 18.8748C10.3435 18.2334 9.81534 17.7015 9.16036 17.6911Z" fill="#3E3E3E"/>
<path d="M7.05956 12.5125C6.62581 12.5125 6.23034 12.4625 5.87314 12.3623C5.52445 12.2705 5.21403 12.1411 4.94188 11.9741C4.66972 11.8072 4.43584 11.611 4.24023 11.3856L5.10772 10.2211C5.35436 10.4548 5.62651 10.6468 5.92417 10.7971C6.22184 10.9473 6.54077 11.0225 6.88096 11.0225C7.27217 11.0225 7.58685 10.9432 7.82498 10.7845C8.07162 10.6176 8.19494 10.3839 8.19494 10.0833C8.19494 9.84959 8.13541 9.64925 8.01634 9.48229C7.89727 9.30699 7.6804 9.17342 7.36573 9.0816C7.05956 8.98977 6.6088 8.94386 6.01347 8.94386V7.6416C6.49824 7.6416 6.88096 7.59569 7.16161 7.50386C7.44227 7.41204 7.63788 7.28682 7.74844 7.12821C7.86751 6.9696 7.92704 6.78595 7.92704 6.57726C7.92704 6.29343 7.83774 6.07639 7.65914 5.92613C7.48905 5.77587 7.24666 5.70074 6.93199 5.70074C6.64282 5.70074 6.37918 5.76335 6.14104 5.88856C5.91142 6.00543 5.66903 6.17656 5.41389 6.40195L4.46986 5.275C4.84407 4.95778 5.23954 4.71152 5.65627 4.53622C6.07301 4.35257 6.52801 4.26074 7.02129 4.26074C7.57409 4.26074 8.05886 4.34839 8.4756 4.5237C8.90083 4.69065 9.22827 4.93691 9.45789 5.26248C9.69603 5.57969 9.81509 5.97204 9.81509 6.43952C9.81509 6.84856 9.69603 7.19917 9.45789 7.49134C9.22827 7.78351 8.89658 8.02143 8.46284 8.20508V8.25516C8.76901 8.34699 9.04541 8.48055 9.29205 8.65586C9.53869 8.82281 9.73005 9.03568 9.86612 9.29446C10.0022 9.55325 10.0702 9.85377 10.0702 10.196C10.0702 10.6885 9.92991 11.1101 9.64925 11.4607C9.3771 11.803 9.01139 12.0659 8.55214 12.2496C8.10139 12.4249 7.60386 12.5125 7.05956 12.5125Z" fill="#3E3E3E"/>
<path d="M45.6758 61.4904C46.1095 61.4904 46.505 61.5405 46.8622 61.6406C47.2109 61.7325 47.5213 61.8619 47.7935 62.0288C48.0656 62.1958 48.2995 62.392 48.4951 62.6173L47.6276 63.7819C47.381 63.5481 47.1088 63.3561 46.8112 63.2059C46.5135 63.0556 46.1946 62.9805 45.8544 62.9805C45.4632 62.9805 45.1485 63.0598 44.9104 63.2184C44.6637 63.3853 44.5404 63.6191 44.5404 63.9196C44.5404 64.1533 44.5999 64.3537 44.719 64.5206C44.8381 64.6959 45.0549 64.8295 45.3696 64.9213C45.6758 65.0132 46.1265 65.0591 46.7219 65.0591L46.7219 66.3613C46.2371 66.3613 45.8544 66.4072 45.5737 66.4991C45.2931 66.5909 45.0975 66.7161 44.9869 66.8747C44.8678 67.0333 44.8083 67.217 44.8083 67.4257C44.8083 67.7095 44.8976 67.9265 45.0762 68.0768C45.2463 68.2271 45.4887 68.3022 45.8034 68.3022C46.0925 68.3022 46.3562 68.2396 46.5943 68.1144C46.8239 67.9975 47.0663 67.8264 47.3215 67.601L48.2655 68.7279C47.8913 69.0451 47.4958 69.2914 47.0791 69.4667C46.6623 69.6504 46.2073 69.7422 45.7141 69.7422C45.1613 69.7422 44.6765 69.6545 44.2598 69.4792C43.8345 69.3123 43.5071 69.066 43.2775 68.7405C43.0393 68.4232 42.9203 68.0309 42.9203 67.5634C42.9203 67.1544 43.0393 66.8038 43.2775 66.5116C43.5071 66.2194 43.8388 65.9815 44.2725 65.7979L44.2725 65.7478C43.9663 65.6559 43.6899 65.5224 43.4433 65.3471C43.1967 65.1801 43.0053 64.9672 42.8692 64.7085C42.7332 64.4497 42.6651 64.1492 42.6651 63.8069C42.6651 63.3144 42.8054 62.8928 43.0861 62.5422C43.3583 62.2 43.724 61.937 44.1832 61.7533C44.634 61.578 45.1315 61.4904 45.6758 61.4904Z" fill="#3E3E3E"/>
<path fill-rule="evenodd" clip-rule="evenodd" d="M29.2774 21.572C28.8277 21.567 28.4336 21.8214 28.2467 22.1955C28.1002 22.3651 27.8778 22.4349 27.6505 22.4798C27.7061 22.2104 27.7717 21.9112 27.989 21.7366C28.373 21.562 28.6408 21.178 28.6509 20.7341C28.661 20.1156 28.1557 19.6068 27.5292 19.5968C26.9027 19.5869 26.3874 20.0856 26.3773 20.7041C26.3722 21.148 26.6299 21.5371 27.0088 21.7216C27.1907 21.8563 27.2716 22.1855 27.3221 22.4698C27.0998 22.4199 26.8775 22.3401 26.736 22.1705C26.5592 21.7915 26.1701 21.5221 25.7205 21.5171C25.094 21.5072 24.5786 22.006 24.5685 22.6244C24.5584 23.2429 25.0636 23.7517 25.6901 23.7617C26.1398 23.7667 26.5794 23.4724 26.7663 23.0933C26.928 22.9237 27.1301 22.8838 27.3625 22.8439C27.3827 23.1631 27.3625 23.5073 27.312 23.7068C27.0745 24.3552 26.4834 25.1283 26.1651 25.3877C26.5895 25.0336 28.3023 25.0585 28.7166 25.4226C28.4084 25.1533 27.797 24.3253 27.6202 23.7118C27.5646 23.4674 27.5798 23.0085 27.5848 22.8489C27.8223 22.8938 28.0294 22.9387 28.186 23.1182C28.3629 23.4973 28.7923 23.8066 29.242 23.8115C29.8685 23.8215 30.3839 23.3227 30.394 22.7043C30.4091 22.0907 29.9039 21.582 29.2774 21.572Z" fill="#3E3E3E"/>
<path fill-rule="evenodd" clip-rule="evenodd" d="M29.2774 35.8718C28.8277 35.8668 28.4336 36.1212 28.2467 36.4953C28.1002 36.6649 27.8778 36.7347 27.6505 36.7796C27.7061 36.5103 27.7717 36.211 27.989 36.0364C28.373 35.8618 28.6408 35.4778 28.6509 35.0339C28.661 34.4154 28.1557 33.9066 27.5292 33.8966C26.9027 33.8867 26.3874 34.3854 26.3773 35.0039C26.3722 35.4478 26.6299 35.8369 27.0088 36.0215C27.1907 36.1561 27.2716 36.4853 27.3221 36.7696C27.0998 36.7197 26.8775 36.6399 26.736 36.4704C26.5592 36.0913 26.1701 35.8219 25.7205 35.8169C25.094 35.807 24.5786 36.3058 24.5685 36.9242C24.5584 37.5427 25.0636 38.0515 25.6901 38.0615C26.1398 38.0665 26.5794 37.7722 26.7663 37.3931C26.928 37.2235 27.1301 37.1836 27.3625 37.1437C27.3827 37.4629 27.3625 37.8071 27.312 38.0066C27.0745 38.655 26.4834 39.4281 26.1651 39.6875C26.5895 39.3334 28.3023 39.3583 28.7166 39.7224C28.4084 39.4531 27.797 38.6251 27.6202 38.0116C27.5646 37.7672 27.5798 37.3083 27.5848 37.1487C27.8223 37.1936 28.0294 37.2385 28.186 37.418C28.3629 37.7971 28.7923 38.1064 29.242 38.1114C29.8685 38.1213 30.3839 37.6225 30.394 37.0041C30.4091 36.3906 29.9039 35.8818 29.2774 35.8718Z" fill="#3E3E3E"/>
<path fill-rule="evenodd" clip-rule="evenodd" d="M25.6855 52.0491C26.1352 52.0541 26.5293 51.7997 26.7162 51.4256C26.8627 51.256 27.085 51.1862 27.3124 51.1413C27.2568 51.4106 27.1911 51.7099 26.9739 51.8845C26.5899 52.0591 26.3221 52.4431 26.312 52.887C26.3019 53.5055 26.8072 54.0143 27.4337 54.0243C28.0602 54.0342 28.5755 53.5355 28.5856 52.917C28.5907 52.4731 28.333 52.084 27.9541 51.8994C27.7722 51.7648 27.6913 51.4356 27.6408 51.1513C27.8631 51.2011 28.0854 51.281 28.2269 51.4505C28.4037 51.8296 28.7928 52.099 29.2424 52.1039C29.8689 52.1139 30.3843 51.6151 30.3944 50.9967C30.4045 50.3782 29.8992 49.8694 29.2727 49.8594C28.8231 49.8544 28.3835 50.1487 28.1966 50.5278C28.0349 50.6974 27.8328 50.7373 27.6004 50.7772C27.5802 50.458 27.6004 50.1138 27.6509 49.9143C27.8884 49.2659 28.4795 48.4928 28.7978 48.2334C28.3734 48.5875 26.6606 48.5626 26.2463 48.1985C26.5545 48.4678 27.1659 49.2958 27.3427 49.9093C27.3983 50.1537 27.3831 50.6126 27.3781 50.7722C27.1406 50.7273 26.9335 50.6824 26.7768 50.5029C26.6 50.1238 26.1706 49.8145 25.7209 49.8095C25.0944 49.7996 24.579 50.2984 24.5689 50.9168C24.5538 51.5303 25.059 52.0391 25.6855 52.0491Z" fill="#3E3E3E"/>
</g>
<defs>
<clipPath id="clip0_3238_56660">
<rect width="53" height="74" rx="2.65" fill="white"/>
</clipPath>
</defs>
</svg>
