<svg width="53" height="74" viewBox="0 0 53 74" fill="none" xmlns="http://www.w3.org/2000/svg">
<g clip-path="url(#clip0_3238_56675)">
<rect y="0.000976562" width="53" height="74" rx="2.64815" fill="#1E1E1E"/>
<path fill-rule="evenodd" clip-rule="evenodd" d="M42.6358 54.989C43.1886 54.9842 45.6521 52.4577 45.6424 51.9049C45.6472 52.4577 48.1737 54.9211 48.7266 54.9114C48.1737 54.9163 45.7103 57.4428 45.72 57.9956C45.7151 57.4428 43.1886 54.9842 42.6358 54.989Z" fill="#3E3E3E"/>
<path fill-rule="evenodd" clip-rule="evenodd" d="M10.328 18.6325C9.77523 18.6374 7.31178 21.1639 7.32148 21.7167C7.31663 21.1639 4.79013 18.7004 4.2373 18.7101C4.79013 18.7053 7.25359 16.1788 7.24389 15.626C7.24874 16.1788 9.77523 18.6374 10.328 18.6325Z" fill="#3E3E3E"/>
<path d="M5.90303 12.5125C5.94699 11.8281 6.01734 11.2001 6.11407 10.6283C6.2108 10.0478 6.34709 9.49771 6.52296 8.97791C6.70762 8.45811 6.94064 7.94698 7.22203 7.44451C7.50342 6.94204 7.85076 6.41791 8.26405 5.87212H4.50488V4.26074H10.3349V5.43029C9.84245 6.01939 9.43796 6.56951 9.1214 7.08065C8.81363 7.59178 8.57621 8.11158 8.40914 8.64004C8.24206 9.16851 8.11896 9.74462 8.03982 10.3684C7.96067 10.9921 7.89912 11.7069 7.85515 12.5125H5.90303Z" fill="#3E3E3E"/>
<path d="M47.097 61.4904C47.053 62.1748 46.9827 62.8029 46.8859 63.3747C46.7892 63.9551 46.6529 64.5052 46.477 65.025C46.2924 65.5448 46.0594 66.0559 45.778 66.5584C45.4966 67.0609 45.1492 67.585 44.736 68.1308H48.4951V69.7422H42.6651V68.5726C43.1575 67.9835 43.562 67.4334 43.8786 66.9223C44.1864 66.4111 44.4238 65.8913 44.5909 65.3629C44.7579 64.8344 44.881 64.2583 44.9602 63.6346C45.0393 63.0108 45.1009 62.2961 45.1448 61.4904H47.097Z" fill="#3E3E3E"/>
<path fill-rule="evenodd" clip-rule="evenodd" d="M23.0378 22.472C22.5091 22.4767 20.1527 24.8933 20.162 25.4221C20.1574 24.8933 17.7407 22.537 17.2119 22.5463C17.7407 22.5416 20.0971 20.125 20.0878 19.5962C20.0924 20.125 22.5091 22.4767 23.0378 22.472Z" fill="#3E3E3E"/>
<path fill-rule="evenodd" clip-rule="evenodd" d="M35.7498 22.472C35.221 22.4767 32.8646 24.8933 32.8739 25.4221C32.8693 24.8933 30.4526 22.537 29.9238 22.5463C30.4526 22.5416 32.809 20.125 32.7997 19.5962C32.8043 20.125 35.221 22.4767 35.7498 22.472Z" fill="#3E3E3E"/>
<path fill-rule="evenodd" clip-rule="evenodd" d="M35.7498 36.7718C35.221 36.7765 32.8646 39.1931 32.8739 39.7219C32.8693 39.1931 30.4526 36.8368 29.9238 36.8461C30.4526 36.8414 32.809 34.4248 32.7997 33.896C32.8043 34.4248 35.221 36.7765 35.7498 36.7718Z" fill="#3E3E3E"/>
<path fill-rule="evenodd" clip-rule="evenodd" d="M29.3943 29.6224C28.8655 29.6271 26.5092 32.0437 26.5184 32.5725C26.5138 32.0437 24.0971 29.6874 23.5684 29.6966C24.0971 29.692 26.4535 27.2754 26.4442 26.7466C26.4489 27.2754 28.8655 29.6271 29.3943 29.6224Z" fill="#3E3E3E"/>
<path fill-rule="evenodd" clip-rule="evenodd" d="M23.0378 36.7718C22.5091 36.7765 20.1527 39.1931 20.162 39.7219C20.1574 39.1931 17.7407 36.8368 17.2119 36.8461C17.7407 36.8414 20.0971 34.4248 20.0878 33.896C20.0924 34.4248 22.5091 36.7765 23.0378 36.7718Z" fill="#3E3E3E"/>
<path fill-rule="evenodd" clip-rule="evenodd" d="M29.9241 51.1481C30.4529 51.1434 32.8092 48.7268 32.7999 48.198C32.8046 48.7268 35.2212 51.0831 35.75 51.0739C35.2212 51.0785 32.8649 53.4951 32.8741 54.0239C32.8695 53.4951 30.4529 51.1434 29.9241 51.1481Z" fill="#3E3E3E"/>
<path fill-rule="evenodd" clip-rule="evenodd" d="M17.2122 51.1481C17.7409 51.1434 20.0973 48.7268 20.088 48.198C20.0926 48.7268 22.5093 51.0831 23.0381 51.0739C22.5093 51.0785 20.1529 53.4951 20.1622 54.0239C20.1576 53.4951 17.7409 51.1434 17.2122 51.1481Z" fill="#3E3E3E"/>
</g>
<defs>
<clipPath id="clip0_3238_56675">
<rect width="53" height="74" rx="2.65" fill="white"/>
</clipPath>
</defs>
</svg>
