<svg width="54" height="74" viewBox="0 0 54 74" fill="none" xmlns="http://www.w3.org/2000/svg">
<g clip-path="url(#clip0_3238_56753)">
<rect x="0.777344" y="0.000976562" width="53" height="74" rx="2.65" fill="#292929"/>
<path fill-rule="evenodd" clip-rule="evenodd" d="M44.346 55.9691C44.8164 55.9743 45.2287 55.7082 45.4243 55.3168C45.5775 55.1394 45.8101 55.0663 46.048 55.0194C45.9898 55.3012 45.9211 55.6142 45.6938 55.7969C45.2921 55.9795 45.012 56.3813 45.0014 56.8457C44.9908 57.4928 45.5194 58.0251 46.1748 58.0355C46.8303 58.0459 47.3694 57.5241 47.38 56.8771C47.3853 56.4126 47.1157 56.0056 46.7193 55.8125C46.529 55.6716 46.4444 55.3272 46.3916 55.0298C46.6241 55.082 46.8567 55.1655 47.0047 55.3429C47.1897 55.7395 47.5967 56.0213 48.0671 56.0265C48.7226 56.0369 49.2617 55.5151 49.2723 54.868C49.2829 54.221 48.7543 53.6887 48.0989 53.6783C47.6284 53.6731 47.1686 53.9809 46.973 54.3775C46.8038 54.555 46.5924 54.5967 46.3493 54.6384C46.3281 54.3045 46.3493 53.9444 46.4021 53.7357C46.6506 53.0573 47.269 52.2485 47.602 51.9772C47.158 52.3477 45.3661 52.3216 44.9327 51.9406C45.2551 52.2224 45.8947 53.0886 46.0797 53.7305C46.1378 53.9862 46.122 54.4662 46.1167 54.6332C45.8683 54.5863 45.6516 54.5393 45.4877 54.3514C45.3027 53.9549 44.8534 53.6313 44.383 53.6261C43.7275 53.6157 43.1884 54.1375 43.1778 54.7846C43.162 55.4264 43.6905 55.9587 44.346 55.9691Z" fill="#EAEAEA"/>
<path fill-rule="evenodd" clip-rule="evenodd" d="M9.94408 17.7028C9.47364 17.6976 9.06135 17.9637 8.86578 18.3551C8.71249 18.5325 8.47991 18.6055 8.24206 18.6525C8.3002 18.3707 8.36891 18.0576 8.5962 17.875C8.99792 17.6924 9.27806 17.2906 9.28864 16.8261C9.29921 16.1791 8.77063 15.6468 8.1152 15.6364C7.45976 15.6259 6.92061 16.1478 6.91004 16.7948C6.90475 17.2592 7.17433 17.6663 7.57076 17.8593C7.76105 18.0002 7.84562 18.3446 7.89848 18.6421C7.6659 18.5899 7.43333 18.5064 7.28533 18.329C7.10033 17.9324 6.69332 17.6506 6.22289 17.6454C5.56745 17.635 5.02831 18.1568 5.01773 18.8038C5.00716 19.4509 5.53574 19.9831 6.19117 19.9936C6.66161 19.9988 7.12147 19.6909 7.31704 19.2943C7.48619 19.1169 7.69762 19.0752 7.94077 19.0334C7.96191 19.3674 7.94077 19.7274 7.88791 19.9362C7.63948 20.6145 7.02104 21.4234 6.68804 21.6947C7.13204 21.3242 8.92392 21.3503 9.35735 21.7312C9.03492 21.4494 8.39534 20.5832 8.21034 19.9414C8.15219 19.6857 8.16805 19.2056 8.17334 19.0387C8.42177 19.0856 8.63849 19.1326 8.80235 19.3204C8.98735 19.717 9.43664 20.0405 9.90707 20.0458C10.5625 20.0562 11.1017 19.5344 11.1122 18.8873C11.1281 18.2455 10.5995 17.7132 9.94408 17.7028Z" fill="#EAEAEA"/>
<path d="M8.62376 12.5121V7.7429C8.62376 7.483 8.63251 7.17546 8.64999 6.82026C8.67622 6.46507 8.6937 6.15752 8.70244 5.89762H8.64999C8.54508 6.12287 8.43581 6.35244 8.32216 6.58635C8.20851 6.8116 8.09049 7.04551 7.96809 7.28808L6.86657 9.08138H11.3776V10.5368H5.01758V9.22433L8.05989 4.26025H10.4203V12.5121H8.62376Z" fill="#EAEAEA"/>
<path d="M45.9309 61.4904L45.9309 66.2595C45.9309 66.5194 45.9222 66.827 45.9047 67.1822C45.8785 67.5374 45.861 67.8449 45.8522 68.1048L45.9047 68.1048C46.0096 67.8796 46.1189 67.65 46.2325 67.4161C46.3462 67.1908 46.4642 66.9569 46.5866 66.7144L47.6881 64.9211L43.1771 64.9211L43.1771 63.4656L49.5371 63.4656L49.5371 64.7781L46.4948 69.7422L44.1344 69.7422L44.1344 61.4904L45.9309 61.4904Z" fill="#EAEAEA"/>
<path fill-rule="evenodd" clip-rule="evenodd" d="M22.7143 21.588C22.2643 21.583 21.8699 21.8376 21.6828 22.2119C21.5362 22.3817 21.3138 22.4515 21.0862 22.4965C21.1419 22.2269 21.2076 21.9274 21.425 21.7528C21.8092 21.5781 22.0772 21.1937 22.0873 20.7495C22.0974 20.1306 21.5918 19.6215 20.9649 19.6115C20.338 19.6015 19.8222 20.1006 19.8121 20.7195C19.8071 21.1638 20.0649 21.5531 20.4441 21.7378C20.6261 21.8725 20.707 22.202 20.7576 22.4865C20.5351 22.4366 20.3127 22.3567 20.1711 22.187C19.9941 21.8077 19.6048 21.5381 19.1549 21.5331C18.5279 21.5232 18.0122 22.0223 18.0021 22.6412C17.992 23.2601 18.4976 23.7692 19.1245 23.7792C19.5745 23.7842 20.0144 23.4897 20.2014 23.1104C20.3632 22.9407 20.5655 22.9008 20.798 22.8608C20.8183 23.1803 20.798 23.5247 20.7475 23.7243C20.5099 24.3732 19.9183 25.1469 19.5998 25.4064C20.0245 25.052 21.7385 25.077 22.153 25.4413C21.8446 25.1718 21.2329 24.3432 21.0559 23.7293C21.0003 23.4847 21.0154 23.0255 21.0205 22.8658C21.2581 22.9107 21.4654 22.9557 21.6222 23.1353C21.7991 23.5147 22.2289 23.8242 22.6789 23.8291C23.3058 23.8391 23.8215 23.34 23.8316 22.7211C23.8468 22.1071 23.3412 21.598 22.7143 21.588Z" fill="#EAEAEA"/>
<path fill-rule="evenodd" clip-rule="evenodd" d="M35.435 21.588C34.985 21.583 34.5906 21.8376 34.4035 22.2119C34.2569 22.3817 34.0345 22.4515 33.8069 22.4965C33.8626 22.2269 33.9283 21.9274 34.1457 21.7528C34.5299 21.5781 34.7979 21.1937 34.808 20.7495C34.8181 20.1306 34.3125 19.6215 33.6856 19.6115C33.0587 19.6015 32.5429 20.1006 32.5328 20.7195C32.5278 21.1638 32.7856 21.5531 33.1648 21.7378C33.3468 21.8725 33.4277 22.202 33.4783 22.4865C33.2558 22.4366 33.0334 22.3567 32.8918 22.187C32.7148 21.8077 32.3255 21.5381 31.8756 21.5331C31.2486 21.5232 30.7329 22.0223 30.7228 22.6412C30.7127 23.2601 31.2183 23.7692 31.8452 23.7792C32.2952 23.7842 32.7351 23.4897 32.9221 23.1104C33.0839 22.9407 33.2862 22.9008 33.5187 22.8608C33.539 23.1803 33.5187 23.5247 33.4682 23.7243C33.2306 24.3732 32.639 25.1469 32.3205 25.4064C32.7452 25.052 34.4592 25.077 34.8737 25.4413C34.5653 25.1718 33.9536 24.3432 33.7766 23.7293C33.721 23.4847 33.7362 23.0255 33.7412 22.8658C33.9788 22.9107 34.1861 22.9557 34.3429 23.1353C34.5198 23.5147 34.9496 23.8242 35.3996 23.8291C36.0265 23.8391 36.5422 23.34 36.5523 22.7211C36.5675 22.1071 36.0619 21.598 35.435 21.588Z" fill="#EAEAEA"/>
<path fill-rule="evenodd" clip-rule="evenodd" d="M31.8404 52.0843C32.2904 52.0893 32.6848 51.8348 32.8718 51.4604C33.0185 51.2907 33.2409 51.2208 33.4685 51.1759C33.4128 51.4454 33.3471 51.7449 33.1297 51.9196C32.7455 52.0943 32.4775 52.4786 32.4674 52.9229C32.4573 53.5418 32.9629 54.0509 33.5898 54.0609C34.2167 54.0709 34.7324 53.5717 34.7426 52.9528C34.7476 52.5086 34.4898 52.1193 34.1106 51.9346C33.9285 51.7998 33.8476 51.4704 33.7971 51.1859C34.0196 51.2358 34.242 51.3157 34.3836 51.4854C34.5605 51.8647 34.9498 52.1342 35.3998 52.1392C36.0268 52.1492 36.5425 51.6501 36.5526 51.0312C36.5627 50.4122 36.0571 49.9031 35.4302 49.8931C34.9802 49.8881 34.5403 50.1826 34.3532 50.562C34.1915 50.7317 33.9892 50.7716 33.7566 50.8115C33.7364 50.4921 33.7566 50.1477 33.8072 49.948C34.0448 49.2992 34.6364 48.5255 34.9549 48.266C34.5302 48.6203 32.8162 48.5954 32.4016 48.231C32.7101 48.5006 33.3218 49.3291 33.4988 49.9431C33.5544 50.1876 33.5392 50.6468 33.5342 50.8065C33.2966 50.7616 33.0893 50.7167 32.9325 50.537C32.7556 50.1577 32.3258 49.8482 31.8758 49.8432C31.2489 49.8332 30.7332 50.3324 30.7231 50.9513C30.7079 51.5652 31.2135 52.0743 31.8404 52.0843Z" fill="#EAEAEA"/>
<path fill-rule="evenodd" clip-rule="evenodd" d="M19.1197 52.0843C19.5697 52.0893 19.9641 51.8348 20.1511 51.4604C20.2978 51.2907 20.5202 51.2208 20.7477 51.1759C20.6921 51.4454 20.6264 51.7449 20.409 51.9196C20.0247 52.0943 19.7568 52.4786 19.7467 52.9229C19.7366 53.5418 20.2422 54.0509 20.8691 54.0609C21.496 54.0709 22.0117 53.5717 22.0219 52.9528C22.0269 52.5086 21.7691 52.1193 21.3899 51.9346C21.2078 51.7998 21.1269 51.4704 21.0764 51.1859C21.2988 51.2358 21.5213 51.3157 21.6629 51.4854C21.8398 51.8647 22.2291 52.1342 22.6791 52.1392C23.3061 52.1492 23.8218 51.6501 23.8319 51.0312C23.842 50.4122 23.3364 49.9031 22.7095 49.8931C22.2595 49.8881 21.8196 50.1826 21.6325 50.562C21.4708 50.7317 21.2685 50.7716 21.0359 50.8115C21.0157 50.4921 21.0359 50.1477 21.0865 49.948C21.3241 49.2992 21.9157 48.5255 22.2342 48.266C21.8095 48.6203 20.0955 48.5954 19.6809 48.231C19.9894 48.5006 20.6011 49.3291 20.7781 49.9431C20.8337 50.1876 20.8185 50.6468 20.8135 50.8065C20.5758 50.7616 20.3686 50.7167 20.2118 50.537C20.0349 50.1577 19.6051 49.8482 19.1551 49.8432C18.5282 49.8332 18.0125 50.3324 18.0024 50.9513C17.9872 51.5652 18.4928 52.0743 19.1197 52.0843Z" fill="#EAEAEA"/>
</g>
<defs>
<clipPath id="clip0_3238_56753">
<rect width="53" height="74" fill="white" transform="translate(0.777344)"/>
</clipPath>
</defs>
</svg>
