<svg width="53" height="74" viewBox="0 0 53 74" fill="none" xmlns="http://www.w3.org/2000/svg">
<g clip-path="url(#clip0_3238_56917)">
<rect y="0.000976562" width="53" height="74" rx="2.65" fill="#292929"/>
<path fill-rule="evenodd" clip-rule="evenodd" d="M42.6648 55.0275C43.218 55.0226 45.6831 52.4943 45.6734 51.9411C45.6783 52.4943 48.2066 54.9595 48.7598 54.9498C48.2066 54.9547 45.7414 57.4829 45.7511 58.0361C45.7462 57.4829 43.218 55.0226 42.6648 55.0275Z" fill="#E04749"/>
<path fill-rule="evenodd" clip-rule="evenodd" d="M10.3352 18.6449C9.78203 18.6498 7.31686 21.178 7.32656 21.7312C7.32171 21.178 4.79344 18.7128 4.24023 18.7225C4.79344 18.7177 7.25862 16.1894 7.24892 15.6362C7.25377 16.1894 9.78203 18.6498 10.3352 18.6449Z" fill="#E04749"/>
<path d="M7.09783 12.5121C6.65558 12.5121 6.25586 12.461 5.89866 12.359C5.54996 12.257 5.23954 12.1209 4.96739 11.9509C4.69524 11.7808 4.45285 11.5895 4.24023 11.377L5.0822 10.1908C5.32884 10.4119 5.59674 10.6032 5.8859 10.7648C6.17506 10.9178 6.48974 10.9943 6.82993 10.9943C7.10208 10.9943 7.34021 10.9476 7.54433 10.854C7.74844 10.752 7.90578 10.6075 8.01634 10.4204C8.13541 10.2333 8.19494 10.0038 8.19494 9.73169C8.19494 9.32357 8.07587 9.01322 7.83774 8.80066C7.59961 8.58809 7.29344 8.48181 6.91923 8.48181C6.6896 8.48181 6.49399 8.51157 6.3324 8.57109C6.17081 8.6306 5.9667 8.73689 5.72006 8.88993L4.87809 8.35427L5.10772 4.26025H9.70028V5.84174H6.72787L6.58754 7.35946C6.74913 7.29144 6.89797 7.24468 7.03404 7.21917C7.17012 7.18516 7.3232 7.16815 7.4933 7.16815C7.96106 7.16815 8.39055 7.25743 8.78177 7.43598C9.17298 7.61454 9.48341 7.89087 9.71304 8.26499C9.95117 8.63911 10.0702 9.111 10.0702 9.68068C10.0702 10.2844 9.92991 10.7988 9.64925 11.2239C9.3771 11.6405 9.01565 11.9594 8.5649 12.1804C8.11414 12.4015 7.62512 12.5121 7.09783 12.5121Z" fill="#E04749"/>
<path d="M45.9022 61.4904C46.3444 61.4904 46.7441 61.5414 47.1013 61.6434C47.45 61.7455 47.7605 61.8815 48.0326 62.0516C48.3048 62.2216 48.5471 62.4129 48.7598 62.6255L47.9178 63.8116C47.6712 63.5905 47.4033 63.3992 47.1141 63.2377C46.8249 63.0846 46.5103 63.0081 46.1701 63.0081C45.8979 63.0081 45.6598 63.0549 45.4557 63.1484C45.2516 63.2504 45.0942 63.395 44.9837 63.582C44.8646 63.7691 44.8051 63.9987 44.8051 64.2707C44.8051 64.6789 44.9241 64.9892 45.1623 65.2018C45.4004 65.4144 45.7066 65.5206 46.0808 65.5206C46.3104 65.5206 46.506 65.4909 46.6676 65.4314C46.8292 65.3718 47.0333 65.2656 47.2799 65.1125L48.1219 65.6482L47.8923 69.7422H43.2997V68.1607H46.2721L46.4125 66.643C46.2509 66.711 46.102 66.7578 45.966 66.7833C45.8299 66.8173 45.6768 66.8343 45.5067 66.8343C45.0389 66.8343 44.6095 66.745 44.2182 66.5665C43.827 66.3879 43.5166 66.1116 43.287 65.7375C43.0488 65.3633 42.9298 64.8914 42.9298 64.3218C42.9298 63.7181 43.0701 63.2037 43.3507 62.7785C43.6229 62.3619 43.9844 62.0431 44.4351 61.822C44.8859 61.6009 45.3749 61.4904 45.9022 61.4904Z" fill="#E04749"/>
<path fill-rule="evenodd" clip-rule="evenodd" d="M23.0546 22.4892C22.5255 22.4938 20.1675 24.9122 20.1768 25.4413C20.1721 24.9122 17.7538 22.5542 17.2246 22.5635C17.7538 22.5588 20.1118 20.1405 20.1025 19.6113C20.1071 20.1405 22.5255 22.4938 23.0546 22.4892Z" fill="#E04749"/>
<path fill-rule="evenodd" clip-rule="evenodd" d="M35.7753 22.4892C35.2462 22.4938 32.8882 24.9122 32.8975 25.4413C32.8928 24.9122 30.4745 22.5542 29.9453 22.5635C30.4745 22.5588 32.8325 20.1405 32.8232 19.6113C32.8278 20.1405 35.2462 22.4938 35.7753 22.4892Z" fill="#E04749"/>
<path fill-rule="evenodd" clip-rule="evenodd" d="M29.415 36.7988C28.8858 36.8034 26.5278 39.2217 26.5371 39.7509C26.5325 39.2217 24.1141 36.8637 23.585 36.873C24.1141 36.8684 26.4721 34.4501 26.4628 33.9209C26.4675 34.4501 28.8858 36.8034 29.415 36.7988Z" fill="#E04749"/>
<path fill-rule="evenodd" clip-rule="evenodd" d="M29.9454 51.1832C30.4745 51.1785 32.8325 48.7602 32.8232 48.231C32.8279 48.7602 35.2462 51.1182 35.7754 51.1089C35.2462 51.1135 32.8882 53.5319 32.8975 54.061C32.8929 53.5319 30.4745 51.1785 29.9454 51.1832Z" fill="#E04749"/>
<path fill-rule="evenodd" clip-rule="evenodd" d="M17.2247 51.1832C17.7538 51.1785 20.1118 48.7602 20.1025 48.231C20.1072 48.7602 22.5255 51.1182 23.0547 51.1089C22.5255 51.1135 20.1675 53.5319 20.1768 54.061C20.1722 53.5319 17.7538 51.1785 17.2247 51.1832Z" fill="#E04749"/>
</g>
<defs>
<clipPath id="clip0_3238_56917">
<rect width="53" height="74" fill="white"/>
</clipPath>
</defs>
</svg>
