<svg width="54" height="74" viewBox="0 0 54 74" fill="none" xmlns="http://www.w3.org/2000/svg">
<g clip-path="url(#clip0_3238_56957)">
<rect x="0.5" y="0.000976562" width="53" height="74" rx="2.65" fill="#292929"/>
<path d="M46.2048 56.9654C47.0475 58.6256 49.2446 58.0043 49.2597 56.3703C49.2747 54.5379 47.0124 53.5825 46.265 51.8702L46.2549 51.8493L46.2449 51.8754C45.4624 53.5721 43.18 54.4805 43.1649 56.3129C43.1448 57.9417 45.3269 58.6047 46.2048 56.9654Z" fill="#E04749"/>
<path d="M7.79523 16.7069C6.95249 15.0468 4.75536 15.668 4.74031 17.3021C4.72526 19.1345 6.98761 20.0898 7.73503 21.8021L7.74506 21.823L7.7551 21.7969C8.53764 20.1003 10.82 19.1919 10.8351 17.3595C10.8552 15.7307 8.67308 15.0677 7.79523 16.7069Z" fill="#E04749"/>
<path d="M6.40303 12.5121C6.44699 11.8277 6.51734 11.1996 6.61407 10.6278C6.7108 10.0473 6.84709 9.49722 7.02296 8.97742C7.20762 8.45763 7.44064 7.94649 7.72203 7.44402C8.00342 6.94155 8.35076 6.41742 8.76405 5.87163H5.00488V4.26025H10.8349V5.4298C10.3425 6.01891 9.93796 6.56903 9.6214 7.08016C9.31363 7.5913 9.07621 8.11109 8.90914 8.63955C8.74206 9.16802 8.61896 9.74413 8.53981 10.3679C8.46067 10.9916 8.39912 11.7064 8.35515 12.5121H6.40303Z" fill="#E04749"/>
<path d="M47.597 61.4904C47.553 62.1748 47.4827 62.8029 47.3859 63.3747C47.2892 63.9551 47.1529 64.5052 46.977 65.025C46.7924 65.5448 46.5594 66.056 46.278 66.5584C45.9966 67.0609 45.6492 67.585 45.236 68.1308H48.9951V69.7422H43.1651V68.5726C43.6575 67.9835 44.062 67.4334 44.3786 66.9223C44.6864 66.4111 44.9238 65.8913 45.0909 65.3629C45.2579 64.8344 45.381 64.2583 45.4602 63.6346C45.5393 63.0108 45.6009 62.2961 45.6448 61.4904H47.597Z" fill="#E04749"/>
<path d="M20.639 20.5805C21.4609 18.9225 23.5547 19.5651 23.5547 21.2086C23.5547 23.0508 21.3842 23.7021 20.6509 25.4167L20.639 25.4413L20.6284 25.4167C19.8952 23.7021 17.7247 23.0508 17.7247 21.2086C17.7234 19.5637 19.8171 18.9225 20.639 20.5805Z" fill="#E14749"/>
<path d="M33.3597 20.5805C34.1816 18.9225 36.2754 19.5651 36.2754 21.2086C36.2754 23.0508 34.1049 23.7021 33.3716 25.4167L33.3597 25.4413L33.3491 25.4167C32.6159 23.7021 30.4454 23.0508 30.4454 21.2086C30.4441 19.5637 32.5378 18.9225 33.3597 20.5805Z" fill="#E14749"/>
<path d="M33.3597 34.8901C34.1816 33.2321 36.2754 33.8747 36.2754 35.5182C36.2754 37.3604 34.1049 38.0117 33.3716 39.7262L33.3597 39.7509L33.3491 39.7262C32.6159 38.0117 30.4454 37.3604 30.4454 35.5182C30.4441 33.8732 32.5378 33.2321 33.3597 34.8901Z" fill="#E14749"/>
<path d="M26.9994 27.7353C27.8213 26.0773 29.915 26.7199 29.915 28.3634C29.915 30.2056 27.7445 30.8569 27.0113 32.5715L26.9994 32.5961L26.9888 32.5715C26.2556 30.8569 24.085 30.2056 24.085 28.3634C24.0837 26.7185 26.1775 26.0773 26.9994 27.7353Z" fill="#E14749"/>
<path d="M20.639 34.8901C21.4609 33.2321 23.5547 33.8747 23.5547 35.5182C23.5547 37.3604 21.3842 38.0117 20.6509 39.7262L20.639 39.7509L20.6284 39.7262C19.8952 38.0117 17.7247 37.3604 17.7247 35.5182C17.7234 33.8732 19.8171 33.2321 20.639 34.8901Z" fill="#E14749"/>
<path d="M33.361 53.0918C32.5391 54.7498 30.4453 54.1072 30.4453 52.4638C30.4453 50.6216 32.6158 49.9703 33.3491 48.2557L33.361 48.231L33.3716 48.2557C34.1048 49.9703 36.2753 50.6216 36.2753 52.4638C36.2766 54.1087 34.1829 54.7498 33.361 53.0918Z" fill="#E14749"/>
<path d="M20.6403 53.0918C19.8184 54.7498 17.7246 54.1072 17.7246 52.4638C17.7246 50.6216 19.8951 49.9703 20.6284 48.2557L20.6403 48.231L20.6509 48.2557C21.3841 49.9703 23.5546 50.6216 23.5546 52.4638C23.5559 54.1087 21.4622 54.7498 20.6403 53.0918Z" fill="#E14749"/>
</g>
<defs>
<clipPath id="clip0_3238_56957">
<rect width="53" height="74" fill="white" transform="translate(0.5)"/>
</clipPath>
</defs>
</svg>
