<svg width="53" height="74" viewBox="0 0 53 74" fill="none" xmlns="http://www.w3.org/2000/svg">
<g clip-path="url(#clip0_3238_57005)">
<rect y="0.000976562" width="53" height="74" rx="2.65" fill="#292929"/>
<path d="M42.6648 54.6635C42.6648 56.3614 44.934 57.2267 45.7001 58.8077L45.7098 58.8311L45.7195 58.8077C46.4857 57.2267 48.7598 56.3614 48.7598 54.6682C48.7598 53.2462 46.8154 52.699 45.865 53.887C45.8456 53.9478 45.865 53.5082 45.928 53.2649C46.1559 52.5352 46.9754 51.4735 47.373 51.1461C46.8202 51.6044 44.5898 51.5998 44.0418 51.1461C44.4394 51.4782 45.2201 52.4978 45.4868 53.2649C45.5401 53.4754 45.5741 53.6906 45.5886 53.9057C44.6673 52.6148 42.6648 53.2135 42.6648 54.6635Z" fill="#EAEAEA"/>
<path d="M10.3352 19.0089C10.3352 17.311 8.06597 16.4457 7.29985 14.8647L7.29015 14.8413L7.28045 14.8647C6.51434 16.4457 4.24023 17.311 4.24023 19.0042C4.24023 20.4261 6.18462 20.9734 7.13499 19.7853C7.15439 19.7245 7.13499 20.1642 7.07196 20.4074C6.84406 21.1371 6.02461 22.1989 5.627 22.5263C6.17977 22.0679 8.41025 22.0726 8.95816 22.5263C8.56056 22.1942 7.77989 21.1745 7.5132 20.4074C7.45987 20.197 7.42592 19.9818 7.41137 19.7666C8.33265 21.0576 10.3352 20.4589 10.3352 19.0089Z" fill="#EAEAEA"/>
<path d="M6.90571 12.5121C6.38861 12.5121 5.94128 12.4161 5.56371 12.2241C5.18614 12.0321 4.87014 11.8108 4.61569 11.5604L5.57602 10.4585C5.70735 10.6088 5.88382 10.7423 6.10544 10.8592C6.33526 10.9677 6.56098 11.022 6.78259 11.022C7.0945 11.022 7.36946 10.9343 7.60749 10.759C7.85373 10.5837 8.04662 10.2915 8.18616 9.88249C8.3339 9.46511 8.40777 8.9058 8.40777 8.20459C8.40777 7.54511 8.34621 7.03172 8.22309 6.66442C8.10818 6.28877 7.95223 6.02581 7.75524 5.87555C7.56645 5.71694 7.36125 5.63764 7.13964 5.63764C6.96727 5.63764 6.80311 5.68355 6.64716 5.77538C6.49942 5.8672 6.3804 6.00494 6.29012 6.18859C6.19983 6.37225 6.15468 6.61851 6.15468 6.92738C6.15468 7.20285 6.19983 7.42824 6.29012 7.60355C6.3804 7.7705 6.50352 7.89155 6.65947 7.96668C6.81542 8.04181 6.9919 8.07937 7.18889 8.07937C7.39409 8.07937 7.60339 8.01676 7.8168 7.89155C8.0302 7.75798 8.22309 7.53676 8.39546 7.2279L8.48164 8.42998C8.28465 8.72215 8.0261 8.95589 7.70599 9.13119C7.38588 9.29815 7.0945 9.38163 6.83184 9.38163C6.38861 9.38163 5.99052 9.29398 5.63758 9.11867C5.28464 8.94337 5.00557 8.67624 4.80037 8.31728C4.60338 7.94998 4.50488 7.48668 4.50488 6.92738C4.50488 6.37642 4.6239 5.9006 4.86193 5.4999C5.09996 5.09921 5.41597 4.79451 5.80995 4.58582C6.20393 4.36877 6.63485 4.26025 7.1027 4.26025C7.48848 4.26025 7.85784 4.33538 8.21078 4.48564C8.56372 4.6359 8.87562 4.86964 9.14649 5.18686C9.42556 5.50408 9.64717 5.91312 9.81133 6.41399C9.9837 6.90651 10.0699 7.50337 10.0699 8.20459C10.0699 8.94754 9.97959 9.59032 9.79902 10.1329C9.62665 10.6755 9.39273 11.1221 9.09724 11.4728C8.80175 11.8234 8.46523 12.0863 8.08766 12.2616C7.71009 12.4286 7.31611 12.5121 6.90571 12.5121Z" fill="#EAEAEA"/>
<path d="M46.0943 61.4904C46.6114 61.4904 47.0587 61.5864 47.4363 61.7784C47.8139 61.9704 48.1299 62.1916 48.3843 62.442L47.424 63.5439C47.2927 63.3937 47.1162 63.2601 46.8946 63.1433C46.6647 63.0347 46.439 62.9805 46.2174 62.9805C45.9055 62.9805 45.6305 63.0681 45.3925 63.2434C45.1463 63.4187 44.9534 63.7109 44.8138 64.1199C44.6661 64.5373 44.5922 65.0966 44.5922 65.7979C44.5922 66.4573 44.6538 66.9707 44.7769 67.338C44.8918 67.7137 45.0478 67.9766 45.2448 68.1269C45.4335 68.2855 45.6387 68.3648 45.8604 68.3648C46.0327 68.3648 46.1969 68.3189 46.3528 68.2271C46.5006 68.1352 46.6196 67.9975 46.7099 67.8138C46.8002 67.6302 46.8453 67.3839 46.8453 67.0751C46.8453 66.7996 46.8002 66.5742 46.7099 66.3989C46.6196 66.2319 46.4965 66.1109 46.3405 66.0358C46.1846 65.9606 46.0081 65.9231 45.8111 65.9231C45.6059 65.9231 45.3966 65.9857 45.1832 66.1109C44.9698 66.2445 44.7769 66.4657 44.6045 66.7745L44.5184 65.5725C44.7153 65.2803 44.9739 65.0466 45.294 64.8712C45.6141 64.7043 45.9055 64.6208 46.1682 64.6208C46.6114 64.6208 47.0095 64.7085 47.3624 64.8838C47.7154 65.0591 47.9944 65.3262 48.1996 65.6852C48.3966 66.0525 48.4951 66.5158 48.4951 67.0751C48.4951 67.626 48.3761 68.1018 48.1381 68.5025C47.9 68.9032 47.584 69.2079 47.1901 69.4166C46.7961 69.6337 46.3652 69.7422 45.8973 69.7422C45.5115 69.7422 45.1422 69.6671 44.7892 69.5168C44.4363 69.3665 44.1244 69.1328 43.8535 68.8156C43.5744 68.4984 43.3528 68.0893 43.1887 67.5885C43.0163 67.0959 42.9301 66.4991 42.9301 65.7979C42.9301 65.0549 43.0204 64.4121 43.201 63.8695C43.3733 63.3269 43.6073 62.8803 43.9028 62.5297C44.1982 62.1791 44.5348 61.9161 44.9123 61.7408C45.2899 61.5739 45.6839 61.4904 46.0943 61.4904Z" fill="#EAEAEA"/>
<path d="M22.5249 22.7729C22.5249 21.4849 20.7489 20.8284 20.1494 19.6291L20.1418 19.6113L20.1342 19.6291C19.5346 20.8284 17.7549 21.4849 17.7549 22.7694C17.7549 23.8481 19.2766 24.2633 20.0203 23.362C20.0355 23.3158 20.0203 23.6494 19.971 23.8339C19.7927 24.3875 19.1514 25.1929 18.8402 25.4413C19.2728 25.0936 21.0184 25.0971 21.4472 25.4413C21.136 25.1894 20.525 24.4158 20.3163 23.8339C20.2746 23.6742 20.248 23.511 20.2366 23.3478C20.9576 24.3271 22.5249 23.8729 22.5249 22.7729Z" fill="#EAEAEA"/>
<path d="M35.2456 22.7729C35.2456 21.4849 33.4696 20.8284 32.8701 19.6291L32.8625 19.6113L32.8549 19.6291C32.2553 20.8284 30.4756 21.4849 30.4756 22.7694C30.4756 23.8481 31.9973 24.2633 32.7411 23.362C32.7562 23.3158 32.741 23.6494 32.6917 23.8339C32.5134 24.3875 31.8721 25.1929 31.5609 25.4413C31.9935 25.0936 33.7391 25.0971 34.1679 25.4413C33.8567 25.1894 33.2458 24.4158 33.037 23.8339C32.9953 23.6742 32.9687 23.511 32.9573 23.3478C33.6783 24.3271 35.2456 23.8729 35.2456 22.7729Z" fill="#EAEAEA"/>
<path d="M35.2456 32.8428C35.2456 31.5547 33.4696 30.8982 32.8701 29.6989L32.8625 29.6812L32.8549 29.6989C32.2553 30.8982 30.4756 31.5547 30.4756 32.8392C30.4756 33.9179 31.9973 34.3331 32.7411 33.4318C32.7562 33.3857 32.741 33.7192 32.6917 33.9037C32.5134 34.4573 31.8721 35.2628 31.5609 35.5112C31.9935 35.1634 33.7391 35.167 34.1679 35.5112C33.8567 35.2592 33.2458 34.4857 33.037 33.9037C32.9953 33.7441 32.9687 33.5808 32.9573 33.4176C33.6783 34.397 35.2456 33.9428 35.2456 32.8428Z" fill="#EAEAEA"/>
<path d="M17.7544 40.8296C17.7544 42.1177 19.5304 42.7741 20.1299 43.9735L20.1375 43.9912L20.1451 43.9735C20.7447 42.7741 22.5244 42.1177 22.5244 40.8331C22.5244 39.7544 21.0027 39.3393 20.2589 40.2406C20.2438 40.2867 20.259 39.9531 20.3083 39.7686C20.4866 39.2151 21.1279 38.4096 21.4391 38.1612C21.0065 38.509 19.2609 38.5054 18.8321 38.1612C19.1433 38.4131 19.7542 39.1867 19.963 39.7686C20.0047 39.9283 20.0313 40.0915 20.0427 40.2548C19.3216 39.2754 17.7544 39.7296 17.7544 40.8296Z" fill="#EAEAEA"/>
<path d="M28.8852 37.0825C28.8852 35.7944 27.1093 35.138 26.5097 33.9386L26.5021 33.9209L26.4945 33.9386C25.895 35.138 24.1152 35.7944 24.1152 37.079C24.1152 38.1577 25.6369 38.5728 26.3807 37.6715C26.3959 37.6254 26.3807 37.959 26.3314 38.1435C26.153 38.697 25.5117 39.5025 25.2005 39.7509C25.6331 39.4032 27.3787 39.4067 27.8075 39.7509C27.4964 39.499 26.8854 38.7254 26.6767 38.1435C26.6349 37.9838 26.6084 37.8206 26.597 37.6573C27.318 38.6367 28.8852 38.1825 28.8852 37.0825Z" fill="#EAEAEA"/>
<path d="M22.5249 32.8428C22.5249 31.5547 20.7489 30.8982 20.1494 29.6989L20.1418 29.6812L20.1342 29.6989C19.5346 30.8982 17.7549 31.5547 17.7549 32.8392C17.7549 33.9179 19.2766 34.3331 20.0203 33.4318C20.0355 33.3857 20.0203 33.7192 19.971 33.9037C19.7927 34.4573 19.1514 35.2628 18.8402 35.5112C19.2728 35.1634 21.0184 35.167 21.4472 35.5112C21.136 35.2592 20.525 34.4857 20.3163 33.9037C20.2746 33.7441 20.248 33.5808 20.2366 33.4176C20.9576 34.397 22.5249 33.9428 22.5249 32.8428Z" fill="#EAEAEA"/>
<path d="M30.4751 40.8296C30.4751 42.1177 32.2511 42.7741 32.8506 43.9735L32.8582 43.9912L32.8658 43.9735C33.4654 42.7741 35.2451 42.1177 35.2451 40.8331C35.2451 39.7544 33.7234 39.3393 32.9797 40.2406C32.9645 40.2867 32.9797 39.9531 33.029 39.7686C33.2073 39.2151 33.8486 38.4096 34.1598 38.1612C33.7272 38.509 31.9816 38.5054 31.5528 38.1612C31.864 38.4131 32.475 39.1867 32.6837 39.7686C32.7254 39.9283 32.752 40.0915 32.7634 40.2548C32.0424 39.2754 30.4751 39.7296 30.4751 40.8296Z" fill="#EAEAEA"/>
<path d="M30.4751 50.8994C30.4751 52.1875 32.2511 52.8439 32.8506 54.0433L32.8582 54.061L32.8658 54.0433C33.4654 52.8439 35.2451 52.1875 35.2451 50.903C35.2451 49.8243 33.7234 49.4091 32.9797 50.3104C32.9645 50.3565 32.9797 50.023 33.029 49.8385C33.2073 49.2849 33.8486 48.4794 34.1598 48.231C33.7272 48.5788 31.9816 48.5752 31.5528 48.231C31.864 48.483 32.475 49.2565 32.6837 49.8385C32.7254 49.9981 32.752 50.1614 32.7634 50.3246C32.0424 49.3452 30.4751 49.7994 30.4751 50.8994Z" fill="#EAEAEA"/>
<path d="M17.7544 50.8994C17.7544 52.1875 19.5304 52.8439 20.1299 54.0433L20.1375 54.061L20.1451 54.0433C20.7447 52.8439 22.5244 52.1875 22.5244 50.903C22.5244 49.8243 21.0027 49.4091 20.2589 50.3104C20.2438 50.3565 20.259 50.023 20.3083 49.8385C20.4866 49.2849 21.1279 48.4794 21.4391 48.231C21.0065 48.5788 19.2609 48.5752 18.8321 48.231C19.1433 48.483 19.7542 49.2565 19.963 49.8385C20.0047 49.9981 20.0313 50.1614 20.0427 50.3246C19.3216 49.3452 17.7544 49.7994 17.7544 50.8994Z" fill="#EAEAEA"/>
</g>
<defs>
<clipPath id="clip0_3238_57005">
<rect width="53" height="74" fill="white"/>
</clipPath>
</defs>
</svg>
