<svg width="53" height="74" viewBox="0 0 53 74" fill="none" xmlns="http://www.w3.org/2000/svg">
<g clip-path="url(#clip0_3238_57037)">
<rect y="0.16626" width="53" height="74" rx="2.65" fill="#292929"/>
<path d="M42.6648 54.8285C42.6648 56.5264 44.934 57.3917 45.7001 58.9727L45.7098 58.9961L45.7195 58.9727C46.4857 57.3917 48.7598 56.5264 48.7598 54.8332C48.7598 53.4113 46.8154 52.864 45.865 54.0521C45.8456 54.1129 45.865 53.6732 45.928 53.43C46.1559 52.7003 46.9754 51.6385 47.373 51.3111C46.8202 51.7695 44.5898 51.7648 44.0418 51.3111C44.4394 51.6432 45.2201 52.6629 45.4868 53.43C45.5401 53.6404 45.5741 53.8556 45.5886 54.0708C44.6673 52.7798 42.6648 53.3785 42.6648 54.8285Z" fill="#EAEAEA"/>
<path d="M10.3352 19.1737C10.3352 17.4758 8.06597 16.6105 7.29985 15.0295L7.29015 15.0061L7.28045 15.0295C6.51434 16.6105 4.24023 17.4758 4.24023 19.169C4.24023 20.5909 6.18462 21.1382 7.13499 19.9501C7.15439 19.8893 7.13499 20.329 7.07196 20.5722C6.84406 21.3019 6.02461 22.3637 5.627 22.6911C6.17977 22.2327 8.41025 22.2374 8.95816 22.6911C8.56056 22.359 7.77989 21.3393 7.5132 20.5722C7.45987 20.3617 7.42592 20.1466 7.41137 19.9314C8.33265 21.2224 10.3352 20.6237 10.3352 19.1737Z" fill="#EAEAEA"/>
<path d="M7.05956 12.6213C6.62581 12.6213 6.23034 12.5714 5.87314 12.4717C5.52445 12.3802 5.21403 12.2514 4.94188 12.0852C4.66972 11.919 4.43584 11.7237 4.24023 11.4993L5.10772 10.34C5.35436 10.5727 5.62651 10.7638 5.92417 10.9134C6.22184 11.063 6.54077 11.1378 6.88096 11.1378C7.27217 11.1378 7.58685 11.0589 7.82498 10.901C8.07162 10.7348 8.19494 10.5021 8.19494 10.2029C8.19494 9.97018 8.13541 9.77072 8.01634 9.60451C7.89727 9.42999 7.6804 9.29702 7.36573 9.2056C7.05956 9.11419 6.6088 9.06848 6.01347 9.06848V7.77203C6.49824 7.77203 6.88096 7.72632 7.16161 7.63491C7.44227 7.54349 7.63788 7.41883 7.74844 7.26093C7.86751 7.10303 7.92704 6.9202 7.92704 6.71243C7.92704 6.42987 7.83774 6.2138 7.65914 6.06421C7.48905 5.91462 7.24666 5.83982 6.93198 5.83982C6.64282 5.83982 6.37918 5.90215 6.14104 6.02681C5.91142 6.14316 5.66903 6.31353 5.41389 6.53791L4.46986 5.41598C4.84407 5.10018 5.23954 4.85502 5.65627 4.6805C6.07301 4.49767 6.52801 4.40625 7.02128 4.40625C7.57409 4.40625 8.05886 4.49351 8.4756 4.66803C8.90083 4.83424 9.22827 5.07941 9.45789 5.40352C9.69603 5.71932 9.81509 6.10992 9.81509 6.57531C9.81509 6.98253 9.69603 7.33157 9.45789 7.62244C9.22827 7.91331 8.89658 8.15016 8.46284 8.33299V8.38286C8.76901 8.47428 9.04541 8.60724 9.29205 8.78177C9.53869 8.94798 9.73005 9.1599 9.86612 9.41752C10.0022 9.67515 10.0702 9.97433 10.0702 10.3151C10.0702 10.8054 9.92991 11.2251 9.64925 11.5741C9.3771 11.9149 9.01139 12.1766 8.55214 12.3595C8.10139 12.534 7.60386 12.6213 7.05956 12.6213Z" fill="#EAEAEA"/>
<path d="M45.6758 61.3812C46.1095 61.3812 46.505 61.4311 46.8622 61.5308C47.2109 61.6222 47.5213 61.751 47.7935 61.9172C48.0656 62.0834 48.2995 62.2787 48.4951 62.5031L47.6276 63.6624C47.381 63.4297 47.1088 63.2386 46.8112 63.089C46.5135 62.9394 46.1946 62.8646 45.8544 62.8646C45.4632 62.8646 45.1485 62.9436 44.9104 63.1015C44.6637 63.2677 44.5404 63.5004 44.5404 63.7996C44.5404 64.0323 44.5999 64.2317 44.719 64.3979C44.8381 64.5725 45.0549 64.7054 45.3696 64.7968C45.6758 64.8883 46.1265 64.934 46.7219 64.934L46.7219 66.2304C46.2371 66.2304 45.8544 66.2761 45.5737 66.3675C45.2931 66.459 45.0975 66.5836 44.9869 66.7415C44.8678 66.8994 44.8083 67.0822 44.8083 67.29C44.8083 67.5726 44.8976 67.7886 45.0762 67.9382C45.2463 68.0878 45.4887 68.1626 45.8034 68.1626C46.0925 68.1626 46.3562 68.1003 46.5943 67.9756C46.8239 67.8593 47.0663 67.6889 47.3215 67.4645L48.2655 68.5865C47.8913 68.9023 47.4958 69.1474 47.0791 69.3219C46.6623 69.5048 46.2073 69.5962 45.7141 69.5962C45.1613 69.5962 44.6765 69.5089 44.2598 69.3344C43.8345 69.1682 43.5071 68.923 43.2775 68.5989C43.0393 68.2831 42.9203 67.8925 42.9203 67.4271C42.9203 67.0199 43.0393 66.6709 43.2775 66.38C43.5071 66.0891 43.8388 65.8523 44.2725 65.6694L44.2725 65.6196C43.9663 65.5282 43.6899 65.3952 43.4433 65.2207C43.1967 65.0545 43.0053 64.8425 42.8692 64.5849C42.7332 64.3273 42.6651 64.0281 42.6651 63.6874C42.6651 63.1971 42.8054 62.7774 43.0861 62.4283C43.3583 62.0876 43.724 61.8258 44.1832 61.643C44.634 61.4685 45.1315 61.3812 45.6758 61.3812Z" fill="#EAEAEA"/>
<path d="M28.8852 22.9377C28.8852 21.6497 27.1093 20.9932 26.5097 19.7939L26.5021 19.7761L26.4945 19.7939C25.895 20.9932 24.1152 21.6497 24.1152 22.9342C24.1152 24.0129 25.6369 24.4281 26.3807 23.5268C26.3959 23.4806 26.3807 23.8142 26.3314 23.9987C26.153 24.5523 25.5117 25.3577 25.2005 25.6061C25.6331 25.2584 27.3787 25.2619 27.8075 25.6061C27.4964 25.3542 26.8854 24.5806 26.6767 23.9987C26.6349 23.839 26.6084 23.6758 26.597 23.5126C27.318 24.4919 28.8852 24.0377 28.8852 22.9377Z" fill="#EAEAEA"/>
<path d="M28.8852 37.2478C28.8852 35.9597 27.1093 35.3033 26.5097 34.1039L26.5021 34.0862L26.4945 34.1039C25.895 35.3033 24.1152 35.9597 24.1152 37.2442C24.1152 38.323 25.6369 38.7381 26.3807 37.8368C26.3959 37.7907 26.3807 38.1242 26.3314 38.3088C26.153 38.8623 25.5117 39.6678 25.2005 39.9162C25.6331 39.5684 27.3787 39.572 27.8075 39.9162C27.4964 39.6642 26.8854 38.8907 26.6767 38.3088C26.6349 38.1491 26.6084 37.9859 26.597 37.8226C27.318 38.802 28.8852 38.3478 28.8852 37.2478Z" fill="#EAEAEA"/>
<path d="M24.1148 51.0647C24.1148 52.3528 25.8907 53.0092 26.4903 54.2086L26.4979 54.2263L26.5055 54.2086C27.105 53.0092 28.8848 52.3528 28.8848 51.0683C28.8848 49.9895 27.3631 49.5744 26.6193 50.4757C26.6041 50.5218 26.6193 50.1883 26.6686 50.0037C26.847 49.4502 27.4883 48.6447 27.7995 48.3963C27.3669 48.7441 25.6213 48.7405 25.1925 48.3963C25.5036 48.6483 26.1146 49.4218 26.3233 50.0037C26.3651 50.1634 26.3916 50.3266 26.403 50.4899C25.682 49.5105 24.1148 49.9647 24.1148 51.0647Z" fill="#EAEAEA"/>
</g>
<defs>
<clipPath id="clip0_3238_57037">
<rect width="53" height="73.67" fill="white" transform="translate(0 0.165039)"/>
</clipPath>
</defs>
</svg>
