<svg width="54" height="74" viewBox="0 0 54 74" fill="none" xmlns="http://www.w3.org/2000/svg">
<g clip-path="url(#clip0_3238_57051)">
<rect x="0.25" y="0.0012207" width="53" height="74" rx="2.65" fill="#292929"/>
<path d="M42.9148 54.6635C42.9148 56.3614 45.184 57.2267 45.9501 58.8077L45.9598 58.8311L45.9695 58.8077C46.7357 57.2267 49.0098 56.3614 49.0098 54.6682C49.0098 53.2462 47.0654 52.699 46.115 53.887C46.0956 53.9478 46.115 53.5082 46.178 53.2649C46.4059 52.5352 47.2254 51.4735 47.623 51.1461C47.0702 51.6044 44.8398 51.5998 44.2918 51.1461C44.6894 51.4782 45.4701 52.4978 45.7368 53.2649C45.7901 53.4754 45.8241 53.6906 45.8386 53.9057C44.9173 52.6148 42.9148 53.2135 42.9148 54.6635Z" fill="#EAEAEA"/>
<path d="M10.5852 19.0086C10.5852 17.3107 8.31597 16.4454 7.54985 14.8645L7.54015 14.8411L7.53045 14.8645C6.76434 16.4454 4.49023 17.3107 4.49023 19.004C4.49023 20.4259 6.43462 20.9732 7.38499 19.7851C7.40439 19.7243 7.38499 20.164 7.32196 20.4072C7.09406 21.1369 6.27461 22.1986 5.877 22.5261C6.42977 22.0677 8.66025 22.0724 9.20816 22.5261C8.81056 22.194 8.02989 21.1743 7.7632 20.4072C7.70987 20.1967 7.67592 19.9815 7.66137 19.7664C8.58265 21.0574 10.5852 20.4586 10.5852 19.0086Z" fill="#EAEAEA"/>
<path d="M7.34783 12.5121C6.90558 12.5121 6.50586 12.461 6.14866 12.359C5.79996 12.257 5.48954 12.1209 5.21739 11.9509C4.94524 11.7808 4.70285 11.5895 4.49023 11.377L5.3322 10.1908C5.57884 10.4119 5.84674 10.6032 6.1359 10.7648C6.42506 10.9178 6.73974 10.9943 7.07993 10.9943C7.35208 10.9943 7.59021 10.9476 7.79433 10.854C7.99844 10.752 8.15578 10.6075 8.26634 10.4204C8.38541 10.2333 8.44494 10.0038 8.44494 9.73169C8.44494 9.32357 8.32587 9.01322 8.08774 8.80066C7.84961 8.58809 7.54344 8.48181 7.16923 8.48181C6.9396 8.48181 6.74399 8.51157 6.5824 8.57109C6.42081 8.6306 6.2167 8.73689 5.97006 8.88993L5.12809 8.35427L5.35772 4.26025H9.95028V5.84174H6.97787L6.83754 7.35946C6.99913 7.29144 7.14797 7.24468 7.28404 7.21917C7.42012 7.18516 7.5732 7.16815 7.7433 7.16815C8.21106 7.16815 8.64055 7.25743 9.03177 7.43598C9.42298 7.61454 9.73341 7.89087 9.96304 8.26499C10.2012 8.63911 10.3202 9.111 10.3202 9.68068C10.3202 10.2844 10.1799 10.7988 9.89925 11.2239C9.6271 11.6405 9.26565 11.9594 8.8149 12.1804C8.36414 12.4015 7.87512 12.5121 7.34783 12.5121Z" fill="#EAEAEA"/>
<path d="M45.8875 61.4904C46.3298 61.4904 46.7295 61.5414 47.0867 61.6434C47.4354 61.7455 47.7458 61.8815 48.018 62.0516C48.2901 62.2216 48.5325 62.4129 48.7451 62.6255L47.9031 63.8116C47.6565 63.5905 47.3886 63.3992 47.0994 63.2377C46.8103 63.0846 46.4956 63.0081 46.1554 63.0081C45.8833 63.0081 45.6451 63.0549 45.441 63.1484C45.2369 63.2504 45.0796 63.395 44.969 63.582C44.8499 63.7691 44.7904 63.9987 44.7904 64.2707C44.7904 64.6789 44.9095 64.9892 45.1476 65.2018C45.3857 65.4144 45.6919 65.5206 46.0661 65.5206C46.2958 65.5206 46.4914 65.4909 46.653 65.4314C46.8145 65.3718 47.0187 65.2656 47.2653 65.1125L48.1073 65.6482L47.8776 69.7422H43.2851V68.1607H46.2575L46.3978 66.643C46.2362 66.711 46.0874 66.7578 45.9513 66.7833C45.8152 66.8173 45.6621 66.8343 45.4921 66.8343C45.0243 66.8343 44.5948 66.745 44.2036 66.5665C43.8124 66.3879 43.5019 66.1116 43.2723 65.7375C43.0342 65.3633 42.9151 64.8914 42.9151 64.3218C42.9151 63.7181 43.0554 63.2037 43.3361 62.7785C43.6083 62.3619 43.9697 62.0431 44.4205 61.822C44.8712 61.6009 45.3602 61.4904 45.8875 61.4904Z" fill="#EAEAEA"/>
<path d="M22.7749 22.7729C22.7749 21.4849 20.9989 20.8284 20.3994 19.6291L20.3918 19.6113L20.3842 19.6291C19.7846 20.8284 18.0049 21.4849 18.0049 22.7694C18.0049 23.8481 19.5266 24.2633 20.2703 23.362C20.2855 23.3158 20.2703 23.6494 20.221 23.8339C20.0427 24.3875 19.4014 25.1929 19.0902 25.4413C19.5228 25.0936 21.2684 25.0971 21.6972 25.4413C21.386 25.1894 20.775 24.4158 20.5663 23.8339C20.5246 23.6742 20.498 23.511 20.4866 23.3478C21.2076 24.3271 22.7749 23.8729 22.7749 22.7729Z" fill="#EAEAEA"/>
<path d="M35.4956 22.7729C35.4956 21.4849 33.7196 20.8284 33.1201 19.6291L33.1125 19.6113L33.1049 19.6291C32.5053 20.8284 30.7256 21.4849 30.7256 22.7694C30.7256 23.8481 32.2473 24.2633 32.9911 23.362C33.0062 23.3158 32.991 23.6494 32.9417 23.8339C32.7634 24.3875 32.1221 25.1929 31.8109 25.4413C32.2435 25.0936 33.9891 25.0971 34.4179 25.4413C34.1067 25.1894 33.4958 24.4158 33.287 23.8339C33.2453 23.6742 33.2187 23.511 33.2073 23.3478C33.9283 24.3271 35.4956 23.8729 35.4956 22.7729Z" fill="#EAEAEA"/>
<path d="M29.1352 37.0828C29.1352 35.7947 27.3593 35.1382 26.7597 33.9389L26.7521 33.9211L26.7445 33.9389C26.145 35.1382 24.3652 35.7947 24.3652 37.0792C24.3652 38.1579 25.8869 38.5731 26.6307 37.6718C26.6459 37.6257 26.6307 37.9592 26.5814 38.1437C26.403 38.6973 25.7617 39.5028 25.4505 39.7511C25.8831 39.4034 27.6287 39.4069 28.0575 39.7511C27.7464 39.4992 27.1354 38.7257 26.9267 38.1437C26.8849 37.984 26.8584 37.8208 26.847 37.6576C27.568 38.6369 29.1352 38.1828 29.1352 37.0828Z" fill="#EAEAEA"/>
<path d="M30.7251 50.8997C30.7251 52.1877 32.5011 52.8442 33.1006 54.0435L33.1082 54.0613L33.1158 54.0435C33.7154 52.8442 35.4951 52.1877 35.4951 50.9032C35.4951 49.8245 33.9734 49.4093 33.2297 50.3106C33.2145 50.3568 33.2297 50.0232 33.279 49.8387C33.4573 49.2852 34.0986 48.4797 34.4098 48.2313C33.9772 48.579 32.2316 48.5755 31.8028 48.2313C32.114 48.4832 32.725 49.2568 32.9337 49.8387C32.9754 49.9984 33.002 50.1616 33.0134 50.3248C32.2924 49.3455 30.7251 49.7997 30.7251 50.8997Z" fill="#EAEAEA"/>
<path d="M18.0044 50.8997C18.0044 52.1877 19.7804 52.8442 20.3799 54.0435L20.3875 54.0613L20.3951 54.0435C20.9947 52.8442 22.7744 52.1877 22.7744 50.9032C22.7744 49.8245 21.2527 49.4093 20.5089 50.3106C20.4938 50.3568 20.509 50.0232 20.5583 49.8387C20.7366 49.2852 21.3779 48.4797 21.6891 48.2313C21.2565 48.579 19.5109 48.5755 19.0821 48.2313C19.3933 48.4832 20.0042 49.2568 20.213 49.8387C20.2547 49.9984 20.2813 50.1616 20.2927 50.3248C19.5716 49.3455 18.0044 49.7997 18.0044 50.8997Z" fill="#EAEAEA"/>
</g>
<defs>
<clipPath id="clip0_3238_57051">
<rect width="53" height="74" fill="white" transform="translate(0.25)"/>
</clipPath>
</defs>
</svg>
