<svg width="54" height="74" viewBox="0 0 54 74" fill="none" xmlns="http://www.w3.org/2000/svg">
<g clip-path="url(#clip0_3238_57070)">
<rect x="0.5" y="0.0012207" width="53" height="74" rx="2.65" fill="#292929"/>
<path d="M43.1648 54.6635C43.1648 56.3614 45.434 57.2267 46.2001 58.8077L46.2098 58.8311L46.2195 58.8077C46.9857 57.2267 49.2598 56.3614 49.2598 54.6682C49.2598 53.2462 47.3154 52.699 46.365 53.887C46.3456 53.9478 46.365 53.5082 46.428 53.2649C46.6559 52.5352 47.4754 51.4735 47.873 51.1461C47.3202 51.6044 45.0898 51.5998 44.5418 51.1461C44.9394 51.4782 45.7201 52.4978 45.9868 53.2649C46.0401 53.4754 46.0741 53.6906 46.0886 53.9057C45.1673 52.6148 43.1648 53.2135 43.1648 54.6635Z" fill="#EAEAEA"/>
<path d="M10.8352 19.0086C10.8352 17.3107 8.56597 16.4454 7.79985 14.8645L7.79015 14.8411L7.78045 14.8645C7.01434 16.4454 4.74023 17.3107 4.74023 19.004C4.74023 20.4259 6.68462 20.9732 7.63499 19.7851C7.65439 19.7243 7.63499 20.164 7.57196 20.4072C7.34406 21.1369 6.52461 22.1986 6.127 22.5261C6.67977 22.0677 8.91025 22.0724 9.45816 22.5261C9.06056 22.194 8.27989 21.1743 8.0132 20.4072C7.95987 20.1967 7.92592 19.9815 7.91137 19.7664C8.83265 21.0574 10.8352 20.4586 10.8352 19.0086Z" fill="#EAEAEA"/>
<path d="M6.40303 12.5121C6.44699 11.8277 6.51734 11.1996 6.61407 10.6278C6.7108 10.0473 6.84709 9.49722 7.02296 8.97742C7.20762 8.45763 7.44064 7.94649 7.72203 7.44402C8.00342 6.94155 8.35076 6.41742 8.76405 5.87163H5.00488V4.26025H10.8349V5.4298C10.3425 6.01891 9.93796 6.56903 9.6214 7.08016C9.31363 7.5913 9.07621 8.11109 8.90914 8.63955C8.74206 9.16802 8.61896 9.74413 8.53981 10.3679C8.46067 10.9916 8.39912 11.7064 8.35515 12.5121H6.40303Z" fill="#EAEAEA"/>
<path d="M47.597 61.4904C47.553 62.1748 47.4827 62.8029 47.3859 63.3747C47.2892 63.9551 47.1529 64.5052 46.977 65.025C46.7924 65.5448 46.5594 66.056 46.278 66.5584C45.9966 67.0609 45.6492 67.585 45.236 68.1308H48.9951V69.7422H43.1651V68.5726C43.6575 67.9835 44.062 67.4334 44.3786 66.9223C44.6864 66.4111 44.9238 65.8913 45.0909 65.3629C45.2579 64.8344 45.381 64.2583 45.4602 63.6346C45.5393 63.0108 45.6009 62.2961 45.6448 61.4904H47.597Z" fill="#EAEAEA"/>
<path d="M23.0249 22.7729C23.0249 21.4849 21.2489 20.8284 20.6494 19.6291L20.6418 19.6113L20.6342 19.6291C20.0346 20.8284 18.2549 21.4849 18.2549 22.7694C18.2549 23.8481 19.7766 24.2633 20.5203 23.362C20.5355 23.3158 20.5203 23.6494 20.471 23.8339C20.2927 24.3875 19.6514 25.1929 19.3402 25.4413C19.7728 25.0936 21.5184 25.0971 21.9472 25.4413C21.636 25.1894 21.025 24.4158 20.8163 23.8339C20.7746 23.6742 20.748 23.511 20.7366 23.3478C21.4576 24.3271 23.0249 23.8729 23.0249 22.7729Z" fill="#EAEAEA"/>
<path d="M35.7456 22.7729C35.7456 21.4849 33.9696 20.8284 33.3701 19.6291L33.3625 19.6113L33.3549 19.6291C32.7553 20.8284 30.9756 21.4849 30.9756 22.7694C30.9756 23.8481 32.4973 24.2633 33.2411 23.362C33.2562 23.3158 33.241 23.6494 33.1917 23.8339C33.0134 24.3875 32.3721 25.1929 32.0609 25.4413C32.4935 25.0936 34.2391 25.0971 34.6679 25.4413C34.3567 25.1894 33.7458 24.4158 33.537 23.8339C33.4953 23.6742 33.4687 23.511 33.4573 23.3478C34.1783 24.3271 35.7456 23.8729 35.7456 22.7729Z" fill="#EAEAEA"/>
<path d="M35.7456 37.0828C35.7456 35.7947 33.9696 35.1382 33.3701 33.9389L33.3625 33.9211L33.3549 33.9389C32.7553 35.1382 30.9756 35.7947 30.9756 37.0792C30.9756 38.1579 32.4973 38.5731 33.2411 37.6718C33.2562 37.6257 33.241 37.9592 33.1917 38.1437C33.0134 38.6973 32.3721 39.5028 32.0609 39.7511C32.4935 39.4034 34.2391 39.4069 34.6679 39.7511C34.3567 39.4992 33.7458 38.7257 33.537 38.1437C33.4953 37.984 33.4687 37.8208 33.4573 37.6576C34.1783 38.6369 35.7456 38.1828 35.7456 37.0828Z" fill="#EAEAEA"/>
<path d="M29.3852 29.9277C29.3852 28.6397 27.6093 27.9832 27.0097 26.7839L27.0021 26.7661L26.9945 26.7839C26.395 27.9832 24.6152 28.6397 24.6152 29.9242C24.6152 31.0029 26.1369 31.418 26.8807 30.5168C26.8959 30.4706 26.8807 30.8042 26.8314 30.9887C26.653 31.5422 26.0117 32.3477 25.7005 32.5961C26.1331 32.2484 27.8787 32.2519 28.3075 32.5961C27.9964 32.3442 27.3854 31.5706 27.1767 30.9887C27.1349 30.829 27.1084 30.6658 27.097 30.5026C27.818 31.4819 29.3852 31.0277 29.3852 29.9277Z" fill="#EAEAEA"/>
<path d="M23.0249 37.0828C23.0249 35.7947 21.2489 35.1382 20.6494 33.9389L20.6418 33.9211L20.6342 33.9389C20.0346 35.1382 18.2549 35.7947 18.2549 37.0792C18.2549 38.1579 19.7766 38.5731 20.5203 37.6718C20.5355 37.6257 20.5203 37.9592 20.471 38.1437C20.2927 38.6973 19.6514 39.5028 19.3402 39.7511C19.7728 39.4034 21.5184 39.4069 21.9472 39.7511C21.636 39.4992 21.025 38.7257 20.8163 38.1437C20.7746 37.984 20.748 37.8208 20.7366 37.6576C21.4576 38.6369 23.0249 38.1828 23.0249 37.0828Z" fill="#EAEAEA"/>
<path d="M30.9751 50.8997C30.9751 52.1877 32.7511 52.8442 33.3506 54.0435L33.3582 54.0613L33.3658 54.0435C33.9654 52.8442 35.7451 52.1877 35.7451 50.9032C35.7451 49.8245 34.2234 49.4093 33.4797 50.3106C33.4645 50.3568 33.4797 50.0232 33.529 49.8387C33.7073 49.2852 34.3486 48.4797 34.6598 48.2313C34.2272 48.579 32.4816 48.5755 32.0528 48.2313C32.364 48.4832 32.975 49.2568 33.1837 49.8387C33.2254 49.9984 33.252 50.1616 33.2634 50.3248C32.5424 49.3455 30.9751 49.7997 30.9751 50.8997Z" fill="#EAEAEA"/>
<path d="M18.2544 50.8997C18.2544 52.1877 20.0304 52.8442 20.6299 54.0435L20.6375 54.0613L20.6451 54.0435C21.2447 52.8442 23.0244 52.1877 23.0244 50.9032C23.0244 49.8245 21.5027 49.4093 20.7589 50.3106C20.7438 50.3568 20.759 50.0232 20.8083 49.8387C20.9866 49.2852 21.6279 48.4797 21.9391 48.2313C21.5065 48.579 19.7609 48.5755 19.3321 48.2313C19.6433 48.4832 20.2542 49.2568 20.463 49.8387C20.5047 49.9984 20.5313 50.1616 20.5427 50.3248C19.8216 49.3455 18.2544 49.7997 18.2544 50.8997Z" fill="#EAEAEA"/>
</g>
<defs>
<clipPath id="clip0_3238_57070">
<rect width="53" height="74" fill="white" transform="translate(0.5)"/>
</clipPath>
</defs>
</svg>
