<svg width="53" height="74" viewBox="0 0 53 74" fill="none" xmlns="http://www.w3.org/2000/svg">
<g clip-path="url(#clip0_3238_57122)">
<rect y="0.0012207" width="53" height="74" rx="2.65" fill="#292929"/>
<path d="M42.6648 54.6635C42.6648 56.3614 44.934 57.2267 45.7001 58.8077L45.7098 58.8311L45.7195 58.8077C46.4857 57.2267 48.7598 56.3614 48.7598 54.6682C48.7598 53.2462 46.8154 52.699 45.865 53.887C45.8456 53.9478 45.865 53.5082 45.928 53.2649C46.1559 52.5352 46.9754 51.4735 47.373 51.1461C46.8202 51.6044 44.5898 51.5998 44.0418 51.1461C44.4394 51.4782 45.2201 52.4978 45.4868 53.2649C45.5401 53.4754 45.5741 53.6906 45.5886 53.9057C44.6673 52.6148 42.6648 53.2135 42.6648 54.6635Z" fill="#EAEAEA"/>
<path d="M10.3352 19.0086C10.3352 17.3107 8.06597 16.4454 7.29985 14.8645L7.29015 14.8411L7.28045 14.8645C6.51434 16.4454 4.24023 17.3107 4.24023 19.004C4.24023 20.4259 6.18462 20.9732 7.13499 19.7851C7.15439 19.7243 7.13499 20.164 7.07196 20.4072C6.84406 21.1369 6.02461 22.1986 5.627 22.5261C6.17977 22.0677 8.41025 22.0724 8.95816 22.5261C8.56056 22.194 7.77989 21.1743 7.5132 20.4072C7.45987 20.1967 7.42592 19.9815 7.41137 19.7664C8.33265 21.0574 10.3352 20.4586 10.3352 19.0086Z" fill="#EAEAEA"/>
<path d="M7.07911 12.5543C6.3589 12.5543 5.72462 12.3865 5.17628 12.0511C4.63612 11.7157 4.21054 11.2372 3.89954 10.6154C3.59672 9.9937 3.44531 9.24516 3.44531 8.36983C3.44531 7.50268 3.59672 6.76232 3.89954 6.14877C4.21054 5.53522 4.63612 5.06892 5.17628 4.74987C5.72462 4.42265 6.3589 4.25903 7.07911 4.25903C7.79933 4.25903 8.42951 4.42265 8.96967 4.74987C9.51802 5.06892 9.9436 5.53522 10.2464 6.14877C10.5574 6.76232 10.7129 7.50268 10.7129 8.36983C10.7129 9.24516 10.5574 9.9937 10.2464 10.6154C9.9436 11.2372 9.51802 11.7157 8.96967 12.0511C8.42951 12.3865 7.79933 12.5543 7.07911 12.5543ZM7.07911 11.0817C7.4474 11.0817 7.7625 10.9754 8.02439 10.7627C8.29447 10.5418 8.49908 10.2309 8.63821 9.83008C8.78553 9.42923 8.85919 8.94248 8.85919 8.36983C8.85919 7.83809 8.78553 7.38406 8.63821 7.00775C8.49908 6.62325 8.29447 6.32875 8.02439 6.12423C7.7625 5.91971 7.4474 5.81746 7.07911 5.81746C6.71901 5.81746 6.40391 5.91971 6.13383 6.12423C5.86375 6.32875 5.65506 6.62325 5.50774 7.00775C5.36861 7.38406 5.29904 7.83809 5.29904 8.36983C5.29904 8.94248 5.36861 9.42923 5.50774 9.83008C5.65506 10.2309 5.86375 10.5418 6.13383 10.7627C6.40391 10.9754 6.71901 11.0817 7.07911 11.0817ZM9.71853 14.6403C8.84282 14.6403 8.10624 14.4235 7.50879 13.99C6.91134 13.5564 6.47348 13.0083 6.19522 12.3456L8.03667 12.1616C8.13488 12.4152 8.28629 12.6156 8.49089 12.7629C8.6955 12.9183 8.92057 13.0287 9.16609 13.0942C9.41981 13.1596 9.67352 13.1923 9.92723 13.1923C10.0991 13.1923 10.2587 13.1801 10.406 13.1555C10.5615 13.131 10.6965 13.1024 10.8111 13.0696L11.1303 14.3704C10.9912 14.444 10.7989 14.5053 10.5533 14.5544C10.3078 14.6117 10.0295 14.6403 9.71853 14.6403Z" fill="#EAEAEA"/>
<path d="M45.9209 61.4457C46.6411 61.4457 47.2754 61.6135 47.8237 61.9489C48.3639 62.2843 48.7895 62.7628 49.1005 63.3846C49.4033 64.0063 49.5547 64.7548 49.5547 65.6302C49.5547 66.4973 49.4033 67.2377 49.1005 67.8512C48.7895 68.4648 48.3639 68.9311 47.8237 69.2501C47.2754 69.5774 46.6411 69.741 45.9209 69.741C45.2007 69.741 44.5705 69.5774 44.0303 69.2501C43.482 68.9311 43.0564 68.4648 42.7536 67.8512C42.4426 67.2377 42.2871 66.4973 42.2871 65.6302C42.2871 64.7548 42.4426 64.0063 42.7536 63.3846C43.0564 62.7628 43.482 62.2843 44.0303 61.9489C44.5705 61.6135 45.2007 61.4457 45.9209 61.4457ZM45.9209 62.9183C45.5526 62.9183 45.2375 63.0246 44.9756 63.2373C44.7055 63.4582 44.5009 63.7691 44.3618 64.1699C44.2145 64.5708 44.1408 65.0575 44.1408 65.6302C44.1408 66.1619 44.2145 66.6159 44.3618 66.9923C44.5009 67.3767 44.7055 67.6713 44.9756 67.8758C45.2375 68.0803 45.5526 68.1825 45.9209 68.1825C46.281 68.1825 46.5961 68.0803 46.8662 67.8758C47.1362 67.6713 47.3449 67.3767 47.4923 66.9923C47.6314 66.6159 47.701 66.1619 47.701 65.6302C47.701 65.0575 47.6314 64.5708 47.4923 64.1699C47.3449 63.7691 47.1362 63.4582 46.8662 63.2373C46.5961 63.0246 46.281 62.9183 45.9209 62.9183ZM43.2815 59.3597C44.1572 59.3597 44.8938 59.5765 45.4912 60.01C46.0887 60.4436 46.5265 60.9917 46.8048 61.6544L44.9633 61.8384C44.8651 61.5848 44.7137 61.3844 44.5091 61.2371C44.3045 61.0817 44.0794 60.9713 43.8339 60.9058C43.5802 60.8404 43.3265 60.8077 43.0728 60.8077C42.9009 60.8077 42.7413 60.8199 42.594 60.8445C42.4385 60.869 42.3035 60.8976 42.1889 60.9304L41.8697 59.6296C42.0088 59.556 42.2011 59.4947 42.4467 59.4456C42.6922 59.3883 42.9705 59.3597 43.2815 59.3597Z" fill="#EAEAEA"/>
<path d="M38.4252 38.1386C38.4252 31.2397 29.5465 27.7152 26.5445 21.2889L26.5002 21.2L26.4559 21.2889C23.4594 27.7097 14.5752 31.2397 14.5752 38.1386C14.5752 43.9145 22.1799 46.1437 25.8909 41.3128C25.9685 41.0682 25.8854 42.8471 25.6361 43.8478C24.7444 46.8108 21.5485 51.1302 19.9921 52.47C22.1467 50.6132 30.8648 50.6132 33.0193 52.47C31.4629 51.1302 28.4166 46.9609 27.3753 43.8478C27.1593 42.9861 27.0319 42.1133 26.9765 41.2461C30.5878 46.4828 38.4252 44.0312 38.4252 38.1386Z" fill="#EAEAEA"/>
</g>
<defs>
<clipPath id="clip0_3238_57122">
<rect width="53" height="74" fill="white"/>
</clipPath>
</defs>
</svg>
