<svg width="53" height="74" viewBox="0 0 53 74" fill="none" xmlns="http://www.w3.org/2000/svg">
<g clip-path="url(#clip0_3238_57137)">
<rect y="0.0012207" width="53" height="74" rx="2.65" fill="#292929"/>
<path d="M45.7048 56.9654C46.5475 58.6256 48.7446 58.0043 48.7597 56.3703C48.7747 54.5379 46.5124 53.5825 45.765 51.8702L45.7549 51.8493L45.7449 51.8754C44.9624 53.5721 42.68 54.4805 42.6649 56.3129C42.6448 57.9417 44.8269 58.6047 45.7048 56.9654Z" fill="#E04749"/>
<path d="M7.29523 16.7067C6.45249 15.0466 4.25536 15.6678 4.24031 17.3018C4.22526 19.1342 6.48761 20.0896 7.23503 21.8019L7.24506 21.8228L7.2551 21.7967C8.03764 20.1 10.32 19.1916 10.3351 17.3592C10.3552 15.7304 8.17308 15.0674 7.29523 16.7067Z" fill="#E04749"/>
<path d="M7.07911 12.5543C6.3589 12.5543 5.72462 12.3865 5.17628 12.0511C4.63612 11.7157 4.21054 11.2372 3.89954 10.6154C3.59672 9.9937 3.44531 9.24516 3.44531 8.36983C3.44531 7.50268 3.59672 6.76232 3.89954 6.14877C4.21054 5.53522 4.63612 5.06892 5.17628 4.74987C5.72462 4.42265 6.3589 4.25903 7.07911 4.25903C7.79933 4.25903 8.42951 4.42265 8.96967 4.74987C9.51802 5.06892 9.9436 5.53522 10.2464 6.14877C10.5574 6.76232 10.7129 7.50268 10.7129 8.36983C10.7129 9.24516 10.5574 9.9937 10.2464 10.6154C9.9436 11.2372 9.51802 11.7157 8.96967 12.0511C8.42951 12.3865 7.79933 12.5543 7.07911 12.5543ZM7.07911 11.0817C7.4474 11.0817 7.7625 10.9754 8.02439 10.7627C8.29447 10.5418 8.49908 10.2309 8.63821 9.83008C8.78553 9.42923 8.85919 8.94248 8.85919 8.36983C8.85919 7.83809 8.78553 7.38406 8.63821 7.00775C8.49908 6.62325 8.29447 6.32875 8.02439 6.12423C7.7625 5.91971 7.4474 5.81746 7.07911 5.81746C6.71901 5.81746 6.40391 5.91971 6.13383 6.12423C5.86375 6.32875 5.65506 6.62325 5.50774 7.00775C5.36861 7.38406 5.29904 7.83809 5.29904 8.36983C5.29904 8.94248 5.36861 9.42923 5.50774 9.83008C5.65506 10.2309 5.86375 10.5418 6.13383 10.7627C6.40391 10.9754 6.71901 11.0817 7.07911 11.0817ZM9.71853 14.6403C8.84282 14.6403 8.10624 14.4235 7.50879 13.99C6.91134 13.5564 6.47348 13.0083 6.19522 12.3456L8.03667 12.1616C8.13488 12.4152 8.28629 12.6156 8.49089 12.7629C8.6955 12.9183 8.92057 13.0287 9.16609 13.0942C9.41981 13.1596 9.67352 13.1923 9.92723 13.1923C10.0991 13.1923 10.2587 13.1801 10.406 13.1555C10.5615 13.131 10.6965 13.1024 10.8111 13.0696L11.1303 14.3704C10.9912 14.444 10.7989 14.5053 10.5533 14.5544C10.3078 14.6117 10.0295 14.6403 9.71853 14.6403Z" fill="#E04749"/>
<path d="M45.9209 61.4457C46.6411 61.4457 47.2754 61.6135 47.8237 61.9489C48.3639 62.2843 48.7895 62.7628 49.1005 63.3846C49.4033 64.0063 49.5547 64.7548 49.5547 65.6302C49.5547 66.4973 49.4033 67.2377 49.1005 67.8512C48.7895 68.4648 48.3639 68.9311 47.8237 69.2501C47.2754 69.5774 46.6411 69.741 45.9209 69.741C45.2007 69.741 44.5705 69.5774 44.0303 69.2501C43.482 68.9311 43.0564 68.4648 42.7536 67.8512C42.4426 67.2377 42.2871 66.4973 42.2871 65.6302C42.2871 64.7548 42.4426 64.0063 42.7536 63.3846C43.0564 62.7628 43.482 62.2843 44.0303 61.9489C44.5705 61.6135 45.2007 61.4457 45.9209 61.4457ZM45.9209 62.9183C45.5526 62.9183 45.2375 63.0246 44.9756 63.2373C44.7055 63.4582 44.5009 63.7691 44.3618 64.1699C44.2145 64.5708 44.1408 65.0575 44.1408 65.6302C44.1408 66.1619 44.2145 66.6159 44.3618 66.9923C44.5009 67.3767 44.7055 67.6713 44.9756 67.8758C45.2375 68.0803 45.5526 68.1825 45.9209 68.1825C46.281 68.1825 46.5961 68.0803 46.8662 67.8758C47.1362 67.6713 47.3449 67.3767 47.4923 66.9923C47.6314 66.6159 47.701 66.1619 47.701 65.6302C47.701 65.0575 47.6314 64.5708 47.4923 64.1699C47.3449 63.7691 47.1362 63.4582 46.8662 63.2373C46.5961 63.0246 46.281 62.9183 45.9209 62.9183ZM43.2815 59.3597C44.1572 59.3597 44.8938 59.5765 45.4912 60.01C46.0887 60.4436 46.5265 60.9917 46.8048 61.6544L44.9633 61.8384C44.8651 61.5848 44.7137 61.3844 44.5091 61.2371C44.3045 61.0817 44.0794 60.9713 43.8339 60.9058C43.5802 60.8404 43.3265 60.8077 43.0728 60.8077C42.9009 60.8077 42.7413 60.8199 42.594 60.8445C42.4385 60.869 42.3035 60.8976 42.1889 60.9304L41.8697 59.6296C42.0088 59.556 42.2011 59.4947 42.4467 59.4456C42.6922 59.3883 42.9705 59.3597 43.2815 59.3597Z" fill="#E04749"/>
<path d="M26.503 27.9904C22.7671 20.4541 13.25 23.3749 13.25 30.8453C13.25 39.219 23.1161 42.1794 26.4489 49.9729L26.503 50.085L26.5511 49.9729C29.8839 42.1794 39.75 39.219 39.75 30.8453C39.756 23.3683 30.2389 20.4541 26.503 27.9904Z" fill="#E04749"/>
</g>
<defs>
<clipPath id="clip0_3238_57137">
<rect width="53" height="74" fill="white"/>
</clipPath>
</defs>
</svg>
