<svg width="54" height="74" viewBox="0 0 54 74" fill="none" xmlns="http://www.w3.org/2000/svg">
<g clip-path="url(#clip0_3238_57146)">
<rect x="0.25" y="0.0012207" width="53" height="74" rx="2.65" fill="#292929"/>
<path fill-rule="evenodd" clip-rule="evenodd" d="M44.0833 55.9696C44.5537 55.9748 44.966 55.7087 45.1616 55.3173C45.3149 55.1399 45.5474 55.0668 45.7853 55.0199C45.7271 55.3016 45.6584 55.6147 45.4311 55.7974C45.0294 55.98 44.7493 56.3818 44.7387 56.8462C44.7281 57.4933 45.2567 58.0255 45.9121 58.036C46.5676 58.0464 47.1067 57.5246 47.1173 56.8775C47.1226 56.4131 46.853 56.0061 46.4566 55.813C46.2663 55.6721 46.1817 55.3277 46.1289 55.0303C46.3614 55.0825 46.594 55.166 46.742 55.3434C46.927 55.74 47.334 56.0218 47.8045 56.027C48.4599 56.0374 48.999 55.5156 49.0096 54.8685C49.0202 54.2215 48.4916 53.6892 47.8362 53.6788C47.3657 53.6736 46.9059 53.9814 46.7103 54.378C46.5412 54.5554 46.3297 54.5972 46.0866 54.6389C46.0654 54.305 46.0866 53.9449 46.1394 53.7362C46.3879 53.0578 47.0063 52.249 47.3393 51.9776C46.8953 52.3481 45.1034 52.3221 44.67 51.9411C44.9924 52.2229 45.632 53.0891 45.817 53.731C45.8751 53.9867 45.8593 54.4667 45.854 54.6337C45.6056 54.5867 45.3889 54.5398 45.225 54.3519C45.04 53.9554 44.5907 53.6318 44.1203 53.6266C43.4648 53.6162 42.9257 54.138 42.9151 54.785C42.8993 55.4269 43.4278 55.9591 44.0833 55.9696Z" fill="#EAEAEA"/>
<path fill-rule="evenodd" clip-rule="evenodd" d="M9.41673 17.7025C8.9463 17.6973 8.53401 17.9634 8.33843 18.3548C8.18514 18.5322 7.95257 18.6053 7.71471 18.6523C7.77285 18.3705 7.84157 18.0574 8.06886 17.8747C8.47058 17.6921 8.75072 17.2903 8.76129 16.8259C8.77186 16.1788 8.24329 15.6466 7.58785 15.6361C6.93242 15.6257 6.39327 16.1475 6.38269 16.7946C6.37741 17.259 6.64698 17.666 7.04342 17.8591C7.2337 18 7.31828 18.3444 7.37113 18.6418C7.13856 18.5896 6.90598 18.5061 6.75798 18.3287C6.57298 17.9321 6.16598 17.6504 5.69555 17.6451C5.04011 17.6347 4.50096 18.1565 4.49039 18.8036C4.47982 19.4506 5.00839 19.9829 5.66383 19.9933C6.13426 19.9986 6.59413 19.6907 6.7897 19.2941C6.95885 19.1167 7.17028 19.0749 7.41342 19.0332C7.43457 19.3672 7.41342 19.7272 7.36057 19.9359C7.11213 20.6143 6.4937 21.4231 6.16069 21.6945C6.6047 21.324 8.39658 21.3501 8.83001 21.731C8.50758 21.4492 7.868 20.583 7.68299 19.9411C7.62485 19.6855 7.64071 19.2054 7.64599 19.0384C7.89442 19.0854 8.11114 19.1323 8.275 19.3202C8.46 19.7168 8.9093 20.0403 9.37973 20.0455C10.0352 20.056 10.5743 19.5341 10.5849 18.8871C10.6007 18.2452 10.0722 17.713 9.41673 17.7025Z" fill="#EAEAEA"/>
<path d="M7.32911 12.5543C6.6089 12.5543 5.97462 12.3865 5.42628 12.0511C4.88612 11.7157 4.46054 11.2372 4.14954 10.6154C3.84672 9.9937 3.69531 9.24516 3.69531 8.36983C3.69531 7.50268 3.84672 6.76232 4.14954 6.14877C4.46054 5.53522 4.88612 5.06892 5.42628 4.74987C5.97462 4.42265 6.6089 4.25903 7.32911 4.25903C8.04933 4.25903 8.67951 4.42265 9.21967 4.74987C9.76802 5.06892 10.1936 5.53522 10.4964 6.14877C10.8074 6.76232 10.9629 7.50268 10.9629 8.36983C10.9629 9.24516 10.8074 9.9937 10.4964 10.6154C10.1936 11.2372 9.76802 11.7157 9.21967 12.0511C8.67951 12.3865 8.04933 12.5543 7.32911 12.5543ZM7.32911 11.0817C7.6974 11.0817 8.0125 10.9754 8.27439 10.7627C8.54447 10.5418 8.74908 10.2309 8.88821 9.83008C9.03553 9.42923 9.10919 8.94248 9.10919 8.36983C9.10919 7.83809 9.03553 7.38406 8.88821 7.00775C8.74908 6.62325 8.54447 6.32875 8.27439 6.12423C8.0125 5.91971 7.6974 5.81746 7.32911 5.81746C6.96901 5.81746 6.65391 5.91971 6.38383 6.12423C6.11375 6.32875 5.90506 6.62325 5.75774 7.00775C5.61861 7.38406 5.54904 7.83809 5.54904 8.36983C5.54904 8.94248 5.61861 9.42923 5.75774 9.83008C5.90506 10.2309 6.11375 10.5418 6.38383 10.7627C6.65391 10.9754 6.96901 11.0817 7.32911 11.0817ZM9.96853 14.6403C9.09282 14.6403 8.35624 14.4235 7.75879 13.99C7.16134 13.5564 6.72348 13.0083 6.44522 12.3456L8.28667 12.1616C8.38488 12.4152 8.53629 12.6156 8.74089 12.7629C8.9455 12.9183 9.17057 13.0287 9.41609 13.0942C9.66981 13.1596 9.92352 13.1923 10.1772 13.1923C10.3491 13.1923 10.5087 13.1801 10.656 13.1555C10.8115 13.131 10.9465 13.1024 11.0611 13.0696L11.3803 14.3704C11.2412 14.444 11.0489 14.5053 10.8033 14.5544C10.5578 14.6117 10.2795 14.6403 9.96853 14.6403Z" fill="#EAEAEA"/>
<path d="M46.1709 61.4457C46.8911 61.4457 47.5254 61.6135 48.0737 61.9489C48.6139 62.2843 49.0395 62.7628 49.3505 63.3846C49.6533 64.0063 49.8047 64.7548 49.8047 65.6302C49.8047 66.4973 49.6533 67.2377 49.3505 67.8512C49.0395 68.4648 48.6139 68.9311 48.0737 69.2501C47.5254 69.5774 46.8911 69.741 46.1709 69.741C45.4507 69.741 44.8205 69.5774 44.2803 69.2501C43.732 68.9311 43.3064 68.4648 43.0036 67.8512C42.6926 67.2377 42.5371 66.4973 42.5371 65.6302C42.5371 64.7548 42.6926 64.0063 43.0036 63.3846C43.3064 62.7628 43.732 62.2843 44.2803 61.9489C44.8205 61.6135 45.4507 61.4457 46.1709 61.4457ZM46.1709 62.9183C45.8026 62.9183 45.4875 63.0246 45.2256 63.2373C44.9555 63.4582 44.7509 63.7691 44.6118 64.1699C44.4645 64.5708 44.3908 65.0575 44.3908 65.6302C44.3908 66.1619 44.4645 66.6159 44.6118 66.9923C44.7509 67.3767 44.9555 67.6713 45.2256 67.8758C45.4875 68.0803 45.8026 68.1825 46.1709 68.1825C46.531 68.1825 46.8461 68.0803 47.1162 67.8758C47.3862 67.6713 47.5949 67.3767 47.7423 66.9923C47.8814 66.6159 47.951 66.1619 47.951 65.6302C47.951 65.0575 47.8814 64.5708 47.7423 64.1699C47.5949 63.7691 47.3862 63.4582 47.1162 63.2373C46.8461 63.0246 46.531 62.9183 46.1709 62.9183ZM43.5315 59.3597C44.4072 59.3597 45.1438 59.5765 45.7412 60.01C46.3387 60.4436 46.7765 60.9917 47.0548 61.6544L45.2133 61.8384C45.1151 61.5848 44.9637 61.3844 44.7591 61.2371C44.5545 61.0817 44.3294 60.9713 44.0839 60.9058C43.8302 60.8404 43.5765 60.8077 43.3228 60.8077C43.1509 60.8077 42.9913 60.8199 42.844 60.8445C42.6885 60.869 42.5535 60.8976 42.4389 60.9304L42.1197 59.6296C42.2588 59.556 42.4511 59.4947 42.6967 59.4456C42.9422 59.3883 43.2205 59.3597 43.5315 59.3597Z" fill="#EAEAEA"/>
<path fill-rule="evenodd" clip-rule="evenodd" d="M34.8256 32.4717C32.771 32.4717 31.0018 33.6638 30.1695 35.3837C29.5179 36.1564 28.5049 36.491 27.4824 36.7124C27.7154 35.4732 28.0008 34.1162 28.971 33.3151C30.7069 32.4905 31.9102 30.7377 31.9102 28.7021C31.9102 25.875 29.5988 23.585 26.7452 23.585C23.8917 23.585 21.5803 25.875 21.5803 28.7021C21.5803 30.7377 22.7836 32.4905 24.5195 33.3151C25.3613 33.923 25.737 35.4214 25.9986 36.7124C24.9808 36.491 23.9678 36.1564 23.321 35.3884C22.4887 33.6685 20.7195 32.4764 18.6649 32.4764C15.8114 32.4764 13.5 34.7664 13.5 37.5936C13.5 40.4207 15.8114 42.7108 18.6649 42.7108C20.7195 42.7108 22.6789 41.3302 23.5112 39.6103C24.2294 38.8187 25.152 38.6302 26.2173 38.4323C26.322 39.8789 26.2649 41.448 26.0461 42.3621C24.9998 45.3353 22.3603 48.8834 20.9525 50.085C22.8692 48.4546 30.6356 48.4546 32.5522 50.085C31.1397 48.8834 28.3147 45.1421 27.4586 42.3621C27.1875 41.2453 27.2208 39.1627 27.2399 38.4276C28.3242 38.6302 29.2611 38.814 29.9888 39.6103C30.8211 41.3302 32.7805 42.7108 34.8351 42.7108C37.6886 42.7108 40 40.4207 40 37.5936C39.9905 34.7617 37.6791 32.4717 34.8256 32.4717Z" fill="#EAEAEA"/>
</g>
<defs>
<clipPath id="clip0_3238_57146">
<rect width="53" height="74" fill="white" transform="translate(0.25)"/>
</clipPath>
</defs>
</svg>
