<svg width="53" height="74" viewBox="0 0 53 74" fill="none" xmlns="http://www.w3.org/2000/svg">
<g clip-path="url(#clip0_3238_57195)">
<rect y="0.0012207" width="53" height="74" rx="2.65" fill="#292929"/>
<path d="M44.1149 56.9654C44.9577 58.6256 47.1548 58.0043 47.1698 56.3703C47.1849 54.5379 44.9226 53.5825 44.1751 51.8702L44.1651 51.8493L44.1551 51.8754C43.3725 53.5721 41.0901 54.4805 41.0751 56.3129C41.055 57.9417 43.2371 58.6047 44.1149 56.9654Z" fill="#E04749"/>
<path d="M8.88507 16.7067C8.04234 15.0466 5.8452 15.6678 5.83015 17.3018C5.8151 19.1342 8.07745 20.0896 8.82488 21.8019L8.83491 21.8228L8.84494 21.7967C9.62748 20.1 11.9099 19.1916 11.9249 17.3592C11.945 15.7304 9.76292 15.0674 8.88507 16.7067Z" fill="#E04749"/>
<path d="M3.17969 12.3615V10.8715H4.89509V6.276H3.41587V5.13653C3.84679 5.05305 4.21141 4.95288 4.50974 4.83601C4.81636 4.71914 5.10641 4.57723 5.37988 4.41027H6.72236V10.8715H8.20159V12.3615H3.17969Z" fill="#E04749"/>
<path d="M11.753 12.5118C10.9077 12.5118 10.224 12.157 9.70195 11.4475C9.18816 10.7379 8.93127 9.70695 8.93127 8.3546C8.93127 6.99391 9.18816 5.97131 9.70195 5.28679C10.224 4.60227 10.9077 4.26001 11.753 4.26001C12.5982 4.26001 13.2778 4.60644 13.7916 5.29931C14.3136 5.98383 14.5747 7.00226 14.5747 8.3546C14.5747 9.70695 14.3136 10.7379 13.7916 11.4475C13.2778 12.157 12.5982 12.5118 11.753 12.5118ZM11.753 11.0843C11.9602 11.0843 12.1466 11.0092 12.3123 10.8589C12.4781 10.7003 12.6065 10.4249 12.6977 10.0325C12.7971 9.63182 12.8469 9.07252 12.8469 8.3546C12.8469 7.62835 12.7971 7.07322 12.6977 6.68922C12.6065 6.30522 12.4781 6.04226 12.3123 5.90035C12.1466 5.75844 11.9602 5.68748 11.753 5.68748C11.5458 5.68748 11.3593 5.75844 11.1936 5.90035C11.0279 6.04226 10.8953 6.30522 10.7958 6.68922C10.7047 7.07322 10.6591 7.62835 10.6591 8.3546C10.6591 9.07252 10.7047 9.63182 10.7958 10.0325C10.8953 10.4249 11.0279 10.7003 11.1936 10.8589C11.3593 11.0092 11.5458 11.0843 11.753 11.0843Z" fill="#E04749"/>
<path d="M49.8203 61.6406L49.8203 63.1307L48.1049 63.1307L48.1049 67.7262L49.5841 67.7262L49.5841 68.8657C49.1532 68.9491 48.7886 69.0493 48.4903 69.1662C48.1836 69.2831 47.8936 69.425 47.6201 69.5919L46.2776 69.5919L46.2776 63.1307L44.7984 63.1307L44.7984 61.6406L49.8203 61.6406Z" fill="#E04749"/>
<path d="M41.247 61.4904C42.0923 61.4904 42.776 61.8452 43.298 62.5547C43.8118 63.2643 44.0687 64.2952 44.0687 65.6476C44.0687 67.0083 43.8118 68.0309 43.298 68.7154C42.776 69.3999 42.0923 69.7422 41.247 69.7422C40.4018 69.7422 39.7222 69.3958 39.2084 68.7029C38.6864 68.0184 38.4253 66.9999 38.4253 65.6476C38.4253 64.2952 38.6864 63.2643 39.2084 62.5547C39.7222 61.8452 40.4018 61.4904 41.247 61.4904ZM41.247 62.9179C41.0398 62.9179 40.8534 62.993 40.6877 63.1433C40.5219 63.3019 40.3935 63.5773 40.3023 63.9697C40.2029 64.3704 40.1531 64.9297 40.1531 65.6476C40.1531 66.3739 40.2029 66.929 40.3023 67.313C40.3935 67.697 40.5219 67.9599 40.6877 68.1018C40.8534 68.2438 41.0398 68.3147 41.247 68.3147C41.4542 68.3147 41.6407 68.2438 41.8064 68.1018C41.9721 67.9599 42.1047 67.697 42.2042 67.313C42.2953 66.929 42.3409 66.3739 42.3409 65.6476C42.3409 64.9297 42.2953 64.3704 42.2042 63.9697C42.1047 63.5773 41.9721 63.3019 41.8064 63.1433C41.6407 62.993 41.4542 62.9179 41.247 62.9179Z" fill="#E04749"/>
<path d="M20.139 20.5805C20.9609 18.9225 23.0547 19.5651 23.0547 21.2086C23.0547 23.0508 20.8842 23.7021 20.1509 25.4167L20.139 25.4413L20.1284 25.4167C19.3952 23.7021 17.2247 23.0508 17.2247 21.2086C17.2234 19.5637 19.3171 18.9225 20.139 20.5805Z" fill="#E14749"/>
<path d="M32.8597 20.5805C33.6816 18.9225 35.7754 19.5651 35.7754 21.2086C35.7754 23.0508 33.6049 23.7021 32.8716 25.4167L32.8597 25.4413L32.8491 25.4167C32.1159 23.7021 29.9454 23.0508 29.9454 21.2086C29.9441 19.5637 32.0378 18.9225 32.8597 20.5805Z" fill="#E14749"/>
<path d="M32.8597 30.6503C33.6816 28.9924 35.7754 29.6349 35.7754 31.2784C35.7754 33.1206 33.6049 33.7719 32.8716 35.4865L32.8597 35.5112L32.8491 35.4865C32.1159 33.7719 29.9454 33.1206 29.9454 31.2784C29.9441 29.6335 32.0378 28.9924 32.8597 30.6503Z" fill="#E14749"/>
<path d="M20.1403 43.022C19.3184 44.68 17.2246 44.0374 17.2246 42.3939C17.2246 40.5517 19.3951 39.9004 20.1284 38.1859L20.1403 38.1612L20.1509 38.1859C20.8841 39.9004 23.0546 40.5517 23.0546 42.3939C23.0559 44.0389 20.9622 44.68 20.1403 43.022Z" fill="#E14749"/>
<path d="M26.4994 25.6154C27.3213 23.9574 29.415 24.6 29.415 26.2435C29.415 28.0857 27.2445 28.737 26.5113 30.4516L26.4994 30.4762L26.4888 30.4516C25.7556 28.737 23.585 28.0857 23.585 26.2435C23.5837 24.5986 25.6775 23.9574 26.4994 25.6154Z" fill="#E14749"/>
<path d="M26.5006 48.0569C25.6787 49.7149 23.585 49.0723 23.585 47.4288C23.585 45.5866 25.7555 44.9353 26.4887 43.2208L26.5006 43.1961L26.5112 43.2208C27.2444 44.9353 29.415 45.5866 29.415 47.4288C29.4163 49.0738 27.3225 49.7149 26.5006 48.0569Z" fill="#E14749"/>
<path d="M20.139 30.6503C20.9609 28.9924 23.0547 29.6349 23.0547 31.2784C23.0547 33.1206 20.8842 33.7719 20.1509 35.4865L20.139 35.5112L20.1284 35.4865C19.3952 33.7719 17.2247 33.1206 17.2247 31.2784C17.2234 29.6335 19.3171 28.9924 20.139 30.6503Z" fill="#E14749"/>
<path d="M32.861 43.022C32.0391 44.68 29.9453 44.0374 29.9453 42.3939C29.9453 40.5517 32.1158 39.9004 32.8491 38.1859L32.861 38.1612L32.8716 38.1859C33.6048 39.9004 35.7753 40.5517 35.7753 42.3939C35.7766 44.0389 33.6829 44.68 32.861 43.022Z" fill="#E14749"/>
<path d="M32.861 53.0921C32.0391 54.7501 29.9453 54.1075 29.9453 52.464C29.9453 50.6218 32.1158 49.9705 32.8491 48.2559L32.861 48.2313L32.8716 48.2559C33.6048 49.9705 35.7753 50.6218 35.7753 52.464C35.7766 54.1089 33.6829 54.7501 32.861 53.0921Z" fill="#E14749"/>
<path d="M20.1403 53.0921C19.3184 54.7501 17.2246 54.1075 17.2246 52.464C17.2246 50.6218 19.3951 49.9705 20.1284 48.2559L20.1403 48.2313L20.1509 48.2559C20.8841 49.9705 23.0546 50.6218 23.0546 52.464C23.0559 54.1089 20.9622 54.7501 20.1403 53.0921Z" fill="#E14749"/>
</g>
<defs>
<clipPath id="clip0_3238_57195">
<rect width="53" height="74" fill="white"/>
</clipPath>
</defs>
</svg>
