<svg width="53" height="74" viewBox="0 0 53 74" fill="none" xmlns="http://www.w3.org/2000/svg">
<g clip-path="url(#clip0_3238_57229)">
<rect y="0.0012207" width="53" height="74" rx="2.65" fill="#292929"/>
<path d="M42.6648 54.6635C42.6648 56.3614 44.934 57.2267 45.7001 58.8077L45.7098 58.8311L45.7195 58.8077C46.4857 57.2267 48.7598 56.3614 48.7598 54.6682C48.7598 53.2462 46.8154 52.699 45.865 53.887C45.8456 53.9478 45.865 53.5082 45.928 53.2649C46.1559 52.5352 46.9754 51.4735 47.373 51.1461C46.8202 51.6044 44.5898 51.5998 44.0418 51.1461C44.4394 51.4782 45.2201 52.4978 45.4868 53.2649C45.5401 53.4754 45.5741 53.6906 45.5886 53.9057C44.6673 52.6148 42.6648 53.2135 42.6648 54.6635Z" fill="#EAEAEA"/>
<path d="M10.3352 19.0086C10.3352 17.3107 8.06597 16.4454 7.29985 14.8645L7.29015 14.8411L7.28045 14.8645C6.51434 16.4454 4.24023 17.3107 4.24023 19.004C4.24023 20.4259 6.18462 20.9732 7.13499 19.7851C7.15439 19.7243 7.13499 20.164 7.07196 20.4072C6.84406 21.1369 6.02461 22.1986 5.627 22.5261C6.17977 22.0677 8.41025 22.0724 8.95816 22.5261C8.56056 22.194 7.77989 21.1743 7.5132 20.4072C7.45987 20.1967 7.42592 19.9815 7.41137 19.7664C8.33265 21.0574 10.3352 20.4586 10.3352 19.0086Z" fill="#EAEAEA"/>
<path d="M4.24023 12.5121V4.26025H6.10548V7.63944H6.15624L8.61786 4.26025H10.6734L8.17375 7.55085L11.1302 12.5121H9.08734L7.06983 9.03162L6.10548 10.2972V12.5121H4.24023Z" fill="#EAEAEA"/>
<path d="M48.7598 61.4904V69.7422H46.8945V66.363H46.8438L44.3821 69.7422H42.3266L44.8262 66.4516L41.8698 61.4904H43.9127L45.9302 64.9708L46.8945 63.7052V61.4904H48.7598Z" fill="#EAEAEA"/>
<path d="M38.4252 38.1386C38.4252 31.2397 29.5465 27.7152 26.5445 21.2889L26.5002 21.2L26.4559 21.2889C23.4594 27.7097 14.5752 31.2397 14.5752 38.1386C14.5752 43.9145 22.1799 46.1437 25.8909 41.3128C25.9685 41.0682 25.8854 42.8471 25.6361 43.8478C24.7444 46.8108 21.5485 51.1302 19.9921 52.47C22.1467 50.6132 30.8648 50.6132 33.0193 52.47C31.4629 51.1302 28.4166 46.9609 27.3753 43.8478C27.1593 42.9861 27.0319 42.1133 26.9765 41.2461C30.5878 46.4828 38.4252 44.0312 38.4252 38.1386Z" fill="#EAEAEA"/>
</g>
<defs>
<clipPath id="clip0_3238_57229">
<rect width="53" height="74" fill="white"/>
</clipPath>
</defs>
</svg>
