<svg width="54" height="74" viewBox="0 0 54 74" fill="none" xmlns="http://www.w3.org/2000/svg">
<g clip-path="url(#clip0_3238_57248)">
<rect x="0.518555" y="0.0012207" width="53" height="74" rx="2.65" fill="#292929"/>
<path fill-rule="evenodd" clip-rule="evenodd" d="M44.3518 55.9696C44.8223 55.9748 45.2345 55.7087 45.4301 55.3173C45.5834 55.1399 45.816 55.0668 46.0538 55.0199C45.9957 55.3016 45.927 55.6147 45.6997 55.7974C45.298 55.98 45.0178 56.3818 45.0073 56.8462C44.9967 57.4933 45.5253 58.0255 46.1807 58.036C46.8361 58.0464 47.3753 57.5246 47.3859 56.8775C47.3911 56.4131 47.1216 56.0061 46.7251 55.813C46.5349 55.6721 46.4503 55.3277 46.3974 55.0303C46.63 55.0825 46.8626 55.166 47.0106 55.3434C47.1956 55.74 47.6026 56.0218 48.073 56.027C48.7284 56.0374 49.2676 55.5156 49.2782 54.8685C49.2887 54.2215 48.7602 53.6892 48.1047 53.6788C47.6343 53.6736 47.1744 53.9814 46.9789 54.378C46.8097 54.5554 46.5983 54.5972 46.3551 54.6389C46.334 54.305 46.3551 53.9449 46.408 53.7362C46.6564 53.0578 47.2749 52.249 47.6079 51.9776C47.1639 52.3481 45.372 52.3221 44.9385 51.9411C45.261 52.2229 45.9006 53.0891 46.0856 53.731C46.1437 53.9867 46.1278 54.4667 46.1226 54.6337C45.8741 54.5867 45.6574 54.5398 45.4936 54.3519C45.3086 53.9554 44.8593 53.6318 44.3888 53.6266C43.7334 53.6162 43.1942 54.138 43.1837 54.785C43.1678 55.4269 43.6964 55.9591 44.3518 55.9696Z" fill="#EAEAEA"/>
<path fill-rule="evenodd" clip-rule="evenodd" d="M9.68529 17.7025C9.21485 17.6973 8.80256 17.9634 8.60699 18.3548C8.4537 18.5322 8.22113 18.6053 7.98327 18.6523C8.04141 18.3705 8.11012 18.0574 8.33741 17.8747C8.73913 17.6921 9.01928 17.2903 9.02985 16.8259C9.04042 16.1788 8.51184 15.6466 7.85641 15.6361C7.20097 15.6257 6.66182 16.1475 6.65125 16.7946C6.64596 17.259 6.91554 17.666 7.31197 17.8591C7.50226 18 7.58683 18.3444 7.63969 18.6418C7.40712 18.5896 7.17454 18.5061 7.02654 18.3287C6.84154 17.9321 6.43453 17.6504 5.9641 17.6451C5.30866 17.6347 4.76952 18.1565 4.75894 18.8036C4.74837 19.4506 5.27695 19.9829 5.93238 19.9933C6.40282 19.9986 6.86268 19.6907 7.05826 19.2941C7.2274 19.1167 7.43883 19.0749 7.68198 19.0332C7.70312 19.3672 7.68198 19.7272 7.62912 19.9359C7.38069 20.6143 6.76225 21.4231 6.42925 21.6945C6.87325 21.324 8.66513 21.3501 9.09856 21.731C8.77613 21.4492 8.13655 20.583 7.95155 19.9411C7.8934 19.6855 7.90926 19.2054 7.91455 19.0384C8.16298 19.0854 8.3797 19.1323 8.54356 19.3202C8.72856 19.7168 9.17785 20.0403 9.64828 20.0455C10.3037 20.056 10.8429 19.5341 10.8534 18.8871C10.8693 18.2452 10.3407 17.713 9.68529 17.7025Z" fill="#EAEAEA"/>
<path d="M4.75879 12.5121V4.26025H6.62404V7.63944H6.67479L9.13641 4.26025H11.192L8.69231 7.55085L11.6488 12.5121H9.6059L7.58838 9.03162L6.62404 10.2972V12.5121H4.75879Z" fill="#EAEAEA"/>
<path d="M49.2783 61.4904V69.7422H47.4131V66.363H47.3623L44.9007 69.7422H42.8451L45.3448 66.4516L42.3883 61.4904H44.4312L46.4487 64.9708L47.4131 63.7052V61.4904H49.2783Z" fill="#EAEAEA"/>
<path fill-rule="evenodd" clip-rule="evenodd" d="M35.0941 32.4717C33.0396 32.4717 31.2703 33.6638 30.4381 35.3837C29.7865 36.1564 28.7735 36.491 27.751 36.7124C27.984 35.4732 28.2694 34.1162 29.2396 33.3151C30.9755 32.4905 32.1787 30.7377 32.1787 28.7021C32.1787 25.875 29.8673 23.585 27.0138 23.585C24.1602 23.585 21.8489 25.875 21.8489 28.7021C21.8489 30.7377 23.0521 32.4905 24.788 33.3151C25.6298 33.923 26.0055 35.4214 26.2671 36.7124C25.2494 36.491 24.2363 36.1564 23.5895 35.3884C22.7572 33.6685 20.988 32.4764 18.9335 32.4764C16.0799 32.4764 13.7686 34.7664 13.7686 37.5936C13.7686 40.4207 16.0799 42.7108 18.9335 42.7108C20.988 42.7108 22.9475 41.3302 23.7798 39.6103C24.4979 38.8187 25.4206 38.6302 26.4859 38.4323C26.5905 39.8789 26.5335 41.448 26.3147 42.3621C25.2684 45.3353 22.6288 48.8834 21.2211 50.085C23.1377 48.4546 30.9041 48.4546 32.8208 50.085C31.4083 48.8834 28.5832 45.1421 27.7272 42.3621C27.4561 41.2453 27.4894 39.1627 27.5084 38.4276C28.5928 38.6302 29.5297 38.814 30.2573 39.6103C31.0896 41.3302 33.0491 42.7108 35.1036 42.7108C37.9572 42.7108 40.2686 40.4207 40.2686 37.5936C40.259 34.7617 37.9477 32.4717 35.0941 32.4717Z" fill="#EAEAEA"/>
</g>
<defs>
<clipPath id="clip0_3238_57248">
<rect width="53" height="74" fill="white" transform="translate(0.518555)"/>
</clipPath>
</defs>
</svg>
