<svg width="54" height="74" viewBox="0 0 54 74" fill="none" xmlns="http://www.w3.org/2000/svg">
<g clip-path="url(#clip0_3238_57258)">
<rect x="0.777344" y="0.0012207" width="53" height="74" rx="2.65" fill="#292929"/>
<path fill-rule="evenodd" clip-rule="evenodd" d="M43.4421 55.0275C43.9953 55.0226 46.4605 52.4943 46.4508 51.9411C46.4556 52.4943 48.9839 54.9595 49.5371 54.9498C48.9839 54.9547 46.5187 57.4829 46.5284 58.0361C46.5236 57.4829 43.9953 55.0226 43.4421 55.0275Z" fill="#E04749"/>
<path fill-rule="evenodd" clip-rule="evenodd" d="M11.1126 18.6447C10.5594 18.6495 8.0942 21.1778 8.10391 21.731C8.09906 21.1778 5.57079 18.7126 5.01758 18.7223C5.57079 18.7174 8.03597 16.1892 8.02626 15.636C8.03112 16.1892 10.5594 18.6495 11.1126 18.6447Z" fill="#E04749"/>
<path d="M5.01758 12.5121V4.26025H6.88283V7.63944H6.93358L9.3952 4.26025H11.4508L8.9511 7.55085L11.9076 12.5121H9.86469L7.84717 9.03162L6.88283 10.2972V12.5121H5.01758Z" fill="#E04749"/>
<path d="M49.5371 61.4904V69.7422H47.6719V66.363H47.6211L45.1595 69.7422H43.1039L45.6036 66.4516L42.6471 61.4904H44.69L46.7075 64.9708L47.6719 63.7052V61.4904H49.5371Z" fill="#E04749"/>
<path fill-rule="evenodd" clip-rule="evenodd" d="M40.5273 36.6661C38.1221 36.6872 27.404 47.6797 27.4462 50.085C27.4251 47.6797 16.4326 36.9615 14.0273 37.0037C16.4326 36.9826 27.1508 25.9902 27.1086 23.585C27.1297 25.9902 38.1221 36.6872 40.5273 36.6661Z" fill="#E04749"/>
</g>
<defs>
<clipPath id="clip0_3238_57258">
<rect width="53" height="74" fill="white" transform="translate(0.777344)"/>
</clipPath>
</defs>
</svg>
