<svg width="53" height="74" viewBox="0 0 53 74" fill="none" xmlns="http://www.w3.org/2000/svg">
<g clip-path="url(#clip0_3238_57268)">
<rect x="0.0371094" y="0.0012207" width="53" height="74" rx="2.64815" fill="#1E1E1E"/>
<path d="M4.32609 12.5123V11.3517C5.01503 10.748 5.62648 10.1826 6.16041 9.65541C6.70296 9.12825 7.12494 8.63935 7.42636 8.18871C7.73639 7.73807 7.8914 7.3257 7.8914 6.95158C7.8914 6.55196 7.78806 6.25011 7.58137 6.04605C7.37469 5.83348 7.0905 5.7272 6.7288 5.7272C6.43599 5.7272 6.16903 5.81223 5.92789 5.98228C5.69537 6.14383 5.47577 6.33514 5.26909 6.55621L4.27441 5.58691C4.67056 5.14477 5.07532 4.81317 5.48869 4.5921C5.91067 4.37103 6.41016 4.2605 6.98715 4.2605C7.52109 4.2605 7.99044 4.36678 8.39519 4.57935C8.80856 4.79191 9.1272 5.0895 9.35111 5.47212C9.58363 5.85474 9.69989 6.30538 9.69989 6.82404C9.69989 7.30869 9.56641 7.78484 9.29944 8.25248C9.04108 8.71162 8.69661 9.17076 8.26602 9.62991C7.83542 10.089 7.37899 10.5567 6.89673 11.0328C7.10341 11.0073 7.33593 10.9861 7.59429 10.9691C7.85265 10.9436 8.07655 10.9308 8.26602 10.9308H10.1003V12.5123H4.32609Z" fill="#3E3E3E"/>
<path d="M48.4464 61.4901L48.4464 62.6508C47.7574 63.2544 47.146 63.8199 46.612 64.347C46.0695 64.8742 45.6475 65.3631 45.3461 65.8137C45.0361 66.2644 44.8811 66.6767 44.8811 67.0509C44.8811 67.4505 44.9844 67.7523 45.1911 67.9564C45.3978 68.169 45.682 68.2752 46.0437 68.2752C46.3365 68.2752 46.6034 68.1902 46.8446 68.0202C47.0771 67.8586 47.2967 67.6673 47.5034 67.4462L48.498 68.4155C48.1019 68.8577 47.6971 69.1893 47.2838 69.4103C46.8618 69.6314 46.3623 69.7419 45.7853 69.7419C45.2514 69.7419 44.782 69.6357 44.3773 69.4231C43.9639 69.2105 43.6453 68.9129 43.4213 68.5303C43.1888 68.1477 43.0726 67.6971 43.0726 67.1784C43.0726 66.6938 43.2061 66.2176 43.473 65.75C43.7314 65.2908 44.0759 64.8317 44.5064 64.3725C44.937 63.9134 45.3935 63.4457 45.8757 62.9696C45.669 62.9951 45.4365 63.0164 45.1782 63.0334C44.9198 63.0589 44.6959 63.0716 44.5064 63.0716L42.6721 63.0716L42.6721 61.4901L48.4464 61.4901Z" fill="#3E3E3E"/>
<path d="M42.6729 54.6249C42.6729 56.3216 44.9406 57.1863 45.7062 58.7662L45.7159 58.7896L45.7256 58.7662C46.4912 57.1863 48.7637 56.3216 48.7637 54.6296C48.7637 53.2086 46.8206 52.6617 45.8709 53.849C45.8516 53.9097 45.8709 53.4704 45.9339 53.2273C46.1617 52.4981 46.9805 51.4371 47.3779 51.1099C46.8255 51.568 44.5966 51.5633 44.049 51.1099C44.4464 51.4418 45.2265 52.4607 45.493 53.2273C45.5463 53.4376 45.5802 53.6527 45.5947 53.8677C44.6741 52.5776 42.6729 53.1759 42.6729 54.6249Z" fill="#3E3E3E"/>
<path d="M10.3652 18.9962C10.3652 17.2995 8.09748 16.4348 7.3319 14.8549L7.3222 14.8315L7.31251 14.8549C6.54693 16.4348 4.27441 17.2995 4.27441 18.9915C4.27441 20.4125 6.21744 20.9594 7.16715 19.7721C7.18654 19.7114 7.16715 20.1507 7.10416 20.3938C6.87642 21.123 6.05754 22.184 5.66022 22.5112C6.2126 22.0531 8.44151 22.0578 8.98905 22.5112C8.59172 22.1793 7.8116 21.1603 7.5451 20.3938C7.4918 20.1834 7.45788 19.9684 7.44334 19.7534C8.36398 21.0435 10.3652 20.4452 10.3652 18.9962Z" fill="#3E3E3E"/>
<path d="M28.9014 22.7566C28.9014 21.4694 27.1267 20.8134 26.5276 19.6149L26.52 19.5972L26.5124 19.6149C25.9133 20.8134 24.1348 21.4694 24.1348 22.753C24.1348 23.831 25.6554 24.2459 26.3986 23.3452C26.4138 23.2991 26.3986 23.6324 26.3493 23.8168C26.1711 24.37 25.5303 25.1749 25.2193 25.4231C25.6516 25.0756 27.396 25.0791 27.8245 25.4231C27.5135 25.1713 26.903 24.3983 26.6944 23.8168C26.6527 23.6572 26.6262 23.4941 26.6148 23.331C27.3353 24.3097 28.9014 23.8558 28.9014 22.7566Z" fill="#3E3E3E"/>
<path d="M24.1357 50.8645C24.1357 52.1517 25.9104 52.8077 26.5095 54.0062L26.5171 54.0239L26.5247 54.0062C27.1239 52.8077 28.9023 52.1517 28.9023 50.8681C28.9023 49.7901 27.3817 49.3752 26.6385 50.2759C26.6233 50.322 26.6385 49.9887 26.6878 49.8043C26.866 49.2511 27.5069 48.4462 27.8178 48.198C27.3855 48.5455 25.6411 48.5419 25.2126 48.198C25.5236 48.4498 26.1341 49.2228 26.3427 49.8043C26.3844 49.9639 26.4109 50.127 26.4223 50.2901C25.7018 49.3114 24.1357 49.7653 24.1357 50.8645Z" fill="#3E3E3E"/>
</g>
<defs>
<clipPath id="clip0_3238_57268">
<rect x="0.0371094" width="52.963" height="74" rx="2.65" fill="white"/>
</clipPath>
</defs>
</svg>
