<svg width="53" height="74" viewBox="0 0 53 74" fill="none" xmlns="http://www.w3.org/2000/svg">
<g clip-path="url(#clip0_3238_57286)">
<rect y="0.0012207" width="53" height="74" rx="2.65" fill="#292929"/>
<path d="M4.29194 12.5121V11.3514C4.98137 10.7478 5.59324 10.1823 6.12755 9.65517C6.67048 9.12801 7.09275 8.63911 7.39438 8.18847C7.70462 7.73783 7.85975 7.32545 7.85975 6.95133C7.85975 6.55171 7.75633 6.24987 7.5495 6.04581C7.34267 5.83324 7.05828 5.72696 6.69633 5.72696C6.40332 5.72696 6.13617 5.81198 5.89487 5.98204C5.66219 6.14359 5.44243 6.33489 5.2356 6.55596L4.24023 5.58666C4.63666 5.14453 5.0417 4.81292 5.45536 4.59186C5.87763 4.37079 6.37747 4.26025 6.95487 4.26025C7.48918 4.26025 7.95885 4.36654 8.36389 4.5791C8.77755 4.79167 9.09641 5.08926 9.32048 5.47188C9.55316 5.8545 9.6695 6.30514 9.6695 6.8238C9.6695 7.30844 9.53593 7.78459 9.26877 8.25224C9.01023 8.71138 8.66552 9.17052 8.23462 9.62966C7.80373 10.0888 7.34698 10.5564 6.86438 11.0326C7.07121 11.0071 7.30389 10.9858 7.56243 10.9688C7.82097 10.9433 8.04503 10.9306 8.23462 10.9306H10.0702V12.5121H4.29194Z" fill="#EAEAEA"/>
<path d="M48.4434 61.4904L48.4434 62.651C47.754 63.2547 47.1421 63.8201 46.6078 64.3473C46.0649 64.8744 45.6426 65.3633 45.341 65.814C45.0307 66.2646 44.8756 66.677 44.8756 67.0511C44.8756 67.4507 44.979 67.7526 45.1858 67.9566C45.3927 68.1692 45.6771 68.2755 46.039 68.2755C46.332 68.2755 46.5992 68.1905 46.8405 68.0204C47.0732 67.8589 47.2929 67.6675 47.4998 67.4465L48.4951 68.4158C48.0987 68.8579 47.6937 69.1895 47.28 69.4106C46.8577 69.6317 46.3579 69.7422 45.7805 69.7422C45.2462 69.7422 44.7765 69.6359 44.3715 69.4233C43.9578 69.2108 43.6389 68.9132 43.4149 68.5306C43.1822 68.1479 43.0658 67.6973 43.0658 67.1786C43.0658 66.694 43.1994 66.2178 43.4666 65.7502C43.7251 65.2911 44.0698 64.8319 44.5007 64.3728C44.9316 63.9136 45.3884 63.446 45.871 62.9698C45.6641 62.9954 45.4315 63.0166 45.1729 63.0336C44.9144 63.0591 44.6903 63.0719 44.5007 63.0719L42.6651 63.0719L42.6651 61.4904L48.4434 61.4904Z" fill="#EAEAEA"/>
<path d="M42.6648 54.6635C42.6648 56.3614 44.934 57.2267 45.7001 58.8077L45.7098 58.8311L45.7195 58.8077C46.4857 57.2267 48.7598 56.3614 48.7598 54.6682C48.7598 53.2462 46.8154 52.699 45.865 53.887C45.8456 53.9478 45.865 53.5082 45.928 53.2649C46.1559 52.5352 46.9754 51.4735 47.373 51.1461C46.8202 51.6044 44.5898 51.5998 44.0418 51.1461C44.4394 51.4782 45.2201 52.4978 45.4868 53.2649C45.5401 53.4754 45.5741 53.6906 45.5886 53.9057C44.6673 52.6148 42.6648 53.2135 42.6648 54.6635Z" fill="#EAEAEA"/>
<path d="M10.3352 19.0086C10.3352 17.3107 8.06597 16.4454 7.29985 14.8645L7.29015 14.8411L7.28045 14.8645C6.51434 16.4454 4.24023 17.3107 4.24023 19.004C4.24023 20.4259 6.18462 20.9732 7.13499 19.7851C7.15439 19.7243 7.13499 20.164 7.07196 20.4072C6.84406 21.1369 6.02461 22.1986 5.627 22.5261C6.17977 22.0677 8.41025 22.0724 8.95816 22.5261C8.56056 22.194 7.77989 21.1743 7.5132 20.4072C7.45987 20.1967 7.42592 19.9815 7.41137 19.7664C8.33265 21.0574 10.3352 20.4586 10.3352 19.0086Z" fill="#EAEAEA"/>
<path d="M28.8852 22.7727C28.8852 21.4846 27.1093 20.8282 26.5097 19.6288L26.5021 19.6111L26.4945 19.6288C25.895 20.8282 24.1152 21.4846 24.1152 22.7691C24.1152 23.8479 25.6369 24.263 26.3807 23.3617C26.3959 23.3156 26.3807 23.6491 26.3314 23.8337C26.153 24.3872 25.5117 25.1927 25.2005 25.4411C25.6331 25.0933 27.3787 25.0969 27.8075 25.4411C27.4964 25.1891 26.8854 24.4156 26.6767 23.8337C26.6349 23.674 26.6084 23.5108 26.597 23.3475C27.318 24.3269 28.8852 23.8727 28.8852 22.7727Z" fill="#EAEAEA"/>
<path d="M24.1148 50.8997C24.1148 52.1877 25.8907 52.8442 26.4903 54.0435L26.4979 54.0613L26.5055 54.0435C27.105 52.8442 28.8848 52.1877 28.8848 50.9032C28.8848 49.8245 27.3631 49.4093 26.6193 50.3106C26.6041 50.3568 26.6193 50.0232 26.6686 49.8387C26.847 49.2852 27.4883 48.4797 27.7995 48.2313C27.3669 48.579 25.6213 48.5755 25.1925 48.2313C25.5036 48.4832 26.1146 49.2568 26.3233 49.8387C26.3651 49.9984 26.3916 50.1616 26.403 50.3248C25.682 49.3455 24.1148 49.7997 24.1148 50.8997Z" fill="#EAEAEA"/>
</g>
<defs>
<clipPath id="clip0_3238_57286">
<rect width="53" height="74" fill="white"/>
</clipPath>
</defs>
</svg>
