<svg width="54" height="74" viewBox="0 0 54 74" fill="none" xmlns="http://www.w3.org/2000/svg">
<g clip-path="url(#clip0_3238_57312)">
<rect x="0.5" y="0.0012207" width="53" height="74" rx="2.65" fill="#292929"/>
<path d="M42.9001 54.6635C42.9001 56.3614 45.1694 57.2267 45.9355 58.8077L45.9452 58.8311L45.9549 58.8077C46.721 57.2267 48.9951 56.3614 48.9951 54.6682C48.9951 53.2462 47.0507 52.699 46.1004 53.887C46.081 53.9478 46.1004 53.5082 46.1634 53.2649C46.3913 52.5352 47.2107 51.4735 47.6083 51.1461C47.0556 51.6044 44.8251 51.5998 44.2772 51.1461C44.6748 51.4782 45.4555 52.4978 45.7221 53.2649C45.7755 53.4754 45.8094 53.6906 45.824 53.9057C44.9027 52.6148 42.9001 53.2135 42.9001 54.6635Z" fill="#EAEAEA"/>
<path d="M10.8352 19.0086C10.8352 17.3107 8.56597 16.4454 7.79985 14.8645L7.79015 14.8411L7.78045 14.8645C7.01434 16.4454 4.74023 17.3107 4.74023 19.004C4.74023 20.4259 6.68462 20.9732 7.63499 19.7851C7.65439 19.7243 7.63499 20.164 7.57196 20.4072C7.34406 21.1369 6.52461 22.1986 6.127 22.5261C6.67977 22.0677 8.91025 22.0724 9.45816 22.5261C9.06056 22.194 8.27989 21.1743 8.0132 20.4072C7.95987 20.1967 7.92592 19.9815 7.91137 19.7664C8.83265 21.0574 10.8352 20.4586 10.8352 19.0086Z" fill="#EAEAEA"/>
<path d="M8.34642 12.5121V7.7429C8.34642 7.483 8.35516 7.17546 8.37265 6.82026C8.39887 6.46507 8.41636 6.15752 8.4251 5.89762H8.37265C8.26774 6.12287 8.15846 6.35244 8.04481 6.58635C7.93116 6.8116 7.81314 7.04551 7.69075 7.28808L6.58922 9.08138H11.1002V10.5368H4.74023V9.22433L7.78254 4.26025H10.143V12.5121H8.34642Z" fill="#EAEAEA"/>
<path d="M45.6536 61.4904L45.6536 66.2595C45.6536 66.5194 45.6448 66.827 45.6274 67.1822C45.6011 67.5374 45.5836 67.8449 45.5749 68.1048L45.6274 68.1048C45.7323 67.8796 45.8415 67.65 45.9552 67.4161C46.0688 67.1908 46.1869 66.9569 46.3092 66.7144L47.4108 64.9211L42.8998 64.9211L42.8998 63.4656L49.2598 63.4656L49.2598 64.7781L46.2175 69.7422L43.857 69.7422L43.857 61.4904L45.6536 61.4904Z" fill="#EAEAEA"/>
<path d="M23.0249 22.7729C23.0249 21.4849 21.2489 20.8284 20.6494 19.6291L20.6418 19.6113L20.6342 19.6291C20.0346 20.8284 18.2549 21.4849 18.2549 22.7694C18.2549 23.8481 19.7766 24.2633 20.5203 23.362C20.5355 23.3158 20.5203 23.6494 20.471 23.8339C20.2927 24.3875 19.6514 25.1929 19.3402 25.4413C19.7728 25.0936 21.5184 25.0971 21.9472 25.4413C21.636 25.1894 21.025 24.4158 20.8163 23.8339C20.7746 23.6742 20.748 23.511 20.7366 23.3478C21.4576 24.3271 23.0249 23.8729 23.0249 22.7729Z" fill="#EAEAEA"/>
<path d="M35.7456 22.7729C35.7456 21.4849 33.9696 20.8284 33.3701 19.6291L33.3625 19.6113L33.3549 19.6291C32.7553 20.8284 30.9756 21.4849 30.9756 22.7694C30.9756 23.8481 32.4973 24.2633 33.2411 23.362C33.2562 23.3158 33.241 23.6494 33.1917 23.8339C33.0134 24.3875 32.3721 25.1929 32.0609 25.4413C32.4935 25.0936 34.2391 25.0971 34.6679 25.4413C34.3567 25.1894 33.7458 24.4158 33.537 23.8339C33.4953 23.6742 33.4687 23.511 33.4573 23.3478C34.1783 24.3271 35.7456 23.8729 35.7456 22.7729Z" fill="#EAEAEA"/>
<path d="M30.9751 50.8997C30.9751 52.1877 32.7511 52.8442 33.3506 54.0435L33.3582 54.0613L33.3658 54.0435C33.9654 52.8442 35.7451 52.1877 35.7451 50.9032C35.7451 49.8245 34.2234 49.4093 33.4797 50.3106C33.4645 50.3568 33.4797 50.0232 33.529 49.8387C33.7073 49.2852 34.3486 48.4797 34.6598 48.2313C34.2272 48.579 32.4816 48.5755 32.0528 48.2313C32.364 48.4832 32.975 49.2568 33.1837 49.8387C33.2254 49.9984 33.252 50.1616 33.2634 50.3248C32.5424 49.3455 30.9751 49.7997 30.9751 50.8997Z" fill="#EAEAEA"/>
<path d="M18.2544 50.8997C18.2544 52.1877 20.0304 52.8442 20.6299 54.0435L20.6375 54.0613L20.6451 54.0435C21.2447 52.8442 23.0244 52.1877 23.0244 50.9032C23.0244 49.8245 21.5027 49.4093 20.7589 50.3106C20.7438 50.3568 20.759 50.0232 20.8083 49.8387C20.9866 49.2852 21.6279 48.4797 21.9391 48.2313C21.5065 48.579 19.7609 48.5755 19.3321 48.2313C19.6433 48.4832 20.2542 49.2568 20.463 49.8387C20.5047 49.9984 20.5313 50.1616 20.5427 50.3248C19.8216 49.3455 18.2544 49.7997 18.2544 50.8997Z" fill="#EAEAEA"/>
</g>
<defs>
<clipPath id="clip0_3238_57312">
<rect width="53" height="74" fill="white" transform="translate(0.5)"/>
</clipPath>
</defs>
</svg>
