<svg width="54" height="74" viewBox="0 0 54 74" fill="none" xmlns="http://www.w3.org/2000/svg">
<g clip-path="url(#clip0_3238_57329)">
<rect x="0.75" y="0.0012207" width="53" height="74" rx="2.65" fill="#292929"/>
<path d="M43.4148 54.6635C43.4148 56.3614 45.684 57.2267 46.4501 58.8077L46.4598 58.8311L46.4695 58.8077C47.2357 57.2267 49.5098 56.3614 49.5098 54.6682C49.5098 53.2462 47.5654 52.699 46.615 53.887C46.5956 53.9478 46.615 53.5082 46.678 53.2649C46.9059 52.5352 47.7254 51.4735 48.123 51.1461C47.5702 51.6044 45.3398 51.5998 44.7918 51.1461C45.1894 51.4782 45.9701 52.4978 46.2368 53.2649C46.2901 53.4754 46.3241 53.6906 46.3386 53.9057C45.4173 52.6148 43.4148 53.2135 43.4148 54.6635Z" fill="#EAEAEA"/>
<path d="M11.0852 19.0086C11.0852 17.3107 8.81597 16.4454 8.04985 14.8645L8.04015 14.8411L8.03045 14.8645C7.26434 16.4454 4.99023 17.3107 4.99023 19.004C4.99023 20.4259 6.93462 20.9732 7.88499 19.7851C7.90439 19.7243 7.88499 20.164 7.82196 20.4072C7.59406 21.1369 6.77461 22.1986 6.377 22.5261C6.92977 22.0677 9.16025 22.0724 9.70816 22.5261C9.31056 22.194 8.52989 21.1743 8.2632 20.4072C8.20987 20.1967 8.17592 19.9815 8.16137 19.7664C9.08265 21.0574 11.0852 20.4586 11.0852 19.0086Z" fill="#EAEAEA"/>
<path d="M7.84783 12.5121C7.40558 12.5121 7.00586 12.461 6.64866 12.359C6.29996 12.257 5.98954 12.1209 5.71739 11.9509C5.44524 11.7808 5.20285 11.5895 4.99023 11.377L5.8322 10.1908C6.07884 10.4119 6.34674 10.6032 6.6359 10.7648C6.92506 10.9178 7.23974 10.9943 7.57993 10.9943C7.85208 10.9943 8.09021 10.9476 8.29433 10.854C8.49844 10.752 8.65578 10.6075 8.76634 10.4204C8.88541 10.2333 8.94494 10.0038 8.94494 9.73169C8.94494 9.32357 8.82587 9.01322 8.58774 8.80066C8.34961 8.58809 8.04344 8.48181 7.66923 8.48181C7.4396 8.48181 7.24399 8.51157 7.0824 8.57109C6.92081 8.6306 6.7167 8.73689 6.47006 8.88993L5.62809 8.35427L5.85772 4.26025H10.4503V5.84174H7.47787L7.33754 7.35946C7.49913 7.29144 7.64797 7.24468 7.78404 7.21917C7.92012 7.18516 8.0732 7.16815 8.2433 7.16815C8.71106 7.16815 9.14055 7.25743 9.53177 7.43598C9.92298 7.61454 10.2334 7.89087 10.463 8.26499C10.7012 8.63911 10.8202 9.111 10.8202 9.68068C10.8202 10.2844 10.6799 10.7988 10.3993 11.2239C10.1271 11.6405 9.76565 11.9594 9.3149 12.1804C8.86414 12.4015 8.37512 12.5121 7.84783 12.5121Z" fill="#EAEAEA"/>
<path d="M46.3875 61.4904C46.8298 61.4904 47.2295 61.5414 47.5867 61.6434C47.9354 61.7455 48.2458 61.8815 48.518 62.0516C48.7901 62.2216 49.0325 62.4129 49.2451 62.6255L48.4031 63.8116C48.1565 63.5905 47.8886 63.3992 47.5994 63.2377C47.3103 63.0846 46.9956 63.0081 46.6554 63.0081C46.3833 63.0081 46.1451 63.0549 45.941 63.1484C45.7369 63.2504 45.5796 63.395 45.469 63.582C45.3499 63.7691 45.2904 63.9987 45.2904 64.2707C45.2904 64.6789 45.4095 64.9892 45.6476 65.2018C45.8857 65.4144 46.1919 65.5206 46.5661 65.5206C46.7958 65.5206 46.9914 65.4909 47.153 65.4314C47.3145 65.3718 47.5187 65.2656 47.7653 65.1125L48.6073 65.6482L48.3776 69.7422H43.7851V68.1607H46.7575L46.8978 66.643C46.7362 66.711 46.5874 66.7578 46.4513 66.7833C46.3152 66.8173 46.1621 66.8343 45.9921 66.8343C45.5243 66.8343 45.0948 66.745 44.7036 66.5665C44.3124 66.3879 44.0019 66.1116 43.7723 65.7375C43.5342 65.3633 43.4151 64.8914 43.4151 64.3218C43.4151 63.7181 43.5554 63.2037 43.8361 62.7785C44.1083 62.3619 44.4697 62.0431 44.9205 61.822C45.3712 61.6009 45.8602 61.4904 46.3875 61.4904Z" fill="#EAEAEA"/>
<path d="M23.2749 22.7729C23.2749 21.4849 21.4989 20.8284 20.8994 19.6291L20.8918 19.6113L20.8842 19.6291C20.2846 20.8284 18.5049 21.4849 18.5049 22.7694C18.5049 23.8481 20.0266 24.2633 20.7703 23.362C20.7855 23.3158 20.7703 23.6494 20.721 23.8339C20.5427 24.3875 19.9014 25.1929 19.5902 25.4413C20.0228 25.0936 21.7684 25.0971 22.1972 25.4413C21.886 25.1894 21.275 24.4158 21.0663 23.8339C21.0246 23.6742 20.998 23.511 20.9866 23.3478C21.7076 24.3271 23.2749 23.8729 23.2749 22.7729Z" fill="#EAEAEA"/>
<path d="M35.9956 22.7729C35.9956 21.4849 34.2196 20.8284 33.6201 19.6291L33.6125 19.6113L33.6049 19.6291C33.0053 20.8284 31.2256 21.4849 31.2256 22.7694C31.2256 23.8481 32.7473 24.2633 33.4911 23.362C33.5062 23.3158 33.491 23.6494 33.4417 23.8339C33.2634 24.3875 32.6221 25.1929 32.3109 25.4413C32.7435 25.0936 34.4891 25.0971 34.9179 25.4413C34.6067 25.1894 33.9958 24.4158 33.787 23.8339C33.7453 23.6742 33.7187 23.511 33.7073 23.3478C34.4283 24.3271 35.9956 23.8729 35.9956 22.7729Z" fill="#EAEAEA"/>
<path d="M29.6352 37.0828C29.6352 35.7947 27.8593 35.1382 27.2597 33.9389L27.2521 33.9211L27.2445 33.9389C26.645 35.1382 24.8652 35.7947 24.8652 37.0792C24.8652 38.1579 26.3869 38.5731 27.1307 37.6718C27.1459 37.6257 27.1307 37.9592 27.0814 38.1437C26.903 38.6973 26.2617 39.5028 25.9505 39.7511C26.3831 39.4034 28.1287 39.4069 28.5575 39.7511C28.2464 39.4992 27.6354 38.7257 27.4267 38.1437C27.3849 37.984 27.3584 37.8208 27.347 37.6576C28.068 38.6369 29.6352 38.1828 29.6352 37.0828Z" fill="#EAEAEA"/>
<path d="M31.2251 50.8997C31.2251 52.1877 33.0011 52.8442 33.6006 54.0435L33.6082 54.0613L33.6158 54.0435C34.2154 52.8442 35.9951 52.1877 35.9951 50.9032C35.9951 49.8245 34.4734 49.4093 33.7297 50.3106C33.7145 50.3568 33.7297 50.0232 33.779 49.8387C33.9573 49.2852 34.5986 48.4797 34.9098 48.2313C34.4772 48.579 32.7316 48.5755 32.3028 48.2313C32.614 48.4832 33.225 49.2568 33.4337 49.8387C33.4754 49.9984 33.502 50.1616 33.5134 50.3248C32.7924 49.3455 31.2251 49.7997 31.2251 50.8997Z" fill="#EAEAEA"/>
<path d="M18.5044 50.8997C18.5044 52.1877 20.2804 52.8442 20.8799 54.0435L20.8875 54.0613L20.8951 54.0435C21.4947 52.8442 23.2744 52.1877 23.2744 50.9032C23.2744 49.8245 21.7527 49.4093 21.0089 50.3106C20.9938 50.3568 21.009 50.0232 21.0583 49.8387C21.2366 49.2852 21.8779 48.4797 22.1891 48.2313C21.7565 48.579 20.0109 48.5755 19.5821 48.2313C19.8933 48.4832 20.5042 49.2568 20.713 49.8387C20.7547 49.9984 20.7813 50.1616 20.7927 50.3248C20.0716 49.3455 18.5044 49.7997 18.5044 50.8997Z" fill="#EAEAEA"/>
</g>
<defs>
<clipPath id="clip0_3238_57329">
<rect width="53" height="74" fill="white" transform="translate(0.75)"/>
</clipPath>
</defs>
</svg>
