<svg width="53" height="74" viewBox="0 0 53 74" fill="none" xmlns="http://www.w3.org/2000/svg">
<g clip-path="url(#clip0_3238_57374)">
<rect y="0.0012207" width="53" height="74" rx="2.65" fill="#292929"/>
<path d="M41.0749 54.6635C41.0749 56.3614 43.3442 57.2267 44.1103 58.8077L44.12 58.8311L44.1297 58.8077C44.8958 57.2267 47.1699 56.3614 47.1699 54.6682C47.1699 53.2462 45.2255 52.699 44.2752 53.887C44.2558 53.9478 44.2752 53.5082 44.3382 53.2649C44.5661 52.5352 45.3855 51.4735 45.7832 51.1461C45.2304 51.6044 42.9999 51.5998 42.452 51.1461C42.8496 51.4782 43.6303 52.4978 43.897 53.2649C43.9503 53.4754 43.9842 53.6906 43.9988 53.9057C43.0775 52.6148 41.0749 53.2135 41.0749 54.6635Z" fill="#EAEAEA"/>
<path d="M11.9251 19.0086C11.9251 17.3107 9.65581 16.4454 8.8897 14.8645L8.88 14.8411L8.8703 14.8645C8.10418 16.4454 5.83008 17.3107 5.83008 19.004C5.83008 20.4259 7.77446 20.9732 8.72484 19.7851C8.74423 19.7243 8.72484 20.164 8.6618 20.4072C8.43391 21.1369 7.61445 22.1986 7.21685 22.5261C7.76962 22.0677 10.0001 22.0724 10.548 22.5261C10.1504 22.194 9.36973 21.1743 9.10305 20.4072C9.04971 20.1967 9.01577 19.9815 9.00122 19.7664C9.9225 21.0574 11.9251 20.4586 11.9251 19.0086Z" fill="#EAEAEA"/>
<path d="M3.17969 12.3615V10.8715H4.89509V6.276H3.41587V5.13653C3.84679 5.05305 4.21141 4.95288 4.50974 4.83601C4.81636 4.71914 5.10641 4.57723 5.37988 4.41027H6.72236V10.8715H8.20159V12.3615H3.17969Z" fill="#EAEAEA"/>
<path d="M11.753 12.5118C10.9077 12.5118 10.224 12.157 9.70195 11.4475C9.18816 10.7379 8.93127 9.70695 8.93127 8.3546C8.93127 6.99391 9.18816 5.97131 9.70195 5.28679C10.224 4.60227 10.9077 4.26001 11.753 4.26001C12.5982 4.26001 13.2778 4.60644 13.7916 5.29931C14.3136 5.98383 14.5747 7.00226 14.5747 8.3546C14.5747 9.70695 14.3136 10.7379 13.7916 11.4475C13.2778 12.157 12.5982 12.5118 11.753 12.5118ZM11.753 11.0843C11.9602 11.0843 12.1466 11.0092 12.3123 10.8589C12.4781 10.7003 12.6065 10.4249 12.6977 10.0325C12.7971 9.63182 12.8469 9.07252 12.8469 8.3546C12.8469 7.62835 12.7971 7.07322 12.6977 6.68922C12.6065 6.30522 12.4781 6.04226 12.3123 5.90035C12.1466 5.75844 11.9602 5.68748 11.753 5.68748C11.5458 5.68748 11.3593 5.75844 11.1936 5.90035C11.0279 6.04226 10.8953 6.30522 10.7958 6.68922C10.7047 7.07322 10.6591 7.62835 10.6591 8.3546C10.6591 9.07252 10.7047 9.63182 10.7958 10.0325C10.8953 10.4249 11.0279 10.7003 11.1936 10.8589C11.3593 11.0092 11.5458 11.0843 11.753 11.0843Z" fill="#EAEAEA"/>
<path d="M49.8203 61.6406L49.8203 63.1307L48.1049 63.1307L48.1049 67.7262L49.5841 67.7262L49.5841 68.8657C49.1532 68.9491 48.7886 69.0493 48.4903 69.1662C48.1836 69.2831 47.8936 69.425 47.6201 69.5919L46.2776 69.5919L46.2776 63.1307L44.7984 63.1307L44.7984 61.6406L49.8203 61.6406Z" fill="#EAEAEA"/>
<path d="M41.247 61.4904C42.0923 61.4904 42.776 61.8452 43.298 62.5547C43.8118 63.2643 44.0687 64.2952 44.0687 65.6476C44.0687 67.0083 43.8118 68.0309 43.298 68.7154C42.776 69.3999 42.0923 69.7422 41.247 69.7422C40.4018 69.7422 39.7222 69.3958 39.2084 68.7029C38.6864 68.0184 38.4253 66.9999 38.4253 65.6476C38.4253 64.2952 38.6864 63.2643 39.2084 62.5547C39.7222 61.8452 40.4018 61.4904 41.247 61.4904ZM41.247 62.9179C41.0398 62.9179 40.8534 62.993 40.6877 63.1433C40.5219 63.3019 40.3935 63.5773 40.3023 63.9697C40.2029 64.3704 40.1531 64.9297 40.1531 65.6476C40.1531 66.3739 40.2029 66.929 40.3023 67.313C40.3935 67.697 40.5219 67.9599 40.6877 68.1018C40.8534 68.2438 41.0398 68.3147 41.247 68.3147C41.4542 68.3147 41.6407 68.2438 41.8064 68.1018C41.9721 67.9599 42.1047 67.697 42.2042 67.313C42.2953 66.929 42.3409 66.3739 42.3409 65.6476C42.3409 64.9297 42.2953 64.3704 42.2042 63.9697C42.1047 63.5773 41.9721 63.3019 41.8064 63.1433C41.6407 62.993 41.4542 62.9179 41.247 62.9179Z" fill="#EAEAEA"/>
<path d="M22.5249 22.7729C22.5249 21.4849 20.7489 20.8284 20.1494 19.6291L20.1418 19.6113L20.1342 19.6291C19.5346 20.8284 17.7549 21.4849 17.7549 22.7694C17.7549 23.8481 19.2766 24.2633 20.0203 23.362C20.0355 23.3158 20.0203 23.6494 19.971 23.8339C19.7927 24.3875 19.1514 25.1929 18.8402 25.4413C19.2728 25.0936 21.0184 25.0971 21.4472 25.4413C21.136 25.1894 20.525 24.4158 20.3163 23.8339C20.2746 23.6742 20.248 23.511 20.2366 23.3478C20.9576 24.3271 22.5249 23.8729 22.5249 22.7729Z" fill="#EAEAEA"/>
<path d="M35.2456 22.7729C35.2456 21.4849 33.4696 20.8284 32.8701 19.6291L32.8625 19.6113L32.8549 19.6291C32.2553 20.8284 30.4756 21.4849 30.4756 22.7694C30.4756 23.8481 31.9973 24.2633 32.7411 23.362C32.7562 23.3158 32.741 23.6494 32.6917 23.8339C32.5134 24.3875 31.8721 25.1929 31.5609 25.4413C31.9935 25.0936 33.7391 25.0971 34.1679 25.4413C33.8567 25.1894 33.2458 24.4158 33.037 23.8339C32.9953 23.6742 32.9687 23.511 32.9573 23.3478C33.6783 24.3271 35.2456 23.8729 35.2456 22.7729Z" fill="#EAEAEA"/>
<path d="M35.2456 32.8428C35.2456 31.5547 33.4696 30.8982 32.8701 29.6989L32.8625 29.6812L32.8549 29.6989C32.2553 30.8982 30.4756 31.5547 30.4756 32.8392C30.4756 33.9179 31.9973 34.3331 32.7411 33.4318C32.7562 33.3857 32.741 33.7192 32.6917 33.9037C32.5134 34.4573 31.8721 35.2628 31.5609 35.5112C31.9935 35.1634 33.7391 35.167 34.1679 35.5112C33.8567 35.2592 33.2458 34.4857 33.037 33.9037C32.9953 33.7441 32.9687 33.5808 32.9573 33.4176C33.6783 34.397 35.2456 33.9428 35.2456 32.8428Z" fill="#EAEAEA"/>
<path d="M17.7544 40.8296C17.7544 42.1177 19.5304 42.7741 20.1299 43.9735L20.1375 43.9912L20.1451 43.9735C20.7447 42.7741 22.5244 42.1177 22.5244 40.8331C22.5244 39.7544 21.0027 39.3393 20.2589 40.2406C20.2438 40.2867 20.259 39.9531 20.3083 39.7686C20.4866 39.2151 21.1279 38.4096 21.4391 38.1612C21.0065 38.509 19.2609 38.5054 18.8321 38.1612C19.1433 38.4131 19.7542 39.1867 19.963 39.7686C20.0047 39.9283 20.0313 40.0915 20.0427 40.2548C19.3216 39.2754 17.7544 39.7296 17.7544 40.8296Z" fill="#EAEAEA"/>
<path d="M28.8852 27.8079C28.8852 26.5198 27.1093 25.8633 26.5097 24.664L26.5021 24.6462L26.4945 24.664C25.895 25.8633 24.1152 26.5198 24.1152 27.8043C24.1152 28.883 25.6369 29.2982 26.3807 28.3969C26.3959 28.3508 26.3807 28.6843 26.3314 28.8688C26.153 29.4224 25.5117 30.2279 25.2005 30.4762C25.6331 30.1285 27.3787 30.132 27.8075 30.4762C27.4964 30.2243 26.8854 29.4508 26.6767 28.8688C26.6349 28.7091 26.6084 28.5459 26.597 28.3827C27.318 29.362 28.8852 28.9079 28.8852 27.8079Z" fill="#EAEAEA"/>
<path d="M24.1148 45.8645C24.1148 47.1526 25.8907 47.809 26.4903 49.0084L26.4979 49.0261L26.5055 49.0084C27.105 47.809 28.8848 47.1526 28.8848 45.8681C28.8848 44.7894 27.3631 44.3742 26.6193 45.2755C26.6041 45.3216 26.6193 44.9881 26.6686 44.8035C26.847 44.25 27.4883 43.4445 27.7995 43.1961C27.3669 43.5439 25.6213 43.5403 25.1925 43.1961C25.5036 43.4481 26.1146 44.2216 26.3233 44.8035C26.3651 44.9632 26.3916 45.1264 26.403 45.2897C25.682 44.3103 24.1148 44.7645 24.1148 45.8645Z" fill="#EAEAEA"/>
<path d="M22.5249 32.8428C22.5249 31.5547 20.7489 30.8982 20.1494 29.6989L20.1418 29.6812L20.1342 29.6989C19.5346 30.8982 17.7549 31.5547 17.7549 32.8392C17.7549 33.9179 19.2766 34.3331 20.0203 33.4318C20.0355 33.3857 20.0203 33.7192 19.971 33.9037C19.7927 34.4573 19.1514 35.2628 18.8402 35.5112C19.2728 35.1634 21.0184 35.167 21.4472 35.5112C21.136 35.2592 20.525 34.4857 20.3163 33.9037C20.2746 33.7441 20.248 33.5808 20.2366 33.4176C20.9576 34.397 22.5249 33.9428 22.5249 32.8428Z" fill="#EAEAEA"/>
<path d="M30.4751 40.8296C30.4751 42.1177 32.2511 42.7741 32.8506 43.9735L32.8582 43.9912L32.8658 43.9735C33.4654 42.7741 35.2451 42.1177 35.2451 40.8331C35.2451 39.7544 33.7234 39.3393 32.9797 40.2406C32.9645 40.2867 32.9797 39.9531 33.029 39.7686C33.2073 39.2151 33.8486 38.4096 34.1598 38.1612C33.7272 38.509 31.9816 38.5054 31.5528 38.1612C31.864 38.4131 32.475 39.1867 32.6837 39.7686C32.7254 39.9283 32.752 40.0915 32.7634 40.2548C32.0424 39.2754 30.4751 39.7296 30.4751 40.8296Z" fill="#EAEAEA"/>
<path d="M30.4751 50.8997C30.4751 52.1877 32.2511 52.8442 32.8506 54.0435L32.8582 54.0613L32.8658 54.0435C33.4654 52.8442 35.2451 52.1877 35.2451 50.9032C35.2451 49.8245 33.7234 49.4093 32.9797 50.3106C32.9645 50.3568 32.9797 50.0232 33.029 49.8387C33.2073 49.2852 33.8486 48.4797 34.1598 48.2313C33.7272 48.579 31.9816 48.5755 31.5528 48.2313C31.864 48.4832 32.475 49.2568 32.6837 49.8387C32.7254 49.9984 32.752 50.1616 32.7634 50.3248C32.0424 49.3455 30.4751 49.7997 30.4751 50.8997Z" fill="#EAEAEA"/>
<path d="M17.7544 50.8997C17.7544 52.1877 19.5304 52.8442 20.1299 54.0435L20.1375 54.0613L20.1451 54.0435C20.7447 52.8442 22.5244 52.1877 22.5244 50.9032C22.5244 49.8245 21.0027 49.4093 20.2589 50.3106C20.2438 50.3568 20.259 50.0232 20.3083 49.8387C20.4866 49.2852 21.1279 48.4797 21.4391 48.2313C21.0065 48.579 19.2609 48.5755 18.8321 48.2313C19.1433 48.4832 19.7542 49.2568 19.963 49.8387C20.0047 49.9984 20.0313 50.1616 20.0427 50.3248C19.3216 49.3455 17.7544 49.7997 17.7544 50.8997Z" fill="#EAEAEA"/>
</g>
<defs>
<clipPath id="clip0_3238_57374">
<rect width="53" height="74" fill="white"/>
</clipPath>
</defs>
</svg>
