<svg width="54" height="74" viewBox="0 0 54 74" fill="none" xmlns="http://www.w3.org/2000/svg">
<g clip-path="url(#clip0_3238_57403)">
<rect x="0.25" y="0.0012207" width="53" height="74" rx="2.65" fill="#292929"/>
<path d="M42.9148 54.6635C42.9148 56.3614 45.184 57.2267 45.9501 58.8077L45.9598 58.8311L45.9695 58.8077C46.7357 57.2267 49.0098 56.3614 49.0098 54.6682C49.0098 53.2462 47.0654 52.699 46.115 53.887C46.0956 53.9478 46.115 53.5082 46.178 53.2649C46.4059 52.5352 47.2254 51.4735 47.623 51.1461C47.0702 51.6044 44.8398 51.5998 44.2918 51.1461C44.6894 51.4782 45.4701 52.4978 45.7368 53.2649C45.7901 53.4754 45.8241 53.6906 45.8386 53.9057C44.9173 52.6148 42.9148 53.2135 42.9148 54.6635Z" fill="#EAEAEA"/>
<path d="M10.5852 19.0086C10.5852 17.3107 8.31597 16.4454 7.54985 14.8645L7.54015 14.8411L7.53045 14.8645C6.76434 16.4454 4.49023 17.3107 4.49023 19.004C4.49023 20.4259 6.43462 20.9732 7.38499 19.7851C7.40439 19.7243 7.38499 20.164 7.32196 20.4072C7.09406 21.1369 6.27461 22.1986 5.877 22.5261C6.42977 22.0677 8.66025 22.0724 9.20816 22.5261C8.81056 22.194 8.02989 21.1743 7.7632 20.4072C7.70987 20.1967 7.67592 19.9815 7.66137 19.7664C8.58265 21.0574 10.5852 20.4586 10.5852 19.0086Z" fill="#EAEAEA"/>
<path d="M7.26474 12.5121C6.68717 12.5121 6.1903 12.3919 5.77411 12.1517C5.36642 11.9114 5.02668 11.5344 4.75488 11.0208L5.95248 10.2254C6.07139 10.4491 6.23277 10.6231 6.43661 10.7474C6.64046 10.8716 6.85705 10.9338 7.08637 10.9338C7.4516 10.9338 7.72339 10.8261 7.90176 10.6107C8.08862 10.3953 8.18205 10.01 8.18205 9.45491V4.26025H10.0549V9.60404C10.0549 10.1343 9.95721 10.6231 9.76185 11.0705C9.5665 11.5096 9.26073 11.8617 8.84455 12.1268C8.43685 12.3836 7.91025 12.5121 7.26474 12.5121Z" fill="#EAEAEA"/>
<path d="M46.2353 61.4904C46.8128 61.4904 47.3097 61.6105 47.7259 61.8508C48.1336 62.091 48.4733 62.468 48.7451 62.9817L47.5475 63.777C47.4286 63.5533 47.2672 63.3794 47.0634 63.2551C46.8595 63.1308 46.643 63.0687 46.4136 63.0687C46.0484 63.0687 45.7766 63.1764 45.5982 63.3918C45.4114 63.6072 45.318 63.9924 45.318 64.5475V69.7422H43.4451V64.3984C43.4451 63.8682 43.5428 63.3794 43.7381 62.932C43.9335 62.4929 44.2393 62.1408 44.6555 61.8756C45.0631 61.6188 45.5897 61.4904 46.2353 61.4904Z" fill="#EAEAEA"/>
<path d="M38.6752 38.1386C38.6752 31.2397 29.7965 27.7152 26.7945 21.2889L26.7502 21.2L26.7059 21.2889C23.7094 27.7097 14.8252 31.2397 14.8252 38.1386C14.8252 43.9145 22.4299 46.1437 26.1409 41.3128C26.2185 41.0682 26.1354 42.8471 25.8861 43.8478C24.9944 46.8108 21.7985 51.1302 20.2421 52.47C22.3967 50.6132 31.1148 50.6132 33.2693 52.47C31.7129 51.1302 28.6666 46.9609 27.6253 43.8478C27.4093 42.9861 27.2819 42.1133 27.2265 41.2461C30.8378 46.4828 38.6752 44.0312 38.6752 38.1386Z" fill="#EAEAEA"/>
</g>
<defs>
<clipPath id="clip0_3238_57403">
<rect width="53" height="74" fill="white" transform="translate(0.25)"/>
</clipPath>
</defs>
</svg>
