<svg width="54" height="74" viewBox="0 0 54 74" fill="none" xmlns="http://www.w3.org/2000/svg">
<g clip-path="url(#clip0_3238_57413)">
<rect x="0.5" y="0.0012207" width="53" height="74" rx="2.65" fill="#292929"/>
<path d="M43.1648 54.6635C43.1648 56.3614 45.434 57.2267 46.2001 58.8077L46.2098 58.8311L46.2195 58.8077C46.9857 57.2267 49.2598 56.3614 49.2598 54.6682C49.2598 53.2462 47.3154 52.699 46.365 53.887C46.3456 53.9478 46.365 53.5082 46.428 53.2649C46.6559 52.5352 47.4754 51.4735 47.873 51.1461C47.3202 51.6044 45.0898 51.5998 44.5418 51.1461C44.9394 51.4782 45.7201 52.4978 45.9868 53.2649C46.0401 53.4754 46.0741 53.6906 46.0886 53.9057C45.1673 52.6148 43.1648 53.2135 43.1648 54.6635Z" fill="#EAEAEA"/>
<path d="M10.8352 19.0086C10.8352 17.3107 8.56597 16.4454 7.79985 14.8645L7.79015 14.8411L7.78045 14.8645C7.01434 16.4454 4.74023 17.3107 4.74023 19.004C4.74023 20.4259 6.68462 20.9732 7.63499 19.7851C7.65439 19.7243 7.63499 20.164 7.57196 20.4072C7.34406 21.1369 6.52461 22.1986 6.127 22.5261C6.67977 22.0677 8.91025 22.0724 9.45816 22.5261C9.06056 22.194 8.27989 21.1743 8.0132 20.4072C7.95987 20.1967 7.92592 19.9815 7.91137 19.7664C8.83265 21.0574 10.8352 20.4586 10.8352 19.0086Z" fill="#EAEAEA"/>
<path d="M7.57911 12.5543C6.8589 12.5543 6.22462 12.3865 5.67628 12.0511C5.13612 11.7157 4.71054 11.2372 4.39954 10.6154C4.09672 9.9937 3.94531 9.24516 3.94531 8.36983C3.94531 7.50268 4.09672 6.76232 4.39954 6.14877C4.71054 5.53522 5.13612 5.06892 5.67628 4.74987C6.22462 4.42265 6.8589 4.25903 7.57911 4.25903C8.29933 4.25903 8.92951 4.42265 9.46967 4.74987C10.018 5.06892 10.4436 5.53522 10.7464 6.14877C11.0574 6.76232 11.2129 7.50268 11.2129 8.36983C11.2129 9.24516 11.0574 9.9937 10.7464 10.6154C10.4436 11.2372 10.018 11.7157 9.46967 12.0511C8.92951 12.3865 8.29933 12.5543 7.57911 12.5543ZM7.57911 11.0817C7.9474 11.0817 8.2625 10.9754 8.52439 10.7627C8.79447 10.5418 8.99908 10.2309 9.13821 9.83008C9.28553 9.42923 9.35919 8.94248 9.35919 8.36983C9.35919 7.83809 9.28553 7.38406 9.13821 7.00775C8.99908 6.62325 8.79447 6.32875 8.52439 6.12423C8.2625 5.91971 7.9474 5.81746 7.57911 5.81746C7.21901 5.81746 6.90391 5.91971 6.63383 6.12423C6.36375 6.32875 6.15506 6.62325 6.00774 7.00775C5.86861 7.38406 5.79904 7.83809 5.79904 8.36983C5.79904 8.94248 5.86861 9.42923 6.00774 9.83008C6.15506 10.2309 6.36375 10.5418 6.63383 10.7627C6.90391 10.9754 7.21901 11.0817 7.57911 11.0817ZM10.2185 14.6403C9.34282 14.6403 8.60624 14.4235 8.00879 13.99C7.41134 13.5564 6.97348 13.0083 6.69522 12.3456L8.53667 12.1616C8.63488 12.4152 8.78629 12.6156 8.99089 12.7629C9.1955 12.9183 9.42057 13.0287 9.66609 13.0942C9.91981 13.1596 10.1735 13.1923 10.4272 13.1923C10.5991 13.1923 10.7587 13.1801 10.906 13.1555C11.0615 13.131 11.1965 13.1024 11.3111 13.0696L11.6303 14.3704C11.4912 14.444 11.2989 14.5053 11.0533 14.5544C10.8078 14.6117 10.5295 14.6403 10.2185 14.6403Z" fill="#EAEAEA"/>
<path d="M46.4209 61.4457C47.1411 61.4457 47.7754 61.6135 48.3237 61.9489C48.8639 62.2843 49.2895 62.7628 49.6005 63.3846C49.9033 64.0063 50.0547 64.7548 50.0547 65.6302C50.0547 66.4973 49.9033 67.2377 49.6005 67.8512C49.2895 68.4648 48.8639 68.9311 48.3237 69.2501C47.7754 69.5774 47.1411 69.741 46.4209 69.741C45.7007 69.741 45.0705 69.5774 44.5303 69.2501C43.982 68.9311 43.5564 68.4648 43.2536 67.8512C42.9426 67.2377 42.7871 66.4973 42.7871 65.6302C42.7871 64.7548 42.9426 64.0063 43.2536 63.3846C43.5564 62.7628 43.982 62.2843 44.5303 61.9489C45.0705 61.6135 45.7007 61.4457 46.4209 61.4457ZM46.4209 62.9183C46.0526 62.9183 45.7375 63.0246 45.4756 63.2373C45.2055 63.4582 45.0009 63.7691 44.8618 64.1699C44.7145 64.5708 44.6408 65.0575 44.6408 65.6302C44.6408 66.1619 44.7145 66.6159 44.8618 66.9923C45.0009 67.3767 45.2055 67.6713 45.4756 67.8758C45.7375 68.0803 46.0526 68.1825 46.4209 68.1825C46.781 68.1825 47.0961 68.0803 47.3662 67.8758C47.6362 67.6713 47.8449 67.3767 47.9923 66.9923C48.1314 66.6159 48.201 66.1619 48.201 65.6302C48.201 65.0575 48.1314 64.5708 47.9923 64.1699C47.8449 63.7691 47.6362 63.4582 47.3662 63.2373C47.0961 63.0246 46.781 62.9183 46.4209 62.9183ZM43.7815 59.3597C44.6572 59.3597 45.3938 59.5765 45.9912 60.01C46.5887 60.4436 47.0265 60.9917 47.3048 61.6544L45.4633 61.8384C45.3651 61.5848 45.2137 61.3844 45.0091 61.2371C44.8045 61.0817 44.5794 60.9713 44.3339 60.9058C44.0802 60.8404 43.8265 60.8077 43.5728 60.8077C43.4009 60.8077 43.2413 60.8199 43.094 60.8445C42.9385 60.869 42.8035 60.8976 42.6889 60.9304L42.3697 59.6296C42.5088 59.556 42.7011 59.4947 42.9467 59.4456C43.1922 59.3883 43.4705 59.3597 43.7815 59.3597Z" fill="#EAEAEA"/>
<path d="M38.9252 38.1386C38.9252 31.2397 30.0465 27.7152 27.0445 21.2889L27.0002 21.2L26.9559 21.2889C23.9594 27.7097 15.0752 31.2397 15.0752 38.1386C15.0752 43.9145 22.6799 46.1437 26.3909 41.3128C26.4685 41.0682 26.3854 42.8471 26.1361 43.8478C25.2444 46.8108 22.0485 51.1302 20.4921 52.47C22.6467 50.6132 31.3648 50.6132 33.5193 52.47C31.9629 51.1302 28.9166 46.9609 27.8753 43.8478C27.6593 42.9861 27.5319 42.1133 27.4765 41.2461C31.0878 46.4828 38.9252 44.0312 38.9252 38.1386Z" fill="#EAEAEA"/>
</g>
<defs>
<clipPath id="clip0_3238_57413">
<rect width="53" height="74" fill="white" transform="translate(0.5)"/>
</clipPath>
</defs>
</svg>
