<svg width="54" height="74" viewBox="0 0 54 74" fill="none" xmlns="http://www.w3.org/2000/svg">
<g clip-path="url(#clip0_3238_57423)">
<rect x="0.75" y="0.0012207" width="53" height="74" rx="2.65" fill="#292929"/>
<path d="M43.4148 54.6635C43.4148 56.3614 45.684 57.2267 46.4501 58.8077L46.4598 58.8311L46.4695 58.8077C47.2357 57.2267 49.5098 56.3614 49.5098 54.6682C49.5098 53.2462 47.5654 52.699 46.615 53.887C46.5956 53.9478 46.615 53.5082 46.678 53.2649C46.9059 52.5352 47.7254 51.4735 48.123 51.1461C47.5702 51.6044 45.3398 51.5998 44.7918 51.1461C45.1894 51.4782 45.9701 52.4978 46.2368 53.2649C46.2901 53.4754 46.3241 53.6906 46.3386 53.9057C45.4173 52.6148 43.4148 53.2135 43.4148 54.6635Z" fill="#EAEAEA"/>
<path d="M11.0852 19.0086C11.0852 17.3107 8.81597 16.4454 8.04985 14.8645L8.04015 14.8411L8.03045 14.8645C7.26434 16.4454 4.99023 17.3107 4.99023 19.004C4.99023 20.4259 6.93462 20.9732 7.88499 19.7851C7.90439 19.7243 7.88499 20.164 7.82196 20.4072C7.59406 21.1369 6.77461 22.1986 6.377 22.5261C6.92977 22.0677 9.16025 22.0724 9.70816 22.5261C9.31056 22.194 8.52989 21.1743 8.2632 20.4072C8.20987 20.1967 8.17592 19.9815 8.16137 19.7664C9.08265 21.0574 11.0852 20.4586 11.0852 19.0086Z" fill="#EAEAEA"/>
<path d="M4.99023 12.5121V4.26025H6.85548V7.63944H6.90624L9.36786 4.26025H11.4234L8.92375 7.55085L11.8802 12.5121H9.83734L7.81983 9.03162L6.85548 10.2972V12.5121H4.99023Z" fill="#EAEAEA"/>
<path d="M49.5098 61.4904V69.7422H47.6445V66.363H47.5938L45.1321 69.7422H43.0766L45.5762 66.4516L42.6198 61.4904H44.6627L46.6802 64.9708L47.6445 63.7052V61.4904H49.5098Z" fill="#EAEAEA"/>
<path d="M39.1752 38.1386C39.1752 31.2397 30.2965 27.7152 27.2945 21.2889L27.2502 21.2L27.2059 21.2889C24.2094 27.7097 15.3252 31.2397 15.3252 38.1386C15.3252 43.9145 22.9299 46.1437 26.6409 41.3128C26.7185 41.0682 26.6354 42.8471 26.3861 43.8478C25.4944 46.8108 22.2985 51.1302 20.7421 52.47C22.8967 50.6132 31.6148 50.6132 33.7693 52.47C32.2129 51.1302 29.1666 46.9609 28.1253 43.8478C27.9093 42.9861 27.7819 42.1133 27.7265 41.2461C31.3378 46.4828 39.1752 44.0312 39.1752 38.1386Z" fill="#EAEAEA"/>
</g>
<defs>
<clipPath id="clip0_3238_57423">
<rect width="53" height="74" fill="white" transform="translate(0.75)"/>
</clipPath>
</defs>
</svg>
