<svg width="54" height="74" viewBox="0 0 54 74" fill="none" xmlns="http://www.w3.org/2000/svg">
<g clip-path="url(#clip0_3238_56817)">
<rect x="0.268555" y="0.000976562" width="53" height="74" rx="2.65" fill="#292929"/>
<path d="M41.3435 54.6635C41.3435 56.3614 43.6127 57.2267 44.3789 58.8077L44.3886 58.8311L44.3983 58.8077C45.1644 57.2267 47.4385 56.3614 47.4385 54.6682C47.4385 53.2462 45.4941 52.699 44.5437 53.887C44.5243 53.9478 44.5437 53.5082 44.6068 53.2649C44.8346 52.5352 45.6541 51.4735 46.0517 51.1461C45.4989 51.6044 43.2685 51.5998 42.7205 51.1461C43.1182 51.4782 43.8988 52.4978 44.1655 53.2649C44.2188 53.4754 44.2528 53.6906 44.2673 53.9057C43.3461 52.6148 41.3435 53.2135 41.3435 54.6635Z" fill="#EAEAEA"/>
<path d="M12.1936 19.0084C12.1936 17.3105 9.92437 16.4452 9.15825 14.8642L9.14855 14.8408L9.13885 14.8642C8.37274 16.4452 6.09863 17.3105 6.09863 19.0037C6.09863 20.4257 8.04302 20.9729 8.99339 19.7849C9.01279 19.724 8.99339 20.1637 8.93036 20.4069C8.70246 21.1366 7.88301 22.1984 7.4854 22.5258C8.03817 22.0674 10.2686 22.0721 10.8166 22.5258C10.419 22.1937 9.63829 21.174 9.3716 20.4069C9.31826 20.1965 9.28432 19.9813 9.26977 19.7661C10.1911 21.0571 12.1936 20.4584 12.1936 19.0084Z" fill="#EAEAEA"/>
<path d="M3.44824 12.3618V10.8717H5.16364V6.27625H3.68442V5.13677C4.11534 5.0533 4.47997 4.95312 4.7783 4.83625C5.08492 4.71938 5.37496 4.57747 5.64843 4.41051H6.99092V10.8717H8.47014V12.3618H3.44824Z" fill="#EAEAEA"/>
<path d="M12.0215 12.5121C11.1763 12.5121 10.4926 12.1573 9.97051 11.4477C9.45672 10.7381 9.19982 9.70719 9.19982 8.35485C9.19982 6.99416 9.45672 5.97155 9.97051 5.28703C10.4926 4.60251 11.1763 4.26025 12.0215 4.26025C12.8668 4.26025 13.5463 4.60669 14.0601 5.29955C14.5822 5.98407 14.8432 7.00251 14.8432 8.35485C14.8432 9.70719 14.5822 10.7381 14.0601 11.4477C13.5463 12.1573 12.8668 12.5121 12.0215 12.5121ZM12.0215 11.0846C12.2287 11.0846 12.4152 11.0094 12.5809 10.8592C12.7466 10.7006 12.8751 10.4251 12.9662 10.0328C13.0657 9.63206 13.1154 9.07276 13.1154 8.35485C13.1154 7.62859 13.0657 7.07346 12.9662 6.68946C12.8751 6.30546 12.7466 6.04251 12.5809 5.9006C12.4152 5.75868 12.2287 5.68773 12.0215 5.68773C11.8144 5.68773 11.6279 5.75868 11.4622 5.9006C11.2964 6.04251 11.1638 6.30546 11.0644 6.68946C10.9732 7.07346 10.9277 7.62859 10.9277 8.35485C10.9277 9.07276 10.9732 9.63206 11.0644 10.0328C11.1638 10.4251 11.2964 10.7006 11.4622 10.8592C11.6279 11.0094 11.8144 11.0846 12.0215 11.0846Z" fill="#EAEAEA"/>
<path d="M50.0889 61.6406L50.0889 63.1307L48.3735 63.1307L48.3735 67.7262L49.8527 67.7262L49.8527 68.8657C49.4218 68.9491 49.0571 69.0493 48.7588 69.1662C48.4522 69.2831 48.1621 69.425 47.8887 69.5919L46.5462 69.5919L46.5462 63.1307L45.067 63.1307L45.067 61.6406L50.0889 61.6406Z" fill="#EAEAEA"/>
<path d="M41.5156 61.4904C42.3608 61.4904 43.0445 61.8452 43.5666 62.5547C44.0804 63.2643 44.3373 64.2952 44.3373 65.6476C44.3373 67.0083 44.0804 68.0309 43.5666 68.7154C43.0445 69.3999 42.3608 69.7422 41.5156 69.7422C40.6703 69.7422 39.9908 69.3958 39.477 68.7029C38.9549 68.0184 38.6939 66.9999 38.6939 65.6476C38.6939 64.2952 38.9549 63.2643 39.477 62.5547C39.9908 61.8452 40.6703 61.4904 41.5156 61.4904ZM41.5156 62.9179C41.3084 62.9179 41.1219 62.993 40.9562 63.1433C40.7905 63.3019 40.662 63.5773 40.5709 63.9697C40.4714 64.3704 40.4217 64.9297 40.4217 65.6476C40.4217 66.3739 40.4714 66.929 40.5709 67.313C40.662 67.697 40.7905 67.9599 40.9562 68.1018C41.1219 68.2438 41.3084 68.3147 41.5156 68.3147C41.7227 68.3147 41.9092 68.2438 42.0749 68.1018C42.2407 67.9599 42.3733 67.697 42.4727 67.313C42.5639 66.929 42.6095 66.3739 42.6095 65.6476C42.6095 64.9297 42.5639 64.3704 42.4727 63.9697C42.3733 63.5773 42.2407 63.3019 42.0749 63.1433C41.9092 62.993 41.7228 62.9179 41.5156 62.9179Z" fill="#EAEAEA"/>
<path d="M22.7934 22.7729C22.7934 21.4849 21.0175 20.8284 20.4179 19.6291L20.4103 19.6113L20.4027 19.6291C19.8032 20.8284 18.0234 21.4849 18.0234 22.7694C18.0234 23.8481 19.5451 24.2633 20.2889 23.362C20.3041 23.3158 20.2889 23.6494 20.2396 23.8339C20.0612 24.3875 19.4199 25.1929 19.1087 25.4413C19.5413 25.0936 21.2869 25.0971 21.7157 25.4413C21.4046 25.1894 20.7936 24.4158 20.5849 23.8339C20.5431 23.6742 20.5166 23.511 20.5052 23.3478C21.2262 24.3271 22.7934 23.8729 22.7934 22.7729Z" fill="#EAEAEA"/>
<path d="M35.5141 22.7729C35.5141 21.4849 33.7382 20.8284 33.1386 19.6291L33.131 19.6113L33.1234 19.6291C32.5239 20.8284 30.7441 21.4849 30.7441 22.7694C30.7441 23.8481 32.2658 24.2633 33.0096 23.362C33.0248 23.3158 33.0096 23.6494 32.9603 23.8339C32.7819 24.3875 32.1406 25.1929 31.8294 25.4413C32.262 25.0936 34.0076 25.0971 34.4364 25.4413C34.1253 25.1894 33.5143 24.4158 33.3056 23.8339C33.2639 23.6742 33.2373 23.511 33.2259 23.3478C33.9469 24.3271 35.5141 23.8729 35.5141 22.7729Z" fill="#EAEAEA"/>
<path d="M35.5141 32.8428C35.5141 31.5547 33.7382 30.8982 33.1386 29.6989L33.131 29.6812L33.1234 29.6989C32.5239 30.8982 30.7441 31.5547 30.7441 32.8392C30.7441 33.9179 32.2658 34.3331 33.0096 33.4318C33.0248 33.3857 33.0096 33.7192 32.9603 33.9037C32.7819 34.4573 32.1406 35.2628 31.8294 35.5112C32.262 35.1634 34.0076 35.167 34.4364 35.5112C34.1253 35.2592 33.5143 34.4857 33.3056 33.9037C33.2639 33.7441 33.2373 33.5808 33.2259 33.4176C33.9469 34.397 35.5141 33.9428 35.5141 32.8428Z" fill="#EAEAEA"/>
<path d="M18.023 40.8296C18.023 42.1177 19.7989 42.7741 20.3985 43.9735L20.4061 43.9912L20.4137 43.9735C21.0132 42.7741 22.793 42.1177 22.793 40.8331C22.793 39.7544 21.2713 39.3393 20.5275 40.2406C20.5123 40.2867 20.5275 39.9531 20.5768 39.7686C20.7552 39.2151 21.3965 38.4096 21.7077 38.1612C21.2751 38.509 19.5295 38.5054 19.1007 38.1612C19.4118 38.4131 20.0228 39.1867 20.2315 39.7686C20.2733 39.9283 20.2998 40.0915 20.3112 40.2548C19.5902 39.2754 18.023 39.7296 18.023 40.8296Z" fill="#EAEAEA"/>
<path d="M29.1538 27.8076C29.1538 26.5195 27.3778 25.8631 26.7783 24.6637L26.7707 24.646L26.7631 24.6637C26.1635 25.8631 24.3838 26.5195 24.3838 27.8041C24.3838 28.8828 25.9055 29.2979 26.6493 28.3966C26.6644 28.3505 26.6493 28.6841 26.5999 28.8686C26.4216 29.4221 25.7803 30.2276 25.4691 30.476C25.9017 30.1283 27.6473 30.1318 28.0761 30.476C27.7649 30.2241 27.154 29.4505 26.9452 28.8686C26.9035 28.7089 26.8769 28.5457 26.8656 28.3824C27.5866 29.3618 29.1538 28.9076 29.1538 27.8076Z" fill="#EAEAEA"/>
<path d="M24.3833 45.8648C24.3833 47.1528 26.1593 47.8093 26.7588 49.0086L26.7664 49.0264L26.774 49.0086C27.3736 47.8093 29.1533 47.1528 29.1533 45.8683C29.1533 44.7896 27.6316 44.3744 26.8879 45.2757C26.8727 45.3219 26.8879 44.9883 26.9372 44.8038C27.1155 44.2502 27.7569 43.4448 28.068 43.1964C27.6354 43.5441 25.8898 43.5406 25.461 43.1964C25.7722 43.4483 26.3832 44.2219 26.5919 44.8038C26.6336 44.9635 26.6602 45.1267 26.6716 45.2899C25.9506 44.3106 24.3833 44.7648 24.3833 45.8648Z" fill="#EAEAEA"/>
<path d="M22.7934 32.8428C22.7934 31.5547 21.0175 30.8982 20.4179 29.6989L20.4103 29.6812L20.4027 29.6989C19.8032 30.8982 18.0234 31.5547 18.0234 32.8392C18.0234 33.9179 19.5451 34.3331 20.2889 33.4318C20.3041 33.3857 20.2889 33.7192 20.2396 33.9037C20.0612 34.4573 19.4199 35.2628 19.1087 35.5112C19.5413 35.1634 21.2869 35.167 21.7157 35.5112C21.4046 35.2592 20.7936 34.4857 20.5849 33.9037C20.5431 33.7441 20.5166 33.5808 20.5052 33.4176C21.2262 34.397 22.7934 33.9428 22.7934 32.8428Z" fill="#EAEAEA"/>
<path d="M30.7437 40.8296C30.7437 42.1177 32.5196 42.7741 33.1192 43.9735L33.1268 43.9912L33.1344 43.9735C33.7339 42.7741 35.5137 42.1177 35.5137 40.8331C35.5137 39.7544 33.992 39.3393 33.2482 40.2406C33.233 40.2867 33.2482 39.9531 33.2975 39.7686C33.4759 39.2151 34.1172 38.4096 34.4284 38.1612C33.9958 38.509 32.2502 38.5054 31.8214 38.1612C32.1325 38.4131 32.7435 39.1867 32.9522 39.7686C32.994 39.9283 33.0205 40.0915 33.0319 40.2548C32.3109 39.2754 30.7437 39.7296 30.7437 40.8296Z" fill="#EAEAEA"/>
<path d="M30.7437 50.8994C30.7437 52.1875 32.5196 52.8439 33.1192 54.0433L33.1268 54.061L33.1344 54.0433C33.7339 52.8439 35.5137 52.1875 35.5137 50.903C35.5137 49.8243 33.992 49.4091 33.2482 50.3104C33.233 50.3565 33.2482 50.023 33.2975 49.8385C33.4759 49.2849 34.1172 48.4794 34.4284 48.231C33.9958 48.5788 32.2502 48.5752 31.8214 48.231C32.1325 48.483 32.7435 49.2565 32.9522 49.8385C32.994 49.9981 33.0205 50.1614 33.0319 50.3246C32.3109 49.3452 30.7437 49.7994 30.7437 50.8994Z" fill="#EAEAEA"/>
<path d="M18.023 50.8994C18.023 52.1875 19.7989 52.8439 20.3985 54.0433L20.4061 54.061L20.4137 54.0433C21.0132 52.8439 22.793 52.1875 22.793 50.903C22.793 49.8243 21.2713 49.4091 20.5275 50.3104C20.5123 50.3565 20.5275 50.023 20.5768 49.8385C20.7552 49.2849 21.3965 48.4794 21.7077 48.231C21.2751 48.5788 19.5295 48.5752 19.1007 48.231C19.4118 48.483 20.0228 49.2565 20.2315 49.8385C20.2733 49.9981 20.2998 50.1614 20.3112 50.3246C19.5902 49.3452 18.023 49.7994 18.023 50.8994Z" fill="#EAEAEA"/>
</g>
<defs>
<clipPath id="clip0_3238_56817">
<rect width="53" height="74" fill="white" transform="translate(0.268555)"/>
</clipPath>
</defs>
</svg>
