<svg width="122" height="40" viewBox="0 0 122 40" fill="none" xmlns="http://www.w3.org/2000/svg">
<path d="M61.021 0H90.3221C64.8914 15.392 30.0162 15.952 0 9.152V0H4.83793C22.6752 6.368 43.31 6.976 61.021 0Z" fill="#B44646"/>
<path d="M94.55 0H112.892C110.345 1.49079 107.865 3.06962 105.381 4.65064C98.6948 8.90675 91.9835 13.1787 83.8855 15.792C74.8279 18.973 64.7287 19.159 54.898 19.3401C53.9986 19.3567 53.1014 19.3732 52.2075 19.392C67.7941 14.96 82.6234 8.992 94.55 0Z" fill="#B44646"/>
<path d="M122 1.21641C92.3625 27.5364 41.9639 32.8644 0.000119416 23.3924V40.0004H40.8281C70.066 35.5844 99.1777 27.4084 122 12.4164V1.21641Z" fill="#B44646"/>
<path d="M97.7894 40.0004C106.519 36.2884 114.701 31.8084 122 26.6084V40.0004H97.7894Z" fill="#B44646"/>
<path d="M15.1218 15.8469C12.7081 15.5488 10.2959 15.2509 7.88831 14.9438C21.8973 23.3918 40.4918 25.9838 57.8452 23.2158C44.0409 19.4186 29.5572 17.6298 15.1218 15.8469Z" fill="#B44646"/>
<path d="M63.8398 40.0005C84.6429 34.6725 104.647 27.1365 122 16.8645V22.1445C107.57 30.0005 91.0163 35.3125 74.4622 40.0005H63.8398Z" fill="#B44646"/>
</svg>
