<svg width="24" height="25" viewBox="0 0 24 25" fill="none" xmlns="http://www.w3.org/2000/svg">
<rect y="0.5" width="24" height="24" rx="12" fill="#080808"/>
<path d="M17.1732 10.1511C18.0287 10.1057 18.5849 9.9327 19.2392 9.57323C20.0994 9.10076 20.4644 7.61812 20.4644 7.61812C18.3522 9.03743 15.4643 9.33767 15.4643 9.33767C14.6038 10.7169 13.811 11.5242 13.1477 11.9926C13.0386 11.9292 12.9407 11.8485 12.8577 11.7535C12.6523 11.4828 12.6285 11.2076 12.6351 11.161C12.6417 11.1143 12.6899 11.0387 12.7994 11.0054C12.8366 10.9922 12.8764 10.9881 12.9155 10.9933C12.9546 10.9985 12.9919 11.0129 13.0242 11.0354C12.9922 10.8443 12.9744 10.7529 12.8621 10.6582C12.7578 10.5706 12.568 10.5572 12.568 10.5572C12.4727 10.4803 12.3583 10.4305 12.2369 10.4131C11.9181 10.3686 11.7075 10.5056 11.558 10.6448C11.3584 10.8307 11.3427 11.1771 11.199 11.5747C11.1344 11.7503 11.0088 11.897 10.8449 11.988C10.1832 11.5185 9.39342 10.712 8.53597 9.33822C8.53597 9.33822 5.64813 9.03798 3.53613 7.61866C3.53613 7.61866 3.90091 9.1013 4.7611 9.57377C5.41562 9.93324 5.97183 10.1063 6.82709 10.1516C6.82709 10.1516 5.67387 10.2501 4.34867 9.61362C4.34867 9.61362 5.09357 10.7837 5.79464 11.1659C6.49572 11.548 7.37125 11.6989 7.99428 11.6681C7.99428 11.6681 6.91062 11.9282 6.01017 11.548C6.01017 11.548 6.95608 12.7893 8.65071 12.749C8.65071 12.749 8.10108 12.8873 7.58869 12.7959C7.58869 12.7959 8.36837 13.4545 9.01275 13.5629C9.01275 13.5629 9.27292 13.6145 9.81078 13.5563C9.64501 13.6589 9.45457 13.715 9.2595 13.7187C9.2595 13.7187 9.80996 14.0463 10.2197 14.082C10.3283 14.0892 10.4373 14.0848 10.545 14.0689C10.4657 14.1169 10.3781 14.1495 10.2867 14.165C10.2867 14.165 10.8331 14.3591 11.1905 14.1898C10.7937 15.3889 10.5012 15.7484 10.5012 15.7484L10.6063 15.8734C10.6172 15.8865 10.631 15.8969 10.6466 15.9038C10.6622 15.9107 10.6793 15.9138 10.6963 15.9129C10.7134 15.9121 10.73 15.9073 10.7448 15.8989C10.7597 15.8905 10.7724 15.8788 10.7819 15.8646L11.0174 15.5426L10.7416 16.0412L10.8575 16.1567C10.8695 16.1688 10.8841 16.178 10.9003 16.1835C10.9165 16.1889 10.9338 16.1905 10.9507 16.1882C10.9676 16.1858 10.9837 16.1795 10.9978 16.1699C11.0119 16.1602 11.0234 16.1473 11.0316 16.1324L11.1858 15.8766L10.981 16.3447L11.1075 16.4487C11.1206 16.4597 11.1361 16.4674 11.1528 16.4713C11.1694 16.4752 11.1868 16.4752 11.2034 16.4712C11.2201 16.4672 11.2355 16.4594 11.2486 16.4484C11.2617 16.4374 11.272 16.4235 11.2787 16.4078L11.3734 16.2099L11.257 16.5838L11.394 16.6731C11.4082 16.6823 11.4243 16.6881 11.4412 16.69C11.458 16.6919 11.475 16.6899 11.491 16.6841C11.5069 16.6783 11.5213 16.669 11.5329 16.6567C11.5446 16.6445 11.5533 16.6297 11.5583 16.6136L11.6678 16.2986L11.5873 16.7244C11.5814 16.756 11.5848 16.7887 11.5971 16.8184C11.6094 16.8482 11.63 16.8737 11.6566 16.892L11.8959 17.0192L11.9885 16.4187L12.0808 17.0192L12.3204 16.892C12.347 16.8737 12.3677 16.8482 12.3799 16.8184C12.3922 16.7887 12.3956 16.756 12.3897 16.7244L12.3122 16.2986L12.4217 16.6136C12.4267 16.6297 12.4354 16.6445 12.4471 16.6567C12.4588 16.669 12.4731 16.6783 12.489 16.6841C12.505 16.6899 12.522 16.6919 12.5389 16.69C12.5557 16.6881 12.5718 16.6823 12.5861 16.6731L12.723 16.5838L12.6066 16.2099L12.7014 16.4078C12.7081 16.4235 12.7183 16.4374 12.7314 16.4484C12.7445 16.4594 12.76 16.4672 12.7766 16.4712C12.7932 16.4752 12.8106 16.4752 12.8272 16.4713C12.8439 16.4674 12.8594 16.4597 12.8725 16.4487L12.999 16.3447L12.7939 15.8766L12.9484 16.1324C12.9566 16.1473 12.9682 16.1602 12.9822 16.1699C12.9963 16.1795 13.0124 16.1858 13.0293 16.1882C13.0463 16.1905 13.0635 16.1889 13.0797 16.1835C13.0959 16.178 13.1106 16.1688 13.1226 16.1567L13.2384 16.0412L12.9604 15.5428L13.1959 15.8649C13.2054 15.8791 13.2181 15.8909 13.233 15.8993C13.2479 15.9077 13.2646 15.9126 13.2816 15.9134C13.2987 15.9142 13.3158 15.9111 13.3314 15.9042C13.3471 15.8973 13.3609 15.8868 13.3718 15.8736L13.4769 15.7486C13.4769 15.7486 13.1833 15.3881 12.7854 14.1836V14.1806C13.1414 14.3689 13.7119 14.1664 13.7119 14.1664C13.6206 14.1508 13.5331 14.1182 13.4539 14.0703C13.5615 14.0862 13.6705 14.0906 13.779 14.0834C14.1898 14.0471 14.7391 13.7201 14.7391 13.7201C14.5441 13.7163 14.3536 13.6602 14.1879 13.5577C14.7257 13.6158 14.9859 13.5642 14.9859 13.5642C15.6316 13.4551 16.4099 12.7973 16.4099 12.7973C15.8976 12.8887 15.3479 12.7503 15.3479 12.7503C17.0426 12.7899 17.9887 11.5494 17.9887 11.5494C17.0883 11.9296 16.0046 11.6695 16.0046 11.6695C16.6274 11.7003 17.5032 11.5491 18.204 11.1672C18.9048 10.7854 19.6516 9.61335 19.6516 9.61335C18.3264 10.2496 17.1732 10.1511 17.1732 10.1511Z" fill="url(#paint0_linear_9530_81964)"/>
<path d="M18.3174 11.795C18.2952 11.8242 18.0052 12.1968 17.4717 12.5453C17.4586 15.5415 15.0092 17.9745 12.0003 17.9745C8.99139 17.9745 6.54173 15.5412 6.52858 12.5453C5.99511 12.1968 5.70537 11.8242 5.68291 11.795L5.47889 11.527C5.42899 11.856 5.40399 12.1883 5.40412 12.521C5.41535 14.2572 6.11523 15.9185 7.35101 17.1423C8.58678 18.366 10.2581 19.0529 12.0001 19.0529C13.7422 19.0529 15.4135 18.366 16.6493 17.1423C17.8851 15.9185 18.5849 14.2572 18.5962 12.521C18.5962 12.1883 18.5713 11.856 18.5217 11.527L18.3174 11.795Z" fill="url(#paint1_linear_9530_81964)"/>
<path d="M6.91719 8.60946C7.32496 8.71399 7.6881 8.78769 7.97017 8.83791C8.4819 8.27999 9.10462 7.83441 9.79864 7.52956C10.4927 7.22471 11.2428 7.06727 12.0012 7.06727C12.7597 7.06727 13.5098 7.22471 14.2038 7.52956C14.8979 7.83441 15.5206 8.27999 16.0323 8.83791C16.3144 8.78769 16.6775 8.71399 17.0853 8.60946C17.1442 8.59417 17.205 8.57807 17.2671 8.56114C17.0823 8.31813 16.881 8.08804 16.6646 7.8725C16.0522 7.26201 15.3251 6.77773 14.5248 6.44733C13.7246 6.11693 12.8669 5.94687 12.0007 5.94687C11.1345 5.94687 10.2768 6.11693 9.47654 6.44733C8.67629 6.77773 7.94919 7.26201 7.33674 7.8725C7.12034 8.08804 6.91904 8.31813 6.73425 8.56114C6.79642 8.57807 6.85721 8.59417 6.91719 8.60946Z" fill="url(#paint2_linear_9530_81964)"/>
<path d="M23.9183 13.9075C23.9722 13.4458 24 12.9761 24 12.5C24 11.9271 23.9598 11.3635 23.8822 10.812C23.8273 10.812 23.7524 10.8119 23.6927 10.8121L22.8759 10.815C22.649 10.8157 22.465 11.0008 22.4654 11.2276L22.4689 13.5003L22.4697 13.5268C22.4705 13.5389 22.4717 13.5509 22.4736 13.5627L22.4795 13.5926C22.4827 13.607 22.4866 13.6212 22.4917 13.635C22.4957 13.6465 22.5 13.6579 22.5051 13.669C22.5251 13.7137 22.5535 13.7547 22.5892 13.7902C22.6353 13.8364 22.6903 13.8702 22.7509 13.89C22.7922 13.9037 22.8362 13.9107 22.881 13.9106L23.6982 13.9076C23.7711 13.9074 23.8576 13.9074 23.9183 13.9075Z" fill="url(#paint3_linear_9530_81964)"/>
<path d="M21.5096 19.8199L20.7481 19.0621C20.5872 18.9022 20.3261 18.9027 20.1657 19.0634L18.5616 20.6731C18.5357 20.6988 18.514 20.7273 18.4963 20.758C18.481 20.7843 18.4688 20.8123 18.4598 20.8413C18.448 20.8804 18.4417 20.9214 18.4417 20.9633C18.4417 21.0734 18.4845 21.1769 18.5628 21.2547L19.321 22.0088C20.1412 21.3764 20.8772 20.6402 21.5096 19.8199Z" fill="url(#paint4_linear_9530_81964)"/>
<path d="M13.5003 24.4071C13.5004 24.3463 13.5004 24.2615 13.5001 24.1938L13.497 23.0739C13.4966 22.8472 13.3114 22.6629 13.0845 22.6633L10.8119 22.6671C10.7022 22.6672 10.5996 22.71 10.5221 22.7874C10.4442 22.8654 10.4014 22.969 10.4018 23.0792L10.4045 24.1991V24.3948C10.9265 24.4642 11.4591 24.5 12 24.5C12.5081 24.5 13.0088 24.4684 13.5003 24.4071Z" fill="url(#paint5_linear_9530_81964)"/>
<path d="M4.67956 22.0092L5.43624 21.2488C5.59589 21.088 5.5955 20.8269 5.43466 20.6667L3.82511 19.0624C3.78106 19.0185 3.72876 18.9857 3.67174 18.9657C3.62848 18.9504 3.58247 18.9425 3.53489 18.9425C3.52388 18.9425 3.51287 18.9429 3.50225 18.9437L3.46804 18.9479L3.44877 18.9515L3.4181 18.9592C3.35282 18.9785 3.29304 19.014 3.2435 19.0638L2.49082 19.8205C3.1232 20.6407 3.85933 21.3768 4.67956 22.0092Z" fill="url(#paint6_linear_9530_81964)"/>
<path d="M0.0820158 13.9104C0.0278509 13.4478 0 12.9772 0 12.5C0 11.9281 0.0400089 11.3655 0.117381 10.8149L1.14317 10.8122C1.25328 10.8119 1.35709 10.8546 1.43496 10.9325C1.51243 11.01 1.5549 11.113 1.55529 11.2224L1.55883 13.4951C1.55922 13.722 1.37518 13.907 1.14828 13.9076L0.0820158 13.9104Z" fill="url(#paint7_linear_9530_81964)"/>
<path d="M2.48951 5.18119L3.24939 5.93702C3.26906 5.95678 3.29029 5.97409 3.3131 5.98893C3.34063 6.00712 3.37012 6.02157 3.4004 6.03248C3.43461 6.04477 3.4704 6.05244 3.50658 6.05529C3.53096 6.05726 3.55534 6.05706 3.57933 6.0548C3.67135 6.04595 3.76101 6.00623 3.8314 5.93574L5.43584 4.32599C5.48539 4.27615 5.52078 4.21588 5.53966 4.15011C5.55028 4.11344 5.55578 4.0751 5.55578 4.03587C5.55578 3.97689 5.5432 3.91987 5.5196 3.86756C5.49916 3.82224 5.47045 3.78056 5.43427 3.74448L4.67806 2.99192C3.85787 3.62447 3.1218 4.36078 2.48951 5.18119Z" fill="url(#paint8_linear_9530_81964)"/>
<path d="M10.5922 0.581702L10.5948 1.64877C10.5956 1.87548 10.7805 2.05981 11.0074 2.05942L13.2799 2.05558C13.3896 2.05539 13.4927 2.01272 13.5701 1.93525C13.6154 1.89013 13.6488 1.83635 13.6685 1.77766C13.683 1.73499 13.6905 1.68986 13.6905 1.64346L13.6876 0.617734C13.1362 0.540131 12.5728 0.5 12 0.5C11.5237 0.5 11.054 0.527743 10.5922 0.581702Z" fill="url(#paint9_linear_9530_81964)"/>
<path d="M19.3183 2.98914L18.5612 3.75028C18.4012 3.91112 18.4016 4.17223 18.5624 4.33238L20.172 5.93673C20.2498 6.014 20.3529 6.05657 20.4622 6.05657C20.5723 6.05657 20.6761 6.01351 20.7536 5.93535L21.5077 5.17758C20.8751 4.35742 20.1387 3.62139 19.3183 2.98914Z" fill="url(#paint10_linear_9530_81964)"/>
<defs>
<linearGradient id="paint0_linear_9530_81964" x1="3.53613" y1="19.2933" x2="20.4644" y2="19.2933" gradientUnits="userSpaceOnUse">
<stop stop-color="#F8EEB8"/>
<stop offset="0.5625" stop-color="#DBB370"/>
<stop offset="1" stop-color="#8E5B2D"/>
</linearGradient>
<linearGradient id="paint1_linear_9530_81964" x1="3.53613" y1="19.2933" x2="20.4644" y2="19.2933" gradientUnits="userSpaceOnUse">
<stop stop-color="#F8EEB8"/>
<stop offset="0.5625" stop-color="#DBB370"/>
<stop offset="1" stop-color="#8E5B2D"/>
</linearGradient>
<linearGradient id="paint2_linear_9530_81964" x1="3.53613" y1="19.2933" x2="20.4644" y2="19.2933" gradientUnits="userSpaceOnUse">
<stop stop-color="#F8EEB8"/>
<stop offset="0.5625" stop-color="#DBB370"/>
<stop offset="1" stop-color="#8E5B2D"/>
</linearGradient>
<linearGradient id="paint3_linear_9530_81964" x1="0" y1="24.9403" x2="24" y2="24.9403" gradientUnits="userSpaceOnUse">
<stop stop-color="#F8EEB8"/>
<stop offset="0.5625" stop-color="#DBB370"/>
<stop offset="1" stop-color="#8E5B2D"/>
</linearGradient>
<linearGradient id="paint4_linear_9530_81964" x1="0" y1="24.9403" x2="24" y2="24.9403" gradientUnits="userSpaceOnUse">
<stop stop-color="#F8EEB8"/>
<stop offset="0.5625" stop-color="#DBB370"/>
<stop offset="1" stop-color="#8E5B2D"/>
</linearGradient>
<linearGradient id="paint5_linear_9530_81964" x1="0" y1="24.9403" x2="24" y2="24.9403" gradientUnits="userSpaceOnUse">
<stop stop-color="#F8EEB8"/>
<stop offset="0.5625" stop-color="#DBB370"/>
<stop offset="1" stop-color="#8E5B2D"/>
</linearGradient>
<linearGradient id="paint6_linear_9530_81964" x1="0" y1="24.9403" x2="24" y2="24.9403" gradientUnits="userSpaceOnUse">
<stop stop-color="#F8EEB8"/>
<stop offset="0.5625" stop-color="#DBB370"/>
<stop offset="1" stop-color="#8E5B2D"/>
</linearGradient>
<linearGradient id="paint7_linear_9530_81964" x1="0" y1="24.9403" x2="24" y2="24.9403" gradientUnits="userSpaceOnUse">
<stop stop-color="#F8EEB8"/>
<stop offset="0.5625" stop-color="#DBB370"/>
<stop offset="1" stop-color="#8E5B2D"/>
</linearGradient>
<linearGradient id="paint8_linear_9530_81964" x1="0" y1="24.9403" x2="24" y2="24.9403" gradientUnits="userSpaceOnUse">
<stop stop-color="#F8EEB8"/>
<stop offset="0.5625" stop-color="#DBB370"/>
<stop offset="1" stop-color="#8E5B2D"/>
</linearGradient>
<linearGradient id="paint9_linear_9530_81964" x1="0" y1="24.9403" x2="24" y2="24.9403" gradientUnits="userSpaceOnUse">
<stop stop-color="#F8EEB8"/>
<stop offset="0.5625" stop-color="#DBB370"/>
<stop offset="1" stop-color="#8E5B2D"/>
</linearGradient>
<linearGradient id="paint10_linear_9530_81964" x1="0" y1="24.9403" x2="24" y2="24.9403" gradientUnits="userSpaceOnUse">
<stop stop-color="#F8EEB8"/>
<stop offset="0.5625" stop-color="#DBB370"/>
<stop offset="1" stop-color="#8E5B2D"/>
</linearGradient>
</defs>
</svg>
