<svg width="112" height="20" viewBox="0 0 112 20" fill="none" xmlns="http://www.w3.org/2000/svg">
<g id="Rectangle 3810">
<path d="M7.14229 3.34152C7.8223 1.62631 9.48043 0.5 11.3255 0.5H100.674C102.52 0.5 104.178 1.62631 104.858 3.34152L111.264 19.5H0.736092L7.14229 3.34152Z" fill="#03222D"/>
<path d="M7.14229 3.34152C7.8223 1.62631 9.48043 0.5 11.3255 0.5H100.674C102.52 0.5 104.178 1.62631 104.858 3.34152L111.264 19.5H0.736092L7.14229 3.34152Z" stroke="#D9D9D9"/>
<path d="M7.14229 3.34152C7.8223 1.62631 9.48043 0.5 11.3255 0.5H100.674C102.52 0.5 104.178 1.62631 104.858 3.34152L111.264 19.5H0.736092L7.14229 3.34152Z" stroke="#105453"/>
</g>
</svg>
