<svg width="382" height="321" viewBox="0 0 382 321" fill="none" xmlns="http://www.w3.org/2000/svg">
<path d="M144.59 0.5H237.443C239.132 0.5 240.679 1.4454 241.449 2.94833L244.81 9.5103C245.75 11.3457 247.638 12.5009 249.7 12.5027L375.006 12.6135C378.593 12.6166 381.5 15.5259 381.5 19.1135V313.117C381.5 316.708 378.589 319.619 374.998 319.617L6.99796 319.502C3.40891 319.501 0.5 316.591 0.5 313.002V19C0.5 15.4101 3.41015 12.5 7 12.5H132.41C134.493 12.5 136.398 11.323 137.329 9.45968L140.565 2.98754C141.328 1.46301 142.886 0.5 144.59 0.5Z" fill="#021F25" fill-opacity="0.8" stroke="url(#paint0_linear_8375_56813)"/>
<defs>
<linearGradient id="paint0_linear_8375_56813" x1="191" y1="0" x2="191" y2="267" gradientUnits="userSpaceOnUse">
<stop stop-color="#1B9477"/>
<stop offset="1" stop-color="#105453" stop-opacity="0"/>
</linearGradient>
</defs>
</svg>
