<svg width="150" height="150" viewBox="0 0 150 150" fill="none" xmlns="http://www.w3.org/2000/svg">
<rect width="150" height="150" rx="75" fill="#9746B5"/>
<path d="M56.2933 98V48.65H77.8533C83.0333 48.65 87.0467 49.7933 89.8933 52.08C92.74 54.32 94.1633 57.4467 94.1633 61.46C94.1633 64.12 93.4867 66.4067 92.1333 68.32C90.78 70.2333 88.9133 71.6333 86.5333 72.52C89.3333 73.3133 91.5033 74.7133 93.0433 76.72C94.63 78.68 95.4233 81.1767 95.4233 84.21C95.4233 88.5967 93.93 92.0033 90.9433 94.43C88.0033 96.81 83.8967 98 78.6233 98H56.2933ZM64.9033 69.58H76.3133C82.4267 69.58 85.4833 67.2233 85.4833 62.51C85.4833 57.7967 82.4267 55.44 76.3133 55.44H64.9033V69.58ZM64.9033 91.21H77.5033C83.6633 91.21 86.7433 88.7367 86.7433 83.79C86.7433 78.8433 83.6633 76.37 77.5033 76.37H64.9033V91.21Z" fill="white"/>
<rect width="150" height="150" rx="75" fill="#FF0092"/>
<path d="M56.2933 98V48.65H77.8533C83.0333 48.65 87.0467 49.7933 89.8933 52.08C92.74 54.32 94.1633 57.4467 94.1633 61.46C94.1633 64.12 93.4867 66.4067 92.1333 68.32C90.78 70.2333 88.9133 71.6333 86.5333 72.52C89.3333 73.3133 91.5033 74.7133 93.0433 76.72C94.63 78.68 95.4233 81.1767 95.4233 84.21C95.4233 88.5967 93.93 92.0033 90.9433 94.43C88.0033 96.81 83.8967 98 78.6233 98H56.2933ZM64.9033 69.58H76.3133C82.4267 69.58 85.4833 67.2233 85.4833 62.51C85.4833 57.7967 82.4267 55.44 76.3133 55.44H64.9033V69.58ZM64.9033 91.21H77.5033C83.6633 91.21 86.7433 88.7367 86.7433 83.79C86.7433 78.8433 83.6633 76.37 77.5033 76.37H64.9033V91.21Z" fill="white"/>
<rect width="150" height="150" rx="75" fill="#F57731"/>
<path d="M56.2933 98V48.65H77.8533C83.0333 48.65 87.0467 49.7933 89.8933 52.08C92.74 54.32 94.1633 57.4467 94.1633 61.46C94.1633 64.12 93.4867 66.4067 92.1333 68.32C90.78 70.2333 88.9133 71.6333 86.5333 72.52C89.3333 73.3133 91.5033 74.7133 93.0433 76.72C94.63 78.68 95.4233 81.1767 95.4233 84.21C95.4233 88.5967 93.93 92.0033 90.9433 94.43C88.0033 96.81 83.8967 98 78.6233 98H56.2933ZM64.9033 69.58H76.3133C82.4267 69.58 85.4833 67.2233 85.4833 62.51C85.4833 57.7967 82.4267 55.44 76.3133 55.44H64.9033V69.58ZM64.9033 91.21H77.5033C83.6633 91.21 86.7433 88.7367 86.7433 83.79C86.7433 78.8433 83.6633 76.37 77.5033 76.37H64.9033V91.21Z" fill="white"/>
<rect width="150" height="150" rx="75" fill="#4ED26C"/>
<path d="M56.2933 98V48.65H77.8533C83.0333 48.65 87.0467 49.7933 89.8933 52.08C92.74 54.32 94.1633 57.4467 94.1633 61.46C94.1633 64.12 93.4867 66.4067 92.1333 68.32C90.78 70.2333 88.9133 71.6333 86.5333 72.52C89.3333 73.3133 91.5033 74.7133 93.0433 76.72C94.63 78.68 95.4233 81.1767 95.4233 84.21C95.4233 88.5967 93.93 92.0033 90.9433 94.43C88.0033 96.81 83.8967 98 78.6233 98H56.2933ZM64.9033 69.58H76.3133C82.4267 69.58 85.4833 67.2233 85.4833 62.51C85.4833 57.7967 82.4267 55.44 76.3133 55.44H64.9033V69.58ZM64.9033 91.21H77.5033C83.6633 91.21 86.7433 88.7367 86.7433 83.79C86.7433 78.8433 83.6633 76.37 77.5033 76.37H64.9033V91.21Z" fill="white"/>
<rect width="150" height="150" rx="75" fill="#E3C549"/>
<path d="M56.2933 98V48.65H77.8533C83.0333 48.65 87.0467 49.7933 89.8933 52.08C92.74 54.32 94.1633 57.4467 94.1633 61.46C94.1633 64.12 93.4867 66.4067 92.1333 68.32C90.78 70.2333 88.9133 71.6333 86.5333 72.52C89.3333 73.3133 91.5033 74.7133 93.0433 76.72C94.63 78.68 95.4233 81.1767 95.4233 84.21C95.4233 88.5967 93.93 92.0033 90.9433 94.43C88.0033 96.81 83.8967 98 78.6233 98H56.2933ZM64.9033 69.58H76.3133C82.4267 69.58 85.4833 67.2233 85.4833 62.51C85.4833 57.7967 82.4267 55.44 76.3133 55.44H64.9033V69.58ZM64.9033 91.21H77.5033C83.6633 91.21 86.7433 88.7367 86.7433 83.79C86.7433 78.8433 83.6633 76.37 77.5033 76.37H64.9033V91.21Z" fill="white"/>
<rect width="150" height="150" rx="75" fill="#43B581"/>
<path d="M56.2933 98V48.65H77.8533C83.0333 48.65 87.0467 49.7933 89.8933 52.08C92.74 54.32 94.1633 57.4467 94.1633 61.46C94.1633 64.12 93.4867 66.4067 92.1333 68.32C90.78 70.2333 88.9133 71.6333 86.5333 72.52C89.3333 73.3133 91.5033 74.7133 93.0433 76.72C94.63 78.68 95.4233 81.1767 95.4233 84.21C95.4233 88.5967 93.93 92.0033 90.9433 94.43C88.0033 96.81 83.8967 98 78.6233 98H56.2933ZM64.9033 69.58H76.3133C82.4267 69.58 85.4833 67.2233 85.4833 62.51C85.4833 57.7967 82.4267 55.44 76.3133 55.44H64.9033V69.58ZM64.9033 91.21H77.5033C83.6633 91.21 86.7433 88.7367 86.7433 83.79C86.7433 78.8433 83.6633 76.37 77.5033 76.37H64.9033V91.21Z" fill="white"/>
<rect width="150" height="150" rx="75" fill="#E84D62"/>
<path d="M56.2933 98V48.65H77.8533C83.0333 48.65 87.0467 49.7933 89.8933 52.08C92.74 54.32 94.1633 57.4467 94.1633 61.46C94.1633 64.12 93.4867 66.4067 92.1333 68.32C90.78 70.2333 88.9133 71.6333 86.5333 72.52C89.3333 73.3133 91.5033 74.7133 93.0433 76.72C94.63 78.68 95.4233 81.1767 95.4233 84.21C95.4233 88.5967 93.93 92.0033 90.9433 94.43C88.0033 96.81 83.8967 98 78.6233 98H56.2933ZM64.9033 69.58H76.3133C82.4267 69.58 85.4833 67.2233 85.4833 62.51C85.4833 57.7967 82.4267 55.44 76.3133 55.44H64.9033V69.58ZM64.9033 91.21H77.5033C83.6633 91.21 86.7433 88.7367 86.7433 83.79C86.7433 78.8433 83.6633 76.37 77.5033 76.37H64.9033V91.21Z" fill="white"/>
<rect width="150" height="150" rx="75" fill="#02803A"/>
<path d="M56.2933 98V48.65H77.8533C83.0333 48.65 87.0467 49.7933 89.8933 52.08C92.74 54.32 94.1633 57.4467 94.1633 61.46C94.1633 64.12 93.4867 66.4067 92.1333 68.32C90.78 70.2333 88.9133 71.6333 86.5333 72.52C89.3333 73.3133 91.5033 74.7133 93.0433 76.72C94.63 78.68 95.4233 81.1767 95.4233 84.21C95.4233 88.5967 93.93 92.0033 90.9433 94.43C88.0033 96.81 83.8967 98 78.6233 98H56.2933ZM64.9033 69.58H76.3133C82.4267 69.58 85.4833 67.2233 85.4833 62.51C85.4833 57.7967 82.4267 55.44 76.3133 55.44H64.9033V69.58ZM64.9033 91.21H77.5033C83.6633 91.21 86.7433 88.7367 86.7433 83.79C86.7433 78.8433 83.6633 76.37 77.5033 76.37H64.9033V91.21Z" fill="white"/>
<rect width="150" height="150" rx="75" fill="#FF73FA"/>
<path d="M56.2933 98V48.65H77.8533C83.0333 48.65 87.0467 49.7933 89.8933 52.08C92.74 54.32 94.1633 57.4467 94.1633 61.46C94.1633 64.12 93.4867 66.4067 92.1333 68.32C90.78 70.2333 88.9133 71.6333 86.5333 72.52C89.3333 73.3133 91.5033 74.7133 93.0433 76.72C94.63 78.68 95.4233 81.1767 95.4233 84.21C95.4233 88.5967 93.93 92.0033 90.9433 94.43C88.0033 96.81 83.8967 98 78.6233 98H56.2933ZM64.9033 69.58H76.3133C82.4267 69.58 85.4833 67.2233 85.4833 62.51C85.4833 57.7967 82.4267 55.44 76.3133 55.44H64.9033V69.58ZM64.9033 91.21H77.5033C83.6633 91.21 86.7433 88.7367 86.7433 83.79C86.7433 78.8433 83.6633 76.37 77.5033 76.37H64.9033V91.21Z" fill="white"/>
<rect width="150" height="150" rx="75" fill="#3DBCE5"/>
<path d="M56.2933 98V48.65H77.8533C83.0333 48.65 87.0467 49.7933 89.8933 52.08C92.74 54.32 94.1633 57.4467 94.1633 61.46C94.1633 64.12 93.4867 66.4067 92.1333 68.32C90.78 70.2333 88.9133 71.6333 86.5333 72.52C89.3333 73.3133 91.5033 74.7133 93.0433 76.72C94.63 78.68 95.4233 81.1767 95.4233 84.21C95.4233 88.5967 93.93 92.0033 90.9433 94.43C88.0033 96.81 83.8967 98 78.6233 98H56.2933ZM64.9033 69.58H76.3133C82.4267 69.58 85.4833 67.2233 85.4833 62.51C85.4833 57.7967 82.4267 55.44 76.3133 55.44H64.9033V69.58ZM64.9033 91.21H77.5033C83.6633 91.21 86.7433 88.7367 86.7433 83.79C86.7433 78.8433 83.6633 76.37 77.5033 76.37H64.9033V91.21Z" fill="white"/>
<rect width="150" height="150" rx="75" fill="#FC3C37"/>
<path d="M56.2933 98V48.65H77.8533C83.0333 48.65 87.0467 49.7933 89.8933 52.08C92.74 54.32 94.1633 57.4467 94.1633 61.46C94.1633 64.12 93.4867 66.4067 92.1333 68.32C90.78 70.2333 88.9133 71.6333 86.5333 72.52C89.3333 73.3133 91.5033 74.7133 93.0433 76.72C94.63 78.68 95.4233 81.1767 95.4233 84.21C95.4233 88.5967 93.93 92.0033 90.9433 94.43C88.0033 96.81 83.8967 98 78.6233 98H56.2933ZM64.9033 69.58H76.3133C82.4267 69.58 85.4833 67.2233 85.4833 62.51C85.4833 57.7967 82.4267 55.44 76.3133 55.44H64.9033V69.58ZM64.9033 91.21H77.5033C83.6633 91.21 86.7433 88.7367 86.7433 83.79C86.7433 78.8433 83.6633 76.37 77.5033 76.37H64.9033V91.21Z" fill="white"/>
<rect width="150" height="150" rx="75" fill="#44DDBF"/>
<path d="M56.2933 98V48.65H77.8533C83.0333 48.65 87.0467 49.7933 89.8933 52.08C92.74 54.32 94.1633 57.4467 94.1633 61.46C94.1633 64.12 93.4867 66.4067 92.1333 68.32C90.78 70.2333 88.9133 71.6333 86.5333 72.52C89.3333 73.3133 91.5033 74.7133 93.0433 76.72C94.63 78.68 95.4233 81.1767 95.4233 84.21C95.4233 88.5967 93.93 92.0033 90.9433 94.43C88.0033 96.81 83.8967 98 78.6233 98H56.2933ZM64.9033 69.58H76.3133C82.4267 69.58 85.4833 67.2233 85.4833 62.51C85.4833 57.7967 82.4267 55.44 76.3133 55.44H64.9033V69.58ZM64.9033 91.21H77.5033C83.6633 91.21 86.7433 88.7367 86.7433 83.79C86.7433 78.8433 83.6633 76.37 77.5033 76.37H64.9033V91.21Z" fill="white"/>
<rect width="150" height="150" rx="75" fill="#9B84EE"/>
<path d="M56.2933 98V48.65H77.8533C83.0333 48.65 87.0467 49.7933 89.8933 52.08C92.74 54.32 94.1633 57.4467 94.1633 61.46C94.1633 64.12 93.4867 66.4067 92.1333 68.32C90.78 70.2333 88.9133 71.6333 86.5333 72.52C89.3333 73.3133 91.5033 74.7133 93.0433 76.72C94.63 78.68 95.4233 81.1767 95.4233 84.21C95.4233 88.5967 93.93 92.0033 90.9433 94.43C88.0033 96.81 83.8967 98 78.6233 98H56.2933ZM64.9033 69.58H76.3133C82.4267 69.58 85.4833 67.2233 85.4833 62.51C85.4833 57.7967 82.4267 55.44 76.3133 55.44H64.9033V69.58ZM64.9033 91.21H77.5033C83.6633 91.21 86.7433 88.7367 86.7433 83.79C86.7433 78.8433 83.6633 76.37 77.5033 76.37H64.9033V91.21Z" fill="white"/>
<rect width="150" height="150" rx="75" fill="#F47B68"/>
<path d="M56.2933 98V48.65H77.8533C83.0333 48.65 87.0467 49.7933 89.8933 52.08C92.74 54.32 94.1633 57.4467 94.1633 61.46C94.1633 64.12 93.4867 66.4067 92.1333 68.32C90.78 70.2333 88.9133 71.6333 86.5333 72.52C89.3333 73.3133 91.5033 74.7133 93.0433 76.72C94.63 78.68 95.4233 81.1767 95.4233 84.21C95.4233 88.5967 93.93 92.0033 90.9433 94.43C88.0033 96.81 83.8967 98 78.6233 98H56.2933ZM64.9033 69.58H76.3133C82.4267 69.58 85.4833 67.2233 85.4833 62.51C85.4833 57.7967 82.4267 55.44 76.3133 55.44H64.9033V69.58ZM64.9033 91.21H77.5033C83.6633 91.21 86.7433 88.7367 86.7433 83.79C86.7433 78.8433 83.6633 76.37 77.5033 76.37H64.9033V91.21Z" fill="white"/>
<rect width="150" height="150" rx="75" fill="#FAA61A"/>
<path d="M56.2933 98V48.65H77.8533C83.0333 48.65 87.0467 49.7933 89.8933 52.08C92.74 54.32 94.1633 57.4467 94.1633 61.46C94.1633 64.12 93.4867 66.4067 92.1333 68.32C90.78 70.2333 88.9133 71.6333 86.5333 72.52C89.3333 73.3133 91.5033 74.7133 93.0433 76.72C94.63 78.68 95.4233 81.1767 95.4233 84.21C95.4233 88.5967 93.93 92.0033 90.9433 94.43C88.0033 96.81 83.8967 98 78.6233 98H56.2933ZM64.9033 69.58H76.3133C82.4267 69.58 85.4833 67.2233 85.4833 62.51C85.4833 57.7967 82.4267 55.44 76.3133 55.44H64.9033V69.58ZM64.9033 91.21H77.5033C83.6633 91.21 86.7433 88.7367 86.7433 83.79C86.7433 78.8433 83.6633 76.37 77.5033 76.37H64.9033V91.21Z" fill="white"/>
</svg>
