<svg width="196" height="196" viewBox="0 0 196 196" fill="none" xmlns="http://www.w3.org/2000/svg">
<path d="M40.5352 85.3615C41.9842 85.3615 43.449 85.2814 44.8893 85.1229C53.9158 84.131 62.0823 80.2119 68.5051 73.7892C74.9278 67.3665 78.8469 59.1999 79.8388 50.1734C81.1589 38.1648 77.0278 26.3892 68.5051 17.8665C61.0365 10.3974 51.1061 6.28413 40.5435 6.28413C29.9809 6.28413 20.0509 10.397 12.5823 17.8665C5.11332 25.335 1 35.2654 1 45.828C1 56.3907 5.11288 66.3206 12.5823 73.7896C20.0444 81.2517 29.9717 85.3615 40.5352 85.3615ZM24.2535 29.5376C28.6045 25.1866 34.3898 22.7901 40.5435 22.7901C46.6967 22.7901 52.482 25.1866 56.8335 29.5376C61.7989 34.503 64.2058 41.3625 63.4373 48.3573C62.8669 53.5418 60.5223 58.4288 56.8335 62.118C53.1438 65.8068 48.2572 68.1519 43.0728 68.7219C42.235 68.8138 41.3825 68.8603 40.5396 68.8603C34.3859 68.8603 28.6019 66.4656 24.2539 62.118C15.2719 53.1355 15.2719 38.5201 24.2535 29.5376Z" fill="url(#paint0_linear_5_337)" fill-opacity="0.1"/>
<path d="M68.5051 128.495C62.0819 122.072 53.9158 118.153 44.8893 117.161C43.4494 117.003 41.9847 116.922 40.5356 116.922C29.9722 116.922 20.0444 121.032 12.5823 128.495C-2.83596 143.913 -2.83596 169 12.5823 184.418C20.0496 191.885 29.9804 195.999 40.5439 196H40.5474C51.1083 196 61.0365 191.888 68.5055 184.418C77.0282 175.895 81.1598 164.119 79.8392 152.111C78.8469 143.084 74.9278 134.918 68.5051 128.495ZM56.8339 172.746C52.4824 177.098 46.6976 179.494 40.5439 179.494C34.3903 179.494 28.605 177.098 24.2539 172.746C15.2719 163.764 15.2719 149.149 24.2539 140.167C28.6019 135.819 34.3864 133.424 40.54 133.424C41.3834 133.424 42.2355 133.47 43.0732 133.563C48.2581 134.133 53.1451 136.478 56.8339 140.167C60.5227 143.856 62.8678 148.742 63.4378 153.927C64.2063 160.921 61.7993 167.78 56.8339 172.746Z" fill="url(#paint1_linear_5_337)" fill-opacity="0.1"/>
<path d="M53.7547 143.245C50.7203 140.211 46.8626 138.359 42.5973 137.89C41.9168 137.815 41.2249 137.777 40.5396 137.777C35.5485 137.777 30.8582 139.719 27.3323 143.245C20.0479 150.53 20.0479 162.383 27.3323 169.668C30.8608 173.196 35.5528 175.14 40.5435 175.14C45.5341 175.14 50.2257 173.196 53.7547 169.668C57.7814 165.641 59.7329 160.077 59.1094 154.402C58.6409 150.138 56.7891 146.28 53.7547 143.245Z" fill="url(#paint2_linear_5_337)" fill-opacity="0.1"/>
<path d="M49.5726 88.779L59.1751 97.8325C59.1816 97.8395 59.1855 97.8469 59.1916 97.8539L92.7796 64.2659L83.4731 54.9595C81.7319 63.2671 77.6765 70.7753 71.5843 76.868C65.4663 82.9855 57.9211 87.05 49.5726 88.779Z" fill="url(#paint3_linear_5_337)" fill-opacity="0.1"/>
<path d="M132.735 104.221L98.7221 138.233L126.898 165.98C145.868 184.949 176.417 185.45 195.999 167.486L132.735 104.221Z" fill="url(#paint4_linear_5_337)" fill-opacity="0.1"/>
<path d="M55.9513 101.101C55.9491 101.101 55.947 101.1 55.9448 101.1L55.9426 101.102C55.9457 101.102 55.9487 101.101 55.9513 101.101Z" fill="url(#paint5_linear_5_337)" fill-opacity="0.1"/>
<path d="M40.5391 64.5063C41.224 64.5063 41.9168 64.4684 42.5977 64.3935C46.8622 63.925 50.7203 62.0732 53.7551 59.0388C56.7895 56.0044 58.6409 52.1463 59.1098 47.8814C59.7337 42.2072 57.7818 36.6431 53.7551 32.6164C50.2266 29.0878 45.5341 27.1442 40.5439 27.1442C35.5533 27.1442 30.8617 29.0878 27.3327 32.6164C20.0483 39.9008 20.0483 51.754 27.3327 59.0388C30.8582 62.5648 35.5485 64.5063 40.5391 64.5063Z" fill="url(#paint6_linear_5_337)" fill-opacity="0.1"/>
<path d="M175.333 34.7647C175.333 22.1448 170.686 10.2385 162.202 1L49.6753 113.527C57.9825 115.268 65.4911 119.323 71.5838 125.416C77.6761 131.508 81.7315 139.017 83.4727 147.325L160.696 70.1017C170.134 60.6629 175.333 48.1131 175.333 34.7647ZM158.968 56.4015C158.411 56.4015 157.854 56.1891 157.429 55.7637C156.578 54.9137 156.578 53.5352 157.429 52.6849C160.722 49.3914 162.487 43.4707 162.033 37.2331C161.946 36.0339 162.847 34.9916 164.047 34.9041C165.252 34.8222 166.289 35.7187 166.376 36.9174C166.919 44.3803 164.67 51.6016 160.507 55.7637C160.083 56.1891 159.525 56.4015 158.968 56.4015Z" fill="url(#paint7_linear_5_337)" fill-opacity="0.1"/>
<defs>
<linearGradient id="paint0_linear_5_337" x1="98.4996" y1="1" x2="98.4996" y2="196" gradientUnits="userSpaceOnUse">
<stop stop-color="#FCE9A3"/>
<stop offset="1" stop-color="#FCE9A3" stop-opacity="0"/>
</linearGradient>
<linearGradient id="paint1_linear_5_337" x1="98.4996" y1="1" x2="98.4996" y2="196" gradientUnits="userSpaceOnUse">
<stop stop-color="#FCE9A3"/>
<stop offset="1" stop-color="#FCE9A3" stop-opacity="0"/>
</linearGradient>
<linearGradient id="paint2_linear_5_337" x1="98.4996" y1="1" x2="98.4996" y2="196" gradientUnits="userSpaceOnUse">
<stop stop-color="#FCE9A3"/>
<stop offset="1" stop-color="#FCE9A3" stop-opacity="0"/>
</linearGradient>
<linearGradient id="paint3_linear_5_337" x1="98.4996" y1="1" x2="98.4996" y2="196" gradientUnits="userSpaceOnUse">
<stop stop-color="#FCE9A3"/>
<stop offset="1" stop-color="#FCE9A3" stop-opacity="0"/>
</linearGradient>
<linearGradient id="paint4_linear_5_337" x1="98.4996" y1="1" x2="98.4996" y2="196" gradientUnits="userSpaceOnUse">
<stop stop-color="#FCE9A3"/>
<stop offset="1" stop-color="#FCE9A3" stop-opacity="0"/>
</linearGradient>
<linearGradient id="paint5_linear_5_337" x1="98.4996" y1="1" x2="98.4996" y2="196" gradientUnits="userSpaceOnUse">
<stop stop-color="#FCE9A3"/>
<stop offset="1" stop-color="#FCE9A3" stop-opacity="0"/>
</linearGradient>
<linearGradient id="paint6_linear_5_337" x1="98.4996" y1="1" x2="98.4996" y2="196" gradientUnits="userSpaceOnUse">
<stop stop-color="#FCE9A3"/>
<stop offset="1" stop-color="#FCE9A3" stop-opacity="0"/>
</linearGradient>
<linearGradient id="paint7_linear_5_337" x1="98.4996" y1="1" x2="98.4996" y2="196" gradientUnits="userSpaceOnUse">
<stop stop-color="#FCE9A3"/>
<stop offset="1" stop-color="#FCE9A3" stop-opacity="0"/>
</linearGradient>
</defs>
</svg>
