<svg width="59" height="70" viewBox="0 0 59 70" fill="none" xmlns="http://www.w3.org/2000/svg">
<path d="M49.8121 9.875C48.5795 9.87379 47.3622 10.1484 46.2496 10.6786V8.6875C46.2497 6.70699 45.5427 4.79151 44.2558 3.28606C42.9689 1.78062 41.1868 0.784148 39.2304 0.476133C37.2739 0.168118 35.2718 0.568801 33.5847 1.60601C31.8975 2.64323 30.6361 4.2488 30.0277 6.13355C28.7618 5.4456 27.3388 5.09859 25.8983 5.12658C24.4578 5.15456 23.0493 5.55657 21.8111 6.29316C20.5729 7.02976 19.5474 8.07562 18.8354 9.32812C18.1233 10.5806 17.7491 11.9967 17.7496 13.4375V35.8249L15.6717 32.2257C14.5739 30.3242 12.7684 28.9342 10.6493 28.3593C8.53028 27.7844 6.26983 28.0712 4.36151 29.1572C2.45319 30.2431 1.05202 32.0399 0.46391 34.1554C-0.124197 36.2708 0.148533 38.533 1.22256 40.4481C10.8556 60.7592 17.2726 69.25 31.9996 69.25C38.9259 69.2422 45.5664 66.4872 50.4641 61.5895C55.3618 56.6918 58.1167 50.0514 58.1246 43.125V18.1875C58.1221 15.9836 57.2455 13.8708 55.6872 12.3124C54.1288 10.754 52.0159 9.87747 49.8121 9.875ZM53.3746 43.125C53.3682 48.792 51.1141 54.2252 47.1069 58.2324C43.0997 62.2396 37.6666 64.4936 31.9996 64.5C26.009 64.5 21.8385 62.8807 18.054 59.0855C14.3433 55.3646 10.6996 49.3523 5.47708 38.3335C5.44954 38.2756 5.41968 38.2187 5.3875 38.1631C4.9151 37.3448 4.78711 36.3724 5.03168 35.4597C5.27625 34.5471 5.87335 33.769 6.69162 33.2966C7.50989 32.8242 8.4823 32.6962 9.39495 32.9408C10.3076 33.1853 11.0857 33.7824 11.5581 34.6007L18.0679 45.8759C18.3293 46.3287 18.7328 46.6825 19.2158 46.8826C19.6988 47.0827 20.2343 47.1178 20.7393 46.9824C21.2443 46.8471 21.6906 46.549 22.0088 46.1342C22.3271 45.7194 22.4996 45.2112 22.4996 44.6884V13.4375C22.4996 12.4927 22.8749 11.5865 23.543 10.9184C24.2111 10.2503 25.1172 9.875 26.0621 9.875C27.0069 9.875 27.913 10.2503 28.5811 10.9184C29.2492 11.5865 29.6246 12.4927 29.6246 13.4375V33.625C29.6246 34.2549 29.8748 34.859 30.3202 35.3044C30.7656 35.7498 31.3697 36 31.9996 36C32.6294 36 33.2335 35.7498 33.6789 35.3044C34.1243 34.859 34.3746 34.2549 34.3746 33.625V8.6875C34.3746 7.74267 34.7499 6.83653 35.418 6.16843C36.0861 5.50034 36.9922 5.125 37.9371 5.125C38.8819 5.125 39.788 5.50034 40.4561 6.16843C41.1242 6.83653 41.4996 7.74267 41.4996 8.6875V33.625C41.4996 34.2549 41.7498 34.859 42.1952 35.3044C42.6406 35.7498 43.2447 36 43.8746 36C44.5044 36 45.1085 35.7498 45.5539 35.3044C45.9993 34.859 46.2496 34.2549 46.2496 33.625V18.1875C46.2496 17.2427 46.6249 16.3365 47.293 15.6684C47.9611 15.0003 48.8672 14.625 49.8121 14.625C50.7569 14.625 51.663 15.0003 52.3311 15.6684C52.9992 16.3365 53.3746 17.2427 53.3746 18.1875V43.125Z" fill="white"/>
</svg>
