<?xml version="1.0" encoding="UTF-8" standalone="no"?>
<svg
   width="62"
   height="60"
   viewBox="0 0 62 60"
   fill="none"
   version="1.1"
   id="svg1"
   sodipodi:docname="rock.svg"
   inkscape:version="1.3 (1:1.3+202307231459+0e150ed6c4)"
   xmlns:inkscape="http://www.inkscape.org/namespaces/inkscape"
   xmlns:sodipodi="http://sodipodi.sourceforge.net/DTD/sodipodi-0.dtd"
   xmlns="http://www.w3.org/2000/svg"
   xmlns:svg="http://www.w3.org/2000/svg">
  <defs
     id="defs1" />
  <sodipodi:namedview
     id="namedview1"
     pagecolor="#ffffff"
     bordercolor="#000000"
     borderopacity="0.25"
     inkscape:showpageshadow="2"
     inkscape:pageopacity="0.0"
     inkscape:pagecheckerboard="0"
     inkscape:deskcolor="#d1d1d1"
     inkscape:zoom="13.6"
     inkscape:cx="30.992647"
     inkscape:cy="30"
     inkscape:window-width="1846"
     inkscape:window-height="1016"
     inkscape:window-x="74"
     inkscape:window-y="27"
     inkscape:window-maximized="1"
     inkscape:current-layer="svg1" />
  <path
     d="M52.375 14.75H47.625V10C47.6262 8.06969 47.039 6.18486 45.9417 4.5968C44.8444 3.00874 43.289 1.7929 41.483 1.11139C39.677 0.429882 37.7062 0.315076 35.8332 0.782283C33.9603 1.24949 32.2743 2.27651 31 3.72642C29.7857 2.34459 28.1961 1.34537 26.4244 0.850267C24.6527 0.355164 22.7753 0.385513 21.0206 0.937623C19.2658 1.48973 17.7093 2.53981 16.5403 3.96016C15.3713 5.38052 14.6402 7.10994 14.4359 8.93811C12.9935 8.08868 11.3521 7.63573 9.6782 7.6252C8.0043 7.61467 6.35736 8.04692 4.90438 8.87813C3.45139 9.70935 2.24402 10.91 1.40468 12.3583C0.56533 13.8066 0.123852 15.4511 0.125002 17.125V29C0.125002 37.1886 3.37789 45.0417 9.16808 50.8319C14.9583 56.6221 22.8114 59.875 31 59.875C39.1886 59.875 47.0417 56.6221 52.8319 50.8319C58.6221 45.0417 61.875 37.1886 61.875 29V24.25C61.8721 21.7313 60.8703 19.3166 59.0894 17.5356C57.3084 15.7547 54.8937 14.7529 52.375 14.75ZM38.125 5.25C39.3843 5.25144 40.5917 5.75235 41.4822 6.64284C42.3727 7.53332 42.8736 8.74067 42.875 10V14.75H33.375V10C33.3764 8.74067 33.8773 7.53332 34.7678 6.64284C35.6583 5.75235 36.8657 5.25144 38.125 5.25ZM19.125 10C19.125 8.74022 19.6254 7.53204 20.5162 6.64124C21.407 5.75045 22.6152 5.25 23.875 5.25C25.1348 5.25 26.343 5.75045 27.2338 6.64124C28.1246 7.53204 28.625 8.74022 28.625 10V21.875C28.625 23.1348 28.1246 24.343 27.2338 25.2338C26.343 26.1246 25.1348 26.625 23.875 26.625C22.6152 26.625 21.407 26.1246 20.5162 25.2338C19.6254 24.343 19.125 23.1348 19.125 21.875V10ZM4.875 17.125C4.875 15.8652 5.37545 14.657 6.26624 13.7662C7.15704 12.8754 8.36522 12.375 9.625 12.375C10.8848 12.375 12.093 12.8754 12.9838 13.7662C13.8746 14.657 14.375 15.8652 14.375 17.125V21.875C14.375 23.1348 13.8746 24.343 12.9838 25.2338C12.093 26.1246 10.8848 26.625 9.625 26.625C8.36522 26.625 7.15704 26.1246 6.26624 25.2338C5.37545 24.343 4.875 23.1348 4.875 21.875V17.125ZM57.125 29C57.125 35.8323 54.4484 42.3928 49.6689 47.2752C44.8895 52.1576 38.3876 54.9734 31.5568 55.1191C24.726 55.2647 18.11 52.7286 13.1267 48.0544C8.14354 43.3801 5.18975 36.9397 4.89849 30.1136C6.79702 31.2049 9.01476 31.6055 11.1751 31.2473C13.3355 30.8891 15.3053 29.7942 16.75 28.1486C18.3868 30.0138 20.6899 31.1627 23.1645 31.3484C25.6392 31.5342 28.0879 30.7419 29.9849 29.1419C30.839 30.5576 32.0453 31.7278 33.4863 32.5386C31.9589 33.8739 30.7348 35.5207 29.8964 37.3681C29.0579 39.2156 28.6244 41.2211 28.625 43.25C28.625 43.8799 28.8752 44.484 29.3206 44.9294C29.766 45.3748 30.3701 45.625 31 45.625C31.6299 45.625 32.234 45.3748 32.6794 44.9294C33.1248 44.484 33.375 43.8799 33.375 43.25C33.3779 40.7313 34.3797 38.3166 36.1606 36.5356C37.9416 34.7547 40.3563 33.7529 42.875 33.75C43.5049 33.75 44.109 33.4998 44.5544 33.0544C44.9998 32.609 45.25 32.0049 45.25 31.375C45.25 30.7451 44.9998 30.141 44.5544 29.6956C44.109 29.2502 43.5049 29 42.875 29H38.125C36.8657 28.9986 35.6583 28.4977 34.7678 27.6072C33.8773 26.7167 33.3764 25.5093 33.375 24.25V19.5H52.375C53.6343 19.5014 54.8417 20.0023 55.7322 20.8928C56.6227 21.7833 57.1236 22.9907 57.125 24.25V29Z"
     fill="#C69E55"
     id="path1"
     style="fill:#ffffff" />
</svg>
