<?xml version="1.0" encoding="UTF-8" standalone="no"?>
<svg
   width="51"
   height="70"
   viewBox="0 0 51 70"
   fill="none"
   version="1.1"
   id="svg5"
   sodipodi:docname="scissors.svg"
   inkscape:version="1.3 (1:1.3+202307231459+0e150ed6c4)"
   xmlns:inkscape="http://www.inkscape.org/namespaces/inkscape"
   xmlns:sodipodi="http://sodipodi.sourceforge.net/DTD/sodipodi-0.dtd"
   xmlns="http://www.w3.org/2000/svg"
   xmlns:svg="http://www.w3.org/2000/svg">
  <defs
     id="defs5" />
  <sodipodi:namedview
     id="namedview5"
     pagecolor="#ffffff"
     bordercolor="#000000"
     borderopacity="0.25"
     inkscape:showpageshadow="2"
     inkscape:pageopacity="0.0"
     inkscape:pagecheckerboard="0"
     inkscape:deskcolor="#d1d1d1"
     inkscape:zoom="11.657143"
     inkscape:cx="25.563725"
     inkscape:cy="35"
     inkscape:window-width="1846"
     inkscape:window-height="1016"
     inkscape:window-x="74"
     inkscape:window-y="27"
     inkscape:window-maximized="1"
     inkscape:current-layer="svg5" />
  <path
     d="M22.9808 0C18.7918 0 15.3392 3.38867 15.3392 7.5V11.3281L15.0208 10.3125C13.8068 6.37695 9.47859 4.1211 5.46874 5.3125C1.45888 6.50391 -0.839571 10.752 0.374329 14.6875L6.98114 35.7812C6.50354 35.9668 5.98614 36.1816 5.46874 36.4844C3.33943 37.7344 0.93153 40.2637 0.215129 44.2969C-0.322171 47.2852 0.264878 49.9121 0.69273 51.3281C0.69273 51.3574 0.69273 51.377 0.69273 51.4062L2.68273 57.6563C4.98119 64.9902 11.9064 70 19.7172 70H33.1696C42.9902 70 51 62.1387 51 52.5V27.7344C51 27.627 51 27.5293 51 27.4219C51 27.373 51 27.3145 51 27.2656C51 27.2363 51 27.2168 51 27.1875C50.9801 27.1094 50.9503 27.0313 50.9204 26.9531C50.6915 24.1992 48.9901 21.6309 46.224 20.5469C44.3036 19.7949 42.2838 19.9023 40.4928 20.625C39.6669 19.0918 38.3336 17.793 36.5924 17.1094C34.5924 16.3281 32.4631 16.4551 30.6224 17.2656V7.5C30.6224 3.38867 27.1697 0 22.9808 0ZM22.9808 5C24.4235 5 25.528 6.08399 25.528 7.5V23.9844L22.9012 30.5469C22.5231 31.4746 22.344 32.4805 22.344 33.4375L11.9163 34.7656L5.30954 13.2031C4.89164 11.8555 5.60804 10.4883 6.98114 10.0781C8.35424 9.66797 9.74724 10.4492 10.1651 11.7969L15.4188 28.9063L18.2844 28.0469H20.4336V7.5C20.4336 6.08399 21.538 5 22.9808 5ZM33.6472 21.5625C33.9755 21.5527 34.3536 21.5918 34.682 21.7188C36.0153 22.2461 36.6521 23.6914 36.1148 25L33.4084 31.6406V31.7188L32.3736 34.2969C32.3238 34.4336 32.2044 34.4922 32.1348 34.6094C30.8413 33.623 29.2095 32.9883 27.518 32.9688C27.5478 32.7832 27.518 32.6074 27.5976 32.4219L31.4184 23.125C31.8164 22.1387 32.6621 21.582 33.6472 21.5625ZM43.2788 25C43.6171 25 43.9753 25.0293 44.3136 25.1562C45.3185 25.5469 45.8857 26.4355 45.9056 27.4219C45.9056 27.4512 45.9056 27.4707 45.9056 27.5C45.9056 27.8027 45.8658 28.1348 45.7464 28.4375L42.8808 35.3906C42.3435 36.6992 40.8709 37.3242 39.5376 36.7969C38.2043 36.2695 37.6471 34.8242 38.1844 33.5156L40.8908 26.875C40.9306 26.7773 40.9306 26.6602 40.9704 26.5625C41.239 25.9082 41.7266 25.4102 42.3236 25.1562C42.6221 25.0293 42.9405 25 43.2788 25ZM26.8016 37.8906C28.1448 37.5781 29.4284 38.3691 29.7468 39.6875C29.9458 40.4981 29.8363 40.9082 29.5876 41.3281C29.3388 41.7481 28.8115 42.2656 27.6772 42.6562L15.3392 45.7812C14.5829 45.9766 13.966 46.5039 13.6576 47.1973C13.3491 47.9004 13.379 48.7012 13.7471 49.375L16.0556 53.5156C16.7322 54.7266 18.2844 55.166 19.5182 54.4922C20.752 53.8281 21.1997 52.3047 20.5132 51.0938L19.7968 49.8438L29.1896 47.4219C29.2692 47.4023 29.3488 47.3731 29.4284 47.3438C31.3985 46.6699 32.9805 45.5176 33.9656 43.9062C34.7715 42.5879 35.08 41.0547 34.9208 39.5312C35.667 40.3223 36.6222 40.9766 37.7068 41.4062C40.6221 42.5488 43.826 41.8262 45.9056 39.7656V52.5C45.9056 59.4336 40.2341 65 33.1696 65H19.7172C14.1153 65 9.19004 61.4258 7.53834 56.1719L5.62794 49.9219C5.41899 49.2481 5.00109 46.8848 5.30954 45.1562C5.78714 42.4707 6.98114 41.4356 8.09554 40.7812C9.20994 40.127 10.0059 40.0781 10.0059 40.0781C10.0557 40.0781 10.1154 40.0781 10.1651 40.0781L26.5628 37.9688C26.6424 37.9492 26.722 37.9199 26.8016 37.8906Z"
     fill="white"
     id="path1"
     style="fill:#c69e55;fill-opacity:1" />
</svg>
