<svg width="24" height="45" viewBox="0 0 24 45" fill="none" xmlns="http://www.w3.org/2000/svg">
<path d="M22.5754 1.75738C21.3474 1.39068 20.4264 1.99617 20.145 3.39476C19.2495 7.80374 17.3648 17.0822 17.2625 17.6706C17.2028 18.0373 15.284 18.4979 15.0367 17.6706C14.2692 15.1037 10.5936 3.71882 9.81753 1.63799C9.502 0.802245 8.39336 0.282036 7.45528 0.589044C6.38075 0.938693 5.68145 2.0985 5.96288 3.07069C6.21872 3.94908 8.99885 14.6091 9.86017 17.9776C10.3548 18.0885 13.2543 18.7963 16.188 19.2995C17.9618 19.598 21.8079 24.4248 22.746 25.4652C22.6948 23.2991 22.1234 19.6747 22.3366 17.7303C22.908 12.6476 23.4197 9.39847 23.8717 4.00025C23.9655 2.96836 23.3685 1.99617 22.5754 1.75738Z" fill="#7E7E7E"/>
<path d="M13.1614 27.5454C13.2296 27.7586 13.2808 27.9547 13.2978 28.1679C13.5878 27.9035 13.7242 27.7927 14.0057 27.5795C13.7072 26.6329 13.3149 25.6607 13.0335 25.3707C12.3939 24.7055 11.8481 24.5265 10.5859 23.9551C11.1829 24.7567 11.6264 25.149 12.428 26.0786C12.6924 26.3856 12.9738 26.9484 13.1614 27.5454Z" fill="#7E7E7E"/>
<path d="M0.504708 26.8133C0.49618 26.5916 0.427957 25.6535 1.28076 25.0651C2.13356 24.4766 2.96077 24.5619 2.96077 24.5619C2.96077 24.5619 3.25073 24.5534 3.65154 24.9883C3.98413 25.3465 8.5125 30.4377 8.64895 30.5998C8.77687 30.7618 8.88774 31.3246 8.52103 31.8875C8.16286 32.4503 7.54031 32.7573 6.96894 32.6891C6.40609 32.6209 0.53882 28.0328 0.504708 26.8133Z" fill="#7E7E7E"/>
<path d="M22.5748 26.3443C21.3041 24.9883 19.2318 22.7625 18.0464 21.4748C17.1765 20.5367 16.0082 19.863 14.7034 19.5645L9.45015 18.3621C9.08345 18.2768 8.69116 18.3365 8.37563 18.5326C7.59958 19.0102 7.29257 19.9227 7.64221 20.7243C8.15389 21.8841 9.15167 22.8137 10.4223 23.3083L12.3582 24.0588C13.1598 24.3658 13.7909 24.9713 14.0894 25.7132L14.9507 27.8452C14.9507 27.8452 12.0086 30.2672 11.3263 32.2883C10.7379 34.0195 10.6782 35.4948 10.8829 36.7058C10.0301 34.5397 10.3115 32.6124 11.0961 31.0262C10.9255 31.0688 10.7464 31.0858 10.5758 31.0858C10.4138 31.0858 10.2518 31.0688 10.0983 31.0262C9.84244 30.9579 9.60365 30.8641 9.3734 30.7362C9.49279 31.1797 9.42457 31.7681 9.09197 32.3054C8.66557 32.9791 7.9407 33.3884 7.20729 33.3884C7.12201 33.3884 7.04525 33.3799 6.95997 33.3714C6.815 33.3543 6.59327 33.3287 5.44199 32.4844C4.76828 31.9898 3.95812 31.3502 3.22471 30.7277C2.22693 29.8749 1.53616 29.2182 1.05859 28.698C1.05859 28.8942 1.05859 29.0477 1.08418 29.1329C1.18651 29.5593 2.16723 32.1774 3.12237 35.6313C3.71933 37.7889 5.30554 39.4774 5.63813 40.3473C5.92808 41.0977 6.12423 41.7459 6.26068 42.2917C6.26068 42.9057 6.19245 42.5475 6.26068 43.6902C6.31185 44.4663 6.82353 44.6795 7.50577 44.6795C10.5247 44.6795 15.488 44.6795 18.4472 44.6795C19.2915 44.6795 19.4535 43.8523 19.4279 43.5709C19.4279 43.5709 19.155 41.6435 19.01 40.5775C19.01 40.5775 21.2273 38.4796 21.5855 37.8741C21.6452 37.7633 21.7049 37.6609 21.7475 37.5501C22.3104 36.1856 23.0694 31.4781 23.4446 29.0135C23.5811 28.0669 23.2655 27.0862 22.5748 26.3443Z" fill="#7E7E7E"/>
<path d="M3.56639 23.9214C4.4533 24.9874 5.3658 25.934 5.97982 26.5822C7.73659 28.4327 8.60644 29.6181 9.56158 30.1213C9.59569 30.1298 9.62128 30.1469 9.65539 30.1639C9.69803 30.1895 9.74067 30.2066 9.78331 30.2322C9.88565 30.2748 9.98798 30.3089 10.0988 30.3345C10.8919 30.5306 11.9238 29.9593 12.3332 29.1576C12.8704 28.1001 12.265 27.0427 11.7618 26.4457C10.8578 25.3968 10.1244 24.4161 9.49336 23.5462C9.10107 23.3415 8.71731 23.0942 8.36766 22.7872C7.83892 22.3182 7.38694 21.7297 7.09699 21.0901C6.99465 20.8599 6.97759 20.6211 6.97759 20.6211C6.97759 20.6211 6.93495 20.587 6.89231 20.5699C6.37211 20.2373 5.98835 20.1776 5.98835 20.1776C5.98835 20.1776 5.09291 19.9303 4.07807 20.5614C3.0206 21.218 3.04618 22.3779 3.05471 22.6678C3.07177 22.9322 3.06324 23.3159 3.56639 23.9214Z" fill="#7E7E7E"/>
</svg>
