<svg width="10" height="14" viewBox="0 0 10 14" fill="none" xmlns="http://www.w3.org/2000/svg">
<path d="M9.36814 0.0546527C9.28234 0.0111678 9.18749 -0.00687623 9.09321 0.00235005C8.99892 0.0115763 8.90856 0.0477447 8.83128 0.107188L4.65454 3.49283H0.536856C0.394473 3.49283 0.257921 3.55433 0.157241 3.6638C0.0565614 3.77327 0 3.92175 0 4.07656V9.91388C0 10.0687 0.0565614 10.2172 0.157241 10.3266C0.257921 10.4361 0.394473 10.4976 0.536856 10.4976H4.65454L8.80444 13.8833C8.8842 13.9483 8.97904 13.9879 9.07834 13.9976C9.17764 14.0074 9.27747 13.9869 9.36664 13.9384C9.45582 13.8899 9.53081 13.8154 9.58323 13.7232C9.63564 13.6309 9.66341 13.5247 9.66341 13.4163V0.574174C9.66311 0.466378 9.63536 0.360777 9.58324 0.269077C9.53113 0.177378 9.45667 0.103161 9.36814 0.0546527Z" fill="#FC3C37"/>
</svg>
