<svg width="30" height="30" viewBox="0 0 30 30" fill="none" xmlns="http://www.w3.org/2000/svg">
<g id="Group 2609153">
<g id="Ellipse 228">
<circle cx="15" cy="15" r="15" fill="#0F0F0F"/>
<circle cx="15" cy="15" r="15" fill="#202020"/>
</g>
<path id="$" d="M14.352 22.48V20.72C13.648 20.6667 12.9813 20.5387 12.352 20.336C11.7333 20.1227 11.1946 19.8294 10.736 19.456L11.36 17.84C11.8613 18.2134 12.4106 18.5014 13.008 18.704C13.6053 18.9067 14.2613 19.008 14.976 19.008C15.7546 19.008 16.3253 18.8694 16.688 18.592C17.0506 18.3147 17.232 17.968 17.232 17.552C17.232 17.1787 17.1093 16.88 16.864 16.656C16.6186 16.432 16.1813 16.2507 15.552 16.112L13.856 15.744C12.896 15.5307 12.1706 15.1787 11.68 14.688C11.2 14.1867 10.96 13.5254 10.96 12.704C10.96 11.808 11.264 11.056 11.872 10.448C12.4906 9.82935 13.3173 9.45602 14.352 9.32802V7.52002H15.952V9.31202C16.5066 9.36535 17.0453 9.49869 17.568 9.71202C18.0906 9.92535 18.5333 10.2134 18.896 10.576L18.288 12.112C17.4773 11.3654 16.4426 10.992 15.184 10.992C14.5226 10.992 13.9893 11.1467 13.584 11.456C13.1893 11.7547 12.992 12.1494 12.992 12.64C12.992 13.0027 13.1146 13.296 13.36 13.52C13.6053 13.744 14 13.9147 14.544 14.032L16.24 14.4C17.264 14.624 18.0213 14.9814 18.512 15.472C19.0133 15.952 19.264 16.592 19.264 17.392C19.264 18.288 18.9546 19.024 18.336 19.6C17.728 20.1654 16.9333 20.5227 15.952 20.672V22.48H14.352Z" fill="#7E7E7E"/>
</g>
</svg>
