<svg width="19" height="16" viewBox="0 0 19 16" fill="none" xmlns="http://www.w3.org/2000/svg">
<path d="M11.6413 0.0624603C11.5347 0.0127633 11.4168 -0.00785854 11.2996 0.00268578C11.1825 0.0132301 11.0702 0.0545654 10.9742 0.122501L5.78395 3.99181H0.667122C0.49019 3.99181 0.320505 4.06209 0.195395 4.1872C0.0702858 4.31231 0 4.482 0 4.65893V11.3301C0 11.5071 0.0702858 11.6768 0.195395 11.8019C0.320505 11.927 0.49019 11.9973 0.667122 11.9973H5.78395L10.9408 15.8666C11.0399 15.9409 11.1578 15.9862 11.2812 15.9973C11.4045 16.0084 11.5286 15.985 11.6394 15.9296C11.7502 15.8742 11.8434 15.789 11.9086 15.6836C11.9737 15.5782 12.0082 15.4568 12.0082 15.3329V0.656199C12.0078 0.533003 11.9733 0.412317 11.9086 0.307517C11.8438 0.202717 11.7513 0.117898 11.6413 0.0624603Z" fill="#29F061"/>
<path d="M14.0096 5.32605C13.8326 5.32605 13.6629 5.39634 13.5378 5.52145C13.4127 5.64655 13.3424 5.81624 13.3424 5.99317V9.9959C13.3424 10.1728 13.4127 10.3425 13.5378 10.4676C13.6629 10.5927 13.8326 10.663 14.0096 10.663C14.1865 10.663 14.3562 10.5927 14.4813 10.4676C14.6064 10.3425 14.6767 10.1728 14.6767 9.9959V5.99317C14.6767 5.81624 14.6064 5.64655 14.4813 5.52145C14.3562 5.39634 14.1865 5.32605 14.0096 5.32605Z" fill="#29F061"/>
<path d="M16.0109 3.99182C15.834 3.99182 15.6643 4.06211 15.5392 4.18722C15.4141 4.31233 15.3438 4.48201 15.3438 4.65894V11.3302C15.3438 11.5071 15.4141 11.6768 15.5392 11.8019C15.6643 11.927 15.834 11.9973 16.0109 11.9973C16.1879 11.9973 16.3576 11.927 16.4827 11.8019C16.6078 11.6768 16.6781 11.5071 16.6781 11.3302V4.65894C16.6781 4.48201 16.6078 4.31233 16.4827 4.18722C16.3576 4.06211 16.1879 3.99182 16.0109 3.99182Z" fill="#29F061"/>
<path d="M18.0123 2.65759C17.8353 2.65759 17.6657 2.72788 17.5405 2.85299C17.4154 2.9781 17.3452 3.14778 17.3452 3.32471V12.6644C17.3452 12.8414 17.4154 13.011 17.5405 13.1361C17.6657 13.2613 17.8353 13.3315 18.0123 13.3315C18.1892 13.3315 18.3589 13.2613 18.484 13.1361C18.6091 13.011 18.6794 12.8414 18.6794 12.6644V3.32471C18.6794 3.14778 18.6091 2.9781 18.484 2.85299C18.3589 2.72788 18.1892 2.65759 18.0123 2.65759Z" fill="#29F061"/>
</svg>
