<svg width="30" height="30" viewBox="0 0 30 30" fill="none" xmlns="http://www.w3.org/2000/svg">
<g id="Group 2609076">
<g id="Ellipse 228">
<circle cx="15" cy="15" r="15" fill="#0F0F0F"/>
<circle cx="15" cy="15" r="15" fill="#B78A51"/>
</g>
<g id="LOGO 1 SVG">
<g id="Vector">
<path d="M21.4661 12.0641C22.5355 12.0074 23.2308 11.7911 24.0486 11.3418C25.1238 10.7512 25.5802 8.8979 25.5802 8.8979C22.9398 10.672 19.33 11.0473 19.33 11.0473C18.2544 12.7713 17.2634 13.7806 16.4343 14.366C16.2979 14.2868 16.1755 14.1858 16.0718 14.0672C15.8151 13.7287 15.7853 13.3848 15.7935 13.3264C15.8017 13.2681 15.8619 13.1736 15.9989 13.132C16.0453 13.1155 16.0951 13.1103 16.144 13.1168C16.1928 13.1234 16.2394 13.1414 16.2799 13.1695C16.2399 12.9307 16.2176 12.8164 16.0773 12.698C15.9468 12.5885 15.7096 12.5717 15.7096 12.5717C15.5904 12.4757 15.4475 12.4134 15.2957 12.3916C14.8973 12.336 14.634 12.5073 14.4471 12.6813C14.1976 12.9136 14.1781 13.3466 13.9983 13.8437C13.9177 14.0632 13.7606 14.2465 13.5557 14.3602C12.7287 13.7734 11.7414 12.7652 10.6696 11.048C10.6696 11.048 7.0598 10.6727 4.4198 8.89858C4.4198 8.89858 4.87577 10.7519 5.95101 11.3425C6.76916 11.7918 7.46442 12.0081 8.5335 12.0648C8.5335 12.0648 7.09197 12.1879 5.43547 11.3923C5.43547 11.3923 6.36659 12.8549 7.24294 13.3326C8.11929 13.8102 9.21369 13.9989 9.99248 13.9604C9.99248 13.9604 8.63791 14.2855 7.51235 13.8102C7.51235 13.8102 8.69473 15.3619 10.813 15.3114C10.813 15.3114 10.126 15.4844 9.4855 15.3701C9.4855 15.3701 10.4601 16.1934 11.2656 16.3289C11.2656 16.3289 11.5908 16.3933 12.2631 16.3207C12.0559 16.4488 11.8178 16.519 11.574 16.5237C11.574 16.5237 12.2621 16.9331 12.7742 16.9778C12.91 16.9867 13.0463 16.9813 13.1809 16.9614C13.0818 17.0213 12.9723 17.0621 12.8581 17.0815C12.8581 17.0815 13.541 17.3241 13.9877 17.1125C13.4917 18.6114 13.1261 19.0607 13.1261 19.0607L13.2576 19.217C13.2711 19.2334 13.2884 19.2464 13.3079 19.255C13.3274 19.2636 13.3487 19.2675 13.37 19.2664C13.3913 19.2654 13.4121 19.2594 13.4307 19.2489C13.4493 19.2384 13.4651 19.2237 13.477 19.206L13.7714 18.8034L13.4267 19.4268L13.5715 19.5711C13.5865 19.5863 13.6048 19.5977 13.625 19.6046C13.6453 19.6114 13.6668 19.6134 13.688 19.6105C13.7091 19.6075 13.7293 19.5997 13.7469 19.5876C13.7645 19.5755 13.7789 19.5594 13.7892 19.5407L13.9819 19.2211L13.7259 19.8062L13.884 19.9362C13.9004 19.9499 13.9198 19.9595 13.9406 19.9644C13.9614 19.9693 13.9831 19.9693 14.0039 19.9643C14.0247 19.9593 14.0441 19.9495 14.0604 19.9358C14.0767 19.922 14.0896 19.9046 14.098 19.885L14.2164 19.6376L14.0709 20.1051L14.2421 20.2166C14.2598 20.2281 14.28 20.2353 14.3011 20.2377C14.3221 20.2401 14.3434 20.2376 14.3634 20.2304C14.3833 20.2232 14.4012 20.2115 14.4158 20.1962C14.4304 20.1809 14.4412 20.1624 14.4475 20.1422L14.5844 19.7485L14.4838 20.2808C14.4763 20.3203 14.4806 20.3611 14.496 20.3983C14.5113 20.4355 14.5372 20.4674 14.5704 20.4903L14.8696 20.6492L14.9853 19.8986L15.1006 20.6492L15.4002 20.4903C15.4334 20.4674 15.4592 20.4355 15.4746 20.3983C15.4899 20.3611 15.4942 20.3203 15.4868 20.2808L15.3899 19.7485L15.5268 20.1422C15.533 20.1624 15.5439 20.1809 15.5585 20.1962C15.5731 20.2115 15.591 20.2232 15.6109 20.2304C15.6308 20.2376 15.6522 20.2401 15.6732 20.2377C15.6942 20.2353 15.7144 20.2281 15.7322 20.2166L15.9034 20.1051L15.7579 19.6376L15.8763 19.885C15.8847 19.9046 15.8976 19.922 15.9139 19.9358C15.9302 19.9495 15.9496 19.9593 15.9704 19.9643C15.9912 19.9693 16.0129 19.9693 16.0337 19.9644C16.0545 19.9595 16.0739 19.9499 16.0903 19.9362L16.2484 19.8062L15.992 19.2211L16.1851 19.5407C16.1953 19.5594 16.2098 19.5755 16.2274 19.5876C16.245 19.5997 16.2651 19.6075 16.2863 19.6105C16.3075 19.6134 16.329 19.6114 16.3492 19.6046C16.3695 19.5977 16.3878 19.5863 16.4028 19.5711L16.5476 19.4268L16.2002 18.8038L16.4946 19.2064C16.5064 19.2241 16.5223 19.2389 16.5409 19.2494C16.5595 19.2599 16.5803 19.2659 16.6017 19.267C16.6231 19.2681 16.6444 19.2641 16.6639 19.2555C16.6835 19.2469 16.7008 19.2338 16.7143 19.2173L16.8458 19.061C16.8458 19.061 16.4788 18.6103 15.9814 17.1047V17.1009C16.4264 17.3364 17.1395 17.0832 17.1395 17.0832C17.0254 17.0637 16.916 17.023 16.817 16.9631C16.9515 16.983 17.0877 16.9884 17.2234 16.9795C17.7369 16.9341 18.4236 16.5254 18.4236 16.5254C18.1797 16.5207 17.9417 16.4506 17.7345 16.3224C18.4068 16.395 18.732 16.3306 18.732 16.3306C19.5392 16.1941 20.5121 15.3718 20.5121 15.3718C19.8716 15.4861 19.1845 15.3132 19.1845 15.3132C21.3028 15.3626 22.4856 13.8119 22.4856 13.8119C21.36 14.2872 20.0054 13.9621 20.0054 13.9621C20.7839 14.0006 21.8786 13.8116 22.7546 13.3343C23.6306 12.857 24.5641 11.3919 24.5641 11.3919C22.9076 12.1872 21.4661 12.0641 21.4661 12.0641Z" fill="white"/>
<path d="M22.8963 14.119C22.8686 14.1555 22.5061 14.6212 21.8393 15.0569C21.8228 18.8021 18.7611 21.8434 15 21.8434C11.2389 21.8434 8.1768 18.8017 8.16036 15.0569C7.49352 14.6212 7.13134 14.1555 7.10327 14.119L6.84824 13.784C6.78587 14.1952 6.75463 14.6106 6.75479 15.0266C6.76882 17.1968 7.64367 19.2734 9.18839 20.8031C10.7331 22.3328 12.8223 23.1913 14.9998 23.1913C17.1774 23.1913 19.2665 22.3328 20.8112 20.8031C22.3559 19.2734 23.2308 17.1968 23.2448 15.0266C23.2449 14.6106 23.2138 14.1953 23.1517 13.784L22.8963 14.119Z" fill="white"/>
<path d="M8.64612 10.1371C9.15584 10.2677 9.60976 10.3599 9.96235 10.4226C10.602 9.72524 11.3804 9.16826 12.2479 8.7872C13.1155 8.40614 14.0531 8.20934 15.0012 8.20934C15.9492 8.20934 16.8869 8.40614 17.7544 8.7872C18.6219 9.16826 19.4003 9.72524 20.04 10.4226C20.3926 10.3599 20.8465 10.2677 21.3562 10.1371C21.4298 10.118 21.5058 10.0978 21.5835 10.0767C21.3525 9.77292 21.1009 9.48531 20.8304 9.21588C20.0649 8.45276 19.156 7.84741 18.1557 7.43441C17.1554 7.02141 16.0832 6.80884 15.0005 6.80884C13.9178 6.80884 12.8456 7.02141 11.8453 7.43441C10.845 7.84741 9.93612 8.45276 9.17056 9.21588C8.90006 9.48531 8.64843 9.77292 8.41745 10.0767C8.49515 10.0978 8.57115 10.118 8.64612 10.1371Z" fill="white"/>
</g>
</g>
</g>
</svg>
