<svg width="16" height="14" viewBox="0 0 16 14" fill="none" xmlns="http://www.w3.org/2000/svg">
<path d="M10.1128 0.649944C10.0275 0.610186 9.93324 0.593689 9.83951 0.602124C9.74578 0.61056 9.65595 0.643628 9.57913 0.697976L5.42696 3.79342H1.3335C1.19196 3.79342 1.05621 3.84965 0.956121 3.94974C0.856033 4.04983 0.799805 4.18557 0.799805 4.32712V9.66409C0.799805 9.80564 0.856033 9.94139 0.956121 10.0415C1.05621 10.1416 1.19196 10.1978 1.3335 10.1978H5.42696L9.55244 13.2932C9.63173 13.3527 9.72602 13.3889 9.82473 13.3978C9.92344 13.4067 10.0227 13.388 10.1113 13.3436C10.2 13.2993 10.2745 13.2312 10.3266 13.1469C10.3788 13.0625 10.4064 12.9654 10.4064 12.8663V1.12493C10.4061 1.02638 10.3785 0.929829 10.3267 0.845989C10.2749 0.762149 10.2008 0.694294 10.1128 0.649944Z" fill="#FC3C37"/>
<path d="M14.3615 6.99571L15.5837 5.77354C15.6711 5.67145 15.7168 5.54012 15.7116 5.4058C15.7064 5.27148 15.6507 5.14407 15.5557 5.04902C15.4606 4.95397 15.3332 4.89829 15.1989 4.8931C15.0646 4.88791 14.9332 4.9336 14.8312 5.02103L13.609 6.2432L12.3868 5.02103C12.2847 4.9336 12.1534 4.88791 12.0191 4.8931C11.8848 4.89829 11.7573 4.95397 11.6623 5.04902C11.5672 5.14407 11.5116 5.27148 11.5064 5.4058C11.5012 5.54012 11.5469 5.67145 11.6343 5.77354L12.8565 6.99571L11.6343 8.21788C11.5784 8.26572 11.5331 8.3246 11.501 8.39081C11.469 8.45703 11.451 8.52915 11.4482 8.60265C11.4453 8.67615 11.4577 8.74944 11.4845 8.81793C11.5114 8.88641 11.5521 8.94862 11.6041 9.00063C11.6561 9.05264 11.7183 9.09334 11.7868 9.12017C11.8553 9.147 11.9285 9.15938 12.0021 9.15654C12.0756 9.15371 12.1477 9.1357 12.2139 9.10367C12.2801 9.07164 12.339 9.02626 12.3868 8.97039L13.609 7.74823L14.8312 8.97039C14.9332 9.05783 15.0646 9.10351 15.1989 9.09833C15.3332 9.09314 15.4606 9.03746 15.5557 8.94241C15.6507 8.84736 15.7064 8.71994 15.7116 8.58562C15.7168 8.45131 15.6711 8.31998 15.5837 8.21788L14.3615 6.99571Z" fill="#FC3C37"/>
</svg>
