<svg xmlns="http://www.w3.org/2000/svg" width="44" height="48" viewBox="0 0 44 48" fill="none">
<path d="M19.1366 0.257788C21.9158 -0.201126 24.8247 -0.0784123 27.4933 0.878079C28.2812 1.12014 28.9827 1.5757 29.6276 2.08336C29.9152 2.3187 30.118 2.65574 30.1928 3.0222C30.541 4.87551 30.8601 6.73386 31.1784 8.59221C31.2067 8.76115 31.1992 8.93345 31.1926 9.10408C25.1962 10.8036 18.7651 10.7304 12.7579 9.11752C13.0521 7.09864 13.4252 5.09236 13.7726 3.08188C13.9139 2.4784 14.2987 1.91106 14.8747 1.66227C16.256 1.08652 17.6522 0.499012 19.1366 0.257788Z" fill="#E9E9F5"/>
<path d="M5.43087 10.8649C7.80034 10.1219 10.2405 9.65124 12.6515 9.07214C12.5401 9.94038 12.3914 10.8044 12.2143 11.6617C12.1969 11.9282 12.4504 12.0937 12.6797 12.1475C15.7208 13.0754 18.9114 13.4579 22.082 13.4133C25.1338 13.4596 28.1939 13.0561 31.1344 12.2282C31.4934 12.1543 31.8915 11.8466 31.7768 11.4297C31.5499 10.6926 31.461 9.92441 31.3546 9.16207C34.7156 9.81262 38.1979 10.3287 41.234 12.0265C42.1249 12.5392 43.0142 13.1385 43.5951 14.0135C43.9367 14.5657 44.1204 15.2675 43.9118 15.9037C43.6649 16.8527 42.8588 17.4906 42.0958 18.0201C39.9025 19.5002 37.2945 20.1256 34.7746 20.7795C37.5206 22.3428 40.2823 23.9969 42.4673 26.3302C39.2185 27.5018 35.7578 28.4541 33.0517 30.7226C32.6578 31.0681 32.0478 31.5228 32.3229 32.128C32.6844 32.8558 33.0584 33.5778 33.3875 34.3217C31.471 36.2573 29.5196 38.1594 27.6421 40.1346C25.3748 42.4359 23.4941 45.1154 22.0205 48C19.3926 42.6099 15.1889 38.1888 10.5687 34.4889C10.9062 33.6669 11.2926 32.8659 11.699 32.0758C11.842 31.817 11.7655 31.4875 11.5494 31.2959C10.5189 30.2099 9.23067 29.4123 7.89758 28.7626C5.85141 27.7767 3.68888 27.0749 1.54879 26.3352C3.69303 24.0289 6.40492 22.3874 9.11432 20.856C6.51214 19.9264 3.69054 19.3666 1.45072 17.6385C0.757579 17.151 0.113475 16.4694 0.0137422 15.5827C-0.0810035 14.7682 0.325406 13.9731 0.8864 13.4125C2.13638 12.1601 3.77116 11.3919 5.43087 10.8649ZM27.554 22.226C26.314 22.479 25.0499 22.542 23.7966 22.6832C24.6634 23.5103 25.8569 24.1112 27.0753 23.9095C28.3136 23.7221 29.2952 22.7732 29.916 21.7225C29.1248 21.8705 28.3477 22.0915 27.554 22.226ZM14.1541 21.8259C14.7675 22.874 15.7847 23.7389 16.9982 23.9339C18.1567 24.1533 19.356 23.6145 20.1123 22.7303C18.1226 22.4529 16.1438 22.1016 14.1541 21.8259Z" fill="#E9E9F5"/>
</svg>