<svg width="200" height="278" viewBox="0 0 200 278" fill="none" xmlns="http://www.w3.org/2000/svg">
<g clip-path="url(#clip0_2709_120655)">
<rect y="0.00439453" width="200" height="278" rx="10" fill="url(#paint0_linear_2709_120655)"/>
<path d="M166.472 214.964C169.652 221.229 177.943 218.885 178 212.718C178.057 205.804 169.519 202.199 166.699 195.737L166.661 195.658L166.623 195.757C163.67 202.159 155.057 205.587 155.001 212.502C154.925 218.648 163.159 221.15 166.472 214.964Z" fill="#E04749"/>
<path d="M33.5283 63.044C30.3481 56.7794 22.0571 59.1237 22.0003 65.2898C21.9435 72.2046 30.4806 75.8097 33.3011 82.2713L33.339 82.3501L33.3768 82.2516C36.3298 75.8491 44.9427 72.4213 44.9995 65.5065C45.0752 59.3601 36.8409 56.8582 33.5283 63.044Z" fill="#E04749"/>
<path d="M12 46.4394V40.8415H18.4732V23.5775H12.8912V19.2968C14.5174 18.9832 15.8933 18.6068 17.0191 18.1678C18.1761 17.7287 19.2706 17.1956 20.3026 16.5684H25.3686V40.8415H30.9506V46.4394H12Z" fill="#E04749"/>
<path d="M44.352 47.0039C41.1623 47.0039 38.5824 45.6711 36.6123 43.0054C34.6735 40.3398 33.7041 36.4667 33.7041 31.3863C33.7041 26.2745 34.6735 22.4328 36.6123 19.8613C38.5824 17.2897 41.1623 16.0039 44.352 16.0039C47.5417 16.0039 50.106 17.3054 52.0448 19.9083C54.0149 22.4799 55 26.3059 55 31.3863C55 36.4667 54.0149 40.3398 52.0448 43.0054C50.106 45.6711 47.5417 47.0039 44.352 47.0039ZM44.352 41.6412C45.1338 41.6412 45.8374 41.359 46.4629 40.7945C47.0883 40.1986 47.573 39.1637 47.917 37.6898C48.2923 36.1845 48.4799 34.0833 48.4799 31.3863C48.4799 28.6579 48.2923 26.5724 47.917 25.1299C47.573 23.6873 47.0883 22.6994 46.4629 22.1663C45.8374 21.6331 45.1338 21.3666 44.352 21.3666C43.5702 21.3666 42.8666 21.6331 42.2412 22.1663C41.6158 22.6994 41.1154 23.6873 40.7402 25.1299C40.3962 26.5724 40.2242 28.6579 40.2242 31.3863C40.2242 34.0833 40.3962 36.1845 40.7402 37.6898C41.1154 39.1637 41.6158 40.1986 42.2412 40.7945C42.8666 41.359 43.5702 41.6412 44.352 41.6412Z" fill="#E04749"/>
<path d="M188 231.569L188 237.167L181.527 237.167L181.527 254.431L187.109 254.431L187.109 258.712C185.483 259.025 184.107 259.401 182.981 259.841C181.824 260.28 180.729 260.813 179.697 261.44L174.631 261.44L174.631 237.167L169.049 237.167L169.049 231.569L188 231.569Z" fill="#E04749"/>
<path d="M155.648 231.004C158.838 231.004 161.418 232.337 163.388 235.003C165.327 237.669 166.296 241.542 166.296 246.622C166.296 251.734 165.327 255.575 163.388 258.147C161.418 260.719 158.838 262.004 155.648 262.004C152.458 262.004 149.894 260.703 147.955 258.1C145.985 255.528 145 251.702 145 246.622C145 241.542 145.985 237.669 147.955 235.003C149.894 232.337 152.458 231.004 155.648 231.004ZM155.648 236.367C154.866 236.367 154.163 236.649 153.537 237.214C152.912 237.81 152.427 238.845 152.083 240.319C151.708 241.824 151.52 243.925 151.52 246.622C151.52 249.35 151.708 251.436 152.083 252.878C152.427 254.321 152.912 255.309 153.537 255.842C154.163 256.375 154.866 256.642 155.648 256.642C156.43 256.642 157.133 256.375 157.759 255.842C158.384 255.309 158.885 254.321 159.26 252.878C159.604 251.436 159.776 249.35 159.776 246.622C159.776 243.925 159.604 241.824 159.26 240.319C158.885 238.845 158.384 237.81 157.759 237.214C157.133 236.649 156.43 236.367 155.648 236.367Z" fill="#E04749"/>
<path d="M75.9975 77.6617C79.099 71.4052 87 73.83 87 80.0319C87 86.9836 78.8093 89.4413 76.0425 95.9113L75.9975 96.0044L75.9576 95.9113C73.1907 89.4413 65 86.9836 65 80.0319C64.995 73.8246 72.896 71.4052 75.9975 77.6617Z" fill="#E04749"/>
<path d="M123.998 77.6617C127.099 71.4052 135 73.83 135 80.0319C135 86.9836 126.809 89.4413 124.042 95.9113L123.998 96.0044L123.958 95.9113C121.191 89.4413 113 86.9836 113 80.0319C112.995 73.8246 120.896 71.4052 123.998 77.6617Z" fill="#E04749"/>
<path d="M123.998 115.662C127.099 109.405 135 111.83 135 118.032C135 124.984 126.809 127.441 124.042 133.911L123.998 134.004L123.958 133.911C121.191 127.441 113 124.984 113 118.032C112.995 111.825 120.896 109.405 123.998 115.662Z" fill="#E04749"/>
<path d="M76.0025 162.347C72.901 168.604 65 166.179 65 159.977C65 153.025 73.1907 150.567 75.9575 144.097L76.0025 144.004L76.0424 144.097C78.8093 150.567 87 153.025 87 159.977C87.005 166.184 79.104 168.604 76.0025 162.347Z" fill="#E04749"/>
<path d="M99.9975 96.6617C103.099 90.4052 111 92.83 111 99.0319C111 105.984 102.809 108.441 100.042 114.911L99.9975 115.004L99.9576 114.911C97.1907 108.441 89 105.984 89 99.0319C88.995 92.8246 96.896 90.4052 99.9975 96.6617Z" fill="#E04749"/>
<path d="M100.002 181.347C96.901 187.604 89 185.179 89 178.977C89 172.025 97.1907 169.567 99.9575 163.097L100.002 163.004L100.042 163.097C102.809 169.567 111 172.025 111 178.977C111.005 185.184 103.104 187.604 100.002 181.347Z" fill="#E04749"/>
<path d="M75.9975 115.662C79.099 109.405 87 111.83 87 118.032C87 124.984 78.8093 127.441 76.0425 133.911L75.9975 134.004L75.9576 133.911C73.1907 127.441 65 124.984 65 118.032C64.995 111.825 72.896 109.405 75.9975 115.662Z" fill="#E04749"/>
<path d="M124.002 162.347C120.901 168.604 113 166.179 113 159.977C113 153.025 121.191 150.567 123.958 144.097L124.002 144.004L124.042 144.097C126.809 150.567 135 153.025 135 159.977C135.005 166.184 127.104 168.604 124.002 162.347Z" fill="#E04749"/>
<path d="M124.002 200.347C120.901 206.604 113 204.179 113 197.977C113 191.025 121.191 188.567 123.958 182.097L124.002 182.004L124.042 182.097C126.809 188.567 135 191.025 135 197.977C135.005 204.184 127.104 206.604 124.002 200.347Z" fill="#E04749"/>
<path d="M76.0025 200.347C72.901 206.604 65 204.179 65 197.977C65 191.025 73.1907 188.567 75.9575 182.097L76.0025 182.004L76.0424 182.097C78.8093 188.567 87 191.025 87 197.977C87.005 204.184 79.104 206.604 76.0025 200.347Z" fill="#E04749"/>
</g>
<defs>
<linearGradient id="paint0_linear_2709_120655" x1="0" y1="278.004" x2="200" y2="0.00440461" gradientUnits="userSpaceOnUse">
<stop stop-color="#101010"/>
<stop offset="0.712851" stop-color="#201F1F"/>
<stop offset="1" stop-color="#101010"/>
</linearGradient>
<clipPath id="clip0_2709_120655">
<rect width="200" height="278" fill="white"/>
</clipPath>
</defs>
</svg>
