<svg width="200" height="278" viewBox="0 0 200 278" fill="none" xmlns="http://www.w3.org/2000/svg">
<g clip-path="url(#clip0_2709_120518)">
<rect y="0.00439453" width="200" height="278" rx="10" fill="url(#paint0_linear_2709_120518)"/>
<path d="M172.472 214.964C175.652 221.229 183.943 218.885 184 212.718C184.057 205.804 175.519 202.199 172.699 195.737L172.661 195.658L172.623 195.757C169.67 202.159 161.057 205.587 161.001 212.502C160.925 218.648 169.159 221.15 172.472 214.964Z" fill="#E04749"/>
<path d="M27.5283 63.0445C24.3481 56.7799 16.0571 59.1242 16.0003 65.2903C15.9435 72.2051 24.4806 75.8102 27.3011 82.2718L27.339 82.3506L27.3768 82.2521C30.3298 75.8496 38.9427 72.4218 38.9995 65.507C39.0752 59.3606 30.8409 56.8587 27.5283 63.0445Z" fill="#E04749"/>
<path d="M26.4712 47.0044C24.2917 47.0044 22.4167 46.5531 20.8462 45.6505C19.3077 44.7479 18.0256 43.3317 17 41.402L21.5192 38.414C21.9679 39.2544 22.5769 39.908 23.3462 40.3749C24.1154 40.8417 24.9327 41.0752 25.7981 41.0752C27.1763 41.0752 28.2019 40.6706 28.875 39.8613C29.5801 39.0521 29.9327 37.6048 29.9327 35.5195V16.0044H37V36.0797C37 38.0717 36.6314 39.908 35.8942 41.5887C35.157 43.2383 34.0032 44.5611 32.4327 45.5571C30.8942 46.522 28.9071 47.0044 26.4712 47.0044Z" fill="#E04749"/>
<path d="M173.529 231.004C175.708 231.004 177.583 231.456 179.154 232.358C180.692 233.261 181.974 234.677 183 236.607L178.481 239.595C178.032 238.754 177.423 238.101 176.654 237.634C175.885 237.167 175.067 236.934 174.202 236.934C172.824 236.934 171.798 237.338 171.125 238.147C170.42 238.957 170.067 240.404 170.067 242.489V262.004H163V241.929C163 239.937 163.369 238.101 164.106 236.42C164.843 234.77 165.997 233.448 167.567 232.452C169.106 231.487 171.093 231.004 173.529 231.004Z" fill="#E04749"/>
<path d="M100.011 105.624C85.9137 77.1853 50 88.2075 50 116.398C50 147.996 87.2304 159.168 99.807 188.577L100.011 189L100.193 188.577C112.77 159.168 150 147.996 150 116.398C150.023 88.1826 114.109 77.1853 100.011 105.624Z" fill="#E04749"/>
</g>
<defs>
<linearGradient id="paint0_linear_2709_120518" x1="0" y1="278.004" x2="200" y2="0.00440461" gradientUnits="userSpaceOnUse">
<stop stop-color="#101010"/>
<stop offset="0.712851" stop-color="#201F1F"/>
<stop offset="1" stop-color="#101010"/>
</linearGradient>
<clipPath id="clip0_2709_120518">
<rect width="200" height="278" fill="white"/>
</clipPath>
</defs>
</svg>
