<svg width="200" height="278" viewBox="0 0 200 278" fill="none" xmlns="http://www.w3.org/2000/svg">
<g clip-path="url(#clip0_2709_120557)">
<rect y="0.00439453" width="200" height="278" rx="10" fill="url(#paint0_linear_2709_120557)"/>
<path d="M172.472 214.964C175.652 221.229 183.943 218.885 184 212.718C184.057 205.804 175.519 202.199 172.699 195.737L172.661 195.658L172.623 195.757C169.67 202.159 161.057 205.587 161.001 212.502C160.925 218.648 169.159 221.15 172.472 214.964Z" fill="#E04749"/>
<path d="M27.5283 63.0445C24.3481 56.7799 16.0571 59.1242 16.0003 65.2903C15.9435 72.2051 24.4806 75.8102 27.3011 82.2718L27.339 82.3506L27.3768 82.2521C30.3298 75.8496 38.9427 72.4218 38.9995 65.507C39.0752 59.3606 30.8409 56.8587 27.5283 63.0445Z" fill="#E04749"/>
<path d="M26.6389 47.0044C25.0022 47.0044 23.5098 46.8162 22.1619 46.4399C20.8461 46.0949 19.6747 45.6088 18.6477 44.9816C17.6207 44.3544 16.7381 43.6174 16 42.7707L19.2735 38.3959C20.2042 39.274 21.2312 39.9953 22.3545 40.5598C23.4778 41.1243 24.6813 41.4065 25.965 41.4065C27.4413 41.4065 28.6287 41.1086 29.5274 40.5127C30.4581 39.8855 30.9234 39.0074 30.9234 37.8784C30.9234 37.0003 30.6988 36.2477 30.2495 35.6205C29.8001 34.9619 28.9818 34.4601 27.7943 34.1152C26.6389 33.7702 24.938 33.5977 22.6915 33.5977V28.7055C24.5208 28.7055 25.965 28.533 27.0241 28.188C28.0831 27.843 28.8213 27.3726 29.2385 26.7768C29.6878 26.1809 29.9125 25.491 29.9125 24.707C29.9125 23.6407 29.5755 22.8253 28.9015 22.2608C28.2597 21.6964 27.345 21.4141 26.1575 21.4141C25.0664 21.4141 24.0715 21.6493 23.1729 22.1197C22.3063 22.5588 21.3917 23.2017 20.4289 24.0484L16.8665 19.8147C18.2786 18.623 19.771 17.6979 21.3435 17.0393C22.9161 16.3494 24.6331 16.0044 26.4945 16.0044C28.5806 16.0044 30.4099 16.3337 31.9825 16.9923C33.5872 17.6195 34.8228 18.5446 35.6893 19.7677C36.5879 20.9594 37.0372 22.4333 37.0372 24.1895C37.0372 25.7262 36.5879 27.0433 35.6893 28.141C34.8228 29.2386 33.5711 30.1324 31.9344 30.8223V31.0105C33.0897 31.3554 34.1327 31.8572 35.0635 32.5158C35.9942 33.143 36.7163 33.9427 37.2298 34.9149C37.7433 35.887 38 37.016 38 38.3018C38 40.1521 37.4705 41.7358 36.4114 43.053C35.3844 44.3387 34.0044 45.3266 32.2713 46.0165C30.5704 46.6751 28.6929 47.0044 26.6389 47.0044Z" fill="#E04749"/>
<path d="M172.361 231.004C173.998 231.004 175.49 231.193 176.838 231.569C178.154 231.914 179.325 232.4 180.352 233.027C181.379 233.654 182.262 234.391 183 235.238L179.726 239.613C178.796 238.735 177.769 238.014 176.646 237.449C175.522 236.885 174.319 236.602 173.035 236.602C171.559 236.602 170.371 236.9 169.473 237.496C168.542 238.123 168.077 239.001 168.077 240.13C168.077 241.008 168.301 241.761 168.751 242.388C169.2 243.047 170.018 243.549 171.206 243.894C172.361 244.239 174.062 244.411 176.309 244.411L176.309 249.303C174.479 249.303 173.035 249.476 171.976 249.821C170.917 250.166 170.179 250.636 169.761 251.232C169.312 251.828 169.088 252.518 169.088 253.302C169.088 254.368 169.425 255.183 170.098 255.748C170.74 256.312 171.655 256.595 172.842 256.595C173.934 256.595 174.929 256.359 175.827 255.889C176.694 255.45 177.608 254.807 178.571 253.96L182.133 258.194C180.721 259.386 179.229 260.311 177.656 260.969C176.084 261.659 174.367 262.004 172.505 262.004C170.419 262.004 168.59 261.675 167.018 261.017C165.413 260.389 164.177 259.464 163.311 258.241C162.412 257.049 161.963 255.575 161.963 253.819C161.963 252.283 162.412 250.965 163.311 249.868C164.177 248.77 165.429 247.876 167.066 247.186L167.066 246.998C165.91 246.653 164.867 246.152 163.937 245.493C163.006 244.866 162.284 244.066 161.77 243.094C161.257 242.122 161 240.993 161 239.707C161 237.857 161.53 236.273 162.589 234.956C163.616 233.67 164.996 232.682 166.729 231.992C168.43 231.334 170.307 231.004 172.361 231.004Z" fill="#E04749"/>
<path d="M99.9975 77.6617C103.099 71.4052 111 73.83 111 80.0319C111 86.9836 102.809 89.4413 100.042 95.9113L99.9975 96.0044L99.9576 95.9113C97.1907 89.4413 89 86.9836 89 80.0319C88.995 73.8246 96.896 71.4052 99.9975 77.6617Z" fill="#E04749"/>
<path d="M99.9975 131.662C103.099 125.405 111 127.83 111 134.032C111 140.984 102.809 143.441 100.042 149.911L99.9975 150.004L99.9576 149.911C97.1907 143.441 89 140.984 89 134.032C88.995 127.825 96.896 125.405 99.9975 131.662Z" fill="#E04749"/>
<path d="M100.002 200.347C96.901 206.604 89 204.179 89 197.977C89 191.025 97.1907 188.567 99.9575 182.097L100.002 182.004L100.042 182.097C102.809 188.567 111 191.025 111 197.977C111.005 204.184 103.104 206.604 100.002 200.347Z" fill="#E04749"/>
</g>
<defs>
<linearGradient id="paint0_linear_2709_120557" x1="0" y1="278.004" x2="200" y2="0.00440461" gradientUnits="userSpaceOnUse">
<stop stop-color="#101010"/>
<stop offset="0.712851" stop-color="#201F1F"/>
<stop offset="1" stop-color="#101010"/>
</linearGradient>
<clipPath id="clip0_2709_120557">
<rect width="200" height="278" fill="white"/>
</clipPath>
</defs>
</svg>
