<svg width="200" height="278" viewBox="0 0 200 278" fill="none" xmlns="http://www.w3.org/2000/svg">
<g clip-path="url(#clip0_2709_120571)">
<rect y="0.00439453" width="200" height="278" rx="10" fill="url(#paint0_linear_2709_120571)"/>
<path d="M171.472 214.964C174.652 221.229 182.943 218.885 183 212.718C183.057 205.804 174.519 202.199 171.699 195.737L171.661 195.658L171.623 195.757C168.67 202.159 160.057 205.587 160.001 212.502C159.925 218.648 168.159 221.15 171.472 214.964Z" fill="#E04749"/>
<path d="M27.5283 63.0445C24.3481 56.7799 16.0571 59.1242 16.0003 65.2903C15.9435 72.2051 24.4806 75.8102 27.3011 82.2718L27.339 82.3506L27.3768 82.2521C30.3298 75.8496 38.9427 72.4218 38.9995 65.507C39.0752 59.3606 30.8409 56.8587 27.5283 63.0445Z" fill="#E04749"/>
<path d="M29.6082 47.0044V29.0879C29.6082 28.1115 29.6412 26.9561 29.7072 25.6217C29.8062 24.2873 29.8722 23.132 29.9052 22.1556H29.7072C29.3113 23.0018 28.899 23.8642 28.4701 24.743C28.0412 25.5892 27.5959 26.4679 27.134 27.3792L22.9773 34.1162H40V39.5839H16V34.6532L27.4804 16.0044H36.3876V47.0044H29.6082Z" fill="#E04749"/>
<path d="M170.392 231.004L170.392 248.921C170.392 249.897 170.359 251.053 170.293 252.387C170.194 253.721 170.128 254.877 170.095 255.853L170.293 255.853C170.689 255.007 171.101 254.145 171.53 253.266C171.959 252.42 172.404 251.541 172.866 250.63L177.023 243.893L160 243.893L160 238.425L184 238.425L184 243.356L172.52 262.004L163.612 262.004L163.612 231.004L170.392 231.004Z" fill="#E04749"/>
<path d="M75.9975 77.6617C79.099 71.4052 87 73.83 87 80.0319C87 86.9836 78.8093 89.4413 76.0425 95.9113L75.9975 96.0044L75.9576 95.9113C73.1907 89.4413 65 86.9836 65 80.0319C64.995 73.8246 72.896 71.4052 75.9975 77.6617Z" fill="#E04749"/>
<path d="M123.998 77.6617C127.099 71.4052 135 73.83 135 80.0319C135 86.9836 126.809 89.4413 124.042 95.9113L123.998 96.0044L123.958 95.9113C121.191 89.4413 113 86.9836 113 80.0319C112.995 73.8246 120.896 71.4052 123.998 77.6617Z" fill="#E04749"/>
<path d="M124.002 200.347C120.901 206.604 113 204.179 113 197.977C113 191.025 121.191 188.567 123.958 182.097L124.002 182.004L124.042 182.097C126.809 188.567 135 191.025 135 197.977C135.005 204.184 127.104 206.604 124.002 200.347Z" fill="#E04749"/>
<path d="M76.0025 200.347C72.901 206.604 65 204.179 65 197.977C65 191.025 73.1907 188.567 75.9575 182.097L76.0025 182.004L76.0424 182.097C78.8093 188.567 87 191.025 87 197.977C87.005 204.184 79.104 206.604 76.0025 200.347Z" fill="#E04749"/>
</g>
<defs>
<linearGradient id="paint0_linear_2709_120571" x1="0" y1="278.004" x2="200" y2="0.00440461" gradientUnits="userSpaceOnUse">
<stop stop-color="#101010"/>
<stop offset="0.712851" stop-color="#201F1F"/>
<stop offset="1" stop-color="#101010"/>
</linearGradient>
<clipPath id="clip0_2709_120571">
<rect width="200" height="278" fill="white"/>
</clipPath>
</defs>
</svg>
