<svg width="200" height="278" viewBox="0 0 200 278" fill="none" xmlns="http://www.w3.org/2000/svg">
<g clip-path="url(#clip0_2709_120588)">
<rect y="0.00439453" width="200" height="278" rx="10" fill="url(#paint0_linear_2709_120588)"/>
<path d="M172.472 214.964C175.652 221.229 183.943 218.885 184 212.718C184.057 205.804 175.519 202.199 172.699 195.737L172.661 195.658L172.623 195.757C169.67 202.159 161.057 205.587 161.001 212.502C160.925 218.648 169.159 221.15 172.472 214.964Z" fill="#E04749"/>
<path d="M27.5283 63.0445C24.3481 56.7799 16.0571 59.1242 16.0003 65.2903C15.9435 72.2051 24.4806 75.8102 27.3011 82.2718L27.339 82.3506L27.3768 82.2521C30.3298 75.8496 38.9427 72.4218 38.9995 65.507C39.0752 59.3606 30.8409 56.8587 27.5283 63.0445Z" fill="#E04749"/>
<path d="M26.7834 47.0044C25.1145 47.0044 23.6061 46.8127 22.2582 46.4294C20.9424 46.0461 19.771 45.535 18.744 44.8962C17.717 44.2574 16.8023 43.5387 16 42.7401L19.1772 38.2841C20.108 39.1146 21.1189 39.8333 22.2101 40.4403C23.3012 41.0152 24.4887 41.3027 25.7724 41.3027C26.7994 41.3027 27.698 41.127 28.4683 40.7756C29.2385 40.3923 29.8322 39.8493 30.2495 39.1466C30.6988 38.4439 30.9234 37.5814 30.9234 36.5593C30.9234 35.026 30.4741 33.8601 29.5755 33.0616C28.6769 32.263 27.5215 31.8637 26.1094 31.8637C25.2429 31.8637 24.5047 31.9755 23.895 32.1991C23.2852 32.4227 22.515 32.822 21.5842 33.397L18.407 31.3846L19.2735 16.0044H36.6039V21.9457H25.3873L24.8578 27.6474C25.4675 27.3918 26.0292 27.2161 26.5427 27.1203C27.0562 26.9925 27.6338 26.9287 28.2757 26.9287C30.0408 26.9287 31.6616 27.2641 33.1379 27.9348C34.6142 28.6056 35.7856 29.6438 36.6521 31.0492C37.5507 32.4547 38 34.2275 38 36.3676C38 38.6355 37.4705 40.568 36.4114 42.1651C35.3844 43.7303 34.0204 44.9281 32.3195 45.7586C30.6185 46.5891 28.7732 47.0044 26.7834 47.0044Z" fill="#E04749"/>
<path d="M172.217 231.004C173.885 231.004 175.394 231.196 176.742 231.579C178.058 231.963 179.229 232.474 180.256 233.113C181.283 233.751 182.198 234.47 183 235.269L179.823 239.725C178.892 238.894 177.881 238.175 176.79 237.569C175.699 236.994 174.511 236.706 173.228 236.706C172.201 236.706 171.302 236.882 170.532 237.233C169.761 237.616 169.168 238.159 168.751 238.862C168.301 239.565 168.077 240.427 168.077 241.45C168.077 242.983 168.526 244.149 169.425 244.947C170.323 245.746 171.478 246.145 172.891 246.145C173.757 246.145 174.495 246.033 175.105 245.81C175.715 245.586 176.485 245.187 177.416 244.612L180.593 246.624L179.726 262.004H162.396V256.063H173.613L174.142 250.361C173.532 250.617 172.971 250.793 172.457 250.888C171.944 251.016 171.366 251.08 170.724 251.08C168.959 251.08 167.338 250.745 165.862 250.074C164.386 249.403 163.214 248.365 162.348 246.96C161.449 245.554 161 243.781 161 241.641C161 239.373 161.53 237.441 162.589 235.844C163.616 234.278 164.98 233.081 166.681 232.25C168.381 231.42 170.227 231.004 172.217 231.004Z" fill="#E04749"/>
<path d="M75.9975 77.6617C79.099 71.4052 87 73.83 87 80.0319C87 86.9836 78.8093 89.4413 76.0425 95.9113L75.9975 96.0044L75.9576 95.9113C73.1907 89.4413 65 86.9836 65 80.0319C64.995 73.8246 72.896 71.4052 75.9975 77.6617Z" fill="#E04749"/>
<path d="M123.998 77.6617C127.099 71.4052 135 73.83 135 80.0319C135 86.9836 126.809 89.4413 124.042 95.9113L123.998 96.0044L123.958 95.9113C121.191 89.4413 113 86.9836 113 80.0319C112.995 73.8246 120.896 71.4052 123.998 77.6617Z" fill="#E04749"/>
<path d="M99.9975 131.662C103.099 125.405 111 127.83 111 134.032C111 140.984 102.809 143.441 100.042 149.911L99.9975 150.004L99.9576 149.911C97.1907 143.441 89 140.984 89 134.032C88.995 127.825 96.896 125.405 99.9975 131.662Z" fill="#E04749"/>
<path d="M124.002 200.347C120.901 206.604 113 204.179 113 197.977C113 191.025 121.191 188.567 123.958 182.097L124.002 182.004L124.042 182.097C126.809 188.567 135 191.025 135 197.977C135.005 204.184 127.104 206.604 124.002 200.347Z" fill="#E04749"/>
<path d="M76.0025 200.347C72.901 206.604 65 204.179 65 197.977C65 191.025 73.1907 188.567 75.9575 182.097L76.0025 182.004L76.0424 182.097C78.8093 188.567 87 191.025 87 197.977C87.005 204.184 79.104 206.604 76.0025 200.347Z" fill="#E04749"/>
</g>
<defs>
<linearGradient id="paint0_linear_2709_120588" x1="0" y1="278.004" x2="200" y2="0.00440461" gradientUnits="userSpaceOnUse">
<stop stop-color="#101010"/>
<stop offset="0.712851" stop-color="#201F1F"/>
<stop offset="1" stop-color="#101010"/>
</linearGradient>
<clipPath id="clip0_2709_120588">
<rect width="200" height="278" fill="white"/>
</clipPath>
</defs>
</svg>
