<svg width="200" height="278" viewBox="0 0 200 278" fill="none" xmlns="http://www.w3.org/2000/svg">
<g clip-path="url(#clip0_2709_120628)">
<rect y="0.00439453" width="200" height="278" rx="10" fill="url(#paint0_linear_2709_120628)"/>
<path d="M172.472 214.964C175.652 221.229 183.943 218.885 184 212.718C184.057 205.804 175.519 202.199 172.699 195.737L172.661 195.658L172.623 195.757C169.67 202.159 161.057 205.587 161.001 212.502C160.925 218.648 169.159 221.15 172.472 214.964Z" fill="#E04749"/>
<path d="M27.5283 63.0445C24.3481 56.7799 16.0571 59.1242 16.0003 65.2903C15.9435 72.2051 24.4806 75.8102 27.3011 82.2718L27.339 82.3506L27.3768 82.2521C30.3298 75.8496 38.9427 72.4218 38.9995 65.507C39.0752 59.3606 30.8409 56.8587 27.5283 63.0445Z" fill="#E04749"/>
<path d="M26.0597 47.0044C24.1084 47.0044 22.4204 46.6437 20.9956 45.9225C19.5708 45.2012 18.3783 44.3701 17.4181 43.4293L21.042 39.2897C21.5376 39.8542 22.2035 40.3559 23.0398 40.795C23.9071 41.2027 24.7588 41.4065 25.5951 41.4065C26.7721 41.4065 27.8097 41.0772 28.708 40.4187C29.6372 39.7601 30.365 38.6625 30.8916 37.1258C31.4491 35.5578 31.7279 33.4566 31.7279 30.8223C31.7279 28.3448 31.4956 26.4161 31.031 25.0363C30.5973 23.625 30.0089 22.6372 29.2655 22.0727C28.5531 21.4768 27.7788 21.1789 26.9425 21.1789C26.292 21.1789 25.6726 21.3514 25.0841 21.6964C24.5265 22.0413 24.0774 22.5588 23.7367 23.2487C23.396 23.9386 23.2257 24.8638 23.2257 26.0241C23.2257 27.059 23.396 27.9058 23.7367 28.5643C24.0774 29.1915 24.542 29.6463 25.1305 29.9285C25.719 30.2108 26.385 30.3519 27.1283 30.3519C27.9027 30.3519 28.6925 30.1167 29.4978 29.6463C30.3031 29.1445 31.031 28.3134 31.6814 27.1531L32.0066 31.669C31.2633 32.7667 30.2876 33.6448 29.0796 34.3033C27.8717 34.9305 26.7721 35.2442 25.781 35.2442C24.1084 35.2442 22.6062 34.9149 21.2743 34.2563C19.9425 33.5977 18.8894 32.5942 18.115 31.2457C17.3717 29.8658 17 28.1253 17 26.0241C17 23.9543 17.4491 22.1668 18.3473 20.6614C19.2456 19.1561 20.4381 18.0115 21.9248 17.2275C23.4115 16.4121 25.0376 16.0044 26.8031 16.0044C28.2589 16.0044 29.6527 16.2866 30.9845 16.8511C32.3164 17.4156 33.4934 18.2937 34.5155 19.4854C35.5686 20.6771 36.4049 22.2138 37.0243 24.0954C37.6748 25.9457 38 28.188 38 30.8223C38 33.6134 37.6593 36.0282 36.9779 38.0666C36.3274 40.105 35.4447 41.7828 34.3296 43.1C33.2146 44.4171 31.9447 45.405 30.5199 46.0636C29.0951 46.6908 27.6084 47.0044 26.0597 47.0044Z" fill="#E04749"/>
<path d="M173.94 231.004C175.892 231.004 177.58 231.365 179.004 232.086C180.429 232.808 181.622 233.639 182.582 234.58L178.958 238.719C178.462 238.155 177.796 237.653 176.96 237.214C176.093 236.806 175.241 236.602 174.405 236.602C173.228 236.602 172.19 236.932 171.292 237.59C170.363 238.249 169.635 239.346 169.108 240.883C168.551 242.451 168.272 244.552 168.272 247.186C168.272 249.664 168.504 251.593 168.969 252.973C169.403 254.384 169.991 255.372 170.735 255.936C171.447 256.532 172.221 256.83 173.058 256.83C173.708 256.83 174.327 256.657 174.916 256.312C175.473 255.967 175.923 255.45 176.263 254.76C176.604 254.07 176.774 253.145 176.774 251.985C176.774 250.95 176.604 250.103 176.263 249.444C175.923 248.817 175.458 248.363 174.869 248.08C174.281 247.798 173.615 247.657 172.872 247.657C172.097 247.657 171.308 247.892 170.502 248.363C169.697 248.864 168.969 249.695 168.319 250.856L167.993 246.34C168.737 245.242 169.712 244.364 170.92 243.705C172.128 243.078 173.228 242.765 174.219 242.765C175.892 242.765 177.394 243.094 178.726 243.752C180.058 244.411 181.111 245.415 181.885 246.763C182.628 248.143 183 249.884 183 251.985C183 254.054 182.551 255.842 181.653 257.347C180.754 258.853 179.562 259.997 178.075 260.781C176.588 261.597 174.962 262.004 173.197 262.004C171.741 262.004 170.347 261.722 169.015 261.158C167.684 260.593 166.507 259.715 165.485 258.523C164.431 257.332 163.595 255.795 162.976 253.913C162.325 252.063 162 249.821 162 247.186C162 244.395 162.341 241.981 163.022 239.942C163.673 237.904 164.555 236.226 165.67 234.909C166.785 233.592 168.055 232.604 169.48 231.945C170.905 231.318 172.392 231.004 173.94 231.004Z" fill="#E04749"/>
<path d="M75.9975 77.6617C79.099 71.4052 87 73.83 87 80.0319C87 86.9836 78.8093 89.4413 76.0425 95.9113L75.9975 96.0044L75.9576 95.9113C73.1907 89.4413 65 86.9836 65 80.0319C64.995 73.8246 72.896 71.4052 75.9975 77.6617Z" fill="#E04749"/>
<path d="M123.998 77.6617C127.099 71.4052 135 73.83 135 80.0319C135 86.9836 126.809 89.4413 124.042 95.9113L123.998 96.0044L123.958 95.9113C121.191 89.4413 113 86.9836 113 80.0319C112.995 73.8246 120.896 71.4052 123.998 77.6617Z" fill="#E04749"/>
<path d="M123.998 115.662C127.099 109.405 135 111.83 135 118.032C135 124.984 126.809 127.441 124.042 133.911L123.998 134.004L123.958 133.911C121.191 127.441 113 124.984 113 118.032C112.995 111.825 120.896 109.405 123.998 115.662Z" fill="#E04749"/>
<path d="M76.0025 162.347C72.901 168.604 65 166.179 65 159.977C65 153.025 73.1907 150.567 75.9575 144.097L76.0025 144.004L76.0424 144.097C78.8093 150.567 87 153.025 87 159.977C87.005 166.184 79.104 168.604 76.0025 162.347Z" fill="#E04749"/>
<path d="M99.9975 131.662C103.099 125.405 111 127.83 111 134.032C111 140.984 102.809 143.441 100.042 149.911L99.9975 150.004L99.9576 149.911C97.1907 143.441 89 140.984 89 134.032C88.995 127.825 96.896 125.405 99.9975 131.662Z" fill="#E04749"/>
<path d="M75.9975 115.662C79.099 109.405 87 111.83 87 118.032C87 124.984 78.8093 127.441 76.0425 133.911L75.9975 134.004L75.9576 133.911C73.1907 127.441 65 124.984 65 118.032C64.995 111.825 72.896 109.405 75.9975 115.662Z" fill="#E04749"/>
<path d="M124.002 162.347C120.901 168.604 113 166.179 113 159.977C113 153.025 121.191 150.567 123.958 144.097L124.002 144.004L124.042 144.097C126.809 150.567 135 153.025 135 159.977C135.005 166.184 127.104 168.604 124.002 162.347Z" fill="#E04749"/>
<path d="M124.002 200.347C120.901 206.604 113 204.179 113 197.977C113 191.025 121.191 188.567 123.958 182.097L124.002 182.004L124.042 182.097C126.809 188.567 135 191.025 135 197.977C135.005 204.184 127.104 206.604 124.002 200.347Z" fill="#E04749"/>
<path d="M76.0025 200.347C72.901 206.604 65 204.179 65 197.977C65 191.025 73.1907 188.567 75.9575 182.097L76.0025 182.004L76.0424 182.097C78.8093 188.567 87 191.025 87 197.977C87.005 204.184 79.104 206.604 76.0025 200.347Z" fill="#E04749"/>
</g>
<defs>
<linearGradient id="paint0_linear_2709_120628" x1="0" y1="278.004" x2="200" y2="0.00440461" gradientUnits="userSpaceOnUse">
<stop stop-color="#101010"/>
<stop offset="0.712851" stop-color="#201F1F"/>
<stop offset="1" stop-color="#101010"/>
</linearGradient>
<clipPath id="clip0_2709_120628">
<rect width="200" height="278" fill="white"/>
</clipPath>
</defs>
</svg>
