<svg width="11" height="10" viewBox="0 0 11 10" fill="none" xmlns="http://www.w3.org/2000/svg">
<path d="M3.696 9.336L2.712 8.76L7.656 0.204L8.628 0.779999L3.696 9.336ZM2.664 5.592C2.216 5.592 1.832 5.488 1.512 5.28C1.192 5.072 0.948 4.776 0.78 4.392C0.612 4 0.528 3.536 0.528 3C0.528 2.2 0.716 1.572 1.092 1.116C1.468 0.652 1.992 0.42 2.664 0.42C3.112 0.42 3.496 0.524 3.816 0.732C4.136 0.94 4.38 1.236 4.548 1.62C4.716 2.004 4.8 2.464 4.8 3C4.8 3.536 4.716 4 4.548 4.392C4.38 4.776 4.136 5.072 3.816 5.28C3.496 5.488 3.112 5.592 2.664 5.592ZM2.664 4.584C2.952 4.584 3.176 4.456 3.336 4.2C3.496 3.936 3.576 3.536 3.576 3C3.576 2.464 3.496 2.068 3.336 1.812C3.176 1.556 2.952 1.428 2.664 1.428C2.376 1.428 2.152 1.556 1.992 1.812C1.832 2.06 1.752 2.456 1.752 3C1.752 3.544 1.832 3.944 1.992 4.2C2.152 4.456 2.376 4.584 2.664 4.584ZM8.688 9.12C8.24 9.12 7.856 9.016 7.536 8.808C7.216 8.6 6.972 8.304 6.804 7.92C6.636 7.528 6.552 7.064 6.552 6.528C6.552 5.728 6.74 5.1 7.116 4.644C7.492 4.18 8.016 3.948 8.688 3.948C9.136 3.948 9.52 4.052 9.84 4.26C10.16 4.468 10.404 4.764 10.572 5.148C10.74 5.532 10.824 5.992 10.824 6.528C10.824 7.064 10.74 7.528 10.572 7.92C10.404 8.304 10.16 8.6 9.84 8.808C9.52 9.016 9.136 9.12 8.688 9.12ZM8.688 8.112C8.976 8.112 9.2 7.984 9.36 7.728C9.52 7.464 9.6 7.064 9.6 6.528C9.6 5.992 9.52 5.596 9.36 5.34C9.2 5.084 8.976 4.956 8.688 4.956C8.4 4.956 8.176 5.084 8.016 5.34C7.856 5.588 7.776 5.984 7.776 6.528C7.776 7.072 7.856 7.472 8.016 7.728C8.176 7.984 8.4 8.112 8.688 8.112Z" fill="#7E7E7E"/>
</svg>
