<svg width="32" height="32" viewBox="0 0 32 32" fill="none" xmlns="http://www.w3.org/2000/svg">
<g clip-path="url(#clip0_9415_91997)">
<path d="M31.9265 16.1288C31.9265 24.274 25.8598 30.9834 18.0199 31.9831V19.5566H21.7957H21.8604L21.8687 19.4925L22.446 15.0037L22.4567 14.9208H22.3731H18.0199V12.1295C18.0199 11.4829 18.1098 10.9599 18.4135 10.5973C18.7147 10.2377 19.2415 10.0187 20.1593 10.0187H20.1593L22.5258 10.0175L22.5993 10.0175V9.94399V5.92979V5.86533L22.5354 5.85688C22.1241 5.80255 20.7165 5.68011 19.0795 5.68011C17.3584 5.68011 15.9013 6.20817 14.8742 7.2279C13.847 8.24781 13.2581 9.75149 13.2581 11.6868V14.9231H9.47191H9.39838V14.9966V19.4854V19.5589H9.47191H13.2581V31.8718C5.77191 30.5663 0.0735341 24.0254 0.0735341 16.1334C0.0735341 7.30026 7.20448 0.13994 16.0001 0.13994C24.7955 0.13994 31.9265 7.30027 31.9265 16.1288Z" fill="#6B9CFF" stroke="#6B9CFF" stroke-width="0.147068"/>
</g>
<defs>
<clipPath id="clip0_9415_91997">
<rect width="32" height="32" fill="white"/>
</clipPath>
</defs>
</svg>
