<svg width="30" height="30" viewBox="0 0 30 30" fill="none" xmlns="http://www.w3.org/2000/svg">
<g id="Cardano (ADA)">
<rect y="-6.10352e-05" width="30" height="30" rx="8" fill="url(#paint0_linear_409_1617)"/>
<g id="Group 132">
<path id="Vector" d="M14.7587 5.21833C15.1877 4.97627 15.7112 5.53781 15.4833 6.00159C15.351 6.37964 14.8492 6.48017 14.5928 6.192C14.3212 5.91544 14.4098 5.36881 14.7587 5.21833ZM10.1452 5.75655C10.4058 5.64047 10.7356 5.89883 10.7091 6.20617C10.7367 6.53981 10.3597 6.78538 10.0942 6.62682C9.74228 6.47932 9.78253 5.86113 10.1452 5.75655ZM19.5942 6.63619C19.187 6.58294 19.1226 5.89009 19.5146 5.75059C19.8187 5.5901 20.0976 5.89105 20.1421 6.20297C20.0783 6.46931 19.8723 6.71318 19.5942 6.63619ZM11.195 7.88163C11.6306 7.58345 12.2522 8.02753 12.1852 8.57512C12.1625 9.12803 11.484 9.44836 11.1011 9.07457C10.7309 8.78097 10.787 8.1074 11.195 7.88163ZM17.845 8.19802C18.0393 7.65597 18.8268 7.63957 19.048 8.16725C19.2666 8.57788 18.9977 9.08639 18.6082 9.226C18.0921 9.33026 17.602 8.72655 17.845 8.19802ZM14.2032 9.19523C14.1989 8.72932 14.5911 8.38215 15.0002 8.35041C15.2716 8.40931 15.5674 8.53444 15.6838 8.83081C15.9008 9.23964 15.7081 9.80256 15.3161 9.9902C15.1368 10.0989 14.9248 10.0581 14.7296 10.0455C14.4312 9.8869 14.1798 9.57594 14.2032 9.19523ZM7.3422 9.87412C7.74013 9.60938 8.277 10.0925 8.12635 10.5604C8.0434 10.965 7.54077 11.1297 7.25344 10.8713C6.94673 10.6293 6.99534 10.0473 7.3422 9.87412ZM22.0752 9.87327C22.4128 9.58957 22.9699 9.91502 22.9297 10.3763C22.9523 10.797 22.4707 11.1142 22.1355 10.8976C21.7664 10.7181 21.7287 10.1035 22.0752 9.87327ZM16.1326 10.7108C16.6897 10.4942 17.3515 10.7534 17.669 11.291C18.0879 11.9482 17.865 12.949 17.215 13.3261C16.5414 13.7721 15.5579 13.3941 15.3092 12.58C15.0268 11.8513 15.4382 10.9393 16.1326 10.7108ZM12.8637 10.7825C13.4812 10.4671 14.3122 10.7317 14.6104 11.4153C14.9614 12.0807 14.69 13.0072 14.0625 13.3507C13.4343 13.7369 12.5479 13.4441 12.2438 12.7297C11.9029 12.0389 12.2056 11.1006 12.8637 10.7825ZM9.59065 11.9936C9.63759 11.563 10.0129 11.2828 10.3915 11.2539C10.7995 11.3071 11.1254 11.65 11.1698 12.0969C11.143 12.5392 10.8271 12.9716 10.394 12.9689C9.91744 13.0133 9.49963 12.5003 9.59065 11.9936ZM19.2583 11.3475C19.7475 11.0393 20.4269 11.4879 20.4051 12.0962C20.4387 12.7407 19.6868 13.1949 19.1996 12.8169C18.6936 12.5021 18.733 11.6155 19.2583 11.3475ZM11.5335 13.619C12.1057 13.4486 12.7599 13.7405 13.0406 14.3097C13.348 14.8826 13.2223 15.6786 12.7449 16.0988C12.1325 16.7152 11.0032 16.4677 10.6773 15.6265C10.3028 14.8554 10.7577 13.8219 11.5335 13.619ZM17.7336 13.6158C18.2898 13.4436 18.9433 13.6756 19.2423 14.2241C19.6377 14.8513 19.449 15.7869 18.8604 16.1912C18.2438 16.6607 17.2887 16.4142 16.9494 15.68C16.5381 14.9206 16.952 13.8474 17.7336 13.6158ZM7.85319 14.3314C8.34746 14.1291 8.89535 14.7194 8.69511 15.2497C8.5728 15.7329 7.94362 15.9115 7.61861 15.5552C7.23829 15.2207 7.3791 14.4765 7.85319 14.3314ZM21.2504 15.101C21.2361 14.6578 21.5358 14.2653 21.9557 14.2408C22.2942 14.2988 22.6234 14.5943 22.5966 14.9932C22.6276 15.5199 22.0411 15.8779 21.6265 15.6304C21.4321 15.5235 21.3325 15.3077 21.2504 15.101ZM5.4229 14.5916C5.72027 14.4511 6.08809 14.73 6.02019 15.0874C6.00425 15.4921 5.45223 15.6477 5.24942 15.3096C5.07024 15.0747 5.17749 14.7127 5.4229 14.5916ZM24.1724 14.5835C24.3818 14.4221 24.7177 14.5381 24.8007 14.8029C24.9414 15.092 24.6834 15.4881 24.3827 15.4393C23.9605 15.4809 23.824 14.7846 24.1724 14.5835ZM13.1486 16.526C13.9311 16.3058 14.7722 17.012 14.7771 17.8839C14.8282 18.7651 13.9998 19.5464 13.1988 19.3429C12.5797 19.235 12.0939 18.5896 12.1139 17.9125C12.1123 17.2649 12.5638 16.663 13.1486 16.526ZM16.2474 16.5242C17.0416 16.284 17.9078 17.0028 17.8952 17.8949C17.9372 18.7597 17.1346 19.5148 16.3504 19.3432C15.6124 19.2399 15.0678 18.3624 15.2739 17.5873C15.3779 17.0709 15.7766 16.6508 16.2474 16.5242ZM10.2727 17.0609C10.8222 16.9595 11.3375 17.623 11.1146 18.1878C10.952 18.7896 10.1428 18.9528 9.78499 18.4612C9.36531 17.9891 9.67862 17.1261 10.2727 17.0609ZM19.3604 17.0875C19.8505 16.8653 20.452 17.3241 20.4143 17.8997C20.434 18.5333 19.6913 18.9703 19.2121 18.6004C18.6694 18.2684 18.7681 17.2912 19.3604 17.0875ZM21.9005 19.8448C21.7086 19.4577 22.0572 18.9446 22.4543 19.0163C22.652 19.0127 22.7903 19.1812 22.9168 19.3227C22.9428 19.552 22.9864 19.8257 22.8104 20.0025C22.5715 20.3298 22.0303 20.2364 21.9005 19.8448ZM7.34053 19.124C7.71169 18.8566 8.24581 19.2555 8.16237 19.7251C8.11799 20.1404 7.63455 20.3778 7.31613 20.1421C6.97438 19.9282 6.98698 19.319 7.34053 19.124ZM14.6733 19.9935C15.1592 19.7614 15.7783 20.2192 15.7322 20.7984C15.7682 21.4385 15.0026 21.8817 14.5275 21.4974C13.9998 21.1673 14.0877 20.1964 14.6733 19.9935ZM11.277 20.8509C11.6909 20.6153 12.2463 21.0223 12.2086 21.5236C12.2212 21.9352 11.85 22.2859 11.4747 22.2251C11.1639 22.2179 10.9612 21.9163 10.8615 21.6295C10.8666 21.317 10.9855 20.9688 11.277 20.8509ZM18.1566 20.8582C18.5822 20.5735 19.187 20.9824 19.1468 21.5184C19.1577 22.0787 18.4741 22.4376 18.0779 22.0696C17.6942 21.7811 17.741 21.0876 18.1566 20.8582ZM19.3529 24.0591C19.1636 23.7491 19.3865 23.3756 19.6939 23.3049C19.9411 23.3593 20.2024 23.5605 20.1505 23.8706C20.1145 24.2903 19.5473 24.419 19.3529 24.0591ZM9.85623 23.7899C9.93161 23.5442 10.1142 23.3 10.3815 23.3639C10.7711 23.3938 10.8867 24.0292 10.5457 24.2251C10.2391 24.4488 9.88339 24.1425 9.85623 23.7899ZM14.4378 24.0717C14.5124 23.7083 14.9472 23.5315 15.2337 23.7246C15.423 23.8125 15.4783 24.0418 15.5269 24.2367C15.501 24.3382 15.4777 24.4398 15.4549 24.5413C15.3376 24.6917 15.1869 24.8422 14.9916 24.8368C14.6288 24.8828 14.3016 24.4389 14.4378 24.0717Z" fill="white"/>
</g>
</g>
<defs>
<linearGradient id="paint0_linear_409_1617" x1="0" y1="-6.10352e-05" x2="30" y2="29.9999" gradientUnits="userSpaceOnUse">
<stop stop-color="#4576EC"/>
<stop offset="1" stop-color="#0436B0"/>
</linearGradient>
</defs>
</svg>
