<svg width="16" height="15" viewBox="0 0 16 15" fill="none" xmlns="http://www.w3.org/2000/svg">
<path d="M16 7.3276C16 6.3496 15.2126 5.5559 14.2425 5.5559C13.7645 5.5559 13.3427 5.7402 13.0334 6.052C11.8383 5.1874 10.1793 4.6205 8.3515 4.5496L9.1529 0.76536L11.7539 1.3181C11.782 1.9843 12.3304 2.5229 13.0052 2.5229C13.6942 2.5229 14.2566 1.9559 14.2566 1.2614C14.2566 0.56694 13.6942 0 13.0052 0C12.5132 0 12.0913 0.28347 11.8946 0.70867L8.9841 0.0850496C8.8998 0.0708696 8.8154 0.0850402 8.7452 0.12757C8.6748 0.17009 8.6327 0.24095 8.6046 0.32599L7.7188 4.5496C5.8489 4.6063 4.1757 5.1591 2.9666 6.052C2.6573 5.7543 2.2214 5.5559 1.75747 5.5559C0.78734 5.5559 0 6.3496 0 7.3276C0 8.0504 0.42179 8.6598 1.04042 8.9433C1.0123 9.1134 0.99824 9.2977 0.99824 9.4819C0.99824 12.2032 4.1336 14.4 8.014 14.4C11.8946 14.4 15.0298 12.2032 15.0298 9.4819C15.0298 9.2977 15.0158 9.1276 14.9877 8.9575C15.5641 8.674 16 8.0504 16 7.3276ZM3.9789 8.589C3.9789 7.8945 4.5413 7.3276 5.2302 7.3276C5.9191 7.3276 6.4815 7.8945 6.4815 8.589C6.4815 9.2835 5.9191 9.8504 5.2302 9.8504C4.5413 9.8504 3.9789 9.2835 3.9789 8.589ZM10.9666 11.9197C10.109 12.7842 8.478 12.8409 8 12.8409C7.522 12.8409 5.877 12.7701 5.0334 11.9197C4.9068 11.7921 4.9068 11.5795 5.0334 11.452C5.1599 11.3244 5.3708 11.3244 5.4974 11.452C6.0316 11.9906 7.1845 12.189 8.014 12.189C8.8436 12.189 9.9824 11.9906 10.5307 11.452C10.6573 11.3244 10.8682 11.3244 10.9947 11.452C11.0931 11.5937 11.0931 11.7921 10.9666 11.9197ZM10.7416 9.8504C10.0527 9.8504 9.4903 9.2835 9.4903 8.589C9.4903 7.8945 10.0527 7.3276 10.7416 7.3276C11.4305 7.3276 11.993 7.8945 11.993 8.589C11.993 9.2835 11.4305 9.8504 10.7416 9.8504Z" fill="#FF4400"/>
</svg>
