<svg width="28" height="25" viewBox="0 0 28 25" fill="none" xmlns="http://www.w3.org/2000/svg">
<path d="M21.201 7.53003C20.6893 7.2376 20.0313 7.2376 19.4465 7.53003L15.3525 9.94256L12.5744 11.4778L8.55352 13.8903C8.04178 14.1828 7.38381 14.1828 6.79896 13.8903L3.65535 11.9896C3.1436 11.6971 2.77807 11.1123 2.77807 10.4543V6.79896C2.77807 6.2141 3.0705 5.62924 3.65535 5.26371L6.79896 3.43603C7.31071 3.1436 7.96867 3.1436 8.55352 3.43603L11.6971 5.33681C12.2089 5.62924 12.5744 6.2141 12.5744 6.87206V9.2846L15.3525 7.67624V5.1906C15.3525 4.60574 15.0601 4.02089 14.4752 3.65535L8.62663 0.219321C8.11488 -0.073107 7.45692 -0.073107 6.87206 0.219321L0.877285 3.72846C0.292428 4.02089 0 4.60574 0 5.1906V12.0627C0 12.6475 0.292428 13.2324 0.877285 13.5979L6.79896 17.0339C7.31071 17.3264 7.96867 17.3264 8.55352 17.0339L12.5744 14.6945L15.3525 13.0862L19.3734 10.7467C19.8851 10.4543 20.5431 10.4543 21.1279 10.7467L24.2715 12.5744C24.7833 12.8668 25.1488 13.4517 25.1488 14.1097V17.765C25.1488 18.3499 24.8564 18.9347 24.2715 19.3003L21.201 21.1279C20.6893 21.4204 20.0313 21.4204 19.4465 21.1279L16.3029 19.3003C15.7911 19.0078 15.4256 18.423 15.4256 17.765V15.4256L12.6475 17.0339V19.4465C12.6475 20.0313 12.9399 20.6162 13.5248 20.9817L19.4465 24.4178C19.9582 24.7102 20.6162 24.7102 21.201 24.4178L27.1227 20.9817C27.6345 20.6893 28 20.1044 28 19.4465V12.5013C28 11.9164 27.7076 11.3316 27.1227 10.9661L21.201 7.53003Z" fill="#8247E5"/>
</svg>
