<svg xmlns="http://www.w3.org/2000/svg" width="12" height="12" viewBox="0 0 12 12" fill="none">
<g clip-path="url(#clip0_2970_119555)">
<path d="M7.65498 4.34511C9.0553 5.74688 9.03608 7.99427 7.66342 9.37455C7.66084 9.37736 7.65779 9.38041 7.65498 9.38322L6.07998 10.9582C4.69084 12.3474 2.43079 12.3472 1.04186 10.9582C-0.347285 9.56931 -0.347285 7.30901 1.04186 5.9201L1.91153 5.05043C2.14215 4.81981 2.53932 4.97309 2.55123 5.29901C2.56642 5.71437 2.6409 6.13167 2.77834 6.53466C2.82489 6.67111 2.79163 6.82205 2.68968 6.924L2.38295 7.23072C1.72609 7.88758 1.70549 8.95713 2.35588 9.62041C3.01269 10.2902 4.09227 10.2942 4.75412 9.63236L6.32912 8.0576C6.98985 7.39687 6.98708 6.32892 6.32912 5.67096C6.24238 5.58438 6.155 5.51712 6.08675 5.47013C6.03847 5.43697 5.99861 5.39299 5.97034 5.34169C5.94207 5.2904 5.92618 5.2332 5.92393 5.17467C5.91465 4.92701 6.0024 4.6718 6.19811 4.4761L6.69156 3.98262C6.82096 3.85322 7.02395 3.83733 7.174 3.94205C7.34583 4.06204 7.50678 4.19691 7.65498 4.34511ZM10.9581 1.04178C9.56922 -0.347167 7.30916 -0.347355 5.92002 1.04178L4.34502 2.61678C4.34221 2.61959 4.33916 2.62264 4.33658 2.62545C2.96394 4.00573 2.9447 6.25312 4.34502 7.6549C4.49321 7.80308 4.65415 7.93795 4.82598 8.05793C4.97603 8.16264 5.17904 8.14673 5.30842 8.01736L5.80187 7.52388C5.99758 7.32818 6.08533 7.07297 6.07604 6.8253C6.0738 6.76678 6.05791 6.70958 6.02964 6.65828C6.00137 6.60699 5.96151 6.56301 5.91322 6.52985C5.84497 6.48286 5.7576 6.41559 5.67086 6.32901C5.0129 5.67106 5.01013 4.6031 5.67086 3.94238L7.24586 2.36762C7.90771 1.70577 8.98726 1.70975 9.6441 2.37957C10.2945 3.04285 10.2739 4.11239 9.61703 4.76925L9.3103 5.07598C9.20835 5.17793 9.17509 5.32887 9.22164 5.46532C9.35908 5.86831 9.43356 6.28561 9.44875 6.70097C9.46068 7.02689 9.85783 7.18017 10.0885 6.94955L10.9581 6.07987C12.3473 4.69099 12.3473 2.43069 10.9581 1.04178Z" fill="#EAEAEA"/>
</g>
<defs>
<clipPath id="clip0_2970_119555">
<rect width="12" height="12" fill="white"/>
</clipPath>
</defs>
</svg>