<svg xmlns="http://www.w3.org/2000/svg" fill="none" viewBox="0 0 24 25"><rect width="24" height="24" y=".5" fill="#080808" rx="12"/><path fill="url(#a)" d="M17.173 10.151c.856-.045 1.412-.218 2.066-.578.86-.472 1.225-1.955 1.225-1.955-2.112 1.42-5 1.72-5 1.72-.86 1.379-1.653 2.186-2.316 2.655a1.157 1.157 0 0 1-.29-.24c-.206-.27-.23-.545-.223-.592.007-.047.055-.122.164-.156a.249.249 0 0 1 .225.03c-.032-.19-.05-.282-.162-.377-.104-.087-.294-.1-.294-.1a.681.681 0 0 0-.331-.145c-.319-.044-.53.093-.679.232-.2.186-.215.532-.359.93a.781.781 0 0 1-.354.413c-.662-.47-1.452-1.276-2.309-2.65 0 0-2.888-.3-5-1.72 0 0 .365 1.483 1.225 1.956.655.36 1.21.532 2.066.578 0 0-1.153.098-2.478-.538 0 0 .745 1.17 1.446 1.552a4.464 4.464 0 0 0 2.2.502s-1.084.26-1.985-.12c0 0 .946 1.241 2.64 1.201 0 0-.549.138-1.061.047 0 0 .78.659 1.424.767 0 0 .26.051.798-.007a1.087 1.087 0 0 1-.552.163s.551.327.96.363c.11.007.218.003.326-.013a.737.737 0 0 1-.258.096s.546.194.903.025c-.396 1.199-.689 1.558-.689 1.558l.105.125a.11.11 0 0 0 .139.026.109.109 0 0 0 .037-.034l.235-.322-.275.498.115.116a.11.11 0 0 0 .14.013.11.11 0 0 0 .035-.038l.154-.255-.205.468.127.104a.109.109 0 0 0 .095.022.11.11 0 0 0 .076-.063l.094-.198-.116.374.137.09a.11.11 0 0 0 .139-.017.11.11 0 0 0 .025-.043l.11-.315-.08.425a.166.166 0 0 0 .069.168l.239.127.092-.6.093.6.24-.127a.165.165 0 0 0 .069-.168l-.078-.425.11.315a.11.11 0 0 0 .117.076.11.11 0 0 0 .047-.017l.137-.09-.116-.373.094.198a.108.108 0 0 0 .076.063.11.11 0 0 0 .096-.022l.126-.104-.205-.468.154.255a.11.11 0 0 0 .081.056.112.112 0 0 0 .094-.031l.115-.116-.278-.498.236.322a.11.11 0 0 0 .135.04.11.11 0 0 0 .04-.031l.106-.125s-.294-.36-.692-1.565v-.003c.356.188.927-.015.927-.015a.739.739 0 0 1-.258-.096c.107.016.216.02.325.013.41-.036.96-.363.96-.363a1.088 1.088 0 0 1-.551-.162c.538.058.798.006.798.006.646-.109 1.424-.767 1.424-.767-.512.092-1.062-.047-1.062-.047 1.695.04 2.64-1.2 2.64-1.2-.9.38-1.983.12-1.983.12.622.03 1.498-.12 2.199-.503.7-.382 1.448-1.554 1.448-1.554-1.326.637-2.479.538-2.479.538Z"/><path fill="url(#b)" d="M18.317 11.795c-.022.03-.312.402-.845.75-.013 2.996-2.463 5.43-5.472 5.43-3.009 0-5.458-2.434-5.471-5.43a3.613 3.613 0 0 1-.846-.75l-.204-.268c-.05.329-.075.661-.075.994a6.564 6.564 0 0 0 1.947 4.621 6.608 6.608 0 0 0 9.298 0 6.564 6.564 0 0 0 1.947-4.621c0-.333-.025-.665-.074-.994l-.205.268Z"/><path fill="url(#c)" d="M6.917 8.61c.408.104.771.178 1.053.228a5.461 5.461 0 0 1 4.031-1.77 5.477 5.477 0 0 1 4.031 1.77 14.522 14.522 0 0 0 1.235-.277 6.596 6.596 0 0 0-5.266-2.614A6.615 6.615 0 0 0 6.734 8.56l.183.048Z"/><path fill="url(#d)" d="M23.918 13.908a12.135 12.135 0 0 0-.036-3.096h-.19l-.816.003a.412.412 0 0 0-.41.413l.003 2.272v.027l.005.036.006.03a.326.326 0 0 0 .025.076.403.403 0 0 0 .246.221.41.41 0 0 0 .13.02l.817-.002h.22Z"/><path fill="url(#e)" d="m21.51 19.82-.762-.758a.413.413 0 0 0-.582.001l-1.604 1.61a.402.402 0 0 0-.12.29c0 .11.043.214.12.292l.759.754a12.072 12.072 0 0 0 2.189-2.19Z"/><path fill="url(#f)" d="M13.5 24.407v-.213l-.003-1.12a.412.412 0 0 0-.412-.41l-2.273.003a.408.408 0 0 0-.41.412l.003 1.12v.196a12.102 12.102 0 0 0 3.095.012Z"/><path fill="url(#g)" d="m4.68 22.01.756-.761a.413.413 0 0 0-.001-.582l-1.61-1.605a.409.409 0 0 0-.323-.118l-.034.004-.02.003-.03.008a.41.41 0 0 0-.175.105l-.752.756c.632.82 1.368 1.557 2.189 2.19Z"/><path fill="url(#h)" d="M.082 13.91a12.124 12.124 0 0 1 .035-3.095l1.026-.003a.408.408 0 0 1 .412.41l.004 2.273a.412.412 0 0 1-.41.413l-1.067.002Z"/><path fill="url(#i)" d="m2.49 5.181.76.756a.39.39 0 0 0 .15.095.41.41 0 0 0 .431-.096l1.605-1.61a.41.41 0 0 0-.002-.582l-.756-.752a12.072 12.072 0 0 0-2.188 2.19Z"/><path fill="url(#j)" d="m10.592.582.003 1.067c0 .226.185.41.412.41l2.273-.003a.408.408 0 0 0 .41-.413L13.688.618a12.104 12.104 0 0 0-3.096-.036Z"/><path fill="url(#k)" d="m19.318 2.99-.757.76c-.16.161-.16.422.001.582l1.61 1.605a.41.41 0 0 0 .582-.002l.754-.757a12.073 12.073 0 0 0-2.19-2.189Z"/><defs><linearGradient id="a" x1="3.536" x2="20.464" y1="19.293" y2="19.293" gradientUnits="userSpaceOnUse"><stop stop-color="#F8EEB8"/><stop offset=".563" stop-color="#DBB370"/><stop offset="1" stop-color="#8E5B2D"/></linearGradient><linearGradient id="b" x1="3.536" x2="20.464" y1="19.293" y2="19.293" gradientUnits="userSpaceOnUse"><stop stop-color="#F8EEB8"/><stop offset=".563" stop-color="#DBB370"/><stop offset="1" stop-color="#8E5B2D"/></linearGradient><linearGradient id="c" x1="3.536" x2="20.464" y1="19.293" y2="19.293" gradientUnits="userSpaceOnUse"><stop stop-color="#F8EEB8"/><stop offset=".563" stop-color="#DBB370"/><stop offset="1" stop-color="#8E5B2D"/></linearGradient><linearGradient id="d" x1="0" x2="24" y1="24.94" y2="24.94" gradientUnits="userSpaceOnUse"><stop stop-color="#F8EEB8"/><stop offset=".563" stop-color="#DBB370"/><stop offset="1" stop-color="#8E5B2D"/></linearGradient><linearGradient id="e" x1="0" x2="24" y1="24.94" y2="24.94" gradientUnits="userSpaceOnUse"><stop stop-color="#F8EEB8"/><stop offset=".563" stop-color="#DBB370"/><stop offset="1" stop-color="#8E5B2D"/></linearGradient><linearGradient id="f" x1="0" x2="24" y1="24.94" y2="24.94" gradientUnits="userSpaceOnUse"><stop stop-color="#F8EEB8"/><stop offset=".563" stop-color="#DBB370"/><stop offset="1" stop-color="#8E5B2D"/></linearGradient><linearGradient id="g" x1="0" x2="24" y1="24.94" y2="24.94" gradientUnits="userSpaceOnUse"><stop stop-color="#F8EEB8"/><stop offset=".563" stop-color="#DBB370"/><stop offset="1" stop-color="#8E5B2D"/></linearGradient><linearGradient id="h" x1="0" x2="24" y1="24.94" y2="24.94" gradientUnits="userSpaceOnUse"><stop stop-color="#F8EEB8"/><stop offset=".563" stop-color="#DBB370"/><stop offset="1" stop-color="#8E5B2D"/></linearGradient><linearGradient id="i" x1="0" x2="24" y1="24.94" y2="24.94" gradientUnits="userSpaceOnUse"><stop stop-color="#F8EEB8"/><stop offset=".563" stop-color="#DBB370"/><stop offset="1" stop-color="#8E5B2D"/></linearGradient><linearGradient id="j" x1="0" x2="24" y1="24.94" y2="24.94" gradientUnits="userSpaceOnUse"><stop stop-color="#F8EEB8"/><stop offset=".563" stop-color="#DBB370"/><stop offset="1" stop-color="#8E5B2D"/></linearGradient><linearGradient id="k" x1="0" x2="24" y1="24.94" y2="24.94" gradientUnits="userSpaceOnUse"><stop stop-color="#F8EEB8"/><stop offset=".563" stop-color="#DBB370"/><stop offset="1" stop-color="#8E5B2D"/></linearGradient></defs></svg>