<svg viewBox="0 0 25 24" fill="none" xmlns="http://www.w3.org/2000/svg">
<rect x="0.5" width="24" height="24" rx="12" fill="#B78A51"/>
<path d="M17.6729 9.65121C18.5285 9.6059 19.0847 9.43285 19.7389 9.07338C20.5991 8.60091 20.9642 7.11827 20.9642 7.11827C18.8519 8.53759 15.9641 8.83783 15.9641 8.83783C15.1036 10.217 14.3108 11.0244 13.6475 11.4928C13.5384 11.4294 13.4404 11.3486 13.3575 11.2537C13.1521 10.9829 13.1283 10.7078 13.1348 10.6611C13.1414 10.6144 13.1896 10.5388 13.2992 10.5055C13.3363 10.4924 13.3761 10.4882 13.4152 10.4934C13.4543 10.4987 13.4916 10.5131 13.524 10.5356C13.4919 10.3445 13.4741 10.2531 13.3619 10.1583C13.2575 10.0707 13.0677 10.0574 13.0677 10.0574C12.9724 9.98048 12.858 9.93069 12.7366 9.91324C12.4179 9.86875 12.2073 10.0058 12.0578 10.145C11.8581 10.3308 11.8425 10.6772 11.6987 11.0749C11.6342 11.2505 11.5085 11.3971 11.3446 11.4881C10.683 11.0187 9.89317 10.2121 9.03572 8.83837C9.03572 8.83837 6.14789 8.53813 4.03589 7.11881C4.03589 7.11881 4.40067 8.60146 5.26086 9.07393C5.91538 9.4334 6.47159 9.60644 7.32685 9.65175C7.32685 9.65175 6.17363 9.75029 4.84843 9.11378C4.84843 9.11378 5.59332 10.2839 6.2944 10.666C6.99548 11.0481 7.871 11.1991 8.49403 11.1682C8.49403 11.1682 7.41037 11.4284 6.50993 11.0481C6.50993 11.0481 7.45583 12.2895 9.15047 12.2491C9.15047 12.2491 8.60084 12.3875 8.08845 12.2961C8.08845 12.2961 8.86812 12.9547 9.51251 13.063C9.51251 13.063 9.77268 13.1146 10.3105 13.0565C10.1448 13.159 9.95432 13.2151 9.75926 13.2189C9.75926 13.2189 10.3097 13.5464 10.7194 13.5822C10.828 13.5893 10.9371 13.585 11.0447 13.5691C10.9655 13.617 10.8779 13.6496 10.7865 13.6652C10.7865 13.6652 11.3328 13.8592 11.6902 13.69C11.2934 14.889 11.0009 15.2485 11.0009 15.2485L11.1061 15.3735C11.117 15.3867 11.1308 15.3971 11.1464 15.4039C11.162 15.4108 11.179 15.4139 11.1961 15.4131C11.2131 15.4122 11.2297 15.4074 11.2446 15.3991C11.2595 15.3907 11.2721 15.3789 11.2816 15.3648L11.5172 15.0427L11.2414 15.5414L11.3572 15.6568C11.3692 15.669 11.3839 15.6781 11.4001 15.6836C11.4163 15.6891 11.4335 15.6907 11.4504 15.6883C11.4674 15.686 11.4835 15.6797 11.4976 15.67C11.5116 15.6603 11.5232 15.6475 11.5314 15.6325L11.6856 15.3768L11.4807 15.8449L11.6073 15.9489C11.6204 15.9598 11.6359 15.9676 11.6525 15.9715C11.6692 15.9754 11.6865 15.9754 11.7032 15.9714C11.7198 15.9674 11.7353 15.9596 11.7484 15.9486C11.7614 15.9376 11.7717 15.9236 11.7784 15.9079L11.8732 15.7101L11.7568 16.084L11.8937 16.1733C11.9079 16.1824 11.9241 16.1882 11.9409 16.1901C11.9578 16.192 11.9748 16.19 11.9907 16.1843C12.0067 16.1785 12.021 16.1691 12.0327 16.1569C12.0444 16.1447 12.053 16.1299 12.058 16.1138L12.1676 15.7988L12.0871 16.2246C12.0811 16.2562 12.0845 16.2888 12.0968 16.3186C12.1091 16.3483 12.1298 16.3739 12.1563 16.3922L12.3957 16.5193L12.4883 15.9189L12.5805 16.5193L12.8202 16.3922C12.8467 16.3739 12.8674 16.3483 12.8797 16.3186C12.892 16.2888 12.8954 16.2562 12.8895 16.2246L12.812 15.7988L12.9215 16.1138C12.9265 16.1299 12.9352 16.1447 12.9468 16.1569C12.9585 16.1691 12.9729 16.1785 12.9888 16.1843C13.0047 16.19 13.0218 16.192 13.0386 16.1901C13.0554 16.1882 13.0716 16.1824 13.0858 16.1733L13.2227 16.084L13.1064 15.7101L13.2011 15.9079C13.2078 15.9236 13.2181 15.9376 13.2312 15.9486C13.2442 15.9596 13.2597 15.9674 13.2763 15.9714C13.293 15.9754 13.3103 15.9754 13.327 15.9715C13.3436 15.9676 13.3592 15.9598 13.3723 15.9489L13.4988 15.8449L13.2937 15.3768L13.4481 15.6325C13.4563 15.6475 13.4679 15.6603 13.482 15.67C13.496 15.6797 13.5122 15.686 13.5291 15.6883C13.546 15.6907 13.5633 15.6891 13.5794 15.6836C13.5956 15.6781 13.6103 15.669 13.6223 15.6568L13.7381 15.5414L13.4602 15.043L13.6957 15.3651C13.7052 15.3793 13.7179 15.391 13.7328 15.3995C13.7477 15.4079 13.7643 15.4127 13.7814 15.4136C13.7985 15.4144 13.8155 15.4112 13.8312 15.4043C13.8468 15.3974 13.8607 15.387 13.8715 15.3738L13.9767 15.2488C13.9767 15.2488 13.6831 14.8882 13.2852 13.6837V13.6807C13.6412 13.869 14.2116 13.6665 14.2116 13.6665C14.1204 13.6509 14.0328 13.6183 13.9537 13.5704C14.0613 13.5863 14.1702 13.5907 14.2787 13.5835C14.6895 13.5472 15.2389 13.2202 15.2389 13.2202C15.0438 13.2165 14.8534 13.1604 14.6876 13.0578C15.2255 13.116 15.4856 13.0644 15.4856 13.0644C16.1314 12.9552 16.9097 12.2974 16.9097 12.2974C16.3973 12.3889 15.8477 12.2505 15.8477 12.2505C17.5423 12.29 18.4885 11.0495 18.4885 11.0495C17.5881 11.4297 16.5044 11.1696 16.5044 11.1696C17.1271 11.2004 18.0029 11.0492 18.7038 10.6674C19.4046 10.2855 20.1514 9.1135 20.1514 9.1135C18.8262 9.74974 17.6729 9.65121 17.6729 9.65121Z" fill="white"/>
<path d="M18.8171 11.2952C18.7949 11.3244 18.5049 11.6969 17.9715 12.0455C17.9583 15.0416 15.5089 17.4747 12.5 17.4747C9.49115 17.4747 7.04149 15.0413 7.02834 12.0455C6.49486 11.6969 6.20512 11.3244 6.18267 11.2952L5.97864 11.0271C5.92874 11.3561 5.90375 11.6884 5.90388 12.0212C5.9151 13.7574 6.61499 15.4187 7.85076 16.6424C9.08654 17.8662 10.7578 18.553 12.4999 18.553C14.2419 18.553 15.9133 17.8662 17.149 16.6424C18.3848 15.4187 19.0847 13.7574 19.0959 12.0212C19.096 11.6885 19.0711 11.3562 19.0214 11.0271L18.8171 11.2952Z" fill="white"/>
<path d="M7.41694 8.10961C7.82472 8.21415 8.18785 8.28784 8.46993 8.33806C8.98166 7.78014 9.60437 7.33456 10.2984 7.02971C10.9924 6.72486 11.7426 6.56742 12.501 6.56742C13.2594 6.56742 14.0096 6.72486 14.7036 7.02971C15.3976 7.33456 16.0203 7.78014 16.5321 8.33806C16.8141 8.28784 17.1773 8.21415 17.585 8.10961C17.6439 8.09432 17.7047 8.07822 17.7669 8.0613C17.5821 7.81829 17.3808 7.5882 17.1644 7.37265C16.5519 6.76216 15.8248 6.27788 15.0246 5.94748C14.2243 5.61708 13.3666 5.44702 12.5004 5.44702C11.6342 5.44702 10.7765 5.61708 9.97629 5.94748C9.17605 6.27788 8.44894 6.76216 7.83649 7.37265C7.6201 7.5882 7.4188 7.81829 7.23401 8.0613C7.29617 8.07822 7.35697 8.09432 7.41694 8.10961Z" fill="white"/>
</svg>
