<svg xmlns="http://www.w3.org/2000/svg" viewBox="0 0 26 26"  fill="none"><path fill="currentColor" d="M4.89 15.8c-.87 0-1.575.687-1.575 1.533 0 .847.706 1.533 1.576 1.533.87 0 1.576-.686 1.576-1.533 0-.846-.706-1.532-1.576-1.532Z"/><path fill="currentColor" fill-rule="evenodd" d="M11.57 2.799C12.43 1.14 14.213 0 16.276 0c2.784 0 5.063 2.08 5.239 4.708l2.495.48c1.825.467 1.987 1.81 1.975 2.387L26 21.93c0 1.289-1.093 2.337-2.436 2.337L2.436 26C1.093 26 0 24.952 0 23.663V10.338C0 8.51 1.683 8.004 3.24 8.004v-4c0-1.289 1.092-2.337 2.436-2.337l5.894 1.132Zm-.068 4.336a4.845 4.845 0 0 1-.42-2.844L5.605 3.228c-.415.034-.742.369-.742.776V8l6.639-.866Zm-2.468 6.681-6.212.76a1 1 0 0 0-.879.992v4.116a1 1 0 0 0 1.122.993l5.97-.73c2.535-.447 3.15-1.88 3.15-3.065 0-2.582-1.785-3.232-3.15-3.066Zm9.114-7.212c.147-.227.22-.49.22-.785 0-.38-.116-.69-.35-.926-.234-.242-.591-.415-1.074-.519l-.86-.185c-.219-.05-.371-.106-.457-.17a.313.313 0 0 1-.13-.252c0-.148.074-.27.22-.363.148-.094.354-.141.618-.141.284 0 .55.04.8.119.248.074.464.18.647.318l.373-.993a2.035 2.035 0 0 0-.693-.385 3.122 3.122 0 0 0-.663-.151v-.827h-1.058V2.2c-.272.05-.516.133-.731.25-.27.147-.48.34-.633.577-.147.232-.22.496-.22.793 0 .39.114.708.342.955.234.242.587.415 1.059.519l.86.177c.23.05.387.112.473.186a.32.32 0 0 1 .13.259c0 .123-.064.227-.191.311-.127.084-.348.126-.663.126-.208 0-.416-.02-.624-.06a3.827 3.827 0 0 1-.587-.177 2.872 2.872 0 0 1-.51-.26l-.388 1.06 4.09-.311Z" clip-rule="evenodd"/></svg>