<svg width="18" height="18" viewBox="0 0 18 18" fill="none" xmlns="http://www.w3.org/2000/svg">
<path fill-rule="evenodd" clip-rule="evenodd" d="M0.512563 11.7846C0.32717 11.0171 0.15629 10.2467 0 9.47374H18C17.8436 10.2467 17.6727 11.0171 17.4874 11.7846L17.0563 13.6281C16.5668 15.7233 16.3226 16.7704 15.4935 17.3852C14.6643 18 13.4965 18 11.1608 18H6.8392C4.50352 18 3.33568 18 2.50754 17.3852C1.67739 16.7704 1.43216 15.7233 0.943718 13.6281L0.512563 11.7846ZM6.98995 10.8564C6.79004 10.8564 6.59831 10.9292 6.45695 11.0589C6.3156 11.1885 6.23618 11.3643 6.23618 11.5477C6.23618 11.731 6.3156 11.9069 6.45695 12.0365C6.59831 12.1662 6.79004 12.239 6.98995 12.239H11.0101C11.21 12.239 11.4017 12.1662 11.543 12.0365C11.6844 11.9069 11.7638 11.731 11.7638 11.5477C11.7638 11.3643 11.6844 11.1885 11.543 11.0589C11.4017 10.9292 11.21 10.8564 11.0101 10.8564H6.98995Z" fill="#979797"/>
<path fill-rule="evenodd" clip-rule="evenodd" d="M5.89717 0.000118831H11.7943C11.7943 0.000118831 12.056 -0.00415401 12.1817 0.0385439C12.3674 0.101355 12.5205 0.236529 12.6084 0.41434L14.7713 4.81671C16.1012 4.92072 16.9357 5.18673 17.4742 5.8638C17.9028 6.40284 18.0405 7.07292 17.9901 8H0.00968511C-0.0402259 7.07292 0.098469 6.40284 0.526072 5.8638C1.06453 5.18576 1.8991 4.92072 3.22894 4.81671L5.39191 0.41434C5.43846 0.32107 5.50325 0.239733 5.58148 0.174634C5.67184 0.0992566 5.78026 0.0249463 5.89717 0.000118831ZM11.2679 1.41608H6.75958C6.74998 1.44468 6.73846 1.47279 6.72502 1.50025L5.04768 4.74971L5.39335 4.75124C5.73025 4.74971 6.08779 4.74971 6.46644 4.74971L12.0728 4.7499C12.4332 4.75023 12.6416 4.74785 12.9612 4.75124L11.3029 1.50025C11.2895 1.47282 11.278 1.44471 11.2679 1.41608Z" fill="#979797"/>
</svg>
