<svg width="746" height="432" viewBox="0 0 746 432" fill="none" xmlns="http://www.w3.org/2000/svg">
<path d="M879.673 182.905C879.739 182.898 879.803 182.881 879.863 182.855C985.437 136.008 1065.68 92.8883 1108.16 60.172C1150.66 27.4455 1153.01 6.95227 1114.85 1.86704C1076.69 -3.21932 1000.14 7.38677 897.071 32.0402C793.999 56.6948 670.149 94.0217 544.701 138.241C419.253 182.461 299.207 231.106 203.152 276.643C107.097 322.18 40.3966 362.069 13.3746 390.131C-13.6472 418.193 0.518799 432.864 53.6769 431.872C106.823 430.879 195.977 414.288 307.339 384.666C307.402 384.649 307.464 384.622 307.519 384.587C308.131 384.196 307.698 383.252 306.996 383.438C198.932 412.018 112.423 428.015 60.6077 428.983C8.15613 429.963 -5.81958 415.488 20.844 387.802C47.502 360.114 113.311 320.761 208.079 275.834C302.846 230.907 421.285 182.914 545.052 139.287C668.82 95.6589 791.01 58.8326 892.701 34.5084C994.392 10.1853 1069.91 -0.27859 1107.56 4.73945C1145.21 9.75637 1142.89 29.9752 1100.96 62.2627C1059.54 94.165 981.727 136.091 879.361 181.685C878.7 181.979 878.953 182.984 879.673 182.905Z" fill="url(#paint0_linear_118_4804)"/>
<defs>
<linearGradient id="paint0_linear_118_4804" x1="1023.08" y1="6.75294" x2="1002" y2="195.46" gradientUnits="userSpaceOnUse">
<stop stop-color="#FFDDAC"/>
<stop offset="1" stop-color="white" stop-opacity="0"/>
</linearGradient>
</defs>
</svg>
