 <svg
      xmlns="http://www.w3.org/2000/svg"
      width="18"
      height="19"
      viewBox="0 0 18 19"
      fill="none"
    >
      <path
        d="M13.349 1.77174L2.57994 3.38266C1.72611 3.51038 1.14391 4.2974 1.27164 5.15123L2.88256 15.9203C2.9436 16.3283 3.16422 16.6954 3.49589 16.9407C3.82756 17.1861 4.24311 17.2896 4.65113 17.2286L15.4202 15.6177C16.274 15.49 16.8562 14.7029 16.7285 13.8491L15.1176 3.08004C15.0565 2.67202 14.8359 2.30496 14.5043 2.05961C14.1726 1.81425 13.757 1.7107 13.349 1.77174ZM5.99207 6.0573C6.7459 5.94453 7.44449 6.46131 7.5584 7.22284C7.67117 7.97667 7.15439 8.67526 6.40055 8.78802C5.63903 8.90194 4.94044 8.38516 4.82768 7.63132C4.71376 6.8698 5.23054 6.17121 5.99207 6.0573ZM12.0523 12.9758C11.2985 13.0885 10.5987 12.564 10.486 11.8102C10.3732 11.0564 10.89 10.3578 11.6438 10.245C12.3976 10.1323 13.1039 10.6479 13.2167 11.4017C13.3294 12.1556 12.8061 12.863 12.0523 12.9758ZM6.88659 13.7721L5.56016 12.7908L11.1401 5.24789L12.4665 6.22912L6.88659 13.7721Z"
        fill="#7E7E7E"
      />
    </svg>