<svg
      width="18"
      height="18"
      viewBox="0 0 18 18"
      fill="none"
      xmlns="http://www.w3.org/2000/svg"
    >
      <path
        fill-rule="evenodd"
        clip-rule="evenodd"
        d="M9.7849 5.64689C10.0161 5.52419 10.2406 5.36245 10.4719 5.19581C10.9558 4.84724 11.4695 4.47725 12.1356 4.39839C13.4609 4.2415 14.0964 4.39839 15.1924 5.21802C16.2889 6.03764 17 7.29118 17 9.71615C17 12.1411 16.3356 13.9516 14.9836 15.2688C14.2542 15.9794 13.6533 16.455 12.6671 16.8546C12.1693 17.056 11.6831 17.0233 11.104 16.904C10.8949 16.8611 10.7034 16.7639 10.4932 16.6572C10.1211 16.4684 9.69042 16.2499 9 16.2499C8.29444 16.2499 7.85918 16.4735 7.48875 16.6638C7.28564 16.7681 7.102 16.8624 6.904 16.9044C6.34533 17.0237 5.83067 17.0564 5.33289 16.8546C4.34667 16.4554 3.77022 15.9267 3.04133 15.2161C1.68978 13.8988 1 12.1182 1 9.71655C1 7.31407 1.67556 6.03764 2.67111 5.21802C3.66667 4.39839 4.29689 4.2227 5.44711 4.39839C5.98545 4.48046 6.56159 4.80715 7.13343 5.1314C7.58025 5.38476 8.02444 5.63663 8.44592 5.76914C8.80258 3.1924 10.9115 -0.357044 11.8442 1.5325C12.1177 2.08662 12.4869 2.5294 12.1356 3.07925C11.9582 3.35683 11.4643 3.86509 10.9474 4.39708C10.5206 4.83631 10.078 5.29175 9.7849 5.64689ZM5.57935 11.7473C5.43421 11.4914 5.28074 11.2209 5.20174 10.9157C5.12273 10.6105 5.13991 10.2691 5.15615 9.94627C5.18613 9.35045 5.21294 8.81772 4.62605 8.69176C3.64457 8.48113 3.39756 9.94752 3.47468 10.9157C3.57222 12.1403 5.1231 14.1927 5.77742 13.1396C6.08674 12.6417 5.84723 12.2195 5.57935 11.7473Z"
        fill="#7E7E7E"
      />
    </svg>