<svg
      xmlns="http://www.w3.org/2000/svg"
      width="18"
      height="19"
      viewBox="0 0 18 19"
      fill="none"
    >
      <g clip-path="url(#clip0_5039_26817)">
        <path
          d="M6.37359 9.5C6.82027 9.5 7.24865 9.3276 7.5645 9.02072C7.88035 8.71384 8.0578 8.29763 8.0578 7.86364C8.0578 7.42965 7.88035 7.01343 7.5645 6.70655C7.24865 6.39968 6.82027 6.22727 6.37359 6.22727C5.92691 6.22727 5.49852 6.39968 5.18267 6.70655C4.86682 7.01343 4.68938 7.42965 4.68938 7.86364C4.68938 8.29763 4.86682 8.71384 5.18267 9.02072C5.49852 9.3276 5.92691 9.5 6.37359 9.5ZM16.8999 5L8.8999 0.5L0.899902 5V14L8.8999 18.5L16.8999 14V5ZM8.8999 2.39082L15.2157 5.94336V11.5725L11.374 9.33391L4.66159 14.225L2.58411 13.0566V5.94336L8.8999 2.39082ZM8.8999 16.6092L6.24559 15.116L11.4784 11.3033L14.8452 13.2653L8.8999 16.6092Z"
          fill="#7E7E7E"
        />
      </g>
      <defs>
        <clipPath id="clip0_5039_26817">
          <rect
            width="18"
            height="18"
            fill="white"
            transform="translate(0 0.5)"
          />
        </clipPath>
      </defs>
    </svg>