 <svg
      width="18"
      height="18"
      viewBox="0 0 18 18"
      fill="none"
      xmlns="http://www.w3.org/2000/svg"
    >
      <path
        fill-rule="evenodd"
        clip-rule="evenodd"
        d="M13.1195 0.0642348L13.2243 0C13.0522 0.382617 12.9681 1.39407 12.9122 2.06577C12.8968 2.2508 12.8836 2.41006 12.8713 2.52328C13.2557 1.50925 13.544 1.29701 14.0726 0.966863C13.8265 1.71712 13.7558 2.24638 13.8362 3.02095C13.8401 3.05726 13.8439 3.09359 13.8478 3.12994C13.8778 3.41281 13.9079 3.69638 13.974 3.97345C14.1903 4.44289 14.4798 4.88602 14.7715 5.33251C15.0809 5.80605 15.3927 6.28337 15.6224 6.79991C15.7903 7.17574 15.9196 7.57656 16.0491 7.97829C16.2382 8.56479 16.4279 9.15322 16.7396 9.66863C16.8387 9.83261 16.9445 9.99415 17.0505 10.1559C17.2631 10.4806 17.4764 10.8063 17.6379 11.1548C17.6622 11.1994 17.6878 11.2431 17.7132 11.2866C17.7844 11.4084 17.8551 11.5292 17.8978 11.6662C18.0254 12.0086 18.0343 12.4033 17.9202 12.7538C17.8117 13.0968 17.6413 13.4091 17.434 13.6891C17.265 13.9319 17.0556 14.1416 16.8335 14.3381C16.6499 14.4721 16.4787 14.3215 16.3288 14.1897C16.2967 14.1614 16.2656 14.1341 16.2355 14.1105C16.025 14.3012 15.4413 14.5743 15.1777 14.6729C15.0393 14.7282 14.8795 14.6984 14.7691 14.589C14.4872 14.3272 14.3577 13.9325 14.2353 13.5591C14.2297 13.5422 14.2242 13.5253 14.2187 13.5084C14.0446 13.1149 13.6644 12.8221 13.2256 12.5491C12.9461 12.4062 12.6754 12.2454 12.4157 12.0688C12.322 12.0119 11.8198 11.6392 11.4789 11.319C10.952 10.824 10.6247 10.4141 10.2987 9.89948C9.7767 10.1625 9.31795 10.561 9.0368 11.0708C8.6758 11.692 8.58832 12.4301 8.61889 13.1333C8.66658 13.9172 8.87817 14.6832 9.16512 15.413C9.53056 16.304 10.5568 18 10.5568 18C10.5568 18 2.82036 16.3523 0.555642 15.7528C-0.702271 11.0708 -0.101567 5.6361 5.26832 2.89397C6.99047 2.16685 8.75324 1.94426 10.5543 2.35785C11.3728 1.13387 12.2483 0.597717 13.1195 0.0642348ZM12.2675 5.74483C12.2186 6.96604 12.4495 7.35382 13.6641 7.12103L13.9146 7.33086C13.6337 6.35364 13.3538 5.92654 12.2675 5.74483Z"
        fill="#7E7E7E"
      />
    </svg>