<svg
      width="18"
      height="18"
      viewBox="0 0 18 18"
      fill="none"
      xmlns="http://www.w3.org/2000/svg"
    >
      <path
        d="M16.7919 1.34496C16.7855 1.31387 16.7703 1.28525 16.7482 1.26246C16.7261 1.23967 16.698 1.22365 16.6671 1.21629C12.961 0.31017 8.10063 3.61971 6.02004 6.56355C5.22515 6.49324 4.43027 6.55195 3.75281 6.84727C1.84136 7.68855 1.28484 9.88371 1.1298 10.828C1.12101 10.8797 1.12432 10.9327 1.13949 10.9829C1.15466 11.0331 1.18126 11.0791 1.21721 11.1172C1.25316 11.1554 1.29747 11.1847 1.34666 11.2028C1.39585 11.221 1.44858 11.2274 1.5007 11.2218L4.57019 10.8832C4.58362 12.3006 5.69374 13.4116 7.11164 13.4257L6.77484 16.4913C6.76922 16.5434 6.77575 16.5961 6.79391 16.6453C6.81208 16.6944 6.84138 16.7387 6.87952 16.7746C6.91767 16.8106 6.96362 16.8372 7.01377 16.8524C7.06393 16.8676 7.11692 16.8709 7.16859 16.8622C8.11113 16.7111 10.3102 16.1545 11.1465 14.2431C11.4418 13.5656 11.5023 12.7746 11.4341 11.9836C14.4163 9.88088 17.6526 5.0979 16.7919 1.34496ZM10.3383 7.66148C10.1022 7.42553 9.94134 7.12485 9.87614 6.79747C9.81093 6.4701 9.84429 6.13074 9.97198 5.82233C10.0997 5.51391 10.316 5.2503 10.5935 5.06482C10.871 4.87935 11.1973 4.78035 11.5311 4.78035C11.8649 4.78035 12.1912 4.87935 12.4688 5.06482C12.7463 5.2503 12.9626 5.51391 13.0903 5.82233C13.218 6.13074 13.2513 6.4701 13.1861 6.79747C13.1209 7.12485 12.9601 7.42553 12.724 7.66148C12.5674 7.81827 12.3815 7.94266 12.1768 8.02753C11.9721 8.1124 11.7527 8.15608 11.5311 8.15608C11.3096 8.15608 11.0901 8.1124 10.8855 8.02753C10.6808 7.94266 10.4948 7.81827 10.3383 7.66148Z"
        fill="#7E7E7E"
      />
      <path
        d="M5.92031 14.0425C5.72766 14.2355 5.41863 14.3107 5.04668 14.375C4.21102 14.5174 3.47309 13.7953 3.6232 12.9505C3.68051 12.6302 3.84996 12.1813 3.95543 12.0758C3.97848 12.0532 3.99383 12.0239 3.99928 11.9921C4.00474 11.9603 4.00003 11.9275 3.98582 11.8985C3.97162 11.8695 3.94864 11.8458 3.92015 11.8306C3.89166 11.8154 3.8591 11.8095 3.82711 11.8139C3.3598 11.8711 2.92505 12.083 2.59207 12.4158C1.76555 13.243 1.6875 16.3125 1.6875 16.3125C1.6875 16.3125 4.75875 16.2345 5.58527 15.4072C5.91914 15.0745 6.13127 14.6391 6.1875 14.1711C6.20051 14.0242 6.02156 13.9366 5.92031 14.0425Z"
        fill="#7E7E7E"
      />
    </svg>