<svg width="13" height="14" viewBox="0 0 13 14" fill="none" xmlns="http://www.w3.org/2000/svg">
        <path d="M2.63569 6.05672C2.7323 6.05672 2.82994 6.05097 2.92597 6.03959C3.52773 5.96838 4.07217 5.68701 4.50036 5.22589C4.92854 4.76477 5.18982 4.17845 5.25594 3.5304C5.34395 2.66824 5.06854 1.82281 4.50036 1.21093C4.00245 0.674688 3.34042 0.379373 2.63624 0.379373C1.93207 0.379373 1.27007 0.674657 0.772159 1.21093C0.274222 1.74713 0 2.46008 0 3.21842C0 3.97676 0.274193 4.68968 0.772159 5.22592C1.26963 5.76166 1.93146 6.05672 2.63569 6.05672ZM1.55024 2.04885C1.84031 1.73647 2.226 1.56442 2.63624 1.56442C3.04646 1.56442 3.43215 1.73647 3.72225 2.04885C4.05328 2.40535 4.21374 2.89782 4.16251 3.40001C4.12448 3.77223 3.96817 4.12309 3.72225 4.38796C3.47627 4.6528 3.15049 4.82116 2.80486 4.86208C2.74902 4.86868 2.69218 4.87202 2.63598 4.87202C2.22574 4.87202 1.84014 4.70009 1.55027 4.38796C0.951462 3.74306 0.951462 2.69375 1.55024 2.04885Z" fill="#7E7E7E" />
        <path d="M4.50036 9.15345C4.07214 8.69233 3.52773 8.41096 2.92597 8.33975C2.82997 8.3284 2.73232 8.32262 2.63572 8.32262C1.93149 8.32262 1.26963 8.61768 0.772159 9.15345C-0.255732 10.2604 -0.255732 12.0615 0.772159 13.1685C1.26998 13.7046 1.93204 13.9999 2.63627 14C3.34033 14 4.00245 13.7047 4.50039 13.1685C5.06857 12.5566 5.34401 11.7111 5.25597 10.849C5.18982 10.2009 4.92854 9.6146 4.50036 9.15345ZM3.72228 12.3305C3.43218 12.6429 3.04652 12.8149 2.63627 12.8149C2.22603 12.8149 1.84034 12.6429 1.55027 12.3305C0.951462 11.6856 0.951462 10.6363 1.55027 9.99148C1.84014 9.67928 2.22577 9.50735 2.63601 9.50735C2.69224 9.50735 2.74904 9.51069 2.80489 9.51732C3.15055 9.55827 3.47636 9.72664 3.72228 9.99148C3.9682 10.2563 4.12454 10.6071 4.16254 10.9794C4.21377 11.4815 4.05331 11.974 3.72228 12.3305Z" fill="#7E7E7E" />
        <path d="M3.23819 6.30208L3.87836 6.95208L3.87946 6.95361L6.11867 4.54217L5.49823 3.87401C5.38215 4.47046 5.11179 5.00951 4.70564 5.44693C4.29777 5.88614 3.79476 6.17795 3.23819 6.30208Z" fill="#7E7E7E" />
        <path d="M8.78234 7.41073L6.51483 9.85265L8.39326 11.8447C9.65792 13.2066 11.6945 13.2426 13 11.9529L8.78234 7.41073Z" fill="#7E7E7E" />
        <path d="M11.6223 2.42413C11.6223 1.51809 11.3124 0.663279 10.7469 0L3.24504 8.07888C3.79885 8.20386 4.29943 8.49499 4.70561 8.93241C5.11176 9.36983 5.38212 9.90895 5.4982 10.5054L10.6464 4.96115C11.2757 4.28349 11.6223 3.38248 11.6223 2.42413Z" fill="#7E7E7E" />
    </svg>