 <svg
      xmlns="http://www.w3.org/2000/svg"
      width="20"
      height="20"
      viewBox="0 0 20 20"
      fill="none"
    >
      <path
        d="M3.14175 9.95075C3.14175 9.63881 2.93376 9.42529 2.6163 9.42529H0.52545C0.213464 9.42529 0 9.73728 0 9.95075C0 10.2627 0.207991 10.4763 0.52545 10.4763H2.6163C2.93376 10.4707 3.14175 10.2627 3.14175 9.95075Z"
        fill="#363636"
      />
      <path
        d="M4.40022 14.7622L2.93334 16.2291C2.72535 16.4371 2.72535 16.7546 2.93334 16.9625C3.14133 17.1705 3.45879 17.1705 3.66678 16.9625L5.13366 15.4956C5.34165 15.2876 5.34165 14.9701 5.13366 14.7622C4.92567 14.6582 4.60821 14.5542 4.40022 14.7622Z"
        fill="#363636"
      />
      <path
        d="M15.495 5.13416L16.9618 3.66727C17.1698 3.45928 17.1698 3.14182 16.9618 2.93383C16.7538 2.72583 16.4363 2.72583 16.2283 2.93383L14.7615 4.40071C14.5535 4.6087 14.5535 4.92617 14.7615 5.13416C14.975 5.34215 15.3909 5.34215 15.495 5.13416Z"
        fill="#363636"
      />
      <path
        d="M9.95025 3.14177C10.2622 3.14177 10.4758 2.93377 10.4758 2.61631V0.525452C10.4758 0.213465 10.2678 0 9.95025 0C9.74226 0 9.4248 0.207991 9.4248 0.525452V2.61631C9.4248 2.93377 9.73679 3.14177 9.95025 3.14177Z"
        fill="#363636"
      />
      <path
        d="M4.40022 5.13416C4.60821 5.34215 4.92567 5.34215 5.13366 5.13416C5.34165 4.92617 5.34165 4.6087 5.13366 4.40071L3.66678 2.93383C3.45879 2.72583 3.14133 2.72583 2.93334 2.93383C2.72535 3.14182 2.72535 3.45928 2.93334 3.66727L4.40022 5.13416Z"
        fill="#363636"
      />
      <path
        d="M9.95025 16.8584C9.63832 16.8584 9.4248 17.0664 9.4248 17.3839V19.4747C9.4248 19.7867 9.6328 20.0002 9.95025 20.0002C10.2678 20.0002 10.4758 19.7922 10.4758 19.4747V17.3839C10.4702 17.0664 10.2622 16.8584 9.95025 16.8584Z"
        fill="#363636"
      />
      <path
        d="M19.4747 9.42529H17.3839C17.0719 9.42529 16.8584 9.63328 16.8584 9.95075C16.8584 10.2683 17.0664 10.4763 17.3839 10.4763H19.4747C19.7867 10.4763 20.0002 10.2683 20.0002 9.95075C20.0002 9.73728 19.6827 9.42529 19.4747 9.42529Z"
        fill="#363636"
      />
      <path
        d="M15.4949 14.762C15.2868 14.554 14.9694 14.554 14.7614 14.762C14.5535 14.9699 14.5535 15.2874 14.7614 15.4954L16.2283 16.9623C16.4363 17.1703 16.7538 17.1703 16.9618 16.9623C17.1697 16.7543 17.1698 16.4368 16.9618 16.2288L15.4949 14.762Z"
        fill="#363636"
      />
      <path
        d="M9.95044 15.709C13.1305 15.709 15.7085 13.1311 15.7085 9.95095C15.7085 6.77085 13.1305 4.19287 9.95044 4.19287C6.77035 4.19287 4.19238 6.77085 4.19238 9.95095C4.19238 13.1311 6.77035 15.709 9.95044 15.709Z"
        fill="#363636"
      />
    </svg>