<svg
      width="18"
      height="18"
      viewBox="0 0 18 18"
      fill="none"
      xmlns="http://www.w3.org/2000/svg"
    >
      <path
        d="M13.7469 1H4.24935V2.12875H1V4.54164C1 6.27511 2.45765 7.68538 4.24935 7.68538H4.30629C4.60617 9.56942 6.09039 11.0715 7.99597 11.4681V14.072H6.83061C6.46999 14.072 6.18149 14.3548 6.18149 14.7V15.5264H5.18695V17H12.813V15.5264H11.8185V14.7C11.8185 14.3511 11.5262 14.072 11.1694 14.072H10.004V11.4681C11.9134 11.0715 13.3938 9.56575 13.6937 7.68538H13.7507C15.5423 7.68538 17 6.27511 17 4.54164V2.12875H13.7507L13.7469 1ZM4.24935 6.09515C3.36489 6.09515 2.64365 5.39736 2.64365 4.54164V3.71898H4.24935V6.09515ZM15.3488 3.71898V4.54164C15.3488 5.39736 14.6313 6.09515 13.7469 6.09515V3.71898H15.3488Z"
        fill="#7E7E7E"
      />
    </svg>