 <svg
      width="18"
      height="18"
      viewBox="0 0 18 18"
      fill="none"
      xmlns="http://www.w3.org/2000/svg"
    >
      <path
        d="M8.1572 0.0279007C8.65226 -0.0259952 9.16052 0.0171207 9.66063 0.00443924C10.1122 -0.00348669 10.4324 0.436875 10.2171 0.758982C9.86386 1.33694 9.51219 1.91584 9.15392 2.49189C9.0999 2.59778 8.89862 2.5981 8.84499 2.49189C8.48633 1.91616 8.13466 1.33694 7.78144 0.758982C7.60425 0.485698 7.79426 0.11667 8.1572 0.0279007Z"
        fill="#7E7E7E"
      />
      <path
        d="M6.61597 0.319231C2.80246 1.36419 0 4.85486 0 9C0 13.9705 4.02947 18 9 18C13.9705 18 18 13.9705 18 9C18 4.85392 15.1963 1.36262 11.3815 0.318447L10.851 1.18731C10.8457 1.19594 10.8404 1.20473 10.835 1.21336C12.2705 1.55174 13.597 2.28343 14.6567 3.34314C16.1571 4.8434 16.9999 6.87823 16.9999 9C16.9999 11.1218 16.1571 13.1566 14.6567 14.6569C13.1566 16.1571 11.1216 16.9999 9 16.9999C6.87838 16.9999 4.8434 16.1571 3.3433 14.6569C1.84288 13.1566 1.00007 11.1218 1.00007 9C1.00007 6.87823 1.84288 4.8434 3.3433 3.34314C4.40238 2.28406 5.72764 1.55253 7.16214 1.21399C7.09937 1.11087 7.03627 1.00776 6.97349 0.904646L6.61597 0.319231Z"
        fill="#7E7E7E"
      />
      <path
        d="M7.79684 2.25188C6.58238 2.46753 5.44451 3.00931 4.50785 3.82528L7.24847 6.56417C7.47478 6.40111 7.72464 6.26896 7.99208 6.17353C8.16064 6.11342 8.33611 6.06806 8.51692 6.03871V3.41973C8.27584 3.03097 8.03571 2.64158 7.79684 2.25188Z"
        fill="#7E7E7E"
      />
      <path
        d="M9.48308 3.41581V6.03871C9.9511 6.11452 10.3827 6.29846 10.7515 6.56417L13.4922 3.82528C12.5549 3.00868 11.4157 2.46674 10.2003 2.25141C9.96209 2.64001 9.72321 3.02815 9.48308 3.41581Z"
        fill="#7E7E7E"
      />
      <path
        d="M11.9613 8.51676C11.8856 8.04874 11.7014 7.61682 11.4355 7.24784L14.1746 4.50785C15.1498 5.62782 15.7327 7.03533 15.8357 8.51676H11.9613Z"
        fill="#7E7E7E"
      />
      <path
        d="M11.9613 9.48324C11.8856 9.95126 11.7014 10.383 11.4355 10.7518L14.1746 13.4911C15.1501 12.3715 15.7337 10.9644 15.8366 9.48324H11.9613Z"
        fill="#7E7E7E"
      />
      <path
        d="M9.48308 11.9613C9.66922 11.9312 9.84971 11.8839 10.0227 11.8211C10.2845 11.7262 10.5296 11.5958 10.7518 11.4357L13.4909 14.1747C12.3712 15.1495 10.9644 15.7326 9.48308 15.8355V11.9613Z"
        fill="#7E7E7E"
      />
      <path
        d="M8.51692 11.9613C8.04858 11.8855 7.61698 11.7014 7.24784 11.4355L4.50785 14.1747C5.62782 15.1501 7.03533 15.7337 8.51692 15.8368V11.9613Z"
        fill="#7E7E7E"
      />
      <path
        d="M6.03871 9.48324C6.11436 9.95126 6.29862 10.3832 6.56449 10.7522L3.82544 13.4922C2.85017 12.3722 2.26695 10.9647 2.16431 9.48324H6.03871Z"
        fill="#7E7E7E"
      />
      <path
        d="M6.03871 8.51676C6.11436 8.0489 6.29862 7.61714 6.56417 7.24831L3.82544 4.50785C2.84985 5.62767 2.26632 7.03517 2.16336 8.51676H6.03871Z"
        fill="#7E7E7E"
      />
    </svg>