<svg width="200" height="278" viewBox="0 0 200 278" fill="none" xmlns="http://www.w3.org/2000/svg">
<g clip-path="url(#clip0_2709_120732)">
<rect y="0.00439453" width="200" height="278" rx="10" fill="url(#paint0_linear_2709_120732)"/>
<path d="M172.472 214.964C175.652 221.229 183.943 218.885 184 212.718C184.057 205.804 175.519 202.199 172.699 195.737L172.661 195.658L172.623 195.757C169.67 202.159 161.057 205.587 161.001 212.502C160.925 218.648 169.159 221.15 172.472 214.964Z" fill="#E04749"/>
<path d="M27.5283 63.0445C24.3481 56.7799 16.0571 59.1242 16.0003 65.2903C15.9435 72.2051 24.4806 75.8102 27.3011 82.2718L27.339 82.3506L27.3768 82.2521C30.3298 75.8496 38.9427 72.4218 38.9995 65.507C39.0752 59.3606 30.8409 56.8587 27.5283 63.0445Z" fill="#E04749"/>
<path d="M100.011 105.624C85.9137 77.1853 50 88.2075 50 116.398C50 147.996 87.2304 159.168 99.807 188.577L100.011 189L100.193 188.577C112.77 159.168 150 147.996 150 116.398C150.023 88.1826 114.109 77.1853 100.011 105.624Z" fill="#E04749"/>
<path d="M16 47.0044L24.0205 16.0044H30.9402L39 47.0044H32.8667L29.5248 31.3142C29.1578 29.761 28.804 28.1128 28.4632 26.3694C28.1225 24.6261 27.7818 22.9461 27.441 21.3295H27.2838C26.9954 22.9461 26.6809 24.6261 26.3402 26.3694C25.9994 28.1128 25.6456 29.761 25.2786 31.3142L21.8974 47.0044H16ZM21.2684 39.6348V34.167H33.6137V39.6348H21.2684Z" fill="#E04749"/>
<path d="M184 231.004L175.979 262.004L169.06 262.004L161 231.004L167.133 231.004L170.475 246.695C170.842 248.248 171.196 249.896 171.537 251.639C171.877 253.383 172.218 255.063 172.559 256.679L172.716 256.679C173.005 255.063 173.319 253.383 173.66 251.639C174.001 249.896 174.354 248.248 174.721 246.695L178.103 231.004L184 231.004ZM178.732 238.374L178.732 243.842L166.386 243.842L166.386 238.374L178.732 238.374Z" fill="#E04749"/>
</g>
<defs>
<linearGradient id="paint0_linear_2709_120732" x1="0" y1="278.004" x2="200" y2="0.00440461" gradientUnits="userSpaceOnUse">
<stop stop-color="#101010"/>
<stop offset="0.712851" stop-color="#201F1F"/>
<stop offset="1" stop-color="#101010"/>
</linearGradient>
<clipPath id="clip0_2709_120732">
<rect width="200" height="278" fill="white"/>
</clipPath>
</defs>
</svg>
