<svg width="200" height="278" viewBox="0 0 200 278" fill="none" xmlns="http://www.w3.org/2000/svg">
<g clip-path="url(#clip0_2709_120545)">
<rect y="0.00439453" width="200" height="278" rx="10" fill="url(#paint0_linear_2709_120545)"/>
<path d="M16.1951 47.0044V42.6443C18.7967 40.3764 21.1057 38.2522 23.122 36.2718C25.1707 34.2914 26.7642 32.4547 27.9024 30.7617C29.0732 29.0688 29.6585 27.5196 29.6585 26.1141C29.6585 24.6128 29.2683 23.4789 28.4878 22.7123C27.7073 21.9137 26.6341 21.5144 25.2683 21.5144C24.1626 21.5144 23.1545 21.8339 22.2439 22.4727C21.3659 23.0796 20.5366 23.7983 19.7561 24.6288L16 20.9874C17.4959 19.3264 19.0244 18.0806 20.5854 17.2501C22.1789 16.4196 24.065 16.0044 26.2439 16.0044C28.2602 16.0044 30.0325 16.4037 31.561 17.2022C33.122 18.0008 34.3252 19.1188 35.1707 20.5562C36.0488 21.9936 36.4878 23.6865 36.4878 25.635C36.4878 27.4557 35.9837 29.2445 34.9756 31.0013C34 32.7262 32.6992 34.4511 31.0732 36.176C29.4472 37.9008 27.7236 39.6577 25.9024 41.4464C26.6829 41.3506 27.561 41.2708 28.5366 41.2069C29.5122 41.111 30.3577 41.0631 31.0732 41.0631H38V47.0044H16.1951Z" fill="#E04749"/>
<path d="M182.805 231.004L182.805 235.365C180.203 237.632 177.894 239.757 175.878 241.737C173.829 243.717 172.236 245.554 171.098 247.247C169.927 248.94 169.341 250.489 169.341 251.895C169.341 253.396 169.732 254.53 170.512 255.297C171.293 256.095 172.366 256.494 173.732 256.494C174.837 256.494 175.846 256.175 176.756 255.536C177.634 254.929 178.463 254.21 179.244 253.38L183 257.021C181.504 258.682 179.976 259.928 178.415 260.759C176.821 261.589 174.935 262.004 172.756 262.004C170.74 262.004 168.967 261.605 167.439 260.807C165.878 260.008 164.675 258.89 163.829 257.453C162.951 256.015 162.512 254.322 162.512 252.374C162.512 250.553 163.016 248.764 164.024 247.007C165 245.283 166.301 243.558 167.927 241.833C169.553 240.108 171.276 238.351 173.098 236.562C172.317 236.658 171.439 236.738 170.463 236.802C169.488 236.898 168.642 236.946 167.927 236.946L161 236.946L161 231.004L182.805 231.004Z" fill="#E04749"/>
<path d="M172.472 214.964C175.652 221.229 183.943 218.885 184 212.718C184.057 205.804 175.519 202.199 172.699 195.737L172.661 195.658L172.623 195.757C169.67 202.159 161.057 205.587 161.001 212.502C160.925 218.648 169.159 221.15 172.472 214.964Z" fill="#E04749"/>
<path d="M27.5283 63.0445C24.3481 56.7799 16.0571 59.1242 16.0003 65.2903C15.9435 72.2051 24.4806 75.8102 27.3011 82.2718L27.339 82.3506L27.3768 82.2521C30.3298 75.8496 38.9427 72.4218 38.9995 65.507C39.0752 59.3606 30.8409 56.8587 27.5283 63.0445Z" fill="#E04749"/>
<path d="M99.9975 77.6617C103.099 71.4052 111 73.83 111 80.0319C111 86.9836 102.809 89.4413 100.042 95.9113L99.9975 96.0044L99.9576 95.9113C97.1907 89.4413 89 86.9836 89 80.0319C88.995 73.8246 96.896 71.4052 99.9975 77.6617Z" fill="#E04749"/>
<path d="M100.002 200.347C96.901 206.604 89 204.179 89 197.977C89 191.025 97.1907 188.567 99.9575 182.097L100.002 182.004L100.042 182.097C102.809 188.567 111 191.025 111 197.977C111.005 204.184 103.104 206.604 100.002 200.347Z" fill="#E04749"/>
</g>
<defs>
<linearGradient id="paint0_linear_2709_120545" x1="0" y1="278.004" x2="200" y2="0.00440461" gradientUnits="userSpaceOnUse">
<stop stop-color="#101010"/>
<stop offset="0.712851" stop-color="#201F1F"/>
<stop offset="1" stop-color="#101010"/>
</linearGradient>
<clipPath id="clip0_2709_120545">
<rect width="200" height="278" fill="white"/>
</clipPath>
</defs>
</svg>
