<svg width="200" height="278" viewBox="0 0 200 278" fill="none" xmlns="http://www.w3.org/2000/svg">
<g clip-path="url(#clip0_2709_120607)">
<rect y="0.00439453" width="200" height="278" rx="10" fill="url(#paint0_linear_2709_120607)"/>
<path d="M172.472 214.964C175.652 221.229 183.943 218.885 184 212.718C184.057 205.804 175.519 202.199 172.699 195.737L172.661 195.658L172.623 195.757C169.67 202.159 161.057 205.587 161.001 212.502C160.925 218.648 169.159 221.15 172.472 214.964Z" fill="#E04749"/>
<path d="M27.5283 63.0445C24.3481 56.7799 16.0571 59.1242 16.0003 65.2903C15.9435 72.2051 24.4806 75.8102 27.3011 82.2718L27.339 82.3506L27.3768 82.2521C30.3298 75.8496 38.9427 72.4218 38.9995 65.507C39.0752 59.3606 30.8409 56.8587 27.5283 63.0445Z" fill="#E04749"/>
<path d="M28.1752 47.0044C26.7472 47.0044 25.3659 46.7221 24.031 46.1577C22.6962 45.5932 21.5011 44.7151 20.4457 43.5234C19.3902 42.3317 18.5521 40.8107 17.9313 38.9604C17.3104 37.0787 17 34.8208 17 32.1865C17 29.3954 17.3259 26.9806 17.9778 24.9422C18.6297 22.9037 19.5144 21.2259 20.6319 19.9088C21.7494 18.5916 23.0222 17.6195 24.4501 16.9923C25.878 16.3337 27.3836 16.0044 28.9667 16.0044C30.9224 16.0044 32.6142 16.365 34.0421 17.0863C35.4701 17.7763 36.6497 18.6073 37.5809 19.5795L33.9956 23.7191C33.4678 23.1546 32.7849 22.6685 31.9468 22.2608C31.1086 21.8218 30.255 21.6023 29.3858 21.6023C28.2683 21.6023 27.2284 21.9316 26.2661 22.5901C25.3348 23.2487 24.5898 24.362 24.031 25.93C23.5033 27.4667 23.2395 29.5522 23.2395 32.1865C23.2395 34.664 23.4568 36.6083 23.8914 38.0196C24.357 39.3994 24.9623 40.3873 25.7073 40.9832C26.4523 41.5476 27.2284 41.8299 28.0355 41.8299C28.7184 41.8299 29.3392 41.6574 29.898 41.3124C30.4568 40.9675 30.9069 40.45 31.2483 39.7601C31.5898 39.0388 31.7605 38.1136 31.7605 36.9847C31.7605 35.9184 31.5898 35.0717 31.2483 34.4445C30.9069 33.8172 30.4412 33.3625 29.8514 33.0803C29.2927 32.798 28.6408 32.6569 27.8958 32.6569C27.1197 32.6569 26.3126 32.8921 25.4745 33.3625C24.6674 33.8329 23.9379 34.664 23.286 35.8557L22.9601 31.3397C23.7361 30.1794 24.7295 29.3013 25.9401 28.7055C27.1508 28.0782 28.2373 27.7646 29.1996 27.7646C30.8758 27.7646 32.3814 28.0939 33.7162 28.7525C35.051 29.4111 36.0909 30.4303 36.8359 31.8102C37.612 33.1587 38 34.8835 38 36.9847C38 39.0545 37.5499 40.842 36.6497 42.3473C35.7805 43.8526 34.6009 45.013 33.1109 45.8284C31.6208 46.6124 29.9756 47.0044 28.1752 47.0044Z" fill="#E04749"/>
<path d="M171.825 231.004C173.253 231.004 174.634 231.287 175.969 231.851C177.304 232.416 178.499 233.294 179.554 234.485C180.61 235.677 181.448 237.198 182.069 239.048C182.69 240.93 183 243.188 183 245.822C183 248.613 182.674 251.028 182.022 253.067C181.37 255.105 180.486 256.783 179.368 258.1C178.251 259.417 176.978 260.389 175.55 261.017C174.122 261.675 172.616 262.004 171.033 262.004C169.078 262.004 167.386 261.644 165.958 260.922C164.53 260.233 163.35 259.401 162.419 258.429L166.004 254.29C166.532 254.854 167.215 255.34 168.053 255.748C168.891 256.187 169.745 256.407 170.614 256.407C171.732 256.407 172.772 256.077 173.734 255.419C174.665 254.76 175.41 253.647 175.969 252.079C176.497 250.542 176.761 248.457 176.761 245.822C176.761 243.345 176.543 241.4 176.109 239.989C175.643 238.609 175.038 237.621 174.293 237.026C173.548 236.461 172.772 236.179 171.965 236.179C171.282 236.179 170.661 236.351 170.102 236.696C169.543 237.041 169.093 237.559 168.752 238.249C168.41 238.97 168.239 239.895 168.239 241.024C168.239 242.09 168.41 242.937 168.752 243.564C169.093 244.192 169.559 244.646 170.149 244.929C170.707 245.211 171.359 245.352 172.104 245.352C172.88 245.352 173.687 245.117 174.525 244.646C175.333 244.176 176.062 243.345 176.714 242.153L177.04 246.669C176.264 247.829 175.271 248.707 174.06 249.303C172.849 249.931 171.763 250.244 170.8 250.244C169.124 250.244 167.619 249.915 166.284 249.256C164.949 248.598 163.909 247.578 163.164 246.199C162.388 244.85 162 243.125 162 241.024C162 238.954 162.45 237.167 163.35 235.661C164.22 234.156 165.399 232.996 166.889 232.18C168.379 231.396 170.024 231.004 171.825 231.004Z" fill="#E04749"/>
<path d="M75.9975 77.6617C79.099 71.4052 87 73.83 87 80.0319C87 86.9836 78.8093 89.4413 76.0425 95.9113L75.9975 96.0044L75.9576 95.9113C73.1907 89.4413 65 86.9836 65 80.0319C64.995 73.8246 72.896 71.4052 75.9975 77.6617Z" fill="#E04749"/>
<path d="M123.998 77.6617C127.099 71.4052 135 73.83 135 80.0319C135 86.9836 126.809 89.4413 124.042 95.9113L123.998 96.0044L123.958 95.9113C121.191 89.4413 113 86.9836 113 80.0319C112.995 73.8246 120.896 71.4052 123.998 77.6617Z" fill="#E04749"/>
<path d="M123.998 131.662C127.099 125.405 135 127.83 135 134.032C135 140.984 126.809 143.441 124.042 149.911L123.998 150.004L123.958 149.911C121.191 143.441 113 140.984 113 134.032C112.995 127.825 120.896 125.405 123.998 131.662Z" fill="#E04749"/>
<path d="M75.9975 131.662C79.099 125.405 87 127.83 87 134.032C87 140.984 78.8093 143.441 76.0425 149.911L75.9975 150.004L75.9576 149.911C73.1907 143.441 65 140.984 65 134.032C64.995 127.825 72.896 125.405 75.9975 131.662Z" fill="#E04749"/>
<path d="M124.002 200.347C120.901 206.604 113 204.179 113 197.977C113 191.025 121.191 188.567 123.958 182.097L124.002 182.004L124.042 182.097C126.809 188.567 135 191.025 135 197.977C135.005 204.184 127.104 206.604 124.002 200.347Z" fill="#E04749"/>
<path d="M76.0025 200.347C72.901 206.604 65 204.179 65 197.977C65 191.025 73.1907 188.567 75.9575 182.097L76.0025 182.004L76.0424 182.097C78.8093 188.567 87 191.025 87 197.977C87.005 204.184 79.104 206.604 76.0025 200.347Z" fill="#E04749"/>
</g>
<defs>
<linearGradient id="paint0_linear_2709_120607" x1="0" y1="278.004" x2="200" y2="0.00440461" gradientUnits="userSpaceOnUse">
<stop stop-color="#101010"/>
<stop offset="0.712851" stop-color="#201F1F"/>
<stop offset="1" stop-color="#101010"/>
</linearGradient>
<clipPath id="clip0_2709_120607">
<rect width="200" height="278" fill="white"/>
</clipPath>
</defs>
</svg>
