<svg width="201" height="278" viewBox="0 0 201 278" fill="none" xmlns="http://www.w3.org/2000/svg">
<g clip-path="url(#clip0_2709_120707)">
<rect x="1" y="0.00439453" width="200" height="278" rx="10" fill="url(#paint0_linear_2709_120707)"/>
<path d="M173.472 214.964C176.652 221.229 184.943 218.885 185 212.718C185.057 205.804 176.519 202.199 173.699 195.737L173.661 195.658L173.623 195.757C170.67 202.159 162.057 205.587 162.001 212.502C161.925 218.648 170.159 221.15 173.472 214.964Z" fill="#E04749"/>
<path d="M28.5283 63.0445C25.3481 56.7799 17.0571 59.1242 17.0003 65.2903C16.9435 72.2051 25.4806 75.8102 28.3011 82.2718L28.339 82.3506L28.3768 82.2521C31.3298 75.8496 39.9427 72.4218 39.9995 65.507C40.0752 59.3606 31.8409 56.8587 28.5283 63.0445Z" fill="#E04749"/>
<path d="M28.4058 47.0044C26.4283 47.0044 24.639 46.6594 23.0381 45.9695C21.4686 45.2796 20.2287 44.3231 19.3184 43.1C18.4395 41.8456 18 40.4187 18 38.8193C18 37.5962 18.2197 36.5456 18.6592 35.6675C19.13 34.7581 19.7422 33.9584 20.4955 33.2684C21.2803 32.5785 22.1435 31.9826 23.0852 31.4809V31.2927C21.9552 30.4146 20.9978 29.4111 20.213 28.2821C19.4596 27.1531 19.083 25.8046 19.083 24.2366C19.083 22.5431 19.491 21.0848 20.3072 19.8618C21.1233 18.6073 22.2534 17.6508 23.6973 16.9923C25.1413 16.3337 26.7892 16.0044 28.6413 16.0044C31.4036 16.0044 33.6009 16.757 35.2332 18.2624C36.8969 19.7363 37.7287 21.712 37.7287 24.1895C37.7287 25.1303 37.5404 26.0241 37.1637 26.8709C36.8184 27.6862 36.3475 28.4232 35.7511 29.0818C35.1547 29.709 34.5112 30.2578 33.8206 30.7282V30.9164C34.7623 31.4182 35.6256 32.0297 36.4103 32.751C37.1951 33.4409 37.8229 34.2877 38.2937 35.2912C38.7646 36.2634 39 37.408 39 38.7252C39 40.2932 38.5605 41.7044 37.6816 42.9589C36.8027 44.1819 35.5628 45.1698 33.9619 45.9225C32.3924 46.6437 30.5404 47.0044 28.4058 47.0044ZM30.2892 29.0347C30.8857 28.3448 31.3408 27.6392 31.6547 26.9179C31.9686 26.1966 32.1256 25.4439 32.1256 24.6599C32.1256 23.8759 31.9843 23.2017 31.7018 22.6372C31.4193 22.0727 30.9955 21.6336 30.4305 21.32C29.8969 20.9751 29.2534 20.8026 28.5 20.8026C27.5897 20.8026 26.8049 21.1005 26.1457 21.6964C25.4865 22.2608 25.157 23.1076 25.157 24.2366C25.157 25.0519 25.3767 25.7419 25.8161 26.3064C26.2556 26.8709 26.852 27.3726 27.6054 27.8117C28.3901 28.2507 29.2848 28.6584 30.2892 29.0347ZM28.5471 42.2062C29.3004 42.2062 29.9753 42.0808 30.5717 41.8299C31.1996 41.5476 31.6861 41.14 32.0314 40.6068C32.3767 40.0423 32.5493 39.3367 32.5493 38.49C32.5493 37.6119 32.2825 36.8906 31.7489 36.3261C31.2466 35.7302 30.509 35.2128 29.5359 34.7737C28.5942 34.3033 27.4955 33.8016 26.2399 33.2684C25.5807 33.8643 25.0314 34.5856 24.5919 35.4323C24.1525 36.2477 23.9327 37.1101 23.9327 38.0196C23.9327 38.8977 24.1368 39.6503 24.5448 40.2775C24.9843 40.9047 25.5493 41.3908 26.2399 41.7358C26.9619 42.0494 27.7309 42.2062 28.5471 42.2062Z" fill="#E04749"/>
<path d="M173.594 231.004C175.572 231.004 177.361 231.349 178.962 232.039C180.531 232.729 181.771 233.686 182.682 234.909C183.561 236.163 184 237.59 184 239.19C184 240.413 183.78 241.463 183.341 242.341C182.87 243.251 182.258 244.05 181.504 244.74C180.72 245.43 179.857 246.026 178.915 246.528L178.915 246.716C180.045 247.594 181.002 248.598 181.787 249.727C182.54 250.856 182.917 252.204 182.917 253.772C182.917 255.466 182.509 256.924 181.693 258.147C180.877 259.401 179.747 260.358 178.303 261.017C176.859 261.675 175.211 262.004 173.359 262.004C170.596 262.004 168.399 261.252 166.767 259.746C165.103 258.272 164.271 256.297 164.271 253.819C164.271 252.878 164.46 251.985 164.836 251.138C165.182 250.323 165.652 249.586 166.249 248.927C166.845 248.3 167.489 247.751 168.179 247.281L168.179 247.092C167.238 246.591 166.374 245.979 165.59 245.258C164.805 244.568 164.177 243.721 163.706 242.718C163.235 241.745 163 240.601 163 239.284C163 237.716 163.439 236.304 164.318 235.05C165.197 233.827 166.437 232.839 168.038 232.086C169.608 231.365 171.46 231.004 173.594 231.004ZM171.711 248.974C171.114 249.664 170.659 250.37 170.345 251.091C170.031 251.812 169.874 252.565 169.874 253.349C169.874 254.133 170.016 254.807 170.298 255.372C170.581 255.936 171.004 256.375 171.57 256.689C172.103 257.034 172.747 257.206 173.5 257.206C174.41 257.206 175.195 256.908 175.854 256.312C176.513 255.748 176.843 254.901 176.843 253.772C176.843 252.957 176.623 252.267 176.184 251.702C175.744 251.138 175.148 250.636 174.395 250.197C173.61 249.758 172.715 249.35 171.711 248.974ZM173.453 235.803C172.7 235.803 172.025 235.928 171.428 236.179C170.8 236.461 170.314 236.869 169.969 237.402C169.623 237.966 169.451 238.672 169.451 239.519C169.451 240.397 169.717 241.118 170.251 241.683C170.753 242.279 171.491 242.796 172.464 243.235C173.406 243.705 174.504 244.207 175.76 244.74C176.419 244.145 176.969 243.423 177.408 242.576C177.848 241.761 178.067 240.899 178.067 239.989C178.067 239.111 177.863 238.358 177.455 237.731C177.016 237.104 176.451 236.618 175.76 236.273C175.038 235.959 174.269 235.803 173.453 235.803Z" fill="#E04749"/>
<path d="M76.9975 77.6617C80.099 71.4052 88 73.83 88 80.0319C88 86.9836 79.8093 89.4413 77.0425 95.9113L76.9975 96.0044L76.9576 95.9113C74.1907 89.4413 66 86.9836 66 80.0319C65.995 73.8246 73.896 71.4052 76.9975 77.6617Z" fill="#E04749"/>
<path d="M124.998 77.6617C128.099 71.4052 136 73.83 136 80.0319C136 86.9836 127.809 89.4413 125.042 95.9113L124.998 96.0044L124.958 95.9113C122.191 89.4413 114 86.9836 114 80.0319C113.995 73.8246 121.896 71.4052 124.998 77.6617Z" fill="#E04749"/>
<path d="M124.998 131.662C128.099 125.405 136 127.83 136 134.032C136 140.984 127.809 143.441 125.042 149.911L124.998 150.004L124.958 149.911C122.191 143.441 114 140.984 114 134.032C113.995 127.825 121.896 125.405 124.998 131.662Z" fill="#E04749"/>
<path d="M100.998 104.662C104.099 98.4052 112 100.83 112 107.032C112 113.984 103.809 116.441 101.042 122.911L100.998 123.004L100.958 122.911C98.1907 116.441 90 113.984 90 107.032C89.995 100.825 97.896 98.4052 100.998 104.662Z" fill="#E04749"/>
<path d="M101.002 173.347C97.901 179.604 90 177.179 90 170.977C90 164.025 98.1907 161.567 100.958 155.097L101.002 155.004L101.042 155.097C103.809 161.567 112 164.025 112 170.977C112.005 177.184 104.104 179.604 101.002 173.347Z" fill="#E04749"/>
<path d="M76.9975 131.662C80.099 125.405 88 127.83 88 134.032C88 140.984 79.8093 143.441 77.0425 149.911L76.9975 150.004L76.9576 149.911C74.1907 143.441 66 140.984 66 134.032C65.995 127.825 73.896 125.405 76.9975 131.662Z" fill="#E04749"/>
<path d="M125.002 200.347C121.901 206.604 114 204.179 114 197.977C114 191.025 122.191 188.567 124.958 182.097L125.002 182.004L125.042 182.097C127.809 188.567 136 191.025 136 197.977C136.005 204.184 128.104 206.604 125.002 200.347Z" fill="#E04749"/>
<path d="M77.0025 200.347C73.901 206.604 66 204.179 66 197.977C66 191.025 74.1907 188.567 76.9575 182.097L77.0025 182.004L77.0424 182.097C79.8093 188.567 88 191.025 88 197.977C88.005 204.184 80.104 206.604 77.0025 200.347Z" fill="#E04749"/>
</g>
<defs>
<linearGradient id="paint0_linear_2709_120707" x1="1" y1="278.004" x2="201" y2="0.00440461" gradientUnits="userSpaceOnUse">
<stop stop-color="#101010"/>
<stop offset="0.712851" stop-color="#201F1F"/>
<stop offset="1" stop-color="#101010"/>
</linearGradient>
<clipPath id="clip0_2709_120707">
<rect width="200" height="278" fill="white" transform="translate(0.5)"/>
</clipPath>
</defs>
</svg>
