<svg xmlns="http://www.w3.org/2000/svg" width="18" height="18" fill="none"><path fill="currentColor" fill-rule="evenodd" d="M9.785 5.647c.231-.123.456-.285.687-.451.484-.349.998-.719 1.664-.798 1.325-.156 1.96 0 3.056.82C16.29 6.038 17 7.291 17 9.716c0 2.425-.664 4.236-2.016 5.553-.73.71-1.33 1.186-2.317 1.586-.498.201-.984.168-1.563.049-.21-.043-.4-.14-.61-.247-.373-.189-.804-.407-1.494-.407-.706 0-1.14.224-1.511.414-.203.104-.387.198-.585.24-.559.12-1.073.152-1.571-.05-.986-.399-1.563-.927-2.292-1.638C1.69 13.9 1 12.118 1 9.716s.676-3.678 1.671-4.498c.996-.82 1.626-.995 2.776-.82.538.082 1.115.41 1.686.733.447.254.891.506 1.313.638.357-2.577 2.466-6.126 3.398-4.237.274.555.643.997.292 1.547-.178.278-.672.786-1.189 1.318-.426.44-.869.895-1.162 1.25Zm-4.206 6.1c-.145-.256-.298-.526-.377-.831-.08-.306-.062-.647-.046-.97.03-.596.057-1.128-.53-1.254-.981-.21-1.228 1.256-1.151 2.224.097 1.224 1.648 3.277 2.302 2.224.31-.498.07-.92-.198-1.393Z" clip-rule="evenodd"/></svg>