<svg xmlns="http://www.w3.org/2000/svg" width="16" height="18" fill="none"><path fill="currentColor" d="M.929 2.165a1.262 1.262 0 0 0-.886 1.544l3.241 12.18a1.252 1.252 0 0 0 1.445.911V4.13c0-1.044.84-1.891 1.878-1.891h4.066L10.326.935A1.251 1.251 0 0 0 8.792.043L.929 2.165Z"/><path fill="currentColor" fill-rule="evenodd" d="M6.607 2.87c-.692 0-1.252.564-1.252 1.26v12.61c0 .696.56 1.26 1.252 1.26h8.14C15.44 18 16 17.436 16 16.74V4.13c0-.696-.56-1.26-1.252-1.26H6.607Zm.03 4.216c-.26-.173-.494-.431-.494-.615l.667-.326c.344.531.996.326.996-.135V3.938h.908V6.07c0 .211-.047.406-.142.585-.314.667-1.297.856-1.935.431Zm5.683 3.446c.78.64 1.537 1.26 1.537 2.129 0 1.273-1.971 1.799-2.878.665.014.19.048.378.1.563.263.674 1.031 1.57 1.422 1.861-.538-.398-2.73-.403-3.277-.002.392-.289 1.197-1.22 1.42-1.86.063-.213.082-.599.063-.546-.936 1.044-2.85.563-2.85-.686 0-.864.757-1.483 1.538-2.122.563-.46 1.14-.932 1.455-1.513L10.86 9l.01.02c.314.581.889 1.052 1.45 1.512Z" clip-rule="evenodd"/></svg>