<svg xmlns="http://www.w3.org/2000/svg" width="18" height="18" fill="none"><path fill="currentColor" fill-rule="evenodd" d="M17.493 7.837c.084.11.307.406.442 1.921.076.855.086 1.736.027 2.305-.123 1.18-.355 1.895-.364 1.925a.6.6 0 0 1-.497.407v.005a.6.6 0 0 1-.6.6h-2.1a.6.6 0 0 1-.6-.6 2.98 2.98 0 0 1-.745-.119 5.973 5.973 0 0 0-1.054-.184A34.674 34.674 0 0 0 9 13.95c-.683 0-1.821.038-2.965.147-.355.03-.707.091-1.05.184-.239.061-.463.119-.786.119a.6.6 0 0 1-.6.6h-2.1a.6.6 0 0 1-.6-.6v-.008a.6.6 0 0 1-.496-.407c-.01-.03-.241-.744-.364-1.925-.06-.569-.048-1.451.027-2.304.135-1.511.356-1.807.44-1.92l.001-.002c.191-.254.5-.422.827-.598l.003-.002a.135.135 0 0 0 .034-.213.597.597 0 0 1-.172-.467A.61.61 0 0 1 1.81 6h.586c.025 0 .05.002.075.005a.245.245 0 0 1 .05-.013l.004-.006c.346-.732.82-1.735 1.804-2.224C5.787 3.038 8.474 3 9 3c.525 0 3.212.038 4.67.763.984.49 1.458 1.492 1.805 2.224.018.004.035.01.053.018A.637.637 0 0 1 15.602 6h.585a.61.61 0 0 1 .613.554.596.596 0 0 1-.17.47.136.136 0 0 0-.012.172c.012.017.028.031.046.04.327.177.636.344.83.6ZM4.865 4.836c-.611.304-.955 1.026-1.255 1.663l-.028.061-.011.023a.3.3 0 0 0 .279.428c.393-.01.922-.028 1.502-.048 1.264-.044 2.773-.096 3.647-.096.884 0 2.417.052 3.69.095.562.02 1.074.036 1.457.047a.3.3 0 0 0 .279-.429l-.038-.08c-.301-.638-.643-1.36-1.254-1.664-.883-.441-2.713-.638-4.134-.638-1.422 0-3.252.198-4.134.638ZM2.113 9.6c.65.001 1.44-.037 2.085-.115.14-.011.109-.404 0-.485-.562-.424-2.056-.705-2.738-.6-.187.03-.225.112-.249.227-.028.134-.033.268.019.506.076.355.486.467.883.467Zm13.771 0c.396 0 .809-.111.884-.467.038-.178.044-.362.018-.542-.006-.065-.057-.169-.153-.188-.67-.133-2.28.162-2.832.597-.117.091-.115.474 0 .485.657.077 1.42.115 2.083.115Z" clip-rule="evenodd"/></svg>