<svg xmlns="http://www.w3.org/2000/svg" width="19" height="18" fill="none"><path fill="currentColor" fill-rule="evenodd" d="M5.356 10.666a1.303 1.303 0 0 0-.133-1.027 1.306 1.306 0 0 0-.82-.636 1.34 1.34 0 0 0-1.043.137c-.322.186-.532.46-.629.823-.098.367-.055.71.132 1.033.195.325.474.535.836.633.357.095.7.05 1.026-.134.324-.19.534-.467.631-.829Zm-.81-5.95c.195.324.474.535.836.632.357.096.7.051 1.026-.133.325-.196.535-.472.63-.83a1.351 1.351 0 0 0-.95-1.67 1.35 1.35 0 0 0-1.673.966c-.1.368-.056.712.13 1.034Zm7.16 7.712a1.303 1.303 0 0 0-.133-1.027 1.34 1.34 0 0 0-.835-.64 1.33 1.33 0 0 0-1.035.14c-.322.185-.532.46-.629.821-.098.368-.054.712.132 1.034.195.325.471.535.829.63.367.1.714.056 1.04-.129.323-.186.533-.462.631-.83Zm4.03-7.671.007.001-2.678 9.993a1.349 1.349 0 0 1-.662.836 1.35 1.35 0 0 1-1.056.156L1.37 13.069a1.341 1.341 0 0 1-.843-.664 1.418 1.418 0 0 1-.163-1.058l2.678-9.992c.112-.363.335-.639.668-.827.329-.194.683-.248 1.064-.161L14.75 3.04c.363.112.641.335.834.67.194.329.245.677.15 1.046Zm-6.504 2.62a1.291 1.291 0 0 0-.82-.635 1.316 1.316 0 0 0-1.036.139 1.291 1.291 0 0 0-.635.82 1.3 1.3 0 0 0 .138 1.036c.19.323.467.533.83.63.362.098.704.053 1.026-.133.325-.195.535-.472.63-.83a1.304 1.304 0 0 0-.133-1.026Zm4.043-2.327a1.336 1.336 0 0 0-.837-.633 1.35 1.35 0 0 0-1.666.968c-.098.367-.054.712.132 1.034.195.325.471.535.829.63.367.099.714.056 1.04-.129.323-.186.533-.462.631-.83.097-.362.054-.708-.13-1.04Z" clip-rule="evenodd"/></svg>