<svg xmlns="http://www.w3.org/2000/svg" width="18" height="18" fill="none"><path fill="currentColor" d="M13.747 1H4.249v1.129H1v2.413c0 1.733 1.458 3.143 3.25 3.143h.056c.3 1.884 1.784 3.387 3.69 3.783v2.604H6.831c-.361 0-.65.283-.65.628v.826h-.994V17h7.626v-1.474h-.995V14.7a.639.639 0 0 0-.649-.628h-1.165v-2.604c1.91-.396 3.39-1.902 3.69-3.783h.057c1.791 0 3.249-1.41 3.249-3.143V2.129h-3.25L13.748 1ZM4.249 6.095c-.884 0-1.605-.698-1.605-1.553v-.823h1.605v2.376Zm11.1-2.376v.823c0 .855-.718 1.553-1.602 1.553V3.72h1.602Z"/></svg>