<svg xmlns="http://www.w3.org/2000/svg" width="18" height="18" fill="none"><path fill="currentColor" d="m8.143 1-.17 2.38a5.714 5.714 0 0 0-2.216.924L3.95 2.737 2.737 3.95l1.562 1.802a5.714 5.714 0 0 0-.915 2.22L1 8.142v1.715l2.38.17c.148.796.463 1.552.924 2.216L2.737 14.05l1.213 1.213 1.802-1.562c.667.459 1.424.77 2.22.915L8.142 17h1.715l.17-2.38a5.713 5.713 0 0 0 2.216-.924l1.807 1.567 1.213-1.213-1.562-1.802c.459-.667.77-1.424.915-2.22L17 9.858V8.142l-2.38-.17a5.714 5.714 0 0 0-.924-2.216l1.567-1.807-1.213-1.213-1.802 1.562a5.715 5.715 0 0 0-2.22-.915L9.858 1H8.142Zm-.344 3.128a2 2 0 1 1 0 4 2 2 0 0 1 0-4Z"/></svg>