<svg xmlns="http://www.w3.org/2000/svg" width="18" height="18" fill="none"><path fill="currentColor" fill-rule="evenodd" d="M13.12.064 13.223 0c-.172.383-.256 1.394-.312 2.066-.015.185-.028.344-.04.457.384-1.014.672-1.226 1.2-1.556-.245.75-.316 1.28-.236 2.054l.012.109c.03.283.06.566.126.843.216.47.506.913.797 1.36.31.473.622.95.851 1.467.168.376.298.777.427 1.178.19.587.379 1.175.69 1.69.1.165.206.326.311.488.213.325.426.65.588.999l.075.132c.071.121.142.242.185.38.127.342.136.736.022 1.087a3.195 3.195 0 0 1-.486.935 3.714 3.714 0 0 1-.6.65c-.184.133-.355-.018-.505-.15a2.18 2.18 0 0 0-.094-.079c-.21.191-.794.464-1.057.563a.379.379 0 0 1-.409-.084c-.282-.262-.411-.657-.534-1.03l-.016-.05c-.174-.394-.555-.687-.993-.96a7.569 7.569 0 0 1-.81-.48 8.935 8.935 0 0 1-.937-.75 6.818 6.818 0 0 1-1.18-1.42c-.522.264-.981.662-1.262 1.172-.361.621-.449 1.36-.418 2.062.048.784.26 1.55.546 2.28.366.891 1.392 2.587 1.392 2.587S2.82 16.352.556 15.753C-.702 11.07-.102 5.636 5.268 2.894c1.722-.727 3.485-.95 5.286-.536.819-1.224 1.694-1.76 2.566-2.294Zm-.852 5.68c-.05 1.222.181 1.61 1.396 1.377l.25.21c-.28-.977-.56-1.404-1.646-1.586Z" clip-rule="evenodd"/></svg>