<svg xmlns="http://www.w3.org/2000/svg" width="18" height="18" fill="none"><path fill="currentColor" d="M16.792 1.345a.167.167 0 0 0-.125-.129C12.961.31 8.101 3.62 6.02 6.564c-.795-.07-1.59-.012-2.267.283-1.912.842-2.468 3.037-2.623 3.981a.339.339 0 0 0 .37.394l3.07-.339a2.542 2.542 0 0 0 2.542 2.543l-.337 3.065a.34.34 0 0 0 .394.371c.942-.15 3.141-.707 3.978-2.619.295-.677.355-1.468.287-2.26 2.982-2.102 6.219-6.885 5.358-10.638Zm-6.454 6.316a1.688 1.688 0 1 1 2.386-2.387 1.688 1.688 0 0 1-2.386 2.387Z"/><path fill="currentColor" d="M5.92 14.043c-.192.193-.501.268-.873.332a1.23 1.23 0 0 1-1.424-1.425c.058-.32.227-.769.332-.874a.154.154 0 0 0-.128-.262 2.11 2.11 0 0 0-1.235.602c-.826.827-.905 3.896-.905 3.896s3.072-.078 3.898-.905c.334-.332.546-.768.603-1.236.013-.147-.166-.234-.268-.128Z"/></svg>