<svg xmlns="http://www.w3.org/2000/svg" width="13" height="14" fill="none"><path fill="currentColor" d="M2.636 6.057a2.537 2.537 0 0 0 1.865-.83 2.9 2.9 0 0 0 .755-1.697A2.96 2.96 0 0 0 4.5 1.21 2.528 2.528 0 0 0 2.636.38c-.704 0-1.366.295-1.864.83A2.934 2.934 0 0 0 0 3.219c0 .759.274 1.472.772 2.008s1.16.83 1.864.83ZM1.55 2.049c.29-.313.676-.485 1.086-.485.41 0 .796.172 1.086.485.331.356.492.849.44 1.351a1.713 1.713 0 0 1-.44.988 1.499 1.499 0 0 1-1.086.484c-.41 0-.796-.172-1.086-.484a1.747 1.747 0 0 1 0-2.34ZM4.5 9.153a2.537 2.537 0 0 0-1.864-.83c-.705 0-1.366.295-1.864.83-1.028 1.107-1.028 2.909 0 4.015.498.537 1.16.832 1.864.832.704 0 1.366-.295 1.864-.832a2.96 2.96 0 0 0 .756-2.319A2.9 2.9 0 0 0 4.5 9.153Zm-.778 3.178c-.29.312-.675.484-1.086.484-.41 0-.796-.172-1.086-.484a1.747 1.747 0 0 1 0-2.34 1.472 1.472 0 0 1 1.255-.474c.346.041.671.21.917.474.246.265.403.616.44.988.052.503-.109.995-.44 1.352Z"/><path fill="currentColor" d="m3.238 6.302.64.65.001.002 2.24-2.412-.62-.668a3.19 3.19 0 0 1-.793 1.573c-.408.44-.911.731-1.468.855ZM8.782 7.41 6.515 9.854l1.878 1.992c1.265 1.362 3.301 1.398 4.607.108L8.782 7.41ZM11.622 2.424c0-.906-.31-1.76-.875-2.424L3.245 8.079a2.835 2.835 0 0 1 1.46.853c.407.438.677.977.793 1.573l5.148-5.544c.63-.678.976-1.579.976-2.537Z"/></svg>