<svg xmlns="http://www.w3.org/2000/svg" width="18" height="18" fill="none"><path fill="#7E7E7E" fill-rule="evenodd" d="M11.779 1.036a2.694 2.694 0 0 0-1.187.068 3.859 3.859 0 0 0-.648.26c-.467.235-.89.544-1.31.854a97.679 97.679 0 0 0-2.737 2.14A193.423 193.423 0 0 0 2.785 6.92c-.07-.008-.14-.014-.211-.02l-.079-.007a.817.817 0 0 0-.32-.001 3.889 3.889 0 0 1-.085.01c-.044.006-.088.012-.132.02a7.798 7.798 0 0 1-.218.076 1.27 1.27 0 0 0-.618.616 1.624 1.624 0 0 0-.105.826c.018.173.058.342.11.507l.027.081a29.545 29.545 0 0 1 .04.112l.008.023c.042.11.09.218.138.326.048.098.097.195.148.291.436.798 1.002 1.515 1.591 2.204a37.746 37.746 0 0 0 .685.76c.495.517.999 1.024 1.518 1.517.529.487 1.068.966 1.642 1.4.545.414 1.119.797 1.746 1.075l.09.036c.046.018.091.037.137.053.12.041.24.08.362.111.054.012.108.02.163.03l.05.007c.199.037.406.038.605 0l.148-.034.152-.058.015-.007.06-.027c.23-.126.418-.323.534-.56l.055-.147.014-.039c.066-.23.08-.478.035-.714a3.31 3.31 0 0 1-.016-.18c.124-.13.238-.269.352-.408l.19-.229c1.307-1.577 2.601-3.165 3.845-4.792l.157-.209c.367-.487.735-.976 1.012-1.522.046-.097.092-.195.134-.294a18.193 18.193 0 0 1 .07-.183l.05-.162.027-.089a3.61 3.61 0 0 0 .018-.079l.015-.066a1.74 1.74 0 0 0 .03-.204c0-.01.002-.019.003-.028l.002-.021c.029-.164.027-.334.001-.498l-.008-.07a1.824 1.824 0 0 0-.026-.183l-.017-.066a4.93 4.93 0 0 0-.168-.515 5.73 5.73 0 0 0-.131-.292l-.089-.173a7.465 7.465 0 0 0-.812-1.217 11.285 11.285 0 0 0-1.46-1.493c-.577-.485-1.207-.921-1.91-1.202a21.906 21.906 0 0 1-.183-.068 7.311 7.311 0 0 0-.254-.076l-.092-.02-.051-.011Zm-.038.758a3.03 3.03 0 0 1-.111.04.895.895 0 0 0-.165.173c-.022.148.074.275.2.338.03.008.061.013.092.018a.82.82 0 0 1 .125.029c.152-.02.331-.082.374-.248.036-.174-.123-.297-.267-.351a1.075 1.075 0 0 0-.248.001Zm-1.755.387c.12-.199.381-.251.595-.207.1.05.23.125.207.256.007.172-.18.254-.318.297a2.858 2.858 0 0 1-.215.007 3.528 3.528 0 0 0-.144-.046c-.112-.062-.17-.181-.125-.307Zm2.147.734c-.197-.053-.43.024-.512.22l-.005.063-.005.063.017.008c.018.1.097.162.17.222l.013.01c.208.087.486.038.583-.186.003-.047.005-.094.004-.142a.606.606 0 0 0-.139-.197 4.357 4.357 0 0 1-.126-.061Zm.896.15c.143-.261.568-.218.679.048a.289.289 0 0 1-.166.405c-.145.024-.315.016-.418-.105-.1-.087-.12-.224-.095-.348Zm-2.553-.045c-.182.045-.384.191-.337.405.05.076.115.139.193.186a.96.96 0 0 0 .394.002.555.555 0 0 0 .226-.221c.002-.05.003-.1.001-.149-.083-.178-.292-.247-.476-.223Zm-1.782.397a.521.521 0 0 1 .443-.163c.123-.008.256.057.305.174.057.214-.165.378-.356.393l-.004.02c-.153.002-.341-.017-.432-.159-.02-.088-.027-.197.044-.265Zm3.3.69a.51.51 0 0 0-.267.224 1.592 1.592 0 0 0 0 .215c.079.149.23.271.408.245.157.015.283-.102.345-.236 0-.075 0-.15-.011-.225a.45.45 0 0 0-.475-.224Zm1.223.078c.11-.096.267-.067.397-.04.059.055.115.113.166.176.08.18.008.393-.166.486a1.014 1.014 0 0 1-.252.002.852.852 0 0 1-.222-.191.978.978 0 0 1-.022-.125l-.028-.003c.012-.11.032-.234.127-.305Zm-2.632-.006c-.151.044-.33.15-.32.331-.025.162.119.27.247.332a.953.953 0 0 0 .284 0 .505.505 0 0 0 .268-.259.787.787 0 0 0-.03-.221.695.695 0 0 0-.19-.158l-.042-.008-.043-.007a.706.706 0 0 0-.174-.01Zm3.878.097c.077-.1.218-.092.33-.07.12.044.188.159.238.27.046.188-.077.448-.298.422-.154.009-.259-.125-.33-.243-.02-.128-.04-.278.06-.38Zm-5.036.106a.69.69 0 0 0-.399-.022.546.546 0 0 0-.271.252c-.046.155.07.276.199.338.13.054.266.042.396-.005.162-.078.28-.265.2-.443-.04-.04-.083-.08-.125-.12Zm-1.915.235c.049-.014.097-.03.146-.045.137-.01.3.013.382.137.044.053.035.123.027.189l-.005.046a.68.68 0 0 1-.201.182l-.01.014c-.139.044-.299.075-.435.003-.088-.04-.159-.133-.144-.235.003-.139.132-.228.24-.291Zm-1.156.24c-.21.014-.508.123-.497.378-.011.09.066.138.134.18l.028.018c.099.006.199.006.297-.01.141-.064.283-.169.302-.335-.011-.139-.143-.205-.264-.232Zm5.598.592a4.77 4.77 0 0 0 .113-.042.407.407 0 0 1 .352.123c.109.123.14.325.037.46-.04.054-.088.099-.137.144l-.042.04a9.988 9.988 0 0 0-.1.025l-.135.033.006-.037h-.1a1.57 1.57 0 0 1-.227-.27l.005-.113c.047-.137.098-.282.228-.363Zm-1.296-.007c-.175.04-.295.18-.373.333a.369.369 0 0 0 .037.256c.068.069.14.134.223.185.108.018.23.037.326-.03.108-.054.167-.164.221-.266.022-.092.038-.197-.014-.282-.077-.152-.26-.21-.42-.196Zm2.498.2c.038-.093.125-.15.207-.2.157-.03.336.038.406.189.052.083.049.18.046.275l-.001.025c-.054.142-.175.29-.345.268-.153.008-.26-.123-.33-.243 0-.012-.002-.025-.004-.037-.011-.093-.024-.192.021-.277Zm-3.516.149c-.052-.22-.342-.284-.53-.215-.202.058-.298.269-.318.462a.727.727 0 0 0 .187.185l.078.025c.05.016.102.033.155.043.07-.01.137-.03.204-.052l.053-.017c.05-.059.099-.118.147-.178.01-.04.02-.08.033-.118l.013-.134-.022-.001Zm4.855-.185c.125-.13.364-.085.45.068.091.123.075.284.05.426-.068.13-.205.243-.36.197-.27-.095-.341-.498-.14-.69Zm1.446.083c-.1-.022-.226-.033-.298.055-.144.16-.126.411-.023.59.04.038.08.075.122.112l.042.001c.05.002.1.003.149-.007.075-.032.118-.103.16-.17l.017-.026c.05-.196.02-.444-.17-.555Zm-8.553.245c.144-.254.577-.313.738-.048.049.11.03.251-.052.342-.175.214-.556.217-.713-.02l-.002-.013c-.012-.088-.025-.183.03-.26Zm-1.034-.002c-.19-.013-.359.115-.446.277v.035c-.004.064-.006.131.035.185.112.177.358.153.528.09l.029-.024c.044-.035.089-.072.124-.117.065-.08.054-.194.036-.288a.324.324 0 0 0-.306-.158Zm4.266.885c.097-.01.2-.02.29.031.136.057.19.204.225.336-.06.259-.291.497-.572.455l-.003-.02c-.164-.033-.318-.188-.284-.365a.616.616 0 0 1 .344-.437Zm1.623 0c-.298-.086-.578.23-.53.515.014.149.148.245.271.307.048-.005.097-.012.145-.019l.114-.035.043-.036c.103-.085.22-.183.202-.327a.447.447 0 0 0-.245-.406Zm-3.134.091c.105-.055.228-.036.341-.018l.01.001c.075.05.14.11.191.186.018.115.037.243-.033.345-.056.099-.158.15-.255.2l-.01.005c-.061.006-.122.01-.183.01a4.71 4.71 0 0 0-.139-.06 1.628 1.628 0 0 0-.03-.02c-.068-.046-.144-.097-.142-.187a.44.44 0 0 1 .25-.462Zm4.488.015c-.08-.068-.194-.06-.29-.043-.176.067-.253.271-.24.448.015.048.028.098.04.148.06.095.15.16.253.2.174 0 .305-.125.37-.276a.99.99 0 0 0 .001-.287 1.563 1.563 0 0 1-.023-.042.395.395 0 0 0-.11-.148Zm-5.941.075a.914.914 0 0 1 .324 0l.036.025a.376.376 0 0 1 .138.135c.05.088.033.192.017.288l-.005.027a.876.876 0 0 1-.214.202c-.116.036-.246.059-.359.002-.159-.065-.257-.259-.19-.422.041-.12.15-.195.253-.257Zm6.934-.02c-.148-.009-.233.132-.292.246a.891.891 0 0 0 .002.323c.046.123.145.253.29.239.154-.004.242-.152.295-.277l.001-.014c.013-.1.027-.204-.01-.299-.038-.121-.147-.242-.286-.218Zm.824.389.004-.007c.059-.1.13-.222.258-.23.133-.018.232.105.265.22a.934.934 0 0 1-.006.343c-.06.14-.168.282-.338.276-.225-.114-.226-.388-.183-.602Zm-4.537.923a.543.543 0 0 0-.295-.028.61.61 0 0 0-.305.322c-.005.08-.005.16 0 .241l.031.04a.83.83 0 0 0 .17.172.606.606 0 0 0 .32-.001l.008-.006a.884.884 0 0 0 .169-.148l.022-.04c.049-.091.1-.184.07-.29a.658.658 0 0 0-.19-.262Zm-1.774.014.01-.002c.11-.02.233-.042.336.014.146.083.262.253.209.427-.06.107-.15.192-.238.276l-.016.015a6.058 6.058 0 0 0-.012.01l-.021.003a.86.86 0 0 1-.268-.001c-.093-.03-.155-.11-.213-.184a7.557 7.557 0 0 0-.011-.015.462.462 0 0 1 .224-.543Zm2.921-.023c-.153-.007-.257.125-.33.243a.877.877 0 0 0 .002.36c.048.076.111.14.186.19a.666.666 0 0 0 .25-.002.617.617 0 0 0 .226-.26c.016-.115.033-.24-.024-.347a.3.3 0 0 0-.31-.184Zm1.125.093c.137-.045.288-.02.378.1a.791.791 0 0 1 .06.3c-.027.151-.103.302-.245.375-.09.023-.202.032-.272-.04a.677.677 0 0 1-.114-.15l-.002-.016c-.014-.115-.029-.237.02-.346.025-.08.087-.14.147-.197l.028-.026Zm1.48.221a.293.293 0 0 0-.262-.127c-.257.105-.327.427-.244.67.044.108.17.2.288.148.103-.035.165-.13.217-.22l.038-.115c.009-.07.012-.14.012-.21a3.575 3.575 0 0 1-.05-.146Zm-12.64.241c-.057-.122-.115-.244-.15-.375l.157.07c.08.034.158.07.237.105l.1.05h.001l.086.042c.96.505 1.807 1.195 2.616 1.911 1.044.955 2.044 1.961 2.937 3.058.547.682 1.057 1.403 1.411 2.205.033.071.059.145.08.222l-.103-.094a.21.21 0 0 0 .05.08l-.074.073a7.646 7.646 0 0 0-.015-.116l-.042.159-.027-.085a3.882 3.882 0 0 1-.281-.008l.007-.03a1.838 1.838 0 0 1-.117-.045v-.031l-.053.002c-.033-.025-.067-.048-.101-.07-.036-.024-.072-.048-.106-.075l-.01-.008a4.948 4.948 0 0 0-.08-.065 2.985 2.985 0 0 1-.128-.108h-.013a5.055 5.055 0 0 1-.05-.049l-.001-.01c-.137-.095-.264-.203-.39-.311a12.808 12.808 0 0 0-.134-.114l-.02-.012a1.946 1.946 0 0 1-.03-.02l-.004-.012a.812.812 0 0 1-.09-.069 1.844 1.844 0 0 1-.176-.151 29.385 29.385 0 0 1-3.18-2.963c-.805-.883-1.59-1.804-2.16-2.861a12.78 12.78 0 0 1-.053-.103l-.036-.07-.057-.122Zm8.736.909a.422.422 0 0 0-.473.225.542.542 0 0 0 .002.398c.075.085.165.182.29.17.166.019.292-.113.371-.242.054-.204.026-.457-.19-.551Zm.933.145a.358.358 0 0 1 .366-.107c.06.054.117.112.165.177.01.124.015.25-.011.371a1.075 1.075 0 0 1-.19.222.547.547 0 0 1-.26.008c-.08-.038-.128-.115-.174-.187l-.004-.006c-.035-.166-.019-.354.108-.478Zm1.453-.043c-.148-.007-.262.11-.328.231l-.046.145c-.003.072 0 .144.005.216l.015.028c.045.084.1.184.206.18.162.031.278-.108.344-.235a.83.83 0 0 0 .037-.344c-.045-.099-.113-.211-.233-.22Zm-1.516 1.418.022-.004c.09-.014.195-.031.265.04.077.054.093.143.108.23a1.3 1.3 0 0 0 .013.066.418.418 0 0 0-.027.097.504.504 0 0 1-.02.083c-.068.12-.175.248-.326.242-.118.014-.2-.084-.259-.17a.862.862 0 0 1 0-.322.678.678 0 0 1 .224-.262Zm1.378.106c-.059-.068-.161-.06-.24-.038-.122.06-.19.184-.242.304-.036.163-.004.352.15.444.16.018.29-.097.36-.231a2.92 2.92 0 0 1 .042-.11c.022-.126.028-.273-.07-.369Zm-4.839 4.496-.018.003a1.12 1.12 0 0 1 .018-.003Z" clip-rule="evenodd"/><path fill="#7E7E7E" d="M7 14a3 3 0 1 1-6 0 3 3 0 0 1 6 0Z"/></svg>