<svg xmlns="http://www.w3.org/2000/svg" width="18" height="18" fill="none"><path fill="currentColor" d="M8.157.028c.495-.054 1.004-.01 1.504-.024.451-.007.771.433.556.755-.353.578-.705 1.157-1.063 1.733-.054.106-.255.106-.309 0-.359-.576-.71-1.155-1.064-1.733-.177-.273.013-.642.376-.731Z"/><path fill="currentColor" d="M6.616.32a9 9 0 1 0 4.766 0l-.531.867-.016.026a8 8 0 1 1-3.673.001l-.189-.31L6.616.32Z"/><path fill="currentColor" d="M7.797 2.252a6.823 6.823 0 0 0-3.29 1.573l2.741 2.74a2.992 2.992 0 0 1 1.269-.526v-2.62a264.25 264.25 0 0 1-.72-1.167ZM9.483 3.416v2.623c.468.076.9.26 1.268.525l2.741-2.739A6.824 6.824 0 0 0 10.2 2.251c-.238.389-.477.777-.717 1.165ZM11.961 8.517c-.075-.468-.26-.9-.526-1.27l2.74-2.74a6.825 6.825 0 0 1 1.66 4.01h-3.874ZM11.961 9.483c-.075.468-.26.9-.526 1.269l2.74 2.74a6.82 6.82 0 0 0 1.662-4.009H11.96ZM9.483 11.961a2.97 2.97 0 0 0 1.269-.525l2.739 2.739a6.823 6.823 0 0 1-4.008 1.66v-3.874ZM8.517 11.961c-.468-.075-.9-.26-1.27-.526l-2.74 2.74a6.826 6.826 0 0 0 4.01 1.662V11.96ZM6.039 9.483c.075.468.26.9.525 1.27l-2.739 2.74a6.823 6.823 0 0 1-1.66-4.01h3.874ZM6.039 8.517c.075-.468.26-.9.525-1.269l-2.739-2.74a6.823 6.823 0 0 0-1.662 4.009H6.04Z"/></svg>