<svg xmlns="http://www.w3.org/2000/svg" width="18" height="19" fill="none"><path fill="currentColor" d="m13.349 1.772-10.77 1.61a1.55 1.55 0 0 0-1.307 1.77l1.61 10.768a1.555 1.555 0 0 0 1.77 1.309l10.768-1.611a1.55 1.55 0 0 0 1.309-1.769L15.117 3.08a1.556 1.556 0 0 0-1.769-1.308ZM5.992 6.057a1.376 1.376 0 0 1 1.566 1.166 1.374 1.374 0 0 1-1.157 1.565 1.376 1.376 0 0 1-1.573-1.157 1.378 1.378 0 0 1 1.164-1.574Zm6.06 6.919a1.38 1.38 0 1 1 1.165-1.574 1.388 1.388 0 0 1-1.165 1.574Zm-5.165.796-1.327-.981 5.58-7.543 1.326.981-5.58 7.543Z"/></svg>