<svg xmlns="http://www.w3.org/2000/svg" width="18" height="19" fill="none"><g clip-path="url(#a)"><path fill="currentColor" d="M6.374 9.5a1.71 1.71 0 0 0 1.19-.48c.316-.306.494-.722.494-1.156 0-.434-.178-.85-.494-1.157a1.71 1.71 0 0 0-1.19-.48 1.71 1.71 0 0 0-1.191.48 1.613 1.613 0 0 0-.494 1.157c0 .434.178.85.494 1.157.316.307.744.479 1.19.479ZM16.9 5 8.9.5.9 5v9l8 4.5 8-4.5V5Zm-8-2.61 6.316 3.553v5.63l-3.842-2.24-6.712 4.892-2.078-1.168V5.943L8.9 2.391Zm0 14.22-2.654-1.494 5.232-3.813 3.367 1.962L8.9 16.61Z"/></g><defs><clipPath id="a"><path fill="#fff" d="M0 .5h18v18H0z"/></clipPath></defs></svg>