<svg xmlns="http://www.w3.org/2000/svg" width="16" height="16" fill="none"><path fill="currentColor" fill-rule="evenodd" d="M13.657 2.343A8 8 0 1 1 2.343 13.657 8 8 0 0 1 13.657 2.343ZM7.06 8.822c-.18.288-.272.76-.276 1.419h2.009c0-.391.041-.693.124-.905.083-.211.27-.428.56-.649.529-.345.962-.762 1.298-1.25a2.799 2.799 0 0 0 .504-1.622c0-.916-.288-1.631-.863-2.145-.576-.513-1.39-.77-2.445-.77-.976 0-1.76.233-2.351.698-.592.465-.892 1.158-.901 2.078h2.023c.005-.4.123-.7.356-.897.232-.198.523-.297.873-.297.424 0 .745.118.963.355.219.238.328.57.328.998 0 .387-.096.731-.29 1.033-.193.301-.455.59-.787.866-.57.438-.946.8-1.125 1.088ZM6.778 13.1h2.03v-1.727h-2.03V13.1Z" clip-rule="evenodd"/></svg>