<svg width="10" height="8" viewBox="0 0 10 8" fill="none" xmlns="http://www.w3.org/2000/svg">
<ellipse cx="3.99861" cy="1.86707" rx="1.899" ry="1.86707" fill="#29F061"/>
<path fill-rule="evenodd" clip-rule="evenodd" d="M5.88281 3.03841C6.12892 2.7318 6.268 2.32716 6.268 1.88361C6.268 1.44065 6.12929 1.03649 5.88378 0.730032C6.12921 0.549991 6.43395 0.443359 6.76411 0.443359C7.57626 0.443359 8.23464 1.08861 8.23464 1.88458C8.23464 2.68054 7.57626 3.32579 6.76411 3.32579C6.43352 3.32579 6.12841 3.21888 5.88281 3.03841Z" fill="#31BD59"/>
<path d="M7.3223 6.35535C7.3223 6.61245 7.3223 7.01693 7.3223 7.36046C7.3223 7.58442 7.3223 7.6964 7.2787 7.78196C7.24035 7.85723 7.17915 7.91842 7.10388 7.95677C7.01831 8.00037 6.9063 8.00036 6.68227 8.00035L1.31575 8.0001C1.09174 8.00009 0.979735 8.00009 0.894174 7.95649C0.818912 7.91814 0.757723 7.85695 0.719376 7.78168C0.675781 7.69612 0.675781 7.58423 0.675781 7.36046C0.675781 7.09685 0.675781 6.75792 0.675781 6.35535C0.675781 5.3242 2.16365 4.48828 3.99904 4.48828C5.83443 4.48828 7.3223 5.3242 7.3223 6.35535Z" fill="#29F061"/>
<path fill-rule="evenodd" clip-rule="evenodd" d="M9.32399 6.27029V5.33968C9.32399 4.48249 8.20981 3.7876 6.8354 3.7876C6.13341 3.7876 5.49931 3.96888 5.04688 4.26047C6.53461 4.4459 7.64715 5.19157 7.64715 6.08323V6.6702L8.92397 6.67027C9.14489 6.67028 9.32399 6.49122 9.32399 6.27029Z" fill="#31BD59"/>
</svg>
