<svg width="200" height="278" viewBox="0 0 200 278" fill="none" xmlns="http://www.w3.org/2000/svg">
<g clip-path="url(#clip0_2709_120094)">
<rect y="0.00439453" width="200" height="278" rx="10" fill="url(#paint0_linear_2709_120094)"/>
<path d="M161 206.278C161 212.685 169.563 215.95 172.454 221.916L172.491 222.004L172.527 221.916C175.418 215.95 184 212.685 184 206.295C184 200.93 176.663 198.864 173.076 203.348C173.003 203.577 173.076 201.918 173.314 201C174.174 198.247 177.267 194.24 178.767 193.004C176.681 194.734 168.264 194.717 166.196 193.004C167.697 194.258 170.643 198.105 171.649 201C171.85 201.794 171.979 202.606 172.033 203.418C168.557 198.547 161 200.806 161 206.278Z" fill="#EAEAEA"/>
<path d="M39 71.7311C39 65.3239 30.4367 62.0586 27.5457 56.0926L27.5091 56.0044L27.4725 56.0926C24.5815 62.0586 16 65.3239 16 71.7135C16 77.0793 23.3373 79.1444 26.9236 74.6611C26.9968 74.4317 26.9236 76.0908 26.6857 77.0086C25.8258 79.7621 22.7335 83.7688 21.2331 85.0044C23.319 83.2746 31.7359 83.2923 33.8035 85.0044C32.3031 83.7512 29.3572 79.9034 28.3508 77.0086C28.1496 76.2144 28.0215 75.4024 27.9666 74.5905C31.4431 79.4621 39 77.2028 39 71.7311Z" fill="#EAEAEA"/>
<path d="M26.7834 47.0044C25.1145 47.0044 23.6061 46.8127 22.2582 46.4294C20.9424 46.0461 19.771 45.535 18.744 44.8962C17.717 44.2574 16.8023 43.5387 16 42.7401L19.1772 38.2841C20.108 39.1146 21.1189 39.8333 22.2101 40.4403C23.3012 41.0152 24.4887 41.3027 25.7724 41.3027C26.7994 41.3027 27.698 41.127 28.4683 40.7756C29.2385 40.3923 29.8322 39.8493 30.2495 39.1466C30.6988 38.4439 30.9234 37.5814 30.9234 36.5593C30.9234 35.026 30.4741 33.8601 29.5755 33.0616C28.6769 32.263 27.5215 31.8637 26.1094 31.8637C25.2429 31.8637 24.5047 31.9755 23.895 32.1991C23.2852 32.4227 22.515 32.822 21.5842 33.397L18.407 31.3846L19.2735 16.0044H36.6039V21.9457H25.3873L24.8578 27.6474C25.4675 27.3918 26.0292 27.2161 26.5427 27.1203C27.0562 26.9925 27.6338 26.9287 28.2757 26.9287C30.0408 26.9287 31.6616 27.2641 33.1379 27.9348C34.6142 28.6056 35.7856 29.6438 36.6521 31.0492C37.5507 32.4547 38 34.2275 38 36.3676C38 38.6355 37.4705 40.568 36.4114 42.1651C35.3844 43.7303 34.0204 44.9281 32.3195 45.7586C30.6185 46.5891 28.7732 47.0044 26.7834 47.0044Z" fill="#EAEAEA"/>
<path d="M172.217 231.004C173.885 231.004 175.394 231.196 176.742 231.579C178.058 231.963 179.229 232.474 180.256 233.113C181.283 233.751 182.198 234.47 183 235.269L179.823 239.725C178.892 238.894 177.881 238.175 176.79 237.569C175.699 236.994 174.511 236.706 173.228 236.706C172.201 236.706 171.302 236.882 170.532 237.233C169.761 237.616 169.168 238.159 168.751 238.862C168.301 239.565 168.077 240.427 168.077 241.45C168.077 242.983 168.526 244.149 169.425 244.947C170.323 245.746 171.478 246.145 172.891 246.145C173.757 246.145 174.495 246.033 175.105 245.81C175.715 245.586 176.485 245.187 177.416 244.612L180.593 246.624L179.726 262.004H162.396V256.063H173.613L174.142 250.361C173.532 250.617 172.971 250.793 172.457 250.888C171.944 251.016 171.366 251.08 170.724 251.08C168.959 251.08 167.338 250.745 165.862 250.074C164.386 249.403 163.214 248.365 162.348 246.96C161.449 245.554 161 243.781 161 241.641C161 239.373 161.53 237.441 162.589 235.844C163.616 234.278 164.98 233.081 166.681 232.25C168.381 231.42 170.227 231.004 172.217 231.004Z" fill="#EAEAEA"/>
<path d="M85 85.935C85 81.0744 78.2983 78.5972 76.0358 74.0713L76.0071 74.0044L75.9785 74.0713C73.716 78.5972 67 81.0744 67 85.9216C67 89.9922 72.7422 91.5589 75.5489 88.1578C75.6062 87.9837 75.5489 89.2424 75.3628 89.9387C74.6897 92.0275 72.2697 95.0671 71.0955 96.0044C72.7279 94.6922 79.315 94.7056 80.9332 96.0044C79.759 95.0537 77.4535 92.1346 76.6659 89.9387C76.5083 89.3361 76.4081 88.7202 76.3651 88.1042C79.0859 91.7999 85 90.086 85 85.935Z" fill="#EAEAEA"/>
<path d="M133 85.935C133 81.0744 126.298 78.5972 124.036 74.0713L124.007 74.0044L123.978 74.0713C121.716 78.5972 115 81.0744 115 85.9216C115 89.9922 120.742 91.5589 123.549 88.1578C123.606 87.9837 123.549 89.2424 123.363 89.9387C122.69 92.0275 120.27 95.0671 119.095 96.0044C120.728 94.6922 127.315 94.7056 128.933 96.0044C127.759 95.0537 125.453 92.1346 124.666 89.9387C124.508 89.3361 124.408 88.7202 124.365 88.1042C127.086 91.7999 133 90.086 133 85.935Z" fill="#EAEAEA"/>
<path d="M109 139.935C109 135.074 102.298 132.597 100.036 128.071L100.007 128.004L99.9785 128.071C97.716 132.597 91 135.074 91 139.922C91 143.992 96.7422 145.559 99.5489 142.158C99.6062 141.984 99.5489 143.242 99.3628 143.939C98.6897 146.028 96.2697 149.067 95.0955 150.004C96.7279 148.692 103.315 148.706 104.933 150.004C103.759 149.054 101.453 146.135 100.666 143.939C100.508 143.336 100.408 142.72 100.365 142.104C103.086 145.8 109 144.086 109 139.935Z" fill="#EAEAEA"/>
<path d="M115 192.074C115 196.934 121.702 199.412 123.964 203.937L123.993 204.004L124.022 203.937C126.284 199.412 133 196.934 133 192.087C133 188.017 127.258 186.45 124.451 189.851C124.394 190.025 124.451 188.766 124.637 188.07C125.31 185.981 127.73 182.942 128.905 182.004C127.272 183.317 120.685 183.303 119.067 182.004C120.241 182.955 122.547 185.874 123.334 188.07C123.492 188.673 123.592 189.289 123.635 189.905C120.914 186.209 115 187.923 115 192.074Z" fill="#EAEAEA"/>
<path d="M67 192.074C67 196.934 73.7017 199.412 75.9642 203.937L75.9929 204.004L76.0215 203.937C78.284 199.412 85 196.934 85 192.087C85 188.017 79.2578 186.45 76.4511 189.851C76.3938 190.025 76.4511 188.766 76.6372 188.07C77.3103 185.981 79.7303 182.942 80.9045 182.004C79.2721 183.317 72.685 183.303 71.0668 182.004C72.241 182.955 74.5465 185.874 75.3341 188.07C75.4917 188.673 75.5919 189.289 75.6349 189.905C72.9141 186.209 67 187.923 67 192.074Z" fill="#EAEAEA"/>
</g>
<defs>
<linearGradient id="paint0_linear_2709_120094" x1="0" y1="278.004" x2="200" y2="0.00440461" gradientUnits="userSpaceOnUse">
<stop stop-color="#101010"/>
<stop offset="0.712851" stop-color="#201F1F"/>
<stop offset="1" stop-color="#101010"/>
</linearGradient>
<clipPath id="clip0_2709_120094">
<rect width="200" height="278" fill="white"/>
</clipPath>
</defs>
</svg>
