<svg width="200" height="278" viewBox="0 0 200 278" fill="none" xmlns="http://www.w3.org/2000/svg">
<g clip-path="url(#clip0_2709_120155)">
<rect y="0.00439453" width="200" height="278" rx="10" fill="url(#paint0_linear_2709_120155)"/>
<path d="M161 206.278C161 212.685 169.563 215.95 172.454 221.916L172.491 222.004L172.527 221.916C175.418 215.95 184 212.685 184 206.295C184 200.93 176.663 198.864 173.076 203.348C173.003 203.577 173.076 201.918 173.314 201C174.174 198.247 177.267 194.24 178.767 193.004C176.681 194.734 168.264 194.717 166.196 193.004C167.697 194.258 170.643 198.105 171.649 201C171.85 201.794 171.979 202.606 172.033 203.418C168.557 198.547 161 200.806 161 206.278Z" fill="#EAEAEA"/>
<path d="M39 71.7311C39 65.3239 30.4367 62.0586 27.5457 56.0926L27.5091 56.0044L27.4725 56.0926C24.5815 62.0586 16 65.3239 16 71.7135C16 77.0793 23.3373 79.1444 26.9236 74.6611C26.9968 74.4317 26.9236 76.0908 26.6857 77.0086C25.8258 79.7621 22.7335 83.7688 21.2331 85.0044C23.319 83.2746 31.7359 83.2923 33.8035 85.0044C32.3031 83.7512 29.3572 79.9034 28.3508 77.0086C28.1496 76.2144 28.0215 75.4024 27.9666 74.5905C31.4431 79.4621 39 77.2028 39 71.7311Z" fill="#EAEAEA"/>
<path d="M28.1752 47.0044C26.7472 47.0044 25.3659 46.7221 24.031 46.1577C22.6962 45.5932 21.5011 44.7151 20.4457 43.5234C19.3902 42.3317 18.5521 40.8107 17.9313 38.9604C17.3104 37.0787 17 34.8208 17 32.1865C17 29.3954 17.3259 26.9806 17.9778 24.9422C18.6297 22.9037 19.5144 21.2259 20.6319 19.9088C21.7494 18.5916 23.0222 17.6195 24.4501 16.9923C25.878 16.3337 27.3836 16.0044 28.9667 16.0044C30.9224 16.0044 32.6142 16.365 34.0421 17.0863C35.4701 17.7763 36.6497 18.6073 37.5809 19.5795L33.9956 23.7191C33.4678 23.1546 32.7849 22.6685 31.9468 22.2608C31.1086 21.8218 30.255 21.6023 29.3858 21.6023C28.2683 21.6023 27.2284 21.9316 26.2661 22.5901C25.3348 23.2487 24.5898 24.362 24.031 25.93C23.5033 27.4667 23.2395 29.5522 23.2395 32.1865C23.2395 34.664 23.4568 36.6083 23.8914 38.0196C24.357 39.3994 24.9623 40.3873 25.7073 40.9832C26.4523 41.5476 27.2284 41.8299 28.0355 41.8299C28.7184 41.8299 29.3392 41.6574 29.898 41.3124C30.4568 40.9675 30.9069 40.45 31.2483 39.7601C31.5898 39.0388 31.7605 38.1136 31.7605 36.9847C31.7605 35.9184 31.5898 35.0717 31.2483 34.4445C30.9069 33.8172 30.4412 33.3625 29.8514 33.0803C29.2927 32.798 28.6408 32.6569 27.8958 32.6569C27.1197 32.6569 26.3126 32.8921 25.4745 33.3625C24.6674 33.8329 23.9379 34.664 23.286 35.8557L22.9601 31.3397C23.7361 30.1794 24.7295 29.3013 25.9401 28.7055C27.1508 28.0782 28.2373 27.7646 29.1996 27.7646C30.8758 27.7646 32.3814 28.0939 33.7162 28.7525C35.051 29.4111 36.0909 30.4303 36.8359 31.8102C37.612 33.1587 38 34.8835 38 36.9847C38 39.0545 37.5499 40.842 36.6497 42.3473C35.7805 43.8526 34.6009 45.013 33.1109 45.8284C31.6208 46.6124 29.9756 47.0044 28.1752 47.0044Z" fill="#EAEAEA"/>
<path d="M171.825 231.004C173.253 231.004 174.634 231.287 175.969 231.851C177.304 232.416 178.499 233.294 179.554 234.485C180.61 235.677 181.448 237.198 182.069 239.048C182.69 240.93 183 243.188 183 245.822C183 248.613 182.674 251.028 182.022 253.067C181.37 255.105 180.486 256.783 179.368 258.1C178.251 259.417 176.978 260.389 175.55 261.017C174.122 261.675 172.616 262.004 171.033 262.004C169.078 262.004 167.386 261.644 165.958 260.922C164.53 260.233 163.35 259.401 162.419 258.429L166.004 254.29C166.532 254.854 167.215 255.34 168.053 255.748C168.891 256.187 169.745 256.407 170.614 256.407C171.732 256.407 172.772 256.077 173.734 255.419C174.665 254.76 175.41 253.647 175.969 252.079C176.497 250.542 176.761 248.457 176.761 245.822C176.761 243.345 176.543 241.4 176.109 239.989C175.643 238.609 175.038 237.621 174.293 237.026C173.548 236.461 172.772 236.179 171.965 236.179C171.282 236.179 170.661 236.351 170.102 236.696C169.543 237.041 169.093 237.559 168.752 238.249C168.41 238.97 168.239 239.895 168.239 241.024C168.239 242.09 168.41 242.937 168.752 243.564C169.093 244.192 169.559 244.646 170.149 244.929C170.707 245.211 171.359 245.352 172.104 245.352C172.88 245.352 173.687 245.117 174.525 244.646C175.333 244.176 176.062 243.345 176.714 242.153L177.04 246.669C176.264 247.829 175.271 248.707 174.06 249.303C172.849 249.931 171.763 250.244 170.8 250.244C169.124 250.244 167.619 249.915 166.284 249.256C164.949 248.598 163.909 247.578 163.164 246.199C162.388 244.85 162 243.125 162 241.024C162 238.954 162.45 237.167 163.35 235.661C164.22 234.156 165.399 232.996 166.889 232.18C168.379 231.396 170.024 231.004 171.825 231.004Z" fill="#EAEAEA"/>
<path d="M85 85.935C85 81.0744 78.2983 78.5972 76.0358 74.0713L76.0071 74.0044L75.9785 74.0713C73.716 78.5972 67 81.0744 67 85.9216C67 89.9922 72.7422 91.5589 75.5489 88.1578C75.6062 87.9837 75.5489 89.2424 75.3628 89.9387C74.6897 92.0275 72.2697 95.0671 71.0955 96.0044C72.7279 94.6922 79.315 94.7056 80.9332 96.0044C79.759 95.0537 77.4535 92.1346 76.6659 89.9387C76.5083 89.3361 76.4081 88.7202 76.3651 88.1042C79.0859 91.7999 85 90.086 85 85.935Z" fill="#EAEAEA"/>
<path d="M133 85.935C133 81.0744 126.298 78.5972 124.036 74.0713L124.007 74.0044L123.978 74.0713C121.716 78.5972 115 81.0744 115 85.9216C115 89.9922 120.742 91.5589 123.549 88.1578C123.606 87.9837 123.549 89.2424 123.363 89.9387C122.69 92.0275 120.27 95.0671 119.095 96.0044C120.728 94.6922 127.315 94.7056 128.933 96.0044C127.759 95.0537 125.453 92.1346 124.666 89.9387C124.508 89.3361 124.408 88.7202 124.365 88.1042C127.086 91.7999 133 90.086 133 85.935Z" fill="#EAEAEA"/>
<path d="M133 139.935C133 135.074 126.298 132.597 124.036 128.071L124.007 128.004L123.978 128.071C121.716 132.597 115 135.074 115 139.922C115 143.992 120.742 145.559 123.549 142.158C123.606 141.984 123.549 143.242 123.363 143.939C122.69 146.028 120.27 149.067 119.095 150.004C120.728 148.692 127.315 148.706 128.933 150.004C127.759 149.054 125.453 146.135 124.666 143.939C124.508 143.336 124.408 142.72 124.365 142.104C127.086 145.8 133 144.086 133 139.935Z" fill="#EAEAEA"/>
<path d="M85 139.935C85 135.074 78.2983 132.597 76.0358 128.071L76.0071 128.004L75.9785 128.071C73.716 132.597 67 135.074 67 139.922C67 143.992 72.7422 145.559 75.5489 142.158C75.6062 141.984 75.5489 143.242 75.3628 143.939C74.6897 146.028 72.2697 149.067 71.0955 150.004C72.7279 148.692 79.315 148.706 80.9332 150.004C79.759 149.054 77.4535 146.135 76.6659 143.939C76.5083 143.336 76.4081 142.72 76.3651 142.104C79.0859 145.8 85 144.086 85 139.935Z" fill="#EAEAEA"/>
<path d="M115 192.074C115 196.934 121.702 199.412 123.964 203.937L123.993 204.004L124.022 203.937C126.284 199.412 133 196.934 133 192.087C133 188.017 127.258 186.45 124.451 189.851C124.394 190.025 124.451 188.766 124.637 188.07C125.31 185.981 127.73 182.942 128.905 182.004C127.272 183.317 120.685 183.303 119.067 182.004C120.241 182.955 122.547 185.874 123.334 188.07C123.492 188.673 123.592 189.289 123.635 189.905C120.914 186.209 115 187.923 115 192.074Z" fill="#EAEAEA"/>
<path d="M67 192.074C67 196.934 73.7017 199.412 75.9642 203.937L75.9929 204.004L76.0215 203.937C78.284 199.412 85 196.934 85 192.087C85 188.017 79.2578 186.45 76.4511 189.851C76.3938 190.025 76.4511 188.766 76.6372 188.07C77.3103 185.981 79.7303 182.942 80.9045 182.004C79.2721 183.317 72.685 183.303 71.0668 182.004C72.241 182.955 74.5465 185.874 75.3341 188.07C75.4917 188.673 75.5919 189.289 75.6349 189.905C72.9141 186.209 67 187.923 67 192.074Z" fill="#EAEAEA"/>
</g>
<defs>
<linearGradient id="paint0_linear_2709_120155" x1="0" y1="278.004" x2="200" y2="0.00440461" gradientUnits="userSpaceOnUse">
<stop stop-color="#101010"/>
<stop offset="0.712851" stop-color="#201F1F"/>
<stop offset="1" stop-color="#101010"/>
</linearGradient>
<clipPath id="clip0_2709_120155">
<rect width="200" height="278" fill="white"/>
</clipPath>
</defs>
</svg>
