<svg width="200" height="278" viewBox="0 0 200 278" fill="none" xmlns="http://www.w3.org/2000/svg">
<g clip-path="url(#clip0_2709_120390)">
<rect y="0.00439453" width="200" height="278" rx="10" fill="url(#paint0_linear_2709_120390)"/>
<path d="M161 206.278C161 212.685 169.563 215.95 172.454 221.916L172.491 222.004L172.527 221.916C175.418 215.95 184 212.685 184 206.295C184 200.93 176.663 198.864 173.076 203.348C173.003 203.577 173.076 201.918 173.314 201C174.174 198.247 177.267 194.24 178.767 193.004C176.681 194.734 168.264 194.717 166.196 193.004C167.697 194.258 170.643 198.105 171.649 201C171.85 201.794 171.979 202.606 172.033 203.418C168.557 198.547 161 200.806 161 206.278Z" fill="#EAEAEA"/>
<path d="M39 71.7311C39 65.3239 30.4367 62.0586 27.5457 56.0926L27.5091 56.0044L27.4725 56.0926C24.5815 62.0586 16 65.3239 16 71.7135C16 77.0793 23.3373 79.1444 26.9236 74.6611C26.9968 74.4317 26.9236 76.0908 26.6857 77.0086C25.8258 79.7621 22.7335 83.7688 21.2331 85.0044C23.319 83.2746 31.7359 83.2923 33.8035 85.0044C32.3031 83.7512 29.3572 79.9034 28.3508 77.0086C28.1496 76.2144 28.0215 75.4024 27.9666 74.5905C31.4431 79.4621 39 77.2028 39 71.7311Z" fill="#EAEAEA"/>
<path d="M22.276 47.0044C22.4419 44.4333 22.7074 42.0737 23.0724 39.9257C23.4374 37.7451 23.9517 35.6784 24.6154 33.7257C25.3122 31.7729 26.1916 29.8527 27.2534 27.965C28.3152 26.0774 29.6259 24.1083 31.1855 22.0579H17V16.0044H39V20.3981C37.1418 22.6112 35.6154 24.6779 34.4208 26.5981C33.2594 28.5183 32.3635 30.4711 31.733 32.4564C31.1026 34.4417 30.638 36.606 30.3394 38.9493C30.0407 41.2926 29.8084 43.9776 29.6425 47.0044H22.276Z" fill="#EAEAEA"/>
<path d="M177.724 231.004C177.558 233.576 177.293 235.935 176.928 238.083C176.563 240.264 176.048 242.33 175.385 244.283C174.688 246.236 173.808 248.156 172.747 250.044C171.685 251.931 170.374 253.9 168.814 255.951H183V262.004H161V257.611C162.858 255.398 164.385 253.331 165.579 251.411C166.741 249.49 167.637 247.538 168.267 245.552C168.897 243.567 169.362 241.403 169.661 239.06C169.959 236.716 170.192 234.031 170.357 231.004H177.724Z" fill="#EAEAEA"/>
<path d="M85 85.935C85 81.0744 78.2983 78.5972 76.0358 74.0713L76.0071 74.0044L75.9785 74.0713C73.716 78.5972 67 81.0744 67 85.9216C67 89.9922 72.7422 91.5589 75.5489 88.1578C75.6062 87.9837 75.5489 89.2424 75.3628 89.9387C74.6897 92.0275 72.2697 95.0671 71.0955 96.0044C72.7279 94.6922 79.315 94.7056 80.9332 96.0044C79.759 95.0537 77.4535 92.1346 76.6659 89.9387C76.5083 89.3361 76.4081 88.7202 76.3651 88.1042C79.0859 91.7999 85 90.086 85 85.935Z" fill="#EAEAEA"/>
<path d="M133 85.935C133 81.0744 126.298 78.5972 124.036 74.0713L124.007 74.0044L123.978 74.0713C121.716 78.5972 115 81.0744 115 85.9216C115 89.9922 120.742 91.5589 123.549 88.1578C123.606 87.9837 123.549 89.2424 123.363 89.9387C122.69 92.0275 120.27 95.0671 119.095 96.0044C120.728 94.6922 127.315 94.7056 128.933 96.0044C127.759 95.0537 125.453 92.1346 124.666 89.9387C124.508 89.3361 124.408 88.7202 124.365 88.1042C127.086 91.7999 133 90.086 133 85.935Z" fill="#EAEAEA"/>
<path d="M133 139.935C133 135.074 126.298 132.597 124.036 128.071L124.007 128.004L123.978 128.071C121.716 132.597 115 135.074 115 139.922C115 143.992 120.742 145.559 123.549 142.158C123.606 141.984 123.549 143.242 123.363 143.939C122.69 146.028 120.27 149.067 119.095 150.004C120.728 148.692 127.315 148.706 128.933 150.004C127.759 149.054 125.453 146.135 124.666 143.939C124.508 143.336 124.408 142.72 124.365 142.104C127.086 145.8 133 144.086 133 139.935Z" fill="#EAEAEA"/>
<path d="M109 112.935C109 108.074 102.298 105.597 100.036 101.071L100.007 101.004L99.9785 101.071C97.716 105.597 91 108.074 91 112.922C91 116.992 96.7422 118.559 99.5489 115.158C99.6062 114.984 99.5489 116.242 99.3628 116.939C98.6897 119.028 96.2697 122.067 95.0955 123.004C96.7279 121.692 103.315 121.706 104.933 123.004C103.759 122.054 101.453 119.135 100.666 116.939C100.508 116.336 100.408 115.72 100.365 115.104C103.086 118.8 109 117.086 109 112.935Z" fill="#EAEAEA"/>
<path d="M85 139.935C85 135.074 78.2983 132.597 76.0358 128.071L76.0071 128.004L75.9785 128.071C73.716 132.597 67 135.074 67 139.922C67 143.992 72.7422 145.559 75.5489 142.158C75.6062 141.984 75.5489 143.242 75.3628 143.939C74.6897 146.028 72.2697 149.067 71.0955 150.004C72.7279 148.692 79.315 148.706 80.9332 150.004C79.759 149.054 77.4535 146.135 76.6659 143.939C76.5083 143.336 76.4081 142.72 76.3651 142.104C79.0859 145.8 85 144.086 85 139.935Z" fill="#EAEAEA"/>
<path d="M115 192.074C115 196.934 121.702 199.412 123.964 203.937L123.993 204.004L124.022 203.937C126.284 199.412 133 196.934 133 192.087C133 188.017 127.258 186.45 124.451 189.851C124.394 190.025 124.451 188.766 124.637 188.07C125.31 185.981 127.73 182.942 128.905 182.004C127.272 183.317 120.685 183.303 119.067 182.004C120.241 182.955 122.547 185.874 123.334 188.07C123.492 188.673 123.592 189.289 123.635 189.905C120.914 186.209 115 187.923 115 192.074Z" fill="#EAEAEA"/>
<path d="M67 192.074C67 196.934 73.7017 199.412 75.9642 203.937L75.9929 204.004L76.0215 203.937C78.284 199.412 85 196.934 85 192.087C85 188.017 79.2578 186.45 76.4511 189.851C76.3938 190.025 76.4511 188.766 76.6372 188.07C77.3103 185.981 79.7303 182.942 80.9045 182.004C79.2721 183.317 72.685 183.303 71.0668 182.004C72.241 182.955 74.5465 185.874 75.3341 188.07C75.4917 188.673 75.5919 189.289 75.6349 189.905C72.9141 186.209 67 187.923 67 192.074Z" fill="#EAEAEA"/>
</g>
<defs>
<linearGradient id="paint0_linear_2709_120390" x1="0" y1="278.004" x2="200" y2="0.00440461" gradientUnits="userSpaceOnUse">
<stop stop-color="#101010"/>
<stop offset="0.712851" stop-color="#201F1F"/>
<stop offset="1" stop-color="#101010"/>
</linearGradient>
<clipPath id="clip0_2709_120390">
<rect width="200" height="278" fill="white"/>
</clipPath>
</defs>
</svg>
