<svg width="201" height="278" viewBox="0 0 201 278" fill="none" xmlns="http://www.w3.org/2000/svg">
<g clip-path="url(#clip0_2709_120463)">
<rect x="1" y="0.00439453" width="200" height="278" rx="10" fill="url(#paint0_linear_2709_120463)"/>
<path d="M162 206.278C162 212.685 170.563 215.95 173.454 221.916L173.491 222.004L173.527 221.916C176.418 215.95 185 212.685 185 206.295C185 200.93 177.663 198.864 174.076 203.348C174.003 203.577 174.076 201.918 174.314 201C175.174 198.247 178.267 194.24 179.767 193.004C177.681 194.734 169.264 194.717 167.196 193.004C168.697 194.258 171.643 198.105 172.649 201C172.85 201.794 172.979 202.606 173.033 203.418C169.557 198.547 162 200.806 162 206.278Z" fill="#EAEAEA"/>
<path d="M40 71.7311C40 65.3239 31.4367 62.0586 28.5457 56.0926L28.5091 56.0044L28.4725 56.0926C25.5815 62.0586 17 65.3239 17 71.7135C17 77.0793 24.3373 79.1444 27.9236 74.6611C27.9968 74.4317 27.9236 76.0908 27.6857 77.0086C26.8258 79.7621 23.7335 83.7688 22.2331 85.0044C24.319 83.2746 32.7359 83.2923 34.8035 85.0044C33.3031 83.7512 30.3572 79.9034 29.3508 77.0086C29.1496 76.2144 29.0215 75.4024 28.9666 74.5905C32.4431 79.4621 40 77.2028 40 71.7311Z" fill="#EAEAEA"/>
<path d="M28.4058 47.0044C26.4283 47.0044 24.639 46.6594 23.0381 45.9695C21.4686 45.2796 20.2287 44.3231 19.3184 43.1C18.4395 41.8456 18 40.4187 18 38.8193C18 37.5962 18.2197 36.5456 18.6592 35.6675C19.13 34.7581 19.7422 33.9584 20.4955 33.2684C21.2803 32.5785 22.1435 31.9826 23.0852 31.4809V31.2927C21.9552 30.4146 20.9978 29.4111 20.213 28.2821C19.4596 27.1531 19.083 25.8046 19.083 24.2366C19.083 22.5431 19.491 21.0848 20.3072 19.8618C21.1233 18.6073 22.2534 17.6508 23.6973 16.9923C25.1413 16.3337 26.7892 16.0044 28.6413 16.0044C31.4036 16.0044 33.6009 16.757 35.2332 18.2624C36.8969 19.7363 37.7287 21.712 37.7287 24.1895C37.7287 25.1303 37.5404 26.0241 37.1637 26.8709C36.8184 27.6862 36.3475 28.4232 35.7511 29.0818C35.1547 29.709 34.5112 30.2578 33.8206 30.7282V30.9164C34.7623 31.4182 35.6256 32.0297 36.4103 32.751C37.1951 33.4409 37.8229 34.2877 38.2937 35.2912C38.7646 36.2634 39 37.408 39 38.7252C39 40.2932 38.5605 41.7044 37.6816 42.9589C36.8027 44.1819 35.5628 45.1698 33.9619 45.9225C32.3924 46.6437 30.5404 47.0044 28.4058 47.0044ZM30.2892 29.0347C30.8857 28.3448 31.3408 27.6392 31.6547 26.9179C31.9686 26.1966 32.1256 25.4439 32.1256 24.6599C32.1256 23.8759 31.9843 23.2017 31.7018 22.6372C31.4193 22.0727 30.9955 21.6336 30.4305 21.32C29.8969 20.9751 29.2534 20.8026 28.5 20.8026C27.5897 20.8026 26.8049 21.1005 26.1457 21.6964C25.4865 22.2608 25.157 23.1076 25.157 24.2366C25.157 25.0519 25.3767 25.7419 25.8161 26.3064C26.2556 26.8709 26.852 27.3726 27.6054 27.8117C28.3901 28.2507 29.2848 28.6584 30.2892 29.0347ZM28.5471 42.2062C29.3004 42.2062 29.9753 42.0808 30.5717 41.8299C31.1996 41.5476 31.6861 41.14 32.0314 40.6068C32.3767 40.0423 32.5493 39.3367 32.5493 38.49C32.5493 37.6119 32.2825 36.8906 31.7489 36.3261C31.2466 35.7302 30.509 35.2128 29.5359 34.7737C28.5942 34.3033 27.4955 33.8016 26.2399 33.2684C25.5807 33.8643 25.0314 34.5856 24.5919 35.4323C24.1525 36.2477 23.9327 37.1101 23.9327 38.0196C23.9327 38.8977 24.1368 39.6503 24.5448 40.2775C24.9843 40.9047 25.5493 41.3908 26.2399 41.7358C26.9619 42.0494 27.7309 42.2062 28.5471 42.2062Z" fill="#EAEAEA"/>
<path d="M172.594 231.004C174.572 231.004 176.361 231.349 177.962 232.039C179.531 232.729 180.771 233.686 181.682 234.909C182.561 236.163 183 237.59 183 239.19C183 240.413 182.78 241.463 182.341 242.341C181.87 243.251 181.258 244.05 180.504 244.74C179.72 245.43 178.857 246.026 177.915 246.528L177.915 246.716C179.045 247.594 180.002 248.598 180.787 249.727C181.54 250.856 181.917 252.204 181.917 253.772C181.917 255.466 181.509 256.924 180.693 258.147C179.877 259.401 178.747 260.358 177.303 261.017C175.859 261.675 174.211 262.004 172.359 262.004C169.596 262.004 167.399 261.252 165.767 259.746C164.103 258.272 163.271 256.297 163.271 253.819C163.271 252.878 163.46 251.985 163.836 251.138C164.182 250.323 164.652 249.586 165.249 248.927C165.845 248.3 166.489 247.751 167.179 247.281L167.179 247.092C166.238 246.591 165.374 245.979 164.59 245.258C163.805 244.568 163.177 243.721 162.706 242.718C162.235 241.745 162 240.601 162 239.284C162 237.716 162.439 236.304 163.318 235.05C164.197 233.827 165.437 232.839 167.038 232.086C168.608 231.365 170.46 231.004 172.594 231.004ZM170.711 248.974C170.114 249.664 169.659 250.37 169.345 251.091C169.031 251.812 168.874 252.565 168.874 253.349C168.874 254.133 169.016 254.807 169.298 255.372C169.581 255.936 170.004 256.375 170.57 256.689C171.103 257.034 171.747 257.206 172.5 257.206C173.41 257.206 174.195 256.908 174.854 256.312C175.513 255.748 175.843 254.901 175.843 253.772C175.843 252.957 175.623 252.267 175.184 251.702C174.744 251.138 174.148 250.636 173.395 250.197C172.61 249.758 171.715 249.35 170.711 248.974ZM172.453 235.803C171.7 235.803 171.025 235.928 170.428 236.179C169.8 236.461 169.314 236.869 168.969 237.402C168.623 237.966 168.451 238.672 168.451 239.519C168.451 240.397 168.717 241.118 169.251 241.683C169.753 242.279 170.491 242.796 171.464 243.235C172.406 243.705 173.504 244.207 174.76 244.74C175.419 244.145 175.969 243.423 176.408 242.576C176.848 241.761 177.067 240.899 177.067 239.989C177.067 239.111 176.863 238.358 176.455 237.731C176.016 237.104 175.451 236.618 174.76 236.273C174.038 235.959 173.269 235.803 172.453 235.803Z" fill="#EAEAEA"/>
<path d="M86 85.935C86 81.0744 79.2983 78.5972 77.0358 74.0713L77.0071 74.0044L76.9785 74.0713C74.716 78.5972 68 81.0744 68 85.9216C68 89.9922 73.7422 91.5589 76.5489 88.1578C76.6062 87.9837 76.5489 89.2424 76.3628 89.9387C75.6897 92.0275 73.2697 95.0671 72.0955 96.0044C73.7279 94.6922 80.315 94.7056 81.9332 96.0044C80.759 95.0537 78.4535 92.1346 77.6659 89.9387C77.5083 89.3361 77.4081 88.7202 77.3651 88.1042C80.0859 91.7999 86 90.086 86 85.935Z" fill="#EAEAEA"/>
<path d="M134 85.935C134 81.0744 127.298 78.5972 125.036 74.0713L125.007 74.0044L124.978 74.0713C122.716 78.5972 116 81.0744 116 85.9216C116 89.9922 121.742 91.5589 124.549 88.1578C124.606 87.9837 124.549 89.2424 124.363 89.9387C123.69 92.0275 121.27 95.0671 120.095 96.0044C121.728 94.6922 128.315 94.7056 129.933 96.0044C128.759 95.0537 126.453 92.1346 125.666 89.9387C125.508 89.3361 125.408 88.7202 125.365 88.1042C128.086 91.7999 134 90.086 134 85.935Z" fill="#EAEAEA"/>
<path d="M134 139.935C134 135.074 127.298 132.597 125.036 128.071L125.007 128.004L124.978 128.071C122.716 132.597 116 135.074 116 139.922C116 143.992 121.742 145.559 124.549 142.158C124.606 141.984 124.549 143.242 124.363 143.939C123.69 146.028 121.27 149.067 120.095 150.004C121.728 148.692 128.315 148.706 129.933 150.004C128.759 149.054 126.453 146.135 125.666 143.939C125.508 143.336 125.408 142.72 125.365 142.104C128.086 145.8 134 144.086 134 139.935Z" fill="#EAEAEA"/>
<path d="M110 112.935C110 108.074 103.298 105.597 101.036 101.071L101.007 101.004L100.978 101.071C98.716 105.597 92 108.074 92 112.922C92 116.992 97.7422 118.559 100.549 115.158C100.606 114.984 100.549 116.242 100.363 116.939C99.6897 119.028 97.2697 122.067 96.0955 123.004C97.7279 121.692 104.315 121.706 105.933 123.004C104.759 122.054 102.453 119.135 101.666 116.939C101.508 116.336 101.408 115.72 101.365 115.104C104.086 118.8 110 117.086 110 112.935Z" fill="#EAEAEA"/>
<path d="M92 165.074C92 169.934 98.7017 172.412 100.964 176.937L100.993 177.004L101.022 176.937C103.284 172.412 110 169.934 110 165.087C110 161.017 104.258 159.45 101.451 162.851C101.394 163.025 101.451 161.766 101.637 161.07C102.31 158.981 104.73 155.942 105.905 155.004C104.272 156.317 97.685 156.303 96.0668 155.004C97.241 155.955 99.5465 158.874 100.334 161.07C100.492 161.673 100.592 162.289 100.635 162.905C97.9141 159.209 92 160.923 92 165.074Z" fill="#EAEAEA"/>
<path d="M86 139.935C86 135.074 79.2983 132.597 77.0358 128.071L77.0071 128.004L76.9785 128.071C74.716 132.597 68 135.074 68 139.922C68 143.992 73.7422 145.559 76.5489 142.158C76.6062 141.984 76.5489 143.242 76.3628 143.939C75.6897 146.028 73.2697 149.067 72.0955 150.004C73.7279 148.692 80.315 148.706 81.9332 150.004C80.759 149.054 78.4535 146.135 77.6659 143.939C77.5083 143.336 77.4081 142.72 77.3651 142.104C80.0859 145.8 86 144.086 86 139.935Z" fill="#EAEAEA"/>
<path d="M116 192.074C116 196.934 122.702 199.412 124.964 203.937L124.993 204.004L125.022 203.937C127.284 199.412 134 196.934 134 192.087C134 188.017 128.258 186.45 125.451 189.851C125.394 190.025 125.451 188.766 125.637 188.07C126.31 185.981 128.73 182.942 129.905 182.004C128.272 183.317 121.685 183.303 120.067 182.004C121.241 182.955 123.547 185.874 124.334 188.07C124.492 188.673 124.592 189.289 124.635 189.905C121.914 186.209 116 187.923 116 192.074Z" fill="#EAEAEA"/>
<path d="M68 192.074C68 196.934 74.7017 199.412 76.9642 203.937L76.9929 204.004L77.0215 203.937C79.284 199.412 86 196.934 86 192.087C86 188.017 80.2578 186.45 77.4511 189.851C77.3938 190.025 77.4511 188.766 77.6372 188.07C78.3103 185.981 80.7303 182.942 81.9045 182.004C80.2721 183.317 73.685 183.303 72.0668 182.004C73.241 182.955 75.5465 185.874 76.3341 188.07C76.4917 188.673 76.5919 189.289 76.6349 189.905C73.9141 186.209 68 187.923 68 192.074Z" fill="#EAEAEA"/>
</g>
<defs>
<linearGradient id="paint0_linear_2709_120463" x1="1" y1="278.004" x2="201" y2="0.00440461" gradientUnits="userSpaceOnUse">
<stop stop-color="#101010"/>
<stop offset="0.712851" stop-color="#201F1F"/>
<stop offset="1" stop-color="#101010"/>
</linearGradient>
<clipPath id="clip0_2709_120463">
<rect width="200" height="278" fill="white" transform="translate(0.5)"/>
</clipPath>
</defs>
</svg>
