<svg width="200" height="278" viewBox="0 0 200 278" fill="none" xmlns="http://www.w3.org/2000/svg">
<g clip-path="url(#clip0_2709_120230)">
<rect y="0.00439453" width="200" height="278" rx="10" fill="url(#paint0_linear_2709_120230)"/>
<path d="M161 206.278C161 212.685 169.563 215.95 172.454 221.916L172.491 222.004L172.527 221.916C175.418 215.95 184 212.685 184 206.295C184 200.93 176.663 198.864 173.076 203.348C173.003 203.577 173.076 201.918 173.314 201C174.174 198.247 177.267 194.24 178.767 193.004C176.681 194.734 168.264 194.717 166.196 193.004C167.697 194.258 170.643 198.105 171.649 201C171.85 201.794 171.979 202.606 172.033 203.418C168.557 198.547 161 200.806 161 206.278Z" fill="#EAEAEA"/>
<path d="M39 71.7311C39 65.3239 30.4367 62.0586 27.5457 56.0926L27.5091 56.0044L27.4725 56.0926C24.5815 62.0586 16 65.3239 16 71.7135C16 77.0793 23.3373 79.1444 26.9236 74.6611C26.9968 74.4317 26.9236 76.0908 26.6857 77.0086C25.8258 79.7621 22.7335 83.7688 21.2331 85.0044C23.319 83.2746 31.7359 83.2923 33.8035 85.0044C32.3031 83.7512 29.3572 79.9034 28.3508 77.0086C28.1496 76.2144 28.0215 75.4024 27.9666 74.5905C31.4431 79.4621 39 77.2028 39 71.7311Z" fill="#EAEAEA"/>
<path d="M26.0597 47.0044C24.1084 47.0044 22.4204 46.6437 20.9956 45.9225C19.5708 45.2012 18.3783 44.3701 17.4181 43.4293L21.042 39.2897C21.5376 39.8542 22.2035 40.3559 23.0398 40.795C23.9071 41.2027 24.7588 41.4065 25.5951 41.4065C26.7721 41.4065 27.8097 41.0772 28.708 40.4187C29.6372 39.7601 30.365 38.6625 30.8916 37.1258C31.4491 35.5578 31.7279 33.4566 31.7279 30.8223C31.7279 28.3448 31.4956 26.4161 31.031 25.0363C30.5973 23.625 30.0089 22.6372 29.2655 22.0727C28.5531 21.4768 27.7788 21.1789 26.9425 21.1789C26.292 21.1789 25.6726 21.3514 25.0841 21.6964C24.5265 22.0413 24.0774 22.5588 23.7367 23.2487C23.396 23.9386 23.2257 24.8638 23.2257 26.0241C23.2257 27.059 23.396 27.9058 23.7367 28.5643C24.0774 29.1915 24.542 29.6463 25.1305 29.9285C25.719 30.2108 26.385 30.3519 27.1283 30.3519C27.9027 30.3519 28.6925 30.1167 29.4978 29.6463C30.3031 29.1445 31.031 28.3134 31.6814 27.1531L32.0066 31.669C31.2633 32.7667 30.2876 33.6448 29.0796 34.3033C27.8717 34.9305 26.7721 35.2442 25.781 35.2442C24.1084 35.2442 22.6062 34.9149 21.2743 34.2563C19.9425 33.5977 18.8894 32.5942 18.115 31.2457C17.3717 29.8658 17 28.1253 17 26.0241C17 23.9543 17.4491 22.1668 18.3473 20.6614C19.2456 19.1561 20.4381 18.0115 21.9248 17.2275C23.4115 16.4121 25.0376 16.0044 26.8031 16.0044C28.2589 16.0044 29.6527 16.2866 30.9845 16.8511C32.3164 17.4156 33.4934 18.2937 34.5155 19.4854C35.5686 20.6771 36.4049 22.2138 37.0243 24.0954C37.6748 25.9457 38 28.188 38 30.8223C38 33.6134 37.6593 36.0282 36.9779 38.0666C36.3274 40.105 35.4447 41.7828 34.3296 43.1C33.2146 44.4171 31.9447 45.405 30.5199 46.0636C29.0951 46.6908 27.6084 47.0044 26.0597 47.0044Z" fill="#EAEAEA"/>
<path d="M173.94 231.004C175.892 231.004 177.58 231.365 179.004 232.086C180.429 232.808 181.622 233.639 182.582 234.58L178.958 238.719C178.462 238.155 177.796 237.653 176.96 237.214C176.093 236.806 175.241 236.602 174.405 236.602C173.228 236.602 172.19 236.932 171.292 237.59C170.363 238.249 169.635 239.346 169.108 240.883C168.551 242.451 168.272 244.552 168.272 247.186C168.272 249.664 168.504 251.593 168.969 252.973C169.403 254.384 169.991 255.372 170.735 255.936C171.447 256.532 172.221 256.83 173.058 256.83C173.708 256.83 174.327 256.657 174.916 256.312C175.473 255.967 175.923 255.45 176.263 254.76C176.604 254.07 176.774 253.145 176.774 251.985C176.774 250.95 176.604 250.103 176.263 249.444C175.923 248.817 175.458 248.363 174.869 248.08C174.281 247.798 173.615 247.657 172.872 247.657C172.097 247.657 171.308 247.892 170.502 248.363C169.697 248.864 168.969 249.695 168.319 250.856L167.993 246.34C168.737 245.242 169.712 244.364 170.92 243.705C172.128 243.078 173.228 242.765 174.219 242.765C175.892 242.765 177.394 243.094 178.726 243.752C180.058 244.411 181.111 245.415 181.885 246.763C182.628 248.143 183 249.884 183 251.985C183 254.054 182.551 255.842 181.653 257.347C180.754 258.853 179.562 259.997 178.075 260.781C176.588 261.597 174.962 262.004 173.197 262.004C171.741 262.004 170.347 261.722 169.015 261.158C167.684 260.593 166.507 259.715 165.485 258.523C164.431 257.332 163.595 255.795 162.976 253.913C162.325 252.063 162 249.821 162 247.186C162 244.395 162.341 241.981 163.022 239.942C163.673 237.904 164.555 236.226 165.67 234.909C166.785 233.592 168.055 232.604 169.48 231.945C170.905 231.318 172.392 231.004 173.94 231.004Z" fill="#EAEAEA"/>
<path d="M85 85.935C85 81.0744 78.2983 78.5972 76.0358 74.0713L76.0071 74.0044L75.9785 74.0713C73.716 78.5972 67 81.0744 67 85.9216C67 89.9922 72.7422 91.5589 75.5489 88.1578C75.6062 87.9837 75.5489 89.2424 75.3628 89.9387C74.6897 92.0275 72.2697 95.0671 71.0955 96.0044C72.7279 94.6922 79.315 94.7056 80.9332 96.0044C79.759 95.0537 77.4535 92.1346 76.6659 89.9387C76.5083 89.3361 76.4081 88.7202 76.3651 88.1042C79.0859 91.7999 85 90.086 85 85.935Z" fill="#EAEAEA"/>
<path d="M133 85.935C133 81.0744 126.298 78.5972 124.036 74.0713L124.007 74.0044L123.978 74.0713C121.716 78.5972 115 81.0744 115 85.9216C115 89.9922 120.742 91.5589 123.549 88.1578C123.606 87.9837 123.549 89.2424 123.363 89.9387C122.69 92.0275 120.27 95.0671 119.095 96.0044C120.728 94.6922 127.315 94.7056 128.933 96.0044C127.759 95.0537 125.453 92.1346 124.666 89.9387C124.508 89.3361 124.408 88.7202 124.365 88.1042C127.086 91.7999 133 90.086 133 85.935Z" fill="#EAEAEA"/>
<path d="M133 123.935C133 119.074 126.298 116.597 124.036 112.071L124.007 112.004L123.978 112.071C121.716 116.597 115 119.074 115 123.922C115 127.992 120.742 129.559 123.549 126.158C123.606 125.984 123.549 127.242 123.363 127.939C122.69 130.028 120.27 133.067 119.095 134.004C120.728 132.692 127.315 132.706 128.933 134.004C127.759 133.054 125.453 130.135 124.666 127.939C124.508 127.336 124.408 126.72 124.365 126.104C127.086 129.8 133 128.086 133 123.935Z" fill="#EAEAEA"/>
<path d="M67 154.074C67 158.934 73.7017 161.412 75.9642 165.937L75.9929 166.004L76.0215 165.937C78.284 161.412 85 158.934 85 154.087C85 150.017 79.2578 148.45 76.4511 151.851C76.3938 152.025 76.4511 150.766 76.6372 150.07C77.3103 147.981 79.7303 144.942 80.9045 144.004C79.2721 145.317 72.685 145.303 71.0668 144.004C72.241 144.955 74.5465 147.874 75.3341 150.07C75.4917 150.673 75.5919 151.289 75.6349 151.905C72.9141 148.209 67 149.923 67 154.074Z" fill="#EAEAEA"/>
<path d="M109 139.935C109 135.074 102.298 132.597 100.036 128.071L100.007 128.004L99.9785 128.071C97.716 132.597 91 135.074 91 139.922C91 143.992 96.7422 145.559 99.5489 142.158C99.6062 141.984 99.5489 143.242 99.3628 143.939C98.6897 146.028 96.2697 149.067 95.0955 150.004C96.7279 148.692 103.315 148.706 104.933 150.004C103.759 149.054 101.453 146.135 100.666 143.939C100.508 143.336 100.408 142.72 100.365 142.104C103.086 145.8 109 144.086 109 139.935Z" fill="#EAEAEA"/>
<path d="M85 123.935C85 119.074 78.2983 116.597 76.0358 112.071L76.0071 112.004L75.9785 112.071C73.716 116.597 67 119.074 67 123.922C67 127.992 72.7422 129.559 75.5489 126.158C75.6062 125.984 75.5489 127.242 75.3628 127.939C74.6897 130.028 72.2697 133.067 71.0955 134.004C72.7279 132.692 79.315 132.706 80.9332 134.004C79.759 133.054 77.4535 130.135 76.6659 127.939C76.5083 127.336 76.4081 126.72 76.3651 126.104C79.0859 129.8 85 128.086 85 123.935Z" fill="#EAEAEA"/>
<path d="M115 154.074C115 158.934 121.702 161.412 123.964 165.937L123.993 166.004L124.022 165.937C126.284 161.412 133 158.934 133 154.087C133 150.017 127.258 148.45 124.451 151.851C124.394 152.025 124.451 150.766 124.637 150.07C125.31 147.981 127.73 144.942 128.905 144.004C127.272 145.317 120.685 145.303 119.067 144.004C120.241 144.955 122.547 147.874 123.334 150.07C123.492 150.673 123.592 151.289 123.635 151.905C120.914 148.209 115 149.923 115 154.074Z" fill="#EAEAEA"/>
<path d="M115 192.074C115 196.934 121.702 199.412 123.964 203.937L123.993 204.004L124.022 203.937C126.284 199.412 133 196.934 133 192.087C133 188.017 127.258 186.45 124.451 189.851C124.394 190.025 124.451 188.766 124.637 188.07C125.31 185.981 127.73 182.942 128.905 182.004C127.272 183.317 120.685 183.303 119.067 182.004C120.241 182.955 122.547 185.874 123.334 188.07C123.492 188.673 123.592 189.289 123.635 189.905C120.914 186.209 115 187.923 115 192.074Z" fill="#EAEAEA"/>
<path d="M67 192.074C67 196.934 73.7017 199.412 75.9642 203.937L75.9929 204.004L76.0215 203.937C78.284 199.412 85 196.934 85 192.087C85 188.017 79.2578 186.45 76.4511 189.851C76.3938 190.025 76.4511 188.766 76.6372 188.07C77.3103 185.981 79.7303 182.942 80.9045 182.004C79.2721 183.317 72.685 183.303 71.0668 182.004C72.241 182.955 74.5465 185.874 75.3341 188.07C75.4917 188.673 75.5919 189.289 75.6349 189.905C72.9141 186.209 67 187.923 67 192.074Z" fill="#EAEAEA"/>
</g>
<defs>
<linearGradient id="paint0_linear_2709_120230" x1="0" y1="278.004" x2="200" y2="0.00440461" gradientUnits="userSpaceOnUse">
<stop stop-color="#101010"/>
<stop offset="0.712851" stop-color="#201F1F"/>
<stop offset="1" stop-color="#101010"/>
</linearGradient>
<clipPath id="clip0_2709_120230">
<rect width="200" height="278" fill="white"/>
</clipPath>
</defs>
</svg>
