<svg width="9" height="14" viewBox="0 0 9 14" fill="none" xmlns="http://www.w3.org/2000/svg">
<path d="M3.50909 14V12.3529C2.8259 12.303 2.17895 12.1832 1.56822 11.9936C0.967846 11.7939 0.445106 11.5194 0 11.1701L0.605551 9.65775C1.09206 10.0071 1.62515 10.2766 2.20483 10.4663C2.7845 10.656 3.4211 10.7508 4.11464 10.7508C4.87028 10.7508 5.42408 10.621 5.77602 10.3615C6.12797 10.102 6.30394 9.77754 6.30394 9.38824C6.30394 9.03886 6.1849 8.75936 5.94682 8.54973C5.70874 8.34011 5.28434 8.17041 4.67361 8.04064L3.02775 7.69626C2.09614 7.49661 1.39225 7.1672 0.91609 6.70802C0.450281 6.23886 0.217377 5.61996 0.217377 4.85134C0.217377 4.01283 0.512389 3.30909 1.10241 2.74011C1.70279 2.16114 2.50501 1.81176 3.50909 1.69198V0H5.06178V1.67701C5.60005 1.72692 6.12279 1.85169 6.63 2.05134C7.13722 2.25098 7.5668 2.5205 7.91874 2.85989L7.32872 4.29733C6.54202 3.59857 5.53794 3.2492 4.31649 3.2492C3.67471 3.2492 3.15715 3.39394 2.7638 3.68342C2.3808 3.96292 2.1893 4.33226 2.1893 4.79144C2.1893 5.13084 2.30834 5.40535 2.54642 5.61497C2.7845 5.8246 3.1675 5.98431 3.69541 6.09412L5.34127 6.4385C6.33499 6.64813 7.06994 6.98253 7.5461 7.44171C8.03261 7.89091 8.27586 8.48984 8.27586 9.2385C8.27586 10.077 7.97567 10.7658 7.3753 11.3048C6.78527 11.8339 6.0141 12.1683 5.06178 12.308V14H3.50909Z" fill="#7E7E7E"/>
</svg>
