<svg width="23" height="26" viewBox="0 0 23 26" fill="none" xmlns="http://www.w3.org/2000/svg">
<g id="Vector">
<path d="M13.3225 14.9761L12.0912 18.4099C12.0389 18.5119 12.0389 18.6181 12.0912 18.7202L14.2439 24.6486L16.7024 23.191L13.7289 14.9761C13.6806 14.7679 13.4231 14.7679 13.3225 14.9761Z" fill="#12AAFF"/>
<path d="M15.781 9.15389C15.7286 8.94567 15.4752 8.94567 15.3705 9.15389L14.1393 12.5876C14.087 12.6897 14.087 12.7959 14.1393 12.8979L17.6238 22.6234L20.0823 21.1658L15.781 9.15389Z" fill="#12AAFF"/>
<path d="M11.375 1.61275C11.4273 1.61275 11.4756 1.61275 11.5279 1.66583L20.9554 7.17776C21.056 7.23084 21.1083 7.33291 21.1083 7.48806V18.5119C21.1083 18.614 21.056 18.7732 20.9554 18.8222L11.5279 24.3342C11.4756 24.3872 11.4273 24.3872 11.375 24.3872C11.3227 24.3872 11.2744 24.3872 11.2221 24.3342L1.79457 18.8222C1.69398 18.7692 1.64167 18.6671 1.64167 18.5119V7.48806C1.64167 7.38599 1.69398 7.22676 1.79457 7.17776L11.2221 1.66583C11.2704 1.61275 11.3227 1.61275 11.375 1.61275ZM11.375 0C11.0169 0 10.7071 0.102073 10.4013 0.261307L0.973735 5.77324C0.358109 6.13662 0 6.76131 0 7.48806V18.5119C0 19.1897 0.358109 19.8634 0.973735 20.2268L10.4013 25.7387C10.7071 25.8938 11.0169 26 11.375 26C11.7331 26 12.0429 25.8979 12.3487 25.7387L21.7763 20.2268C22.3919 19.8634 22.75 19.2387 22.75 18.5119V7.48806C22.75 6.8103 22.3919 6.13662 21.7763 5.77324L12.397 0.261307C12.0912 0.106156 11.7814 0 11.4233 0H11.375Z" fill="#12AAFF"/>
<path d="M5.17448 22.6193L6.0436 20.2268L7.78586 21.6844L6.14821 23.244L5.17448 22.6193Z" fill="#12AAFF"/>
<path d="M10.6065 6.70823H8.19628C8.04338 6.70823 7.83817 6.8103 7.78586 6.96954L2.66369 21.2148L5.12217 22.6724L10.7594 7.01853C10.8117 6.86338 10.7071 6.70823 10.5542 6.70823H10.6065Z" fill="#12AAFF"/>
<path d="M14.7549 6.70823H12.3447C12.1918 6.70823 11.9866 6.8103 11.9343 6.96954L6.09591 23.191L8.55439 24.6486L14.9078 6.96954C14.9601 6.81438 14.8555 6.65923 14.7026 6.65923L14.7549 6.70823Z" fill="#12AAFF"/>
</g>
</svg>
