<svg width="12" height="13" viewBox="0 0 12 13" fill="none" xmlns="http://www.w3.org/2000/svg">
<path d="M1.43362 9.58006C0.844077 8.7 0.5 7.64085 0.5 6.49956C0.5 3.44493 2.96445 0.972656 6 0.972656C7.13616 0.972656 8.19087 1.31869 9.06728 1.91187L7.38236 3.60435L7.03696 3.9513L7.37654 4.30394L8.21084 5.1703L8.56506 5.53814L8.92534 5.17624L10.6082 3.48582C11.1718 4.35281 11.5 5.38694 11.5 6.49956C11.5 9.55419 9.03555 12.0265 6 12.0265C4.89235 12.0265 3.86254 11.6964 2.99913 11.1293L4.70464 9.41617L5.04676 9.07252L4.71375 8.72003L3.88755 7.84553L3.53349 7.47077L3.16976 7.83614L1.43362 9.58006ZM4.24751 1.3646L3.40877 1.85469L4.63369 5.97128L3.82046 6.74672L3.46031 7.09013L3.802 7.4519L7.7485 11.6304L8.59282 11.1499L7.42271 7.04755L8.25929 6.23123L8.61546 5.88369L8.26962 5.52588L4.24751 1.3646Z" stroke="#7E7E7E"/>
</svg>
