<svg width="24" height="28" viewBox="0 0 24 28" fill="none" xmlns="http://www.w3.org/2000/svg">
<path d="M2.82324 11.9014C2.82324 7.60286 5.82881 4.00419 9.88381 3.05382V2.09982C9.88381 0.939374 10.8273 0 12 0C13.1727 0 14.1162 0.939374 14.1162 2.09982V3.05382C18.1712 4.00419 21.1768 7.60403 21.1768 11.9014V19.6007L24 22.398V23.7979H0V22.398L2.82324 19.6007V11.9014ZM12 28C11.8017 28 11.6194 27.9878 11.4334 27.9438C10.5194 27.763 9.7545 27.1327 9.40346 26.2898C9.26182 25.9576 9.17558 25.5924 9.17558 25.199H14.8245C14.8245 26.7394 13.5533 28 12 28Z" fill="#7E7E7E"/>
</svg>
