<svg width="30" height="30" viewBox="0 0 30 30" fill="none" xmlns="http://www.w3.org/2000/svg">
<g clip-path="url(#clip0_9273_74188)">
<path d="M15 30C23.2845 30 30 23.2845 30 15C30 6.7155 23.2845 0 15 0C6.7155 0 0 6.7155 0 15C0 23.2845 6.7155 30 15 30Z" fill="#0AC18E"/>
<path d="M19.6784 9.96299C18.9239 8.25299 17.1914 7.88849 15.0719 8.24249L14.3894 5.59949L12.7844 6.01499L13.4534 8.64899C13.0304 8.75549 12.5969 8.84699 12.1664 8.96999L11.4959 6.34949L9.89089 6.76499L10.5719 9.40649C10.2254 9.50549 7.32739 10.248 7.32739 10.248L7.76989 11.97C7.76989 11.97 8.94889 11.6385 8.93839 11.6655C9.59239 11.493 9.90139 11.8215 10.0454 12.1305L11.9204 19.371C11.9414 19.581 11.9039 19.938 11.4554 20.0595C11.4809 20.0745 10.2854 20.3595 10.2854 20.3595L10.4609 22.3665C10.4609 22.3665 13.3319 21.6315 13.7084 21.537L14.3984 24.21L16.0034 23.7945L15.3149 21.102C15.7559 21 16.1864 20.892 16.6049 20.7825L17.2904 23.4585L18.8984 23.0445L18.2084 20.3745C20.6834 19.7745 22.4309 18.213 22.0724 15.8265C21.8444 14.3865 20.2724 13.206 18.9674 13.074C19.7699 12.3615 20.1764 11.322 19.6784 9.96299ZM18.9059 16.263C19.2254 18.6285 15.9389 18.918 14.8544 19.203L13.9094 15.666C14.9984 15.381 18.3644 14.181 18.9044 16.263H18.9059ZM16.9259 11.448C17.2649 13.548 14.4554 13.7925 13.5479 14.025L12.6899 10.815C13.5989 10.59 16.2359 9.50249 16.9259 11.448Z" fill="#E6EAED"/>
</g>
<defs>
<clipPath id="clip0_9273_74188">
<rect width="30" height="30" fill="white"/>
</clipPath>
</defs>
</svg>
