<svg width="200" height="278" viewBox="0 0 200 278" fill="none" xmlns="http://www.w3.org/2000/svg">
<g clip-path="url(#clip0_2709_119927)">
<rect y="0.00439453" width="200" height="278" rx="10" fill="url(#paint0_linear_2709_119927)"/>
<path d="M16.1951 47.0044V42.6443C18.7967 40.3764 21.1057 38.2522 23.122 36.2718C25.1707 34.2914 26.7642 32.4547 27.9024 30.7617C29.0732 29.0688 29.6585 27.5196 29.6585 26.1141C29.6585 24.6128 29.2683 23.4789 28.4878 22.7123C27.7073 21.9137 26.6341 21.5144 25.2683 21.5144C24.1626 21.5144 23.1545 21.8339 22.2439 22.4727C21.3659 23.0796 20.5366 23.7983 19.7561 24.6288L16 20.9874C17.4959 19.3264 19.0244 18.0806 20.5854 17.2501C22.1789 16.4196 24.065 16.0044 26.2439 16.0044C28.2602 16.0044 30.0325 16.4037 31.561 17.2022C33.122 18.0008 34.3252 19.1188 35.1707 20.5562C36.0488 21.9936 36.4878 23.6865 36.4878 25.635C36.4878 27.4557 35.9837 29.2445 34.9756 31.0013C34 32.7262 32.6992 34.4511 31.0732 36.176C29.4472 37.9008 27.7236 39.6577 25.9024 41.4464C26.6829 41.3506 27.561 41.2708 28.5366 41.2069C29.5122 41.111 30.3577 41.0631 31.0732 41.0631H38V47.0044H16.1951Z" fill="#E04749"/>
<path d="M182.805 231.004L182.805 235.365C180.203 237.632 177.894 239.757 175.878 241.737C173.829 243.717 172.236 245.554 171.098 247.247C169.927 248.94 169.341 250.489 169.341 251.895C169.341 253.396 169.732 254.53 170.512 255.297C171.293 256.095 172.366 256.494 173.732 256.494C174.837 256.494 175.846 256.175 176.756 255.536C177.634 254.929 178.463 254.21 179.244 253.38L183 257.021C181.504 258.682 179.976 259.928 178.415 260.759C176.821 261.589 174.935 262.004 172.756 262.004C170.74 262.004 168.967 261.605 167.439 260.807C165.878 260.008 164.675 258.89 163.829 257.453C162.951 256.015 162.512 254.322 162.512 252.374C162.512 250.553 163.016 248.764 164.024 247.007C165 245.283 166.301 243.558 167.927 241.833C169.553 240.108 171.276 238.351 173.098 236.562C172.317 236.658 171.439 236.738 170.463 236.802C169.488 236.898 168.642 236.946 167.927 236.946L161 236.946L161 231.004L182.805 231.004Z" fill="#E04749"/>
<path fill-rule="evenodd" clip-rule="evenodd" d="M161 207.651C163.088 207.633 172.39 198.092 172.353 196.004C172.372 198.092 181.912 207.395 184 207.358C181.912 207.376 172.61 216.917 172.646 219.004C172.628 216.917 163.088 207.633 161 207.651Z" fill="#E04749"/>
<path fill-rule="evenodd" clip-rule="evenodd" d="M39 70.3579C36.9124 70.3762 27.6099 79.9168 27.6465 82.0044C27.6282 79.9168 18.0876 70.6142 16 70.6509C18.0876 70.6326 27.3902 61.092 27.3535 59.0044C27.3718 61.092 36.9124 70.3762 39 70.3579Z" fill="#E04749"/>
<path fill-rule="evenodd" clip-rule="evenodd" d="M111 84.8642C109.003 84.8818 100.105 94.0076 100.14 96.0044C100.123 94.0076 90.9968 85.1095 89 85.1445C90.9968 85.127 99.8949 76.0012 99.8599 74.0044C99.8774 76.0012 109.003 84.8818 111 84.8642Z" fill="#E04749"/>
<path fill-rule="evenodd" clip-rule="evenodd" d="M89 193.145C90.9968 193.127 99.8949 184.001 99.8598 182.004C99.8774 184.001 109.003 192.899 111 192.864C109.003 192.882 100.105 202.008 100.14 204.004C100.123 202.008 90.9968 193.127 89 193.145Z" fill="#E04749"/>
</g>
<defs>
<linearGradient id="paint0_linear_2709_119927" x1="0" y1="278.004" x2="200" y2="0.00440461" gradientUnits="userSpaceOnUse">
<stop stop-color="#101010"/>
<stop offset="0.712851" stop-color="#201F1F"/>
<stop offset="1" stop-color="#101010"/>
</linearGradient>
<clipPath id="clip0_2709_119927">
<rect width="200" height="278" fill="white"/>
</clipPath>
</defs>
</svg>
