<svg width="200" height="278" viewBox="0 0 200 278" fill="none" xmlns="http://www.w3.org/2000/svg">
<g clip-path="url(#clip0_2709_120005)">
<rect y="0.00439453" width="200" height="278" rx="10" fill="url(#paint0_linear_2709_120005)"/>
<path fill-rule="evenodd" clip-rule="evenodd" d="M160 207.651C162.088 207.633 171.39 198.092 171.353 196.004C171.372 198.092 180.912 207.395 183 207.358C180.912 207.376 171.61 216.917 171.646 219.004C171.628 216.917 162.088 207.633 160 207.651Z" fill="#E04749"/>
<path fill-rule="evenodd" clip-rule="evenodd" d="M39 70.3579C36.9124 70.3762 27.6099 79.9168 27.6465 82.0044C27.6282 79.9168 18.0876 70.6142 16 70.6509C18.0876 70.6326 27.3902 61.092 27.3535 59.0044C27.3718 61.092 36.9124 70.3762 39 70.3579Z" fill="#E04749"/>
<path d="M29.6082 47.0044V29.0879C29.6082 28.1115 29.6412 26.9561 29.7072 25.6217C29.8062 24.2873 29.8722 23.132 29.9052 22.1556H29.7072C29.3113 23.0018 28.899 23.8642 28.4701 24.743C28.0412 25.5892 27.5959 26.4679 27.134 27.3792L22.9773 34.1162H40V39.5839H16V34.6532L27.4804 16.0044H36.3876V47.0044H29.6082Z" fill="#E04749"/>
<path d="M170.392 231.004L170.392 248.921C170.392 249.897 170.359 251.053 170.293 252.387C170.194 253.721 170.128 254.877 170.095 255.853L170.293 255.853C170.689 255.007 171.101 254.145 171.53 253.266C171.959 252.42 172.404 251.541 172.866 250.63L177.023 243.893L160 243.893L160 238.425L184 238.425L184 243.356L172.52 262.004L163.612 262.004L163.612 231.004L170.392 231.004Z" fill="#E04749"/>
<path fill-rule="evenodd" clip-rule="evenodd" d="M87 84.8642C85.0032 84.8818 76.1051 94.0076 76.1402 96.0044C76.1226 94.0076 66.9968 85.1095 65 85.1445C66.9968 85.127 75.8949 76.0012 75.8599 74.0044C75.8774 76.0012 85.0032 84.8818 87 84.8642Z" fill="#E04749"/>
<path fill-rule="evenodd" clip-rule="evenodd" d="M135 84.8642C133.003 84.8818 124.105 94.0076 124.14 96.0044C124.123 94.0076 114.997 85.1095 113 85.1445C114.997 85.127 123.895 76.0012 123.86 74.0044C123.877 76.0012 133.003 84.8818 135 84.8642Z" fill="#E04749"/>
<path fill-rule="evenodd" clip-rule="evenodd" d="M113 193.145C114.997 193.127 123.895 184.001 123.86 182.004C123.877 184.001 133.003 192.899 135 192.864C133.003 192.882 124.105 202.008 124.14 204.004C124.123 202.008 114.997 193.127 113 193.145Z" fill="#E04749"/>
<path fill-rule="evenodd" clip-rule="evenodd" d="M65 193.145C66.9968 193.127 75.8949 184.001 75.8598 182.004C75.8774 184.001 85.0032 192.899 87 192.864C85.0032 192.882 76.1051 202.008 76.1401 204.004C76.1226 202.008 66.9968 193.127 65 193.145Z" fill="#E04749"/>
</g>
<defs>
<linearGradient id="paint0_linear_2709_120005" x1="0" y1="278.004" x2="200" y2="0.00440461" gradientUnits="userSpaceOnUse">
<stop stop-color="#101010"/>
<stop offset="0.712851" stop-color="#201F1F"/>
<stop offset="1" stop-color="#101010"/>
</linearGradient>
<clipPath id="clip0_2709_120005">
<rect width="200" height="278" fill="white"/>
</clipPath>
</defs>
</svg>
