<svg width="200" height="278" viewBox="0 0 200 278" fill="none" xmlns="http://www.w3.org/2000/svg">
<g clip-path="url(#clip0_2709_120344)">
<rect y="0.00439453" width="200" height="278" rx="10" fill="url(#paint0_linear_2709_120344)"/>
<path fill-rule="evenodd" clip-rule="evenodd" d="M161 207.651C163.088 207.633 172.39 198.092 172.353 196.004C172.372 198.092 181.912 207.395 184 207.358C181.912 207.376 172.61 216.917 172.646 219.004C172.628 216.917 163.088 207.633 161 207.651Z" fill="#E04749"/>
<path fill-rule="evenodd" clip-rule="evenodd" d="M39 70.3579C36.9124 70.3762 27.6099 79.9168 27.6465 82.0044C27.6282 79.9168 18.0876 70.6142 16 70.6509C18.0876 70.6326 27.3902 61.092 27.3535 59.0044C27.3718 61.092 36.9124 70.3762 39 70.3579Z" fill="#E04749"/>
<path d="M22.276 47.0044C22.4419 44.4333 22.7074 42.0737 23.0724 39.9257C23.4374 37.7451 23.9517 35.6784 24.6154 33.7257C25.3122 31.7729 26.1916 29.8527 27.2534 27.965C28.3152 26.0774 29.6259 24.1083 31.1855 22.0579H17V16.0044H39V20.3981C37.1418 22.6112 35.6154 24.6779 34.4208 26.5981C33.2594 28.5183 32.3635 30.4711 31.733 32.4564C31.1026 34.4417 30.638 36.606 30.3394 38.9493C30.0407 41.2926 29.8084 43.9776 29.6425 47.0044H22.276Z" fill="#E04749"/>
<path d="M177.724 231.004C177.558 233.576 177.293 235.935 176.928 238.083C176.563 240.264 176.048 242.33 175.385 244.283C174.688 246.236 173.808 248.156 172.747 250.044C171.685 251.931 170.374 253.9 168.814 255.951H183V262.004H161V257.611C162.858 255.398 164.385 253.331 165.579 251.411C166.741 249.49 167.637 247.538 168.267 245.552C168.897 243.567 169.362 241.403 169.661 239.06C169.959 236.716 170.192 234.031 170.357 231.004H177.724Z" fill="#E04749"/>
<path fill-rule="evenodd" clip-rule="evenodd" d="M87 84.8642C85.0032 84.8818 76.1051 94.0076 76.1402 96.0044C76.1226 94.0076 66.9968 85.1095 65 85.1445C66.9968 85.127 75.8949 76.0012 75.8599 74.0044C75.8774 76.0012 85.0032 84.8818 87 84.8642Z" fill="#E04749"/>
<path fill-rule="evenodd" clip-rule="evenodd" d="M135 84.8642C133.003 84.8818 124.105 94.0076 124.14 96.0044C124.123 94.0076 114.997 85.1095 113 85.1445C114.997 85.127 123.895 76.0012 123.86 74.0044C123.877 76.0012 133.003 84.8818 135 84.8642Z" fill="#E04749"/>
<path fill-rule="evenodd" clip-rule="evenodd" d="M135 138.864C133.003 138.882 124.105 148.008 124.14 150.004C124.123 148.008 114.997 139.109 113 139.144C114.997 139.127 123.895 130.001 123.86 128.004C123.877 130.001 133.003 138.882 135 138.864Z" fill="#E04749"/>
<path fill-rule="evenodd" clip-rule="evenodd" d="M111 111.864C109.003 111.882 100.105 121.008 100.14 123.004C100.123 121.008 90.9968 112.109 89 112.144C90.9968 112.127 99.8949 103.001 99.8599 101.004C99.8774 103.001 109.003 111.882 111 111.864Z" fill="#E04749"/>
<path fill-rule="evenodd" clip-rule="evenodd" d="M87 138.864C85.0032 138.882 76.1051 148.008 76.1402 150.004C76.1226 148.008 66.9968 139.109 65 139.144C66.9968 139.127 75.8949 130.001 75.8599 128.004C75.8774 130.001 85.0032 138.882 87 138.864Z" fill="#E04749"/>
<path fill-rule="evenodd" clip-rule="evenodd" d="M113 193.145C114.997 193.127 123.895 184.001 123.86 182.004C123.877 184.001 133.003 192.899 135 192.864C133.003 192.882 124.105 202.008 124.14 204.004C124.123 202.008 114.997 193.127 113 193.145Z" fill="#E04749"/>
<path fill-rule="evenodd" clip-rule="evenodd" d="M65 193.145C66.9968 193.127 75.8949 184.001 75.8598 182.004C75.8774 184.001 85.0032 192.899 87 192.864C85.0032 192.882 76.1051 202.008 76.1401 204.004C76.1226 202.008 66.9968 193.127 65 193.145Z" fill="#E04749"/>
</g>
<defs>
<linearGradient id="paint0_linear_2709_120344" x1="0" y1="278.004" x2="200" y2="0.00440461" gradientUnits="userSpaceOnUse">
<stop stop-color="#101010"/>
<stop offset="0.712851" stop-color="#201F1F"/>
<stop offset="1" stop-color="#101010"/>
</linearGradient>
<clipPath id="clip0_2709_120344">
<rect width="200" height="278" fill="white"/>
</clipPath>
</defs>
</svg>
