<svg width="30" height="30" viewBox="0 0 30 30" fill="none" xmlns="http://www.w3.org/2000/svg">
<circle cx="15" cy="15" r="15" fill="#50AF95"/>
<path fill-rule="evenodd" clip-rule="evenodd" d="M16.6786 16.7164C16.5848 16.7237 16.1004 16.7537 15.0199 16.7537C14.1605 16.7537 13.5503 16.727 13.3363 16.7164C10.015 16.565 7.53597 15.9659 7.53597 15.2486C7.53597 14.5312 10.015 13.9329 13.3363 13.7791V16.1197C13.5534 16.1359 14.1754 16.174 15.0348 16.174C16.0661 16.174 16.5825 16.1295 16.6755 16.1205V13.7807C19.9897 13.9337 22.4632 14.5328 22.4632 15.2486C22.4632 15.9643 19.9905 16.5634 16.6755 16.7156L16.6786 16.7164ZM16.6786 13.5386V11.444H21.3038V8.25H8.71103V11.444H13.3355V13.5378C9.5767 13.7167 6.75 14.4883 6.75 15.4129C6.75 16.3375 9.5767 17.1083 13.3355 17.2881V24H16.6778V17.2856C20.428 17.1067 23.25 16.3359 23.25 15.4121C23.25 14.4883 20.4303 13.7175 16.6778 13.5378L16.6786 13.5386Z" fill="white"/>
<circle cx="15" cy="15" r="15" fill="#12AAFF"/>
<path d="M16.3576 16.4251L15.4696 18.9013C15.4319 18.975 15.4319 19.0515 15.4696 19.1251L17.022 23.4004L18.795 22.3492L16.6506 16.4251C16.6158 16.2749 16.4301 16.2749 16.3576 16.4251Z" fill="white"/>
<path d="M18.1305 12.2264C18.0928 12.0762 17.91 12.0762 17.8345 12.2264L16.9466 14.7026C16.9089 14.7762 16.9089 14.8528 16.9466 14.9264L19.4595 21.94L21.2324 20.8888L18.1305 12.2264Z" fill="white"/>
<path d="M14.9531 6.78804C14.9908 6.78804 15.0257 6.78804 15.0634 6.82632L21.8621 10.8013C21.9346 10.8395 21.9724 10.9132 21.9724 11.025V18.975C21.9724 19.0486 21.9346 19.1634 21.8621 19.1987L15.0634 23.1737C15.0257 23.212 14.9908 23.212 14.9531 23.212C14.9154 23.212 14.8806 23.212 14.8429 23.1737L8.04416 19.1987C7.97162 19.1604 7.9339 19.0868 7.9339 18.975V11.025C7.9339 10.9514 7.97162 10.8366 8.04416 10.8013L14.8429 6.82632C14.8777 6.78804 14.9154 6.78804 14.9531 6.78804ZM14.9531 5.625C14.6949 5.625 14.4714 5.69861 14.2509 5.81344L7.45221 9.78839C7.00825 10.0504 6.75 10.5009 6.75 11.025V18.975C6.75 19.4637 7.00825 19.9496 7.45221 20.2116L14.2509 24.1866C14.4714 24.2984 14.6949 24.375 14.9531 24.375C15.2114 24.375 15.4348 24.3014 15.6553 24.1866L22.454 20.2116C22.898 19.9496 23.1562 19.4991 23.1562 18.975V11.025C23.1562 10.5363 22.898 10.0504 22.454 9.78839L15.6902 5.81344C15.4696 5.70155 15.2462 5.625 14.9879 5.625H14.9531Z" fill="white"/>
<path d="M10.4816 21.937L11.1084 20.2116L12.3648 21.2628L11.1838 22.3875L10.4816 21.937Z" fill="white"/>
<path d="M14.3989 10.4627H12.6608C12.5505 10.4627 12.4025 10.5363 12.3648 10.6511L8.67093 20.9242L10.4439 21.9753L14.5092 10.6864C14.5469 10.5746 14.4714 10.4627 14.3612 10.4627H14.3989Z" fill="white"/>
<path d="M17.3906 10.4627H15.6524C15.5422 10.4627 15.3942 10.5363 15.3565 10.6511L11.1461 22.3492L12.919 23.4004L17.5008 10.6511C17.5385 10.5392 17.4631 10.4273 17.3528 10.4273L17.3906 10.4627Z" fill="white"/>
<circle cx="15" cy="15" r="15" fill="#F0B90B"/>
<path d="M10.0007 8.51651L14.9978 5.625L19.995 8.51651L18.12 9.53303L14.9978 7.73491L11.7945 9.53303L10.0007 8.51651ZM19.9181 12.1085L18.12 11.092L14.9978 12.8901L11.7945 11.092L9.99642 12.1085V14.2184L13.1228 16.0165V19.6896L14.921 20.783L16.7191 19.6896V16.0977L19.8455 14.2995V12.1128H19.9181V12.1085ZM19.9181 17.8915V15.7816L18.12 16.875V18.9038L19.9181 17.8915ZM21.2464 18.592L18.1243 20.3901V22.5L23.1257 19.6085V13.8297L21.2507 15L21.2464 18.592ZM19.4483 10.3146L21.2464 11.408V13.5179L23.0445 12.4245V10.3146L21.2464 9.22124L19.4483 10.3146ZM13.1228 21.1717V23.2816L14.921 24.375L16.7191 23.2816V21.1717L14.921 22.2651L13.1228 21.1717ZM9.99642 17.8915L11.7945 18.908V16.7981L9.99642 15.7047V17.8915ZM13.1228 10.3146L14.921 11.408L16.796 10.3146L14.9978 9.22124L13.1228 10.3146ZM8.67239 11.408L10.5474 10.3146L8.67239 9.22124L6.87427 10.3146V12.4245L8.67239 13.5179V11.408ZM8.67239 15L6.87427 13.9066V19.6854L11.8757 22.5769V20.467L8.74927 18.6688V14.9957L8.67239 15Z" fill="white"/>
</svg>
