<svg width="30" height="30" viewBox="0 0 30 30" fill="none" xmlns="http://www.w3.org/2000/svg">
<rect width="30" height="30" rx="15" fill="#8247E5"/>
<path d="M19.0833 12.3045C18.7917 12.1373 18.4167 12.1373 18.0833 12.3045L15.75 13.6836L14.1667 14.5612L11.875 15.9403C11.5833 16.1075 11.2083 16.1075 10.875 15.9403L9.08333 14.8537C8.79167 14.6866 8.58333 14.3522 8.58333 13.9761V11.8866C8.58333 11.5522 8.75 11.2179 9.08333 11.009L10.875 9.96418C11.1667 9.79701 11.5417 9.79701 11.875 9.96418L13.6667 11.0507C13.9583 11.2179 14.1667 11.5522 14.1667 11.9284V13.3075L15.75 12.3881V10.9672C15.75 10.6328 15.5833 10.2985 15.25 10.0896L11.9167 8.12537C11.625 7.95821 11.25 7.95821 10.9167 8.12537L7.5 10.1313C7.16667 10.2985 7 10.6328 7 10.9672V14.8955C7 15.2299 7.16667 15.5642 7.5 15.7731L10.875 17.7373C11.1667 17.9045 11.5417 17.9045 11.875 17.7373L14.1667 16.4L15.75 15.4806L18.0417 14.1433C18.3333 13.9761 18.7083 13.9761 19.0417 14.1433L20.8333 15.1881C21.125 15.3552 21.3333 15.6896 21.3333 16.0657V18.1552C21.3333 18.4896 21.1667 18.8239 20.8333 19.0328L19.0833 20.0776C18.7917 20.2448 18.4167 20.2448 18.0833 20.0776L16.2917 19.0328C16 18.8657 15.7917 18.5313 15.7917 18.1552V16.8179L14.2083 17.7373V19.1164C14.2083 19.4507 14.375 19.7851 14.7083 19.994L18.0833 21.9582C18.375 22.1254 18.75 22.1254 19.0833 21.9582L22.4583 19.994C22.75 19.8269 22.9583 19.4925 22.9583 19.1164V15.1463C22.9583 14.8119 22.7917 14.4776 22.4583 14.2687L19.0833 12.3045Z" fill="white"/>
</svg>
