<svg width="30" height="30" viewBox="0 0 30 30" fill="none" xmlns="http://www.w3.org/2000/svg">
<circle cx="15" cy="15" r="15" fill="#50AF95"/>
<path fill-rule="evenodd" clip-rule="evenodd" d="M16.6786 16.7164C16.5848 16.7237 16.1004 16.7537 15.0199 16.7537C14.1605 16.7537 13.5503 16.727 13.3363 16.7164C10.015 16.565 7.53597 15.9659 7.53597 15.2486C7.53597 14.5312 10.015 13.9329 13.3363 13.7791V16.1197C13.5534 16.1359 14.1754 16.174 15.0348 16.174C16.0661 16.174 16.5825 16.1295 16.6755 16.1205V13.7807C19.9897 13.9337 22.4632 14.5328 22.4632 15.2486C22.4632 15.9643 19.9905 16.5634 16.6755 16.7156L16.6786 16.7164ZM16.6786 13.5386V11.444H21.3038V8.25H8.71103V11.444H13.3355V13.5378C9.5767 13.7167 6.75 14.4883 6.75 15.4129C6.75 16.3375 9.5767 17.1083 13.3355 17.2881V24H16.6778V17.2856C20.428 17.1067 23.25 16.3359 23.25 15.4121C23.25 14.4883 20.4303 13.7175 16.6778 13.5378L16.6786 13.5386Z" fill="white"/>
</svg>
