<svg width="200" height="278" viewBox="0 0 200 278" fill="none" xmlns="http://www.w3.org/2000/svg">
<g clip-path="url(#clip0_2709_119977)">
<rect y="0.00439453" width="200" height="278" rx="10" fill="url(#paint0_linear_2709_119977)"/>
<path fill-rule="evenodd" clip-rule="evenodd" d="M165.409 211.206C167.185 211.226 168.74 210.222 169.478 208.745C170.057 208.075 170.935 207.799 171.832 207.622C171.613 208.686 171.353 209.867 170.496 210.556C168.98 211.245 167.923 212.762 167.883 214.514C167.843 216.956 169.838 218.964 172.311 219.004C174.784 219.043 176.819 217.074 176.859 214.632C176.879 212.88 175.861 211.344 174.365 210.615C173.647 210.084 173.328 208.784 173.129 207.662C174.006 207.859 174.884 208.174 175.442 208.843C176.141 210.34 177.676 211.403 179.452 211.423C181.925 211.462 183.96 209.493 183.999 207.051C184.039 204.609 182.045 202.601 179.571 202.562C177.796 202.542 176.061 203.704 175.323 205.2C174.684 205.87 173.887 206.027 172.969 206.185C172.889 204.925 172.969 203.566 173.169 202.778C174.106 200.218 176.44 197.166 177.696 196.142C176.021 197.54 169.259 197.442 167.623 196.004C168.84 197.068 171.254 200.336 171.952 202.758C172.171 203.723 172.111 205.535 172.091 206.165C171.154 205.988 170.336 205.811 169.718 205.102C169.02 203.605 167.324 202.384 165.549 202.365C163.076 202.325 161.041 204.294 161.001 206.736C160.941 209.158 162.936 211.167 165.409 211.206Z" fill="#EAEAEA"/>
<path fill-rule="evenodd" clip-rule="evenodd" d="M34.5906 66.8027C32.8153 66.783 31.2595 67.7873 30.5215 69.2641C29.9431 69.9336 29.0654 70.2093 28.1678 70.3865C28.3872 69.3232 28.6465 68.1418 29.5042 67.4526C31.0202 66.7634 32.0773 65.2471 32.1172 63.4946C32.1571 61.0529 30.1625 59.0444 27.6891 59.005C25.2158 58.9656 23.1813 60.9347 23.1414 63.3764C23.1214 65.129 24.1387 66.6649 25.6346 67.3935C26.3527 67.9252 26.6719 69.2248 26.8713 70.3472C25.9937 70.1503 25.116 69.8352 24.5575 69.1657C23.8594 67.6692 22.3236 66.6058 20.5483 66.5861C18.075 66.5468 16.0405 68.5159 16.0006 70.9576C15.9607 73.3993 17.9553 75.4078 20.4287 75.4472C22.2039 75.4669 23.9392 74.3051 24.6772 72.8086C25.3155 72.1391 26.1134 71.9816 27.0309 71.824C27.1107 73.0843 27.0309 74.4429 26.8314 75.2306C25.894 77.7905 23.5602 80.8427 22.3036 81.8666C23.9791 80.4685 30.7409 80.5669 32.3765 82.0044C31.1598 80.9411 28.7463 77.6723 28.0481 75.2503C27.8287 74.2854 27.8886 72.4739 27.9085 71.8437C28.846 72.021 29.6638 72.1981 30.2821 72.907C30.9803 74.4036 32.6757 75.6245 34.4509 75.6441C36.9243 75.6835 38.9588 73.7144 38.9987 71.2727C39.0585 68.8506 37.0639 66.8421 34.5906 66.8027Z" fill="#EAEAEA"/>
<path d="M26.6389 47.0044C25.0022 47.0044 23.5098 46.8162 22.1619 46.4399C20.8461 46.0949 19.6747 45.6088 18.6477 44.9816C17.6207 44.3544 16.7381 43.6174 16 42.7707L19.2735 38.3959C20.2042 39.274 21.2312 39.9953 22.3545 40.5598C23.4778 41.1243 24.6813 41.4065 25.965 41.4065C27.4413 41.4065 28.6287 41.1086 29.5274 40.5127C30.4581 39.8855 30.9234 39.0074 30.9234 37.8784C30.9234 37.0003 30.6988 36.2477 30.2495 35.6205C29.8001 34.9619 28.9818 34.4601 27.7943 34.1152C26.6389 33.7702 24.938 33.5977 22.6915 33.5977V28.7055C24.5208 28.7055 25.965 28.533 27.0241 28.188C28.0831 27.843 28.8213 27.3726 29.2385 26.7768C29.6878 26.1809 29.9125 25.491 29.9125 24.707C29.9125 23.6407 29.5755 22.8253 28.9015 22.2608C28.2597 21.6964 27.345 21.4141 26.1575 21.4141C25.0664 21.4141 24.0715 21.6493 23.1729 22.1197C22.3063 22.5588 21.3917 23.2017 20.4289 24.0484L16.8665 19.8147C18.2786 18.623 19.771 17.6979 21.3435 17.0393C22.9161 16.3494 24.6331 16.0044 26.4945 16.0044C28.5806 16.0044 30.4099 16.3337 31.9825 16.9923C33.5872 17.6195 34.8228 18.5446 35.6893 19.7677C36.5879 20.9594 37.0372 22.4333 37.0372 24.1895C37.0372 25.7262 36.5879 27.0433 35.6893 28.141C34.8228 29.2386 33.5711 30.1324 31.9344 30.8223V31.0105C33.0897 31.3554 34.1327 31.8572 35.0635 32.5158C35.9942 33.143 36.7163 33.9427 37.2298 34.9149C37.7433 35.887 38 37.016 38 38.3018C38 40.1521 37.4705 41.7358 36.4114 43.053C35.3844 44.3387 34.0044 45.3266 32.2713 46.0165C30.5704 46.6751 28.6929 47.0044 26.6389 47.0044Z" fill="#EAEAEA"/>
<path d="M172.361 231.004C173.998 231.004 175.49 231.193 176.838 231.569C178.154 231.914 179.325 232.4 180.352 233.027C181.379 233.654 182.262 234.391 183 235.238L179.726 239.613C178.796 238.735 177.769 238.014 176.646 237.449C175.522 236.885 174.319 236.602 173.035 236.602C171.559 236.602 170.371 236.9 169.473 237.496C168.542 238.123 168.077 239.001 168.077 240.13C168.077 241.008 168.301 241.761 168.751 242.388C169.2 243.047 170.018 243.549 171.206 243.894C172.361 244.239 174.062 244.411 176.309 244.411L176.309 249.303C174.479 249.303 173.035 249.476 171.976 249.821C170.917 250.166 170.179 250.636 169.761 251.232C169.312 251.828 169.088 252.518 169.088 253.302C169.088 254.368 169.425 255.183 170.098 255.748C170.74 256.312 171.655 256.595 172.842 256.595C173.934 256.595 174.929 256.359 175.827 255.889C176.694 255.45 177.608 254.807 178.571 253.96L182.133 258.194C180.721 259.386 179.229 260.311 177.656 260.969C176.084 261.659 174.367 262.004 172.505 262.004C170.419 262.004 168.59 261.675 167.018 261.017C165.413 260.389 164.177 259.464 163.311 258.241C162.412 257.049 161.963 255.575 161.963 253.819C161.963 252.283 162.412 250.965 163.311 249.868C164.177 248.77 165.429 247.876 167.066 247.186L167.066 246.998C165.91 246.653 164.867 246.152 163.937 245.493C163.006 244.866 162.284 244.066 161.77 243.094C161.257 242.122 161 240.993 161 239.707C161 237.857 161.53 236.273 162.589 234.956C163.616 233.67 164.996 232.682 166.729 231.992C168.43 231.334 170.307 231.004 172.361 231.004Z" fill="#EAEAEA"/>
<path fill-rule="evenodd" clip-rule="evenodd" d="M106.782 81.4637C105.084 81.4448 103.596 82.4054 102.89 83.818C102.337 84.4584 101.497 84.7221 100.639 84.8917C100.849 83.8746 101.097 82.7445 101.917 82.0852C103.367 81.426 104.378 79.9757 104.416 78.2994C104.455 75.9638 102.547 74.0426 100.181 74.0049C97.8151 73.9673 95.869 75.8508 95.8309 78.1864C95.8118 79.8627 96.7848 81.3318 98.2157 82.0287C98.9026 82.5373 99.2079 83.7804 99.3987 84.854C98.5592 84.6657 97.7197 84.3643 97.1855 83.7239C96.5177 82.2924 95.0486 81.2753 93.3506 81.2565C90.9848 81.2188 89.0387 83.1023 89.0006 85.4379C88.9624 87.7735 90.8703 89.6946 93.2361 89.7323C94.9341 89.7511 96.594 88.6399 97.3 87.2084C97.9105 86.568 98.6737 86.4173 99.5513 86.2667C99.6276 87.4721 99.5513 88.7717 99.3605 89.5251C98.4638 91.9737 96.2315 94.8932 95.0295 95.8726C96.6322 94.5353 103.1 94.6294 104.664 96.0044C103.501 94.9873 101.192 91.8607 100.524 89.544C100.314 88.621 100.372 86.8882 100.391 86.2855C101.287 86.455 102.07 86.6245 102.661 87.3026C103.329 88.734 104.951 89.9018 106.649 89.9207C109.015 89.9583 110.961 88.0748 110.999 85.7393C111.056 83.4225 109.148 81.5013 106.782 81.4637Z" fill="#EAEAEA"/>
<path fill-rule="evenodd" clip-rule="evenodd" d="M106.782 135.464C105.084 135.445 103.596 136.405 102.89 137.818C102.337 138.458 101.497 138.722 100.639 138.892C100.849 137.875 101.097 136.744 101.917 136.085C103.367 135.426 104.378 133.976 104.416 132.299C104.455 129.964 102.547 128.043 100.181 128.005C97.8151 127.967 95.869 129.851 95.8309 132.186C95.8118 133.863 96.7848 135.332 98.2157 136.029C98.9026 136.537 99.2079 137.78 99.3987 138.854C98.5592 138.666 97.7197 138.364 97.1855 137.724C96.5177 136.292 95.0486 135.275 93.3506 135.256C90.9848 135.219 89.0387 137.102 89.0006 139.438C88.9624 141.773 90.8703 143.695 93.2361 143.732C94.9341 143.751 96.594 142.64 97.3 141.208C97.9105 140.568 98.6737 140.417 99.5513 140.267C99.6276 141.472 99.5513 142.772 99.3605 143.525C98.4638 145.974 96.2315 148.893 95.0295 149.873C96.6322 148.535 103.1 148.629 104.664 150.004C103.501 148.987 101.192 145.861 100.524 143.544C100.314 142.621 100.372 140.888 100.391 140.286C101.287 140.455 102.07 140.624 102.661 141.303C103.329 142.734 104.951 143.902 106.649 143.921C109.015 143.958 110.961 142.075 110.999 139.739C111.056 137.423 109.148 135.501 106.782 135.464Z" fill="#EAEAEA"/>
<path fill-rule="evenodd" clip-rule="evenodd" d="M93.2177 196.545C94.9158 196.564 96.4039 195.603 97.1099 194.191C97.6632 193.55 98.5026 193.287 99.3612 193.117C99.1513 194.134 98.9033 195.264 98.0829 195.924C96.6329 196.583 95.6217 198.033 95.5835 199.709C95.5454 202.045 97.4533 203.966 99.8191 204.004C102.185 204.042 104.131 202.158 104.169 199.822C104.188 198.146 103.215 196.677 101.784 195.98C101.097 195.471 100.792 194.228 100.601 193.155C101.441 193.343 102.28 193.644 102.815 194.285C103.482 195.716 104.951 196.733 106.649 196.752C109.015 196.79 110.961 194.906 110.999 192.571C111.038 190.235 109.13 188.314 106.764 188.276C105.066 188.258 103.406 189.369 102.7 190.8C102.09 191.441 101.326 191.591 100.449 191.742C100.372 190.537 100.449 189.237 100.639 188.484C101.536 186.035 103.768 183.116 104.97 182.136C103.368 183.473 96.9 183.379 95.3355 182.004C96.4993 183.021 98.8079 186.148 99.4757 188.465C99.6856 189.388 99.6283 191.121 99.6092 191.723C98.7125 191.554 97.9303 191.384 97.3388 190.706C96.6711 189.275 95.0493 188.107 93.3513 188.088C90.9855 188.05 89.0394 189.934 89.0013 192.27C88.944 194.586 90.8519 196.507 93.2177 196.545Z" fill="#EAEAEA"/>
</g>
<defs>
<linearGradient id="paint0_linear_2709_119977" x1="0" y1="278.004" x2="200" y2="0.00440461" gradientUnits="userSpaceOnUse">
<stop stop-color="#101010"/>
<stop offset="0.712851" stop-color="#201F1F"/>
<stop offset="1" stop-color="#101010"/>
</linearGradient>
<clipPath id="clip0_2709_119977">
<rect width="200" height="278" fill="white"/>
</clipPath>
</defs>
</svg>
