<svg width="200" height="278" viewBox="0 0 200 278" fill="none" xmlns="http://www.w3.org/2000/svg">
<g clip-path="url(#clip0_2709_120075)">
<rect y="0.00439453" width="200" height="278" rx="10" fill="url(#paint0_linear_2709_120075)"/>
<path fill-rule="evenodd" clip-rule="evenodd" d="M165.409 211.206C167.185 211.226 168.74 210.222 169.478 208.745C170.057 208.075 170.935 207.799 171.832 207.622C171.613 208.686 171.353 209.867 170.496 210.556C168.98 211.245 167.923 212.762 167.883 214.514C167.843 216.956 169.838 218.964 172.311 219.004C174.784 219.043 176.819 217.074 176.859 214.632C176.879 212.88 175.861 211.344 174.365 210.615C173.647 210.084 173.328 208.784 173.129 207.662C174.006 207.859 174.884 208.174 175.442 208.843C176.141 210.34 177.676 211.403 179.452 211.423C181.925 211.462 183.96 209.493 183.999 207.051C184.039 204.609 182.045 202.601 179.571 202.562C177.796 202.542 176.061 203.704 175.323 205.2C174.684 205.87 173.887 206.027 172.969 206.185C172.889 204.925 172.969 203.566 173.169 202.778C174.106 200.218 176.44 197.166 177.696 196.142C176.021 197.54 169.259 197.442 167.623 196.004C168.84 197.068 171.254 200.336 171.952 202.758C172.171 203.723 172.111 205.535 172.091 206.165C171.154 205.988 170.336 205.811 169.718 205.102C169.02 203.605 167.324 202.384 165.549 202.365C163.076 202.325 161.041 204.294 161.001 206.736C160.941 209.158 162.936 211.167 165.409 211.206Z" fill="#EAEAEA"/>
<path fill-rule="evenodd" clip-rule="evenodd" d="M34.5906 66.8027C32.8153 66.783 31.2595 67.7873 30.5215 69.2641C29.9431 69.9336 29.0654 70.2093 28.1678 70.3865C28.3872 69.3232 28.6465 68.1418 29.5042 67.4526C31.0202 66.7634 32.0773 65.2471 32.1172 63.4946C32.1571 61.0529 30.1625 59.0444 27.6891 59.005C25.2158 58.9656 23.1813 60.9347 23.1414 63.3764C23.1214 65.129 24.1387 66.6649 25.6346 67.3935C26.3527 67.9252 26.6719 69.2248 26.8713 70.3472C25.9937 70.1503 25.116 69.8352 24.5575 69.1657C23.8594 67.6692 22.3236 66.6058 20.5483 66.5861C18.075 66.5468 16.0405 68.5159 16.0006 70.9576C15.9607 73.3993 17.9553 75.4078 20.4287 75.4472C22.2039 75.4669 23.9392 74.3051 24.6772 72.8086C25.3155 72.1391 26.1134 71.9816 27.0309 71.824C27.1107 73.0843 27.0309 74.4429 26.8314 75.2306C25.894 77.7905 23.5602 80.8427 22.3036 81.8666C23.9791 80.4685 30.7409 80.5669 32.3765 82.0044C31.1598 80.9411 28.7463 77.6723 28.0481 75.2503C27.8287 74.2854 27.8886 72.4739 27.9085 71.8437C28.846 72.021 29.6638 72.1981 30.2821 72.907C30.9803 74.4036 32.6757 75.6245 34.4509 75.6441C36.9243 75.6835 38.9588 73.7144 38.9987 71.2727C39.0585 68.8506 37.0639 66.8421 34.5906 66.8027Z" fill="#EAEAEA"/>
<path d="M26.7834 47.0044C25.1145 47.0044 23.6061 46.8127 22.2582 46.4294C20.9424 46.0461 19.771 45.535 18.744 44.8962C17.717 44.2574 16.8023 43.5387 16 42.7401L19.1772 38.2841C20.108 39.1146 21.1189 39.8333 22.2101 40.4403C23.3012 41.0152 24.4887 41.3027 25.7724 41.3027C26.7994 41.3027 27.698 41.127 28.4683 40.7756C29.2385 40.3923 29.8322 39.8493 30.2495 39.1466C30.6988 38.4439 30.9234 37.5814 30.9234 36.5593C30.9234 35.026 30.4741 33.8601 29.5755 33.0616C28.6769 32.263 27.5215 31.8637 26.1094 31.8637C25.2429 31.8637 24.5047 31.9755 23.895 32.1991C23.2852 32.4227 22.515 32.822 21.5842 33.397L18.407 31.3846L19.2735 16.0044H36.6039V21.9457H25.3873L24.8578 27.6474C25.4675 27.3918 26.0292 27.2161 26.5427 27.1203C27.0562 26.9925 27.6338 26.9287 28.2757 26.9287C30.0408 26.9287 31.6616 27.2641 33.1379 27.9348C34.6142 28.6056 35.7856 29.6438 36.6521 31.0492C37.5507 32.4547 38 34.2275 38 36.3676C38 38.6355 37.4705 40.568 36.4114 42.1651C35.3844 43.7303 34.0204 44.9281 32.3195 45.7586C30.6185 46.5891 28.7732 47.0044 26.7834 47.0044Z" fill="#EAEAEA"/>
<path d="M173.217 231.004C174.885 231.004 176.394 231.196 177.742 231.579C179.058 231.963 180.229 232.474 181.256 233.113C182.283 233.751 183.198 234.47 184 235.269L180.823 239.725C179.892 238.894 178.881 238.175 177.79 237.569C176.699 236.994 175.511 236.706 174.228 236.706C173.201 236.706 172.302 236.882 171.532 237.233C170.761 237.616 170.168 238.159 169.751 238.862C169.301 239.565 169.077 240.427 169.077 241.45C169.077 242.983 169.526 244.149 170.425 244.947C171.323 245.746 172.478 246.145 173.891 246.145C174.757 246.145 175.495 246.033 176.105 245.81C176.715 245.586 177.485 245.187 178.416 244.612L181.593 246.624L180.726 262.004H163.396V256.063H174.613L175.142 250.361C174.532 250.617 173.971 250.793 173.457 250.888C172.944 251.016 172.366 251.08 171.724 251.08C169.959 251.08 168.338 250.745 166.862 250.074C165.386 249.403 164.214 248.365 163.348 246.96C162.449 245.554 162 243.781 162 241.641C162 239.373 162.53 237.441 163.589 235.844C164.616 234.278 165.98 233.081 167.681 232.25C169.381 231.42 171.227 231.004 173.217 231.004Z" fill="#EAEAEA"/>
<path fill-rule="evenodd" clip-rule="evenodd" d="M82.7823 81.4637C81.0842 81.4448 79.5961 82.4054 78.8901 83.818C78.3368 84.4584 77.4974 84.7221 76.6388 84.8917C76.8487 83.8746 77.0967 82.7445 77.9171 82.0852C79.3671 81.426 80.3783 79.9757 80.4165 78.2994C80.4546 75.9638 78.5467 74.0426 76.1809 74.0049C73.8151 73.9673 71.869 75.8508 71.8309 78.1864C71.8118 79.8627 72.7848 81.3318 74.2157 82.0287C74.9026 82.5373 75.2079 83.7804 75.3987 84.854C74.5592 84.6657 73.7197 84.3643 73.1855 83.7239C72.5177 82.2924 71.0486 81.2753 69.3506 81.2565C66.9848 81.2188 65.0387 83.1023 65.0006 85.4379C64.9624 87.7735 66.8703 89.6946 69.2361 89.7323C70.9341 89.7511 72.594 88.6399 73.3 87.2084C73.9105 86.568 74.6737 86.4173 75.5513 86.2667C75.6276 87.4721 75.5513 88.7717 75.3605 89.5251C74.4638 91.9737 72.2315 94.8932 71.0295 95.8726C72.6322 94.5353 79.1 94.6294 80.6645 96.0044C79.5007 94.9873 77.1921 91.8607 76.5243 89.544C76.3144 88.621 76.3717 86.8882 76.3908 86.2855C77.2875 86.455 78.0697 86.6245 78.6612 87.3026C79.3289 88.734 80.9507 89.9018 82.6487 89.9207C85.0145 89.9583 86.9606 88.0748 86.9987 85.7393C87.056 83.4225 85.1481 81.5013 82.7823 81.4637Z" fill="#EAEAEA"/>
<path fill-rule="evenodd" clip-rule="evenodd" d="M130.782 81.4637C129.084 81.4448 127.596 82.4054 126.89 83.818C126.337 84.4584 125.497 84.7221 124.639 84.8917C124.849 83.8746 125.097 82.7445 125.917 82.0852C127.367 81.426 128.378 79.9757 128.416 78.2994C128.455 75.9638 126.547 74.0426 124.181 74.0049C121.815 73.9673 119.869 75.8508 119.831 78.1864C119.812 79.8627 120.785 81.3318 122.216 82.0287C122.903 82.5373 123.208 83.7804 123.399 84.854C122.559 84.6657 121.72 84.3643 121.185 83.7239C120.518 82.2924 119.049 81.2753 117.351 81.2565C114.985 81.2188 113.039 83.1023 113.001 85.4379C112.962 87.7735 114.87 89.6946 117.236 89.7323C118.934 89.7511 120.594 88.6399 121.3 87.2084C121.91 86.568 122.674 86.4173 123.551 86.2667C123.628 87.4721 123.551 88.7717 123.361 89.5251C122.464 91.9737 120.232 94.8932 119.03 95.8726C120.632 94.5353 127.1 94.6294 128.664 96.0044C127.501 94.9873 125.192 91.8607 124.524 89.544C124.314 88.621 124.372 86.8882 124.391 86.2855C125.287 86.455 126.07 86.6245 126.661 87.3026C127.329 88.734 128.951 89.9018 130.649 89.9207C133.015 89.9583 134.961 88.0748 134.999 85.7393C135.056 83.4225 133.148 81.5013 130.782 81.4637Z" fill="#EAEAEA"/>
<path fill-rule="evenodd" clip-rule="evenodd" d="M106.782 135.464C105.084 135.445 103.596 136.405 102.89 137.818C102.337 138.458 101.497 138.722 100.639 138.892C100.849 137.875 101.097 136.744 101.917 136.085C103.367 135.426 104.378 133.976 104.416 132.299C104.455 129.964 102.547 128.043 100.181 128.005C97.8151 127.967 95.869 129.851 95.8309 132.186C95.8118 133.863 96.7848 135.332 98.2157 136.029C98.9026 136.537 99.2079 137.78 99.3987 138.854C98.5592 138.666 97.7197 138.364 97.1855 137.724C96.5177 136.292 95.0486 135.275 93.3506 135.256C90.9848 135.219 89.0387 137.102 89.0006 139.438C88.9624 141.773 90.8703 143.695 93.2361 143.732C94.9341 143.751 96.594 142.64 97.3 141.208C97.9105 140.568 98.6737 140.417 99.5513 140.267C99.6276 141.472 99.5513 142.772 99.3605 143.525C98.4638 145.974 96.2315 148.893 95.0295 149.873C96.6322 148.535 103.1 148.629 104.664 150.004C103.501 148.987 101.192 145.861 100.524 143.544C100.314 142.621 100.372 140.888 100.391 140.286C101.287 140.455 102.07 140.624 102.661 141.303C103.329 142.734 104.951 143.902 106.649 143.921C109.015 143.958 110.961 142.075 110.999 139.739C111.056 137.423 109.148 135.501 106.782 135.464Z" fill="#EAEAEA"/>
<path fill-rule="evenodd" clip-rule="evenodd" d="M117.218 196.545C118.916 196.564 120.404 195.603 121.11 194.191C121.663 193.55 122.503 193.287 123.361 193.117C123.151 194.134 122.903 195.264 122.083 195.924C120.633 196.583 119.622 198.033 119.584 199.709C119.545 202.045 121.453 203.966 123.819 204.004C126.185 204.042 128.131 202.158 128.169 199.822C128.188 198.146 127.215 196.677 125.784 195.98C125.097 195.471 124.792 194.228 124.601 193.155C125.441 193.343 126.28 193.644 126.815 194.285C127.482 195.716 128.951 196.733 130.649 196.752C133.015 196.79 134.961 194.906 134.999 192.571C135.038 190.235 133.13 188.314 130.764 188.276C129.066 188.258 127.406 189.369 126.7 190.8C126.09 191.441 125.326 191.591 124.449 191.742C124.372 190.537 124.449 189.237 124.639 188.484C125.536 186.035 127.768 183.116 128.97 182.136C127.368 183.473 120.9 183.379 119.336 182.004C120.499 183.021 122.808 186.148 123.476 188.465C123.686 189.388 123.628 191.121 123.609 191.723C122.713 191.554 121.93 191.384 121.339 190.706C120.671 189.275 119.049 188.107 117.351 188.088C114.985 188.05 113.039 189.934 113.001 192.27C112.944 194.586 114.852 196.507 117.218 196.545Z" fill="#EAEAEA"/>
<path fill-rule="evenodd" clip-rule="evenodd" d="M69.2177 196.545C70.9158 196.564 72.4039 195.603 73.1099 194.191C73.6632 193.55 74.5026 193.287 75.3612 193.117C75.1513 194.134 74.9033 195.264 74.0829 195.924C72.6329 196.583 71.6217 198.033 71.5835 199.709C71.5454 202.045 73.4533 203.966 75.8191 204.004C78.1849 204.042 80.131 202.158 80.1691 199.822C80.1882 198.146 79.2152 196.677 77.7843 195.98C77.0974 195.471 76.7921 194.228 76.6013 193.155C77.4408 193.343 78.2803 193.644 78.8145 194.285C79.4823 195.716 80.9514 196.733 82.6494 196.752C85.0152 196.79 86.9613 194.906 86.9994 192.571C87.0376 190.235 85.1297 188.314 82.7639 188.276C81.0659 188.258 79.406 189.369 78.7 190.8C78.0895 191.441 77.3263 191.591 76.4487 191.742C76.3724 190.537 76.4487 189.237 76.6395 188.484C77.5362 186.035 79.7685 183.116 80.9705 182.136C79.3678 183.473 72.9 183.379 71.3355 182.004C72.4993 183.021 74.8079 186.148 75.4757 188.465C75.6856 189.388 75.6283 191.121 75.6092 191.723C74.7125 191.554 73.9303 191.384 73.3388 190.706C72.6711 189.275 71.0493 188.107 69.3513 188.088C66.9855 188.05 65.0394 189.934 65.0013 192.27C64.944 194.586 66.8519 196.507 69.2177 196.545Z" fill="#EAEAEA"/>
</g>
<defs>
<linearGradient id="paint0_linear_2709_120075" x1="0" y1="278.004" x2="200" y2="0.00440461" gradientUnits="userSpaceOnUse">
<stop stop-color="#101010"/>
<stop offset="0.712851" stop-color="#201F1F"/>
<stop offset="1" stop-color="#101010"/>
</linearGradient>
<clipPath id="clip0_2709_120075">
<rect width="200" height="278" fill="white"/>
</clipPath>
</defs>
</svg>
