<svg width="201" height="278" viewBox="0 0 201 278" fill="none" xmlns="http://www.w3.org/2000/svg">
<g clip-path="url(#clip0_2709_120438)">
<rect x="1" y="0.00439453" width="200" height="278" rx="10" fill="url(#paint0_linear_2709_120438)"/>
<path fill-rule="evenodd" clip-rule="evenodd" d="M166.409 211.206C168.185 211.226 169.74 210.222 170.478 208.745C171.057 208.075 171.935 207.799 172.832 207.622C172.613 208.686 172.353 209.867 171.496 210.556C169.98 211.245 168.923 212.762 168.883 214.514C168.843 216.956 170.838 218.964 173.311 219.004C175.784 219.043 177.819 217.074 177.859 214.632C177.879 212.88 176.861 211.344 175.365 210.615C174.647 210.084 174.328 208.784 174.129 207.662C175.006 207.859 175.884 208.174 176.442 208.843C177.141 210.34 178.676 211.403 180.452 211.423C182.925 211.462 184.96 209.493 184.999 207.051C185.039 204.609 183.045 202.601 180.571 202.562C178.796 202.542 177.061 203.704 176.323 205.2C175.684 205.87 174.887 206.027 173.969 206.185C173.889 204.925 173.969 203.566 174.169 202.778C175.106 200.218 177.44 197.166 178.696 196.142C177.021 197.54 170.259 197.442 168.623 196.004C169.84 197.068 172.254 200.336 172.952 202.758C173.171 203.723 173.111 205.535 173.091 206.165C172.154 205.988 171.336 205.811 170.718 205.102C170.02 203.605 168.324 202.384 166.549 202.365C164.076 202.325 162.041 204.294 162.001 206.736C161.941 209.158 163.936 211.167 166.409 211.206Z" fill="#EAEAEA"/>
<path fill-rule="evenodd" clip-rule="evenodd" d="M35.5906 66.8027C33.8153 66.783 32.2595 67.7873 31.5215 69.2641C30.9431 69.9336 30.0654 70.2093 29.1678 70.3865C29.3872 69.3232 29.6465 68.1418 30.5042 67.4526C32.0202 66.7634 33.0773 65.2471 33.1172 63.4946C33.1571 61.0529 31.1625 59.0444 28.6891 59.005C26.2158 58.9656 24.1813 60.9347 24.1414 63.3764C24.1214 65.129 25.1387 66.6649 26.6346 67.3935C27.3527 67.9252 27.6719 69.2248 27.8713 70.3472C26.9937 70.1503 26.116 69.8352 25.5575 69.1657C24.8594 67.6692 23.3236 66.6058 21.5483 66.5861C19.075 66.5468 17.0405 68.5159 17.0006 70.9576C16.9607 73.3993 18.9553 75.4078 21.4287 75.4472C23.2039 75.4669 24.9392 74.3051 25.6772 72.8086C26.3155 72.1391 27.1134 71.9816 28.0309 71.824C28.1107 73.0843 28.0309 74.4429 27.8314 75.2306C26.894 77.7905 24.5602 80.8427 23.3036 81.8666C24.9791 80.4685 31.7409 80.5669 33.3765 82.0044C32.1598 80.9411 29.7463 77.6723 29.0481 75.2503C28.8287 74.2854 28.8886 72.4739 28.9085 71.8437C29.846 72.021 30.6638 72.1981 31.2821 72.907C31.9803 74.4036 33.6757 75.6245 35.4509 75.6441C37.9243 75.6835 39.9588 73.7144 39.9987 71.2727C40.0585 68.8506 38.0639 66.8421 35.5906 66.8027Z" fill="#EAEAEA"/>
<path d="M28.4058 47.0044C26.4283 47.0044 24.639 46.6594 23.0381 45.9695C21.4686 45.2796 20.2287 44.3231 19.3184 43.1C18.4395 41.8456 18 40.4187 18 38.8193C18 37.5962 18.2197 36.5456 18.6592 35.6675C19.13 34.7581 19.7422 33.9584 20.4955 33.2684C21.2803 32.5785 22.1435 31.9826 23.0852 31.4809V31.2927C21.9552 30.4146 20.9978 29.4111 20.213 28.2821C19.4596 27.1531 19.083 25.8046 19.083 24.2366C19.083 22.5431 19.491 21.0848 20.3072 19.8618C21.1233 18.6073 22.2534 17.6508 23.6973 16.9923C25.1413 16.3337 26.7892 16.0044 28.6413 16.0044C31.4036 16.0044 33.6009 16.757 35.2332 18.2624C36.8969 19.7363 37.7287 21.712 37.7287 24.1895C37.7287 25.1303 37.5404 26.0241 37.1637 26.8709C36.8184 27.6862 36.3475 28.4232 35.7511 29.0818C35.1547 29.709 34.5112 30.2578 33.8206 30.7282V30.9164C34.7623 31.4182 35.6256 32.0297 36.4103 32.751C37.1951 33.4409 37.8229 34.2877 38.2937 35.2912C38.7646 36.2634 39 37.408 39 38.7252C39 40.2932 38.5605 41.7044 37.6816 42.9589C36.8027 44.1819 35.5628 45.1698 33.9619 45.9225C32.3924 46.6437 30.5404 47.0044 28.4058 47.0044ZM30.2892 29.0347C30.8857 28.3448 31.3408 27.6392 31.6547 26.9179C31.9686 26.1966 32.1256 25.4439 32.1256 24.6599C32.1256 23.8759 31.9843 23.2017 31.7018 22.6372C31.4193 22.0727 30.9955 21.6336 30.4305 21.32C29.8969 20.9751 29.2534 20.8026 28.5 20.8026C27.5897 20.8026 26.8049 21.1005 26.1457 21.6964C25.4865 22.2608 25.157 23.1076 25.157 24.2366C25.157 25.0519 25.3767 25.7419 25.8161 26.3064C26.2556 26.8709 26.852 27.3726 27.6054 27.8117C28.3901 28.2507 29.2848 28.6584 30.2892 29.0347ZM28.5471 42.2062C29.3004 42.2062 29.9753 42.0808 30.5717 41.8299C31.1996 41.5476 31.6861 41.14 32.0314 40.6068C32.3767 40.0423 32.5493 39.3367 32.5493 38.49C32.5493 37.6119 32.2825 36.8906 31.7489 36.3261C31.2466 35.7302 30.509 35.2128 29.5359 34.7737C28.5942 34.3033 27.4955 33.8016 26.2399 33.2684C25.5807 33.8643 25.0314 34.5856 24.5919 35.4323C24.1525 36.2477 23.9327 37.1101 23.9327 38.0196C23.9327 38.8977 24.1368 39.6503 24.5448 40.2775C24.9843 40.9047 25.5493 41.3908 26.2399 41.7358C26.9619 42.0494 27.7309 42.2062 28.5471 42.2062Z" fill="#EAEAEA"/>
<path d="M172.594 231.004C174.572 231.004 176.361 231.349 177.962 232.039C179.531 232.729 180.771 233.686 181.682 234.909C182.561 236.163 183 237.59 183 239.19C183 240.413 182.78 241.463 182.341 242.341C181.87 243.251 181.258 244.05 180.504 244.74C179.72 245.43 178.857 246.026 177.915 246.528L177.915 246.716C179.045 247.594 180.002 248.598 180.787 249.727C181.54 250.856 181.917 252.204 181.917 253.772C181.917 255.466 181.509 256.924 180.693 258.147C179.877 259.401 178.747 260.358 177.303 261.017C175.859 261.675 174.211 262.004 172.359 262.004C169.596 262.004 167.399 261.252 165.767 259.746C164.103 258.272 163.271 256.297 163.271 253.819C163.271 252.878 163.46 251.985 163.836 251.138C164.182 250.323 164.652 249.586 165.249 248.927C165.845 248.3 166.489 247.751 167.179 247.281L167.179 247.092C166.238 246.591 165.374 245.979 164.59 245.258C163.805 244.568 163.177 243.721 162.706 242.718C162.235 241.745 162 240.601 162 239.284C162 237.716 162.439 236.304 163.318 235.05C164.197 233.827 165.437 232.839 167.038 232.086C168.608 231.365 170.46 231.004 172.594 231.004ZM170.711 248.974C170.114 249.664 169.659 250.37 169.345 251.091C169.031 251.812 168.874 252.565 168.874 253.349C168.874 254.133 169.016 254.807 169.298 255.372C169.581 255.936 170.004 256.375 170.57 256.689C171.103 257.034 171.747 257.206 172.5 257.206C173.41 257.206 174.195 256.908 174.854 256.312C175.513 255.748 175.843 254.901 175.843 253.772C175.843 252.957 175.623 252.267 175.184 251.702C174.744 251.138 174.148 250.636 173.395 250.197C172.61 249.758 171.715 249.35 170.711 248.974ZM172.453 235.803C171.7 235.803 171.025 235.928 170.428 236.179C169.8 236.461 169.314 236.869 168.969 237.402C168.623 237.966 168.451 238.672 168.451 239.519C168.451 240.397 168.717 241.118 169.251 241.683C169.753 242.279 170.491 242.796 171.464 243.235C172.406 243.705 173.504 244.207 174.76 244.74C175.419 244.145 175.969 243.423 176.408 242.576C176.848 241.761 177.067 240.899 177.067 239.989C177.067 239.111 176.863 238.358 176.455 237.731C176.016 237.104 175.451 236.618 174.76 236.273C174.038 235.959 173.269 235.803 172.453 235.803Z" fill="#EAEAEA"/>
<path fill-rule="evenodd" clip-rule="evenodd" d="M83.7823 81.4637C82.0842 81.4448 80.5961 82.4054 79.8901 83.818C79.3368 84.4584 78.4974 84.7221 77.6388 84.8917C77.8487 83.8746 78.0967 82.7445 78.9171 82.0852C80.3671 81.426 81.3783 79.9757 81.4165 78.2994C81.4546 75.9638 79.5467 74.0426 77.1809 74.0049C74.8151 73.9673 72.869 75.8508 72.8309 78.1864C72.8118 79.8627 73.7848 81.3318 75.2157 82.0287C75.9026 82.5373 76.2079 83.7804 76.3987 84.854C75.5592 84.6657 74.7197 84.3643 74.1855 83.7239C73.5177 82.2924 72.0486 81.2753 70.3506 81.2565C67.9848 81.2188 66.0387 83.1023 66.0006 85.4379C65.9624 87.7735 67.8703 89.6946 70.2361 89.7323C71.9341 89.7511 73.594 88.6399 74.3 87.2084C74.9105 86.568 75.6737 86.4173 76.5513 86.2667C76.6276 87.4721 76.5513 88.7717 76.3605 89.5251C75.4638 91.9737 73.2315 94.8932 72.0295 95.8726C73.6322 94.5353 80.1 94.6294 81.6645 96.0044C80.5007 94.9873 78.1921 91.8607 77.5243 89.544C77.3144 88.621 77.3717 86.8882 77.3908 86.2855C78.2875 86.455 79.0697 86.6245 79.6612 87.3026C80.3289 88.734 81.9507 89.9018 83.6487 89.9207C86.0145 89.9583 87.9606 88.0748 87.9987 85.7393C88.056 83.4225 86.1481 81.5013 83.7823 81.4637Z" fill="#EAEAEA"/>
<path fill-rule="evenodd" clip-rule="evenodd" d="M131.782 81.4637C130.084 81.4448 128.596 82.4054 127.89 83.818C127.337 84.4584 126.497 84.7221 125.639 84.8917C125.849 83.8746 126.097 82.7445 126.917 82.0852C128.367 81.426 129.378 79.9757 129.416 78.2994C129.455 75.9638 127.547 74.0426 125.181 74.0049C122.815 73.9673 120.869 75.8508 120.831 78.1864C120.812 79.8627 121.785 81.3318 123.216 82.0287C123.903 82.5373 124.208 83.7804 124.399 84.854C123.559 84.6657 122.72 84.3643 122.185 83.7239C121.518 82.2924 120.049 81.2753 118.351 81.2565C115.985 81.2188 114.039 83.1023 114.001 85.4379C113.962 87.7735 115.87 89.6946 118.236 89.7323C119.934 89.7511 121.594 88.6399 122.3 87.2084C122.91 86.568 123.674 86.4173 124.551 86.2667C124.628 87.4721 124.551 88.7717 124.361 89.5251C123.464 91.9737 121.232 94.8932 120.03 95.8726C121.632 94.5353 128.1 94.6294 129.664 96.0044C128.501 94.9873 126.192 91.8607 125.524 89.544C125.314 88.621 125.372 86.8882 125.391 86.2855C126.287 86.455 127.07 86.6245 127.661 87.3026C128.329 88.734 129.951 89.9018 131.649 89.9207C134.015 89.9583 135.961 88.0748 135.999 85.7393C136.056 83.4225 134.148 81.5013 131.782 81.4637Z" fill="#EAEAEA"/>
<path fill-rule="evenodd" clip-rule="evenodd" d="M131.782 135.464C130.084 135.445 128.596 136.405 127.89 137.818C127.337 138.458 126.497 138.722 125.639 138.892C125.849 137.875 126.097 136.744 126.917 136.085C128.367 135.426 129.378 133.976 129.416 132.299C129.455 129.964 127.547 128.043 125.181 128.005C122.815 127.967 120.869 129.851 120.831 132.186C120.812 133.863 121.785 135.332 123.216 136.029C123.903 136.537 124.208 137.78 124.399 138.854C123.559 138.666 122.72 138.364 122.185 137.724C121.518 136.292 120.049 135.275 118.351 135.256C115.985 135.219 114.039 137.102 114.001 139.438C113.962 141.773 115.87 143.695 118.236 143.732C119.934 143.751 121.594 142.64 122.3 141.208C122.91 140.568 123.674 140.417 124.551 140.267C124.628 141.472 124.551 142.772 124.361 143.525C123.464 145.974 121.232 148.893 120.03 149.873C121.632 148.535 128.1 148.629 129.664 150.004C128.501 148.987 126.192 145.861 125.524 143.544C125.314 142.621 125.372 140.888 125.391 140.286C126.287 140.455 127.07 140.624 127.661 141.303C128.329 142.734 129.951 143.902 131.649 143.921C134.015 143.958 135.961 142.075 135.999 139.739C136.056 137.423 134.148 135.501 131.782 135.464Z" fill="#EAEAEA"/>
<path fill-rule="evenodd" clip-rule="evenodd" d="M107.782 108.464C106.084 108.445 104.596 109.405 103.89 110.818C103.337 111.458 102.497 111.722 101.639 111.892C101.849 110.875 102.097 109.744 102.917 109.085C104.367 108.426 105.378 106.976 105.416 105.299C105.455 102.964 103.547 101.043 101.181 101.005C98.8151 100.967 96.869 102.851 96.8309 105.186C96.8118 106.863 97.7848 108.332 99.2157 109.029C99.9026 109.537 100.208 110.78 100.399 111.854C99.5592 111.666 98.7197 111.364 98.1855 110.724C97.5177 109.292 96.0486 108.275 94.3506 108.256C91.9848 108.219 90.0387 110.102 90.0006 112.438C89.9624 114.773 91.8703 116.695 94.2361 116.732C95.9341 116.751 97.594 115.64 98.3 114.208C98.9105 113.568 99.6737 113.417 100.551 113.267C100.628 114.472 100.551 115.772 100.361 116.525C99.4638 118.974 97.2315 121.893 96.0295 122.873C97.6322 121.535 104.1 121.629 105.664 123.004C104.501 121.987 102.192 118.861 101.524 116.544C101.314 115.621 101.372 113.888 101.391 113.286C102.287 113.455 103.07 113.624 103.661 114.303C104.329 115.734 105.951 116.902 107.649 116.921C110.015 116.958 111.961 115.075 111.999 112.739C112.056 110.423 110.148 108.501 107.782 108.464Z" fill="#EAEAEA"/>
<path fill-rule="evenodd" clip-rule="evenodd" d="M94.2177 169.545C95.9158 169.564 97.4039 168.603 98.1099 167.191C98.6632 166.55 99.5026 166.287 100.361 166.117C100.151 167.134 99.9033 168.264 99.0829 168.924C97.6329 169.583 96.6217 171.033 96.5835 172.709C96.5454 175.045 98.4533 176.966 100.819 177.004C103.185 177.042 105.131 175.158 105.169 172.822C105.188 171.146 104.215 169.677 102.784 168.98C102.097 168.471 101.792 167.228 101.601 166.155C102.441 166.343 103.28 166.644 103.815 167.285C104.482 168.716 105.951 169.733 107.649 169.752C110.015 169.79 111.961 167.906 111.999 165.571C112.038 163.235 110.13 161.314 107.764 161.276C106.066 161.258 104.406 162.369 103.7 163.8C103.09 164.441 102.326 164.591 101.449 164.742C101.372 163.537 101.449 162.237 101.639 161.484C102.536 159.035 104.768 156.116 105.97 155.136C104.368 156.473 97.9 156.379 96.3355 155.004C97.4993 156.021 99.8079 159.148 100.476 161.465C100.686 162.388 100.628 164.121 100.609 164.723C99.7125 164.554 98.9303 164.384 98.3388 163.706C97.6711 162.275 96.0493 161.107 94.3513 161.088C91.9855 161.05 90.0394 162.934 90.0013 165.27C89.944 167.586 91.8519 169.507 94.2177 169.545Z" fill="#EAEAEA"/>
<path fill-rule="evenodd" clip-rule="evenodd" d="M83.7823 135.464C82.0842 135.445 80.5961 136.405 79.8901 137.818C79.3368 138.458 78.4974 138.722 77.6388 138.892C77.8487 137.875 78.0967 136.744 78.9171 136.085C80.3671 135.426 81.3783 133.976 81.4165 132.299C81.4546 129.964 79.5467 128.043 77.1809 128.005C74.8151 127.967 72.869 129.851 72.8309 132.186C72.8118 133.863 73.7848 135.332 75.2157 136.029C75.9026 136.537 76.2079 137.78 76.3987 138.854C75.5592 138.666 74.7197 138.364 74.1855 137.724C73.5177 136.292 72.0486 135.275 70.3506 135.256C67.9848 135.219 66.0387 137.102 66.0006 139.438C65.9624 141.773 67.8703 143.695 70.2361 143.732C71.9341 143.751 73.594 142.64 74.3 141.208C74.9105 140.568 75.6737 140.417 76.5513 140.267C76.6276 141.472 76.5513 142.772 76.3605 143.525C75.4638 145.974 73.2315 148.893 72.0295 149.873C73.6322 148.535 80.1 148.629 81.6645 150.004C80.5007 148.987 78.1921 145.861 77.5243 143.544C77.3144 142.621 77.3717 140.888 77.3908 140.286C78.2875 140.455 79.0697 140.624 79.6612 141.303C80.3289 142.734 81.9507 143.902 83.6487 143.921C86.0145 143.958 87.9606 142.075 87.9987 139.739C88.056 137.423 86.1481 135.501 83.7823 135.464Z" fill="#EAEAEA"/>
<path fill-rule="evenodd" clip-rule="evenodd" d="M118.218 196.545C119.916 196.564 121.404 195.603 122.11 194.191C122.663 193.55 123.503 193.287 124.361 193.117C124.151 194.134 123.903 195.264 123.083 195.924C121.633 196.583 120.622 198.033 120.584 199.709C120.545 202.045 122.453 203.966 124.819 204.004C127.185 204.042 129.131 202.158 129.169 199.822C129.188 198.146 128.215 196.677 126.784 195.98C126.097 195.471 125.792 194.228 125.601 193.155C126.441 193.343 127.28 193.644 127.815 194.285C128.482 195.716 129.951 196.733 131.649 196.752C134.015 196.79 135.961 194.906 135.999 192.571C136.038 190.235 134.13 188.314 131.764 188.276C130.066 188.258 128.406 189.369 127.7 190.8C127.09 191.441 126.326 191.591 125.449 191.742C125.372 190.537 125.449 189.237 125.639 188.484C126.536 186.035 128.768 183.116 129.97 182.136C128.368 183.473 121.9 183.379 120.336 182.004C121.499 183.021 123.808 186.148 124.476 188.465C124.686 189.388 124.628 191.121 124.609 191.723C123.713 191.554 122.93 191.384 122.339 190.706C121.671 189.275 120.049 188.107 118.351 188.088C115.985 188.05 114.039 189.934 114.001 192.27C113.944 194.586 115.852 196.507 118.218 196.545Z" fill="#EAEAEA"/>
<path fill-rule="evenodd" clip-rule="evenodd" d="M70.2177 196.545C71.9158 196.564 73.4039 195.603 74.1099 194.191C74.6632 193.55 75.5026 193.287 76.3612 193.117C76.1513 194.134 75.9033 195.264 75.0829 195.924C73.6329 196.583 72.6217 198.033 72.5835 199.709C72.5454 202.045 74.4533 203.966 76.8191 204.004C79.1849 204.042 81.131 202.158 81.1691 199.822C81.1882 198.146 80.2152 196.677 78.7843 195.98C78.0974 195.471 77.7921 194.228 77.6013 193.155C78.4408 193.343 79.2803 193.644 79.8145 194.285C80.4823 195.716 81.9514 196.733 83.6494 196.752C86.0152 196.79 87.9613 194.906 87.9994 192.571C88.0376 190.235 86.1297 188.314 83.7639 188.276C82.0659 188.258 80.406 189.369 79.7 190.8C79.0895 191.441 78.3263 191.591 77.4487 191.742C77.3724 190.537 77.4487 189.237 77.6395 188.484C78.5362 186.035 80.7685 183.116 81.9705 182.136C80.3678 183.473 73.9 183.379 72.3355 182.004C73.4993 183.021 75.8079 186.148 76.4757 188.465C76.6856 189.388 76.6283 191.121 76.6092 191.723C75.7125 191.554 74.9303 191.384 74.3388 190.706C73.6711 189.275 72.0493 188.107 70.3513 188.088C67.9855 188.05 66.0394 189.934 66.0013 192.27C65.944 194.586 67.8519 196.507 70.2177 196.545Z" fill="#EAEAEA"/>
</g>
<defs>
<linearGradient id="paint0_linear_2709_120438" x1="1" y1="278.004" x2="201" y2="0.00440461" gradientUnits="userSpaceOnUse">
<stop stop-color="#101010"/>
<stop offset="0.712851" stop-color="#201F1F"/>
<stop offset="1" stop-color="#101010"/>
</linearGradient>
<clipPath id="clip0_2709_120438">
<rect width="200" height="278" fill="white" transform="translate(0.5)"/>
</clipPath>
</defs>
</svg>
