<svg width="26" height="36" viewBox="0 0 26 36" fill="none" xmlns="http://www.w3.org/2000/svg">
<g clip-path="url(#clip0_3185_202085)">
<rect width="26" height="36" rx="1.3" fill="#292929"/>
<rect width="26" height="36" rx="1.3" fill="#1E1E1E"/>
<g clip-path="url(#clip1_3185_202085)">
<path d="M5.67873 14C5.73152 13.1706 5.81599 12.4094 5.93213 11.7165C6.04827 11.0131 6.21192 10.3465 6.42308 9.71654C6.6448 9.08661 6.92459 8.46719 7.26244 7.85827C7.6003 7.24934 8.01735 6.61417 8.51358 5.95276H4V4H11V5.41732C10.4087 6.13123 9.92308 6.7979 9.54299 7.41732C9.17345 8.03675 8.88839 8.66667 8.68778 9.30709C8.48718 9.94751 8.33937 10.6457 8.24434 11.4016C8.14932 12.1575 8.07541 13.0236 8.02262 14H5.67873Z" fill="#404040"/>
</g>
<g clip-path="url(#clip2_3185_202085)">
<path fill-rule="evenodd" clip-rule="evenodd" d="M23 25.9108C21.7293 25.922 16.0669 31.7293 16.0892 33C16.078 31.7293 10.2707 26.0669 9 26.0892C10.2707 26.078 15.9331 20.2707 15.9108 19C15.922 20.2707 21.7293 25.922 23 25.9108Z" fill="#404040"/>
</g>
</g>
<defs>
<clipPath id="clip0_3185_202085">
<rect width="26" height="36" fill="white"/>
</clipPath>
<clipPath id="clip1_3185_202085">
<rect width="7" height="10" fill="white" transform="translate(4 4)"/>
</clipPath>
<clipPath id="clip2_3185_202085">
<rect width="14" height="14" fill="white" transform="translate(9 19)"/>
</clipPath>
</defs>
</svg>
