<svg width="26" height="36" viewBox="0 0 26 36" fill="none" xmlns="http://www.w3.org/2000/svg">
<g clip-path="url(#clip0_3185_202103)">
<rect width="26" height="36" rx="1.3" fill="#292929"/>
<g clip-path="url(#clip1_3185_202103)">
<path d="M7.3149 14C6.55208 14 5.89583 13.8544 5.34615 13.5633C4.80769 13.2721 4.35897 12.8153 4 12.1928L5.58173 11.2289C5.73878 11.5 5.95192 11.7108 6.22115 11.8614C6.49038 12.012 6.77644 12.0873 7.07933 12.0873C7.5617 12.0873 7.92067 11.9568 8.15625 11.6958C8.40304 11.4347 8.52644 10.9679 8.52644 10.2952V4H11V10.4759C11 11.1185 10.871 11.7108 10.613 12.253C10.355 12.7851 9.95112 13.2118 9.40144 13.5331C8.86298 13.8444 8.16747 14 7.3149 14Z" fill="#E04749"/>
</g>
<g clip-path="url(#clip2_3185_202103)">
<path d="M16.0016 21.3274C14.0279 17.3459 9 18.889 9 22.8357C9 27.2595 14.2123 28.8235 15.973 32.9408L16.0016 33L16.027 32.9408C17.7877 28.8235 23 27.2595 23 22.8357C23.0032 18.8856 17.9753 17.3459 16.0016 21.3274Z" fill="#E04749"/>
</g>
</g>
<defs>
<clipPath id="clip0_3185_202103">
<rect width="26" height="36" fill="white"/>
</clipPath>
<clipPath id="clip1_3185_202103">
<rect width="7" height="10" fill="white" transform="translate(4 4)"/>
</clipPath>
<clipPath id="clip2_3185_202103">
<rect width="14" height="14" fill="white" transform="translate(9 19)"/>
</clipPath>
</defs>
</svg>
