<svg width="26" height="36" viewBox="0 0 26 36" fill="none" xmlns="http://www.w3.org/2000/svg">
<g clip-path="url(#clip0_3185_202147)">
<rect width="26" height="36" rx="1.3" fill="#292929"/>
<g clip-path="url(#clip1_3185_202147)">
<path d="M4 13.8179V12.0121H6.10756V6.4431H4.29017V5.06222C4.81961 4.96105 5.26759 4.83966 5.63412 4.69803C6.01083 4.5564 6.36718 4.38442 6.70317 4.18209H8.35256V12.0121H10.1699V13.8179H4Z" fill="#EAEAEA"/>
<path d="M14.5332 14C13.4947 14 12.6547 13.5701 12.0133 12.7102C11.3821 11.8503 11.0664 10.6009 11.0664 8.96206C11.0664 7.3131 11.3821 6.07385 12.0133 5.24431C12.6547 4.41477 13.4947 4 14.5332 4C15.5717 4 16.4066 4.41983 17.0379 5.25948C17.6793 6.08902 18 7.32322 18 8.96206C18 10.6009 17.6793 11.8503 17.0379 12.7102C16.4066 13.5701 15.5717 14 14.5332 14ZM14.5332 12.2701C14.7878 12.2701 15.0168 12.1791 15.2205 11.997C15.4241 11.8048 15.5819 11.4709 15.6939 10.9954C15.8161 10.5099 15.8772 9.83207 15.8772 8.96206C15.8772 8.08194 15.8161 7.40921 15.6939 6.94385C15.5819 6.4785 15.4241 6.15984 15.2205 5.98786C15.0168 5.81588 14.7878 5.72989 14.5332 5.72989C14.2787 5.72989 14.0496 5.81588 13.846 5.98786C13.6423 6.15984 13.4794 6.4785 13.3573 6.94385C13.2453 7.40921 13.1893 8.08194 13.1893 8.96206C13.1893 9.83207 13.2453 10.5099 13.3573 10.9954C13.4794 11.4709 13.6423 11.8048 13.846 11.997C14.0496 12.1791 14.2787 12.2701 14.5332 12.2701Z" fill="#EAEAEA"/>
</g>
<g clip-path="url(#clip2_3185_202147)">
<path d="M23 25.2191C23 21.4632 18.1599 19.549 16.5258 16.0517L16.5052 16L16.4845 16.0517C14.8504 19.549 10 21.4632 10 25.2088C10 28.3542 14.1472 29.5648 16.1742 26.9367C16.2156 26.8022 16.1742 27.7748 16.0398 28.3128C15.5537 29.927 13.8059 32.2757 12.9578 33C14.1368 31.986 18.8942 31.9963 20.0629 33C19.2148 32.2654 17.5497 30.0097 16.9809 28.3128C16.8671 27.8472 16.7947 27.3713 16.7637 26.8953C18.7287 29.7511 23 28.4267 23 25.2191Z" fill="#EAEAEA"/>
</g>
</g>
<defs>
<clipPath id="clip0_3185_202147">
<rect width="26" height="36" fill="white"/>
</clipPath>
<clipPath id="clip1_3185_202147">
<rect width="14" height="10" fill="white" transform="translate(4 4)"/>
</clipPath>
<clipPath id="clip2_3185_202147">
<rect width="13" height="17" fill="white" transform="translate(10 16)"/>
</clipPath>
</defs>
</svg>
