<svg width="26" height="36" viewBox="0 0 26 36" fill="none" xmlns="http://www.w3.org/2000/svg">
<g clip-path="url(#clip0_3185_202174)">
<rect width="26" height="36" rx="1.3" fill="#292929"/>
<g clip-path="url(#clip1_3185_202174)">
<path d="M7.72506 14C7.24908 14 6.78862 13.909 6.34368 13.7269C5.89874 13.5448 5.50037 13.2615 5.14856 12.8771C4.79675 12.4927 4.51737 12.002 4.31042 11.4052C4.10347 10.7982 4 10.0698 4 9.22003C4 8.31967 4.10865 7.54072 4.32594 6.88316C4.54324 6.22559 4.83814 5.68437 5.21064 5.25948C5.58315 4.8346 6.00739 4.52099 6.48337 4.31866C6.95935 4.10622 7.4612 4 7.98891 4C8.6408 4 9.20473 4.11634 9.68071 4.34901C10.1567 4.57157 10.5499 4.83965 10.8603 5.15326L9.66519 6.48862C9.48928 6.30652 9.26164 6.14972 8.98226 6.01821C8.70288 5.87658 8.41833 5.80577 8.1286 5.80577C7.7561 5.80577 7.40946 5.91199 7.08869 6.12443C6.77827 6.33687 6.52993 6.696 6.34368 7.20182C6.16778 7.69752 6.07982 8.37026 6.07982 9.22003C6.07982 10.0192 6.15225 10.6464 6.29712 11.1017C6.45233 11.5468 6.6541 11.8655 6.90244 12.0577C7.15078 12.2398 7.40946 12.3308 7.67849 12.3308C7.90613 12.3308 8.11308 12.2752 8.29934 12.1639C8.48559 12.0526 8.63562 11.8857 8.74945 11.6631C8.86327 11.4304 8.92018 11.132 8.92018 10.7678C8.92018 10.4239 8.86327 10.1507 8.74945 9.94841C8.63562 9.74608 8.48041 9.59939 8.28381 9.50835C8.09756 9.4173 7.88027 9.37177 7.63193 9.37177C7.37324 9.37177 7.10421 9.44765 6.82483 9.59939C6.5558 9.75114 6.31264 10.0192 6.09534 10.4036L5.9867 8.94689C6.24538 8.57258 6.5765 8.28933 6.98004 8.09712C7.38359 7.89479 7.74575 7.79363 8.06652 7.79363C8.62528 7.79363 9.12713 7.89985 9.57206 8.11229C10.017 8.32473 10.3636 8.65351 10.612 9.09863C10.8707 9.53364 11 10.09 11 10.7678C11 11.4355 10.85 12.0121 10.5499 12.4977C10.2602 12.9833 9.86696 13.3576 9.37029 13.6206C8.87361 13.8735 8.3252 14 7.72506 14Z" fill="#E04749"/>
</g>
<g clip-path="url(#clip2_3185_202174)">
<path fill-rule="evenodd" clip-rule="evenodd" d="M23 25.9108C21.7293 25.922 16.0669 31.7293 16.0892 33C16.078 31.7293 10.2707 26.0669 9 26.0892C10.2707 26.078 15.9331 20.2707 15.9108 19C15.922 20.2707 21.7293 25.922 23 25.9108Z" fill="#E04749"/>
</g>
</g>
<defs>
<clipPath id="clip0_3185_202174">
<rect width="26" height="36" fill="white"/>
</clipPath>
<clipPath id="clip1_3185_202174">
<rect width="7" height="10" fill="white" transform="translate(4 4)"/>
</clipPath>
<clipPath id="clip2_3185_202174">
<rect width="14" height="14" fill="white" transform="translate(9 19)"/>
</clipPath>
</defs>
</svg>
