<svg width="26" height="36" viewBox="0 0 26 36" fill="none" xmlns="http://www.w3.org/2000/svg">
<g clip-path="url(#clip0_3185_202186)">
<rect width="26" height="36" rx="1.3" fill="#292929"/>
<g clip-path="url(#clip1_3185_202186)">
<path d="M7.46861 14C6.80942 14 6.213 13.8887 5.67937 13.6662C5.1562 13.4436 4.7429 13.1351 4.43946 12.7405C4.14649 12.3359 4 11.8756 4 11.3596C4 10.9651 4.07324 10.6262 4.21973 10.3429C4.37668 10.0496 4.58072 9.7916 4.83184 9.56904C5.09342 9.34648 5.38117 9.15427 5.69507 8.99241V8.93171C5.31839 8.64846 4.99925 8.32473 4.73767 7.96055C4.48655 7.59636 4.36099 7.16136 4.36099 6.65554C4.36099 6.10926 4.49701 5.63885 4.76906 5.24431C5.04111 4.83966 5.41779 4.53111 5.8991 4.31866C6.38042 4.10622 6.92975 4 7.54708 4C8.46786 4 9.2003 4.24279 9.74439 4.72838C10.299 5.20384 10.5762 5.84117 10.5762 6.64036C10.5762 6.94385 10.5135 7.23217 10.3879 7.50531C10.2728 7.76834 10.1158 8.00607 9.91704 8.21851C9.71824 8.42084 9.50374 8.59788 9.27354 8.74962V8.81032C9.58744 8.97218 9.87519 9.16945 10.1368 9.40212C10.3984 9.62468 10.6076 9.89782 10.7646 10.2215C10.9215 10.5352 11 10.9044 11 11.3293C11 11.8351 10.8535 12.2903 10.5605 12.695C10.2676 13.0895 9.85426 13.4082 9.32063 13.651C8.79746 13.8837 8.18012 14 7.46861 14ZM8.09641 8.20334C8.29522 7.98078 8.44694 7.75316 8.55157 7.52049C8.6562 7.28781 8.70852 7.04502 8.70852 6.79211C8.70852 6.5392 8.66143 6.3217 8.56726 6.1396C8.47309 5.95751 8.33184 5.81588 8.1435 5.71472C7.96562 5.60344 7.75112 5.5478 7.5 5.5478C7.19656 5.5478 6.93498 5.6439 6.71525 5.83611C6.49552 6.01821 6.38565 6.29135 6.38565 6.65554C6.38565 6.91856 6.45889 7.14112 6.60538 7.32322C6.75187 7.50531 6.95067 7.66717 7.20179 7.8088C7.46338 7.95043 7.76158 8.08194 8.09641 8.20334ZM7.51569 12.4522C7.76682 12.4522 7.99178 12.4117 8.19058 12.3308C8.39985 12.2398 8.56203 12.1082 8.67713 11.9363C8.79223 11.7542 8.84978 11.5266 8.84978 11.2534C8.84978 10.9702 8.76084 10.7375 8.58296 10.5554C8.41555 10.3632 8.16966 10.1963 7.84529 10.0546C7.53139 9.90288 7.16517 9.74102 6.74664 9.56904C6.52691 9.76125 6.3438 9.99393 6.19731 10.2671C6.05082 10.5301 5.97758 10.8083 5.97758 11.1017C5.97758 11.3849 6.04559 11.6277 6.18161 11.83C6.3281 12.0324 6.51644 12.1892 6.74664 12.3005C6.98729 12.4016 7.24365 12.4522 7.51569 12.4522Z" fill="#E04749"/>
</g>
<g clip-path="url(#clip2_3185_202186)">
<path d="M16.0016 21.3274C14.0279 17.3459 9 18.889 9 22.8357C9 27.2595 14.2123 28.8235 15.973 32.9408L16.0016 33L16.027 32.9408C17.7877 28.8235 23 27.2595 23 22.8357C23.0032 18.8856 17.9753 17.3459 16.0016 21.3274Z" fill="#E04749"/>
</g>
</g>
<defs>
<clipPath id="clip0_3185_202186">
<rect width="26" height="36" fill="white"/>
</clipPath>
<clipPath id="clip1_3185_202186">
<rect width="7" height="10" fill="white" transform="translate(4 4)"/>
</clipPath>
<clipPath id="clip2_3185_202186">
<rect width="14" height="14" fill="white" transform="translate(9 19)"/>
</clipPath>
</defs>
</svg>
