<svg width="26" height="36" viewBox="0 0 26 36" fill="none" xmlns="http://www.w3.org/2000/svg">
<g clip-path="url(#clip0_3185_202192)">
<rect width="26" height="36" rx="1.3" fill="#292929"/>
<g clip-path="url(#clip1_3185_202192)">
<path d="M7.01991 14C6.36947 14 5.80678 13.8837 5.33186 13.651C4.85693 13.4183 4.45944 13.1502 4.13938 12.8467L5.34735 11.5114C5.51254 11.6935 5.73451 11.8553 6.01327 11.997C6.30236 12.1285 6.58628 12.1942 6.86504 12.1942C7.25737 12.1942 7.60324 12.088 7.90265 11.8756C8.21239 11.6631 8.45502 11.3091 8.63053 10.8134C8.81637 10.3075 8.90929 9.62974 8.90929 8.77997C8.90929 7.98078 8.83186 7.35862 8.67699 6.91351C8.53245 6.45827 8.33628 6.13961 8.0885 5.95751C7.85103 5.7653 7.59292 5.6692 7.31416 5.6692C7.09735 5.6692 6.89086 5.72484 6.69469 5.83611C6.50885 5.94739 6.35914 6.11431 6.24558 6.33687C6.13201 6.55943 6.07522 6.85786 6.07522 7.23217C6.07522 7.56601 6.13201 7.83915 6.24558 8.05159C6.35914 8.25392 6.51401 8.40061 6.71018 8.49165C6.90634 8.5827 7.12832 8.62822 7.37611 8.62822C7.63422 8.62822 7.89749 8.55235 8.16593 8.40061C8.43437 8.23874 8.67699 7.97066 8.89381 7.59636L9.00221 9.05311C8.75443 9.40718 8.4292 9.69044 8.02655 9.90288C7.62389 10.1052 7.25737 10.2064 6.92699 10.2064C6.36947 10.2064 5.86873 10.1002 5.42478 9.88771C4.98083 9.67527 4.62979 9.35154 4.37168 8.91654C4.12389 8.47142 4 7.90996 4 7.23217C4 6.56449 4.1497 5.98786 4.44912 5.50228C4.74853 5.01669 5.14602 4.64745 5.64159 4.39454C6.13717 4.13151 6.6792 4 7.2677 4C7.75295 4 8.21755 4.09105 8.6615 4.27314C9.10546 4.45524 9.49779 4.73849 9.8385 5.12291C10.1895 5.50733 10.4683 6.00303 10.6748 6.61001C10.8916 7.20688 11 7.9302 11 8.77997C11 9.68032 10.8864 10.4593 10.6593 11.1168C10.4425 11.7744 10.1482 12.3156 9.77655 12.7405C9.40487 13.1654 8.98156 13.4841 8.50664 13.6965C8.03171 13.8988 7.53614 14 7.01991 14Z" fill="#EAEAEA"/>
</g>
<g clip-path="url(#clip2_3185_202192)">
<path fill-rule="evenodd" clip-rule="evenodd" d="M20.2663 23.6949C19.1809 23.6949 18.2462 24.3247 17.8065 25.2333C17.4623 25.6415 16.9271 25.8183 16.3869 25.9353C16.51 25.2806 16.6608 24.5637 17.1734 24.1405C18.0905 23.7048 18.7261 22.7788 18.7261 21.7034C18.7261 20.2098 17.505 19 15.9975 19C14.4899 19 13.2688 20.2098 13.2688 21.7034C13.2688 22.7788 13.9045 23.7048 14.8216 24.1405C15.2663 24.4616 15.4648 25.2532 15.603 25.9353C15.0653 25.8183 14.5301 25.6415 14.1884 25.2358C13.7487 24.3272 12.8141 23.6974 11.7286 23.6974C10.2211 23.6974 9 24.9072 9 26.4008C9 27.8944 10.2211 29.1042 11.7286 29.1042C12.8141 29.1042 13.8492 28.3748 14.2889 27.4662C14.6683 27.048 15.1558 26.9484 15.7186 26.8439C15.7739 27.6081 15.7437 28.4371 15.6281 28.92C15.0754 30.4907 13.6809 32.3652 12.9372 33C13.9497 32.1387 18.0528 32.1387 19.0653 33C18.3191 32.3652 16.8266 30.3887 16.3744 28.92C16.2312 28.33 16.2487 27.2297 16.2588 26.8414C16.8317 26.9484 17.3266 27.0455 17.7111 27.4662C18.1508 28.3748 19.1859 29.1042 20.2714 29.1042C21.7789 29.1042 23 27.8944 23 26.4008C22.995 24.9047 21.7739 23.6949 20.2663 23.6949Z" fill="#EAEAEA"/>
</g>
</g>
<defs>
<clipPath id="clip0_3185_202192">
<rect width="26" height="36" fill="white"/>
</clipPath>
<clipPath id="clip1_3185_202192">
<rect width="7" height="10" fill="white" transform="translate(4 4)"/>
</clipPath>
<clipPath id="clip2_3185_202192">
<rect width="14" height="14" fill="white" transform="translate(9 19)"/>
</clipPath>
</defs>
</svg>
