<svg width="26" height="36" viewBox="0 0 26 36" fill="none" xmlns="http://www.w3.org/2000/svg">
<g clip-path="url(#clip0_3185_202211)">
<rect width="26" height="36" rx="1.3" fill="#292929"/>
<g clip-path="url(#clip1_3185_202211)">
<path d="M5.67873 14C5.73152 13.1706 5.81599 12.4094 5.93213 11.7165C6.04827 11.0131 6.21192 10.3465 6.42308 9.71654C6.6448 9.08661 6.92459 8.46719 7.26244 7.85827C7.6003 7.24934 8.01735 6.61417 8.51358 5.95276H4V4H11V5.41732C10.4087 6.13123 9.92308 6.7979 9.54299 7.41732C9.17345 8.03675 8.88839 8.66667 8.68778 9.30709C8.48718 9.94751 8.33937 10.6457 8.24434 11.4016C8.14932 12.1575 8.07541 13.0236 8.02262 14H5.67873Z" fill="#EAEAEA"/>
</g>
<g clip-path="url(#clip2_3185_202211)">
<path d="M23 25.2191C23 21.4632 18.1599 19.549 16.5258 16.0517L16.5052 16L16.4845 16.0517C14.8504 19.549 10 21.4632 10 25.2088C10 28.3542 14.1472 29.5648 16.1742 26.9367C16.2156 26.8022 16.1742 27.7748 16.0398 28.3128C15.5537 29.927 13.8059 32.2757 12.9578 33C14.1368 31.986 18.8942 31.9963 20.0629 33C19.2148 32.2654 17.5497 30.0097 16.9809 28.3128C16.8671 27.8472 16.7947 27.3713 16.7637 26.8953C18.7287 29.7511 23 28.4267 23 25.2191Z" fill="#EAEAEA"/>
</g>
</g>
<defs>
<clipPath id="clip0_3185_202211">
<rect width="26" height="36" fill="white"/>
</clipPath>
<clipPath id="clip1_3185_202211">
<rect width="7" height="10" fill="white" transform="translate(4 4)"/>
</clipPath>
<clipPath id="clip2_3185_202211">
<rect width="13" height="17" fill="white" transform="translate(10 16)"/>
</clipPath>
</defs>
</svg>
