<svg width="26" height="36" viewBox="0 0 26 36" fill="none" xmlns="http://www.w3.org/2000/svg">
<g clip-path="url(#clip0_3185_202223)">
<rect width="26" height="36" rx="1.3" fill="#292929"/>
<g clip-path="url(#clip1_3185_202223)">
<path d="M7.78275 13.5887C7.03301 13.5887 6.37274 13.3948 5.80192 13.0071C5.23962 12.6194 4.79659 12.0662 4.47284 11.3475C4.15761 10.6288 4 9.76359 4 8.75177C4 7.74941 4.15761 6.89362 4.47284 6.1844C4.79659 5.47518 5.23962 4.93617 5.80192 4.56738C6.37274 4.18913 7.03301 4 7.78275 4C8.53248 4 9.1885 4.18913 9.7508 4.56738C10.3216 4.93617 10.7646 5.47518 11.0799 6.1844C11.4036 6.89362 11.5655 7.74941 11.5655 8.75177C11.5655 9.76359 11.4036 10.6288 11.0799 11.3475C10.7646 12.0662 10.3216 12.6194 9.7508 13.0071C9.1885 13.3948 8.53248 13.5887 7.78275 13.5887ZM7.78275 11.8865C8.16613 11.8865 8.49414 11.7636 8.76677 11.5177C9.04792 11.2624 9.26092 10.9031 9.40575 10.4397C9.5591 9.97636 9.63578 9.41371 9.63578 8.75177C9.63578 8.13712 9.5591 7.61229 9.40575 7.1773C9.26092 6.73286 9.04792 6.39244 8.76677 6.15603C8.49414 5.91962 8.16613 5.80142 7.78275 5.80142C7.40788 5.80142 7.07987 5.91962 6.79872 6.15603C6.51757 6.39244 6.30032 6.73286 6.14696 7.1773C6.00213 7.61229 5.92971 8.13712 5.92971 8.75177C5.92971 9.41371 6.00213 9.97636 6.14696 10.4397C6.30032 10.9031 6.51757 11.2624 6.79872 11.5177C7.07987 11.7636 7.40788 11.8865 7.78275 11.8865ZM10.5304 16C9.61874 16 8.85197 15.7494 8.23003 15.2482C7.60809 14.747 7.15229 14.1135 6.86262 13.3475L8.77955 13.1348C8.88179 13.4279 9.0394 13.6596 9.2524 13.8298C9.46539 14.0095 9.69968 14.1371 9.95527 14.2128C10.2194 14.2884 10.4835 14.3262 10.7476 14.3262C10.9265 14.3262 11.0927 14.3121 11.246 14.2837C11.4079 14.2553 11.5485 14.2222 11.6677 14.1844L12 15.6879C11.8552 15.773 11.655 15.844 11.3994 15.9007C11.1438 15.9669 10.8541 16 10.5304 16Z" fill="#EAEAEA"/>
</g>
<g clip-path="url(#clip2_3185_202223)">
<path d="M23 25.2191C23 21.4632 18.1599 19.549 16.5258 16.0517L16.5052 16L16.4845 16.0517C14.8504 19.549 10 21.4632 10 25.2088C10 28.3542 14.1472 29.5648 16.1742 26.9367C16.2156 26.8022 16.1742 27.7748 16.0398 28.3128C15.5537 29.927 13.8059 32.2757 12.9578 33C14.1368 31.986 18.8942 31.9963 20.0629 33C19.2148 32.2654 17.5497 30.0097 16.9809 28.3128C16.8671 27.8472 16.7947 27.3713 16.7637 26.8953C18.7287 29.7511 23 28.4267 23 25.2191Z" fill="#EAEAEA"/>
</g>
</g>
<defs>
<clipPath id="clip0_3185_202223">
<rect width="26" height="36" fill="white"/>
</clipPath>
<clipPath id="clip1_3185_202223">
<rect width="8" height="12" fill="white" transform="translate(4 4)"/>
</clipPath>
<clipPath id="clip2_3185_202223">
<rect width="13" height="17" fill="white" transform="translate(10 16)"/>
</clipPath>
</defs>
</svg>
