<svg width="26" height="36" viewBox="0 0 26 36" fill="none" xmlns="http://www.w3.org/2000/svg">
<g clip-path="url(#clip0_3185_202261)">
<rect width="26" height="36" rx="1.3" fill="#292929"/>
<g clip-path="url(#clip1_3185_202261)">
<path d="M4 14V4H6.16575V8.09509H6.22468L9.08287 4H11.4696L8.56722 7.98773L12 14H9.62799L7.28545 9.78221L6.16575 11.316V14H4Z" fill="#E04749"/>
</g>
<g clip-path="url(#clip2_3185_202261)">
<path fill-rule="evenodd" clip-rule="evenodd" d="M23 25.9108C21.7293 25.922 16.0669 31.7293 16.0892 33C16.078 31.7293 10.2707 26.0669 9 26.0892C10.2707 26.078 15.9331 20.2707 15.9108 19C15.922 20.2707 21.7293 25.922 23 25.9108Z" fill="#E04749"/>
</g>
</g>
<defs>
<clipPath id="clip0_3185_202261">
<rect width="26" height="36" fill="white"/>
</clipPath>
<clipPath id="clip1_3185_202261">
<rect width="8" height="10" fill="white" transform="translate(4 4)"/>
</clipPath>
<clipPath id="clip2_3185_202261">
<rect width="14" height="14" fill="white" transform="translate(9 19)"/>
</clipPath>
</defs>
</svg>
