<svg width="26" height="36" viewBox="0 0 26 36" fill="none" xmlns="http://www.w3.org/2000/svg">
<g clip-path="url(#clip0_3185_202299)">
<rect width="26" height="36" rx="1.3" fill="#292929"/>
<g clip-path="url(#clip1_3185_202299)">
<path d="M7.38512 14C6.86433 14 6.3895 13.9393 5.96061 13.8179C5.54194 13.7066 5.16922 13.5498 4.84245 13.3475C4.51568 13.1452 4.23487 12.9074 4 12.6343L5.04158 11.2231C5.33771 11.5063 5.66448 11.739 6.02188 11.9211C6.37929 12.1032 6.76222 12.1942 7.17068 12.1942C7.64041 12.1942 8.01823 12.0981 8.30416 11.9059C8.60029 11.7036 8.74836 11.4203 8.74836 11.0561C8.74836 10.7729 8.67688 10.5301 8.53392 10.3278C8.39096 10.1153 8.13056 9.95346 7.75274 9.84218C7.38512 9.7309 6.84391 9.67526 6.1291 9.67526V8.09712C6.71116 8.09712 7.17068 8.04148 7.50766 7.9302C7.84464 7.81892 8.0795 7.66717 8.21225 7.47496C8.35522 7.28275 8.4267 7.06019 8.4267 6.80728C8.4267 6.46333 8.31947 6.2003 8.10503 6.01821C7.9008 5.83612 7.60977 5.74507 7.23195 5.74507C6.88476 5.74507 6.5682 5.82094 6.28228 5.97269C6.00656 6.11431 5.71554 6.3217 5.40919 6.59484L4.27571 5.22913C4.72502 4.84471 5.19985 4.54628 5.70022 4.33384C6.20058 4.11128 6.7469 4 7.33917 4C8.00292 4 8.58497 4.10622 9.08534 4.31866C9.59592 4.52099 9.98906 4.81942 10.2648 5.21396C10.5507 5.59838 10.6937 6.07385 10.6937 6.64036C10.6937 7.13606 10.5507 7.56095 10.2648 7.91502C9.98906 8.26909 9.59081 8.55741 9.07002 8.77997V8.84067C9.43764 8.95195 9.76951 9.11381 10.0656 9.32625C10.3618 9.52858 10.5915 9.78654 10.7549 10.1002C10.9183 10.4138 11 10.7779 11 11.1927C11 11.7896 10.8315 12.3005 10.4945 12.7253C10.1678 13.1401 9.72867 13.4588 9.17724 13.6813C8.63603 13.8938 8.03866 14 7.38512 14Z" fill="#EAEAEA"/>
</g>
<g clip-path="url(#clip2_3185_202299)">
<path d="M23 25.2191C23 21.4632 18.1599 19.549 16.5258 16.0517L16.5052 16L16.4845 16.0517C14.8504 19.549 10 21.4632 10 25.2088C10 28.3542 14.1472 29.5648 16.1742 26.9367C16.2156 26.8022 16.1742 27.7748 16.0398 28.3128C15.5537 29.927 13.8059 32.2757 12.9578 33C14.1368 31.986 18.8942 31.9963 20.0629 33C19.2148 32.2654 17.5497 30.0097 16.9809 28.3128C16.8671 27.8472 16.7947 27.3713 16.7637 26.8953C18.7287 29.7511 23 28.4267 23 25.2191Z" fill="#EAEAEA"/>
</g>
</g>
<defs>
<clipPath id="clip0_3185_202299">
<rect width="26" height="36" fill="white"/>
</clipPath>
<clipPath id="clip1_3185_202299">
<rect width="7" height="10" fill="white" transform="translate(4 4)"/>
</clipPath>
<clipPath id="clip2_3185_202299">
<rect width="13" height="17" fill="white" transform="translate(10 16)"/>
</clipPath>
</defs>
</svg>
