<svg width="26" height="36" viewBox="0 0 26 36" fill="none" xmlns="http://www.w3.org/2000/svg">
<g clip-path="url(#clip0_3185_202311)">
<rect width="26" height="36" rx="1.3" fill="#292929"/>
<g clip-path="url(#clip1_3185_202311)">
<path d="M7.43107 14C6.90007 14 6.42013 13.9382 5.99125 13.8145C5.57257 13.6909 5.19985 13.526 4.87309 13.3199C4.54632 13.1139 4.25529 12.882 4 12.6244L5.01094 11.187C5.30708 11.4549 5.62874 11.6868 5.97593 11.8825C6.32312 12.068 6.70095 12.1607 7.10941 12.1607C7.43618 12.1607 7.7221 12.1041 7.96718 11.9907C8.21225 11.8671 8.40117 11.6919 8.53392 11.4652C8.67688 11.2385 8.74836 10.9603 8.74836 10.6306C8.74836 10.136 8.6054 9.75992 8.31947 9.50232C8.03355 9.24472 7.66594 9.11592 7.21663 9.11592C6.94092 9.11592 6.70605 9.15198 6.51203 9.22411C6.31802 9.29624 6.07294 9.42504 5.77681 9.61051L4.76586 8.96136L5.04158 4H10.5558V5.91654H6.98687L6.81838 7.7558C7.0124 7.67336 7.1911 7.61669 7.35449 7.58578C7.51787 7.54456 7.70168 7.52396 7.90591 7.52396C8.46754 7.52396 8.98322 7.63215 9.45295 7.84853C9.92268 8.06492 10.2954 8.39979 10.5711 8.85317C10.857 9.30654 11 9.87841 11 10.5688C11 11.3004 10.8315 11.9237 10.4945 12.4389C10.1678 12.9438 9.73377 13.3302 9.19256 13.5981C8.65135 13.866 8.06419 14 7.43107 14Z" fill="#EAEAEA"/>
</g>
<g clip-path="url(#clip2_3185_202311)">
<path d="M23 25.2191C23 21.4632 18.1599 19.549 16.5258 16.0517L16.5052 16L16.4845 16.0517C14.8504 19.549 10 21.4632 10 25.2088C10 28.3542 14.1472 29.5648 16.1742 26.9367C16.2156 26.8022 16.1742 27.7748 16.0398 28.3128C15.5537 29.927 13.8059 32.2757 12.9578 33C14.1368 31.986 18.8942 31.9963 20.0629 33C19.2148 32.2654 17.5497 30.0097 16.9809 28.3128C16.8671 27.8472 16.7947 27.3713 16.7637 26.8953C18.7287 29.7511 23 28.4267 23 25.2191Z" fill="#EAEAEA"/>
</g>
</g>
<defs>
<clipPath id="clip0_3185_202311">
<rect width="26" height="36" fill="white"/>
</clipPath>
<clipPath id="clip1_3185_202311">
<rect width="7" height="10" fill="white" transform="translate(4 4)"/>
</clipPath>
<clipPath id="clip2_3185_202311">
<rect width="13" height="17" fill="white" transform="translate(10 16)"/>
</clipPath>
</defs>
</svg>
