<svg width="26" height="36" viewBox="0 0 26 36" fill="none" xmlns="http://www.w3.org/2000/svg">
<g clip-path="url(#clip0_3185_202330)">
<rect width="26" height="36" rx="1.3" fill="#292929"/>
<g clip-path="url(#clip1_3185_202330)">
<path d="M7.3149 14C6.55208 14 5.89583 13.8544 5.34615 13.5633C4.80769 13.2721 4.35897 12.8153 4 12.1928L5.58173 11.2289C5.73878 11.5 5.95192 11.7108 6.22115 11.8614C6.49038 12.012 6.77644 12.0873 7.07933 12.0873C7.5617 12.0873 7.92067 11.9568 8.15625 11.6958C8.40304 11.4347 8.52644 10.9679 8.52644 10.2952V4H11V10.4759C11 11.1185 10.871 11.7108 10.613 12.253C10.355 12.7851 9.95112 13.2118 9.40144 13.5331C8.86298 13.8444 8.16747 14 7.3149 14Z" fill="#EAEAEA"/>
</g>
<g clip-path="url(#clip2_3185_202330)">
<path d="M23 25.2191C23 21.4632 18.1599 19.549 16.5258 16.0517L16.5052 16L16.4845 16.0517C14.8504 19.549 10 21.4632 10 25.2088C10 28.3542 14.1472 29.5648 16.1742 26.9367C16.2156 26.8022 16.1742 27.7748 16.0398 28.3128C15.5537 29.927 13.8059 32.2757 12.9578 33C14.1368 31.986 18.8942 31.9963 20.0629 33C19.2148 32.2654 17.5497 30.0097 16.9809 28.3128C16.8671 27.8472 16.7947 27.3713 16.7637 26.8953C18.7287 29.7511 23 28.4267 23 25.2191Z" fill="#EAEAEA"/>
</g>
</g>
<defs>
<clipPath id="clip0_3185_202330">
<rect width="26" height="36" fill="white"/>
</clipPath>
<clipPath id="clip1_3185_202330">
<rect width="7" height="10" fill="white" transform="translate(4 4)"/>
</clipPath>
<clipPath id="clip2_3185_202330">
<rect width="13" height="17" fill="white" transform="translate(10 16)"/>
</clipPath>
</defs>
</svg>
