<svg width="53" height="74" viewBox="0 0 53 74" fill="none" xmlns="http://www.w3.org/2000/svg">
<g clip-path="url(#clip0_3238_56699)">
<rect y="0.000976562" width="53" height="74" rx="2.64815" fill="#1E1E1E"/>
<path d="M4.29194 12.5125V11.3519C4.98137 10.7482 5.59324 10.1828 6.12755 9.65566C6.67048 9.1285 7.09276 8.63959 7.39438 8.18896C7.70463 7.73832 7.85975 7.32594 7.85975 6.95182C7.85975 6.5522 7.75633 6.25036 7.5495 6.04629C7.34267 5.83373 7.05828 5.72745 6.69633 5.72745C6.40332 5.72745 6.13617 5.81247 5.89487 5.98252C5.66219 6.14407 5.44243 6.33538 5.2356 6.55645L4.24023 5.58715C4.63666 5.14501 5.0417 4.81341 5.45536 4.59234C5.87763 4.37128 6.37747 4.26074 6.95487 4.26074C7.48918 4.26074 7.95885 4.36702 8.36389 4.57959C8.77755 4.79216 9.09641 5.08975 9.32048 5.47237C9.55316 5.85498 9.6695 6.30562 9.6695 6.82428C9.6695 7.30893 9.53593 7.78508 9.26877 8.25273C9.01024 8.71187 8.66552 9.17101 8.23463 9.63015C7.80373 10.0893 7.34698 10.5569 6.86438 11.0331C7.07121 11.0076 7.30389 10.9863 7.56243 10.9693C7.82097 10.9438 8.04503 10.9311 8.23463 10.9311H10.0702V12.5125H4.29194Z" fill="#3E3E3E"/>
<path d="M48.4434 61.4904L48.4434 62.651C47.754 63.2547 47.1421 63.8201 46.6078 64.3473C46.0649 64.8744 45.6426 65.3633 45.341 65.814C45.0307 66.2646 44.8756 66.677 44.8756 67.0511C44.8756 67.4507 44.979 67.7526 45.1858 67.9566C45.3927 68.1692 45.6771 68.2755 46.039 68.2755C46.332 68.2755 46.5992 68.1905 46.8405 68.0204C47.0732 67.8589 47.2929 67.6675 47.4998 67.4465L48.4951 68.4158C48.0987 68.8579 47.6937 69.1895 47.28 69.4106C46.8577 69.6317 46.3579 69.7422 45.7805 69.7422C45.2462 69.7422 44.7765 69.6359 44.3715 69.4233C43.9578 69.2108 43.6389 68.9132 43.4149 68.5306C43.1822 68.1479 43.0658 67.6973 43.0658 67.1786C43.0658 66.694 43.1994 66.2178 43.4666 65.7502C43.7251 65.2911 44.0698 64.8319 44.5007 64.3728C44.9316 63.9136 45.3884 63.446 45.871 62.9698C45.6641 62.9954 45.4315 63.0166 45.1729 63.0336C44.9144 63.0591 44.6903 63.0719 44.5007 63.0719L42.6651 63.0719L42.6651 61.4904L48.4434 61.4904Z" fill="#3E3E3E"/>
<path d="M42.6358 54.6254C42.6358 56.3221 44.9035 57.1868 45.6691 58.7667L45.6788 58.79L45.6885 58.7667C46.454 57.1868 48.7266 56.3221 48.7266 54.63C48.7266 53.2091 46.7835 52.6622 45.8338 53.8495C45.8144 53.9102 45.8338 53.4709 45.8968 53.2278C46.1246 52.4986 46.9434 51.4376 47.3408 51.1104C46.7884 51.5685 44.5595 51.5638 44.0119 51.1104C44.4093 51.4423 45.1894 52.4612 45.4559 53.2278C45.5092 53.4381 45.5431 53.6531 45.5576 53.8682C44.637 52.5781 42.6358 53.1764 42.6358 54.6254Z" fill="#3E3E3E"/>
<path d="M10.328 18.9967C10.328 17.3 8.06037 16.4353 7.29479 14.8554L7.28509 14.832L7.2754 14.8554C6.50982 16.4353 4.2373 17.3 4.2373 18.992C4.2373 20.413 6.18033 20.9598 7.13004 19.7726C7.14943 19.7118 7.13004 20.1512 7.06705 20.3943C6.83931 21.1234 6.02043 22.1845 5.62311 22.5117C6.17549 22.0536 8.4044 22.0583 8.95194 22.5117C8.55461 22.1798 7.77449 21.1608 7.50799 20.3943C7.45469 20.1839 7.42077 19.9689 7.40623 19.7539C8.32687 21.044 10.328 20.4457 10.328 18.9967Z" fill="#3E3E3E"/>
<path d="M29.8643 22.7561C29.8643 21.4689 28.0896 20.8129 27.4905 19.6144L27.4829 19.5967L27.4753 19.6144C26.8761 20.8129 25.0977 21.4689 25.0977 22.7525C25.0977 23.8305 26.6183 24.2454 27.3615 23.3447C27.3767 23.2986 27.3615 23.6319 27.3122 23.8163C27.134 24.3695 26.4931 25.1744 26.1822 25.4226C26.6145 25.0751 28.3589 25.0787 28.7874 25.4226C28.4764 25.1708 27.8659 24.3978 27.6573 23.8163C27.6156 23.6567 27.5891 23.4936 27.5777 23.3305C28.2982 24.3092 29.8643 23.8553 29.8643 22.7561Z" fill="#3E3E3E"/>
<path d="M25.0986 50.865C25.0986 52.1522 26.8733 52.8082 27.4724 54.0067L27.48 54.0244L27.4876 54.0067C28.0867 52.8082 29.8652 52.1522 29.8652 50.8686C29.8652 49.7906 28.3446 49.3757 27.6014 50.2764C27.5862 50.3225 27.6014 49.9892 27.6507 49.8048C27.8289 49.2516 28.4697 48.4467 28.7807 48.1985C28.3484 48.546 26.604 48.5424 26.1755 48.1985C26.4865 48.4502 27.097 49.2233 27.3056 49.8048C27.3473 49.9643 27.3738 50.1275 27.3852 50.2906C26.6647 49.3119 25.0986 49.7658 25.0986 50.865Z" fill="#3E3E3E"/>
</g>
<defs>
<clipPath id="clip0_3238_56699">
<rect width="53" height="74" rx="2.65" fill="white"/>
</clipPath>
</defs>
</svg>
