<svg width="54" height="74" viewBox="0 0 54 74" fill="none" xmlns="http://www.w3.org/2000/svg">
<g clip-path="url(#clip0_3238_56936)">
<rect x="0.25" y="0.000976562" width="53" height="74" rx="2.65" fill="#292929"/>
<path fill-rule="evenodd" clip-rule="evenodd" d="M44.0833 55.9696C44.5537 55.9748 44.966 55.7087 45.1616 55.3173C45.3149 55.1399 45.5474 55.0668 45.7853 55.0199C45.7271 55.3016 45.6584 55.6147 45.4311 55.7974C45.0294 55.98 44.7493 56.3818 44.7387 56.8462C44.7281 57.4933 45.2567 58.0255 45.9121 58.036C46.5676 58.0464 47.1067 57.5246 47.1173 56.8775C47.1226 56.4131 46.853 56.0061 46.4566 55.813C46.2663 55.6721 46.1817 55.3277 46.1289 55.0303C46.3614 55.0825 46.594 55.166 46.742 55.3434C46.927 55.74 47.334 56.0218 47.8045 56.027C48.4599 56.0374 48.999 55.5156 49.0096 54.8685C49.0202 54.2215 48.4916 53.6892 47.8362 53.6788C47.3657 53.6736 46.9059 53.9814 46.7103 54.378C46.5412 54.5554 46.3297 54.5972 46.0866 54.6389C46.0654 54.305 46.0866 53.9449 46.1394 53.7362C46.3879 53.0578 47.0063 52.249 47.3393 51.9776C46.8953 52.3481 45.1034 52.3221 44.67 51.9411C44.9924 52.2229 45.632 53.0891 45.817 53.731C45.8751 53.9867 45.8593 54.4667 45.854 54.6337C45.6056 54.5867 45.3889 54.5398 45.225 54.3519C45.04 53.9554 44.5907 53.6318 44.1203 53.6266C43.4648 53.6162 42.9257 54.138 42.9151 54.785C42.8993 55.4269 43.4278 55.9591 44.0833 55.9696Z" fill="#EAEAEA"/>
<path fill-rule="evenodd" clip-rule="evenodd" d="M9.41673 17.7028C8.9463 17.6976 8.53401 17.9637 8.33843 18.3551C8.18514 18.5325 7.95257 18.6055 7.71471 18.6525C7.77285 18.3707 7.84157 18.0576 8.06886 17.875C8.47058 17.6924 8.75072 17.2906 8.76129 16.8261C8.77186 16.1791 8.24329 15.6468 7.58785 15.6364C6.93242 15.6259 6.39327 16.1478 6.38269 16.7948C6.37741 17.2592 6.64698 17.6663 7.04342 17.8593C7.2337 18.0002 7.31828 18.3446 7.37113 18.6421C7.13856 18.5899 6.90598 18.5064 6.75798 18.329C6.57298 17.9324 6.16598 17.6506 5.69555 17.6454C5.04011 17.635 4.50096 18.1568 4.49039 18.8038C4.47982 19.4509 5.00839 19.9831 5.66383 19.9936C6.13426 19.9988 6.59413 19.6909 6.7897 19.2943C6.95885 19.1169 7.17028 19.0752 7.41342 19.0334C7.43457 19.3674 7.41342 19.7274 7.36057 19.9362C7.11213 20.6145 6.4937 21.4234 6.16069 21.6947C6.6047 21.3242 8.39658 21.3503 8.83001 21.7312C8.50758 21.4494 7.868 20.5832 7.68299 19.9414C7.62485 19.6857 7.64071 19.2056 7.64599 19.0387C7.89442 19.0856 8.11114 19.1326 8.275 19.3204C8.46 19.717 8.9093 20.0405 9.37973 20.0458C10.0352 20.0562 10.5743 19.5344 10.5849 18.8873C10.6007 18.2455 10.0722 17.7132 9.41673 17.7028Z" fill="#EAEAEA"/>
<path d="M7.7163 12.5121C7.3379 12.5121 6.97183 12.4369 6.61811 12.2867C6.26438 12.1364 5.94768 11.9027 5.66799 11.5854C5.3883 11.2682 5.16619 10.8634 5.00167 10.3708C4.83714 9.86997 4.75488 9.26893 4.75488 8.56772C4.75488 7.82476 4.84126 7.18198 5.01401 6.63938C5.18676 6.09677 5.4212 5.65016 5.71734 5.29955C6.01349 4.94895 6.35076 4.69017 6.72916 4.52321C7.10757 4.34791 7.50653 4.26025 7.92607 4.26025C8.44432 4.26025 8.89264 4.35625 9.27105 4.54825C9.64945 4.7319 9.96204 4.95312 10.2088 5.2119L9.25871 6.31381C9.11886 6.16355 8.93789 6.03416 8.71578 5.92564C8.49367 5.80877 8.26746 5.75034 8.03712 5.75034C7.74098 5.75034 7.4654 5.83799 7.21039 6.01329C6.96361 6.18859 6.76618 6.48494 6.61811 6.90233C6.47826 7.31137 6.40834 7.8665 6.40834 8.56772C6.40834 9.22719 6.46593 9.74476 6.58109 10.1204C6.70448 10.4877 6.86489 10.7507 7.06232 10.9093C7.25975 11.0595 7.4654 11.1347 7.67928 11.1347C7.86026 11.1347 8.02478 11.0888 8.17285 10.9969C8.32092 10.9051 8.4402 10.7674 8.53069 10.5837C8.62118 10.3917 8.66642 10.1455 8.66642 9.84493C8.66642 9.5611 8.62118 9.33571 8.53069 9.16876C8.4402 9.0018 8.31681 8.88076 8.16051 8.80563C8.01244 8.7305 7.83969 8.69293 7.64227 8.69293C7.43661 8.69293 7.22273 8.75554 7.00063 8.88076C6.78675 9.00598 6.59343 9.22719 6.42068 9.54441L6.33431 8.34233C6.53996 8.03346 6.8032 7.79972 7.12402 7.64111C7.44484 7.47416 7.73275 7.39068 7.98777 7.39068C8.43198 7.39068 8.83095 7.47833 9.18467 7.65363C9.5384 7.82894 9.81397 8.10024 10.0114 8.46754C10.2171 8.8265 10.3199 9.28563 10.3199 9.84493C10.3199 10.3959 10.2006 10.8717 9.96205 11.2724C9.73171 11.6731 9.41912 11.982 9.02426 12.199C8.62941 12.4077 8.19342 12.5121 7.7163 12.5121Z" fill="#EAEAEA"/>
<path d="M45.7837 61.4904C46.1621 61.4904 46.5282 61.5655 46.8819 61.7158C47.2356 61.866 47.5523 62.0998 47.832 62.417C48.1117 62.7342 48.3338 63.1391 48.4983 63.6316C48.6629 64.1325 48.7451 64.7335 48.7451 65.4347C48.7451 66.1777 48.6587 66.8205 48.486 67.3631C48.3132 67.9057 48.0788 68.3523 47.7827 68.7029C47.4865 69.0535 47.1492 69.3123 46.7708 69.4792C46.3924 69.6545 45.9935 69.7422 45.5739 69.7422C45.0557 69.7422 44.6074 69.6462 44.229 69.4542C43.8505 69.2705 43.538 69.0493 43.2912 68.7905L44.2413 67.6886C44.3811 67.8389 44.5621 67.9683 44.7842 68.0768C45.0063 68.1937 45.2325 68.2521 45.4629 68.2521C45.759 68.2521 46.0346 68.1645 46.2896 67.9892C46.5364 67.8138 46.7338 67.5175 46.8819 67.1001C47.0217 66.6911 47.0917 66.1359 47.0917 65.4347C47.0917 64.7752 47.0341 64.2577 46.9189 63.882C46.7955 63.5147 46.6351 63.2518 46.4377 63.0932C46.2403 62.9429 46.0346 62.8678 45.8207 62.8678C45.6397 62.8678 45.4752 62.9137 45.3271 63.0055C45.1791 63.0973 45.0598 63.2351 44.9693 63.4187C44.8788 63.6107 44.8336 63.857 44.8336 64.1575C44.8336 64.4413 44.8788 64.6667 44.9693 64.8337C45.0598 65.0006 45.1832 65.1217 45.3395 65.1968C45.4876 65.2719 45.6603 65.3095 45.8577 65.3095C46.0634 65.3095 46.2773 65.2469 46.4994 65.1217C46.7133 64.9965 46.9066 64.7752 47.0793 64.458L47.1657 65.6601C46.96 65.969 46.6968 66.2027 46.376 66.3613C46.0552 66.5283 45.7672 66.6118 45.5122 66.6118C45.068 66.6118 44.6691 66.5241 44.3153 66.3488C43.9616 66.1735 43.686 65.9022 43.4886 65.5349C43.2829 65.1759 43.1801 64.7168 43.1801 64.1575C43.1801 63.6066 43.2994 63.1307 43.538 62.73C43.7683 62.3293 44.0809 62.0205 44.4757 61.8034C44.8706 61.5947 45.3066 61.4904 45.7837 61.4904Z" fill="#EAEAEA"/>
<path fill-rule="evenodd" clip-rule="evenodd" d="M22.1869 21.588C21.7369 21.583 21.3426 21.8376 21.1555 22.2119C21.0089 22.3817 20.7864 22.4515 20.5589 22.4965C20.6145 22.2269 20.6802 21.9274 20.8976 21.7528C21.2819 21.5781 21.5499 21.1937 21.56 20.7495C21.5701 20.1306 21.0645 19.6215 20.4375 19.6115C19.8106 19.6015 19.2949 20.1006 19.2848 20.7195C19.2797 21.1638 19.5376 21.5531 19.9168 21.7378C20.0988 21.8725 20.1797 22.202 20.2303 22.4865C20.0078 22.4366 19.7853 22.3567 19.6438 22.187C19.4668 21.8077 19.0775 21.5381 18.6275 21.5331C18.0006 21.5232 17.4849 22.0223 17.4748 22.6412C17.4646 23.2601 17.9702 23.7692 18.5972 23.7792C19.0472 23.7842 19.487 23.4897 19.6741 23.1104C19.8359 22.9407 20.0381 22.9008 20.2707 22.8608C20.2909 23.1803 20.2707 23.5247 20.2201 23.7243C19.9825 24.3732 19.391 25.1469 19.0724 25.4064C19.4971 25.052 21.2111 25.077 21.6257 25.4413C21.3173 25.1718 20.7055 24.3432 20.5286 23.7293C20.4729 23.4847 20.4881 23.0255 20.4932 22.8658C20.7308 22.9107 20.9381 22.9557 21.0948 23.1353C21.2718 23.5147 21.7015 23.8242 22.1515 23.8291C22.7785 23.8391 23.2942 23.34 23.3043 22.7211C23.3194 22.1071 22.8138 21.598 22.1869 21.588Z" fill="#EAEAEA"/>
<path fill-rule="evenodd" clip-rule="evenodd" d="M34.9076 21.588C34.4576 21.583 34.0633 21.8376 33.8762 22.2119C33.7296 22.3817 33.5071 22.4515 33.2796 22.4965C33.3352 22.2269 33.4009 21.9274 33.6183 21.7528C34.0026 21.5781 34.2706 21.1937 34.2807 20.7495C34.2908 20.1306 33.7852 19.6215 33.1583 19.6115C32.5313 19.6015 32.0156 20.1006 32.0055 20.7195C32.0004 21.1638 32.2583 21.5531 32.6375 21.7378C32.8195 21.8725 32.9004 22.202 32.951 22.4865C32.7285 22.4366 32.506 22.3567 32.3645 22.187C32.1875 21.8077 31.7982 21.5381 31.3482 21.5331C30.7213 21.5232 30.2056 22.0223 30.1955 22.6412C30.1853 23.2601 30.6909 23.7692 31.3179 23.7792C31.7679 23.7842 32.2077 23.4897 32.3948 23.1104C32.5566 22.9407 32.7588 22.9008 32.9914 22.8608C33.0116 23.1803 32.9914 23.5247 32.9408 23.7243C32.7032 24.3732 32.1117 25.1469 31.7931 25.4064C32.2178 25.052 33.9318 25.077 34.3464 25.4413C34.038 25.1718 33.4262 24.3432 33.2493 23.7293C33.1936 23.4847 33.2088 23.0255 33.2139 22.8658C33.4515 22.9107 33.6588 22.9557 33.8155 23.1353C33.9925 23.5147 34.4222 23.8242 34.8722 23.8291C35.4992 23.8391 36.0149 23.34 36.025 22.7211C36.0401 22.1071 35.5346 21.598 34.9076 21.588Z" fill="#EAEAEA"/>
<path fill-rule="evenodd" clip-rule="evenodd" d="M34.9076 35.8976C34.4576 35.8926 34.0633 36.1472 33.8762 36.5215C33.7296 36.6912 33.5071 36.7611 33.2796 36.806C33.3352 36.5365 33.4009 36.237 33.6183 36.0623C34.0026 35.8876 34.2706 35.5033 34.2807 35.0591C34.2908 34.4401 33.7852 33.931 33.1583 33.921C32.5313 33.9111 32.0156 34.4102 32.0055 35.0291C32.0004 35.4733 32.2583 35.8627 32.6375 36.0474C32.8195 36.1821 32.9004 36.5115 32.951 36.796C32.7285 36.7461 32.506 36.6663 32.3645 36.4966C32.1875 36.1172 31.7982 35.8477 31.3482 35.8427C30.7213 35.8327 30.2056 36.3319 30.1955 36.9508C30.1853 37.5697 30.6909 38.0788 31.3179 38.0888C31.7679 38.0938 32.2077 37.7993 32.3948 37.42C32.5566 37.2503 32.7588 37.2103 32.9914 37.1704C33.0116 37.4898 32.9914 37.8342 32.9408 38.0339C32.7032 38.6828 32.1117 39.4564 31.7931 39.716C32.2178 39.3616 33.9318 39.3865 34.3464 39.7509C34.038 39.4814 33.4262 38.6528 33.2493 38.0389C33.1936 37.7943 33.2088 37.3351 33.2139 37.1754C33.4515 37.2203 33.6588 37.2652 33.8155 37.4449C33.9925 37.8243 34.4222 38.1337 34.8722 38.1387C35.4992 38.1487 36.0149 37.6496 36.025 37.0306C36.0401 36.4167 35.5346 35.9076 34.9076 35.8976Z" fill="#EAEAEA"/>
<path fill-rule="evenodd" clip-rule="evenodd" d="M22.1869 35.8976C21.7369 35.8926 21.3426 36.1472 21.1555 36.5215C21.0089 36.6912 20.7864 36.7611 20.5589 36.806C20.6145 36.5365 20.6802 36.237 20.8976 36.0623C21.2819 35.8876 21.5499 35.5033 21.56 35.0591C21.5701 34.4401 21.0645 33.931 20.4375 33.921C19.8106 33.9111 19.2949 34.4102 19.2848 35.0291C19.2797 35.4733 19.5376 35.8627 19.9168 36.0474C20.0988 36.1821 20.1797 36.5115 20.2303 36.796C20.0078 36.7461 19.7853 36.6663 19.6438 36.4966C19.4668 36.1172 19.0775 35.8477 18.6275 35.8427C18.0006 35.8327 17.4849 36.3319 17.4748 36.9508C17.4646 37.5697 17.9702 38.0788 18.5972 38.0888C19.0472 38.0938 19.487 37.7993 19.6741 37.42C19.8359 37.2503 20.0381 37.2103 20.2707 37.1704C20.2909 37.4898 20.2707 37.8342 20.2201 38.0339C19.9825 38.6828 19.391 39.4564 19.0724 39.716C19.4971 39.3616 21.2111 39.3865 21.6257 39.7509C21.3173 39.4814 20.7055 38.6528 20.5286 38.0389C20.4729 37.7943 20.4881 37.3351 20.4932 37.1754C20.7308 37.2203 20.9381 37.2652 21.0948 37.4449C21.2718 37.8243 21.7015 38.1337 22.1515 38.1387C22.7785 38.1487 23.2942 37.6496 23.3043 37.0306C23.3194 36.4167 22.8138 35.9076 22.1869 35.8976Z" fill="#EAEAEA"/>
<path fill-rule="evenodd" clip-rule="evenodd" d="M31.3131 52.0843C31.7631 52.0893 32.1574 51.8348 32.3445 51.4604C32.4911 51.2907 32.7136 51.2208 32.9411 51.1759C32.8855 51.4454 32.8198 51.7449 32.6024 51.9196C32.2181 52.0943 31.9501 52.4786 31.94 52.9229C31.9299 53.5418 32.4355 54.0509 33.0625 54.0609C33.6894 54.0709 34.2051 53.5717 34.2152 52.9528C34.2203 52.5086 33.9624 52.1193 33.5832 51.9346C33.4012 51.7998 33.3203 51.4704 33.2697 51.1859C33.4922 51.2358 33.7147 51.3157 33.8562 51.4854C34.0332 51.8647 34.4225 52.1342 34.8725 52.1392C35.4994 52.1492 36.0151 51.6501 36.0252 51.0312C36.0354 50.4122 35.5298 49.9031 34.9028 49.8931C34.4528 49.8881 34.013 50.1826 33.8259 50.562C33.6641 50.7317 33.4619 50.7716 33.2293 50.8115C33.2091 50.4921 33.2293 50.1477 33.2799 49.948C33.5175 49.2992 34.109 48.5255 34.4276 48.266C34.0029 48.6203 32.2889 48.5954 31.8743 48.231C32.1827 48.5006 32.7945 49.3291 32.9714 49.9431C33.0271 50.1876 33.0119 50.6468 33.0068 50.8065C32.7692 50.7616 32.5619 50.7167 32.4052 50.537C32.2282 50.1577 31.7985 49.8482 31.3485 49.8432C30.7215 49.8332 30.2058 50.3324 30.1957 50.9513C30.1806 51.5652 30.6862 52.0743 31.3131 52.0843Z" fill="#EAEAEA"/>
<path fill-rule="evenodd" clip-rule="evenodd" d="M18.5924 52.0843C19.0424 52.0893 19.4367 51.8348 19.6238 51.4604C19.7704 51.2907 19.9929 51.2208 20.2204 51.1759C20.1648 51.4454 20.0991 51.7449 19.8817 51.9196C19.4974 52.0943 19.2294 52.4786 19.2193 52.9229C19.2092 53.5418 19.7148 54.0509 20.3417 54.0609C20.9687 54.0709 21.4844 53.5717 21.4945 52.9528C21.4996 52.5086 21.2417 52.1193 20.8625 51.9346C20.6805 51.7998 20.5996 51.4704 20.549 51.1859C20.7715 51.2358 20.994 51.3157 21.1355 51.4854C21.3125 51.8647 21.7018 52.1342 22.1518 52.1392C22.7787 52.1492 23.2944 51.6501 23.3045 51.0312C23.3147 50.4122 22.8091 49.9031 22.1821 49.8931C21.7321 49.8881 21.2923 50.1826 21.1052 50.562C20.9434 50.7317 20.7412 50.7716 20.5086 50.8115C20.4884 50.4921 20.5086 50.1477 20.5592 49.948C20.7968 49.2992 21.3883 48.5255 21.7069 48.266C21.2822 48.6203 19.5682 48.5954 19.1536 48.231C19.462 48.5006 20.0738 49.3291 20.2507 49.9431C20.3064 50.1876 20.2912 50.6468 20.2861 50.8065C20.0485 50.7616 19.8412 50.7167 19.6845 50.537C19.5075 50.1577 19.0778 49.8482 18.6278 49.8432C18.0008 49.8332 17.4851 50.3324 17.475 50.9513C17.4599 51.5652 17.9654 52.0743 18.5924 52.0843Z" fill="#EAEAEA"/>
</g>
<defs>
<clipPath id="clip0_3238_56936">
<rect width="53" height="74" fill="white" transform="translate(0.25)"/>
</clipPath>
</defs>
</svg>
