<svg width="54" height="74" viewBox="0 0 54 74" fill="none" xmlns="http://www.w3.org/2000/svg">
<g clip-path="url(#clip0_3238_56980)">
<rect x="0.882812" y="0.000976562" width="53" height="74" rx="2.65" fill="#292929"/>
<path d="M46.5876 56.9654C47.4303 58.6256 49.6275 58.0043 49.6425 56.3703C49.6576 54.5379 47.3952 53.5825 46.6478 51.8702L46.6377 51.8493L46.6277 51.8754C45.8452 53.5721 43.5628 54.4805 43.5477 56.3129C43.5277 57.9417 45.7097 58.6047 46.5876 56.9654Z" fill="#E04749"/>
<path d="M8.17706 16.7069C7.33433 15.0468 5.13719 15.668 5.12215 17.3021C5.1071 19.1345 7.36944 20.0898 8.11687 21.8021L8.1269 21.823L8.13693 21.7969C8.91947 20.1003 11.2019 19.1919 11.2169 17.3595C11.237 15.7307 9.05491 15.0677 8.17706 16.7069Z" fill="#E04749"/>
<path d="M8.14524 12.4562C7.62118 12.4562 7.14703 12.3648 6.7228 12.182C6.30688 11.9991 5.9783 11.7457 5.73707 11.4215C5.50415 11.0891 5.3877 10.711 5.3877 10.2872C5.3877 9.96304 5.44592 9.68463 5.56238 9.45194C5.68716 9.21093 5.84937 8.99901 6.04901 8.81618C6.25697 8.63335 6.48572 8.47545 6.73527 8.34248V8.29261C6.43581 8.05992 6.1821 7.79398 5.97414 7.4948C5.7745 7.19562 5.67468 6.83826 5.67468 6.42274C5.67468 5.97396 5.78282 5.58752 5.9991 5.26341C6.21537 4.93099 6.51484 4.67752 6.89748 4.50299C7.28013 4.32847 7.71684 4.24121 8.20763 4.24121C8.93965 4.24121 9.52193 4.44066 9.95449 4.83957C10.3954 5.23017 10.6158 5.75373 10.6158 6.41027C10.6158 6.65959 10.5659 6.89644 10.4661 7.12082C10.3746 7.3369 10.2498 7.5322 10.0917 7.70672C9.93369 7.87293 9.76317 8.01837 9.58016 8.14302V8.19289C9.82971 8.32586 10.0585 8.48791 10.2664 8.67906C10.4744 8.86189 10.6408 9.08627 10.7655 9.35221C10.8903 9.60984 10.9527 9.91318 10.9527 10.2622C10.9527 10.6777 10.8362 11.0517 10.6033 11.3841C10.3704 11.7083 10.0418 11.97 9.61759 12.1695C9.20167 12.3606 8.71089 12.4562 8.14524 12.4562ZM8.64434 7.69425C8.80239 7.51142 8.92301 7.32443 9.00619 7.13329C9.08938 6.94215 9.13097 6.74269 9.13097 6.53493C9.13097 6.32716 9.09354 6.14849 9.01867 5.9989C8.9438 5.84931 8.83151 5.73296 8.68178 5.64985C8.54036 5.55844 8.36984 5.51273 8.1702 5.51273C7.92896 5.51273 7.721 5.59168 7.54632 5.74958C7.37163 5.89917 7.28429 6.12356 7.28429 6.42274C7.28429 6.63881 7.34252 6.82164 7.45897 6.97123C7.57543 7.12082 7.73348 7.25379 7.93312 7.37014C8.14108 7.48649 8.37815 7.59453 8.64434 7.69425ZM8.18267 11.1847C8.38231 11.1847 8.56116 11.1515 8.71921 11.085C8.88558 11.0102 9.01451 10.9021 9.10601 10.7609C9.19752 10.6113 9.24327 10.4243 9.24327 10.1999C9.24327 9.96719 9.17256 9.77605 9.03115 9.62646C8.89805 9.46856 8.70257 9.33144 8.4447 9.21509C8.19515 9.09043 7.90401 8.95746 7.57127 8.81618C7.39659 8.97408 7.25101 9.16522 7.13456 9.38961C7.0181 9.60569 6.95987 9.83423 6.95987 10.0752C6.95987 10.3079 7.01394 10.5074 7.12208 10.6736C7.23854 10.8398 7.38827 10.9686 7.57127 11.06C7.76259 11.1431 7.96639 11.1847 8.18267 11.1847Z" fill="#E04749"/>
<path d="M46.6204 61.2162C47.1444 61.2162 47.6186 61.3076 48.0428 61.4904C48.4587 61.6732 48.7873 61.9267 49.0286 62.2508C49.2615 62.5832 49.3779 62.9614 49.3779 63.3852C49.3779 63.7093 49.3197 63.9877 49.2032 64.2204C49.0785 64.4614 48.9163 64.6734 48.7166 64.8562C48.5087 65.039 48.2799 65.1969 48.0304 65.3299L48.0304 65.3797C48.3298 65.6124 48.5835 65.8784 48.7915 66.1776C48.9911 66.4767 49.0909 66.8341 49.0909 67.2496C49.0909 67.6984 48.9828 68.0848 48.7665 68.409C48.5503 68.7414 48.2508 68.9948 47.8681 69.1694C47.4855 69.3439 47.0488 69.4312 46.558 69.4312C45.826 69.4312 45.2437 69.2317 44.8111 68.8328C44.3703 68.4422 44.1498 67.9186 44.1498 67.2621C44.1498 67.0128 44.1997 66.7759 44.2996 66.5515C44.3911 66.3355 44.5158 66.1402 44.6739 65.9656C44.8319 65.7994 45.0025 65.654 45.1855 65.5293L45.1855 65.4795C44.9359 65.3465 44.7072 65.1845 44.4992 64.9933C44.2912 64.8105 44.1249 64.5861 44.0001 64.3202C43.8753 64.0625 43.8129 63.7592 43.8129 63.4101C43.8129 62.9946 43.9294 62.6206 44.1623 62.2882C44.3952 61.9641 44.7238 61.7023 45.148 61.5029C45.564 61.3117 46.0547 61.2162 46.6204 61.2162ZM46.1213 65.9781C45.9632 66.1609 45.8426 66.3479 45.7594 66.5391C45.6762 66.7302 45.6347 66.9297 45.6347 67.1374C45.6347 67.3452 45.6721 67.5239 45.747 67.6735C45.8218 67.8231 45.9341 67.9394 46.0838 68.0225C46.2253 68.1139 46.3958 68.1596 46.5954 68.1596C46.8367 68.1596 47.0446 68.0807 47.2193 67.9228C47.394 67.7732 47.4813 67.5488 47.4813 67.2496C47.4813 67.0336 47.4231 66.8507 47.3067 66.7011C47.1902 66.5515 47.0321 66.4186 46.8325 66.3022C46.6245 66.1859 46.3875 66.0778 46.1213 65.9781ZM46.583 62.4877C46.3833 62.4877 46.2045 62.5209 46.0464 62.5874C45.88 62.6622 45.7511 62.7702 45.6596 62.9115C45.5681 63.0611 45.5224 63.2481 45.5224 63.4725C45.5224 63.7052 45.5931 63.8963 45.7345 64.0459C45.8676 64.2038 46.0631 64.3409 46.3209 64.4573C46.5705 64.5819 46.8616 64.7149 47.1944 64.8562C47.369 64.6983 47.5146 64.5071 47.6311 64.2828C47.7475 64.0667 47.8058 63.8381 47.8058 63.5971C47.8058 63.3644 47.7517 63.165 47.6435 62.9988C47.5271 62.8326 47.3774 62.7037 47.1944 62.6123C47.003 62.5292 46.7992 62.4877 46.583 62.4877Z" fill="#E04749"/>
<path d="M21.0218 20.5805C21.8437 18.9225 23.9375 19.5651 23.9375 21.2086C23.9375 23.0508 21.767 23.7021 21.0338 25.4167L21.0218 25.4413L21.0113 25.4167C20.278 23.7021 18.1075 23.0508 18.1075 21.2086C18.1062 19.5637 20.1999 18.9225 21.0218 20.5805Z" fill="#E14749"/>
<path d="M33.7425 20.5805C34.5644 18.9225 36.6582 19.5651 36.6582 21.2086C36.6582 23.0508 34.4877 23.7021 33.7545 25.4167L33.7425 25.4413L33.732 25.4167C32.9987 23.7021 30.8282 23.0508 30.8282 21.2086C30.8269 19.5637 32.9207 18.9225 33.7425 20.5805Z" fill="#E14749"/>
<path d="M33.7425 34.8901C34.5644 33.2321 36.6582 33.8747 36.6582 35.5182C36.6582 37.3604 34.4877 38.0117 33.7545 39.7262L33.7425 39.7509L33.732 39.7262C32.9987 38.0117 30.8282 37.3604 30.8282 35.5182C30.8269 33.8732 32.9207 33.2321 33.7425 34.8901Z" fill="#E14749"/>
<path d="M27.3822 27.7353C28.2041 26.0773 30.2979 26.7199 30.2979 28.3634C30.2979 30.2056 28.1273 30.8569 27.3941 32.5715L27.3822 32.5961L27.3716 32.5715C26.6384 30.8569 24.4679 30.2056 24.4679 28.3634C24.4665 26.7185 26.5603 26.0773 27.3822 27.7353Z" fill="#E14749"/>
<path d="M27.3834 45.9371C26.5615 47.595 24.4678 46.9525 24.4678 45.309C24.4678 43.4668 26.6383 42.8155 27.3715 41.1009L27.3834 41.0762L27.394 41.1009C28.1272 42.8155 30.2978 43.4668 30.2978 45.309C30.2991 46.9539 28.2053 47.595 27.3834 45.9371Z" fill="#E14749"/>
<path d="M21.0218 34.8901C21.8437 33.2321 23.9375 33.8747 23.9375 35.5182C23.9375 37.3604 21.767 38.0117 21.0338 39.7262L21.0218 39.7509L21.0113 39.7262C20.278 38.0117 18.1075 37.3604 18.1075 35.5182C18.1062 33.8732 20.1999 33.2321 21.0218 34.8901Z" fill="#E14749"/>
<path d="M33.7438 53.0918C32.9219 54.7498 30.8281 54.1072 30.8281 52.4638C30.8281 50.6216 32.9987 49.9703 33.7319 48.2557L33.7438 48.231L33.7544 48.2557C34.4876 49.9703 36.6581 50.6216 36.6581 52.4638C36.6594 54.1087 34.5657 54.7498 33.7438 53.0918Z" fill="#E14749"/>
<path d="M21.0231 53.0918C20.2012 54.7498 18.1074 54.1072 18.1074 52.4638C18.1074 50.6216 20.278 49.9703 21.0112 48.2557L21.0231 48.231L21.0337 48.2557C21.7669 49.9703 23.9374 50.6216 23.9374 52.4638C23.9387 54.1087 21.845 54.7498 21.0231 53.0918Z" fill="#E14749"/>
</g>
<defs>
<clipPath id="clip0_3238_56980">
<rect width="53" height="74" fill="white" transform="translate(0.75)"/>
</clipPath>
</defs>
</svg>
