<svg width="53" height="74" viewBox="0 0 53 74" fill="none" xmlns="http://www.w3.org/2000/svg">
<g clip-path="url(#clip0_3238_57348)">
<rect y="0.0012207" width="53" height="74" rx="2.65" fill="#292929"/>
<path d="M42.6648 54.6635C42.6648 56.3614 44.934 57.2267 45.7001 58.8077L45.7098 58.8311L45.7195 58.8077C46.4857 57.2267 48.7598 56.3614 48.7598 54.6682C48.7598 53.2462 46.8154 52.699 45.865 53.887C45.8456 53.9478 45.865 53.5082 45.928 53.2649C46.1559 52.5352 46.9754 51.4735 47.373 51.1461C46.8202 51.6044 44.5898 51.5998 44.0418 51.1461C44.4394 51.4782 45.2201 52.4978 45.4868 53.2649C45.5401 53.4754 45.5741 53.6906 45.5886 53.9057C44.6673 52.6148 42.6648 53.2135 42.6648 54.6635Z" fill="#EAEAEA"/>
<path d="M10.3352 19.0086C10.3352 17.3107 8.06597 16.4454 7.29985 14.8645L7.29015 14.8411L7.28045 14.8645C6.51434 16.4454 4.24023 17.3107 4.24023 19.004C4.24023 20.4259 6.18462 20.9732 7.13499 19.7851C7.15439 19.7243 7.13499 20.164 7.07196 20.4072C6.84406 21.1369 6.02461 22.1986 5.627 22.5261C6.17977 22.0677 8.41025 22.0724 8.95816 22.5261C8.56056 22.194 7.77989 21.1743 7.5132 20.4072C7.45987 20.1967 7.42592 19.9815 7.41137 19.7664C8.33265 21.0574 10.3352 20.4586 10.3352 19.0086Z" fill="#EAEAEA"/>
<path d="M7.4663 12.5121C7.0879 12.5121 6.72183 12.4369 6.36811 12.2867C6.01438 12.1364 5.69768 11.9027 5.41799 11.5854C5.1383 11.2682 4.91619 10.8634 4.75167 10.3708C4.58714 9.86997 4.50488 9.26893 4.50488 8.56772C4.50488 7.82476 4.59126 7.18198 4.76401 6.63938C4.93676 6.09677 5.1712 5.65016 5.46734 5.29955C5.76349 4.94895 6.10076 4.69017 6.47916 4.52321C6.85757 4.34791 7.25653 4.26025 7.67607 4.26025C8.19432 4.26025 8.64264 4.35625 9.02105 4.54825C9.39945 4.7319 9.71204 4.95312 9.95883 5.2119L9.00871 6.31381C8.86886 6.16355 8.68789 6.03416 8.46578 5.92564C8.24367 5.80877 8.01746 5.75034 7.78712 5.75034C7.49098 5.75034 7.2154 5.83799 6.96039 6.01329C6.71361 6.18859 6.51618 6.48494 6.36811 6.90233C6.22826 7.31137 6.15834 7.8665 6.15834 8.56772C6.15834 9.22719 6.21593 9.74476 6.33109 10.1204C6.45448 10.4877 6.61489 10.7507 6.81232 10.9093C7.00975 11.0595 7.2154 11.1347 7.42928 11.1347C7.61026 11.1347 7.77478 11.0888 7.92285 10.9969C8.07092 10.9051 8.1902 10.7674 8.28069 10.5837C8.37118 10.3917 8.41642 10.1455 8.41642 9.84493C8.41642 9.5611 8.37118 9.33571 8.28069 9.16876C8.1902 9.0018 8.06681 8.88076 7.91051 8.80563C7.76244 8.7305 7.58969 8.69293 7.39227 8.69293C7.18661 8.69293 6.97273 8.75554 6.75063 8.88076C6.53675 9.00598 6.34343 9.22719 6.17068 9.54441L6.08431 8.34233C6.28996 8.03346 6.5532 7.79972 6.87402 7.64111C7.19484 7.47416 7.48275 7.39068 7.73777 7.39068C8.18198 7.39068 8.58095 7.47833 8.93467 7.65363C9.2884 7.82894 9.56397 8.10024 9.7614 8.46754C9.96706 8.8265 10.0699 9.28563 10.0699 9.84493C10.0699 10.3959 9.9506 10.8717 9.71205 11.2724C9.48171 11.6731 9.16912 11.982 8.77426 12.199C8.37941 12.4077 7.94342 12.5121 7.4663 12.5121Z" fill="#EAEAEA"/>
<path d="M45.5337 61.4904C45.9121 61.4904 46.2782 61.5655 46.6319 61.7158C46.9856 61.866 47.3023 62.0998 47.582 62.417C47.8617 62.7342 48.0838 63.1391 48.2483 63.6316C48.4129 64.1325 48.4951 64.7335 48.4951 65.4347C48.4951 66.1777 48.4087 66.8205 48.236 67.3631C48.0632 67.9057 47.8288 68.3523 47.5327 68.7029C47.2365 69.0535 46.8992 69.3123 46.5208 69.4792C46.1424 69.6545 45.7435 69.7422 45.3239 69.7422C44.8057 69.7422 44.3574 69.6462 43.979 69.4542C43.6005 69.2705 43.288 69.0493 43.0412 68.7905L43.9913 67.6886C44.1311 67.8389 44.3121 67.9683 44.5342 68.0768C44.7563 68.1937 44.9825 68.2521 45.2129 68.2521C45.509 68.2521 45.7846 68.1645 46.0396 67.9892C46.2864 67.8138 46.4838 67.5175 46.6319 67.1001C46.7717 66.6911 46.8417 66.1359 46.8417 65.4347C46.8417 64.7752 46.7841 64.2577 46.6689 63.882C46.5455 63.5147 46.3851 63.2518 46.1877 63.0932C45.9903 62.9429 45.7846 62.8678 45.5707 62.8678C45.3897 62.8678 45.2252 62.9137 45.0771 63.0055C44.9291 63.0973 44.8098 63.2351 44.7193 63.4187C44.6288 63.6107 44.5836 63.857 44.5836 64.1575C44.5836 64.4413 44.6288 64.6667 44.7193 64.8337C44.8098 65.0006 44.9332 65.1217 45.0895 65.1968C45.2376 65.2719 45.4103 65.3095 45.6077 65.3095C45.8134 65.3095 46.0273 65.2469 46.2494 65.1217C46.4633 64.9965 46.6566 64.7752 46.8293 64.458L46.9157 65.6601C46.71 65.969 46.4468 66.2027 46.126 66.3613C45.8052 66.5283 45.5172 66.6118 45.2622 66.6118C44.818 66.6118 44.4191 66.5241 44.0653 66.3488C43.7116 66.1735 43.436 65.9022 43.2386 65.5349C43.0329 65.1759 42.9301 64.7168 42.9301 64.1575C42.9301 63.6066 43.0494 63.1307 43.288 62.73C43.5183 62.3293 43.8309 62.0205 44.2257 61.8034C44.6206 61.5947 45.0566 61.4904 45.5337 61.4904Z" fill="#EAEAEA"/>
<path d="M22.5249 22.7729C22.5249 21.4849 20.7489 20.8284 20.1494 19.6291L20.1418 19.6113L20.1342 19.6291C19.5346 20.8284 17.7549 21.4849 17.7549 22.7694C17.7549 23.8481 19.2766 24.2633 20.0203 23.362C20.0355 23.3158 20.0203 23.6494 19.971 23.8339C19.7927 24.3875 19.1514 25.1929 18.8402 25.4413C19.2728 25.0936 21.0184 25.0971 21.4472 25.4413C21.136 25.1894 20.525 24.4158 20.3163 23.8339C20.2746 23.6742 20.248 23.511 20.2366 23.3478C20.9576 24.3271 22.5249 23.8729 22.5249 22.7729Z" fill="#EAEAEA"/>
<path d="M35.2456 22.7729C35.2456 21.4849 33.4696 20.8284 32.8701 19.6291L32.8625 19.6113L32.8549 19.6291C32.2553 20.8284 30.4756 21.4849 30.4756 22.7694C30.4756 23.8481 31.9973 24.2633 32.7411 23.362C32.7562 23.3158 32.741 23.6494 32.6917 23.8339C32.5134 24.3875 31.8721 25.1929 31.5609 25.4413C31.9935 25.0936 33.7391 25.0971 34.1679 25.4413C33.8567 25.1894 33.2458 24.4158 33.037 23.8339C32.9953 23.6742 32.9687 23.511 32.9573 23.3478C33.6783 24.3271 35.2456 23.8729 35.2456 22.7729Z" fill="#EAEAEA"/>
<path d="M35.2456 37.0828C35.2456 35.7947 33.4696 35.1382 32.8701 33.9389L32.8625 33.9211L32.8549 33.9389C32.2553 35.1382 30.4756 35.7947 30.4756 37.0792C30.4756 38.1579 31.9973 38.5731 32.7411 37.6718C32.7562 37.6257 32.741 37.9592 32.6917 38.1437C32.5134 38.6973 31.8721 39.5028 31.5609 39.7511C31.9935 39.4034 33.7391 39.4069 34.1679 39.7511C33.8567 39.4992 33.2458 38.7257 33.037 38.1437C32.9953 37.984 32.9687 37.8208 32.9573 37.6576C33.6783 38.6369 35.2456 38.1828 35.2456 37.0828Z" fill="#EAEAEA"/>
<path d="M22.5249 37.0828C22.5249 35.7947 20.7489 35.1382 20.1494 33.9389L20.1418 33.9211L20.1342 33.9389C19.5346 35.1382 17.7549 35.7947 17.7549 37.0792C17.7549 38.1579 19.2766 38.5731 20.0203 37.6718C20.0355 37.6257 20.0203 37.9592 19.971 38.1437C19.7927 38.6973 19.1514 39.5028 18.8402 39.7511C19.2728 39.4034 21.0184 39.4069 21.4472 39.7511C21.136 39.4992 20.525 38.7257 20.3163 38.1437C20.2746 37.984 20.248 37.8208 20.2366 37.6576C20.9576 38.6369 22.5249 38.1828 22.5249 37.0828Z" fill="#EAEAEA"/>
<path d="M30.4751 50.8997C30.4751 52.1877 32.2511 52.8442 32.8506 54.0435L32.8582 54.0613L32.8658 54.0435C33.4654 52.8442 35.2451 52.1877 35.2451 50.9032C35.2451 49.8245 33.7234 49.4093 32.9797 50.3106C32.9645 50.3568 32.9797 50.0232 33.029 49.8387C33.2073 49.2852 33.8486 48.4797 34.1598 48.2313C33.7272 48.579 31.9816 48.5755 31.5528 48.2313C31.864 48.4832 32.475 49.2568 32.6837 49.8387C32.7254 49.9984 32.752 50.1616 32.7634 50.3248C32.0424 49.3455 30.4751 49.7997 30.4751 50.8997Z" fill="#EAEAEA"/>
<path d="M17.7544 50.8997C17.7544 52.1877 19.5304 52.8442 20.1299 54.0435L20.1375 54.0613L20.1451 54.0435C20.7447 52.8442 22.5244 52.1877 22.5244 50.9032C22.5244 49.8245 21.0027 49.4093 20.2589 50.3106C20.2438 50.3568 20.259 50.0232 20.3083 49.8387C20.4866 49.2852 21.1279 48.4797 21.4391 48.2313C21.0065 48.579 19.2609 48.5755 18.8321 48.2313C19.1433 48.4832 19.7542 49.2568 19.963 49.8387C20.0047 49.9984 20.0313 50.1616 20.0427 50.3248C19.3216 49.3455 17.7544 49.7997 17.7544 50.8997Z" fill="#EAEAEA"/>
</g>
<defs>
<clipPath id="clip0_3238_57348">
<rect width="53" height="74" fill="white"/>
</clipPath>
</defs>
</svg>
