<svg width="54" height="74" viewBox="0 0 54 74" fill="none" xmlns="http://www.w3.org/2000/svg">
<g clip-path="url(#clip0_3238_56846)">
<rect x="0.537109" y="0.000976562" width="53" height="74" rx="2.65" fill="#292929"/>
<path d="M44.652 56.9654C45.4948 58.6256 47.6919 58.0043 47.707 56.3703C47.722 54.5379 45.4597 53.5825 44.7122 51.8702L44.7022 51.8493L44.6922 51.8754C43.9096 53.5721 41.6272 54.4805 41.6122 56.3129C41.5921 57.9417 43.7742 58.6047 44.652 56.9654Z" fill="#E04749"/>
<path d="M9.42218 16.7064C8.57945 15.0463 6.38231 15.6676 6.36726 17.3016C6.35221 19.134 8.61456 20.0893 9.36198 21.8017L9.37202 21.8225L9.38205 21.7964C10.1646 20.0998 12.447 19.1914 12.462 17.359C12.4821 15.7302 10.3 15.0672 9.42218 16.7064Z" fill="#E04749"/>
<path d="M3.7168 12.3618V10.8717H5.4322V6.27625H3.95298V5.13677C4.3839 5.0533 4.74852 4.95312 5.04685 4.83625C5.35347 4.71938 5.64352 4.57747 5.91699 4.41051H7.25947V10.8717H8.7387V12.3618H3.7168Z" fill="#E04749"/>
<path d="M12.2901 12.5121C11.4448 12.5121 10.7611 12.1573 10.2391 11.4477C9.72527 10.7381 9.46838 9.70719 9.46838 8.35485C9.46838 6.99416 9.72527 5.97155 10.2391 5.28703C10.7611 4.60251 11.4448 4.26025 12.2901 4.26025C13.1354 4.26025 13.8149 4.60669 14.3287 5.29955C14.8508 5.98407 15.1118 7.00251 15.1118 8.35485C15.1118 9.70719 14.8508 10.7381 14.3287 11.4477C13.8149 12.1573 13.1354 12.5121 12.2901 12.5121ZM12.2901 11.0846C12.4973 11.0846 12.6837 11.0094 12.8495 10.8592C13.0152 10.7006 13.1436 10.4251 13.2348 10.0328C13.3342 9.63206 13.384 9.07276 13.384 8.35485C13.384 7.62859 13.3342 7.07346 13.2348 6.68946C13.1436 6.30546 13.0152 6.04251 12.8495 5.9006C12.6837 5.75868 12.4973 5.68773 12.2901 5.68773C12.0829 5.68773 11.8965 5.75868 11.7307 5.9006C11.565 6.04251 11.4324 6.30546 11.3329 6.68946C11.2418 7.07346 11.1962 7.62859 11.1962 8.35485C11.1962 9.07276 11.2418 9.63206 11.3329 10.0328C11.4324 10.4251 11.565 10.7006 11.7307 10.8592C11.8965 11.0094 12.0829 11.0846 12.2901 11.0846Z" fill="#E04749"/>
<path d="M50.3574 61.6406L50.3574 63.1307L48.642 63.1307L48.642 67.7262L50.1212 67.7262L50.1212 68.8657C49.6903 68.9491 49.3257 69.0493 49.0274 69.1662C48.7207 69.2831 48.4307 69.425 48.1572 69.5919L46.8147 69.5919L46.8147 63.1307L45.3355 63.1307L45.3355 61.6406L50.3574 61.6406Z" fill="#E04749"/>
<path d="M41.7841 61.4904C42.6294 61.4904 43.3131 61.8452 43.8352 62.5547C44.3489 63.2643 44.6058 64.2952 44.6058 65.6476C44.6058 67.0083 44.3489 68.0309 43.8352 68.7154C43.3131 69.3999 42.6294 69.7422 41.7841 69.7422C40.9389 69.7422 40.2593 69.3958 39.7455 68.7029C39.2235 68.0184 38.9624 66.9999 38.9624 65.6476C38.9624 64.2952 39.2235 63.2643 39.7455 62.5547C40.2593 61.8452 40.9389 61.4904 41.7841 61.4904ZM41.7841 62.9179C41.577 62.9179 41.3905 62.993 41.2248 63.1433C41.059 63.3019 40.9306 63.5773 40.8394 63.9697C40.74 64.3704 40.6903 64.9297 40.6903 65.6476C40.6903 66.3739 40.74 66.929 40.8394 67.313C40.9306 67.697 41.059 67.9599 41.2248 68.1018C41.3905 68.2438 41.577 68.3147 41.7841 68.3147C41.9913 68.3147 42.1778 68.2438 42.3435 68.1018C42.5092 67.9599 42.6418 67.697 42.7413 67.313C42.8324 66.929 42.878 66.3739 42.878 65.6476C42.878 64.9297 42.8324 64.3704 42.7413 63.9697C42.6418 63.5773 42.5092 63.3019 42.3435 63.1433C42.1778 62.993 41.9913 62.9179 41.7841 62.9179Z" fill="#E04749"/>
<path d="M20.6761 20.5805C21.498 18.9225 23.5918 19.5651 23.5918 21.2086C23.5918 23.0508 21.4213 23.7021 20.688 25.4167L20.6761 25.4413L20.6655 25.4167C19.9323 23.7021 17.7618 23.0508 17.7618 21.2086C17.7605 19.5637 19.8542 18.9225 20.6761 20.5805Z" fill="#E04749"/>
<path d="M33.3968 20.5805C34.2187 18.9225 36.3125 19.5651 36.3125 21.2086C36.3125 23.0508 34.142 23.7021 33.4088 25.4167L33.3968 25.4413L33.3863 25.4167C32.653 23.7021 30.4825 23.0508 30.4825 21.2086C30.4812 19.5637 32.5749 18.9225 33.3968 20.5805Z" fill="#E04749"/>
<path d="M33.3968 30.6503C34.2187 28.9924 36.3125 29.6349 36.3125 31.2784C36.3125 33.1206 34.142 33.7719 33.4088 35.4865L33.3968 35.5112L33.3863 35.4865C32.653 33.7719 30.4825 33.1206 30.4825 31.2784C30.4812 29.6335 32.5749 28.9924 33.3968 30.6503Z" fill="#E04749"/>
<path d="M20.6774 43.022C19.8555 44.68 17.7617 44.0374 17.7617 42.3939C17.7617 40.5517 19.9323 39.9004 20.6655 38.1859L20.6774 38.1612L20.688 38.1859C21.4212 39.9004 23.5917 40.5517 23.5917 42.3939C23.593 44.0389 21.4993 44.68 20.6774 43.022Z" fill="#E04749"/>
<path d="M27.0365 25.6152C27.8584 23.9572 29.9521 24.5998 29.9521 26.2433C29.9521 28.0855 27.7816 28.7368 27.0484 30.4513L27.0365 30.476L27.0259 30.4513C26.2927 28.7368 24.1221 28.0855 24.1221 26.2433C24.1208 24.5983 26.2146 23.9572 27.0365 25.6152Z" fill="#E04749"/>
<path d="M27.0377 48.0572C26.2158 49.7152 24.1221 49.0726 24.1221 47.4291C24.1221 45.5869 26.2926 44.9356 27.0258 43.221L27.0377 43.1964L27.0483 43.221C27.7815 44.9356 29.9521 45.5869 29.9521 47.4291C29.9534 49.074 27.8596 49.7152 27.0377 48.0572Z" fill="#E04749"/>
<path d="M20.6761 30.6503C21.498 28.9924 23.5918 29.6349 23.5918 31.2784C23.5918 33.1206 21.4213 33.7719 20.688 35.4865L20.6761 35.5112L20.6655 35.4865C19.9323 33.7719 17.7618 33.1206 17.7618 31.2784C17.7605 29.6335 19.8542 28.9924 20.6761 30.6503Z" fill="#E04749"/>
<path d="M33.3981 43.022C32.5762 44.68 30.4824 44.0374 30.4824 42.3939C30.4824 40.5517 32.653 39.9004 33.3862 38.1859L33.3981 38.1612L33.4087 38.1859C34.1419 39.9004 36.3124 40.5517 36.3124 42.3939C36.3137 44.0389 34.22 44.68 33.3981 43.022Z" fill="#E04749"/>
<path d="M33.3981 53.0918C32.5762 54.7498 30.4824 54.1072 30.4824 52.4638C30.4824 50.6216 32.653 49.9703 33.3862 48.2557L33.3981 48.231L33.4087 48.2557C34.1419 49.9703 36.3124 50.6216 36.3124 52.4638C36.3137 54.1087 34.22 54.7498 33.3981 53.0918Z" fill="#E04749"/>
<path d="M20.6774 53.0918C19.8555 54.7498 17.7617 54.1072 17.7617 52.4638C17.7617 50.6216 19.9323 49.9703 20.6655 48.2557L20.6774 48.231L20.688 48.2557C21.4212 49.9703 23.5917 50.6216 23.5917 52.4638C23.593 54.1087 21.4993 54.7498 20.6774 53.0918Z" fill="#E04749"/>
</g>
<defs>
<clipPath id="clip0_3238_56846">
<rect width="53" height="74" fill="white" transform="translate(0.537109)"/>
</clipPath>
</defs>
</svg>
