<svg width="53" height="74" viewBox="0 0 53 74" fill="none" xmlns="http://www.w3.org/2000/svg">
<g clip-path="url(#clip0_3238_56788)">
<rect y="0.000976562" width="53" height="74" rx="2.65" fill="#292929"/>
<path fill-rule="evenodd" clip-rule="evenodd" d="M42.2434 55.9696C42.7139 55.9748 43.1261 55.7087 43.3217 55.3173C43.475 55.1399 43.7076 55.0668 43.9454 55.0199C43.8873 55.3016 43.8186 55.6147 43.5913 55.7974C43.1896 55.98 42.9094 56.3818 42.8989 56.8462C42.8883 57.4933 43.4169 58.0255 44.0723 58.036C44.7277 58.0464 45.2669 57.5246 45.2775 56.8775C45.2827 56.4131 45.0132 56.0061 44.6167 55.813C44.4265 55.6721 44.3419 55.3277 44.289 55.0303C44.5216 55.0825 44.7542 55.166 44.9022 55.3434C45.0872 55.74 45.4942 56.0218 45.9646 56.027C46.62 56.0374 47.1592 55.5156 47.1698 54.8685C47.1803 54.2215 46.6518 53.6892 45.9963 53.6788C45.5259 53.6736 45.066 53.9814 44.8705 54.378C44.7013 54.5554 44.4899 54.5972 44.2467 54.6389C44.2256 54.305 44.2467 53.9449 44.2996 53.7362C44.548 53.0578 45.1665 52.249 45.4995 51.9776C45.0555 52.3481 43.2636 52.3221 42.8301 51.9411C43.1526 52.2229 43.7922 53.0891 43.9772 53.731C44.0353 53.9867 44.0194 54.4667 44.0142 54.6337C43.7657 54.5867 43.549 54.5398 43.3852 54.3519C43.2002 53.9554 42.7509 53.6318 42.2804 53.6266C41.625 53.6162 41.0858 54.138 41.0753 54.785C41.0594 55.4269 41.588 55.9591 42.2434 55.9696Z" fill="#EAEAEA"/>
<path fill-rule="evenodd" clip-rule="evenodd" d="M10.7566 17.7023C10.2861 17.6971 9.87385 17.9632 9.67828 18.3546C9.52499 18.532 9.29241 18.605 9.05455 18.652C9.1127 18.3702 9.18141 18.0571 9.4087 17.8745C9.81042 17.6919 10.0906 17.2901 10.1011 16.8256C10.1117 16.1786 9.58313 15.6463 8.9277 15.6359C8.27226 15.6255 7.73311 16.1473 7.72254 16.7943C7.71725 17.2588 7.98683 17.6658 8.38326 17.8589C8.57355 17.9997 8.65812 18.3441 8.71098 18.6416C8.4784 18.5894 8.24583 18.5059 8.09783 18.3285C7.91283 17.9319 7.50582 17.6501 7.03539 17.6449C6.37995 17.6345 5.84081 18.1563 5.83023 18.8033C5.81966 19.4504 6.34824 19.9827 7.00367 19.9931C7.47411 19.9983 7.93397 19.6904 8.12954 19.2939C8.29869 19.1164 8.51012 19.0747 8.75327 19.0329C8.77441 19.3669 8.75327 19.727 8.70041 19.9357C8.45198 20.614 7.83354 21.4229 7.50054 21.6942C7.94454 21.3237 9.73642 21.3498 10.1699 21.7307C9.84742 21.449 9.20784 20.5827 9.02284 19.9409C8.96469 19.6852 8.98055 19.2052 8.98584 19.0382C9.23427 19.0851 9.45099 19.1321 9.61485 19.3199C9.79985 19.7165 10.2491 20.0401 10.7196 20.0453C11.375 20.0557 11.9142 19.5339 11.9247 18.8868C11.9406 18.245 11.412 17.7127 10.7566 17.7023Z" fill="#EAEAEA"/>
<path d="M3.17969 12.3618V10.8717H4.89509V6.27625H3.41587V5.13677C3.84679 5.0533 4.21141 4.95312 4.50974 4.83625C4.81636 4.71938 5.10641 4.57747 5.37988 4.41051H6.72236V10.8717H8.20159V12.3618H3.17969Z" fill="#EAEAEA"/>
<path d="M11.753 12.5121C10.9077 12.5121 10.224 12.1573 9.70195 11.4477C9.18816 10.7381 8.93127 9.70719 8.93127 8.35485C8.93127 6.99416 9.18816 5.97155 9.70195 5.28703C10.224 4.60251 10.9077 4.26025 11.753 4.26025C12.5982 4.26025 13.2778 4.60669 13.7916 5.29955C14.3136 5.98407 14.5747 7.00251 14.5747 8.35485C14.5747 9.70719 14.3136 10.7381 13.7916 11.4477C13.2778 12.1573 12.5982 12.5121 11.753 12.5121ZM11.753 11.0846C11.9602 11.0846 12.1466 11.0094 12.3123 10.8592C12.4781 10.7006 12.6065 10.4251 12.6977 10.0328C12.7971 9.63206 12.8469 9.07276 12.8469 8.35485C12.8469 7.62859 12.7971 7.07346 12.6977 6.68946C12.6065 6.30546 12.4781 6.04251 12.3123 5.9006C12.1466 5.75868 11.9602 5.68773 11.753 5.68773C11.5458 5.68773 11.3593 5.75868 11.1936 5.9006C11.0279 6.04251 10.8953 6.30546 10.7958 6.68946C10.7047 7.07346 10.6591 7.62859 10.6591 8.35485C10.6591 9.07276 10.7047 9.63206 10.7958 10.0328C10.8953 10.4251 11.0279 10.7006 11.1936 10.8592C11.3593 11.0094 11.5458 11.0846 11.753 11.0846Z" fill="#EAEAEA"/>
<path d="M49.8203 61.6406L49.8203 63.1307L48.1049 63.1307L48.1049 67.7262L49.5841 67.7262L49.5841 68.8657C49.1532 68.9491 48.7886 69.0493 48.4903 69.1662C48.1836 69.2831 47.8936 69.425 47.6201 69.5919L46.2776 69.5919L46.2776 63.1307L44.7984 63.1307L44.7984 61.6406L49.8203 61.6406Z" fill="#EAEAEA"/>
<path d="M41.247 61.4904C42.0923 61.4904 42.776 61.8452 43.298 62.5547C43.8118 63.2643 44.0687 64.2952 44.0687 65.6476C44.0687 67.0083 43.8118 68.0309 43.298 68.7154C42.776 69.3999 42.0923 69.7422 41.247 69.7422C40.4018 69.7422 39.7222 69.3958 39.2084 68.7029C38.6864 68.0184 38.4253 66.9999 38.4253 65.6476C38.4253 64.2952 38.6864 63.2643 39.2084 62.5547C39.7222 61.8452 40.4018 61.4904 41.247 61.4904ZM41.247 62.9179C41.0398 62.9179 40.8534 62.993 40.6877 63.1433C40.5219 63.3019 40.3935 63.5773 40.3023 63.9697C40.2029 64.3704 40.1531 64.9297 40.1531 65.6476C40.1531 66.3739 40.2029 66.929 40.3023 67.313C40.3935 67.697 40.5219 67.9599 40.6877 68.1018C40.8534 68.2438 41.0398 68.3147 41.247 68.3147C41.4542 68.3147 41.6407 68.2438 41.8064 68.1018C41.9721 67.9599 42.1047 67.697 42.2042 67.313C42.2953 66.929 42.3409 66.3739 42.3409 65.6476C42.3409 64.9297 42.2953 64.3704 42.2042 63.9697C42.1047 63.5773 41.9721 63.3019 41.8064 63.1433C41.6407 62.993 41.4542 62.9179 41.247 62.9179Z" fill="#EAEAEA"/>
<path fill-rule="evenodd" clip-rule="evenodd" d="M21.9369 21.588C21.4869 21.583 21.0926 21.8376 20.9055 22.2119C20.7589 22.3817 20.5364 22.4515 20.3089 22.4965C20.3645 22.2269 20.4302 21.9274 20.6476 21.7528C21.0319 21.5781 21.2999 21.1937 21.31 20.7495C21.3201 20.1306 20.8145 19.6215 20.1875 19.6115C19.5606 19.6015 19.0449 20.1006 19.0348 20.7195C19.0297 21.1638 19.2876 21.5531 19.6668 21.7378C19.8488 21.8725 19.9297 22.202 19.9803 22.4865C19.7578 22.4366 19.5353 22.3567 19.3938 22.187C19.2168 21.8077 18.8275 21.5381 18.3775 21.5331C17.7506 21.5232 17.2349 22.0223 17.2248 22.6412C17.2146 23.2601 17.7202 23.7692 18.3472 23.7792C18.7972 23.7842 19.237 23.4897 19.4241 23.1104C19.5859 22.9407 19.7881 22.9008 20.0207 22.8608C20.0409 23.1803 20.0207 23.5247 19.9701 23.7243C19.7325 24.3732 19.141 25.1469 18.8224 25.4064C19.2471 25.052 20.9611 25.077 21.3757 25.4413C21.0673 25.1718 20.4555 24.3432 20.2786 23.7293C20.2229 23.4847 20.2381 23.0255 20.2432 22.8658C20.4808 22.9107 20.6881 22.9557 20.8448 23.1353C21.0218 23.5147 21.4515 23.8242 21.9015 23.8291C22.5285 23.8391 23.0442 23.34 23.0543 22.7211C23.0694 22.1071 22.5638 21.598 21.9369 21.588Z" fill="#EAEAEA"/>
<path fill-rule="evenodd" clip-rule="evenodd" d="M34.6576 21.588C34.2076 21.583 33.8133 21.8376 33.6262 22.2119C33.4796 22.3817 33.2571 22.4515 33.0296 22.4965C33.0852 22.2269 33.1509 21.9274 33.3683 21.7528C33.7526 21.5781 34.0206 21.1937 34.0307 20.7495C34.0408 20.1306 33.5352 19.6215 32.9083 19.6115C32.2813 19.6015 31.7656 20.1006 31.7555 20.7195C31.7504 21.1638 32.0083 21.5531 32.3875 21.7378C32.5695 21.8725 32.6504 22.202 32.701 22.4865C32.4785 22.4366 32.256 22.3567 32.1145 22.187C31.9375 21.8077 31.5482 21.5381 31.0982 21.5331C30.4713 21.5232 29.9556 22.0223 29.9455 22.6412C29.9353 23.2601 30.4409 23.7692 31.0679 23.7792C31.5179 23.7842 31.9577 23.4897 32.1448 23.1104C32.3066 22.9407 32.5088 22.9008 32.7414 22.8608C32.7616 23.1803 32.7414 23.5247 32.6908 23.7243C32.4532 24.3732 31.8617 25.1469 31.5431 25.4064C31.9678 25.052 33.6818 25.077 34.0964 25.4413C33.788 25.1718 33.1762 24.3432 32.9993 23.7293C32.9436 23.4847 32.9588 23.0255 32.9639 22.8658C33.2015 22.9107 33.4088 22.9557 33.5655 23.1353C33.7425 23.5147 34.1722 23.8242 34.6222 23.8291C35.2492 23.8391 35.7649 23.34 35.775 22.7211C35.7901 22.1071 35.2846 21.598 34.6576 21.588Z" fill="#EAEAEA"/>
<path fill-rule="evenodd" clip-rule="evenodd" d="M34.6576 31.6579C34.2076 31.6529 33.8133 31.9074 33.6262 32.2818C33.4796 32.4515 33.2571 32.5214 33.0296 32.5663C33.0852 32.2967 33.1509 31.9973 33.3683 31.8226C33.7526 31.6479 34.0206 31.2635 34.0307 30.8193C34.0408 30.2004 33.5352 29.6913 32.9083 29.6813C32.2813 29.6713 31.7656 30.1704 31.7555 30.7894C31.7504 31.2336 32.0083 31.6229 32.3875 31.8076C32.5695 31.9424 32.6504 32.2718 32.701 32.5563C32.4785 32.5064 32.256 32.4265 32.1145 32.2568C31.9375 31.8775 31.5482 31.608 31.0982 31.603C30.4713 31.593 29.9556 32.0921 29.9455 32.711C29.9353 33.33 30.4409 33.8391 31.0679 33.8491C31.5179 33.854 31.9577 33.5596 32.1448 33.1802C32.3066 33.0105 32.5088 32.9706 32.7414 32.9307C32.7616 33.2501 32.7414 33.5945 32.6908 33.7941C32.4532 34.443 31.8617 35.2167 31.5431 35.4762C31.9678 35.1218 33.6818 35.1468 34.0964 35.5112C33.788 35.2416 33.1762 34.4131 32.9993 33.7991C32.9436 33.5546 32.9588 33.0954 32.9639 32.9356C33.2015 32.9806 33.4088 33.0255 33.5655 33.2052C33.7425 33.5845 34.1722 33.894 34.6222 33.899C35.2492 33.9089 35.7649 33.4098 35.775 32.7909C35.7901 32.177 35.2846 31.6678 34.6576 31.6579Z" fill="#EAEAEA"/>
<path fill-rule="evenodd" clip-rule="evenodd" d="M18.3424 42.0145C18.7924 42.0195 19.1867 41.7649 19.3738 41.3906C19.5204 41.2209 19.7429 41.151 19.9704 41.1061C19.9148 41.3756 19.8491 41.6751 19.6317 41.8498C19.2474 42.0245 18.9794 42.4088 18.9693 42.853C18.9592 43.472 19.4648 43.9811 20.0917 43.9911C20.7187 44.001 21.2344 43.5019 21.2445 42.883C21.2496 42.4388 20.9917 42.0494 20.6125 41.8648C20.4305 41.73 20.3496 41.4006 20.299 41.1161C20.5215 41.166 20.744 41.2458 20.8855 41.4155C21.0625 41.7949 21.4518 42.0644 21.9018 42.0694C22.5287 42.0794 23.0444 41.5803 23.0545 40.9613C23.0647 40.3424 22.5591 39.8333 21.9321 39.8233C21.4821 39.8183 21.0423 40.1128 20.8552 40.4921C20.6934 40.6619 20.4912 40.7018 20.2586 40.7417C20.2384 40.4223 20.2586 40.0779 20.3092 39.8782C20.5468 39.2294 21.1383 38.4557 21.4569 38.1961C21.0322 38.5505 19.3182 38.5256 18.9036 38.1612C19.212 38.4307 19.8238 39.2593 20.0007 39.8732C20.0564 40.1178 20.0412 40.577 20.0361 40.7367C19.7985 40.6918 19.5912 40.6469 19.4345 40.4672C19.2575 40.0879 18.8278 39.7784 18.3778 39.7734C17.7508 39.7634 17.2351 40.2625 17.225 40.8815C17.2099 41.4954 17.7154 42.0045 18.3424 42.0145Z" fill="#EAEAEA"/>
<path fill-rule="evenodd" clip-rule="evenodd" d="M28.2973 26.6227C27.8473 26.6177 27.4529 26.8723 27.2658 27.2466C27.1192 27.4163 26.8968 27.4862 26.6692 27.5311C26.7249 27.2616 26.7906 26.9621 27.008 26.7874C27.3922 26.6127 27.6602 26.2284 27.6703 25.7842C27.6804 25.1652 27.1748 24.6561 26.5479 24.6461C25.921 24.6362 25.4053 25.1353 25.3951 25.7542C25.3901 26.1984 25.6479 26.5878 26.0271 26.7724C26.2091 26.9072 26.29 27.2366 26.3406 27.5211C26.1181 27.4712 25.8957 27.3914 25.7541 27.2217C25.5772 26.8423 25.1878 26.5728 24.7379 26.5678C24.1109 26.5578 23.5952 27.057 23.5851 27.6759C23.575 28.2948 24.0806 28.8039 24.7075 28.8139C25.1575 28.8189 25.5974 28.5244 25.7845 28.1451C25.9462 27.9754 26.1485 27.9354 26.3811 27.8955C26.4013 28.2149 26.3811 28.5593 26.3305 28.759C26.0929 29.4079 25.5013 30.1815 25.1828 30.4411C25.6075 30.0867 27.3215 30.1116 27.7361 30.476C27.4276 30.2065 26.8159 29.3779 26.6389 28.764C26.5833 28.5194 26.5985 28.0602 26.6035 27.9005C26.8411 27.9454 27.0484 27.9903 27.2052 28.17C27.3821 28.5494 27.8119 28.8588 28.2619 28.8638C28.8888 28.8738 29.4045 28.3747 29.4146 27.7557C29.4298 27.1418 28.9242 26.6327 28.2973 26.6227Z" fill="#EAEAEA"/>
<path fill-rule="evenodd" clip-rule="evenodd" d="M24.7027 47.0497C25.1527 47.0547 25.5471 46.8001 25.7342 46.4257C25.8808 46.256 26.1032 46.1862 26.3308 46.1412C26.2751 46.4108 26.2094 46.7102 25.992 46.8849C25.6078 47.0596 25.3398 47.444 25.3297 47.8882C25.3196 48.5071 25.8252 49.0162 26.4521 49.0262C27.079 49.0362 27.5947 48.5371 27.6049 47.9181C27.6099 47.4739 27.3521 47.0846 26.9729 46.8999C26.7909 46.7651 26.71 46.4357 26.6594 46.1512C26.8819 46.2011 27.1043 46.281 27.2459 46.4507C27.4228 46.83 27.8122 47.0996 28.2621 47.1046C28.8891 47.1145 29.4048 46.6154 29.4149 45.9965C29.425 45.3776 28.9194 44.8685 28.2925 44.8585C27.8425 44.8535 27.4026 45.148 27.2155 45.5273C27.0538 45.697 26.8515 45.7369 26.6189 45.7769C26.5987 45.4574 26.6189 45.113 26.6695 44.9134C26.9071 44.2645 27.4987 43.4908 27.8172 43.2313C27.3925 43.5857 25.6785 43.5607 25.2639 43.1964C25.5724 43.4659 26.1841 44.2945 26.3611 44.9084C26.4167 45.153 26.4015 45.6122 26.3965 45.7719C26.1589 45.727 25.9516 45.682 25.7948 45.5024C25.6179 45.123 25.1881 44.8135 24.7381 44.8086C24.1112 44.7986 23.5955 45.2977 23.5854 45.9166C23.5702 46.5306 24.0758 47.0397 24.7027 47.0497Z" fill="#EAEAEA"/>
<path fill-rule="evenodd" clip-rule="evenodd" d="M21.9369 31.6579C21.4869 31.6529 21.0926 31.9074 20.9055 32.2818C20.7589 32.4515 20.5364 32.5214 20.3089 32.5663C20.3645 32.2967 20.4302 31.9973 20.6476 31.8226C21.0319 31.6479 21.2999 31.2635 21.31 30.8193C21.3201 30.2004 20.8145 29.6913 20.1875 29.6813C19.5606 29.6713 19.0449 30.1704 19.0348 30.7894C19.0297 31.2336 19.2876 31.6229 19.6668 31.8076C19.8488 31.9424 19.9297 32.2718 19.9803 32.5563C19.7578 32.5064 19.5353 32.4265 19.3938 32.2568C19.2168 31.8775 18.8275 31.608 18.3775 31.603C17.7506 31.593 17.2349 32.0921 17.2248 32.711C17.2146 33.33 17.7202 33.8391 18.3472 33.8491C18.7972 33.854 19.237 33.5596 19.4241 33.1802C19.5859 33.0105 19.7881 32.9706 20.0207 32.9307C20.0409 33.2501 20.0207 33.5945 19.9701 33.7941C19.7325 34.443 19.141 35.2167 18.8224 35.4762C19.2471 35.1218 20.9611 35.1468 21.3757 35.5112C21.0673 35.2416 20.4555 34.4131 20.2786 33.7991C20.2229 33.5546 20.2381 33.0954 20.2432 32.9356C20.4808 32.9806 20.6881 33.0255 20.8448 33.2052C21.0218 33.5845 21.4515 33.894 21.9015 33.899C22.5285 33.9089 23.0442 33.4098 23.0543 32.7909C23.0694 32.177 22.5638 31.6678 21.9369 31.6579Z" fill="#EAEAEA"/>
<path fill-rule="evenodd" clip-rule="evenodd" d="M31.0631 42.0145C31.5131 42.0195 31.9074 41.7649 32.0945 41.3906C32.2411 41.2209 32.4636 41.151 32.6911 41.1061C32.6355 41.3756 32.5698 41.6751 32.3524 41.8498C31.9681 42.0245 31.7001 42.4088 31.69 42.853C31.6799 43.472 32.1855 43.9811 32.8125 43.9911C33.4394 44.001 33.9551 43.5019 33.9652 42.883C33.9703 42.4388 33.7124 42.0494 33.3332 41.8648C33.1512 41.73 33.0703 41.4006 33.0197 41.1161C33.2422 41.166 33.4647 41.2458 33.6062 41.4155C33.7832 41.7949 34.1725 42.0644 34.6225 42.0694C35.2494 42.0794 35.7651 41.5803 35.7752 40.9613C35.7854 40.3424 35.2798 39.8333 34.6528 39.8233C34.2028 39.8183 33.763 40.1128 33.5759 40.4921C33.4141 40.6619 33.2119 40.7018 32.9793 40.7417C32.9591 40.4223 32.9793 40.0779 33.0299 39.8782C33.2675 39.2294 33.859 38.4557 34.1776 38.1961C33.7529 38.5505 32.0389 38.5256 31.6243 38.1612C31.9327 38.4307 32.5445 39.2593 32.7214 39.8732C32.7771 40.1178 32.7619 40.577 32.7568 40.7367C32.5192 40.6918 32.3119 40.6469 32.1552 40.4672C31.9782 40.0879 31.5485 39.7784 31.0985 39.7734C30.4715 39.7634 29.9558 40.2625 29.9457 40.8815C29.9306 41.4954 30.4362 42.0045 31.0631 42.0145Z" fill="#EAEAEA"/>
<path fill-rule="evenodd" clip-rule="evenodd" d="M31.0631 52.0843C31.5131 52.0893 31.9074 51.8348 32.0945 51.4604C32.2411 51.2907 32.4636 51.2208 32.6911 51.1759C32.6355 51.4454 32.5698 51.7449 32.3524 51.9196C31.9681 52.0943 31.7001 52.4786 31.69 52.9229C31.6799 53.5418 32.1855 54.0509 32.8125 54.0609C33.4394 54.0709 33.9551 53.5717 33.9652 52.9528C33.9703 52.5086 33.7124 52.1193 33.3332 51.9346C33.1512 51.7998 33.0703 51.4704 33.0197 51.1859C33.2422 51.2358 33.4647 51.3157 33.6062 51.4854C33.7832 51.8647 34.1725 52.1342 34.6225 52.1392C35.2494 52.1492 35.7651 51.6501 35.7752 51.0312C35.7854 50.4122 35.2798 49.9031 34.6528 49.8931C34.2028 49.8881 33.763 50.1826 33.5759 50.562C33.4141 50.7317 33.2119 50.7716 32.9793 50.8115C32.9591 50.4921 32.9793 50.1477 33.0299 49.948C33.2675 49.2992 33.859 48.5255 34.1776 48.266C33.7529 48.6203 32.0389 48.5954 31.6243 48.231C31.9327 48.5006 32.5445 49.3291 32.7214 49.9431C32.7771 50.1876 32.7619 50.6468 32.7568 50.8065C32.5192 50.7616 32.3119 50.7167 32.1552 50.537C31.9782 50.1577 31.5485 49.8482 31.0985 49.8432C30.4715 49.8332 29.9558 50.3324 29.9457 50.9513C29.9306 51.5652 30.4362 52.0743 31.0631 52.0843Z" fill="#EAEAEA"/>
<path fill-rule="evenodd" clip-rule="evenodd" d="M18.3424 52.0843C18.7924 52.0893 19.1867 51.8348 19.3738 51.4604C19.5204 51.2907 19.7429 51.2208 19.9704 51.1759C19.9148 51.4454 19.8491 51.7449 19.6317 51.9196C19.2474 52.0943 18.9794 52.4786 18.9693 52.9229C18.9592 53.5418 19.4648 54.0509 20.0917 54.0609C20.7187 54.0709 21.2344 53.5717 21.2445 52.9528C21.2496 52.5086 20.9917 52.1193 20.6125 51.9346C20.4305 51.7998 20.3496 51.4704 20.299 51.1859C20.5215 51.2358 20.744 51.3157 20.8855 51.4854C21.0625 51.8647 21.4518 52.1342 21.9018 52.1392C22.5287 52.1492 23.0444 51.6501 23.0545 51.0312C23.0647 50.4122 22.5591 49.9031 21.9321 49.8931C21.4821 49.8881 21.0423 50.1826 20.8552 50.562C20.6934 50.7317 20.4912 50.7716 20.2586 50.8115C20.2384 50.4921 20.2586 50.1477 20.3092 49.948C20.5468 49.2992 21.1383 48.5255 21.4569 48.266C21.0322 48.6203 19.3182 48.5954 18.9036 48.231C19.212 48.5006 19.8238 49.3291 20.0007 49.9431C20.0564 50.1876 20.0412 50.6468 20.0361 50.8065C19.7985 50.7616 19.5912 50.7167 19.4345 50.537C19.2575 50.1577 18.8278 49.8482 18.3778 49.8432C17.7508 49.8332 17.2351 50.3324 17.225 50.9513C17.2099 51.5652 17.7154 52.0743 18.3424 52.0843Z" fill="#EAEAEA"/>
</g>
<defs>
<clipPath id="clip0_3238_56788">
<rect width="53" height="74" fill="white"/>
</clipPath>
</defs>
</svg>
