<svg xmlns="http://www.w3.org/2000/svg" width="18" height="18" fill="none"><path fill="currentColor" d="M9 1S3.433 5.747.321 8.317A.926.926 0 0 0 0 9c0 .236.095.462.264.629.168.166.397.26.636.26h1.8v6.222c0 .236.095.462.264.629.168.166.397.26.636.26h2.7a.906.906 0 0 0 .636-.26.883.883 0 0 0 .264-.629v-3.555h3.6v3.555c0 .236.095.462.264.629.168.166.397.26.636.26h2.7a.906.906 0 0 0 .636-.26.883.883 0 0 0 .264-.629V9.89h1.8a.906.906 0 0 0 .636-.26.862.862 0 0 0-.081-1.311C14.565 5.746 9 1 9 1Z"/></svg>