<svg xmlns="http://www.w3.org/2000/svg" width="19" height="18" fill="none"><path fill="currentColor" d="M15.85 5.33c-.68 0-1.23.547-1.23 1.221 0 .33.133.628.348.848l-2.524 2.428-2.617-4.12a1.46 1.46 0 0 0 .693-1.24C10.52 3.657 9.858 3 9.04 3c-.816 0-1.478.657-1.478 1.467 0 .523.277.978.691 1.238L5.637 9.827 3.115 7.4a1.21 1.21 0 0 0 .348-.848c0-.674-.55-1.22-1.23-1.22-.678 0-1.228.546-1.228 1.22a1.225 1.225 0 0 0 1.447 1.198l1.165 5.62h10.849l1.165-5.62a1.225 1.225 0 0 0 1.447-1.198c0-.674-.55-1.22-1.229-1.22ZM3.617 14.034v1.572h10.849v-1.572H3.617Z"/></svg>