<svg width="30" height="30" viewBox="0 0 30 30" fill="none" xmlns="http://www.w3.org/2000/svg">
<g clip-path="url(#clip0_9390_1041)">
<path d="M15 30C23.2845 30 30 23.2845 30 15C30 6.7155 23.2845 0 15 0C6.7155 0 0 6.7155 0 15C0 23.2845 6.7155 30 15 30Z" fill="#0AC18E"/>
<path d="M19.6785 9.96299C18.924 8.25299 17.1915 7.88849 15.072 8.24249L14.3895 5.59949L12.7845 6.01499L13.4535 8.64899C13.0305 8.75549 12.597 8.84699 12.1665 8.96999L11.496 6.34949L9.89101 6.76499L10.572 9.40649C10.2255 9.50549 7.32751 10.248 7.32751 10.248L7.77001 11.97C7.77001 11.97 8.94901 11.6385 8.93851 11.6655C9.59251 11.493 9.90151 11.8215 10.0455 12.1305L11.9205 19.371C11.9415 19.581 11.904 19.938 11.4555 20.0595C11.481 20.0745 10.2855 20.3595 10.2855 20.3595L10.461 22.3665C10.461 22.3665 13.332 21.6315 13.7085 21.537L14.3985 24.21L16.0035 23.7945L15.315 21.102C15.756 21 16.1865 20.892 16.605 20.7825L17.2905 23.4585L18.8985 23.0445L18.2085 20.3745C20.6835 19.7745 22.431 18.213 22.0725 15.8265C21.8445 14.3865 20.2725 13.206 18.9675 13.074C19.77 12.3615 20.1765 11.322 19.6785 9.96299ZM18.906 16.263C19.2255 18.6285 15.939 18.918 14.8545 19.203L13.9095 15.666C14.9985 15.381 18.3645 14.181 18.9045 16.263H18.906ZM16.926 11.448C17.265 13.548 14.4555 13.7925 13.548 14.025L12.69 10.815C13.599 10.59 16.236 9.50249 16.926 11.448Z" fill="#E6EAED"/>
</g>
<defs>
<clipPath id="clip0_9390_1041">
<rect width="30" height="30" fill="white"/>
</clipPath>
</defs>
</svg>
