<svg width="30" height="30" viewBox="0 0 30 30" fill="none" xmlns="http://www.w3.org/2000/svg">
<g clip-path="url(#clip0_9390_973)">
<path d="M29.55 18.63C27.5475 26.664 19.407 31.5555 11.37 29.55C3.33602 27.549 -1.55548 19.41 0.450017 11.3745C2.45252 3.336 10.59 -1.554 18.627 0.449998C26.664 2.454 31.5525 10.5945 29.55 18.63Z" fill="#F89B2B"/>
<path d="M22.458 12.942C22.8 10.737 21.054 9.549 18.663 8.757L19.4385 5.769L17.547 5.316L16.7925 8.226C16.2945 8.106 15.7845 7.995 15.276 7.8825L16.0365 4.953L14.145 4.5L13.3695 7.488C12.9656 7.40082 12.5626 7.30981 12.1605 7.215L12.1635 7.206L9.5535 6.579L9.0495 8.523C9.0495 8.523 10.4535 8.832 10.4235 8.8515C11.19 9.0345 11.3295 9.522 11.3055 9.909L10.4235 13.314C10.476 13.3275 10.5435 13.3455 10.6185 13.374L10.4205 13.3275L9.183 18.0975C9.0885 18.3225 8.8515 18.657 8.3145 18.5295C8.334 18.5565 6.9405 18.1995 6.9405 18.1995L6 20.283L8.463 20.8725C8.9205 20.9835 9.3705 21.0975 9.813 21.207L9.0285 24.231L10.9185 24.684L11.694 21.693C12.2115 21.828 12.7125 21.9525 13.203 22.068L12.429 25.047L14.322 25.5L15.105 22.482C18.3315 23.07 20.7585 22.833 21.78 20.0265C22.6035 17.7675 21.7395 16.464 20.04 15.6135C21.2775 15.339 22.209 14.556 22.458 12.942ZM18.1335 18.7725C17.5485 21.0315 13.593 19.8105 12.309 19.503L13.3485 15.498C14.631 15.8055 18.7455 16.416 18.1335 18.7725ZM18.7185 12.909C18.186 14.964 14.8935 13.9215 13.824 13.665L14.766 10.032C15.834 10.287 19.275 10.767 18.7185 12.909Z" fill="#E6EAED"/>
</g>
<defs>
<clipPath id="clip0_9390_973">
<rect width="30" height="30" fill="white"/>
</clipPath>
</defs>
</svg>
