<svg width="20" height="21" viewBox="0 0 20 21" fill="none" xmlns="http://www.w3.org/2000/svg">
<path d="M15 8.167C15 7.45967 14.719 6.78131 14.2189 6.28115C13.7187 5.78099 13.0403 5.5 12.333 5.5H3.667C3.31676 5.5 2.96996 5.56898 2.64638 5.70301C2.32281 5.83704 2.0288 6.03349 1.78115 6.28115C1.53349 6.5288 1.33704 6.82281 1.20301 7.14638C1.06898 7.46996 1 7.81676 1 8.167V16.833C1 17.1832 1.06898 17.53 1.20301 17.8536C1.33704 18.1772 1.53349 18.4712 1.78115 18.7189C2.0288 18.9665 2.32281 19.163 2.64638 19.297C2.96996 19.431 3.31676 19.5 3.667 19.5H12.333C12.6832 19.5 13.03 19.431 13.3536 19.297C13.6772 19.163 13.9712 18.9665 14.2189 18.7189C14.4665 18.4712 14.663 18.1772 14.797 17.8536C14.931 17.53 15 17.1832 15 16.833V8.167Z" fill="#7E7E7E" stroke="#7E7E7E" stroke-width="2" stroke-linecap="round" stroke-linejoin="round"/>
<path d="M17.988 15.237C18.2947 15.0622 18.5497 14.8095 18.7274 14.5045C18.9051 14.1995 18.9991 13.853 19 13.5V3.5C19 2.4 18.1 1.5 17 1.5H7C6.25 1.5 5.842 1.885 5.5 2.5" stroke="#7E7E7E" stroke-width="2" stroke-linecap="round" stroke-linejoin="round"/>
</svg>
