<svg width="30" height="30" viewBox="0 0 30 30" fill="none" xmlns="http://www.w3.org/2000/svg">
<rect width="30" height="30" rx="15" fill="#B78A51"/>
<path d="M21.4662 12.0641C22.5357 12.0074 23.2309 11.7911 24.0487 11.3418C25.124 10.7512 25.5803 8.8979 25.5803 8.8979C22.9399 10.672 19.3301 11.0473 19.3301 11.0473C18.2546 12.7713 17.2635 13.7806 16.4344 14.366C16.298 14.2868 16.1756 14.1858 16.0719 14.0672C15.8152 13.7287 15.7854 13.3848 15.7936 13.3264C15.8018 13.2681 15.8621 13.1736 15.999 13.132C16.0455 13.1155 16.0952 13.1103 16.1441 13.1168C16.193 13.1234 16.2396 13.1414 16.28 13.1695C16.24 12.9307 16.2177 12.8164 16.0774 12.698C15.947 12.5885 15.7097 12.5717 15.7097 12.5717C15.5906 12.4757 15.4476 12.4134 15.2959 12.3916C14.8974 12.336 14.6342 12.5073 14.4473 12.6813C14.1977 12.9136 14.1782 13.3466 13.9985 13.8437C13.9178 14.0632 13.7607 14.2465 13.5558 14.3602C12.7288 13.7734 11.7415 12.7652 10.6697 11.048C10.6697 11.048 7.05992 10.6727 4.41992 8.89858C4.41992 8.89858 4.8759 10.7519 5.95113 11.3425C6.76929 11.7918 7.46454 12.0081 8.53362 12.0648C8.53362 12.0648 7.0921 12.1879 5.43559 11.3923C5.43559 11.3923 6.36671 12.8549 7.24306 13.3326C8.11941 13.8102 9.21381 13.9989 9.9926 13.9604C9.9926 13.9604 8.63803 14.2855 7.51247 13.8102C7.51247 13.8102 8.69485 15.3619 10.8131 15.3114C10.8131 15.3114 10.1261 15.4844 9.48562 15.3701C9.48562 15.3701 10.4602 16.1934 11.2657 16.3289C11.2657 16.3289 11.5909 16.3933 12.2632 16.3207C12.056 16.4488 11.818 16.519 11.5741 16.5237C11.5741 16.5237 12.2622 16.9331 12.7743 16.9778C12.9101 16.9867 13.0464 16.9813 13.181 16.9614C13.0819 17.0213 12.9724 17.0621 12.8582 17.0815C12.8582 17.0815 13.5411 17.3241 13.9879 17.1125C13.4918 18.6114 13.1262 19.0607 13.1262 19.0607L13.2577 19.217C13.2713 19.2334 13.2885 19.2464 13.308 19.255C13.3276 19.2636 13.3488 19.2675 13.3701 19.2664C13.3915 19.2654 13.4122 19.2594 13.4308 19.2489C13.4494 19.2384 13.4652 19.2237 13.4771 19.206L13.7715 18.8034L13.4268 19.4268L13.5716 19.5711C13.5866 19.5863 13.6049 19.5977 13.6252 19.6046C13.6454 19.6114 13.667 19.6134 13.6881 19.6105C13.7093 19.6075 13.7294 19.5997 13.747 19.5876C13.7646 19.5755 13.7791 19.5594 13.7893 19.5407L13.982 19.2211L13.726 19.8062L13.8841 19.9362C13.9005 19.9499 13.9199 19.9595 13.9407 19.9644C13.9616 19.9693 13.9832 19.9693 14.004 19.9643C14.0248 19.9593 14.0442 19.9495 14.0605 19.9358C14.0768 19.922 14.0897 19.9046 14.0981 19.885L14.2165 19.6376L14.071 20.1051L14.2422 20.2166C14.26 20.2281 14.2802 20.2353 14.3012 20.2377C14.3223 20.2401 14.3436 20.2376 14.3635 20.2304C14.3834 20.2232 14.4013 20.2115 14.4159 20.1962C14.4305 20.1809 14.4414 20.1624 14.4476 20.1422L14.5845 19.7485L14.4839 20.2808C14.4765 20.3203 14.4807 20.3611 14.4961 20.3983C14.5114 20.4355 14.5373 20.4674 14.5705 20.4903L14.8697 20.6492L14.9854 19.8986L15.1007 20.6492L15.4003 20.4903C15.4335 20.4674 15.4593 20.4355 15.4747 20.3983C15.4901 20.3611 15.4943 20.3203 15.4869 20.2808L15.39 19.7485L15.5269 20.1422C15.5332 20.1624 15.544 20.1809 15.5586 20.1962C15.5732 20.2115 15.5912 20.2232 15.6111 20.2304C15.631 20.2376 15.6523 20.2401 15.6733 20.2377C15.6944 20.2353 15.7146 20.2281 15.7323 20.2166L15.9035 20.1051L15.758 19.6376L15.8764 19.885C15.8848 19.9046 15.8977 19.922 15.914 19.9358C15.9304 19.9495 15.9497 19.9593 15.9705 19.9643C15.9913 19.9693 16.013 19.9693 16.0338 19.9644C16.0546 19.9595 16.074 19.9499 16.0904 19.9362L16.2486 19.8062L15.9922 19.2211L16.1852 19.5407C16.1955 19.5594 16.21 19.5755 16.2275 19.5876C16.2451 19.5997 16.2653 19.6075 16.2864 19.6105C16.3076 19.6134 16.3291 19.6114 16.3494 19.6046C16.3696 19.5977 16.3879 19.5863 16.4029 19.5711L16.5477 19.4268L16.2003 18.8038L16.4947 19.2064C16.5065 19.2241 16.5224 19.2389 16.541 19.2494C16.5596 19.2599 16.5804 19.2659 16.6018 19.267C16.6232 19.2681 16.6445 19.2641 16.6641 19.2555C16.6836 19.2469 16.7009 19.2338 16.7145 19.2173L16.8459 19.061C16.8459 19.061 16.4789 18.6103 15.9815 17.1047V17.1009C16.4266 17.3364 17.1396 17.0832 17.1396 17.0832C17.0255 17.0637 16.9161 17.023 16.8172 16.9631C16.9516 16.983 17.0878 16.9884 17.2235 16.9795C17.737 16.9341 18.4237 16.5254 18.4237 16.5254C18.1798 16.5207 17.9418 16.4506 17.7346 16.3224C18.4069 16.395 18.7321 16.3306 18.7321 16.3306C19.5393 16.1941 20.5122 15.3718 20.5122 15.3718C19.8717 15.4861 19.1847 15.3132 19.1847 15.3132C21.303 15.3626 22.4857 13.8119 22.4857 13.8119C21.3601 14.2872 20.0056 13.9621 20.0056 13.9621C20.784 14.0006 21.8787 13.8116 22.7547 13.3343C23.6308 12.857 24.5643 11.3919 24.5643 11.3919C22.9078 12.1872 21.4662 12.0641 21.4662 12.0641Z" fill="white"/>
<path d="M22.8965 14.119C22.8687 14.1555 22.5062 14.6212 21.8394 15.0569C21.8229 18.8021 18.7612 21.8434 15.0001 21.8434C11.239 21.8434 8.17692 18.8017 8.16049 15.0569C7.49364 14.6212 7.13146 14.1555 7.10339 14.119L6.84836 13.784C6.78599 14.1952 6.75475 14.6106 6.75491 15.0266C6.76894 17.1968 7.64379 19.2734 9.18851 20.8031C10.7332 22.3328 12.8224 23.1913 14.9999 23.1913C17.1775 23.1913 19.2666 22.3328 20.8113 20.8031C22.3561 19.2734 23.2309 17.1968 23.245 15.0266C23.2451 14.6106 23.2139 14.1953 23.1518 13.784L22.8965 14.119Z" fill="white"/>
<path d="M8.64624 10.1371C9.15596 10.2677 9.60988 10.3599 9.96247 10.4226C10.6021 9.72524 11.3805 9.16826 12.2481 8.7872C13.1156 8.40614 14.0532 8.20934 15.0013 8.20934C15.9493 8.20934 16.887 8.40614 17.7545 8.7872C18.6221 9.16826 19.4005 9.72524 20.0401 10.4226C20.3927 10.3599 20.8466 10.2677 21.3564 10.1371C21.43 10.118 21.506 10.0978 21.5837 10.0767C21.3527 9.77292 21.101 9.48531 20.8305 9.21588C20.065 8.45276 19.1561 7.84741 18.1558 7.43441C17.1555 7.02141 16.0834 6.80884 15.0006 6.80884C13.9179 6.80884 12.8457 7.02141 11.8454 7.43441C10.8451 7.84741 9.93624 8.45276 9.17068 9.21588C8.90018 9.48531 8.64856 9.77292 8.41757 10.0767C8.49528 10.0978 8.57127 10.118 8.64624 10.1371Z" fill="white"/>
</svg>
