<svg width="30" height="30" viewBox="0 0 30 30" fill="none" xmlns="http://www.w3.org/2000/svg">
<g clip-path="url(#clip0_9390_996)">
<mask id="mask0_9390_996" style="mask-type:luminance" maskUnits="userSpaceOnUse" x="0" y="0" width="30" height="30">
<path d="M0 0H30V30H0V0Z" fill="white"/>
</mask>
<g mask="url(#mask0_9390_996)">
<path d="M27.126 18.0225C26.7288 19.615 26.0218 21.1137 25.0454 22.433C24.069 23.7523 22.8423 24.8663 21.4353 25.7115C20.0284 26.5567 18.4688 27.1165 16.8455 27.3589C15.2222 27.6014 13.567 27.5217 11.9745 27.1245C10.382 26.7273 8.88333 26.0203 7.56405 25.0439C6.24478 24.0675 5.13073 22.8408 4.28554 21.4339C3.44034 20.0269 2.88053 18.4673 2.63809 16.844C2.39564 15.2207 2.4753 13.5655 2.87251 11.973C3.67473 8.75661 5.7218 5.99061 8.5634 4.28351C11.405 2.57642 14.8083 2.06806 18.0248 2.87027C21.2412 3.67248 24.0072 5.71956 25.7143 8.56116C27.4214 11.4028 27.9282 14.8061 27.126 18.0225Z" fill="#F7931A"/>
<path d="M20.5125 13.2195C20.7615 11.5545 19.4955 10.662 17.763 10.065L18.3255 7.81201L16.953 7.47001L16.407 9.66451C16.047 9.57451 15.675 9.48901 15.3075 9.40501L15.858 7.19701L14.487 6.85501L13.926 9.10801C13.626 9.04051 13.3335 8.97301 13.05 8.90251V8.89501L11.16 8.42251L10.794 9.88801C10.794 9.88801 11.8125 10.1205 11.7915 10.1355C12.3465 10.2735 12.447 10.641 12.4305 10.9335L11.79 13.4985C11.8384 13.5109 11.886 13.5264 11.9325 13.545L11.787 13.509L10.89 17.1045C10.8225 17.274 10.65 17.5275 10.2615 17.4315C10.2765 17.451 9.26547 17.1825 9.26547 17.1825L8.58447 18.75L10.3695 19.1955C10.701 19.278 11.0265 19.3665 11.3475 19.4475L10.779 21.7275L12.15 22.068L12.711 19.8135C13.086 19.9155 13.449 20.0085 13.806 20.0985L13.245 22.341L14.616 22.683L15.1845 20.409C17.523 20.8515 19.281 20.673 20.022 18.558C20.6175 16.854 19.992 15.873 18.762 15.231C19.6575 15.0255 20.3325 14.4375 20.5125 13.2195ZM17.3775 17.6145C16.9545 19.317 14.0865 18.3945 13.158 18.165L13.911 15.1455C14.841 15.378 17.8215 15.837 17.379 17.613L17.3775 17.6145ZM17.8035 13.194C17.4165 14.7435 15.0285 13.956 14.2545 13.764L14.94 11.025C15.714 11.2185 18.2055 11.5785 17.8035 13.194Z" fill="#E6EAED"/>
<path d="M29.55 18.63C27.5475 26.664 19.407 31.5555 11.37 29.55C3.33602 27.549 -1.55548 19.41 0.450017 11.3745C2.45252 3.336 10.59 -1.554 18.627 0.449998C26.664 2.454 31.5525 10.5945 29.55 18.63Z" fill="#FF9A1F"/>
<path d="M22.455 12.942C22.8 10.7355 21.0525 9.549 18.663 8.757L19.4385 5.769L17.5455 5.3145L16.791 8.2245C16.293 8.106 15.783 7.9935 15.276 7.8825L16.035 4.953L14.145 4.5L13.368 7.488C12.9646 7.40031 12.5621 7.30881 12.1605 7.2135L12.162 7.2045L9.552 6.579L9.0495 8.5215C9.0495 8.5215 10.4535 8.8305 10.4235 8.8515C11.1885 9.0345 11.328 9.522 11.3055 9.909L10.422 13.314C10.4745 13.326 10.5435 13.344 10.6185 13.374L10.419 13.326L9.1815 18.096C9.087 18.321 8.85 18.657 8.3145 18.5295C8.3325 18.555 6.939 18.1995 6.939 18.1995L6 20.28L8.4615 20.871C8.9205 20.9805 9.369 21.096 9.8115 21.2055L9.0285 24.228L10.9185 24.6825L11.694 21.6915C12.21 21.8265 12.711 21.9495 13.2015 22.0665L12.429 25.044L14.3205 25.5L15.1035 22.482C18.3315 23.0685 20.7585 22.8315 21.7785 20.0265C22.602 17.766 21.738 16.4625 20.04 15.6135C21.276 15.339 22.2075 14.5575 22.455 12.942ZM18.132 18.771C17.547 21.03 13.5915 19.809 12.309 19.503L13.3485 15.498C14.631 15.8055 18.7425 16.4145 18.132 18.771ZM18.717 12.909C18.1845 14.964 14.892 13.92 13.8225 13.6635L14.766 10.032C15.834 10.287 19.2735 10.7655 18.7185 12.909H18.717Z" fill="#E6EAED"/>
<mask id="mask1_9390_996" style="mask-type:luminance" maskUnits="userSpaceOnUse" x="0" y="0" width="30" height="30">
<path d="M0 0H30V30H0V0Z" fill="white"/>
</mask>
<g mask="url(#mask1_9390_996)">
<path d="M27.126 18.0225C26.7288 19.615 26.0218 21.1137 25.0454 22.433C24.069 23.7523 22.8423 24.8663 21.4353 25.7115C20.0284 26.5567 18.4688 27.1165 16.8455 27.3589C15.2222 27.6014 13.567 27.5217 11.9745 27.1245C10.382 26.7273 8.88333 26.0203 7.56405 25.0439C6.24478 24.0675 5.13073 22.8408 4.28554 21.4339C3.44034 20.0269 2.88053 18.4673 2.63809 16.844C2.39564 15.2207 2.4753 13.5655 2.87251 11.973C3.67473 8.75661 5.7218 5.99061 8.5634 4.28351C11.405 2.57642 14.8083 2.06806 18.0248 2.87027C21.2412 3.67248 24.0072 5.71956 25.7143 8.56116C27.4214 11.4028 27.9282 14.8061 27.126 18.0225Z" fill="#F7931A"/>
<path d="M20.5125 13.2195C20.7615 11.5545 19.4955 10.662 17.763 10.065L18.3255 7.81201L16.953 7.47001L16.407 9.66451C16.047 9.57451 15.675 9.48901 15.3075 9.40501L15.858 7.19701L14.487 6.85501L13.926 9.10801C13.626 9.04051 13.3335 8.97301 13.05 8.90251V8.89501L11.16 8.42251L10.794 9.88801C10.794 9.88801 11.8125 10.1205 11.7915 10.1355C12.3465 10.2735 12.447 10.641 12.4305 10.9335L11.79 13.4985C11.8384 13.5109 11.886 13.5264 11.9325 13.545L11.7885 13.509L10.8915 17.1045C10.8225 17.274 10.6515 17.5275 10.2615 17.4315C10.2765 17.451 9.26547 17.1825 9.26547 17.1825L8.58447 18.75L10.3695 19.1955C10.701 19.278 11.0265 19.3665 11.3475 19.4475L10.779 21.7275L12.15 22.068L12.711 19.8135C13.086 19.9155 13.449 20.0085 13.806 20.0985L13.245 22.341L14.616 22.683L15.1845 20.409C17.523 20.8515 19.281 20.673 20.022 18.558C20.619 16.854 19.992 15.873 18.762 15.231C19.6575 15.0255 20.3325 14.4375 20.5125 13.2195ZM17.379 17.6145C16.9545 19.317 14.088 18.3945 13.158 18.165L13.911 15.1455C14.841 15.378 17.8215 15.837 17.379 17.613V17.6145ZM17.8035 13.194C17.4165 14.7435 15.0285 13.956 14.256 13.764L14.9385 11.025C15.7125 11.2185 18.2055 11.5785 17.8035 13.194Z" fill="#E6EAED"/>
<path d="M29.55 18.63C27.5475 26.664 19.407 31.5555 11.37 29.55C3.33602 27.549 -1.55548 19.41 0.450017 11.3745C2.45252 3.336 10.59 -1.554 18.627 0.449998C26.664 2.454 31.5525 10.5945 29.55 18.63Z" fill="#FF9A1F"/>
<path d="M22.4565 12.942C22.8 10.737 21.0525 9.549 18.663 8.757L19.4385 5.769L17.5455 5.316L16.791 8.226C16.2945 8.106 15.783 7.995 15.276 7.8825L16.035 4.953L14.145 4.5L13.368 7.488C12.957 7.398 12.552 7.308 12.1605 7.215L12.162 7.206L9.552 6.579L9.0495 8.523C9.0495 8.523 10.4535 8.832 10.4235 8.8515C11.1885 9.0345 11.328 9.522 11.3055 9.909L10.422 13.314C10.4745 13.3275 10.5435 13.3455 10.6185 13.374L10.419 13.3275L9.1815 18.0975C9.0885 18.3225 8.8515 18.657 8.3145 18.5295C8.334 18.5565 6.939 18.1995 6.939 18.1995L6 20.283L8.4615 20.8725C8.9205 20.9835 9.369 21.0975 9.8115 21.207L9.0285 24.231L10.9185 24.684L11.694 21.693C12.21 21.828 12.711 21.9525 13.2015 22.068L12.429 25.047L14.322 25.5L15.105 22.482C18.33 23.07 20.757 22.833 21.78 20.0265C22.602 17.7675 21.738 16.464 20.04 15.6135C21.2775 15.339 22.2075 14.556 22.4565 12.942ZM18.1335 18.7725C17.5485 21.0315 13.5915 19.8105 12.309 19.503L13.3485 15.498C14.631 15.8055 18.744 16.416 18.1335 18.7725ZM18.7185 12.909C18.1845 14.964 14.892 13.9215 13.824 13.665L14.766 10.032C15.834 10.287 19.2735 10.767 18.7185 12.909Z" fill="#E6EAED"/>
<path d="M15 30C23.2843 30 30 23.2843 30 15C30 6.71573 23.2843 0 15 0C6.71573 0 0 6.71573 0 15C0 23.2843 6.71573 30 15 30Z" fill="#3572D1"/>
<path d="M14.037 19.257L15.1065 15.222L17.64 14.2935L18.27 11.9235L18.2475 11.8635L15.756 12.7755L17.55 6H12.4575L10.11 14.8425L8.1495 15.561L7.5 18.006L9.459 17.289L8.0745 22.5H21.6315L22.5 19.257H14.037Z" fill="#E6EAED"/>
<path d="M15 28.125C22.2487 28.125 28.125 22.2487 28.125 15C28.125 7.75126 22.2487 1.875 15 1.875C7.75126 1.875 1.875 7.75126 1.875 15C1.875 22.2487 7.75126 28.125 15 28.125Z" fill="#EAEAEA"/>
<path d="M15.3601 9.88501H13.2166V14.1105H16.5886V15.8805H13.2166V20.1045H15.4666C16.0426 20.1045 20.2066 20.169 20.2006 15.189C20.1946 10.2075 16.1611 9.88501 15.3601 9.88501Z" fill="#C2A633"/>
<path d="M15 0C6.7155 0 0 6.7155 0 15C0 23.2845 6.7155 30 15 30C23.2845 30 30 23.2845 30 15C30 6.7155 23.2845 0 15 0ZM15.5895 23.1015H10.155V15.879H8.2425V14.1105H10.155V6.888H14.82C15.9225 6.888 23.2275 6.6585 23.2275 15.1305C23.2275 23.7405 15.5895 23.1015 15.5895 23.1015Z" fill="#C2A633"/>
</g>
</g>
</g>
<defs>
<clipPath id="clip0_9390_996">
<rect width="30" height="30" fill="white"/>
</clipPath>
</defs>
</svg>
