<svg width="70" height="70" viewBox="0 0 70 70" fill="none" xmlns="http://www.w3.org/2000/svg">
<rect width="70" height="70" rx="35" fill="#080808"/>
<path d="M50.0885 28.1489C52.5838 28.0168 54.2061 27.5121 56.1143 26.4636C58.6232 25.0856 59.6879 20.7612 59.6879 20.7612C53.5271 24.9009 45.1042 25.7766 45.1042 25.7766C42.5946 29.7992 40.2822 32.1541 38.3476 33.5202C38.0293 33.3353 37.7436 33.0997 37.5017 32.8228C36.9026 32.0331 36.8332 31.2306 36.8523 31.0945C36.8715 30.9583 37.0121 30.7378 37.3316 30.6407C37.44 30.6023 37.556 30.5902 37.6701 30.6054C37.7841 30.6206 37.8929 30.6628 37.9874 30.7283C37.8939 30.171 37.842 29.9043 37.5145 29.6281C37.2102 29.3725 36.6566 29.3335 36.6566 29.3335C36.3786 29.1093 36.0449 28.9641 35.6909 28.9132C34.7612 28.7834 34.1469 29.1831 33.7108 29.5891C33.1285 30.1312 33.083 31.1414 32.6637 32.3013C32.4754 32.8135 32.1089 33.2412 31.6309 33.5066C29.7011 32.1373 27.3975 29.7849 24.8966 25.7782C24.8966 25.7782 16.4737 24.9025 10.3137 20.7628C10.3137 20.7628 11.3777 25.0872 13.8865 26.4652C15.7956 27.5136 17.4178 28.0184 19.9123 28.1505C19.9123 28.1505 16.5488 28.4379 12.6836 26.5814C12.6836 26.5814 14.8562 29.9943 16.901 31.1088C18.9459 32.2233 21.4995 32.6636 23.3166 32.5736C23.3166 32.5736 20.156 33.3323 17.5297 32.2233C17.5297 32.2233 20.2886 35.844 25.2312 35.7261C25.2312 35.7261 23.6282 36.1298 22.1337 35.8631C22.1337 35.8631 24.4077 37.784 26.2872 38.1001C26.2872 38.1001 27.046 38.2505 28.6148 38.081C28.1313 38.3801 27.5758 38.5437 27.0069 38.5546C27.0069 38.5546 28.6124 39.51 29.8073 39.6142C30.1241 39.6352 30.4422 39.6224 30.7562 39.576C30.5251 39.7159 30.2695 39.8109 30.003 39.8563C30.003 39.8563 31.5965 40.4223 32.6389 39.9287C31.4815 43.4259 30.6284 44.4744 30.6284 44.4744L30.9352 44.839C30.9668 44.8773 31.0071 44.9077 31.0526 44.9277C31.0982 44.9478 31.1478 44.9569 31.1976 44.9544C31.2473 44.952 31.2958 44.9379 31.3391 44.9135C31.3825 44.889 31.4195 44.8548 31.4472 44.8135L32.1341 43.8741L31.3297 45.3286L31.6676 45.6653C31.7026 45.7007 31.7454 45.7275 31.7926 45.7434C31.8398 45.7594 31.8901 45.7641 31.9395 45.7572C31.9889 45.7503 32.0359 45.732 32.0769 45.7038C32.1179 45.6755 32.1517 45.6381 32.1756 45.5945L32.6253 44.8486L32.0278 46.2139L32.3969 46.5172C32.4351 46.5491 32.4804 46.5717 32.5289 46.5831C32.5775 46.5945 32.6281 46.5944 32.6767 46.5827C32.7252 46.5711 32.7703 46.5484 32.8084 46.5162C32.8465 46.4841 32.8766 46.4435 32.8961 46.3978L33.1725 45.8206L32.833 46.9112L33.2324 47.1716C33.2738 47.1984 33.321 47.2152 33.3701 47.2208C33.4192 47.2264 33.4689 47.2205 33.5153 47.2037C33.5618 47.1869 33.6037 47.1595 33.6377 47.1238C33.6718 47.0882 33.6971 47.0451 33.7116 46.998L34.0311 46.0793L33.7963 47.3212C33.779 47.4134 33.7889 47.5087 33.8247 47.5954C33.8606 47.6822 33.9209 47.7567 33.9984 47.81L34.6965 48.181L34.9665 46.4296L35.2356 48.181L35.9346 47.81C36.012 47.7567 36.0723 47.6822 36.1082 47.5954C36.144 47.5087 36.1539 47.4134 36.1366 47.3212L35.9106 46.0793L36.2301 46.998C36.2446 47.0451 36.2699 47.0882 36.304 47.1238C36.338 47.1595 36.3799 47.1869 36.4264 47.2037C36.4728 47.2205 36.5225 47.2264 36.5716 47.2208C36.6208 47.2152 36.6679 47.1984 36.7093 47.1716L37.1087 46.9112L36.7693 45.8206L37.0456 46.3978C37.0652 46.4435 37.0952 46.4841 37.1333 46.5162C37.1714 46.5484 37.2165 46.5711 37.2651 46.5827C37.3136 46.5944 37.3642 46.5945 37.4128 46.5831C37.4614 46.5717 37.5066 46.5491 37.5448 46.5172L37.9139 46.2139L37.3156 44.8486L37.7661 45.5945C37.79 45.6381 37.8238 45.6755 37.8648 45.7038C37.9058 45.732 37.9529 45.7503 38.0022 45.7572C38.0516 45.7641 38.1019 45.7594 38.1491 45.7434C38.1963 45.7275 38.2391 45.7007 38.2741 45.6653L38.612 45.3286L37.8012 43.8749L38.4882 44.8143C38.5159 44.8557 38.5529 44.8901 38.5963 44.9146C38.6397 44.9392 38.6883 44.9533 38.7381 44.9558C38.788 44.9582 38.8377 44.949 38.8834 44.9289C38.929 44.9088 38.9693 44.8782 39.001 44.8398L39.3077 44.4752C39.3077 44.4752 38.4514 43.4235 37.2908 39.9104V39.9016C38.3292 40.4509 39.993 39.8602 39.993 39.8602C39.7268 39.8148 39.4715 39.7198 39.2406 39.58C39.5544 39.6263 39.8722 39.6391 40.1887 39.6182C41.3868 39.5123 42.9891 38.5586 42.9891 38.5586C42.4202 38.5477 41.8647 38.3841 41.3813 38.085C42.95 38.2545 43.7088 38.1041 43.7088 38.1041C45.5923 37.7856 47.8624 35.867 47.8624 35.867C46.3679 36.1337 44.7648 35.7301 44.7648 35.7301C49.7075 35.8455 52.4672 32.2273 52.4672 32.2273C49.8409 33.3363 46.6802 32.5776 46.6802 32.5776C48.4966 32.6675 51.051 32.2265 53.095 31.1128C55.139 29.999 57.3172 26.5806 57.3172 26.5806C53.452 28.4363 50.0885 28.1489 50.0885 28.1489Z" fill="url(#paint0_linear_9371_749)"/>
<path d="M53.4257 32.9438C53.361 33.029 52.5151 34.1156 50.9591 35.1322C50.9208 43.871 43.7767 50.9673 35.0008 50.9673C26.2249 50.9673 19.08 43.8702 19.0417 35.1322C17.4857 34.1156 16.6407 33.029 16.5752 32.9438L15.9801 32.162C15.8345 33.1217 15.7616 34.0909 15.762 35.0614C15.7948 40.1253 17.8361 44.9707 21.4404 48.54C25.0448 52.1093 29.9194 54.1125 35.0004 54.1125C40.0814 54.1125 44.956 52.1093 48.5604 48.54C52.1647 44.9707 54.2061 40.1253 54.2388 35.0614C54.239 34.0909 54.1664 33.1217 54.0215 32.162L53.4257 32.9438Z" fill="url(#paint1_linear_9371_749)"/>
<path d="M20.1751 23.6526C21.3645 23.9575 22.4236 24.1724 23.2463 24.3189C24.7389 22.6917 26.5551 21.392 28.5794 20.5029C30.6036 19.6137 32.7915 19.1545 35.0036 19.1545C37.2157 19.1545 39.4036 19.6137 41.4278 20.5029C43.4521 21.392 45.2683 22.6917 46.7609 24.3189C47.5836 24.1724 48.6427 23.9575 49.8321 23.6526C50.0038 23.608 50.1811 23.561 50.3624 23.5117C49.8235 22.8029 49.2363 22.1318 48.6052 21.5031C46.8189 19.7225 44.6982 18.3101 42.3641 17.3464C40.0301 16.3827 37.5284 15.8867 35.002 15.8867C32.4756 15.8867 29.974 16.3827 27.6399 17.3464C25.3059 18.3101 23.1851 19.7225 21.3988 21.5031C20.7677 22.1318 20.1805 22.8029 19.6416 23.5117C19.8229 23.561 20.0002 23.608 20.1751 23.6526Z" fill="url(#paint2_linear_9371_749)"/>
<path d="M69.7617 39.1052C69.919 37.7587 69.9999 36.3888 69.9999 35C69.9999 33.3289 69.8828 31.6852 69.6564 30.0767C69.4964 30.0765 69.2777 30.0765 69.1037 30.077L66.7214 30.0856C66.0596 30.0876 65.5229 30.6272 65.524 31.2887L65.5343 37.9176L65.5366 37.9948C65.5389 38.03 65.5424 38.065 65.5481 38.0994L65.5653 38.1869C65.5745 38.2287 65.5859 38.27 65.6009 38.3105C65.6123 38.344 65.6249 38.3773 65.6398 38.4097C65.6983 38.5399 65.7809 38.6594 65.8853 38.7632C66.0195 38.8977 66.1801 38.9963 66.3567 39.0543C66.4771 39.0941 66.6056 39.1145 66.7364 39.1142L69.1197 39.1056C69.3323 39.1049 69.5846 39.105 69.7617 39.1052Z" fill="url(#paint3_linear_9371_749)"/>
<path d="M62.7363 56.3498L60.5152 54.1395C60.0461 53.673 59.2845 53.6747 58.8165 54.1432L54.1381 58.8383C54.0623 58.9132 53.9993 58.9963 53.9477 59.0858C53.9029 59.1626 53.8674 59.2441 53.841 59.3289C53.8066 59.4428 53.7882 59.5623 53.7882 59.6845C53.7882 60.0056 53.9132 60.3076 54.1415 60.5344L56.3528 62.7339C58.745 60.8894 60.892 58.7422 62.7363 56.3498Z" fill="url(#paint4_linear_9371_749)"/>
<path d="M39.3758 69.729C39.376 69.5518 39.3761 69.3043 39.3754 69.1068L39.3662 65.8406C39.3651 65.1793 38.8249 64.6417 38.1631 64.6428L31.5347 64.654C31.2147 64.6543 30.9154 64.779 30.6894 65.005C30.4623 65.2324 30.3373 65.5346 30.3385 65.856L30.3465 69.1223V69.6933C31.8689 69.8955 33.4222 69.9999 35 69.9999C36.4819 69.9999 37.9423 69.9078 39.3758 69.729Z" fill="url(#paint5_linear_9371_749)"/>
<path d="M13.6487 62.7352L15.8557 60.5175C16.3214 60.0484 16.3202 59.2868 15.8511 58.8197L11.1566 54.1403C11.0281 54.0122 10.8756 53.9167 10.7092 53.8582C10.5831 53.8137 10.4489 53.7905 10.3101 53.7905C10.278 53.7905 10.2459 53.7917 10.2149 53.7942L10.1151 53.8063L10.0589 53.8169L9.96945 53.8393C9.77905 53.8957 9.60471 53.9993 9.46019 54.1444L7.2649 56.3514C9.10933 58.7437 11.2564 60.8908 13.6487 62.7352Z" fill="url(#paint6_linear_9371_749)"/>
<path d="M0.239213 39.1138C0.0812318 37.7645 0 36.3917 0 35C0 33.3319 0.116693 31.6911 0.34236 30.0852L3.33424 30.0772C3.65539 30.0764 3.95819 30.2008 4.18529 30.4282C4.41124 30.6542 4.53511 30.9547 4.53626 31.2738L4.54658 37.9024C4.54773 38.5642 4.01095 39.1039 3.34915 39.1056L0.239213 39.1138Z" fill="url(#paint7_linear_9371_749)"/>
<path d="M7.26108 13.6535L9.4774 15.858C9.53475 15.9156 9.59668 15.9661 9.66321 16.0094C9.7435 16.0624 9.82952 16.1046 9.91784 16.1364C10.0176 16.1723 10.122 16.1946 10.2275 16.2029C10.2986 16.2087 10.3697 16.2081 10.4397 16.2015C10.7081 16.1757 10.9696 16.0599 11.1749 15.8543L15.8545 11.1591C15.9991 11.0138 16.1023 10.838 16.1573 10.6462C16.1883 10.5392 16.2044 10.4274 16.2044 10.313C16.2044 10.1409 16.1677 9.97461 16.0988 9.82206C16.0392 9.68987 15.9555 9.5683 15.85 9.46306L13.6444 7.26811C11.2521 9.11304 9.10525 11.2606 7.26108 13.6535Z" fill="url(#paint8_linear_9371_749)"/>
<path d="M30.894 0.238296L30.9016 3.35058C30.9039 4.01181 31.443 4.54945 32.1048 4.5483L38.7331 4.53712C39.0531 4.53655 39.3536 4.4121 39.5796 4.18615C39.7115 4.05453 39.809 3.89768 39.8663 3.7265C39.9088 3.60205 39.9306 3.47044 39.9306 3.3351L39.9221 0.343391C38.3139 0.117048 36.6706 0 35 0C33.6109 0 32.2408 0.0809176 30.894 0.238296Z" fill="url(#paint9_linear_9371_749)"/>
<path d="M56.3451 7.26L54.1369 9.47998C53.6701 9.94909 53.6712 10.7107 54.1403 11.1778L58.8349 15.8571C59.062 16.0825 59.3625 16.2067 59.6814 16.2067C60.0025 16.2067 60.3053 16.0811 60.5313 15.8531L62.7307 13.643C60.8857 11.2508 58.738 9.10405 56.3451 7.26Z" fill="url(#paint10_linear_9371_749)"/>
<defs>
<linearGradient id="paint0_linear_9371_749" x1="10.3137" y1="54.8139" x2="59.6879" y2="54.8139" gradientUnits="userSpaceOnUse">
<stop stop-color="#F8EEB8"/>
<stop offset="0.5625" stop-color="#DBB370"/>
<stop offset="1" stop-color="#8E5B2D"/>
</linearGradient>
<linearGradient id="paint1_linear_9371_749" x1="10.3137" y1="54.8139" x2="59.6879" y2="54.8139" gradientUnits="userSpaceOnUse">
<stop stop-color="#F8EEB8"/>
<stop offset="0.5625" stop-color="#DBB370"/>
<stop offset="1" stop-color="#8E5B2D"/>
</linearGradient>
<linearGradient id="paint2_linear_9371_749" x1="10.3137" y1="54.8139" x2="59.6879" y2="54.8139" gradientUnits="userSpaceOnUse">
<stop stop-color="#F8EEB8"/>
<stop offset="0.5625" stop-color="#DBB370"/>
<stop offset="1" stop-color="#8E5B2D"/>
</linearGradient>
<linearGradient id="paint3_linear_9371_749" x1="0" y1="71.2843" x2="69.9999" y2="71.2843" gradientUnits="userSpaceOnUse">
<stop stop-color="#F8EEB8"/>
<stop offset="0.5625" stop-color="#DBB370"/>
<stop offset="1" stop-color="#8E5B2D"/>
</linearGradient>
<linearGradient id="paint4_linear_9371_749" x1="0" y1="71.2843" x2="69.9999" y2="71.2843" gradientUnits="userSpaceOnUse">
<stop stop-color="#F8EEB8"/>
<stop offset="0.5625" stop-color="#DBB370"/>
<stop offset="1" stop-color="#8E5B2D"/>
</linearGradient>
<linearGradient id="paint5_linear_9371_749" x1="0" y1="71.2843" x2="69.9999" y2="71.2843" gradientUnits="userSpaceOnUse">
<stop stop-color="#F8EEB8"/>
<stop offset="0.5625" stop-color="#DBB370"/>
<stop offset="1" stop-color="#8E5B2D"/>
</linearGradient>
<linearGradient id="paint6_linear_9371_749" x1="0" y1="71.2843" x2="69.9999" y2="71.2843" gradientUnits="userSpaceOnUse">
<stop stop-color="#F8EEB8"/>
<stop offset="0.5625" stop-color="#DBB370"/>
<stop offset="1" stop-color="#8E5B2D"/>
</linearGradient>
<linearGradient id="paint7_linear_9371_749" x1="0" y1="71.2843" x2="69.9999" y2="71.2843" gradientUnits="userSpaceOnUse">
<stop stop-color="#F8EEB8"/>
<stop offset="0.5625" stop-color="#DBB370"/>
<stop offset="1" stop-color="#8E5B2D"/>
</linearGradient>
<linearGradient id="paint8_linear_9371_749" x1="0" y1="71.2843" x2="69.9999" y2="71.2843" gradientUnits="userSpaceOnUse">
<stop stop-color="#F8EEB8"/>
<stop offset="0.5625" stop-color="#DBB370"/>
<stop offset="1" stop-color="#8E5B2D"/>
</linearGradient>
<linearGradient id="paint9_linear_9371_749" x1="0" y1="71.2843" x2="69.9999" y2="71.2843" gradientUnits="userSpaceOnUse">
<stop stop-color="#F8EEB8"/>
<stop offset="0.5625" stop-color="#DBB370"/>
<stop offset="1" stop-color="#8E5B2D"/>
</linearGradient>
<linearGradient id="paint10_linear_9371_749" x1="0" y1="71.2843" x2="69.9999" y2="71.2843" gradientUnits="userSpaceOnUse">
<stop stop-color="#F8EEB8"/>
<stop offset="0.5625" stop-color="#DBB370"/>
<stop offset="1" stop-color="#8E5B2D"/>
</linearGradient>
</defs>
</svg>
