<svg width="18" height="18" viewBox="0 0 18 18" fill="none" xmlns="http://www.w3.org/2000/svg">
<path d="M3.38594 10.9389C2.78349 10.9389 2.29503 11.414 2.29503 12C2.29503 12.586 2.78349 13.0611 3.38594 13.0611C3.98839 13.0611 4.47685 12.586 4.47685 12C4.47685 11.414 3.98839 10.9389 3.38594 10.9389Z" fill="#7E7E7E"/>
<path fill-rule="evenodd" clip-rule="evenodd" d="M8.01028 1.93766C8.60487 0.78927 9.84014 0 11.2676 0C13.1956 0 14.773 1.43986 14.8948 3.25962L16.6222 3.59133C17.8861 3.91518 17.998 4.84515 17.9899 5.24396L18 15.1822C18 16.0744 17.2435 16.8 16.3133 16.8L1.68673 18C0.756503 18 0 17.2744 0 16.3822V7.15684C0 5.89175 1.1649 5.54091 2.24252 5.54091V2.77192C2.24252 1.87964 2.99902 1.15405 3.92925 1.15405L8.01028 1.93766ZM7.96267 4.93927C7.75095 4.497 7.6329 4.00485 7.6329 3.48628C7.6329 3.31117 7.64636 3.13908 7.67234 2.97087L3.88032 2.23479C3.59329 2.25854 3.36699 2.49012 3.36699 2.77188V5.53927L7.96267 4.93927ZM6.25455 9.56526L2.22414 10.0579C1.7225 10.1192 1.34545 10.5451 1.34545 11.0505V13.2798C1.34545 13.8802 1.87081 14.3453 2.46677 14.2724L6.25455 13.8095C8.01028 13.5 8.43636 12.5084 8.43636 11.6874C8.43636 9.9 7.2 9.45 6.25455 9.56526ZM12.5636 4.5719C12.6656 4.41462 12.7165 4.23342 12.7165 4.0283C12.7165 3.76502 12.6357 3.55135 12.474 3.38724C12.3123 3.21968 12.0645 3.10005 11.7305 3.02825L11.1347 2.90002C10.9836 2.86583 10.8781 2.82654 10.8184 2.78207C10.7586 2.73419 10.7287 2.67608 10.7287 2.60769C10.7287 2.50515 10.7797 2.42139 10.8816 2.35641C10.9836 2.29144 11.1259 2.25897 11.3087 2.25897C11.5056 2.25897 11.6901 2.28634 11.8624 2.34104C12.0346 2.39233 12.184 2.46582 12.3105 2.56153L12.5689 1.87433C12.4459 1.76492 12.2859 1.67603 12.0891 1.60768C11.9411 1.55626 11.7882 1.52129 11.6304 1.50273V0.930709H10.8975V1.52272C10.7092 1.55687 10.5405 1.61425 10.3913 1.69485C10.205 1.79743 10.0591 1.93076 9.95364 2.09486C9.8517 2.25556 9.80073 2.43849 9.80073 2.64361C9.80073 2.91371 9.87982 3.13424 10.038 3.30517C10.1997 3.47268 10.444 3.59236 10.7709 3.66416L11.3667 3.78725C11.5249 3.82145 11.6339 3.86419 11.6936 3.91544C11.7534 3.96332 11.7833 4.02316 11.7833 4.09496C11.7833 4.18044 11.7393 4.25224 11.6515 4.31035C11.5636 4.36847 11.4107 4.39752 11.1927 4.39752C11.0486 4.39752 10.9045 4.38384 10.7604 4.35651C10.6198 4.32572 10.4844 4.28471 10.3544 4.23342C10.2243 4.18213 10.1065 4.12229 10.0011 4.05394L9.73218 4.7873L12.5636 4.5719Z" fill="#7E7E7E"/>
</svg>
