<svg width="200" height="278" viewBox="0 0 200 278" fill="none" xmlns="http://www.w3.org/2000/svg">
<g clip-path="url(#clip0_2709_119917)">
<rect y="0.00439453" width="200" height="278" rx="10" fill="url(#paint0_linear_2709_119917)"/>
<path d="M161 206.278C161 212.685 169.563 215.95 172.454 221.916L172.491 222.004L172.527 221.916C175.418 215.95 184 212.685 184 206.295C184 200.93 176.663 198.864 173.076 203.348C173.003 203.577 173.076 201.918 173.314 201C174.174 198.247 177.267 194.24 178.767 193.004C176.681 194.734 168.264 194.717 166.196 193.004C167.697 194.258 170.643 198.105 171.649 201C171.85 201.794 171.979 202.606 172.033 203.418C168.557 198.547 161 200.806 161 206.278Z" fill="#EAEAEA"/>
<path d="M39 71.7311C39 65.3239 30.4367 62.0586 27.5457 56.0926L27.5091 56.0044L27.4725 56.0926C24.5815 62.0586 16 65.3239 16 71.7135C16 77.0793 23.3373 79.1444 26.9236 74.6611C26.9968 74.4317 26.9236 76.0908 26.6857 77.0086C25.8258 79.7621 22.7335 83.7688 21.2331 85.0044C23.319 83.2746 31.7359 83.2923 33.8035 85.0044C32.3031 83.7512 29.3572 79.9034 28.3508 77.0086C28.1496 76.2144 28.0215 75.4024 27.9666 74.5905C31.4431 79.4621 39 77.2028 39 71.7311Z" fill="#EAEAEA"/>
<path d="M16 47.0044V16.0044H23.0387V28.6992H23.2302L32.5193 16.0044H40.2762L30.8435 28.3664L42 47.0044H34.291L26.6777 33.9292L23.0387 38.6838V47.0044H16Z" fill="#EAEAEA"/>
<path d="M184 231.004V262.004H176.961V249.31H176.77L167.481 262.004H159.724L169.157 249.642L158 231.004H165.709L173.322 244.08L176.961 239.325V231.004H184Z" fill="#EAEAEA"/>
<path d="M145 143.919C145 117.886 111.496 104.586 100.167 80.3356L100 80L99.8328 80.3356C88.5253 104.565 55 117.886 55 143.919C55 165.715 83.6972 174.127 97.7009 155.898C97.9935 154.975 97.68 161.687 96.7394 165.463C93.3744 176.645 81.3144 192.944 75.4412 198C83.5718 190.993 116.47 190.993 124.601 198C118.727 192.944 107.232 177.211 103.302 165.463C102.487 162.212 102.006 158.918 101.797 155.646C115.425 175.407 145 166.156 145 143.919Z" fill="#EAEAEA"/>
</g>
<defs>
<linearGradient id="paint0_linear_2709_119917" x1="0" y1="278.004" x2="200" y2="0.00440461" gradientUnits="userSpaceOnUse">
<stop stop-color="#101010"/>
<stop offset="0.712851" stop-color="#201F1F"/>
<stop offset="1" stop-color="#101010"/>
</linearGradient>
<clipPath id="clip0_2709_119917">
<rect width="200" height="278" fill="white"/>
</clipPath>
</defs>
</svg>
