<svg width="10" height="14" viewBox="0 0 10 14" fill="none" xmlns="http://www.w3.org/2000/svg">
<path d="M9.36483 0.0546527C9.27906 0.0111678 9.18425 -0.00687623 9.09 0.00235005C8.99575 0.0115763 8.90542 0.0477447 8.82817 0.107188L4.6529 3.49283H0.536667C0.394334 3.49283 0.257831 3.55433 0.157186 3.6638C0.0565415 3.77327 0 3.92175 0 4.07656V9.91388C0 10.0687 0.0565415 10.2172 0.157186 10.3266C0.257831 10.4361 0.394334 10.4976 0.536667 10.4976H4.6529L8.80133 13.8833C8.88106 13.9483 8.97587 13.9879 9.07514 13.9976C9.1744 14.0074 9.27419 13.9869 9.36334 13.9384C9.45248 13.8899 9.52745 13.8154 9.57985 13.7232C9.63225 13.6309 9.66 13.5247 9.66 13.4163V0.574174C9.6597 0.466378 9.63196 0.360777 9.57986 0.269077C9.52776 0.177378 9.45334 0.103161 9.36483 0.0546527Z" fill="#29F061"/>
</svg>
