<svg width="5" height="9" viewBox="0 0 5 9" fill="none" xmlns="http://www.w3.org/2000/svg">
<path d="M1.24995 2.16602C1.10787 2.16602 0.971606 2.22312 0.87114 2.32477C0.770674 2.42643 0.714233 2.56429 0.714233 2.70805V5.96027C0.714233 6.10403 0.770674 6.2419 0.87114 6.34355C0.971606 6.4452 1.10787 6.50231 1.24995 6.50231C1.39203 6.50231 1.52829 6.4452 1.62876 6.34355C1.72922 6.2419 1.78566 6.10403 1.78566 5.96027V2.70805C1.78566 2.56429 1.72922 2.42643 1.62876 2.32477C1.52829 2.22312 1.39203 2.16602 1.24995 2.16602Z" fill="#29F061"/>
<path d="M2.85713 1.08398C2.71505 1.08398 2.57878 1.14109 2.47832 1.24274C2.37785 1.34439 2.32141 1.48226 2.32141 1.62602V7.04638C2.32141 7.19014 2.37785 7.32801 2.47832 7.42966C2.57878 7.53131 2.71505 7.58842 2.85713 7.58842C2.99921 7.58842 3.13547 7.53131 3.23593 7.42966C3.3364 7.32801 3.39284 7.19014 3.39284 7.04638V1.62602C3.39284 1.48226 3.3364 1.34439 3.23593 1.24274C3.13547 1.14109 2.99921 1.08398 2.85713 1.08398Z" fill="#29F061"/>
<path d="M4.46443 0C4.32234 0 4.18608 0.0571073 4.08562 0.158759C3.98515 0.26041 3.92871 0.398279 3.92871 0.542036V8.13055C3.92871 8.2743 3.98515 8.41217 4.08562 8.51382C4.18608 8.61547 4.32234 8.67258 4.46443 8.67258C4.60651 8.67258 4.74277 8.61547 4.84323 8.51382C4.9437 8.41217 5.00014 8.2743 5.00014 8.13055V0.542036C5.00014 0.398279 4.9437 0.26041 4.84323 0.158759C4.74277 0.0571073 4.60651 0 4.46443 0Z" fill="#29F061"/>
</svg>
