<svg width="15" height="14" viewBox="0 0 15 14" fill="none" xmlns="http://www.w3.org/2000/svg">
<path d="M9.36483 0.0546527C9.27906 0.0111678 9.18425 -0.00687623 9.09 0.00235005C8.99575 0.0115763 8.90542 0.0477447 8.82817 0.107188L4.6529 3.49283H0.536667C0.394334 3.49283 0.257831 3.55433 0.157186 3.6638C0.0565415 3.77327 0 3.92175 0 4.07656V9.91388C0 10.0687 0.0565415 10.2172 0.157186 10.3266C0.257831 10.4361 0.394334 10.4976 0.536667 10.4976H4.6529L8.80133 13.8833C8.88106 13.9483 8.97587 13.9879 9.07514 13.9976C9.1744 14.0074 9.27419 13.9869 9.36334 13.9384C9.45248 13.8899 9.52745 13.8154 9.57985 13.7232C9.63225 13.6309 9.66 13.5247 9.66 13.4163V0.574174C9.6597 0.466378 9.63196 0.360777 9.57986 0.269077C9.52776 0.177378 9.45334 0.103161 9.36483 0.0546527Z" fill="#29F061"/>
<path d="M11.2499 5.16602C11.1079 5.16602 10.9716 5.22312 10.8711 5.32477C10.7707 5.42643 10.7142 5.56429 10.7142 5.70805V8.96027C10.7142 9.10403 10.7707 9.2419 10.8711 9.34355C10.9716 9.4452 11.1079 9.50231 11.2499 9.50231C11.392 9.50231 11.5283 9.4452 11.6288 9.34355C11.7292 9.2419 11.7857 9.10403 11.7857 8.96027V5.70805C11.7857 5.56429 11.7292 5.42643 11.6288 5.32477C11.5283 5.22312 11.392 5.16602 11.2499 5.16602Z" fill="#29F061"/>
<path d="M12.8571 4.08398C12.715 4.08398 12.5788 4.14109 12.4783 4.24274C12.3779 4.34439 12.3214 4.48226 12.3214 4.62602V10.0464C12.3214 10.1901 12.3779 10.328 12.4783 10.4297C12.5788 10.5313 12.715 10.5884 12.8571 10.5884C12.9992 10.5884 13.1355 10.5313 13.2359 10.4297C13.3364 10.328 13.3928 10.1901 13.3928 10.0464V4.62602C13.3928 4.48226 13.3364 4.34439 13.2359 4.24274C13.1355 4.14109 12.9992 4.08398 12.8571 4.08398Z" fill="#29F061"/>
<path d="M14.4644 3C14.3223 3 14.1861 3.05711 14.0856 3.15876C13.9852 3.26041 13.9287 3.39828 13.9287 3.54204V11.1305C13.9287 11.2743 13.9852 11.4122 14.0856 11.5138C14.1861 11.6155 14.3223 11.6726 14.4644 11.6726C14.6065 11.6726 14.7428 11.6155 14.8432 11.5138C14.9437 11.4122 15.0001 11.2743 15.0001 11.1305V3.54204C15.0001 3.39828 14.9437 3.26041 14.8432 3.15876C14.7428 3.05711 14.6065 3 14.4644 3Z" fill="#29F061"/>
</svg>
