<svg width="5" height="6" viewBox="0 0 5 6" fill="none" xmlns="http://www.w3.org/2000/svg">
<path d="M3.64144 2.99548L4.87084 1.65874C4.95879 1.54707 5.00475 1.40343 4.99953 1.25651C4.99431 1.1096 4.9383 0.970244 4.84269 0.866284C4.74708 0.762325 4.61891 0.701422 4.48379 0.695748C4.34868 0.690073 4.21657 0.740045 4.11387 0.835675L2.88447 2.17242L1.65507 0.835675C1.55237 0.740045 1.42026 0.690073 1.28515 0.695748C1.15003 0.701422 1.02187 0.762325 0.926254 0.866284C0.830643 0.970244 0.774632 1.1096 0.769413 1.25651C0.764194 1.40343 0.810152 1.54707 0.898103 1.65874L2.1275 2.99548L0.898103 4.33223C0.841904 4.38456 0.79626 4.44895 0.764036 4.52137C0.731813 4.59379 0.713705 4.67267 0.710849 4.75307C0.707993 4.83346 0.720452 4.91362 0.747442 4.98853C0.774432 5.06344 0.815371 5.13147 0.86769 5.18836C0.920009 5.24524 0.982578 5.28976 1.05147 5.3191C1.12036 5.34845 1.19409 5.362 1.26803 5.35889C1.34196 5.35579 1.41451 5.3361 1.48111 5.30106C1.54772 5.26602 1.60694 5.21639 1.65507 5.15529L2.88447 3.81854L4.11387 5.15529C4.21657 5.25092 4.34868 5.30089 4.48379 5.29521C4.61891 5.28954 4.74708 5.22864 4.84269 5.12468C4.9383 5.02072 4.99431 4.88136 4.99953 4.73445C5.00475 4.58754 4.95879 4.4439 4.87084 4.33223L3.64144 2.99548Z" fill="#FC3C37"/>
</svg>
