<svg width="15" height="14" viewBox="0 0 15 14" fill="none" xmlns="http://www.w3.org/2000/svg">
<path d="M9.36814 0.0546527C9.28234 0.0111678 9.18749 -0.00687623 9.09321 0.00235005C8.99892 0.0115763 8.90856 0.0477447 8.83128 0.107188L4.65454 3.49283H0.536856C0.394473 3.49283 0.257921 3.55433 0.157241 3.6638C0.0565614 3.77327 0 3.92175 0 4.07656V9.91388C0 10.0687 0.0565614 10.2172 0.157241 10.3266C0.257921 10.4361 0.394473 10.4976 0.536856 10.4976H4.65454L8.80444 13.8833C8.8842 13.9483 8.97904 13.9879 9.07834 13.9976C9.17764 14.0074 9.27747 13.9869 9.36664 13.9384C9.45582 13.8899 9.53081 13.8154 9.58323 13.7232C9.63564 13.6309 9.66341 13.5247 9.66341 13.4163V0.574174C9.66311 0.466378 9.63536 0.360777 9.58324 0.269077C9.53113 0.177378 9.45667 0.103161 9.36814 0.0546527Z" fill="#FC3C37"/>
<path d="M13.6414 6.99548L14.8708 5.65874C14.9588 5.54707 15.0047 5.40343 14.9995 5.25651C14.9943 5.1096 14.9383 4.97024 14.8427 4.86628C14.7471 4.76232 14.6189 4.70142 14.4838 4.69575C14.3487 4.69007 14.2166 4.74004 14.1139 4.83568L12.8845 6.17242L11.6551 4.83568C11.5524 4.74004 11.4203 4.69007 11.2851 4.69575C11.15 4.70142 11.0219 4.76232 10.9263 4.86628C10.8306 4.97024 10.7746 5.1096 10.7694 5.25651C10.7642 5.40343 10.8102 5.54707 10.8981 5.65874L12.1275 6.99548L10.8981 8.33223C10.8419 8.38456 10.7963 8.44895 10.764 8.52137C10.7318 8.59379 10.7137 8.67267 10.7108 8.75307C10.708 8.83346 10.7205 8.91362 10.7474 8.98853C10.7744 9.06344 10.8154 9.13147 10.8677 9.18836C10.92 9.24524 10.9826 9.28976 11.0515 9.3191C11.1204 9.34845 11.1941 9.362 11.268 9.35889C11.342 9.35579 11.4145 9.3361 11.4811 9.30106C11.5477 9.26602 11.6069 9.21639 11.6551 9.15529L12.8845 7.81854L14.1139 9.15529C14.2166 9.25092 14.3487 9.30089 14.4838 9.29521C14.6189 9.28954 14.7471 9.22864 14.8427 9.12468C14.9383 9.02072 14.9943 8.88136 14.9995 8.73445C15.0047 8.58754 14.9588 8.4439 14.8708 8.33223L13.6414 6.99548Z" fill="#FC3C37"/>
</svg>
