<svg width="13" height="16" viewBox="0 0 13 16" fill="none" xmlns="http://www.w3.org/2000/svg">
<path d="M11.8411 0.0624603C11.7326 0.0127633 11.6127 -0.00785855 11.4936 0.00268578C11.3744 0.0132301 11.2602 0.0545654 11.1625 0.122501L5.88321 3.99181H0.678571C0.498603 3.99181 0.326006 4.06209 0.198749 4.1872C0.0714921 4.31231 0 4.482 0 4.65893V11.3301C0 11.5071 0.0714921 11.6768 0.198749 11.8019C0.326006 11.927 0.498603 11.9973 0.678571 11.9973H5.88321L11.1286 15.8666C11.2294 15.9409 11.3493 15.9862 11.4748 15.9973C11.6003 16.0084 11.7265 15.985 11.8392 15.9296C11.9519 15.8742 12.0467 15.789 12.1129 15.6836C12.1792 15.5782 12.2143 15.4568 12.2143 15.3329V0.656199C12.2139 0.533003 12.1788 0.412317 12.113 0.307517C12.0471 0.202717 11.953 0.117898 11.8411 0.0624603Z" fill="#F0B829"/>
</svg>
