<svg width="32" height="30" viewBox="0 0 32 30" fill="none" xmlns="http://www.w3.org/2000/svg">
<path fill-rule="evenodd" clip-rule="evenodd" d="M20.7158 2.33331C23.5789 6.49993 20.379 7.83325 17.0105 8.33324H26.9474V13.3332H0V8.33324H9.93684C6.56842 7.83325 3.2 6.49993 6.23158 2.33331C7.41053 0.66666 8.58947 0 9.6 0C11.2842 0 12.4632 1.83331 13.4737 3.66663C14.4842 1.83331 15.6632 0 17.3474 0C18.3579 0 19.5368 0.66666 20.7158 2.33331ZM11.7895 8.33324V11.6665H15.1579V8.33324H11.7895Z" fill="#979797"/>
<path d="M11.7895 14.9998V24.9997H15.1579V14.9998H25.2632V16.6665C21.5425 16.6665 18.5263 19.6512 18.5263 23.3331C18.5263 24.5474 18.8544 25.6858 19.4276 26.6664H1.68421V14.9998H11.7895Z" fill="#979797"/>
<path d="M31.5001 23.3331C31.5001 26.7339 28.7127 29.4997 25.2632 29.4997C21.8137 29.4997 19.0264 26.7339 19.0264 23.3331C19.0264 19.9323 21.8137 17.1665 25.2632 17.1665C28.7127 17.1665 31.5001 19.9323 31.5001 23.3331Z" stroke="#979797"/>
<path d="M23.5791 21.6665L25.2633 24.9998L26.9475 21.6665" stroke="#979797" stroke-width="1.5" stroke-linecap="round" stroke-linejoin="round"/>
</svg>
