<svg width="200" height="278" viewBox="0 0 200 278" fill="none" xmlns="http://www.w3.org/2000/svg">
<g clip-path="url(#clip0_2709_120684)">
<rect y="0.00439453" width="200" height="278" rx="10" fill="url(#paint0_linear_2709_120684)"/>
<path d="M172.472 214.964C175.652 221.229 183.943 218.885 184 212.718C184.057 205.804 175.519 202.199 172.699 195.737L172.661 195.658L172.623 195.757C169.67 202.159 161.057 205.587 161.001 212.502C160.925 218.648 169.159 221.15 172.472 214.964Z" fill="#E04749"/>
<path d="M27.5283 63.0445C24.3481 56.7799 16.0571 59.1242 16.0003 65.2903C15.9435 72.2051 24.4806 75.8102 27.3011 82.2718L27.339 82.3506L27.3768 82.2521C30.3298 75.8496 38.9427 72.4218 38.9995 65.507C39.0752 59.3606 30.8409 56.8587 27.5283 63.0445Z" fill="#E04749"/>
<path d="M22.276 47.0044C22.4419 44.4333 22.7074 42.0737 23.0724 39.9257C23.4374 37.7451 23.9517 35.6784 24.6154 33.7257C25.3122 31.7729 26.1916 29.8527 27.2534 27.965C28.3152 26.0774 29.6259 24.1083 31.1855 22.0579H17V16.0044H39V20.3981C37.1418 22.6112 35.6154 24.6779 34.4208 26.5981C33.2594 28.5183 32.3635 30.4711 31.733 32.4564C31.1026 34.4417 30.638 36.606 30.3394 38.9493C30.0407 41.2926 29.8084 43.9776 29.6425 47.0044H22.276Z" fill="#E04749"/>
<path d="M177.724 231.004C177.558 233.576 177.293 235.935 176.928 238.083C176.563 240.264 176.048 242.33 175.385 244.283C174.688 246.236 173.808 248.156 172.747 250.044C171.685 251.931 170.374 253.9 168.814 255.951H183V262.004H161V257.611C162.858 255.398 164.385 253.331 165.579 251.411C166.741 249.49 167.637 247.538 168.267 245.552C168.897 243.567 169.362 241.403 169.661 239.06C169.959 236.716 170.192 234.031 170.357 231.004H177.724Z" fill="#E04749"/>
<path d="M75.9975 77.6617C79.099 71.4052 87 73.83 87 80.0319C87 86.9836 78.8093 89.4413 76.0425 95.9113L75.9975 96.0044L75.9576 95.9113C73.1907 89.4413 65 86.9836 65 80.0319C64.995 73.8246 72.896 71.4052 75.9975 77.6617Z" fill="#E04749"/>
<path d="M123.998 77.6617C127.099 71.4052 135 73.83 135 80.0319C135 86.9836 126.809 89.4413 124.042 95.9113L123.998 96.0044L123.958 95.9113C121.191 89.4413 113 86.9836 113 80.0319C112.995 73.8246 120.896 71.4052 123.998 77.6617Z" fill="#E04749"/>
<path d="M123.998 131.662C127.099 125.405 135 127.83 135 134.032C135 140.984 126.809 143.441 124.042 149.911L123.998 150.004L123.958 149.911C121.191 143.441 113 140.984 113 134.032C112.995 127.825 120.896 125.405 123.998 131.662Z" fill="#E04749"/>
<path d="M99.9975 104.662C103.099 98.4052 111 100.83 111 107.032C111 113.984 102.809 116.441 100.042 122.911L99.9975 123.004L99.9576 122.911C97.1907 116.441 89 113.984 89 107.032C88.995 100.825 96.896 98.4052 99.9975 104.662Z" fill="#E04749"/>
<path d="M75.9975 131.662C79.099 125.405 87 127.83 87 134.032C87 140.984 78.8093 143.441 76.0425 149.911L75.9975 150.004L75.9576 149.911C73.1907 143.441 65 140.984 65 134.032C64.995 127.825 72.896 125.405 75.9975 131.662Z" fill="#E04749"/>
<path d="M124.002 200.347C120.901 206.604 113 204.179 113 197.977C113 191.025 121.191 188.567 123.958 182.097L124.002 182.004L124.042 182.097C126.809 188.567 135 191.025 135 197.977C135.005 204.184 127.104 206.604 124.002 200.347Z" fill="#E04749"/>
<path d="M76.0025 200.347C72.901 206.604 65 204.179 65 197.977C65 191.025 73.1907 188.567 75.9575 182.097L76.0025 182.004L76.0424 182.097C78.8093 188.567 87 191.025 87 197.977C87.005 204.184 79.104 206.604 76.0025 200.347Z" fill="#E04749"/>
</g>
<defs>
<linearGradient id="paint0_linear_2709_120684" x1="0" y1="278.004" x2="200" y2="0.00440461" gradientUnits="userSpaceOnUse">
<stop stop-color="#101010"/>
<stop offset="0.712851" stop-color="#201F1F"/>
<stop offset="1" stop-color="#101010"/>
</linearGradient>
<clipPath id="clip0_2709_120684">
<rect width="200" height="278" fill="white"/>
</clipPath>
</defs>
</svg>
