<svg width="12" height="12" viewBox="0 0 12 12" fill="none" xmlns="http://www.w3.org/2000/svg">
    <path d="M0.263998 11.736C-0.0879913 11.384 -0.0879913 10.8133 0.263998 10.4613L10.4613 0.263992C10.8133 -0.0879974 11.384 -0.0879974 11.736 0.263992C12.088 0.615982 12.088 1.18667 11.736 1.53866L1.53867 11.736C1.18668 12.088 0.615988 12.088 0.263998 11.736Z" fill="#363636"/>
    <path d="M0.263992 0.264327C0.615982 -0.0876627 1.18667 -0.0876627 1.53866 0.264327L11.736 10.4617C12.088 10.8137 12.088 11.3843 11.736 11.7363C11.384 12.0883 10.8133 12.0883 10.4613 11.7363L0.263992 1.539C-0.0879973 1.18701 -0.0879976 0.616317 0.263992 0.264327Z" fill="#363636"/>
</svg>
