<svg xmlns="http://www.w3.org/2000/svg" width="17" height="17" viewBox="0 0 17 17" fill="none">
  <path d="M0.374046 16.626C-0.124605 16.1274 -0.124605 15.3189 0.374046 14.8202L14.8202 0.373989C15.3189 -0.124663 16.1274 -0.124663 16.626 0.373989C17.1247 0.872642 17.1247 1.68112 16.626 2.17977L2.17982 16.626C1.68117 17.1247 0.872697 17.1247 0.374046 16.626Z" fill="#7E7E7E"/>
  <path d="M16.626 16.626C17.1246 16.1274 17.1246 15.3189 16.626 14.8202L2.17976 0.373989C1.68111 -0.124663 0.872639 -0.124663 0.373988 0.373989C-0.124663 0.872642 -0.124663 1.68112 0.373988 2.17977L14.8202 16.626C15.3188 17.1247 16.1273 17.1247 16.626 16.626Z" fill="#7E7E7E"/>
</svg>