<svg xmlns="http://www.w3.org/2000/svg" width="20" height="20" viewBox="0 0 20 20" fill="none">
  <g clip-path="url(#clip0_114_60469)">
    <path fill-rule="evenodd" clip-rule="evenodd" d="M0.672804 3.4104C-0.00799561 4.748 -0.00799561 6.5016 -0.00799561 10C-0.00799561 13.5072 -0.00799561 15.252 0.672804 16.5896C1.2736 17.7664 2.2344 18.7192 3.4032 19.32C4.74 20 6.4936 20 9.992 20C13.4992 20 15.244 20 16.5816 19.3192C17.7584 18.7184 18.7112 17.7576 19.312 16.5888C19.9928 15.252 19.9928 13.4984 19.9928 9.9992C19.9928 6.492 19.9928 4.7472 19.312 3.4096C18.7112 2.2328 17.7504 1.28 16.5816 0.6792C15.244 0 13.4904 0 9.992 0C6.4848 0 4.74 0 3.4024 0.6808C2.2256 1.2808 1.2728 2.2416 0.672804 3.4104ZM14.996 5.396C15.172 5.396 15.34 5.468 15.46 5.588C15.58 5.716 15.652 5.884 15.644 6.052C15.612 7.9176 15.54 9.3424 15.404 10.4712C15.276 11.6 15.076 12.4408 14.7792 13.1136C14.5792 13.5696 14.3312 13.9464 14.0424 14.2584C13.6504 14.6824 13.2016 14.9872 12.7136 15.2752C12.5056 15.4032 12.2896 15.5232 12.0568 15.6512C11.5688 15.9232 11.04 16.228 10.4312 16.636C10.2152 16.78 9.9264 16.78 9.7104 16.636C9.0936 16.228 8.5576 15.9232 8.0688 15.6432C7.9568 15.5792 7.8528 15.5232 7.7488 15.4592C7.18 15.1312 6.66 14.8104 6.2112 14.3544C5.9072 14.0504 5.6504 13.6896 5.4424 13.2496C5.1624 12.6648 4.9704 11.9608 4.8256 11.056C4.6416 9.8392 4.5456 8.2456 4.5136 6.036C4.5136 5.868 4.5776 5.692 4.6976 5.572C4.8176 5.452 4.9856 5.38 5.1616 5.38H5.4336C6.2664 5.38 8.092 5.3 9.6768 4.0672C9.9088 3.8832 10.2376 3.8832 10.4776 4.0672C12.0632 5.3 13.888 5.38 14.7208 5.38H14.9928V5.396H14.996ZM13.5392 12.7064C13.7392 12.2904 13.9152 11.7056 14.044 10.8728C14.196 9.88 14.292 8.5272 14.332 6.6856C13.3552 6.6536 11.6816 6.4696 10.0808 5.3968C8.4792 6.4696 6.8064 6.6536 5.8376 6.6856C5.8696 8.2072 5.9416 9.392 6.0536 10.3208C6.1816 11.3776 6.3576 12.0904 6.5824 12.5944C6.7264 12.9304 6.8944 13.1712 7.0872 13.3792C7.3432 13.6672 7.672 13.9 8.12 14.164C8.304 14.276 8.512 14.388 8.7368 14.516C9.1368 14.74 9.5856 14.996 10.0976 15.3168C10.5936 14.9968 11.0424 14.748 11.4344 14.524C11.5544 14.46 11.6664 14.396 11.7704 14.332C12.3232 14.02 12.7312 13.7552 13.0272 13.4432C13.2272 13.2352 13.3952 13.0032 13.548 12.6904L13.5392 12.7064Z" fill="#3375BB"/>
  </g>
  <defs>
    <clipPath id="clip0_114_60469">
      <rect width="20" height="20" fill="white"/>
    </clipPath>
  </defs>
</svg>