<svg xmlns="http://www.w3.org/2000/svg" width="20" height="20" viewBox="0 0 20 20" fill="none">

  <g clip-path="url(#clip0_114_60472)">

    <path d="M10.004 19.9921C15.5202 19.9921 19.992 15.5203 19.992 10.0041C19.992 4.48789 15.5202 0.0161133 10.004 0.0161133C4.4878 0.0161133 0.0160217 4.48789 0.0160217 10.0041C0.0160217 15.5203 4.4878 19.9921 10.004 19.9921Z" fill="#3396FF"/>
    <path d="M6.11934 7.44923C8.25791 5.35872 11.7341 5.35872 13.8807 7.44923L14.137 7.69753C14.2411 7.80165 14.2411 7.96985 14.137 8.07398L13.2559 8.93101C13.1998 8.98707 13.1117 8.98707 13.0637 8.93101L12.7113 8.58659C11.2135 7.12884 8.79455 7.12884 7.29675 8.58659L6.9203 8.95504C6.86424 9.0111 6.77613 9.0111 6.72807 8.95504L5.84702 8.09801C5.74289 7.99388 5.74289 7.82568 5.84702 7.72156L6.12735 7.44923H6.11934ZM15.6988 9.22736L16.4838 9.99628C16.5879 10.1004 16.5879 10.2686 16.4838 10.3727L12.9435 13.8249C12.8394 13.929 12.6632 13.929 12.5591 13.8249L10.0441 11.3739C10.02 11.3499 9.97196 11.3499 9.94794 11.3739L7.43292 13.8249C7.32879 13.929 7.15258 13.929 7.04846 13.8249L3.50821 10.3727C3.40408 10.2686 3.40408 10.1004 3.50821 9.99628L4.29315 9.22736C4.39728 9.12324 4.57349 9.12324 4.67761 9.22736L7.19263 11.6783C7.21666 11.7023 7.26472 11.7023 7.28875 11.6783L9.80376 9.22736C9.90789 9.12324 10.0841 9.12324 10.1882 9.22736L12.7032 11.6783C12.7273 11.7023 12.7753 11.7023 12.7994 11.6783L15.3144 9.22736C15.4185 9.12324 15.5947 9.12324 15.6988 9.22736Z" fill="white"/>
  </g>
  <defs>

    <clipPath id="clip0_114_60472">
      <rect width="20" height="20" fill="white"/>
    </clipPath>
  </defs>
</svg> 

