<svg width="26" height="36" viewBox="0 0 26 36" fill="none" xmlns="http://www.w3.org/2000/svg">
<g clip-path="url(#clip0_3185_202078)">
<rect width="26" height="36" rx="1.3" fill="#292929"/>
<rect width="26" height="36" rx="1.3" fill="#1E1E1E"/>
<g clip-path="url(#clip1_3185_202078)">
<path d="M7.38512 14C6.86433 14 6.3895 13.9393 5.96061 13.8179C5.54194 13.7066 5.16922 13.5498 4.84245 13.3475C4.51568 13.1452 4.23487 12.9074 4 12.6343L5.04158 11.2231C5.33771 11.5063 5.66448 11.739 6.02188 11.9211C6.37929 12.1032 6.76222 12.1942 7.17068 12.1942C7.64041 12.1942 8.01823 12.0981 8.30416 11.9059C8.60029 11.7036 8.74836 11.4203 8.74836 11.0561C8.74836 10.7729 8.67688 10.5301 8.53392 10.3278C8.39096 10.1153 8.13056 9.95346 7.75274 9.84218C7.38512 9.7309 6.84391 9.67526 6.1291 9.67526V8.09712C6.71116 8.09712 7.17068 8.04148 7.50766 7.9302C7.84464 7.81892 8.0795 7.66717 8.21225 7.47496C8.35522 7.28275 8.4267 7.06019 8.4267 6.80728C8.4267 6.46333 8.31947 6.2003 8.10503 6.01821C7.9008 5.83612 7.60977 5.74507 7.23195 5.74507C6.88476 5.74507 6.5682 5.82094 6.28228 5.97269C6.00656 6.11431 5.71554 6.3217 5.40919 6.59484L4.27571 5.22913C4.72502 4.84471 5.19985 4.54628 5.70022 4.33384C6.20058 4.11128 6.7469 4 7.33917 4C8.00292 4 8.58497 4.10622 9.08534 4.31866C9.59592 4.52099 9.98906 4.81942 10.2648 5.21396C10.5507 5.59838 10.6937 6.07385 10.6937 6.64036C10.6937 7.13606 10.5507 7.56095 10.2648 7.91502C9.98906 8.26909 9.59081 8.55741 9.07002 8.77997V8.84067C9.43764 8.95195 9.76951 9.11381 10.0656 9.32625C10.3618 9.52858 10.5915 9.78654 10.7549 10.1002C10.9183 10.4138 11 10.7779 11 11.1927C11 11.7896 10.8315 12.3005 10.4945 12.7253C10.1678 13.1401 9.72867 13.4588 9.17724 13.6813C8.63603 13.8938 8.03866 14 7.38512 14Z" fill="#404040"/>
</g>
<g clip-path="url(#clip2_3185_202078)">
<path fill-rule="evenodd" clip-rule="evenodd" d="M20.2663 23.6949C19.1809 23.6949 18.2462 24.3247 17.8065 25.2333C17.4623 25.6415 16.9271 25.8183 16.3869 25.9353C16.51 25.2806 16.6608 24.5637 17.1734 24.1405C18.0905 23.7048 18.7261 22.7788 18.7261 21.7034C18.7261 20.2098 17.505 19 15.9975 19C14.4899 19 13.2688 20.2098 13.2688 21.7034C13.2688 22.7788 13.9045 23.7048 14.8216 24.1405C15.2663 24.4616 15.4648 25.2532 15.603 25.9353C15.0653 25.8183 14.5301 25.6415 14.1884 25.2358C13.7487 24.3272 12.8141 23.6974 11.7286 23.6974C10.2211 23.6974 9 24.9072 9 26.4008C9 27.8944 10.2211 29.1042 11.7286 29.1042C12.8141 29.1042 13.8492 28.3748 14.2889 27.4662C14.6683 27.048 15.1558 26.9484 15.7186 26.8439C15.7739 27.6081 15.7437 28.4371 15.6281 28.92C15.0754 30.4907 13.6809 32.3652 12.9372 33C13.9497 32.1387 18.0528 32.1387 19.0653 33C18.3191 32.3652 16.8266 30.3887 16.3744 28.92C16.2312 28.33 16.2487 27.2297 16.2588 26.8414C16.8317 26.9484 17.3266 27.0455 17.7111 27.4662C18.1508 28.3748 19.1859 29.1042 20.2714 29.1042C21.7789 29.1042 23 27.8944 23 26.4008C22.995 24.9047 21.7739 23.6949 20.2663 23.6949Z" fill="#404040"/>
</g>
</g>
<defs>
<clipPath id="clip0_3185_202078">
<rect width="26" height="36" fill="white"/>
</clipPath>
<clipPath id="clip1_3185_202078">
<rect width="7" height="10" fill="white" transform="translate(4 4)"/>
</clipPath>
<clipPath id="clip2_3185_202078">
<rect width="14" height="14" fill="white" transform="translate(9 19)"/>
</clipPath>
</defs>
</svg>
