<svg width="26" height="36" viewBox="0 0 26 36" fill="none" xmlns="http://www.w3.org/2000/svg">
<g clip-path="url(#clip0_3185_202141)">
<rect width="26" height="36" rx="1.3" fill="#292929"/>
<g clip-path="url(#clip1_3185_202141)">
<path d="M4 13.8179V12.0121H6.10756V6.4431H4.29017V5.06222C4.81961 4.96105 5.26759 4.83966 5.63412 4.69803C6.01083 4.5564 6.36718 4.38442 6.70317 4.18209H8.35256V12.0121H10.1699V13.8179H4Z" fill="#EAEAEA"/>
<path d="M14.5332 14C13.4947 14 12.6547 13.5701 12.0133 12.7102C11.3821 11.8503 11.0664 10.6009 11.0664 8.96206C11.0664 7.3131 11.3821 6.07385 12.0133 5.24431C12.6547 4.41477 13.4947 4 14.5332 4C15.5717 4 16.4066 4.41983 17.0379 5.25948C17.6793 6.08902 18 7.32322 18 8.96206C18 10.6009 17.6793 11.8503 17.0379 12.7102C16.4066 13.5701 15.5717 14 14.5332 14ZM14.5332 12.2701C14.7878 12.2701 15.0168 12.1791 15.2205 11.997C15.4241 11.8048 15.5819 11.4709 15.6939 10.9954C15.8161 10.5099 15.8772 9.83207 15.8772 8.96206C15.8772 8.08194 15.8161 7.40921 15.6939 6.94385C15.5819 6.4785 15.4241 6.15984 15.2205 5.98786C15.0168 5.81588 14.7878 5.72989 14.5332 5.72989C14.2787 5.72989 14.0496 5.81588 13.846 5.98786C13.6423 6.15984 13.4794 6.4785 13.3573 6.94385C13.2453 7.40921 13.1893 8.08194 13.1893 8.96206C13.1893 9.83207 13.2453 10.5099 13.3573 10.9954C13.4794 11.4709 13.6423 11.8048 13.846 11.997C14.0496 12.1791 14.2787 12.2701 14.5332 12.2701Z" fill="#EAEAEA"/>
</g>
<g clip-path="url(#clip2_3185_202141)">
<path fill-rule="evenodd" clip-rule="evenodd" d="M20.2663 23.6949C19.1809 23.6949 18.2462 24.3247 17.8065 25.2333C17.4623 25.6415 16.9271 25.8183 16.3869 25.9353C16.51 25.2806 16.6608 24.5637 17.1734 24.1405C18.0905 23.7048 18.7261 22.7788 18.7261 21.7034C18.7261 20.2098 17.505 19 15.9975 19C14.4899 19 13.2688 20.2098 13.2688 21.7034C13.2688 22.7788 13.9045 23.7048 14.8216 24.1405C15.2663 24.4616 15.4648 25.2532 15.603 25.9353C15.0653 25.8183 14.5301 25.6415 14.1884 25.2358C13.7487 24.3272 12.8141 23.6974 11.7286 23.6974C10.2211 23.6974 9 24.9072 9 26.4008C9 27.8944 10.2211 29.1042 11.7286 29.1042C12.8141 29.1042 13.8492 28.3748 14.2889 27.4662C14.6683 27.048 15.1558 26.9484 15.7186 26.8439C15.7739 27.6081 15.7437 28.4371 15.6281 28.92C15.0754 30.4907 13.6809 32.3652 12.9372 33C13.9497 32.1387 18.0528 32.1387 19.0653 33C18.3191 32.3652 16.8266 30.3887 16.3744 28.92C16.2312 28.33 16.2487 27.2297 16.2588 26.8414C16.8317 26.9484 17.3266 27.0455 17.7111 27.4662C18.1508 28.3748 19.1859 29.1042 20.2714 29.1042C21.7789 29.1042 23 27.8944 23 26.4008C22.995 24.9047 21.7739 23.6949 20.2663 23.6949Z" fill="#EAEAEA"/>
</g>
</g>
<defs>
<clipPath id="clip0_3185_202141">
<rect width="26" height="36" fill="white"/>
</clipPath>
<clipPath id="clip1_3185_202141">
<rect width="14" height="10" fill="white" transform="translate(4 4)"/>
</clipPath>
<clipPath id="clip2_3185_202141">
<rect width="14" height="14" fill="white" transform="translate(9 19)"/>
</clipPath>
</defs>
</svg>
