<svg width="26" height="36" viewBox="0 0 26 36" fill="none" xmlns="http://www.w3.org/2000/svg">
<g clip-path="url(#clip0_3185_202153)">
<rect width="26" height="36" rx="1.3" fill="#292929"/>
<rect width="26" height="36" rx="1.3" fill="#1E1E1E"/>
<g clip-path="url(#clip1_3185_202153)">
<path d="M4.06208 14V12.5935C4.88987 11.8619 5.62454 11.1767 6.26608 10.5379C6.91796 9.89902 7.42498 9.30654 7.78714 8.76043C8.15965 8.21432 8.3459 7.71458 8.3459 7.26121C8.3459 6.77692 8.22173 6.41113 7.97339 6.16383C7.72506 5.90623 7.38359 5.77743 6.949 5.77743C6.59719 5.77743 6.27642 5.88047 5.9867 6.08655C5.70732 6.28233 5.44346 6.51417 5.19512 6.78207L4 5.60742C4.47598 5.07161 4.96231 4.66976 5.45898 4.40185C5.966 4.13395 6.56615 4 7.25942 4C7.90096 4 8.46489 4.1288 8.95122 4.3864C9.44789 4.644 9.83075 5.00464 10.0998 5.46831C10.3792 5.93199 10.5188 6.4781 10.5188 7.10665C10.5188 7.69397 10.3585 8.27099 10.0377 8.83771C9.72727 9.39413 9.31338 9.95054 8.79601 10.507C8.27864 11.0634 7.73023 11.6301 7.15078 12.2071C7.39911 12.1762 7.67849 12.1504 7.98891 12.1298C8.29934 12.0989 8.56837 12.0835 8.79601 12.0835H11V14H4.06208Z" fill="#404040"/>
</g>
<g clip-path="url(#clip2_3185_202153)">
<path d="M16.0016 21.3274C14.0279 17.3459 9 18.889 9 22.8357C9 27.2595 14.2123 28.8235 15.973 32.9408L16.0016 33L16.027 32.9408C17.7877 28.8235 23 27.2595 23 22.8357C23.0032 18.8856 17.9753 17.3459 16.0016 21.3274Z" fill="#404040"/>
</g>
</g>
<defs>
<clipPath id="clip0_3185_202153">
<rect width="26" height="36" fill="white"/>
</clipPath>
<clipPath id="clip1_3185_202153">
<rect width="7" height="10" fill="white" transform="translate(4 4)"/>
</clipPath>
<clipPath id="clip2_3185_202153">
<rect width="14" height="14" fill="white" transform="translate(9 19)"/>
</clipPath>
</defs>
</svg>
