<svg width="26" height="36" viewBox="0 0 26 36" fill="none" xmlns="http://www.w3.org/2000/svg">
<g clip-path="url(#clip0_3185_202168)">
<rect width="26" height="36" rx="1.3" fill="#292929"/>
<g clip-path="url(#clip1_3185_202168)">
<path d="M7.43107 14C6.90007 14 6.42013 13.9382 5.99125 13.8145C5.57257 13.6909 5.19985 13.526 4.87309 13.3199C4.54632 13.1139 4.25529 12.882 4 12.6244L5.01094 11.187C5.30708 11.4549 5.62874 11.6868 5.97593 11.8825C6.32312 12.068 6.70095 12.1607 7.10941 12.1607C7.43618 12.1607 7.7221 12.1041 7.96718 11.9907C8.21225 11.8671 8.40117 11.6919 8.53392 11.4652C8.67688 11.2385 8.74836 10.9603 8.74836 10.6306C8.74836 10.136 8.6054 9.75992 8.31947 9.50232C8.03355 9.24472 7.66594 9.11592 7.21663 9.11592C6.94092 9.11592 6.70605 9.15198 6.51203 9.22411C6.31802 9.29624 6.07294 9.42504 5.77681 9.61051L4.76586 8.96136L5.04158 4H10.5558V5.91654H6.98687L6.81838 7.7558C7.0124 7.67336 7.1911 7.61669 7.35449 7.58578C7.51787 7.54456 7.70168 7.52396 7.90591 7.52396C8.46754 7.52396 8.98322 7.63215 9.45295 7.84853C9.92268 8.06492 10.2954 8.39979 10.5711 8.85317C10.857 9.30654 11 9.87841 11 10.5688C11 11.3004 10.8315 11.9237 10.4945 12.4389C10.1678 12.9438 9.73377 13.3302 9.19256 13.5981C8.65135 13.866 8.06419 14 7.43107 14Z" fill="#EAEAEA"/>
</g>
<g clip-path="url(#clip2_3185_202168)">
<path fill-rule="evenodd" clip-rule="evenodd" d="M20.2663 23.6949C19.1809 23.6949 18.2462 24.3247 17.8065 25.2333C17.4623 25.6415 16.9271 25.8183 16.3869 25.9353C16.51 25.2806 16.6608 24.5637 17.1734 24.1405C18.0905 23.7048 18.7261 22.7788 18.7261 21.7034C18.7261 20.2098 17.505 19 15.9975 19C14.4899 19 13.2688 20.2098 13.2688 21.7034C13.2688 22.7788 13.9045 23.7048 14.8216 24.1405C15.2663 24.4616 15.4648 25.2532 15.603 25.9353C15.0653 25.8183 14.5301 25.6415 14.1884 25.2358C13.7487 24.3272 12.8141 23.6974 11.7286 23.6974C10.2211 23.6974 9 24.9072 9 26.4008C9 27.8944 10.2211 29.1042 11.7286 29.1042C12.8141 29.1042 13.8492 28.3748 14.2889 27.4662C14.6683 27.048 15.1558 26.9484 15.7186 26.8439C15.7739 27.6081 15.7437 28.4371 15.6281 28.92C15.0754 30.4907 13.6809 32.3652 12.9372 33C13.9497 32.1387 18.0528 32.1387 19.0653 33C18.3191 32.3652 16.8266 30.3887 16.3744 28.92C16.2312 28.33 16.2487 27.2297 16.2588 26.8414C16.8317 26.9484 17.3266 27.0455 17.7111 27.4662C18.1508 28.3748 19.1859 29.1042 20.2714 29.1042C21.7789 29.1042 23 27.8944 23 26.4008C22.995 24.9047 21.7739 23.6949 20.2663 23.6949Z" fill="#EAEAEA"/>
</g>
</g>
<defs>
<clipPath id="clip0_3185_202168">
<rect width="26" height="36" fill="white"/>
</clipPath>
<clipPath id="clip1_3185_202168">
<rect width="7" height="10" fill="white" transform="translate(4 4)"/>
</clipPath>
<clipPath id="clip2_3185_202168">
<rect width="14" height="14" fill="white" transform="translate(9 19)"/>
</clipPath>
</defs>
</svg>
