<svg width="125" height="50" viewBox="0 0 125 50" fill="none" xmlns="http://www.w3.org/2000/svg">
<g clip-path="url(#clip0_9373_13834)">
<rect x="41.9653" y="3" width="34.7923" height="34.7923" rx="17.3961" fill="#B78A51"/>
<path d="M66.4642 16.595C67.7044 16.5293 68.5108 16.2785 69.4592 15.7573C70.7062 15.0724 71.2354 12.9231 71.2354 12.9231C68.1733 14.9806 63.9869 15.4159 63.9869 15.4159C62.7395 17.4153 61.5901 18.5857 60.6286 19.2647C60.4704 19.1728 60.3284 19.0557 60.2081 18.9181C59.9104 18.5255 59.8759 18.1267 59.8854 18.059C59.8949 17.9914 59.9648 17.8818 60.1236 17.8335C60.1775 17.8144 60.2352 17.8084 60.2918 17.816C60.3485 17.8235 60.4026 17.8445 60.4495 17.877C60.4031 17.6 60.3773 17.4675 60.2145 17.3302C60.0632 17.2032 59.7881 17.1838 59.7881 17.1838C59.6499 17.0723 59.4841 17.0002 59.3081 16.9749C58.846 16.9104 58.5407 17.109 58.3239 17.3108C58.0345 17.5803 58.0119 18.0824 57.8035 18.6589C57.7099 18.9134 57.5277 19.126 57.2901 19.258C56.331 18.5774 55.186 17.4081 53.943 15.4167C53.943 15.4167 49.7565 14.9814 46.6948 12.9238C46.6948 12.9238 47.2236 15.0732 48.4706 15.7581C49.4195 16.2792 50.2258 16.5301 51.4657 16.5958C51.4657 16.5958 49.7939 16.7386 47.8727 15.8159C47.8727 15.8159 48.9526 17.5122 49.9689 18.0662C50.9853 18.6201 52.2545 18.8389 53.1577 18.7942C53.1577 18.7942 51.5867 19.1713 50.2814 18.6201C50.2814 18.6201 51.6526 20.4197 54.1093 20.3611C54.1093 20.3611 53.3125 20.5617 52.5697 20.4292C52.5697 20.4292 53.7 21.384 54.6342 21.5411C54.6342 21.5411 55.0113 21.6158 55.791 21.5316C55.5507 21.6802 55.2747 21.7616 54.9919 21.767C54.9919 21.767 55.7899 22.2418 56.3838 22.2936C56.5412 22.304 56.6993 22.2977 56.8554 22.2747C56.7405 22.3441 56.6135 22.3914 56.481 22.4139C56.481 22.4139 57.2731 22.6953 57.7912 22.4499C57.2159 24.1882 56.7919 24.7093 56.7919 24.7093L56.9444 24.8905C56.9601 24.9096 56.9801 24.9247 57.0027 24.9346C57.0254 24.9446 57.0501 24.9491 57.0748 24.9479C57.0995 24.9467 57.1236 24.9397 57.1451 24.9275C57.1667 24.9154 57.1851 24.8984 57.1988 24.8779L57.5403 24.4109L57.1405 25.1339L57.3084 25.3012C57.3258 25.3188 57.3471 25.3321 57.3705 25.3401C57.394 25.348 57.419 25.3503 57.4435 25.3469C57.4681 25.3435 57.4915 25.3344 57.5118 25.3203C57.5322 25.3063 57.549 25.2877 57.5609 25.266L57.7844 24.8953L57.4875 25.5739L57.6709 25.7246C57.6899 25.7405 57.7124 25.7517 57.7365 25.7574C57.7607 25.763 57.7858 25.763 57.8099 25.7572C57.8341 25.7514 57.8565 25.7401 57.8754 25.7242C57.8944 25.7082 57.9093 25.688 57.919 25.6653L58.0564 25.3784L57.8876 25.9205L58.0861 26.0499C58.1068 26.0632 58.1302 26.0716 58.1546 26.0743C58.179 26.0771 58.2037 26.0742 58.2268 26.0658C58.2499 26.0575 58.2707 26.0439 58.2876 26.0262C58.3046 26.0084 58.3171 25.987 58.3243 25.9636L58.4832 25.507L58.3664 26.1243C58.3578 26.1701 58.3627 26.2174 58.3806 26.2606C58.3984 26.3037 58.4284 26.3407 58.4669 26.3672L58.8139 26.5516L58.948 25.6811L59.0818 26.5516L59.4292 26.3672C59.4677 26.3407 59.4977 26.3037 59.5155 26.2606C59.5333 26.2174 59.5383 26.1701 59.5297 26.1243L59.4173 25.507L59.5761 25.9636C59.5833 25.987 59.5959 26.0084 59.6128 26.0262C59.6298 26.0439 59.6506 26.0575 59.6737 26.0658C59.6968 26.0742 59.7215 26.0771 59.7459 26.0743C59.7703 26.0716 59.7937 26.0632 59.8143 26.0499L60.0128 25.9205L59.8441 25.3784L59.9815 25.6653C59.9912 25.688 60.0061 25.7082 60.025 25.7242C60.044 25.7401 60.0664 25.7514 60.0905 25.7572C60.1146 25.763 60.1398 25.763 60.1639 25.7574C60.1881 25.7517 60.2106 25.7405 60.2296 25.7246L60.413 25.5739L60.1156 24.8953L60.3396 25.266C60.3514 25.2877 60.3682 25.3063 60.3886 25.3203C60.409 25.3344 60.4324 25.3435 60.4569 25.3469C60.4815 25.3503 60.5065 25.348 60.5299 25.3401C60.5534 25.3321 60.5747 25.3188 60.5921 25.3012L60.76 25.1339L60.357 24.4113L60.6984 24.8783C60.7122 24.8988 60.7306 24.9159 60.7522 24.9281C60.7738 24.9403 60.7979 24.9473 60.8227 24.9486C60.8475 24.9498 60.8722 24.9452 60.8949 24.9352C60.9176 24.9252 60.9376 24.91 60.9533 24.8909L61.1058 24.7097C61.1058 24.7097 60.6802 24.187 60.1033 22.4408V22.4365C60.6194 22.7095 61.4464 22.4159 61.4464 22.4159C61.3141 22.3933 61.1872 22.3461 61.0724 22.2766C61.2284 22.2996 61.3864 22.306 61.5437 22.2956C62.1392 22.243 62.9356 21.769 62.9356 21.769C62.6528 21.7635 62.3767 21.6822 62.1364 21.5335C62.9161 21.6178 63.2933 21.543 63.2933 21.543C64.2294 21.3848 65.3577 20.4312 65.3577 20.4312C64.6149 20.5637 63.8181 20.3631 63.8181 20.3631C66.2748 20.4205 67.6465 18.6221 67.6465 18.6221C66.3411 19.1733 64.7702 18.7962 64.7702 18.7962C65.6729 18.8409 66.9426 18.6217 67.9585 18.0681C68.9745 17.5146 70.0571 15.8155 70.0571 15.8155C68.136 16.7378 66.4642 16.595 66.4642 16.595Z" fill="white"/>
<path d="M68.1229 18.9782C68.0907 19.0205 67.6703 19.5607 66.8969 20.0659C66.8779 24.4094 63.327 27.9365 58.9651 27.9365C54.6032 27.9365 51.052 24.409 51.0329 20.0659C50.2595 19.5607 49.8395 19.0205 49.807 18.9782L49.5112 18.5896C49.4389 19.0666 49.4026 19.5483 49.4028 20.0307C49.4191 22.5477 50.4337 24.956 52.2252 26.73C54.0166 28.5041 56.4395 29.4998 58.9649 29.4998C61.4903 29.4998 63.9132 28.5041 65.7047 26.73C67.4961 24.956 68.5108 22.5477 68.527 20.0307C68.5271 19.5484 68.4911 19.0666 68.419 18.5896L68.1229 18.9782Z" fill="white"/>
<path d="M51.5963 14.3602C52.1874 14.5117 52.7138 14.6186 53.1228 14.6914C53.8646 13.8826 54.7673 13.2366 55.7735 12.7947C56.7796 12.3527 57.867 12.1245 58.9665 12.1245C60.066 12.1245 61.1534 12.3527 62.1596 12.7947C63.1657 13.2366 64.0684 13.8826 64.8102 14.6914C65.2192 14.6186 65.7456 14.5117 66.3367 14.3602C66.4221 14.338 66.5102 14.3147 66.6003 14.2901C66.3325 13.9379 66.0406 13.6043 65.7269 13.2918C64.8391 12.4068 63.785 11.7048 62.6249 11.2258C61.4648 10.7468 60.2214 10.5003 58.9657 10.5003C57.71 10.5003 56.4666 10.7468 55.3065 11.2258C54.1464 11.7048 53.0923 12.4068 52.2045 13.2918C51.8908 13.6043 51.599 13.9379 51.3311 14.2901C51.4212 14.3147 51.5093 14.338 51.5963 14.3602Z" fill="white"/>
<g clip-path="url(#clip1_9373_13834)">
<mask id="mask0_9373_13834" style="mask-type:luminance" maskUnits="userSpaceOnUse" x="26" y="17" width="20" height="22">
<path d="M26.8569 17.5178H45.7028V38.2275H26.8569V17.5178Z" fill="white"/>
</mask>
<g mask="url(#mask0_9373_13834)">
<path d="M43.8975 29.9592C43.648 31.0585 43.2039 32.0931 42.5905 33.0038C41.9771 33.9145 41.2065 34.6836 40.3227 35.267C39.4388 35.8505 38.4591 36.2369 37.4393 36.4043C36.4196 36.5717 35.3798 36.5167 34.3794 36.2425C33.379 35.9683 32.4376 35.4802 31.6088 34.8062C30.7801 34.1321 30.0802 33.2853 29.5493 32.3141C29.0183 31.3428 28.6667 30.2662 28.5144 29.1456C28.3621 28.025 28.4121 26.8824 28.6616 25.783C29.1656 23.5628 30.4515 21.6535 32.2365 20.4752C34.0214 19.2968 36.1593 18.9459 38.1797 19.4997C40.2001 20.0535 41.9376 21.4666 43.0099 23.4281C44.0822 25.3896 44.4015 27.7389 43.8975 29.9592Z" fill="#F7931A"/>
<path d="M39.7426 26.6435C39.899 25.4941 39.1037 24.878 38.0154 24.4659L38.3688 22.9106L37.5066 22.6745L37.1636 24.1894C36.9339 24.1272 36.7036 24.0675 36.4729 24.0102L36.8187 22.486L35.9574 22.2499L35.6041 23.8052C35.4205 23.7599 35.2374 23.7126 35.0547 23.6634V23.6582L33.8674 23.332L33.6375 24.3437C33.6375 24.3437 34.2773 24.5042 34.2632 24.5145C34.6118 24.6098 34.6759 24.8635 34.6646 25.0654L34.2632 26.8361C34.2936 26.8446 34.3235 26.8553 34.3527 26.8682L34.2613 26.8433L33.6978 29.3254C33.6554 29.4424 33.547 29.6174 33.303 29.5511C33.3124 29.5646 32.6773 29.3792 32.6773 29.3792L32.2495 30.4613L33.3708 30.7689C33.5791 30.8258 33.7836 30.8869 33.9852 30.9428L33.6281 32.5168L34.4884 32.7518L34.8418 31.1955C35.0773 31.2659 35.3054 31.3301 35.5287 31.3922L35.1772 32.9403L36.0385 33.1764L36.3946 31.6066C37.8646 31.912 38.969 31.7888 39.4345 30.3288C39.8086 29.1525 39.4156 28.4753 38.643 28.0321C39.2055 27.8902 39.6295 27.4843 39.7426 26.6435ZM37.7732 29.6775C37.5075 30.8527 35.7058 30.2159 35.1216 30.0575L35.5956 27.973C36.1798 28.1335 38.0521 28.4504 37.7742 29.6764L37.7732 29.6775ZM38.0408 26.6259C37.7977 27.6955 36.2976 27.1519 35.8114 27.0194L36.242 25.1286C36.7282 25.2621 38.2934 25.5107 38.0408 26.6259Z" fill="white"/>
<path d="M45.4199 30.3785C44.1619 35.9245 39.0481 39.3013 33.9993 37.9168C28.9524 36.5355 25.8796 30.9169 27.1394 25.3698C28.3974 19.8207 33.5093 16.445 38.5581 17.8284C43.6069 19.2118 46.6778 24.8314 45.4199 30.3785Z" fill="#FF9A1F"/>
<path d="M40.9639 26.4519C41.1796 24.9287 40.0819 24.1096 38.5808 23.5629L39.068 21.5002L37.8788 21.1875L37.4048 23.1963C37.0929 23.1135 36.7716 23.0358 36.4531 22.9592L36.9299 20.9369L35.7426 20.6242L35.2545 22.6869C35.0011 22.6267 34.7483 22.5639 34.496 22.4984L34.4969 22.4922L32.8573 22.0594L32.5417 23.4003C32.5417 23.4003 33.4236 23.6147 33.4048 23.6281C33.8854 23.7545 33.973 24.091 33.9589 24.3581L33.4039 26.7087C33.4368 26.718 33.4802 26.7304 33.5273 26.7501L33.402 26.718L32.6246 30.0109C32.5662 30.1662 32.4173 30.3971 32.0799 30.3091C32.0922 30.3277 31.2159 30.0813 31.2159 30.0813L30.626 31.5175L32.1723 31.9255C32.4606 32.0021 32.7424 32.0808 33.0203 32.1564L32.5285 34.2439L33.7157 34.5566L34.2029 32.4919C34.5271 32.5851 34.8418 32.671 35.1499 32.7508L34.6646 34.8072L35.8538 35.1199L36.3457 33.0365C38.3716 33.4414 39.8962 33.2789 40.5389 31.3415C41.0553 29.781 40.5125 28.8822 39.4458 28.2951C40.2232 28.1056 40.8074 27.5661 40.9639 26.4509V26.4519ZM38.2482 30.4758C37.8807 32.0363 35.3949 31.1924 34.5893 30.9811L35.2423 28.2164C36.0479 28.4286 38.6317 28.849 38.2482 30.4758ZM38.6157 26.4291C38.2802 27.8477 36.2119 27.127 35.541 26.951L36.1327 24.4431C36.8036 24.6191 38.9643 24.9494 38.6157 26.4291Z" fill="white"/>
<mask id="mask1_9373_13834" style="mask-type:luminance" maskUnits="userSpaceOnUse" x="26" y="17" width="20" height="22">
<path d="M26.8569 17.5178H45.7028V38.2275H26.8569V17.5178Z" fill="white"/>
</mask>
<g mask="url(#mask1_9373_13834)">
<path d="M43.8975 29.9591C43.648 31.0584 43.2039 32.093 42.5905 33.0037C41.9771 33.9144 41.2065 34.6835 40.3227 35.267C39.4388 35.8504 38.4591 36.2369 37.4393 36.4042C36.4196 36.5716 35.3798 36.5166 34.3794 36.2424C33.379 35.9682 32.4376 35.4801 31.6088 34.8061C30.7801 34.1321 30.0802 33.2852 29.5493 32.314C29.0183 31.3427 28.6667 30.2661 28.5144 29.1455C28.3621 28.0249 28.4121 26.8823 28.6616 25.783C29.1656 23.5626 30.4515 21.6532 32.2366 20.4747C34.0217 19.2963 36.1596 18.9453 38.1802 19.4991C40.2007 20.0529 41.9383 21.466 43.0107 23.4277C44.0831 25.3893 44.4015 27.7387 43.8975 29.9591Z" fill="#F7931A"/>
<path d="M39.7426 26.6435C39.899 25.4941 39.1037 24.878 38.0154 24.4659L38.3688 22.9106L37.5066 22.6745L37.1636 24.1894C36.9374 24.1273 36.7037 24.0682 36.4729 24.0102L36.8187 22.486L35.9574 22.2499L35.605 23.8052C35.4166 23.7586 35.2328 23.712 35.0547 23.6634V23.6582L33.8674 23.332L33.6375 24.3437C33.6375 24.3437 34.2773 24.5042 34.2641 24.5145C34.6128 24.6098 34.6759 24.8635 34.6655 25.0654L34.2632 26.8361C34.2936 26.8446 34.3235 26.8553 34.3527 26.8682L34.2622 26.8433L33.6988 29.3254C33.6554 29.4424 33.548 29.6174 33.303 29.5511C33.3124 29.5646 32.6773 29.3792 32.6773 29.3792L32.2495 30.4613L33.3708 30.7689C33.5791 30.8258 33.7836 30.8869 33.9852 30.9428L33.6281 32.5168L34.4893 32.7518L34.8418 31.1955C35.0773 31.2659 35.3054 31.3301 35.5296 31.3922L35.1772 32.9403L36.0385 33.1764L36.3956 31.6066C37.8646 31.912 38.969 31.7888 39.4345 30.3288C39.8095 29.1525 39.4156 28.4753 38.643 28.0321C39.2055 27.8902 39.6295 27.4843 39.7426 26.6435ZM37.7742 29.6775C37.5075 30.8527 35.7068 30.2159 35.1226 30.0575L35.5956 27.973C36.1798 28.1335 38.0521 28.4504 37.7742 29.6764V29.6775ZM38.0408 26.6259C37.7977 27.6955 36.2976 27.1519 35.8123 27.0194L36.2411 25.1286C36.7273 25.2621 38.2934 25.5107 38.0408 26.6259Z" fill="white"/>
<path d="M45.4199 30.3785C44.1619 35.9245 39.0481 39.3013 33.9993 37.9168C28.9524 36.5355 25.8796 30.9169 27.1394 25.3698C28.3974 19.8207 33.5093 16.445 38.5581 17.8284C43.6069 19.2118 46.6778 24.8314 45.4199 30.3785Z" fill="#FF9A1F"/>
<path d="M40.9639 26.4519C41.1796 24.9287 40.0819 24.1096 38.5808 23.5629L39.068 21.5002L37.8788 21.1875L37.4048 23.1963C37.0929 23.1135 36.7716 23.0358 36.4531 22.9592L36.9299 20.9369L35.7426 20.6242L35.2545 22.6869C35.0011 22.6267 34.7483 22.5639 34.496 22.4984L34.4969 22.4922L32.8573 22.0594L32.5417 23.4003C32.5417 23.4003 33.4236 23.6147 33.4048 23.6281C33.8854 23.7545 33.973 24.091 33.9589 24.3581L33.4039 26.7087C33.4368 26.718 33.4802 26.7304 33.5273 26.7501L33.402 26.718L32.6246 30.0109C32.5662 30.1662 32.4173 30.3971 32.0799 30.3091C32.0922 30.3277 31.2159 30.0813 31.2159 30.0813L30.626 31.5175L32.1723 31.9255C32.4606 32.0021 32.7424 32.0808 33.0203 32.1564L32.5285 34.2439L33.7157 34.5566L34.2029 32.4919C34.5271 32.5851 34.8418 32.671 35.1499 32.7508L34.6646 34.8072L35.8538 35.1199L36.3457 33.0365C38.3716 33.4414 39.8962 33.2789 40.5389 31.3415C41.0553 29.781 40.5125 28.8822 39.4458 28.2951C40.2232 28.1056 40.8074 27.5661 40.9639 26.4509V26.4519ZM38.2482 30.4758C37.8807 32.0363 35.3949 31.1924 34.5893 30.9811L35.2423 28.2164C36.0479 28.4286 38.6317 28.849 38.2482 30.4758ZM38.6157 26.4291C38.2802 27.8477 36.2119 27.127 35.541 26.951L36.1327 24.4431C36.8036 24.6191 38.9643 24.9494 38.6157 26.4291Z" fill="white"/>
<path d="M36.2798 38.2275C41.484 38.2275 45.7028 33.5914 45.7028 27.8726C45.7028 22.1538 41.484 17.5178 36.2798 17.5178C31.0757 17.5178 26.8569 22.1538 26.8569 27.8726C26.8569 33.5914 31.0757 38.2275 36.2798 38.2275Z" fill="#3572D1"/>
<path d="M35.6749 30.8113L36.3467 28.0258L37.9382 27.3849L38.334 25.7488L38.3199 25.7074L36.7547 26.337L37.8817 21.6597H34.6826L33.2079 27.7639L31.9764 28.2599L31.5684 29.9477L32.799 29.4527L31.9293 33.05H40.4457L40.9913 30.8113H35.6749Z" fill="#F2F2F4" fill-opacity="0.08"/>
<path d="M36.2798 17.5178C41.4841 17.5178 45.7028 22.1536 45.7028 27.8726C45.7028 33.5916 41.4832 38.2275 36.2798 38.2275C31.0765 38.2275 26.8569 33.5926 26.8569 27.8726C26.8569 22.1526 31.0756 17.5178 36.2798 17.5178Z" fill="#53AE94"/>
<path d="M36.2798 17.5178C41.4841 17.5178 45.7028 22.1536 45.7028 27.8726C45.7028 33.5916 41.4832 38.2275 36.2798 38.2275C31.0765 38.2275 26.8569 33.5926 26.8569 27.8726C26.8569 22.1526 31.0756 17.5178 36.2798 17.5178Z" fill="#53AE94"/>
<path d="M36.2798 38.2275C41.484 38.2275 45.7028 33.5914 45.7028 27.8726C45.7028 22.1538 41.484 17.5178 36.2798 17.5178C31.0757 17.5178 26.8569 22.1538 26.8569 27.8726C26.8569 33.5914 31.0757 38.2275 36.2798 38.2275Z" fill="white"/>
<path d="M40.2765 22.4363H41.9119L38.5097 26.3454C37.9152 27.0259 37.114 27.4074 36.2793 27.4074C35.4445 27.4074 34.6433 27.0259 34.0488 26.3454L30.6466 22.4363H32.2821L34.8675 25.4068C35.6467 26.303 36.9118 26.303 37.692 25.4068L40.2765 22.4363ZM32.2614 33.3089H30.626L34.0488 29.3747C34.6433 28.6942 35.4445 28.3128 36.2793 28.3128C37.114 28.3128 37.9152 28.6942 38.5097 29.3747L41.9335 33.3089H40.298L37.692 30.3144C37.3155 29.8838 36.8082 29.6424 36.2797 29.6424C35.7512 29.6424 35.244 29.8838 34.8675 30.3144L32.2614 33.3089Z" fill="black"/>
</g>
</g>
</g>
<g clip-path="url(#clip2_9373_13834)">
<path d="M25.2909 45.997C30.3071 44.6109 33.0769 38.7952 31.4775 33.0073C29.8781 27.2195 24.5152 23.6512 19.499 25.0373C14.4829 26.4235 11.7131 32.2391 13.3125 38.027C14.9118 43.8148 20.2748 47.3831 25.2909 45.997Z" fill="#EF0027"/>
<path d="M24.66 30.5996L15.9868 31.1239L23.7574 42.4506L27.4311 32.3451L24.66 30.5996ZM24.74 31.4024L26.3733 32.4308L23.1437 34.0939L24.74 31.4024ZM22.3593 34.1563L17.7914 31.6975L24.0426 31.3195L22.3593 34.1563ZM22.2712 34.8391L23.2349 40.6217L17.5099 32.2751L22.2712 34.8391ZM22.8985 34.9865L26.4754 33.145L23.8125 40.4677L22.8985 34.9865Z" fill="white"/>
<path d="M24.66 30.5996L15.9868 31.1239L23.7574 42.4506L27.4311 32.3451L24.66 30.5996ZM24.74 31.4024L26.3733 32.4308L23.1437 34.0939L24.74 31.4024ZM22.3593 34.1563L17.7914 31.6975L24.0426 31.3195L22.3593 34.1563ZM22.2712 34.8391L23.2349 40.6217L17.5099 32.2751L22.2712 34.8391ZM22.8985 34.9865L26.4754 33.145L23.8125 40.4677L22.8985 34.9865Z" fill="white"/>
</g>
<mask id="mask2_9373_13834" style="mask-type:luminance" maskUnits="userSpaceOnUse" x="69" y="17" width="22" height="22">
<path d="M69.8564 17H90.1736V38.7452H69.8564V17Z" fill="white"/>
</mask>
<g mask="url(#mask2_9373_13834)">
<path d="M88.2278 30.0634C87.9588 31.2177 87.48 32.304 86.8187 33.2603C86.1575 34.2165 85.3267 35.024 84.3739 35.6367C83.421 36.2493 82.3648 36.6551 81.2654 36.8308C80.1661 37.0066 79.0451 36.9488 77.9666 36.6609C76.8881 36.373 75.8732 35.8605 74.9797 35.1528C74.0862 34.445 73.3318 33.5559 72.7594 32.5361C72.187 31.5163 71.8078 30.3858 71.6436 29.2091C71.4794 28.0325 71.5334 26.8328 71.8024 25.6785C72.3457 23.3473 73.732 21.3425 75.6563 20.1052C77.5807 18.8679 79.8854 18.4995 82.0636 19.081C84.2417 19.6625 86.1148 21.1462 87.2709 23.2058C88.4269 25.2654 88.7711 27.7322 88.2278 30.0634Z" fill="#F7931A"/>
<path d="M83.7495 26.582C83.9181 25.3751 83.0607 24.7282 81.8874 24.2955L82.2684 22.6624L81.3389 22.4145L80.9691 24.0052C80.7215 23.9399 80.4732 23.8772 80.2245 23.8171L80.5973 22.2166L79.6688 21.9687L79.2878 23.6018C79.09 23.5542 78.8926 23.5046 78.6956 23.4529V23.4474L77.4156 23.1049L77.1677 24.1672C77.1677 24.1672 77.8575 24.3357 77.8423 24.3466C78.2181 24.4466 78.2872 24.713 78.275 24.925L77.8423 26.7842C77.8751 26.7932 77.9073 26.8044 77.9388 26.8179L77.8402 26.7918L77.2328 29.398C77.187 29.5208 77.0702 29.7046 76.8071 29.635C76.8173 29.6491 76.1326 29.4545 76.1326 29.4545L75.6714 30.5907L76.8803 30.9136C77.1048 30.9734 77.3252 31.0376 77.5426 31.0963L77.1576 32.7489L78.0851 32.9957L78.466 31.3616C78.72 31.4355 78.9658 31.5029 79.2066 31.5682L78.8277 33.1936L79.7562 33.4415L80.1401 31.7932C81.7249 32.114 82.9155 31.9846 83.4173 30.4515C83.8206 29.2164 83.397 28.5053 82.564 28.04C83.1705 27.891 83.6276 27.4648 83.7495 26.582ZM81.6263 29.7677C81.3399 31.0017 79.3976 30.333 78.7677 30.1667L79.2787 27.978C79.9085 28.1465 81.927 28.4792 81.6274 29.7666L81.6263 29.7677ZM81.9149 26.5635C81.6528 27.6866 80.0355 27.1158 79.5113 26.9767L79.9756 24.9913C80.4998 25.1316 82.1871 25.3925 81.9149 26.5635Z" fill="white"/>
<path d="M89.8686 30.5036C88.5124 36.3269 82.9994 39.8725 77.5564 38.4188C72.1155 36.9684 68.8028 31.0689 70.161 25.2445C71.5171 19.4179 77.0282 15.8734 82.4711 17.326C87.9141 18.7786 91.2248 24.6791 89.8686 30.5036Z" fill="#FF9A1F"/>
<path d="M85.0654 26.3808C85.298 24.7815 84.1145 23.9215 82.4963 23.3474L83.0215 21.1816L81.7395 20.8532L81.2285 22.9625C80.8922 22.8755 80.5458 22.794 80.2025 22.7135L80.7165 20.5901L79.4365 20.2617L78.9103 22.4276C78.6371 22.3644 78.3645 22.2984 78.0925 22.2297L78.0936 22.2232L76.326 21.7687L75.9856 23.1767C75.9856 23.1767 76.9365 23.4017 76.9162 23.4159C77.4343 23.5485 77.5287 23.9019 77.5135 24.1824L76.9152 26.6505C76.9507 26.6603 76.9974 26.6733 77.0482 26.694L76.9131 26.6603L76.075 30.1177C76.0121 30.2808 75.8516 30.5233 75.4879 30.4309C75.5011 30.4504 74.5563 30.1917 74.5563 30.1917L73.9204 31.6997L75.5874 32.1281C75.8983 32.2085 76.202 32.2912 76.5017 32.3705L75.9714 34.5625L77.2514 34.8908L77.7766 32.7228C78.1261 32.8207 78.4654 32.9109 78.7975 32.9946L78.2744 35.1539L79.5564 35.4823L80.0867 33.2947C82.2708 33.7198 83.9144 33.5491 84.6072 31.5149C85.1639 29.8764 84.5788 28.9326 83.4288 28.3162C84.2669 28.1172 84.8968 27.5507 85.0654 26.3797V26.3808ZM82.1377 30.6059C81.7415 32.2444 79.0617 31.3583 78.1931 31.1365L78.8971 28.2335C79.7657 28.4564 82.5511 28.8978 82.1377 30.6059ZM82.5339 26.3569C82.1722 27.8465 79.9424 27.0897 79.2191 26.9049L79.8571 24.2716C80.5804 24.4564 82.9097 24.8032 82.5339 26.3569Z" fill="white"/>
<mask id="mask3_9373_13834" style="mask-type:luminance" maskUnits="userSpaceOnUse" x="69" y="17" width="22" height="22">
<path d="M69.8564 17H90.1736V38.7452H69.8564V17Z" fill="white"/>
</mask>
<g mask="url(#mask3_9373_13834)">
<path d="M88.2278 30.0635C87.9588 31.2178 87.48 32.3041 86.8187 33.2603C86.1575 34.2166 85.3267 35.0241 84.3739 35.6367C83.421 36.2494 82.3648 36.6551 81.2654 36.8309C80.1661 37.0066 79.0451 36.9489 77.9666 36.661C76.8881 36.373 75.8732 35.8606 74.9797 35.1528C74.0862 34.4451 73.3318 33.556 72.7594 32.5361C72.187 31.5163 71.8078 30.3858 71.6436 29.2092C71.4794 28.0326 71.5334 26.8329 71.8024 25.6786C72.3457 23.3472 73.732 21.3423 75.6565 20.1049C77.5809 18.8675 79.8858 18.4991 82.0641 19.0805C84.2424 19.662 86.1156 21.1458 87.2717 23.2055C88.4278 25.2652 88.7711 27.7321 88.2278 30.0635Z" fill="#F7931A"/>
<path d="M83.7495 26.582C83.9181 25.3751 83.0607 24.7282 81.8874 24.2955L82.2684 22.6624L81.3389 22.4145L80.9691 24.0052C80.7253 23.9399 80.4733 23.878 80.2245 23.8171L80.5973 22.2166L79.6688 21.9687L79.2889 23.6018C79.0857 23.5529 78.8876 23.504 78.6956 23.4529V23.4474L77.4156 23.1049L77.1677 24.1672C77.1677 24.1672 77.8575 24.3357 77.8433 24.3466C78.2192 24.4466 78.2872 24.713 78.276 24.925L77.8423 26.7842C77.8751 26.7932 77.9073 26.8044 77.9388 26.8179L77.8413 26.7918L77.2338 29.398C77.187 29.5208 77.0712 29.7046 76.8071 29.635C76.8173 29.6491 76.1326 29.4545 76.1326 29.4545L75.6714 30.5907L76.8803 30.9136C77.1048 30.9734 77.3252 31.0376 77.5426 31.0963L77.1576 32.7489L78.0861 32.9957L78.466 31.3616C78.72 31.4355 78.9658 31.5029 79.2076 31.5682L78.8277 33.1936L79.7562 33.4415L80.1412 31.7932C81.7249 32.114 82.9155 31.9846 83.4173 30.4515C83.8216 29.2164 83.397 28.5053 82.564 28.04C83.1705 27.891 83.6276 27.4648 83.7495 26.582ZM81.6274 29.7677C81.3399 31.0017 79.3986 30.333 78.7687 30.1667L79.2787 27.978C79.9085 28.1465 81.927 28.4792 81.6274 29.7666V29.7677ZM81.9149 26.5635C81.6528 27.6866 80.0355 27.1158 79.5123 26.9767L79.9746 24.9913C80.4987 25.1316 82.1871 25.3925 81.9149 26.5635Z" fill="white"/>
<path d="M89.8686 30.5036C88.5124 36.3269 82.9994 39.8725 77.5564 38.4188C72.1155 36.9684 68.8028 31.0689 70.161 25.2445C71.5171 19.4179 77.0282 15.8734 82.4711 17.326C87.9141 18.7786 91.2248 24.6791 89.8686 30.5036Z" fill="#FF9A1F"/>
<path d="M85.0654 26.3808C85.298 24.7815 84.1145 23.9215 82.4963 23.3474L83.0215 21.1816L81.7395 20.8532L81.2285 22.9625C80.8922 22.8755 80.5458 22.794 80.2025 22.7135L80.7165 20.5901L79.4365 20.2617L78.9103 22.4276C78.6371 22.3644 78.3645 22.2984 78.0925 22.2297L78.0936 22.2232L76.326 21.7687L75.9856 23.1767C75.9856 23.1767 76.9365 23.4017 76.9162 23.4159C77.4343 23.5485 77.5287 23.9019 77.5135 24.1824L76.9152 26.6505C76.9507 26.6603 76.9974 26.6733 77.0482 26.694L76.9131 26.6603L76.075 30.1177C76.0121 30.2808 75.8516 30.5233 75.4879 30.4309C75.5011 30.4504 74.5563 30.1917 74.5563 30.1917L73.9204 31.6997L75.5874 32.1281C75.8983 32.2085 76.202 32.2912 76.5017 32.3705L75.9714 34.5625L77.2514 34.8908L77.7766 32.7228C78.1261 32.8207 78.4654 32.9109 78.7975 32.9946L78.2744 35.1539L79.5564 35.4823L80.0867 33.2947C82.2708 33.7198 83.9144 33.5491 84.6072 31.5149C85.1639 29.8764 84.5788 28.9326 83.4288 28.3162C84.2669 28.1172 84.8968 27.5507 85.0654 26.3797V26.3808ZM82.1377 30.6059C81.7415 32.2444 79.0617 31.3583 78.1931 31.1365L78.8971 28.2335C79.7657 28.4564 82.5511 28.8978 82.1377 30.6059ZM82.5339 26.3569C82.1722 27.8465 79.9424 27.0897 79.2191 26.9049L79.8571 24.2716C80.5804 24.4564 82.9097 24.8032 82.5339 26.3569Z" fill="white"/>
<path d="M80.015 38.7452C85.6255 38.7452 90.1736 33.8774 90.1736 27.8726C90.1736 21.8678 85.6255 17 80.015 17C74.4046 17 69.8564 21.8678 69.8564 27.8726C69.8564 33.8774 74.4046 38.7452 80.015 38.7452Z" fill="#3572D1"/>
<path d="M79.3631 30.9582L80.0875 28.0335L81.8032 27.3605L82.2299 25.6426L82.2147 25.5991L80.5273 26.2602L81.7423 21.349H78.2934L76.7036 27.7584L75.3759 28.2792L74.936 30.0514L76.2627 29.5317L75.3251 33.3089H84.5064L85.0946 30.9582H79.3631Z" fill="#E6EAED"/>
<path d="M80.015 17C85.6256 17 90.1736 21.8677 90.1736 27.8726C90.1736 33.8775 85.6246 38.7452 80.015 38.7452C74.4055 38.7452 69.8564 33.8786 69.8564 27.8726C69.8564 21.8666 74.4044 17 80.015 17Z" fill="#53AE94"/>
<path d="M81.2694 26.4243V24.8065H84.7253V22.3428H75.3155V24.8065H78.7714V26.4232C75.9626 26.5613 73.8506 27.1561 73.8506 27.8693C73.8506 28.5825 75.9636 29.1784 78.7714 29.3175V34.4983H81.2704V29.3164C84.0742 29.1784 86.1821 28.5836 86.1821 27.8704C86.1821 27.1582 84.0732 26.5635 81.2694 26.4243ZM81.2704 28.8783V28.8761C81.1993 28.8815 80.8377 28.9044 80.0311 28.9044C79.386 28.9044 78.9329 28.8848 78.7724 28.8761V28.8783C76.2917 28.7609 74.4388 28.2977 74.4388 27.7443C74.4388 27.1909 76.2917 26.7299 78.7724 26.6113V28.4173C78.935 28.4292 79.4002 28.4586 80.0422 28.4586C80.8123 28.4586 81.2003 28.4249 81.2714 28.4173V26.6124C83.7481 26.7299 85.5959 27.193 85.5959 27.7432C85.5959 28.2955 83.7471 28.7576 81.2704 28.8761" fill="white"/>
</g>
</g>
<g clip-path="url(#clip3_9373_13834)">
<path d="M90.7166 45.2886C95.2235 47.8906 101.311 45.7844 104.313 40.5841C107.316 35.3838 106.096 29.0587 101.589 26.4567C97.0823 23.8546 90.9948 25.9609 87.9924 31.1612C84.99 36.3614 86.2097 42.6865 90.7166 45.2886Z" fill="#7748FA"/>
<path d="M100.5 28.3389L100.212 28.6307L94.4612 38.5919L94.4928 38.7444L100.15 38.3658L100.5 28.3389Z" fill="#CFC1F7"/>
<path d="M100.501 28.339L91.9929 33.6563L94.4933 38.7445L100.501 28.339Z" fill="#E6EAED"/>
<path d="M93.9892 39.6211L93.8983 39.6616L91.8494 43.2104L91.8035 43.4049L99.6465 39.2453L93.9892 39.6211Z" fill="#CFC1F7"/>
<path d="M91.8021 43.4044L93.9869 39.6201L91.4849 34.5347L91.8021 43.4044Z" fill="#E6EAED"/>
<path d="M94.4942 38.7435L100.15 38.3653L97.2852 33.9094L94.4942 38.7435Z" fill="#9781EE"/>
<path d="M91.9932 33.6562L94.4936 38.7445L97.2852 33.9094L91.9932 33.6562Z" fill="#C9C1F7"/>
</g>
<path d="M34.9263 4.25431L36.3055 5.78814L37.8625 5.00124L37.1579 6.7361L38.5371 8.26994L36.7224 7.80831L36.0178 9.54317L35.6009 7.52301L33.7862 7.06138L35.3432 6.27447L34.9263 4.25431Z" fill="#FFE09D"/>
<path d="M83.9158 1.6347L81.8341 3.94974L79.4841 2.76206L80.5476 5.38051L78.4659 7.69555L81.2049 6.99881L82.2684 9.61726L82.8976 6.5682L85.6366 5.87145L83.2866 4.68377L83.9158 1.6347Z" fill="#FFE09D"/>
<path d="M9.40047 7.97887L11.4136 10.2176L13.6862 9.06908L12.6577 11.6013L14.6708 13.84L12.0221 13.1662L10.9936 15.6984L10.3851 12.7498L7.73636 12.076L10.009 10.9275L9.40047 7.97887Z" fill="#FFE09D"/>
<path d="M38.613 43.8152L39.651 44.9696L40.8229 44.3773L40.2926 45.6831L41.3306 46.8375L39.9648 46.49L39.4345 47.7958L39.1207 46.2753L37.7549 45.9279L38.9268 45.3356L38.613 43.8152Z" fill="#FFE09D"/>
<path d="M65.5692 40.8152L64.5311 41.9696L63.3592 41.3773L63.8896 42.6831L62.8515 43.8375L64.2173 43.49L64.7477 44.7958L65.0614 43.2753L66.4273 42.9279L65.2554 42.3356L65.5692 40.8152Z" fill="#FFE09D"/>
<path d="M83.5692 43.8152L82.5311 44.9696L81.3592 44.3773L81.8896 45.6831L80.8515 46.8375L82.2173 46.49L82.7477 47.7958L83.0614 46.2753L84.4273 45.9279L83.2554 45.3356L83.5692 43.8152Z" fill="#FFE09D"/>
<path d="M110.563 6.19929L108.073 8.96874L105.261 7.54793L106.534 10.6804L104.043 13.4498L107.32 12.6163L108.592 15.7487L109.345 12.1012L112.622 11.2677L109.81 9.84686L110.563 6.19929Z" fill="#FFE09D"/>
<path d="M3.28156 28.5343L5.23541 30.7072L7.44116 29.5924L6.44295 32.0501L8.39679 34.223L5.82602 33.569L4.82781 36.0267L4.2372 33.1648L1.66642 32.5109L3.87218 31.3961L3.28156 28.5343Z" fill="#FFE09D"/>
<path d="M122.575 31.3483L121.245 32.8279L119.743 32.0688L120.422 33.7424L119.092 35.2221L120.842 34.7768L121.522 36.4504L121.924 34.5016L123.675 34.0562L122.173 33.2971L122.575 31.3483Z" fill="#FFE09D"/>
</g>
<defs>
<clipPath id="clip0_9373_13834">
<rect width="125" height="50" fill="white"/>
</clipPath>
<clipPath id="clip1_9373_13834">
<rect width="18.8458" height="21.7452" fill="white" transform="translate(26.8564 17)"/>
</clipPath>
<clipPath id="clip2_9373_13834">
<rect width="18.8458" height="21.7452" fill="white" transform="translate(10.4165 27.5472) rotate(-15.4474)"/>
</clipPath>
<clipPath id="clip3_9373_13834">
<rect width="18.8458" height="21.7452" fill="white" transform="translate(93.4287 21.7452) rotate(30)"/>
</clipPath>
</defs>
</svg>
