<svg width="30" height="30" viewBox="0 0 30 30" fill="none" xmlns="http://www.w3.org/2000/svg">
<rect width="30" height="30" rx="15" fill="#080808"/>
<path d="M21.4665 12.0639C22.5359 12.0072 23.2312 11.7909 24.049 11.3416C25.1242 10.751 25.5805 8.89768 25.5805 8.89768C22.9402 10.6718 19.3304 11.0471 19.3304 11.0471C18.2548 12.7711 17.2638 13.7803 16.4347 14.3658C16.2983 14.2866 16.1758 14.1856 16.0722 14.0669C15.8154 13.7285 15.7856 13.3846 15.7939 13.3262C15.8021 13.2679 15.8623 13.1734 15.9992 13.1318C16.0457 13.1153 16.0954 13.1101 16.1443 13.1166C16.1932 13.1232 16.2398 13.1412 16.2803 13.1693C16.2402 12.9305 16.218 12.8162 16.0776 12.6978C15.9472 12.5883 15.71 12.5715 15.71 12.5715C15.5908 12.4754 15.4478 12.4132 15.2961 12.3914C14.8977 12.3358 14.6344 12.5071 14.4475 12.6811C14.1979 12.9134 14.1784 13.3464 13.9987 13.8435C13.918 14.0629 13.761 14.2462 13.5561 14.36C12.729 13.7732 11.7418 12.765 10.67 11.0478C10.67 11.0478 7.06016 10.6725 4.42017 8.89836C4.42017 8.89836 4.87614 10.7517 5.95138 11.3423C6.76953 11.7916 7.46479 12.0079 8.53386 12.0645C8.53386 12.0645 7.09234 12.1877 5.43584 11.3921C5.43584 11.3921 6.36696 12.8547 7.2433 13.3324C8.11965 13.81 9.21406 13.9987 9.99284 13.9601C9.99284 13.9601 8.63827 14.2853 7.51271 13.81C7.51271 13.81 8.6951 15.3617 10.8134 15.3112C10.8134 15.3112 10.1264 15.4842 9.48586 15.3699C9.48586 15.3699 10.4605 16.1932 11.2659 16.3286C11.2659 16.3286 11.5912 16.3931 12.2635 16.3204C12.0563 16.4486 11.8182 16.5188 11.5744 16.5235C11.5744 16.5235 12.2624 16.9329 12.7746 16.9776C12.9103 16.9865 13.0467 16.981 13.1812 16.9612C13.0822 17.0211 12.9727 17.0619 12.8584 17.0813C12.8584 17.0813 13.5414 17.3239 13.9881 17.1123C13.4921 18.6111 13.1265 19.0605 13.1265 19.0605L13.2579 19.2167C13.2715 19.2332 13.2887 19.2462 13.3083 19.2548C13.3278 19.2634 13.3491 19.2673 13.3704 19.2662C13.3917 19.2652 13.4125 19.2591 13.4311 19.2487C13.4496 19.2382 13.4655 19.2235 13.4774 19.2058L13.7717 18.8032L13.427 19.4266L13.5718 19.5709C13.5868 19.5861 13.6052 19.5975 13.6254 19.6044C13.6456 19.6112 13.6672 19.6132 13.6884 19.6103C13.7095 19.6073 13.7297 19.5995 13.7473 19.5874C13.7648 19.5753 13.7793 19.5592 13.7896 19.5405L13.9823 19.2208L13.7262 19.806L13.8844 19.936C13.9008 19.9497 13.9202 19.9593 13.941 19.9642C13.9618 19.9691 13.9835 19.969 14.0043 19.9641C14.0251 19.9591 14.0444 19.9493 14.0608 19.9356C14.0771 19.9218 14.09 19.9044 14.0983 19.8848L14.2168 19.6374L14.0713 20.1048L14.2424 20.2164C14.2602 20.2279 14.2804 20.2351 14.3015 20.2375C14.3225 20.2399 14.3438 20.2374 14.3637 20.2302C14.3836 20.223 14.4016 20.2113 14.4162 20.196C14.4308 20.1807 14.4416 20.1622 14.4478 20.142L14.5848 19.7483L14.4841 20.2806C14.4767 20.3201 14.4809 20.3609 14.4963 20.3981C14.5117 20.4352 14.5375 20.4672 14.5707 20.49L14.8699 20.649L14.9856 19.8984L15.101 20.649L15.4005 20.49C15.4337 20.4672 15.4596 20.4352 15.4749 20.3981C15.4903 20.3609 15.4945 20.3201 15.4871 20.2806L15.3903 19.7483L15.5272 20.142C15.5334 20.1622 15.5442 20.1807 15.5588 20.196C15.5734 20.2113 15.5914 20.223 15.6113 20.2302C15.6312 20.2374 15.6525 20.2399 15.6736 20.2375C15.6946 20.2351 15.7148 20.2279 15.7326 20.2164L15.9037 20.1048L15.7583 19.6374L15.8767 19.8848C15.8851 19.9044 15.8979 19.9218 15.9143 19.9356C15.9306 19.9493 15.9499 19.9591 15.9707 19.9641C15.9915 19.969 16.0132 19.9691 16.034 19.9642C16.0549 19.9593 16.0743 19.9497 16.0906 19.936L16.2488 19.806L15.9924 19.2208L16.1855 19.5405C16.1957 19.5592 16.2102 19.5753 16.2278 19.5874C16.2453 19.5995 16.2655 19.6073 16.2867 19.6103C16.3078 19.6132 16.3294 19.6112 16.3496 19.6044C16.3698 19.5975 16.3882 19.5861 16.4032 19.5709L16.548 19.4266L16.2005 18.8036L16.4949 19.2062C16.5068 19.2239 16.5227 19.2386 16.5413 19.2492C16.5599 19.2597 16.5807 19.2657 16.6021 19.2668C16.6234 19.2678 16.6447 19.2639 16.6643 19.2553C16.6839 19.2466 16.7011 19.2336 16.7147 19.2171L16.8462 19.0608C16.8462 19.0608 16.4792 18.6101 15.9818 17.1045V17.1007C16.4268 17.3361 17.1399 17.083 17.1399 17.083C17.0258 17.0635 16.9164 17.0228 16.8174 16.9629C16.9519 16.9827 17.0881 16.9882 17.2237 16.9793C17.7372 16.9339 18.4239 16.5252 18.4239 16.5252C18.1801 16.5205 17.942 16.4503 17.7348 16.3222C18.4071 16.3948 18.7324 16.3303 18.7324 16.3303C19.5396 16.1939 20.5124 15.3716 20.5124 15.3716C19.8719 15.4859 19.1849 15.3129 19.1849 15.3129C21.3032 15.3624 22.4859 13.8117 22.4859 13.8117C21.3604 14.287 20.0058 13.9619 20.0058 13.9619C20.7842 14.0004 21.879 13.8114 22.755 13.3341C23.631 12.8568 24.5645 11.3917 24.5645 11.3917C22.908 12.187 21.4665 12.0639 21.4665 12.0639Z" fill="url(#paint0_linear_9355_77543)"/>
<path d="M22.8967 14.1188C22.869 14.1553 22.5065 14.621 21.8396 15.0567C21.8232 18.8019 18.7615 21.8432 15.0003 21.8432C11.2392 21.8432 8.17716 18.8015 8.16073 15.0567C7.49389 14.621 7.13171 14.1553 7.10364 14.1188L6.84861 13.7838C6.78623 14.195 6.75499 14.6104 6.75515 15.0263C6.76918 17.1966 7.64404 19.2732 9.18876 20.8029C10.7335 22.3326 12.8226 23.1911 15.0002 23.1911C17.1777 23.1911 19.2669 22.3326 20.8116 20.8029C22.3563 19.2732 23.2312 17.1966 23.2452 15.0263C23.2453 14.6104 23.2142 14.1951 23.1521 13.7838L22.8967 14.1188Z" fill="url(#paint1_linear_9355_77543)"/>
<path d="M8.64648 10.1369C9.1562 10.2675 9.61013 10.3596 9.96272 10.4224C10.6024 9.72502 11.3808 9.16805 12.2483 8.78699C13.1158 8.40592 14.0535 8.20912 15.0015 8.20912C15.9496 8.20912 16.8872 8.40592 17.7548 8.78699C18.6223 9.16805 19.4007 9.72502 20.0404 10.4224C20.393 10.3596 20.8469 10.2675 21.3566 10.1369C21.4302 10.1178 21.5062 10.0976 21.5839 10.0765C21.3529 9.7727 21.1013 9.48509 20.8308 9.21566C20.0652 8.45255 19.1564 7.8472 18.156 7.4342C17.1557 7.0212 16.0836 6.80862 15.0009 6.80862C13.9181 6.80862 12.846 7.0212 11.8457 7.4342C10.8454 7.8472 9.93648 8.45255 9.17092 9.21566C8.90043 9.48509 8.6488 9.7727 8.41781 10.0765C8.49552 10.0976 8.57152 10.1178 8.64648 10.1369Z" fill="url(#paint2_linear_9355_77543)"/>
<path d="M29.8979 16.7594C29.9653 16.1823 30 15.5952 30 15C30 14.2838 29.9498 13.5794 29.8527 12.89C29.7842 12.8899 29.6905 12.8899 29.6159 12.8901L28.5949 12.8938C28.3113 12.8947 28.0812 13.1259 28.0817 13.4095L28.0861 16.2504L28.0871 16.2835C28.0881 16.2986 28.0896 16.3136 28.092 16.3283L28.0994 16.3658C28.1033 16.3837 28.1083 16.4014 28.1147 16.4188C28.1196 16.4331 28.125 16.4474 28.1314 16.4613C28.1564 16.5171 28.1918 16.5683 28.2366 16.6128C28.2941 16.6704 28.3629 16.7127 28.4386 16.7375C28.4902 16.7546 28.5453 16.7633 28.6013 16.7632L29.6227 16.7595C29.7138 16.7593 29.822 16.7593 29.8979 16.7594Z" fill="url(#paint3_linear_9355_77543)"/>
<path d="M26.887 24.1499L25.9351 23.2026C25.734 23.0027 25.4076 23.0034 25.2071 23.2042L23.202 25.2164C23.1696 25.2485 23.1425 25.2841 23.1204 25.3225C23.1013 25.3554 23.086 25.3903 23.0747 25.4267C23.06 25.4755 23.0521 25.5267 23.0521 25.5791C23.0521 25.7167 23.1057 25.8461 23.2035 25.9433L24.1512 26.886C25.1764 26.0955 26.0966 25.1752 26.887 24.1499Z" fill="url(#paint4_linear_9355_77543)"/>
<path d="M16.8753 29.8839C16.8754 29.8079 16.8755 29.7018 16.8752 29.6172L16.8712 28.2174C16.8708 27.934 16.6392 27.7036 16.3556 27.7041L13.5149 27.7089C13.3777 27.709 13.2494 27.7624 13.1526 27.8593C13.0553 27.9567 13.0017 28.0863 13.0022 28.224L13.0056 29.6239V29.8685C13.6581 29.9552 14.3238 30 15 30C15.6351 30 16.261 29.9605 16.8753 29.8839Z" fill="url(#paint5_linear_9355_77543)"/>
<path d="M5.84945 26.8865L6.7953 25.9361C6.99487 25.735 6.99438 25.4086 6.79333 25.2084L4.78138 23.203C4.72633 23.1481 4.66095 23.1071 4.58968 23.0821C4.5356 23.063 4.47809 23.0531 4.41861 23.0531C4.40485 23.0531 4.39109 23.0536 4.37781 23.0547L4.33505 23.0598L4.31096 23.0644L4.27262 23.074C4.19102 23.0982 4.11631 23.1425 4.05437 23.2047L3.11353 24.1506C3.904 25.1759 4.82416 26.096 5.84945 26.8865Z" fill="url(#paint6_linear_9355_77543)"/>
<path d="M0.10252 16.7631C0.0348136 16.1848 0 15.5964 0 15C0 14.2851 0.0500111 13.5819 0.146726 12.8937L1.42896 12.8902C1.56659 12.8899 1.69637 12.9432 1.79369 13.0407C1.89053 13.1375 1.94362 13.2663 1.94411 13.4031L1.94854 16.2439C1.94903 16.5275 1.71898 16.7588 1.43535 16.7595L0.10252 16.7631Z" fill="url(#paint7_linear_9355_77543)"/>
<path d="M3.11189 5.85149L4.06174 6.79628C4.08632 6.82098 4.11286 6.84261 4.14137 6.86116C4.17578 6.8839 4.21265 6.90196 4.2505 6.9156C4.29327 6.93097 4.338 6.94055 4.38322 6.94411C4.4137 6.94657 4.44417 6.94633 4.47416 6.9435C4.58918 6.93244 4.70126 6.88279 4.78925 6.79468L6.7948 4.78249C6.85674 4.72018 6.90098 4.64485 6.92457 4.56264C6.93785 4.5168 6.94473 4.46887 6.94473 4.41984C6.94473 4.34611 6.929 4.27483 6.89951 4.20946C6.87395 4.1528 6.83806 4.1007 6.79284 4.0556L5.84758 3.11491C4.82233 3.90559 3.90225 4.82597 3.11189 5.85149Z" fill="url(#paint8_linear_9355_77543)"/>
<path d="M13.2403 0.102127L13.2436 1.43596C13.2445 1.71935 13.4756 1.94976 13.7592 1.94927L16.5999 1.94448C16.7371 1.94423 16.8658 1.8909 16.9627 1.79406C17.0192 1.73766 17.061 1.67044 17.0856 1.59707C17.1038 1.54374 17.1131 1.48733 17.1131 1.42933L17.1095 0.147168C16.4202 0.0501635 15.716 0 15 0C14.4047 0 13.8175 0.034679 13.2403 0.102127Z" fill="url(#paint9_linear_9355_77543)"/>
<path d="M24.1479 3.11143L23.2015 4.06285C23.0015 4.2639 23.002 4.59029 23.203 4.79048L25.215 6.79591C25.3123 6.8925 25.4411 6.94571 25.5777 6.94571C25.7154 6.94571 25.8451 6.89189 25.942 6.79419L26.8846 5.84698C26.0939 4.82178 25.1734 3.90174 24.1479 3.11143Z" fill="url(#paint10_linear_9355_77543)"/>
<defs>
<linearGradient id="paint0_linear_9355_77543" x1="4.42017" y1="23.4917" x2="25.5805" y2="23.4917" gradientUnits="userSpaceOnUse">
<stop stop-color="#F8EEB8"/>
<stop offset="0.5625" stop-color="#DBB370"/>
<stop offset="1" stop-color="#8E5B2D"/>
</linearGradient>
<linearGradient id="paint1_linear_9355_77543" x1="4.42017" y1="23.4917" x2="25.5805" y2="23.4917" gradientUnits="userSpaceOnUse">
<stop stop-color="#F8EEB8"/>
<stop offset="0.5625" stop-color="#DBB370"/>
<stop offset="1" stop-color="#8E5B2D"/>
</linearGradient>
<linearGradient id="paint2_linear_9355_77543" x1="4.42017" y1="23.4917" x2="25.5805" y2="23.4917" gradientUnits="userSpaceOnUse">
<stop stop-color="#F8EEB8"/>
<stop offset="0.5625" stop-color="#DBB370"/>
<stop offset="1" stop-color="#8E5B2D"/>
</linearGradient>
<linearGradient id="paint3_linear_9355_77543" x1="0" y1="30.5504" x2="30" y2="30.5504" gradientUnits="userSpaceOnUse">
<stop stop-color="#F8EEB8"/>
<stop offset="0.5625" stop-color="#DBB370"/>
<stop offset="1" stop-color="#8E5B2D"/>
</linearGradient>
<linearGradient id="paint4_linear_9355_77543" x1="0" y1="30.5504" x2="30" y2="30.5504" gradientUnits="userSpaceOnUse">
<stop stop-color="#F8EEB8"/>
<stop offset="0.5625" stop-color="#DBB370"/>
<stop offset="1" stop-color="#8E5B2D"/>
</linearGradient>
<linearGradient id="paint5_linear_9355_77543" x1="0" y1="30.5504" x2="30" y2="30.5504" gradientUnits="userSpaceOnUse">
<stop stop-color="#F8EEB8"/>
<stop offset="0.5625" stop-color="#DBB370"/>
<stop offset="1" stop-color="#8E5B2D"/>
</linearGradient>
<linearGradient id="paint6_linear_9355_77543" x1="0" y1="30.5504" x2="30" y2="30.5504" gradientUnits="userSpaceOnUse">
<stop stop-color="#F8EEB8"/>
<stop offset="0.5625" stop-color="#DBB370"/>
<stop offset="1" stop-color="#8E5B2D"/>
</linearGradient>
<linearGradient id="paint7_linear_9355_77543" x1="0" y1="30.5504" x2="30" y2="30.5504" gradientUnits="userSpaceOnUse">
<stop stop-color="#F8EEB8"/>
<stop offset="0.5625" stop-color="#DBB370"/>
<stop offset="1" stop-color="#8E5B2D"/>
</linearGradient>
<linearGradient id="paint8_linear_9355_77543" x1="0" y1="30.5504" x2="30" y2="30.5504" gradientUnits="userSpaceOnUse">
<stop stop-color="#F8EEB8"/>
<stop offset="0.5625" stop-color="#DBB370"/>
<stop offset="1" stop-color="#8E5B2D"/>
</linearGradient>
<linearGradient id="paint9_linear_9355_77543" x1="0" y1="30.5504" x2="30" y2="30.5504" gradientUnits="userSpaceOnUse">
<stop stop-color="#F8EEB8"/>
<stop offset="0.5625" stop-color="#DBB370"/>
<stop offset="1" stop-color="#8E5B2D"/>
</linearGradient>
<linearGradient id="paint10_linear_9355_77543" x1="0" y1="30.5504" x2="30" y2="30.5504" gradientUnits="userSpaceOnUse">
<stop stop-color="#F8EEB8"/>
<stop offset="0.5625" stop-color="#DBB370"/>
<stop offset="1" stop-color="#8E5B2D"/>
</linearGradient>
</defs>
</svg>
    