<svg width="30" height="30" viewBox="0 0 30 30" fill="none" xmlns="http://www.w3.org/2000/svg">
<g clip-path="url(#clip0_9390_1069)">
<path d="M15 30C23.2843 30 30 23.2843 30 15C30 6.71573 23.2843 0 15 0C6.71573 0 0 6.71573 0 15C0 23.2843 6.71573 30 15 30Z" fill="#EF0027"/>
<path d="M20.5612 9.29347L7.03125 6.80347L14.1516 24.721L24.0731 12.6328L20.5612 9.29347ZM20.3438 10.3903L22.4137 12.3582L16.7531 13.3828L20.3438 10.3903ZM15.5231 13.1775L9.55687 8.2294L19.3088 10.0238L15.5231 13.1775ZM15.0984 14.0532L14.1253 22.0969L8.88 8.89409L15.0984 14.0532ZM15.9984 14.4797L22.2675 13.3453L15.0769 22.1044L15.9984 14.4797Z" fill="#EAEAEA"/>
<path d="M20.5612 9.29347L7.03125 6.80347L14.1516 24.721L24.0731 12.6328L20.5612 9.29347ZM20.3438 10.3903L22.4137 12.3582L16.7531 13.3828L20.3438 10.3903ZM15.5231 13.1775L9.55687 8.2294L19.3088 10.0238L15.5231 13.1775ZM15.0984 14.0532L14.1253 22.0969L8.88 8.89409L15.0984 14.0532ZM15.9984 14.4797L22.2675 13.3453L15.0769 22.1044L15.9984 14.4797Z" fill="#EAEAEA"/>
</g>
<defs>
<clipPath id="clip0_9390_1069">
<rect width="30" height="30" fill="white"/>
</clipPath>
</defs>
</svg>
