<svg width="30" height="30" viewBox="0 0 30 30" fill="none" xmlns="http://www.w3.org/2000/svg">
<g clip-path="url(#clip0_9390_1046)">
<mask id="mask0_9390_1046" style="mask-type:luminance" maskUnits="userSpaceOnUse" x="0" y="0" width="30" height="30">
<path d="M0 0.714294H30V29.2857H0V0.714294Z" fill="white"/>
</mask>
<g mask="url(#mask0_9390_1046)">
<path d="M27.126 17.8786C26.7288 19.3953 26.0218 20.8226 25.0454 22.079C24.069 23.3355 22.8423 24.3965 21.4353 25.2014C20.0284 26.0064 18.4688 26.5395 16.8455 26.7704C15.2222 27.0013 13.567 26.9255 11.9745 26.5472C10.382 26.1689 8.88333 25.4956 7.56405 24.5656C6.24478 23.6357 5.13073 22.4674 4.28554 21.1275C3.44034 19.7875 2.88053 18.3022 2.63809 16.7562C2.39564 15.2102 2.4753 13.6339 2.87251 12.1172C3.67473 9.05412 5.72172 6.42001 8.56318 4.79434C11.4046 3.16867 14.8078 2.68459 18.024 3.44861C21.2402 4.21262 24.006 6.16214 25.713 8.86829C27.4199 11.5744 27.9282 14.8155 27.126 17.8786Z" fill="#F7931A"/>
<path d="M20.5125 13.3043C20.7615 11.7186 19.4955 10.8686 17.763 10.3L18.3255 8.15429L16.953 7.82857L16.407 9.91857C16.0413 9.83276 15.6748 9.75038 15.3075 9.67143L15.858 7.56857L14.487 7.24286L13.9245 9.38857C13.6323 9.32605 13.3408 9.26081 13.05 9.19286V9.18572L11.16 8.73572L10.794 10.1314C10.794 10.1314 11.8125 10.3529 11.79 10.3671C12.345 10.4986 12.447 10.8486 12.429 11.1271L11.79 13.57C11.8384 13.5818 11.886 13.5966 11.9325 13.6143L11.787 13.58L10.89 17.0043C10.8225 17.1657 10.65 17.4071 10.2615 17.3157C10.2765 17.3343 9.26547 17.0786 9.26547 17.0786L8.58447 18.5714L10.3695 18.9957C10.701 19.0743 11.0265 19.1586 11.3475 19.2357L10.779 21.4071L12.1485 21.7314L12.711 19.5843C13.086 19.6814 13.449 19.77 13.8045 19.8557L13.245 21.9914L14.616 22.3171L15.183 20.1514C17.523 20.5729 19.281 20.4029 20.022 18.3886C20.6175 16.7657 19.992 15.8314 18.762 15.22C19.6575 15.0243 20.3325 14.4643 20.5125 13.3043ZM17.3775 17.49C16.9545 19.1114 14.0865 18.2329 13.1565 18.0143L13.911 15.1386C14.841 15.36 17.8215 15.7971 17.379 17.4886L17.3775 17.49ZM17.8035 13.28C17.4165 14.7557 15.0285 14.0057 14.2545 13.8229L14.94 11.2143C15.714 11.3986 18.2055 11.7414 17.8035 13.28Z" fill="#EAEAEA"/>
<path d="M29.55 18.4572C27.5475 26.1086 19.407 30.7672 11.37 28.8572C3.33602 26.9515 -1.55548 19.2 0.450017 11.5472C2.45252 3.89148 10.59 -0.765666 18.627 1.1429C26.664 3.05148 31.5525 10.8043 29.55 18.4572Z" fill="#FF9A1F"/>
<path d="M22.4565 13.04C22.8 10.9386 21.0525 9.80857 18.663 9.05429L19.4385 6.20857L17.5455 5.77714L16.791 8.54857C16.2945 8.43429 15.783 8.32714 15.276 8.22143L16.035 5.43143L14.145 5L13.368 7.84571C12.9646 7.76268 12.5621 7.67601 12.1605 7.58571L12.162 7.57714L9.552 6.98L9.0495 8.83C9.0495 8.83 10.4535 9.12571 10.4235 9.14429C11.1885 9.31857 11.328 9.78286 11.3055 10.1514L10.422 13.3943C10.4745 13.4071 10.5435 13.4243 10.6185 13.4514L10.419 13.4071L9.1815 17.95C9.0885 18.1643 8.8515 18.4829 8.3145 18.3614C8.334 18.3871 6.939 18.0471 6.939 18.0471L6 20.0286L8.4615 20.5914C8.9205 20.6971 9.369 20.8057 9.8115 20.91L9.0285 23.79L10.9185 24.2214L11.694 21.3729C12.21 21.5014 12.711 21.62 13.2015 21.73L12.429 24.5671L14.322 24.9986L15.105 22.1243C18.33 22.6829 20.757 22.4586 21.78 19.7857C22.602 17.6329 21.738 16.3929 20.04 15.5829C21.2775 15.3214 22.2075 14.5771 22.4565 13.0386V13.04ZM18.1335 18.5914C17.5485 20.7443 13.5915 19.58 12.309 19.2886L13.3485 15.4743C14.631 15.7671 18.744 16.3471 18.1335 18.5914ZM18.7185 13.0086C18.1845 14.9657 14.892 13.9714 13.824 13.7286L14.766 10.2686C15.834 10.5114 19.2735 10.9671 18.7185 13.0086Z" fill="#EAEAEA"/>
<mask id="mask1_9390_1046" style="mask-type:luminance" maskUnits="userSpaceOnUse" x="0" y="0" width="30" height="30">
<path d="M0 0.714294H30V29.2857H0V0.714294Z" fill="white"/>
</mask>
<g mask="url(#mask1_9390_1046)">
<path d="M27.126 17.8786C26.7288 19.3952 26.0218 20.8226 25.0454 22.079C24.069 23.3355 22.8423 24.3965 21.4353 25.2014C20.0284 26.0064 18.4688 26.5395 16.8455 26.7704C15.2222 27.0013 13.567 26.9254 11.9745 26.5471C10.382 26.1688 8.88333 25.4955 7.56405 24.5656C6.24478 23.6357 5.13073 22.4674 4.28554 21.1275C3.44034 19.7875 2.88053 18.3021 2.63809 16.7561C2.39564 15.2101 2.4753 13.6338 2.87251 12.1171C3.67473 9.05389 5.7218 6.4196 8.5634 4.7938C11.405 3.16799 14.8083 2.68384 18.0248 3.44785C21.2412 4.21187 24.0072 6.16146 25.7143 8.86774C27.4214 11.574 27.9282 14.8153 27.126 17.8786Z" fill="#F7931A"/>
<path d="M20.5125 13.3043C20.7615 11.7186 19.4955 10.8686 17.763 10.3L18.3255 8.15429L16.953 7.82857L16.407 9.91857C16.047 9.83286 15.675 9.75143 15.3075 9.67143L15.858 7.56857L14.487 7.24286L13.926 9.38857C13.626 9.32429 13.3335 9.26 13.05 9.19286V9.18572L11.16 8.73572L10.794 10.1314C10.794 10.1314 11.8125 10.3529 11.7915 10.3671C12.3465 10.4986 12.447 10.8486 12.4305 11.1271L11.79 13.57C11.8384 13.5818 11.886 13.5966 11.9325 13.6143L11.7885 13.58L10.8915 17.0043C10.8225 17.1657 10.6515 17.4071 10.2615 17.3157C10.2765 17.3343 9.26547 17.0786 9.26547 17.0786L8.58447 18.5714L10.3695 18.9957C10.701 19.0743 11.0265 19.1586 11.3475 19.2357L10.779 21.4071L12.15 21.7314L12.711 19.5843C13.086 19.6814 13.449 19.77 13.806 19.8557L13.245 21.9914L14.616 22.3171L15.1845 20.1514C17.523 20.5729 19.281 20.4029 20.022 18.3886C20.619 16.7657 19.992 15.8314 18.762 15.22C19.6575 15.0243 20.3325 14.4643 20.5125 13.3043ZM17.379 17.49C16.9545 19.1114 14.088 18.2329 13.158 18.0143L13.911 15.1386C14.841 15.36 17.8215 15.7971 17.379 17.4886V17.49ZM17.8035 13.28C17.4165 14.7557 15.0285 14.0057 14.256 13.8229L14.9385 11.2143C15.7125 11.3986 18.2055 11.7414 17.8035 13.28Z" fill="#EAEAEA"/>
<path d="M29.55 18.4572C27.5475 26.1086 19.407 30.7672 11.37 28.8572C3.33602 26.9515 -1.55548 19.2 0.450017 11.5472C2.45252 3.89148 10.59 -0.765666 18.627 1.1429C26.664 3.05148 31.5525 10.8043 29.55 18.4572Z" fill="#FF9A1F"/>
<path d="M22.4565 13.04C22.8 10.9386 21.0525 9.80857 18.663 9.05429L19.4385 6.20857L17.5455 5.77714L16.791 8.54857C16.2945 8.43429 15.783 8.32714 15.276 8.22143L16.035 5.43143L14.145 5L13.368 7.84571C12.9646 7.76268 12.5621 7.67601 12.1605 7.58571L12.162 7.57714L9.552 6.98L9.0495 8.83C9.0495 8.83 10.4535 9.12571 10.4235 9.14429C11.1885 9.31857 11.328 9.78286 11.3055 10.1514L10.422 13.3943C10.4745 13.4071 10.5435 13.4243 10.6185 13.4514L10.419 13.4071L9.1815 17.95C9.0885 18.1643 8.8515 18.4829 8.3145 18.3614C8.334 18.3871 6.939 18.0471 6.939 18.0471L6 20.0286L8.4615 20.5914C8.9205 20.6971 9.369 20.8057 9.8115 20.91L9.0285 23.79L10.9185 24.2214L11.694 21.3729C12.21 21.5014 12.711 21.62 13.2015 21.73L12.429 24.5671L14.322 24.9986L15.105 22.1243C18.33 22.6829 20.757 22.4586 21.78 19.7857C22.602 17.6329 21.738 16.3929 20.04 15.5829C21.2775 15.3214 22.2075 14.5771 22.4565 13.0386V13.04ZM18.1335 18.5914C17.5485 20.7443 13.5915 19.58 12.309 19.2886L13.3485 15.4743C14.631 15.7671 18.744 16.3471 18.1335 18.5914ZM18.7185 13.0086C18.1845 14.9657 14.892 13.9714 13.824 13.7286L14.766 10.2686C15.834 10.5114 19.2735 10.9671 18.7185 13.0086Z" fill="#EAEAEA"/>
<path d="M15 29.2857C23.2843 29.2857 30 22.8898 30 15C30 7.11023 23.2843 0.714294 15 0.714294C6.71573 0.714294 0 7.11023 0 15C0 22.8898 6.71573 29.2857 15 29.2857Z" fill="#3572D1"/>
<path d="M14.037 19.0543L15.1065 15.2114L17.64 14.3272L18.27 12.07L18.2475 12.0129L15.756 12.8814L17.55 6.42859H12.4575L10.11 14.85L8.1495 15.5343L7.5 17.8629L9.459 17.18L8.0745 22.1429H21.6315L22.5 19.0543H14.037Z" fill="#E6EAED"/>
<path d="M15 0.714294C23.2845 0.714294 30 7.11001 30 15C30 22.89 23.283 29.2857 15 29.2857C6.717 29.2857 0 22.8914 0 15C0 7.10858 6.7155 0.714294 15 0.714294Z" fill="#53AE94"/>
<path d="M16.851 13.0972V10.9715H21.954V7.73431H8.05948V10.9715H13.1625V13.0957C9.01498 13.2772 5.89648 14.0586 5.89648 14.9957C5.89648 15.9329 9.01648 16.7157 13.1625 16.8986V23.7057H16.8525V16.8972C20.9925 16.7157 24.105 15.9343 24.105 14.9972C24.105 14.0615 20.991 13.28 16.851 13.0972ZM16.8525 16.3215V16.3186C16.7475 16.3257 16.2135 16.3557 15.0225 16.3557C14.07 16.3557 13.401 16.33 13.164 16.3186V16.3215C9.50098 16.1672 6.76498 15.5586 6.76498 14.8315C6.76498 14.1043 9.50098 13.4986 13.164 13.3429V15.7157C13.404 15.7315 14.091 15.77 15.039 15.77C16.176 15.77 16.749 15.7257 16.854 15.7157V13.3443C20.511 13.4986 23.2395 14.1072 23.2395 14.83C23.2395 15.5557 20.5095 16.1629 16.8525 16.3186" fill="#EAEAEA"/>
</g>
</g>
</g>
<defs>
<clipPath id="clip0_9390_1046">
<rect width="30" height="30" fill="white"/>
</clipPath>
</defs>
</svg>
