<svg width="30" height="30" viewBox="0 0 30 30" fill="none" xmlns="http://www.w3.org/2000/svg">
<g clip-path="url(#clip0_9390_1101)">
<circle cx="15" cy="15" r="15" fill="#EAEAEA"/>
<path d="M22.536 8.35565L20.0074 9.66082L7.79713 15.9617C7.75584 15.6426 7.73507 15.3212 7.73494 14.9994C7.73661 13.7156 8.06932 12.4545 8.70011 11.341C9.3309 10.2275 10.2379 9.30023 11.3312 8.65113C12.4246 8.00202 13.6663 7.65356 14.9335 7.64026C16.2007 7.62695 17.4493 7.94927 18.5557 8.57528L20.003 7.82818L20.2189 7.71656C18.8931 6.74163 17.327 6.15707 15.6937 6.02748C14.0604 5.89789 12.4236 6.22833 10.9641 6.98226C9.50462 7.73619 8.27931 8.88427 7.42359 10.2996C6.56787 11.7149 6.11508 13.3424 6.11525 15.0021C6.11525 15.2314 6.12384 15.4597 6.14101 15.6871C6.16507 16.0092 6.09457 16.3313 5.93837 16.6129C5.78217 16.8944 5.54726 17.1229 5.2632 17.2695L4.5 17.6638V19.5027L6.74695 18.3425L7.47461 17.9662L8.19161 17.5963L21.0638 10.9516L22.5103 10.2054L25.5 8.66169V6.82364L22.536 8.35565Z" fill="black"/>
<path d="M25.5 10.5013L8.92283 19.0525L7.47639 19.8005L4.5 21.337V23.1741L7.45596 21.6484L9.98456 20.3433L22.2073 14.0334C22.2486 14.3546 22.2694 14.6781 22.2695 15.0019C22.2687 16.2873 21.9361 17.5501 21.3047 18.6649C20.6733 19.7798 19.765 20.7079 18.6701 21.3572C17.5752 22.0065 16.3317 22.3544 15.063 22.3663C13.7944 22.3783 12.5447 22.0538 11.4381 21.4252L11.3493 21.4729L9.78021 22.283C11.1057 23.258 12.6715 23.8427 14.3045 23.9726C15.9375 24.1025 17.5742 23.7725 19.0337 23.0191C20.4932 22.2657 21.7187 21.1182 22.5748 19.7033C23.4309 18.2885 23.8842 16.6615 23.8848 15.0019C23.8848 14.7706 23.8759 14.5393 23.859 14.3107C23.835 13.9887 23.9054 13.6667 24.0614 13.3852C24.2174 13.1037 24.4521 12.8751 24.7359 12.7282L25.5 12.334V10.5013Z" fill="black"/>
</g>
<defs>
<clipPath id="clip0_9390_1101">
<rect width="30" height="30" fill="white"/>
</clipPath>
</defs>
</svg>
