<svg width="58" height="34" viewBox="0 0 58 34" fill="none" xmlns="http://www.w3.org/2000/svg">
<path d="M56.5797 25.6799L32.433 1.43436C31.984 0.979862 31.4499 0.61911 30.8614 0.372924C30.2729 0.126743 29.6417 -3.3817e-07 29.0041 -3.45772e-07C28.3666 -3.53375e-07 27.7354 0.126743 27.1469 0.372924C26.5584 0.61911 26.0242 0.979862 25.5753 1.43436L1.42852 25.6799C0.975872 26.1307 0.616589 26.667 0.371407 27.2579C0.126228 27.8488 6.57939e-08 28.4826 5.81603e-08 29.1228C5.05268e-08 29.7629 0.126228 30.3967 0.371407 30.9876C0.616589 31.5785 0.975872 32.1149 1.42852 32.5656C1.87747 33.0201 2.4116 33.3809 3.0001 33.6271C3.5886 33.8733 4.21982 34 4.85736 34C5.49489 34 6.12611 33.8733 6.71461 33.6271C7.30311 33.3809 7.83724 33.0201 8.28619 32.5656L29.0041 11.7145L49.722 32.5656C50.6314 33.4787 51.8648 33.9917 53.1509 33.9917C53.7877 33.9917 54.4182 33.8658 55.0066 33.6211C55.5949 33.3764 56.1294 33.0178 56.5797 32.5656C57.4891 31.6525 58 30.4141 58 29.1228C58 28.4834 57.8746 27.8502 57.6309 27.2595C57.3872 26.6688 57.03 26.132 56.5797 25.6799Z" fill="#008EFF"/>
</svg>
