<svg width="195" height="192" viewBox="0 0 195 192" fill="none" xmlns="http://www.w3.org/2000/svg">
<path d="M38.7236 19.2767L19.3618 0L0 19.2767L5.82335 25.0769L15.2493 15.6802V46.754H23.4744V15.6802L32.9003 25.0769L38.7236 19.2767Z" fill="url(#paint0_linear_165_1710)" fill-opacity="1"/>
<path d="M189.177 166.74L179.751 176.136V145.063H171.526V176.136L162.1 166.74L156.276 172.54L175.638 191.817L195 172.54L189.177 166.74Z" fill="url(#paint0_linear_165_1710)" fill-opacity="1"/>
<path d="M81.0499 186.025C72.6642 186.025 60.4872 150.919 60.4872 95.9083C60.4872 40.8977 72.6642 5.79202 81.0499 5.79202H101.681L101.575 5.96554C101.414 6.20656 101.263 6.48903 101.104 6.73906C100.459 7.75262 99.8319 8.83517 99.225 9.9957C98.983 10.4587 98.7465 10.9397 98.5106 11.4248C97.9765 12.5233 97.4583 13.6777 96.9561 14.8879C96.7563 15.3679 96.5509 15.8285 96.3561 16.3251C95.693 18.0142 95.0539 19.7792 94.449 21.6473C94.3461 21.9654 94.2532 22.3109 94.1523 22.6334C93.6468 24.2439 93.1625 25.9124 92.6994 27.6389C92.5238 28.295 92.3546 28.9655 92.1844 29.6379C91.7938 31.1809 91.4198 32.7633 91.0624 34.3851C90.9208 35.0276 90.7745 35.6571 90.6372 36.3103C90.1683 38.5495 89.722 40.838 89.3133 43.1996C89.2627 43.4911 89.2205 43.7972 89.1708 44.0901C88.8139 46.1987 88.4817 48.3495 88.1743 50.5425C88.0644 51.32 87.9624 52.1065 87.8586 52.8937C87.6156 54.7348 87.3892 56.5985 87.1793 58.485C87.0955 59.2387 87.0077 59.9856 86.9288 60.7461C86.6603 63.3457 86.4128 65.9709 86.205 68.6354L86.1754 69.0695C85.9816 71.5967 85.818 74.1468 85.6844 76.7199C85.6403 77.5365 85.6051 78.3555 85.5665 79.1755C85.4733 81.1806 85.3965 83.1919 85.3362 85.2093C85.3121 86.0278 85.2845 86.8419 85.2659 87.6619C85.2035 90.4075 85.1624 93.1577 85.1624 95.9083C85.1624 98.6589 85.2035 101.409 85.2663 104.155C85.2849 104.975 85.3125 105.789 85.3365 106.607C85.3962 108.626 85.473 110.638 85.5668 112.641C85.6055 113.461 85.6408 114.28 85.6848 115.097C85.8223 117.665 85.986 120.215 86.1757 122.747L86.2053 123.181C86.4127 125.846 86.6602 128.471 86.9291 131.071C87.0079 131.831 87.0958 132.578 87.1797 133.332C87.3895 135.219 87.6159 137.082 87.8589 138.923C87.9628 139.71 88.0645 140.497 88.1747 141.274C88.4839 143.465 88.8161 145.616 89.1711 147.726C89.2205 148.02 89.263 148.326 89.3137 148.617C89.7223 150.979 90.1686 153.267 90.6375 155.506C90.7745 156.16 90.9211 156.789 91.0627 157.432C91.4212 159.053 91.7952 160.635 92.1847 162.179C92.3549 162.851 92.5241 163.521 92.6998 164.178C93.1626 165.904 93.6469 167.573 94.1526 169.183C94.2536 169.506 94.3464 169.851 94.4493 170.169C95.0543 172.037 95.6934 173.802 96.3565 175.492C96.5512 175.988 96.7566 176.449 96.9564 176.929C97.4594 178.137 97.9776 179.292 98.5109 180.392C98.7469 180.877 98.9833 181.358 99.2253 181.821C99.8322 182.981 100.459 184.064 101.104 185.078C101.263 185.328 101.415 185.61 101.576 185.851L101.681 186.025H81.0499ZM113.95 186.025C105.564 186.025 93.3875 150.919 93.3875 95.9083C93.3875 40.8977 105.564 5.79202 113.95 5.79202C122.336 5.79202 134.513 40.8977 134.513 95.9083C134.513 150.919 122.336 186.025 113.95 186.025Z" fill="url(#paint0_linear_165_1710)" fill-opacity="1"/>
<defs>
<linearGradient id="paint0_linear_165_755" x1="97.5" y1="5.79199" x2="97.5" y2="186.025" gradientUnits="userSpaceOnUse">
<stop stop-color="#FCE9A3"/>
<stop offset="1" stop-color="#FCE9A3" stop-opacity="0"/>
</linearGradient>
<linearGradient id="paint1_linear_165_755" x1="97.5" y1="5.79199" x2="97.5" y2="186.025" gradientUnits="userSpaceOnUse">
<stop stop-color="#FCE9A3"/>
<stop offset="1" stop-color="#FCE9A3" stop-opacity="0"/>
</linearGradient>
<linearGradient id="paint2_linear_165_755" x1="97.5" y1="5.79199" x2="97.5" y2="186.025" gradientUnits="userSpaceOnUse">
<stop stop-color="#FCE9A3"/>
<stop offset="1" stop-color="#FCE9A3" stop-opacity="0"/>
</linearGradient>
<linearGradient id="paint0_linear_165_1710" x1="934" y1="685.5" x2="371.464" y2="910.827" gradientUnits="userSpaceOnUse">
<stop stop-color="#D5A75D"/>
<stop offset="0.510417" stop-color="#FEF9E3"/>
<stop offset="1" stop-color="#C99B55"/>
</linearGradient>
</defs>
</svg>
