<svg width="200" height="278" viewBox="0 0 200 278" fill="none" xmlns="http://www.w3.org/2000/svg">
<g clip-path="url(#clip0_2709_120286)">
<rect y="0.00439453" width="200" height="278" rx="10" fill="url(#paint0_linear_2709_120286)"/>
<path fill-rule="evenodd" clip-rule="evenodd" d="M159.409 211.206C161.185 211.226 162.74 210.222 163.478 208.745C164.057 208.075 164.935 207.799 165.832 207.622C165.613 208.686 165.353 209.867 164.496 210.556C162.98 211.245 161.923 212.762 161.883 214.514C161.843 216.956 163.838 218.964 166.311 219.004C168.784 219.043 170.819 217.074 170.859 214.632C170.879 212.88 169.861 211.344 168.365 210.615C167.647 210.084 167.328 208.784 167.129 207.662C168.006 207.859 168.884 208.174 169.442 208.843C170.141 210.34 171.676 211.403 173.452 211.423C175.925 211.462 177.96 209.493 177.999 207.051C178.039 204.609 176.045 202.601 173.571 202.562C171.796 202.542 170.061 203.704 169.323 205.2C168.684 205.87 167.887 206.027 166.969 206.185C166.889 204.925 166.969 203.566 167.169 202.778C168.106 200.218 170.44 197.166 171.696 196.142C170.021 197.54 163.259 197.442 161.623 196.004C162.84 197.068 165.254 200.336 165.952 202.758C166.171 203.723 166.111 205.535 166.091 206.165C165.154 205.988 164.336 205.811 163.718 205.102C163.02 203.605 161.324 202.384 159.549 202.365C157.076 202.325 155.041 204.294 155.001 206.736C154.941 209.158 156.936 211.167 159.409 211.206Z" fill="#EAEAEA"/>
<path fill-rule="evenodd" clip-rule="evenodd" d="M40.5906 66.8022C38.8153 66.7825 37.2595 67.7868 36.5215 69.2636C35.9431 69.9331 35.0654 70.2088 34.1678 70.3861C34.3872 69.3227 34.6465 68.1413 35.5042 67.4521C37.0202 66.7629 38.0773 65.2466 38.1172 63.4941C38.1571 61.0524 36.1625 59.0439 33.6891 59.0045C31.2158 58.9651 29.1813 60.9342 29.1414 63.376C29.1214 65.1285 30.1387 66.6644 31.6346 67.393C32.3527 67.9247 32.6719 69.2243 32.8713 70.3467C31.9937 70.1498 31.116 69.8347 30.5575 69.1652C29.8594 67.6687 28.3236 66.6053 26.5483 66.5856C24.075 66.5463 22.0405 68.5154 22.0006 70.9571C21.9607 73.3988 23.9553 75.4073 26.4287 75.4467C28.2039 75.4664 29.9392 74.3046 30.6772 72.8081C31.3155 72.1386 32.1134 71.9811 33.0309 71.8235C33.1107 73.0838 33.0309 74.4424 32.8314 75.2301C31.894 77.79 29.5602 80.8422 28.3036 81.8661C29.9791 80.468 36.7409 80.5664 38.3765 82.0039C37.1598 80.9406 34.7463 77.6718 34.0481 75.2498C33.8287 74.2849 33.8886 72.4734 33.9085 71.8433C34.846 72.0205 35.6638 72.1977 36.2821 72.9065C36.9803 74.4031 38.6757 75.624 40.4509 75.6437C42.9243 75.683 44.9588 73.7139 44.9987 71.2722C45.0585 68.8502 43.0639 66.8416 40.5906 66.8022Z" fill="#EAEAEA"/>
<path d="M12 46.4394V40.8415H18.4732V23.5775H12.8912V19.2968C14.5174 18.9832 15.8933 18.6068 17.0191 18.1678C18.1761 17.7287 19.2706 17.1956 20.3026 16.5684H25.3686V40.8415H30.9506V46.4394H12Z" fill="#EAEAEA"/>
<path d="M44.352 47.0039C41.1623 47.0039 38.5824 45.6711 36.6123 43.0054C34.6735 40.3398 33.7041 36.4667 33.7041 31.3863C33.7041 26.2745 34.6735 22.4328 36.6123 19.8613C38.5824 17.2897 41.1623 16.0039 44.352 16.0039C47.5417 16.0039 50.106 17.3054 52.0448 19.9083C54.0149 22.4799 55 26.3059 55 31.3863C55 36.4667 54.0149 40.3398 52.0448 43.0054C50.106 45.6711 47.5417 47.0039 44.352 47.0039ZM44.352 41.6412C45.1338 41.6412 45.8374 41.359 46.4629 40.7945C47.0883 40.1986 47.573 39.1637 47.917 37.6898C48.2923 36.1845 48.4799 34.0833 48.4799 31.3863C48.4799 28.6579 48.2923 26.5724 47.917 25.1299C47.573 23.6873 47.0883 22.6994 46.4629 22.1663C45.8374 21.6331 45.1338 21.3666 44.352 21.3666C43.5702 21.3666 42.8666 21.6331 42.2412 22.1663C41.6158 22.6994 41.1154 23.6873 40.7402 25.1299C40.3962 26.5724 40.2242 28.6579 40.2242 31.3863C40.2242 34.0833 40.3962 36.1845 40.7402 37.6898C41.1154 39.1637 41.6158 40.1986 42.2412 40.7945C42.8666 41.359 43.5702 41.6412 44.352 41.6412Z" fill="#EAEAEA"/>
<path d="M188 231.569L188 237.167L181.527 237.167L181.527 254.431L187.109 254.431L187.109 258.712C185.483 259.025 184.107 259.401 182.981 259.841C181.824 260.28 180.729 260.813 179.697 261.44L174.631 261.44L174.631 237.167L169.049 237.167L169.049 231.569L188 231.569Z" fill="#EAEAEA"/>
<path d="M155.648 231.004C158.838 231.004 161.418 232.337 163.388 235.003C165.327 237.669 166.296 241.542 166.296 246.622C166.296 251.734 165.327 255.575 163.388 258.147C161.418 260.719 158.838 262.004 155.648 262.004C152.458 262.004 149.894 260.703 147.955 258.1C145.985 255.528 145 251.702 145 246.622C145 241.542 145.985 237.669 147.955 235.003C149.894 232.337 152.458 231.004 155.648 231.004ZM155.648 236.367C154.866 236.367 154.163 236.649 153.537 237.214C152.912 237.81 152.427 238.845 152.083 240.319C151.708 241.824 151.52 243.925 151.52 246.622C151.52 249.35 151.708 251.436 152.083 252.878C152.427 254.321 152.912 255.309 153.537 255.842C154.163 256.375 154.866 256.642 155.648 256.642C156.43 256.642 157.133 256.375 157.759 255.842C158.384 255.309 158.885 254.321 159.26 252.878C159.604 251.436 159.776 249.35 159.776 246.622C159.776 243.925 159.604 241.824 159.26 240.319C158.885 238.845 158.384 237.81 157.759 237.214C157.133 236.649 156.43 236.367 155.648 236.367Z" fill="#EAEAEA"/>
<path fill-rule="evenodd" clip-rule="evenodd" d="M82.7823 81.4637C81.0842 81.4448 79.5961 82.4054 78.8901 83.818C78.3368 84.4584 77.4974 84.7221 76.6388 84.8917C76.8487 83.8746 77.0967 82.7445 77.9171 82.0852C79.3671 81.426 80.3783 79.9757 80.4165 78.2994C80.4546 75.9638 78.5467 74.0426 76.1809 74.0049C73.8151 73.9673 71.869 75.8508 71.8309 78.1864C71.8118 79.8627 72.7848 81.3318 74.2157 82.0287C74.9026 82.5373 75.2079 83.7804 75.3987 84.854C74.5592 84.6657 73.7197 84.3643 73.1855 83.7239C72.5177 82.2924 71.0486 81.2753 69.3506 81.2565C66.9848 81.2188 65.0387 83.1023 65.0006 85.4379C64.9624 87.7735 66.8703 89.6946 69.2361 89.7323C70.9341 89.7511 72.594 88.6399 73.3 87.2084C73.9105 86.568 74.6737 86.4173 75.5513 86.2667C75.6276 87.4721 75.5513 88.7717 75.3605 89.5251C74.4638 91.9737 72.2315 94.8932 71.0295 95.8726C72.6322 94.5353 79.1 94.6294 80.6645 96.0044C79.5007 94.9873 77.1921 91.8607 76.5243 89.544C76.3144 88.621 76.3717 86.8882 76.3908 86.2855C77.2875 86.455 78.0697 86.6245 78.6612 87.3026C79.3289 88.734 80.9507 89.9018 82.6487 89.9207C85.0145 89.9583 86.9606 88.0748 86.9987 85.7393C87.056 83.4225 85.1481 81.5013 82.7823 81.4637Z" fill="#EAEAEA"/>
<path fill-rule="evenodd" clip-rule="evenodd" d="M130.782 81.4637C129.084 81.4448 127.596 82.4054 126.89 83.818C126.337 84.4584 125.497 84.7221 124.639 84.8917C124.849 83.8746 125.097 82.7445 125.917 82.0852C127.367 81.426 128.378 79.9757 128.416 78.2994C128.455 75.9638 126.547 74.0426 124.181 74.0049C121.815 73.9673 119.869 75.8508 119.831 78.1864C119.812 79.8627 120.785 81.3318 122.216 82.0287C122.903 82.5373 123.208 83.7804 123.399 84.854C122.559 84.6657 121.72 84.3643 121.185 83.7239C120.518 82.2924 119.049 81.2753 117.351 81.2565C114.985 81.2188 113.039 83.1023 113.001 85.4379C112.962 87.7735 114.87 89.6946 117.236 89.7323C118.934 89.7511 120.594 88.6399 121.3 87.2084C121.91 86.568 122.674 86.4173 123.551 86.2667C123.628 87.4721 123.551 88.7717 123.361 89.5251C122.464 91.9737 120.232 94.8932 119.03 95.8726C120.632 94.5353 127.1 94.6294 128.664 96.0044C127.501 94.9873 125.192 91.8607 124.524 89.544C124.314 88.621 124.372 86.8882 124.391 86.2855C125.287 86.455 126.07 86.6245 126.661 87.3026C127.329 88.734 128.951 89.9018 130.649 89.9207C133.015 89.9583 134.961 88.0748 134.999 85.7393C135.056 83.4225 133.148 81.5013 130.782 81.4637Z" fill="#EAEAEA"/>
<path fill-rule="evenodd" clip-rule="evenodd" d="M130.782 119.464C129.084 119.445 127.596 120.405 126.89 121.818C126.337 122.458 125.497 122.722 124.639 122.892C124.849 121.875 125.097 120.744 125.917 120.085C127.367 119.426 128.378 117.976 128.416 116.299C128.455 113.964 126.547 112.043 124.181 112.005C121.815 111.967 119.869 113.851 119.831 116.186C119.812 117.863 120.785 119.332 122.216 120.029C122.903 120.537 123.208 121.78 123.399 122.854C122.559 122.666 121.72 122.364 121.185 121.724C120.518 120.292 119.049 119.275 117.351 119.256C114.985 119.219 113.039 121.102 113.001 123.438C112.962 125.773 114.87 127.695 117.236 127.732C118.934 127.751 120.594 126.64 121.3 125.208C121.91 124.568 122.674 124.417 123.551 124.267C123.628 125.472 123.551 126.772 123.361 127.525C122.464 129.974 120.232 132.893 119.03 133.873C120.632 132.535 127.1 132.629 128.664 134.004C127.501 132.987 125.192 129.861 124.524 127.544C124.314 126.621 124.372 124.888 124.391 124.286C125.287 124.455 126.07 124.624 126.661 125.303C127.329 126.734 128.951 127.902 130.649 127.921C133.015 127.958 134.961 126.075 134.999 123.739C135.056 121.423 133.148 119.501 130.782 119.464Z" fill="#EAEAEA"/>
<path fill-rule="evenodd" clip-rule="evenodd" d="M69.2177 158.545C70.9158 158.564 72.4039 157.603 73.1099 156.191C73.6632 155.55 74.5026 155.287 75.3612 155.117C75.1513 156.134 74.9033 157.264 74.0829 157.924C72.6329 158.583 71.6217 160.033 71.5835 161.709C71.5454 164.045 73.4533 165.966 75.8191 166.004C78.1849 166.042 80.131 164.158 80.1691 161.822C80.1882 160.146 79.2152 158.677 77.7843 157.98C77.0974 157.471 76.7921 156.228 76.6013 155.155C77.4408 155.343 78.2803 155.644 78.8145 156.285C79.4823 157.716 80.9514 158.733 82.6494 158.752C85.0152 158.79 86.9613 156.906 86.9994 154.571C87.0376 152.235 85.1297 150.314 82.7639 150.276C81.0659 150.258 79.406 151.369 78.7 152.8C78.0895 153.441 77.3263 153.591 76.4487 153.742C76.3724 152.537 76.4487 151.237 76.6395 150.484C77.5362 148.035 79.7685 145.116 80.9705 144.136C79.3678 145.473 72.9 145.379 71.3355 144.004C72.4993 145.021 74.8079 148.148 75.4757 150.465C75.6856 151.388 75.6283 153.121 75.6092 153.723C74.7125 153.554 73.9303 153.384 73.3388 152.706C72.6711 151.275 71.0493 150.107 69.3513 150.088C66.9855 150.05 65.0394 151.934 65.0013 154.27C64.944 156.586 66.8519 158.507 69.2177 158.545Z" fill="#EAEAEA"/>
<path fill-rule="evenodd" clip-rule="evenodd" d="M106.782 100.464C105.084 100.445 103.596 101.405 102.89 102.818C102.337 103.458 101.497 103.722 100.639 103.892C100.849 102.875 101.097 101.744 101.917 101.085C103.367 100.426 104.378 98.9757 104.416 97.2994C104.455 94.9638 102.547 93.0426 100.181 93.0049C97.8151 92.9673 95.869 94.8508 95.8309 97.1864C95.8118 98.8627 96.7848 100.332 98.2157 101.029C98.9026 101.537 99.2079 102.78 99.3987 103.854C98.5592 103.666 97.7197 103.364 97.1855 102.724C96.5177 101.292 95.0486 100.275 93.3506 100.256C90.9848 100.219 89.0387 102.102 89.0006 104.438C88.9624 106.773 90.8703 108.695 93.2361 108.732C94.9341 108.751 96.594 107.64 97.3 106.208C97.9105 105.568 98.6737 105.417 99.5513 105.267C99.6276 106.472 99.5513 107.772 99.3605 108.525C98.4638 110.974 96.2315 113.893 95.0295 114.873C96.6322 113.535 103.1 113.629 104.664 115.004C103.501 113.987 101.192 110.861 100.524 108.544C100.314 107.621 100.372 105.888 100.391 105.286C101.287 105.455 102.07 105.624 102.661 106.303C103.329 107.734 104.951 108.902 106.649 108.921C109.015 108.958 110.961 107.075 110.999 104.739C111.056 102.423 109.148 100.501 106.782 100.464Z" fill="#EAEAEA"/>
<path fill-rule="evenodd" clip-rule="evenodd" d="M93.2177 177.545C94.9158 177.564 96.4039 176.603 97.1099 175.191C97.6632 174.55 98.5026 174.287 99.3612 174.117C99.1513 175.134 98.9033 176.264 98.0829 176.924C96.6329 177.583 95.6217 179.033 95.5835 180.709C95.5454 183.045 97.4533 184.966 99.8191 185.004C102.185 185.042 104.131 183.158 104.169 180.822C104.188 179.146 103.215 177.677 101.784 176.98C101.097 176.471 100.792 175.228 100.601 174.155C101.441 174.343 102.28 174.644 102.815 175.285C103.482 176.716 104.951 177.733 106.649 177.752C109.015 177.79 110.961 175.906 110.999 173.571C111.038 171.235 109.13 169.314 106.764 169.276C105.066 169.258 103.406 170.369 102.7 171.8C102.09 172.441 101.326 172.591 100.449 172.742C100.372 171.537 100.449 170.237 100.639 169.484C101.536 167.035 103.768 164.116 104.97 163.136C103.368 164.473 96.9 164.379 95.3355 163.004C96.4993 164.021 98.8079 167.148 99.4757 169.465C99.6856 170.388 99.6283 172.121 99.6092 172.723C98.7125 172.554 97.9303 172.384 97.3388 171.706C96.6711 170.275 95.0493 169.107 93.3513 169.088C90.9855 169.05 89.0394 170.934 89.0013 173.27C88.944 175.586 90.8519 177.507 93.2177 177.545Z" fill="#EAEAEA"/>
<path fill-rule="evenodd" clip-rule="evenodd" d="M82.7823 119.464C81.0842 119.445 79.5961 120.405 78.8901 121.818C78.3368 122.458 77.4974 122.722 76.6388 122.892C76.8487 121.875 77.0967 120.744 77.9171 120.085C79.3671 119.426 80.3783 117.976 80.4165 116.299C80.4546 113.964 78.5467 112.043 76.1809 112.005C73.8151 111.967 71.869 113.851 71.8309 116.186C71.8118 117.863 72.7848 119.332 74.2157 120.029C74.9026 120.537 75.2079 121.78 75.3987 122.854C74.5592 122.666 73.7197 122.364 73.1855 121.724C72.5177 120.292 71.0486 119.275 69.3506 119.256C66.9848 119.219 65.0387 121.102 65.0006 123.438C64.9624 125.773 66.8703 127.695 69.2361 127.732C70.9341 127.751 72.594 126.64 73.3 125.208C73.9105 124.568 74.6737 124.417 75.5513 124.267C75.6276 125.472 75.5513 126.772 75.3605 127.525C74.4638 129.974 72.2315 132.893 71.0295 133.873C72.6322 132.535 79.1 132.629 80.6645 134.004C79.5007 132.987 77.1921 129.861 76.5243 127.544C76.3144 126.621 76.3717 124.888 76.3908 124.286C77.2875 124.455 78.0697 124.624 78.6612 125.303C79.3289 126.734 80.9507 127.902 82.6487 127.921C85.0145 127.958 86.9606 126.075 86.9987 123.739C87.056 121.423 85.1481 119.501 82.7823 119.464Z" fill="#EAEAEA"/>
<path fill-rule="evenodd" clip-rule="evenodd" d="M117.218 158.545C118.916 158.564 120.404 157.603 121.11 156.191C121.663 155.55 122.503 155.287 123.361 155.117C123.151 156.134 122.903 157.264 122.083 157.924C120.633 158.583 119.622 160.033 119.584 161.709C119.545 164.045 121.453 165.966 123.819 166.004C126.185 166.042 128.131 164.158 128.169 161.822C128.188 160.146 127.215 158.677 125.784 157.98C125.097 157.471 124.792 156.228 124.601 155.155C125.441 155.343 126.28 155.644 126.815 156.285C127.482 157.716 128.951 158.733 130.649 158.752C133.015 158.79 134.961 156.906 134.999 154.571C135.038 152.235 133.13 150.314 130.764 150.276C129.066 150.258 127.406 151.369 126.7 152.8C126.09 153.441 125.326 153.591 124.449 153.742C124.372 152.537 124.449 151.237 124.639 150.484C125.536 148.035 127.768 145.116 128.97 144.136C127.368 145.473 120.9 145.379 119.336 144.004C120.499 145.021 122.808 148.148 123.476 150.465C123.686 151.388 123.628 153.121 123.609 153.723C122.713 153.554 121.93 153.384 121.339 152.706C120.671 151.275 119.049 150.107 117.351 150.088C114.985 150.05 113.039 151.934 113.001 154.27C112.944 156.586 114.852 158.507 117.218 158.545Z" fill="#EAEAEA"/>
<path fill-rule="evenodd" clip-rule="evenodd" d="M117.218 196.545C118.916 196.564 120.404 195.603 121.11 194.191C121.663 193.55 122.503 193.287 123.361 193.117C123.151 194.134 122.903 195.264 122.083 195.924C120.633 196.583 119.622 198.033 119.584 199.709C119.545 202.045 121.453 203.966 123.819 204.004C126.185 204.042 128.131 202.158 128.169 199.822C128.188 198.146 127.215 196.677 125.784 195.98C125.097 195.471 124.792 194.228 124.601 193.155C125.441 193.343 126.28 193.644 126.815 194.285C127.482 195.716 128.951 196.733 130.649 196.752C133.015 196.79 134.961 194.906 134.999 192.571C135.038 190.235 133.13 188.314 130.764 188.276C129.066 188.258 127.406 189.369 126.7 190.8C126.09 191.441 125.326 191.591 124.449 191.742C124.372 190.537 124.449 189.237 124.639 188.484C125.536 186.035 127.768 183.116 128.97 182.136C127.368 183.473 120.9 183.379 119.336 182.004C120.499 183.021 122.808 186.148 123.476 188.465C123.686 189.388 123.628 191.121 123.609 191.723C122.713 191.554 121.93 191.384 121.339 190.706C120.671 189.275 119.049 188.107 117.351 188.088C114.985 188.05 113.039 189.934 113.001 192.27C112.944 194.586 114.852 196.507 117.218 196.545Z" fill="#EAEAEA"/>
<path fill-rule="evenodd" clip-rule="evenodd" d="M69.2177 196.545C70.9158 196.564 72.4039 195.603 73.1099 194.191C73.6632 193.55 74.5026 193.287 75.3612 193.117C75.1513 194.134 74.9033 195.264 74.0829 195.924C72.6329 196.583 71.6217 198.033 71.5835 199.709C71.5454 202.045 73.4533 203.966 75.8191 204.004C78.1849 204.042 80.131 202.158 80.1691 199.822C80.1882 198.146 79.2152 196.677 77.7843 195.98C77.0974 195.471 76.7921 194.228 76.6013 193.155C77.4408 193.343 78.2803 193.644 78.8145 194.285C79.4823 195.716 80.9514 196.733 82.6494 196.752C85.0152 196.79 86.9613 194.906 86.9994 192.571C87.0376 190.235 85.1297 188.314 82.7639 188.276C81.0659 188.258 79.406 189.369 78.7 190.8C78.0895 191.441 77.3263 191.591 76.4487 191.742C76.3724 190.537 76.4487 189.237 76.6395 188.484C77.5362 186.035 79.7685 183.116 80.9705 182.136C79.3678 183.473 72.9 183.379 71.3355 182.004C72.4993 183.021 74.8079 186.148 75.4757 188.465C75.6856 189.388 75.6283 191.121 75.6092 191.723C74.7125 191.554 73.9303 191.384 73.3388 190.706C72.6711 189.275 71.0493 188.107 69.3513 188.088C66.9855 188.05 65.0394 189.934 65.0013 192.27C64.944 194.586 66.8519 196.507 69.2177 196.545Z" fill="#EAEAEA"/>
</g>
<defs>
<linearGradient id="paint0_linear_2709_120286" x1="0" y1="278.004" x2="200" y2="0.00440461" gradientUnits="userSpaceOnUse">
<stop stop-color="#101010"/>
<stop offset="0.712851" stop-color="#201F1F"/>
<stop offset="1" stop-color="#101010"/>
</linearGradient>
<clipPath id="clip0_2709_120286">
<rect width="200" height="278" fill="white"/>
</clipPath>
</defs>
</svg>
