<svg width="200" height="278" viewBox="0 0 200 278" fill="none" xmlns="http://www.w3.org/2000/svg">
<g clip-path="url(#clip0_2709_119847)">
<rect y="0.00439453" width="200" height="278" rx="10" fill="url(#paint0_linear_2709_119847)"/>
<path fill-rule="evenodd" clip-rule="evenodd" d="M165.409 211.206C167.185 211.226 168.74 210.222 169.478 208.745C170.057 208.075 170.935 207.799 171.832 207.622C171.613 208.686 171.353 209.867 170.496 210.556C168.98 211.245 167.923 212.762 167.883 214.514C167.843 216.956 169.838 218.964 172.311 219.004C174.784 219.043 176.819 217.074 176.859 214.632C176.879 212.88 175.861 211.344 174.365 210.615C173.647 210.084 173.328 208.784 173.129 207.662C174.006 207.859 174.884 208.174 175.442 208.843C176.141 210.34 177.676 211.403 179.452 211.423C181.925 211.462 183.96 209.493 183.999 207.051C184.039 204.609 182.045 202.601 179.571 202.562C177.796 202.542 176.061 203.704 175.323 205.2C174.684 205.87 173.887 206.027 172.969 206.185C172.889 204.925 172.969 203.566 173.169 202.778C174.106 200.218 176.44 197.166 177.696 196.142C176.021 197.54 169.259 197.442 167.623 196.004C168.84 197.068 171.254 200.336 171.952 202.758C172.171 203.723 172.111 205.535 172.091 206.165C171.154 205.988 170.336 205.811 169.718 205.102C169.02 203.605 167.324 202.384 165.549 202.365C163.076 202.325 161.041 204.294 161.001 206.736C160.941 209.158 162.936 211.167 165.409 211.206Z" fill="#EAEAEA"/>
<path fill-rule="evenodd" clip-rule="evenodd" d="M34.5906 66.8027C32.8153 66.783 31.2595 67.7873 30.5215 69.2641C29.9431 69.9336 29.0654 70.2093 28.1678 70.3865C28.3872 69.3232 28.6465 68.1418 29.5042 67.4526C31.0202 66.7634 32.0773 65.2471 32.1172 63.4946C32.1571 61.0529 30.1625 59.0444 27.6891 59.005C25.2158 58.9656 23.1813 60.9347 23.1414 63.3764C23.1214 65.129 24.1387 66.6649 25.6346 67.3935C26.3527 67.9252 26.6719 69.2248 26.8713 70.3472C25.9937 70.1503 25.116 69.8352 24.5575 69.1657C23.8594 67.6692 22.3236 66.6058 20.5483 66.5861C18.075 66.5468 16.0405 68.5159 16.0006 70.9576C15.9607 73.3993 17.9553 75.4078 20.4287 75.4472C22.2039 75.4669 23.9392 74.3051 24.6772 72.8086C25.3155 72.1391 26.1134 71.9816 27.0309 71.824C27.1107 73.0843 27.0309 74.4429 26.8314 75.2306C25.894 77.7905 23.5602 80.8427 22.3036 81.8666C23.9791 80.4685 30.7409 80.5669 32.3765 82.0044C31.1598 80.9411 28.7463 77.6723 28.0481 75.2503C27.8287 74.2854 27.8886 72.4739 27.9085 71.8437C28.846 72.021 29.6638 72.1981 30.2821 72.907C30.9803 74.4036 32.6757 75.6245 34.4509 75.6441C36.9243 75.6835 38.9588 73.7144 38.9987 71.2727C39.0585 68.8506 37.0639 66.8421 34.5906 66.8027Z" fill="#EAEAEA"/>
<path d="M26.4712 47.0044C24.2917 47.0044 22.4167 46.5531 20.8462 45.6505C19.3077 44.7479 18.0256 43.3317 17 41.402L21.5192 38.414C21.9679 39.2544 22.5769 39.908 23.3462 40.3749C24.1154 40.8417 24.9327 41.0752 25.7981 41.0752C27.1763 41.0752 28.2019 40.6706 28.875 39.8613C29.5801 39.0521 29.9327 37.6048 29.9327 35.5195V16.0044H37V36.0797C37 38.0717 36.6314 39.908 35.8942 41.5887C35.157 43.2383 34.0032 44.5611 32.4327 45.5571C30.8942 46.522 28.9071 47.0044 26.4712 47.0044Z" fill="#EAEAEA"/>
<path d="M173.529 231.004C175.708 231.004 177.583 231.456 179.154 232.358C180.692 233.261 181.974 234.677 183 236.607L178.481 239.595C178.032 238.754 177.423 238.101 176.654 237.634C175.885 237.167 175.067 236.934 174.202 236.934C172.824 236.934 171.798 237.338 171.125 238.147C170.42 238.957 170.067 240.404 170.067 242.489V262.004H163V241.929C163 239.937 163.369 238.101 164.106 236.42C164.843 234.77 165.997 233.448 167.567 232.452C169.106 231.487 171.093 231.004 173.529 231.004Z" fill="#EAEAEA"/>
<path fill-rule="evenodd" clip-rule="evenodd" d="M130.474 122.535C122.721 122.535 116.045 127.033 112.904 133.523C110.445 136.44 106.622 137.702 102.764 138.538C103.643 133.861 104.72 128.74 108.381 125.718C114.932 122.606 119.472 115.991 119.472 108.31C119.472 97.6415 110.75 89 99.982 89C89.2139 89 80.4917 97.6415 80.4917 108.31C80.4917 115.991 85.0323 122.606 91.5829 125.718C94.7595 128.011 96.1773 133.666 97.1644 138.538C93.3238 137.702 89.5011 136.44 87.0603 133.541C83.9196 127.051 77.2434 122.553 69.4903 122.553C58.7222 122.553 50 131.194 50 141.863C50 152.531 58.7222 161.173 69.4903 161.173C77.2434 161.173 84.6375 155.963 87.7782 149.473C90.4882 146.486 93.9698 145.775 97.9899 145.028C98.3848 150.486 98.1694 156.408 97.3439 159.857C93.3956 171.077 83.435 184.466 78.1228 189C85.3553 182.848 114.663 182.848 121.895 189C116.565 184.466 105.905 170.348 102.674 159.857C101.651 155.643 101.777 147.784 101.849 145.01C105.94 145.775 109.476 146.468 112.222 149.473C115.363 155.963 122.757 161.173 130.51 161.173C141.278 161.173 150 152.531 150 141.863C149.964 131.176 141.242 122.535 130.474 122.535Z" fill="#EAEAEA"/>
</g>
<defs>
<linearGradient id="paint0_linear_2709_119847" x1="0" y1="278.004" x2="200" y2="0.00440461" gradientUnits="userSpaceOnUse">
<stop stop-color="#101010"/>
<stop offset="0.712851" stop-color="#201F1F"/>
<stop offset="1" stop-color="#101010"/>
</linearGradient>
<clipPath id="clip0_2709_119847">
<rect width="200" height="278" fill="white"/>
</clipPath>
</defs>
</svg>
