<svg width="200" height="278" viewBox="0 0 200 278" fill="none" xmlns="http://www.w3.org/2000/svg">
<g clip-path="url(#clip0_2709_119877)">
<rect y="0.00439453" width="200" height="278" rx="10" fill="url(#paint0_linear_2709_119877)"/>
<path fill-rule="evenodd" clip-rule="evenodd" d="M165.409 211.206C167.185 211.226 168.74 210.222 169.478 208.745C170.057 208.075 170.935 207.799 171.832 207.622C171.613 208.686 171.353 209.867 170.496 210.556C168.98 211.245 167.923 212.762 167.883 214.514C167.843 216.956 169.838 218.964 172.311 219.004C174.784 219.043 176.819 217.074 176.859 214.632C176.879 212.88 175.861 211.344 174.365 210.615C173.647 210.084 173.328 208.784 173.129 207.662C174.006 207.859 174.884 208.174 175.442 208.843C176.141 210.34 177.676 211.403 179.452 211.423C181.925 211.462 183.96 209.493 183.999 207.051C184.039 204.609 182.045 202.601 179.571 202.562C177.796 202.542 176.061 203.704 175.323 205.2C174.684 205.87 173.887 206.027 172.969 206.185C172.889 204.925 172.969 203.566 173.169 202.778C174.106 200.218 176.44 197.166 177.696 196.142C176.021 197.54 169.259 197.442 167.623 196.004C168.84 197.068 171.254 200.336 171.952 202.758C172.171 203.723 172.111 205.535 172.091 206.165C171.154 205.988 170.336 205.811 169.718 205.102C169.02 203.605 167.324 202.384 165.549 202.365C163.076 202.325 161.041 204.294 161.001 206.736C160.941 209.158 162.936 211.167 165.409 211.206Z" fill="#EAEAEA"/>
<path fill-rule="evenodd" clip-rule="evenodd" d="M34.5906 66.8027C32.8153 66.783 31.2595 67.7873 30.5215 69.2641C29.9431 69.9336 29.0654 70.2093 28.1678 70.3865C28.3872 69.3232 28.6465 68.1418 29.5042 67.4526C31.0202 66.7634 32.0773 65.2471 32.1172 63.4946C32.1571 61.0529 30.1625 59.0444 27.6891 59.005C25.2158 58.9656 23.1813 60.9347 23.1414 63.3764C23.1214 65.129 24.1387 66.6649 25.6346 67.3935C26.3527 67.9252 26.6719 69.2248 26.8713 70.3472C25.9937 70.1503 25.116 69.8352 24.5575 69.1657C23.8594 67.6692 22.3236 66.6058 20.5483 66.5861C18.075 66.5468 16.0405 68.5159 16.0006 70.9576C15.9607 73.3993 17.9553 75.4078 20.4287 75.4472C22.2039 75.4669 23.9392 74.3051 24.6772 72.8086C25.3155 72.1391 26.1134 71.9816 27.0309 71.824C27.1107 73.0843 27.0309 74.4429 26.8314 75.2306C25.894 77.7905 23.5602 80.8427 22.3036 81.8666C23.9791 80.4685 30.7409 80.5669 32.3765 82.0044C31.1598 80.9411 28.7463 77.6723 28.0481 75.2503C27.8287 74.2854 27.8886 72.4739 27.9085 71.8437C28.846 72.021 29.6638 72.1981 30.2821 72.907C30.9803 74.4036 32.6757 75.6245 34.4509 75.6441C36.9243 75.6835 38.9588 73.7144 38.9987 71.2727C39.0585 68.8506 37.0639 66.8421 34.5906 66.8027Z" fill="#EAEAEA"/>
<path d="M26.7125 47.1631C23.9947 47.1631 21.6012 46.5331 19.5319 45.273C17.4936 44.013 15.8876 42.2151 14.7141 39.8794C13.5714 37.5437 13 34.7317 13 31.4433C13 28.1856 13.5714 25.4043 14.7141 23.0993C15.8876 20.7943 17.4936 19.0426 19.5319 17.844C21.6012 16.6147 23.9947 16 26.7125 16C29.4302 16 31.8083 16.6147 33.8466 17.844C35.9159 19.0426 37.5218 20.7943 38.6645 23.0993C39.8381 25.4043 40.4249 28.1856 40.4249 31.4433C40.4249 34.7317 39.8381 37.5437 38.6645 39.8794C37.5218 42.2151 35.9159 44.013 33.8466 45.273C31.8083 46.5331 29.4302 47.1631 26.7125 47.1631ZM26.7125 41.6312C28.1022 41.6312 29.2913 41.2317 30.2796 40.4326C31.2987 39.6028 32.0708 38.435 32.5958 36.9291C33.1518 35.4232 33.4297 33.5946 33.4297 31.4433C33.4297 29.4456 33.1518 27.74 32.5958 26.3262C32.0708 24.8818 31.2987 23.7754 30.2796 23.0071C29.2913 22.2388 28.1022 21.8546 26.7125 21.8546C25.3536 21.8546 24.1645 22.2388 23.1454 23.0071C22.1262 23.7754 21.3387 24.8818 20.7827 26.3262C20.2577 27.74 19.9952 29.4456 19.9952 31.4433C19.9952 33.5946 20.2577 35.4232 20.7827 36.9291C21.3387 38.435 22.1262 39.6028 23.1454 40.4326C24.1645 41.2317 25.3536 41.6312 26.7125 41.6312ZM36.6725 55C33.3679 55 30.5884 54.1856 28.3339 52.5567C26.0793 50.9279 24.427 48.8688 23.377 46.3794L30.3259 45.6879C30.6965 46.6407 31.2678 47.3936 32.0399 47.9468C32.812 48.5307 33.6613 48.9456 34.5879 49.1915C35.5453 49.4374 36.5027 49.5603 37.4601 49.5603C38.1086 49.5603 38.7109 49.5142 39.2668 49.422C39.8536 49.3298 40.3632 49.2222 40.7955 49.0993L42 53.9858C41.475 54.2624 40.7492 54.4929 39.8227 54.6773C38.8962 54.8924 37.8461 55 36.6725 55Z" fill="#EAEAEA"/>
<path d="M173.288 230.837C176.005 230.837 178.399 231.467 180.468 232.727C182.506 233.987 184.112 235.785 185.286 238.121C186.429 240.456 187 243.268 187 246.557C187 249.814 186.429 252.596 185.286 254.901C184.112 257.206 182.506 258.957 180.468 260.156C178.399 261.385 176.005 262 173.288 262C170.57 262 168.192 261.385 166.153 260.156C164.084 258.957 162.478 257.206 161.335 254.901C160.162 252.596 159.575 249.814 159.575 246.557C159.575 243.268 160.162 240.456 161.335 238.121C162.478 235.785 164.084 233.987 166.153 232.727C168.192 231.467 170.57 230.837 173.288 230.837ZM173.288 236.369C171.898 236.369 170.709 236.768 169.72 237.567C168.701 238.397 167.929 239.565 167.404 241.071C166.848 242.577 166.57 244.405 166.57 246.557C166.57 248.554 166.848 250.26 167.404 251.674C167.929 253.118 168.701 254.225 169.72 254.993C170.709 255.761 171.898 256.145 173.288 256.145C174.646 256.145 175.835 255.761 176.855 254.993C177.874 254.225 178.661 253.118 179.217 251.674C179.742 250.26 180.005 248.554 180.005 246.557C180.005 244.405 179.742 242.577 179.217 241.071C178.661 239.565 177.874 238.397 176.855 237.567C175.835 236.768 174.646 236.369 173.288 236.369ZM163.327 223C166.632 223 169.412 223.814 171.666 225.443C173.921 227.072 175.573 229.131 176.623 231.621L169.674 232.312C169.304 231.359 168.732 230.606 167.96 230.053C167.188 229.469 166.339 229.054 165.412 228.809C164.455 228.563 163.497 228.44 162.54 228.44C161.891 228.44 161.289 228.486 160.733 228.578C160.146 228.67 159.637 228.778 159.204 228.901L158 224.014C158.525 223.738 159.251 223.507 160.177 223.323C161.104 223.108 162.154 223 163.327 223Z" fill="#EAEAEA"/>
<path fill-rule="evenodd" clip-rule="evenodd" d="M130.474 122.535C122.721 122.535 116.045 127.033 112.904 133.523C110.445 136.44 106.622 137.702 102.764 138.538C103.643 133.861 104.72 128.74 108.381 125.718C114.932 122.606 119.472 115.991 119.472 108.31C119.472 97.6415 110.75 89 99.982 89C89.2139 89 80.4917 97.6415 80.4917 108.31C80.4917 115.991 85.0323 122.606 91.5829 125.718C94.7595 128.011 96.1773 133.666 97.1644 138.538C93.3238 137.702 89.5011 136.44 87.0603 133.541C83.9196 127.051 77.2434 122.553 69.4903 122.553C58.7222 122.553 50 131.194 50 141.863C50 152.531 58.7222 161.173 69.4903 161.173C77.2434 161.173 84.6375 155.963 87.7782 149.473C90.4882 146.486 93.9698 145.775 97.9899 145.028C98.3848 150.486 98.1694 156.408 97.3439 159.857C93.3956 171.077 83.435 184.466 78.1228 189C85.3553 182.848 114.663 182.848 121.895 189C116.565 184.466 105.905 170.348 102.674 159.857C101.651 155.643 101.777 147.784 101.849 145.01C105.94 145.775 109.476 146.468 112.222 149.473C115.363 155.963 122.757 161.173 130.51 161.173C141.278 161.173 150 152.531 150 141.863C149.964 131.176 141.242 122.535 130.474 122.535Z" fill="#EAEAEA"/>
</g>
<defs>
<linearGradient id="paint0_linear_2709_119877" x1="0" y1="278.004" x2="200" y2="0.00440461" gradientUnits="userSpaceOnUse">
<stop stop-color="#101010"/>
<stop offset="0.712851" stop-color="#201F1F"/>
<stop offset="1" stop-color="#101010"/>
</linearGradient>
<clipPath id="clip0_2709_119877">
<rect width="200" height="278" fill="white"/>
</clipPath>
</defs>
</svg>
