<svg width="200" height="278" viewBox="0 0 200 278" fill="none" xmlns="http://www.w3.org/2000/svg">
<g clip-path="url(#clip0_2709_119939)">
<rect y="0.00439453" width="200" height="278" rx="10" fill="url(#paint0_linear_2709_119939)"/>
<path d="M16.1951 47.0044V42.6443C18.7967 40.3764 21.1057 38.2522 23.122 36.2718C25.1707 34.2914 26.7642 32.4547 27.9024 30.7617C29.0732 29.0688 29.6585 27.5196 29.6585 26.1141C29.6585 24.6128 29.2683 23.4789 28.4878 22.7123C27.7073 21.9137 26.6341 21.5144 25.2683 21.5144C24.1626 21.5144 23.1545 21.8339 22.2439 22.4727C21.3659 23.0796 20.5366 23.7983 19.7561 24.6288L16 20.9874C17.4959 19.3264 19.0244 18.0806 20.5854 17.2501C22.1789 16.4196 24.065 16.0044 26.2439 16.0044C28.2602 16.0044 30.0325 16.4037 31.561 17.2022C33.122 18.0008 34.3252 19.1188 35.1707 20.5562C36.0488 21.9936 36.4878 23.6865 36.4878 25.635C36.4878 27.4557 35.9837 29.2445 34.9756 31.0013C34 32.7262 32.6992 34.4511 31.0732 36.176C29.4472 37.9008 27.7236 39.6577 25.9024 41.4464C26.6829 41.3506 27.561 41.2708 28.5366 41.2069C29.5122 41.111 30.3577 41.0631 31.0732 41.0631H38V47.0044H16.1951Z" fill="#EAEAEA"/>
<path d="M182.805 231.004L182.805 235.365C180.203 237.632 177.894 239.757 175.878 241.737C173.829 243.717 172.236 245.554 171.098 247.247C169.927 248.94 169.341 250.489 169.341 251.895C169.341 253.396 169.732 254.53 170.512 255.297C171.293 256.095 172.366 256.494 173.732 256.494C174.837 256.494 175.846 256.175 176.756 255.536C177.634 254.929 178.463 254.21 179.244 253.38L183 257.021C181.504 258.682 179.976 259.928 178.415 260.759C176.821 261.589 174.935 262.004 172.756 262.004C170.74 262.004 168.967 261.605 167.439 260.807C165.878 260.008 164.675 258.89 163.829 257.453C162.951 256.015 162.512 254.322 162.512 252.374C162.512 250.553 163.016 248.764 164.024 247.007C165 245.283 166.301 243.558 167.927 241.833C169.553 240.108 171.276 238.351 173.098 236.562C172.317 236.658 171.439 236.738 170.463 236.802C169.488 236.898 168.642 236.946 167.927 236.946L161 236.946L161 231.004L182.805 231.004Z" fill="#EAEAEA"/>
<path fill-rule="evenodd" clip-rule="evenodd" d="M165.409 211.206C167.185 211.226 168.74 210.222 169.478 208.745C170.057 208.075 170.935 207.799 171.832 207.622C171.613 208.686 171.353 209.867 170.496 210.556C168.98 211.245 167.923 212.762 167.883 214.514C167.843 216.956 169.838 218.964 172.311 219.004C174.784 219.043 176.819 217.074 176.859 214.632C176.879 212.88 175.861 211.344 174.365 210.615C173.647 210.084 173.328 208.784 173.129 207.662C174.006 207.859 174.884 208.174 175.442 208.843C176.141 210.34 177.676 211.403 179.452 211.423C181.925 211.462 183.96 209.493 183.999 207.051C184.039 204.609 182.045 202.601 179.571 202.562C177.796 202.542 176.061 203.704 175.323 205.2C174.684 205.87 173.887 206.027 172.969 206.185C172.889 204.925 172.969 203.566 173.169 202.778C174.106 200.218 176.44 197.166 177.696 196.142C176.021 197.54 169.259 197.442 167.623 196.004C168.84 197.068 171.254 200.336 171.952 202.758C172.171 203.723 172.111 205.535 172.091 206.165C171.154 205.988 170.336 205.811 169.718 205.102C169.02 203.605 167.324 202.384 165.549 202.365C163.076 202.325 161.041 204.294 161.001 206.736C160.941 209.158 162.936 211.167 165.409 211.206Z" fill="#EAEAEA"/>
<path fill-rule="evenodd" clip-rule="evenodd" d="M34.5906 66.8027C32.8153 66.783 31.2595 67.7873 30.5215 69.2641C29.9431 69.9336 29.0654 70.2093 28.1678 70.3865C28.3872 69.3232 28.6465 68.1418 29.5042 67.4526C31.0202 66.7634 32.0773 65.2471 32.1172 63.4946C32.1571 61.0529 30.1625 59.0444 27.6891 59.005C25.2158 58.9656 23.1813 60.9347 23.1414 63.3764C23.1214 65.129 24.1387 66.6649 25.6346 67.3935C26.3527 67.9252 26.6719 69.2248 26.8713 70.3472C25.9937 70.1503 25.116 69.8352 24.5575 69.1657C23.8594 67.6692 22.3236 66.6058 20.5483 66.5861C18.075 66.5468 16.0405 68.5159 16.0006 70.9576C15.9607 73.3993 17.9553 75.4078 20.4287 75.4472C22.2039 75.4669 23.9392 74.3051 24.6772 72.8086C25.3155 72.1391 26.1134 71.9816 27.0309 71.824C27.1107 73.0843 27.0309 74.4429 26.8314 75.2306C25.894 77.7905 23.5602 80.8427 22.3036 81.8666C23.9791 80.4685 30.7409 80.5669 32.3765 82.0044C31.1598 80.9411 28.7463 77.6723 28.0481 75.2503C27.8287 74.2854 27.8886 72.4739 27.9085 71.8437C28.846 72.021 29.6638 72.1981 30.2821 72.907C30.9803 74.4036 32.6757 75.6245 34.4509 75.6441C36.9243 75.6835 38.9588 73.7144 38.9987 71.2727C39.0585 68.8506 37.0639 66.8421 34.5906 66.8027Z" fill="#EAEAEA"/>
<path fill-rule="evenodd" clip-rule="evenodd" d="M106.782 81.4637C105.084 81.4448 103.596 82.4054 102.89 83.818C102.337 84.4584 101.497 84.7221 100.639 84.8917C100.849 83.8746 101.097 82.7445 101.917 82.0852C103.367 81.426 104.378 79.9757 104.416 78.2994C104.455 75.9638 102.547 74.0426 100.181 74.0049C97.8151 73.9673 95.869 75.8508 95.8309 78.1864C95.8118 79.8627 96.7848 81.3318 98.2157 82.0287C98.9026 82.5373 99.2079 83.7804 99.3987 84.854C98.5592 84.6657 97.7197 84.3643 97.1855 83.7239C96.5177 82.2924 95.0486 81.2753 93.3506 81.2565C90.9848 81.2188 89.0387 83.1023 89.0006 85.4379C88.9624 87.7735 90.8703 89.6946 93.2361 89.7323C94.9341 89.7511 96.594 88.6399 97.3 87.2084C97.9105 86.568 98.6737 86.4173 99.5513 86.2667C99.6276 87.4721 99.5513 88.7717 99.3605 89.5251C98.4638 91.9737 96.2315 94.8932 95.0295 95.8726C96.6322 94.5353 103.1 94.6294 104.664 96.0044C103.501 94.9873 101.192 91.8607 100.524 89.544C100.314 88.621 100.372 86.8882 100.391 86.2855C101.287 86.455 102.07 86.6245 102.661 87.3026C103.329 88.734 104.951 89.9018 106.649 89.9207C109.015 89.9583 110.961 88.0748 110.999 85.7393C111.056 83.4225 109.148 81.5013 106.782 81.4637Z" fill="#EAEAEA"/>
<path fill-rule="evenodd" clip-rule="evenodd" d="M93.2177 196.545C94.9158 196.564 96.4039 195.603 97.1099 194.191C97.6632 193.55 98.5026 193.287 99.3612 193.117C99.1513 194.134 98.9033 195.264 98.0829 195.924C96.6329 196.583 95.6217 198.033 95.5835 199.709C95.5454 202.045 97.4533 203.966 99.8191 204.004C102.185 204.042 104.131 202.158 104.169 199.822C104.188 198.146 103.215 196.677 101.784 195.98C101.097 195.471 100.792 194.228 100.601 193.155C101.441 193.343 102.28 193.644 102.815 194.285C103.482 195.716 104.951 196.733 106.649 196.752C109.015 196.79 110.961 194.906 110.999 192.571C111.038 190.235 109.13 188.314 106.764 188.276C105.066 188.258 103.406 189.369 102.7 190.8C102.09 191.441 101.326 191.591 100.449 191.742C100.372 190.537 100.449 189.237 100.639 188.484C101.536 186.035 103.768 183.116 104.97 182.136C103.368 183.473 96.9 183.379 95.3355 182.004C96.4993 183.021 98.8079 186.148 99.4757 188.465C99.6856 189.388 99.6283 191.121 99.6092 191.723C98.7125 191.554 97.9303 191.384 97.3388 190.706C96.6711 189.275 95.0493 188.107 93.3513 188.088C90.9855 188.05 89.0394 189.934 89.0013 192.27C88.944 194.586 90.8519 196.507 93.2177 196.545Z" fill="#EAEAEA"/>
</g>
<defs>
<linearGradient id="paint0_linear_2709_119939" x1="0" y1="278.004" x2="200" y2="0.00440461" gradientUnits="userSpaceOnUse">
<stop stop-color="#101010"/>
<stop offset="0.712851" stop-color="#201F1F"/>
<stop offset="1" stop-color="#101010"/>
</linearGradient>
<clipPath id="clip0_2709_119939">
<rect width="200" height="278" fill="white"/>
</clipPath>
</defs>
</svg>
