<svg width="200" height="278" viewBox="0 0 200 278" fill="none" xmlns="http://www.w3.org/2000/svg">
<g clip-path="url(#clip0_2709_120367)">
<rect y="0.00439453" width="200" height="278" rx="10" fill="url(#paint0_linear_2709_120367)"/>
<path fill-rule="evenodd" clip-rule="evenodd" d="M165.409 211.206C167.185 211.226 168.74 210.222 169.478 208.745C170.057 208.075 170.935 207.799 171.832 207.622C171.613 208.686 171.353 209.867 170.496 210.556C168.98 211.245 167.923 212.762 167.883 214.514C167.843 216.956 169.838 218.964 172.311 219.004C174.784 219.043 176.819 217.074 176.859 214.632C176.879 212.88 175.861 211.344 174.365 210.615C173.647 210.084 173.328 208.784 173.129 207.662C174.006 207.859 174.884 208.174 175.442 208.843C176.141 210.34 177.676 211.403 179.452 211.423C181.925 211.462 183.96 209.493 183.999 207.051C184.039 204.609 182.045 202.601 179.571 202.562C177.796 202.542 176.061 203.704 175.323 205.2C174.684 205.87 173.887 206.027 172.969 206.185C172.889 204.925 172.969 203.566 173.169 202.778C174.106 200.218 176.44 197.166 177.696 196.142C176.021 197.54 169.259 197.442 167.623 196.004C168.84 197.068 171.254 200.336 171.952 202.758C172.171 203.723 172.111 205.535 172.091 206.165C171.154 205.988 170.336 205.811 169.718 205.102C169.02 203.605 167.324 202.384 165.549 202.365C163.076 202.325 161.041 204.294 161.001 206.736C160.941 209.158 162.936 211.167 165.409 211.206Z" fill="#EAEAEA"/>
<path fill-rule="evenodd" clip-rule="evenodd" d="M34.5906 66.8027C32.8153 66.783 31.2595 67.7873 30.5215 69.2641C29.9431 69.9336 29.0654 70.2093 28.1678 70.3865C28.3872 69.3232 28.6465 68.1418 29.5042 67.4526C31.0202 66.7634 32.0773 65.2471 32.1172 63.4946C32.1571 61.0529 30.1625 59.0444 27.6891 59.005C25.2158 58.9656 23.1813 60.9347 23.1414 63.3764C23.1214 65.129 24.1387 66.6649 25.6346 67.3935C26.3527 67.9252 26.6719 69.2248 26.8713 70.3472C25.9937 70.1503 25.116 69.8352 24.5575 69.1657C23.8594 67.6692 22.3236 66.6058 20.5483 66.5861C18.075 66.5468 16.0405 68.5159 16.0006 70.9576C15.9607 73.3993 17.9553 75.4078 20.4287 75.4472C22.2039 75.4669 23.9392 74.3051 24.6772 72.8086C25.3155 72.1391 26.1134 71.9816 27.0309 71.824C27.1107 73.0843 27.0309 74.4429 26.8314 75.2306C25.894 77.7905 23.5602 80.8427 22.3036 81.8666C23.9791 80.4685 30.7409 80.5669 32.3765 82.0044C31.1598 80.9411 28.7463 77.6723 28.0481 75.2503C27.8287 74.2854 27.8886 72.4739 27.9085 71.8437C28.846 72.021 29.6638 72.1981 30.2821 72.907C30.9803 74.4036 32.6757 75.6245 34.4509 75.6441C36.9243 75.6835 38.9588 73.7144 38.9987 71.2727C39.0585 68.8506 37.0639 66.8421 34.5906 66.8027Z" fill="#EAEAEA"/>
<path d="M22.276 47.0044C22.4419 44.4333 22.7074 42.0737 23.0724 39.9257C23.4374 37.7451 23.9517 35.6784 24.6154 33.7257C25.3122 31.7729 26.1916 29.8527 27.2534 27.965C28.3152 26.0774 29.6259 24.1083 31.1855 22.0579H17V16.0044H39V20.3981C37.1418 22.6112 35.6154 24.6779 34.4208 26.5981C33.2594 28.5183 32.3635 30.4711 31.733 32.4564C31.1026 34.4417 30.638 36.606 30.3394 38.9493C30.0407 41.2926 29.8084 43.9776 29.6425 47.0044H22.276Z" fill="#EAEAEA"/>
<path d="M177.724 231.004C177.558 233.576 177.293 235.935 176.928 238.083C176.563 240.264 176.048 242.33 175.385 244.283C174.688 246.236 173.808 248.156 172.747 250.044C171.685 251.931 170.374 253.9 168.814 255.951H183V262.004H161V257.611C162.858 255.398 164.385 253.331 165.579 251.411C166.741 249.49 167.637 247.538 168.267 245.552C168.897 243.567 169.362 241.403 169.661 239.06C169.959 236.716 170.192 234.031 170.357 231.004H177.724Z" fill="#EAEAEA"/>
<path fill-rule="evenodd" clip-rule="evenodd" d="M82.7823 81.4637C81.0842 81.4448 79.5961 82.4054 78.8901 83.818C78.3368 84.4584 77.4974 84.7221 76.6388 84.8917C76.8487 83.8746 77.0967 82.7445 77.9171 82.0852C79.3671 81.426 80.3783 79.9757 80.4165 78.2994C80.4546 75.9638 78.5467 74.0426 76.1809 74.0049C73.8151 73.9673 71.869 75.8508 71.8309 78.1864C71.8118 79.8627 72.7848 81.3318 74.2157 82.0287C74.9026 82.5373 75.2079 83.7804 75.3987 84.854C74.5592 84.6657 73.7197 84.3643 73.1855 83.7239C72.5177 82.2924 71.0486 81.2753 69.3506 81.2565C66.9848 81.2188 65.0387 83.1023 65.0006 85.4379C64.9624 87.7735 66.8703 89.6946 69.2361 89.7323C70.9341 89.7511 72.594 88.6399 73.3 87.2084C73.9105 86.568 74.6737 86.4173 75.5513 86.2667C75.6276 87.4721 75.5513 88.7717 75.3605 89.5251C74.4638 91.9737 72.2315 94.8932 71.0295 95.8726C72.6322 94.5353 79.1 94.6294 80.6645 96.0044C79.5007 94.9873 77.1921 91.8607 76.5243 89.544C76.3144 88.621 76.3717 86.8882 76.3908 86.2855C77.2875 86.455 78.0697 86.6245 78.6612 87.3026C79.3289 88.734 80.9507 89.9018 82.6487 89.9207C85.0145 89.9583 86.9606 88.0748 86.9987 85.7393C87.056 83.4225 85.1481 81.5013 82.7823 81.4637Z" fill="#EAEAEA"/>
<path fill-rule="evenodd" clip-rule="evenodd" d="M130.782 81.4637C129.084 81.4448 127.596 82.4054 126.89 83.818C126.337 84.4584 125.497 84.7221 124.639 84.8917C124.849 83.8746 125.097 82.7445 125.917 82.0852C127.367 81.426 128.378 79.9757 128.416 78.2994C128.455 75.9638 126.547 74.0426 124.181 74.0049C121.815 73.9673 119.869 75.8508 119.831 78.1864C119.812 79.8627 120.785 81.3318 122.216 82.0287C122.903 82.5373 123.208 83.7804 123.399 84.854C122.559 84.6657 121.72 84.3643 121.185 83.7239C120.518 82.2924 119.049 81.2753 117.351 81.2565C114.985 81.2188 113.039 83.1023 113.001 85.4379C112.962 87.7735 114.87 89.6946 117.236 89.7323C118.934 89.7511 120.594 88.6399 121.3 87.2084C121.91 86.568 122.674 86.4173 123.551 86.2667C123.628 87.4721 123.551 88.7717 123.361 89.5251C122.464 91.9737 120.232 94.8932 119.03 95.8726C120.632 94.5353 127.1 94.6294 128.664 96.0044C127.501 94.9873 125.192 91.8607 124.524 89.544C124.314 88.621 124.372 86.8882 124.391 86.2855C125.287 86.455 126.07 86.6245 126.661 87.3026C127.329 88.734 128.951 89.9018 130.649 89.9207C133.015 89.9583 134.961 88.0748 134.999 85.7393C135.056 83.4225 133.148 81.5013 130.782 81.4637Z" fill="#EAEAEA"/>
<path fill-rule="evenodd" clip-rule="evenodd" d="M130.782 135.464C129.084 135.445 127.596 136.405 126.89 137.818C126.337 138.458 125.497 138.722 124.639 138.892C124.849 137.875 125.097 136.744 125.917 136.085C127.367 135.426 128.378 133.976 128.416 132.299C128.455 129.964 126.547 128.043 124.181 128.005C121.815 127.967 119.869 129.851 119.831 132.186C119.812 133.863 120.785 135.332 122.216 136.029C122.903 136.537 123.208 137.78 123.399 138.854C122.559 138.666 121.72 138.364 121.185 137.724C120.518 136.292 119.049 135.275 117.351 135.256C114.985 135.219 113.039 137.102 113.001 139.438C112.962 141.773 114.87 143.695 117.236 143.732C118.934 143.751 120.594 142.64 121.3 141.208C121.91 140.568 122.674 140.417 123.551 140.267C123.628 141.472 123.551 142.772 123.361 143.525C122.464 145.974 120.232 148.893 119.03 149.873C120.632 148.535 127.1 148.629 128.664 150.004C127.501 148.987 125.192 145.861 124.524 143.544C124.314 142.621 124.372 140.888 124.391 140.286C125.287 140.455 126.07 140.624 126.661 141.303C127.329 142.734 128.951 143.902 130.649 143.921C133.015 143.958 134.961 142.075 134.999 139.739C135.056 137.423 133.148 135.501 130.782 135.464Z" fill="#EAEAEA"/>
<path fill-rule="evenodd" clip-rule="evenodd" d="M106.782 108.464C105.084 108.445 103.596 109.405 102.89 110.818C102.337 111.458 101.497 111.722 100.639 111.892C100.849 110.875 101.097 109.744 101.917 109.085C103.367 108.426 104.378 106.976 104.416 105.299C104.455 102.964 102.547 101.043 100.181 101.005C97.8151 100.967 95.869 102.851 95.8309 105.186C95.8118 106.863 96.7848 108.332 98.2157 109.029C98.9026 109.537 99.2079 110.78 99.3987 111.854C98.5592 111.666 97.7197 111.364 97.1855 110.724C96.5177 109.292 95.0486 108.275 93.3506 108.256C90.9848 108.219 89.0387 110.102 89.0006 112.438C88.9624 114.773 90.8703 116.695 93.2361 116.732C94.9341 116.751 96.594 115.64 97.3 114.208C97.9105 113.568 98.6737 113.417 99.5513 113.267C99.6276 114.472 99.5513 115.772 99.3605 116.525C98.4638 118.974 96.2315 121.893 95.0295 122.873C96.6322 121.535 103.1 121.629 104.664 123.004C103.501 121.987 101.192 118.861 100.524 116.544C100.314 115.621 100.372 113.888 100.391 113.286C101.287 113.455 102.07 113.624 102.661 114.303C103.329 115.734 104.951 116.902 106.649 116.921C109.015 116.958 110.961 115.075 110.999 112.739C111.056 110.423 109.148 108.501 106.782 108.464Z" fill="#EAEAEA"/>
<path fill-rule="evenodd" clip-rule="evenodd" d="M82.7823 135.464C81.0842 135.445 79.5961 136.405 78.8901 137.818C78.3368 138.458 77.4974 138.722 76.6388 138.892C76.8487 137.875 77.0967 136.744 77.9171 136.085C79.3671 135.426 80.3783 133.976 80.4165 132.299C80.4546 129.964 78.5467 128.043 76.1809 128.005C73.8151 127.967 71.869 129.851 71.8309 132.186C71.8118 133.863 72.7848 135.332 74.2157 136.029C74.9026 136.537 75.2079 137.78 75.3987 138.854C74.5592 138.666 73.7197 138.364 73.1855 137.724C72.5177 136.292 71.0486 135.275 69.3506 135.256C66.9848 135.219 65.0387 137.102 65.0006 139.438C64.9624 141.773 66.8703 143.695 69.2361 143.732C70.9341 143.751 72.594 142.64 73.3 141.208C73.9105 140.568 74.6737 140.417 75.5513 140.267C75.6276 141.472 75.5513 142.772 75.3605 143.525C74.4638 145.974 72.2315 148.893 71.0295 149.873C72.6322 148.535 79.1 148.629 80.6645 150.004C79.5007 148.987 77.1921 145.861 76.5243 143.544C76.3144 142.621 76.3717 140.888 76.3908 140.286C77.2875 140.455 78.0697 140.624 78.6612 141.303C79.3289 142.734 80.9507 143.902 82.6487 143.921C85.0145 143.958 86.9606 142.075 86.9987 139.739C87.056 137.423 85.1481 135.501 82.7823 135.464Z" fill="#EAEAEA"/>
<path fill-rule="evenodd" clip-rule="evenodd" d="M117.218 196.545C118.916 196.564 120.404 195.603 121.11 194.191C121.663 193.55 122.503 193.287 123.361 193.117C123.151 194.134 122.903 195.264 122.083 195.924C120.633 196.583 119.622 198.033 119.584 199.709C119.545 202.045 121.453 203.966 123.819 204.004C126.185 204.042 128.131 202.158 128.169 199.822C128.188 198.146 127.215 196.677 125.784 195.98C125.097 195.471 124.792 194.228 124.601 193.155C125.441 193.343 126.28 193.644 126.815 194.285C127.482 195.716 128.951 196.733 130.649 196.752C133.015 196.79 134.961 194.906 134.999 192.571C135.038 190.235 133.13 188.314 130.764 188.276C129.066 188.258 127.406 189.369 126.7 190.8C126.09 191.441 125.326 191.591 124.449 191.742C124.372 190.537 124.449 189.237 124.639 188.484C125.536 186.035 127.768 183.116 128.97 182.136C127.368 183.473 120.9 183.379 119.336 182.004C120.499 183.021 122.808 186.148 123.476 188.465C123.686 189.388 123.628 191.121 123.609 191.723C122.713 191.554 121.93 191.384 121.339 190.706C120.671 189.275 119.049 188.107 117.351 188.088C114.985 188.05 113.039 189.934 113.001 192.27C112.944 194.586 114.852 196.507 117.218 196.545Z" fill="#EAEAEA"/>
<path fill-rule="evenodd" clip-rule="evenodd" d="M69.2177 196.545C70.9158 196.564 72.4039 195.603 73.1099 194.191C73.6632 193.55 74.5026 193.287 75.3612 193.117C75.1513 194.134 74.9033 195.264 74.0829 195.924C72.6329 196.583 71.6217 198.033 71.5835 199.709C71.5454 202.045 73.4533 203.966 75.8191 204.004C78.1849 204.042 80.131 202.158 80.1691 199.822C80.1882 198.146 79.2152 196.677 77.7843 195.98C77.0974 195.471 76.7921 194.228 76.6013 193.155C77.4408 193.343 78.2803 193.644 78.8145 194.285C79.4823 195.716 80.9514 196.733 82.6494 196.752C85.0152 196.79 86.9613 194.906 86.9994 192.571C87.0376 190.235 85.1297 188.314 82.7639 188.276C81.0659 188.258 79.406 189.369 78.7 190.8C78.0895 191.441 77.3263 191.591 76.4487 191.742C76.3724 190.537 76.4487 189.237 76.6395 188.484C77.5362 186.035 79.7685 183.116 80.9705 182.136C79.3678 183.473 72.9 183.379 71.3355 182.004C72.4993 183.021 74.8079 186.148 75.4757 188.465C75.6856 189.388 75.6283 191.121 75.6092 191.723C74.7125 191.554 73.9303 191.384 73.3388 190.706C72.6711 189.275 71.0493 188.107 69.3513 188.088C66.9855 188.05 65.0394 189.934 65.0013 192.27C64.944 194.586 66.8519 196.507 69.2177 196.545Z" fill="#EAEAEA"/>
</g>
<defs>
<linearGradient id="paint0_linear_2709_120367" x1="0" y1="278.004" x2="200" y2="0.00440461" gradientUnits="userSpaceOnUse">
<stop stop-color="#101010"/>
<stop offset="0.712851" stop-color="#201F1F"/>
<stop offset="1" stop-color="#101010"/>
</linearGradient>
<clipPath id="clip0_2709_120367">
<rect width="200" height="278" fill="white"/>
</clipPath>
</defs>
</svg>
