<svg width="200" height="278" viewBox="0 0 200 278" fill="none" xmlns="http://www.w3.org/2000/svg">
<g clip-path="url(#clip0_2709_120203)">
<rect y="0.00439453" width="200" height="278" rx="10" fill="url(#paint0_linear_2709_120203)"/>
<path fill-rule="evenodd" clip-rule="evenodd" d="M165.409 211.206C167.185 211.226 168.74 210.222 169.478 208.745C170.057 208.075 170.935 207.799 171.832 207.622C171.613 208.686 171.353 209.867 170.496 210.556C168.98 211.245 167.923 212.762 167.883 214.514C167.843 216.956 169.838 218.964 172.311 219.004C174.784 219.043 176.819 217.074 176.859 214.632C176.879 212.88 175.861 211.344 174.365 210.615C173.647 210.084 173.328 208.784 173.129 207.662C174.006 207.859 174.884 208.174 175.442 208.843C176.141 210.34 177.676 211.403 179.452 211.423C181.925 211.462 183.96 209.493 183.999 207.051C184.039 204.609 182.045 202.601 179.571 202.562C177.796 202.542 176.061 203.704 175.323 205.2C174.684 205.87 173.887 206.027 172.969 206.185C172.889 204.925 172.969 203.566 173.169 202.778C174.106 200.218 176.44 197.166 177.696 196.142C176.021 197.54 169.259 197.442 167.623 196.004C168.84 197.068 171.254 200.336 171.952 202.758C172.171 203.723 172.111 205.535 172.091 206.165C171.154 205.988 170.336 205.811 169.718 205.102C169.02 203.605 167.324 202.384 165.549 202.365C163.076 202.325 161.041 204.294 161.001 206.736C160.941 209.158 162.936 211.167 165.409 211.206Z" fill="#EAEAEA"/>
<path fill-rule="evenodd" clip-rule="evenodd" d="M34.5906 66.8027C32.8153 66.783 31.2595 67.7873 30.5215 69.2641C29.9431 69.9336 29.0654 70.2093 28.1678 70.3865C28.3872 69.3232 28.6465 68.1418 29.5042 67.4526C31.0202 66.7634 32.0773 65.2471 32.1172 63.4946C32.1571 61.0529 30.1625 59.0444 27.6891 59.005C25.2158 58.9656 23.1813 60.9347 23.1414 63.3764C23.1214 65.129 24.1387 66.6649 25.6346 67.3935C26.3527 67.9252 26.6719 69.2248 26.8713 70.3472C25.9937 70.1503 25.116 69.8352 24.5575 69.1657C23.8594 67.6692 22.3236 66.6058 20.5483 66.5861C18.075 66.5468 16.0405 68.5159 16.0006 70.9576C15.9607 73.3993 17.9553 75.4078 20.4287 75.4472C22.2039 75.4669 23.9392 74.3051 24.6772 72.8086C25.3155 72.1391 26.1134 71.9816 27.0309 71.824C27.1107 73.0843 27.0309 74.4429 26.8314 75.2306C25.894 77.7905 23.5602 80.8427 22.3036 81.8666C23.9791 80.4685 30.7409 80.5669 32.3765 82.0044C31.1598 80.9411 28.7463 77.6723 28.0481 75.2503C27.8287 74.2854 27.8886 72.4739 27.9085 71.8437C28.846 72.021 29.6638 72.1981 30.2821 72.907C30.9803 74.4036 32.6757 75.6245 34.4509 75.6441C36.9243 75.6835 38.9588 73.7144 38.9987 71.2727C39.0585 68.8506 37.0639 66.8421 34.5906 66.8027Z" fill="#EAEAEA"/>
<path d="M26.0597 47.0044C24.1084 47.0044 22.4204 46.6437 20.9956 45.9225C19.5708 45.2012 18.3783 44.3701 17.4181 43.4293L21.042 39.2897C21.5376 39.8542 22.2035 40.3559 23.0398 40.795C23.9071 41.2027 24.7588 41.4065 25.5951 41.4065C26.7721 41.4065 27.8097 41.0772 28.708 40.4187C29.6372 39.7601 30.365 38.6625 30.8916 37.1258C31.4491 35.5578 31.7279 33.4566 31.7279 30.8223C31.7279 28.3448 31.4956 26.4161 31.031 25.0363C30.5973 23.625 30.0089 22.6372 29.2655 22.0727C28.5531 21.4768 27.7788 21.1789 26.9425 21.1789C26.292 21.1789 25.6726 21.3514 25.0841 21.6964C24.5265 22.0413 24.0774 22.5588 23.7367 23.2487C23.396 23.9386 23.2257 24.8638 23.2257 26.0241C23.2257 27.059 23.396 27.9058 23.7367 28.5643C24.0774 29.1915 24.542 29.6463 25.1305 29.9285C25.719 30.2108 26.385 30.3519 27.1283 30.3519C27.9027 30.3519 28.6925 30.1167 29.4978 29.6463C30.3031 29.1445 31.031 28.3134 31.6814 27.1531L32.0066 31.669C31.2633 32.7667 30.2876 33.6448 29.0796 34.3033C27.8717 34.9305 26.7721 35.2442 25.781 35.2442C24.1084 35.2442 22.6062 34.9149 21.2743 34.2563C19.9425 33.5977 18.8894 32.5942 18.115 31.2457C17.3717 29.8658 17 28.1253 17 26.0241C17 23.9543 17.4491 22.1668 18.3473 20.6614C19.2456 19.1561 20.4381 18.0115 21.9248 17.2275C23.4115 16.4121 25.0376 16.0044 26.8031 16.0044C28.2589 16.0044 29.6527 16.2866 30.9845 16.8511C32.3164 17.4156 33.4934 18.2937 34.5155 19.4854C35.5686 20.6771 36.4049 22.2138 37.0243 24.0954C37.6748 25.9457 38 28.188 38 30.8223C38 33.6134 37.6593 36.0282 36.9779 38.0666C36.3274 40.105 35.4447 41.7828 34.3296 43.1C33.2146 44.4171 31.9447 45.405 30.5199 46.0636C29.0951 46.6908 27.6084 47.0044 26.0597 47.0044Z" fill="#EAEAEA"/>
<path d="M173.94 231.004C175.892 231.004 177.58 231.365 179.004 232.086C180.429 232.808 181.622 233.639 182.582 234.58L178.958 238.719C178.462 238.155 177.796 237.653 176.96 237.214C176.093 236.806 175.241 236.602 174.405 236.602C173.228 236.602 172.19 236.932 171.292 237.59C170.363 238.249 169.635 239.346 169.108 240.883C168.551 242.451 168.272 244.552 168.272 247.186C168.272 249.664 168.504 251.593 168.969 252.973C169.403 254.384 169.991 255.372 170.735 255.936C171.447 256.532 172.221 256.83 173.058 256.83C173.708 256.83 174.327 256.657 174.916 256.312C175.473 255.967 175.923 255.45 176.263 254.76C176.604 254.07 176.774 253.145 176.774 251.985C176.774 250.95 176.604 250.103 176.263 249.444C175.923 248.817 175.458 248.363 174.869 248.08C174.281 247.798 173.615 247.657 172.872 247.657C172.097 247.657 171.308 247.892 170.502 248.363C169.697 248.864 168.969 249.695 168.319 250.856L167.993 246.34C168.737 245.242 169.712 244.364 170.92 243.705C172.128 243.078 173.228 242.765 174.219 242.765C175.892 242.765 177.394 243.094 178.726 243.752C180.058 244.411 181.111 245.415 181.885 246.763C182.628 248.143 183 249.884 183 251.985C183 254.054 182.551 255.842 181.653 257.347C180.754 258.853 179.562 259.997 178.075 260.781C176.588 261.597 174.962 262.004 173.197 262.004C171.741 262.004 170.347 261.722 169.015 261.158C167.684 260.593 166.507 259.715 165.485 258.523C164.431 257.332 163.595 255.795 162.976 253.913C162.325 252.063 162 249.821 162 247.186C162 244.395 162.341 241.981 163.022 239.942C163.673 237.904 164.555 236.226 165.67 234.909C166.785 233.592 168.055 232.604 169.48 231.945C170.905 231.318 172.392 231.004 173.94 231.004Z" fill="#EAEAEA"/>
<path fill-rule="evenodd" clip-rule="evenodd" d="M82.7823 81.4637C81.0842 81.4448 79.5961 82.4054 78.8901 83.818C78.3368 84.4584 77.4974 84.7221 76.6388 84.8917C76.8487 83.8746 77.0967 82.7445 77.9171 82.0852C79.3671 81.426 80.3783 79.9757 80.4165 78.2994C80.4546 75.9638 78.5467 74.0426 76.1809 74.0049C73.8151 73.9673 71.869 75.8508 71.8309 78.1864C71.8118 79.8627 72.7848 81.3318 74.2157 82.0287C74.9026 82.5373 75.2079 83.7804 75.3987 84.854C74.5592 84.6657 73.7197 84.3643 73.1855 83.7239C72.5177 82.2924 71.0486 81.2753 69.3506 81.2565C66.9848 81.2188 65.0387 83.1023 65.0006 85.4379C64.9624 87.7735 66.8703 89.6946 69.2361 89.7323C70.9341 89.7511 72.594 88.6399 73.3 87.2084C73.9105 86.568 74.6737 86.4173 75.5513 86.2667C75.6276 87.4721 75.5513 88.7717 75.3605 89.5251C74.4638 91.9737 72.2315 94.8932 71.0295 95.8726C72.6322 94.5353 79.1 94.6294 80.6645 96.0044C79.5007 94.9873 77.1921 91.8607 76.5243 89.544C76.3144 88.621 76.3717 86.8882 76.3908 86.2855C77.2875 86.455 78.0697 86.6245 78.6612 87.3026C79.3289 88.734 80.9507 89.9018 82.6487 89.9207C85.0145 89.9583 86.9606 88.0748 86.9987 85.7393C87.056 83.4225 85.1481 81.5013 82.7823 81.4637Z" fill="#EAEAEA"/>
<path fill-rule="evenodd" clip-rule="evenodd" d="M130.782 81.4637C129.084 81.4448 127.596 82.4054 126.89 83.818C126.337 84.4584 125.497 84.7221 124.639 84.8917C124.849 83.8746 125.097 82.7445 125.917 82.0852C127.367 81.426 128.378 79.9757 128.416 78.2994C128.455 75.9638 126.547 74.0426 124.181 74.0049C121.815 73.9673 119.869 75.8508 119.831 78.1864C119.812 79.8627 120.785 81.3318 122.216 82.0287C122.903 82.5373 123.208 83.7804 123.399 84.854C122.559 84.6657 121.72 84.3643 121.185 83.7239C120.518 82.2924 119.049 81.2753 117.351 81.2565C114.985 81.2188 113.039 83.1023 113.001 85.4379C112.962 87.7735 114.87 89.6946 117.236 89.7323C118.934 89.7511 120.594 88.6399 121.3 87.2084C121.91 86.568 122.674 86.4173 123.551 86.2667C123.628 87.4721 123.551 88.7717 123.361 89.5251C122.464 91.9737 120.232 94.8932 119.03 95.8726C120.632 94.5353 127.1 94.6294 128.664 96.0044C127.501 94.9873 125.192 91.8607 124.524 89.544C124.314 88.621 124.372 86.8882 124.391 86.2855C125.287 86.455 126.07 86.6245 126.661 87.3026C127.329 88.734 128.951 89.9018 130.649 89.9207C133.015 89.9583 134.961 88.0748 134.999 85.7393C135.056 83.4225 133.148 81.5013 130.782 81.4637Z" fill="#EAEAEA"/>
<path fill-rule="evenodd" clip-rule="evenodd" d="M130.782 119.464C129.084 119.445 127.596 120.405 126.89 121.818C126.337 122.458 125.497 122.722 124.639 122.892C124.849 121.875 125.097 120.744 125.917 120.085C127.367 119.426 128.378 117.976 128.416 116.299C128.455 113.964 126.547 112.043 124.181 112.005C121.815 111.967 119.869 113.851 119.831 116.186C119.812 117.863 120.785 119.332 122.216 120.029C122.903 120.537 123.208 121.78 123.399 122.854C122.559 122.666 121.72 122.364 121.185 121.724C120.518 120.292 119.049 119.275 117.351 119.256C114.985 119.219 113.039 121.102 113.001 123.438C112.962 125.773 114.87 127.695 117.236 127.732C118.934 127.751 120.594 126.64 121.3 125.208C121.91 124.568 122.674 124.417 123.551 124.267C123.628 125.472 123.551 126.772 123.361 127.525C122.464 129.974 120.232 132.893 119.03 133.873C120.632 132.535 127.1 132.629 128.664 134.004C127.501 132.987 125.192 129.861 124.524 127.544C124.314 126.621 124.372 124.888 124.391 124.286C125.287 124.455 126.07 124.624 126.661 125.303C127.329 126.734 128.951 127.902 130.649 127.921C133.015 127.958 134.961 126.075 134.999 123.739C135.056 121.423 133.148 119.501 130.782 119.464Z" fill="#EAEAEA"/>
<path fill-rule="evenodd" clip-rule="evenodd" d="M69.2177 158.545C70.9158 158.564 72.4039 157.603 73.1099 156.191C73.6632 155.55 74.5026 155.287 75.3612 155.117C75.1513 156.134 74.9033 157.264 74.0829 157.924C72.6329 158.583 71.6217 160.033 71.5835 161.709C71.5454 164.045 73.4533 165.966 75.8191 166.004C78.1849 166.042 80.131 164.158 80.1691 161.822C80.1882 160.146 79.2152 158.677 77.7843 157.98C77.0974 157.471 76.7921 156.228 76.6013 155.155C77.4408 155.343 78.2803 155.644 78.8145 156.285C79.4823 157.716 80.9514 158.733 82.6494 158.752C85.0152 158.79 86.9613 156.906 86.9994 154.571C87.0376 152.235 85.1297 150.314 82.7639 150.276C81.0659 150.258 79.406 151.369 78.7 152.8C78.0895 153.441 77.3263 153.591 76.4487 153.742C76.3724 152.537 76.4487 151.237 76.6395 150.484C77.5362 148.035 79.7685 145.116 80.9705 144.136C79.3678 145.473 72.9 145.379 71.3355 144.004C72.4993 145.021 74.8079 148.148 75.4757 150.465C75.6856 151.388 75.6283 153.121 75.6092 153.723C74.7125 153.554 73.9303 153.384 73.3388 152.706C72.6711 151.275 71.0493 150.107 69.3513 150.088C66.9855 150.05 65.0394 151.934 65.0013 154.27C64.944 156.586 66.8519 158.507 69.2177 158.545Z" fill="#EAEAEA"/>
<path fill-rule="evenodd" clip-rule="evenodd" d="M106.782 135.464C105.084 135.445 103.596 136.405 102.89 137.818C102.337 138.458 101.497 138.722 100.639 138.892C100.849 137.875 101.097 136.744 101.917 136.085C103.367 135.426 104.378 133.976 104.416 132.299C104.455 129.964 102.547 128.043 100.181 128.005C97.8151 127.967 95.869 129.851 95.8309 132.186C95.8118 133.863 96.7848 135.332 98.2157 136.029C98.9026 136.537 99.2079 137.78 99.3987 138.854C98.5592 138.666 97.7197 138.364 97.1855 137.724C96.5177 136.292 95.0486 135.275 93.3506 135.256C90.9848 135.219 89.0387 137.102 89.0006 139.438C88.9624 141.773 90.8703 143.695 93.2361 143.732C94.9341 143.751 96.594 142.64 97.3 141.208C97.9105 140.568 98.6737 140.417 99.5513 140.267C99.6276 141.472 99.5513 142.772 99.3605 143.525C98.4638 145.974 96.2315 148.893 95.0295 149.873C96.6322 148.535 103.1 148.629 104.664 150.004C103.501 148.987 101.192 145.861 100.524 143.544C100.314 142.621 100.372 140.888 100.391 140.286C101.287 140.455 102.07 140.624 102.661 141.303C103.329 142.734 104.951 143.902 106.649 143.921C109.015 143.958 110.961 142.075 110.999 139.739C111.056 137.423 109.148 135.501 106.782 135.464Z" fill="#EAEAEA"/>
<path fill-rule="evenodd" clip-rule="evenodd" d="M82.7823 119.464C81.0842 119.445 79.5961 120.405 78.8901 121.818C78.3368 122.458 77.4974 122.722 76.6388 122.892C76.8487 121.875 77.0967 120.744 77.9171 120.085C79.3671 119.426 80.3783 117.976 80.4165 116.299C80.4546 113.964 78.5467 112.043 76.1809 112.005C73.8151 111.967 71.869 113.851 71.8309 116.186C71.8118 117.863 72.7848 119.332 74.2157 120.029C74.9026 120.537 75.2079 121.78 75.3987 122.854C74.5592 122.666 73.7197 122.364 73.1855 121.724C72.5177 120.292 71.0486 119.275 69.3506 119.256C66.9848 119.219 65.0387 121.102 65.0006 123.438C64.9624 125.773 66.8703 127.695 69.2361 127.732C70.9341 127.751 72.594 126.64 73.3 125.208C73.9105 124.568 74.6737 124.417 75.5513 124.267C75.6276 125.472 75.5513 126.772 75.3605 127.525C74.4638 129.974 72.2315 132.893 71.0295 133.873C72.6322 132.535 79.1 132.629 80.6645 134.004C79.5007 132.987 77.1921 129.861 76.5243 127.544C76.3144 126.621 76.3717 124.888 76.3908 124.286C77.2875 124.455 78.0697 124.624 78.6612 125.303C79.3289 126.734 80.9507 127.902 82.6487 127.921C85.0145 127.958 86.9606 126.075 86.9987 123.739C87.056 121.423 85.1481 119.501 82.7823 119.464Z" fill="#EAEAEA"/>
<path fill-rule="evenodd" clip-rule="evenodd" d="M117.218 158.545C118.916 158.564 120.404 157.603 121.11 156.191C121.663 155.55 122.503 155.287 123.361 155.117C123.151 156.134 122.903 157.264 122.083 157.924C120.633 158.583 119.622 160.033 119.584 161.709C119.545 164.045 121.453 165.966 123.819 166.004C126.185 166.042 128.131 164.158 128.169 161.822C128.188 160.146 127.215 158.677 125.784 157.98C125.097 157.471 124.792 156.228 124.601 155.155C125.441 155.343 126.28 155.644 126.815 156.285C127.482 157.716 128.951 158.733 130.649 158.752C133.015 158.79 134.961 156.906 134.999 154.571C135.038 152.235 133.13 150.314 130.764 150.276C129.066 150.258 127.406 151.369 126.7 152.8C126.09 153.441 125.326 153.591 124.449 153.742C124.372 152.537 124.449 151.237 124.639 150.484C125.536 148.035 127.768 145.116 128.97 144.136C127.368 145.473 120.9 145.379 119.336 144.004C120.499 145.021 122.808 148.148 123.476 150.465C123.686 151.388 123.628 153.121 123.609 153.723C122.713 153.554 121.93 153.384 121.339 152.706C120.671 151.275 119.049 150.107 117.351 150.088C114.985 150.05 113.039 151.934 113.001 154.27C112.944 156.586 114.852 158.507 117.218 158.545Z" fill="#EAEAEA"/>
<path fill-rule="evenodd" clip-rule="evenodd" d="M117.218 196.545C118.916 196.564 120.404 195.603 121.11 194.191C121.663 193.55 122.503 193.287 123.361 193.117C123.151 194.134 122.903 195.264 122.083 195.924C120.633 196.583 119.622 198.033 119.584 199.709C119.545 202.045 121.453 203.966 123.819 204.004C126.185 204.042 128.131 202.158 128.169 199.822C128.188 198.146 127.215 196.677 125.784 195.98C125.097 195.471 124.792 194.228 124.601 193.155C125.441 193.343 126.28 193.644 126.815 194.285C127.482 195.716 128.951 196.733 130.649 196.752C133.015 196.79 134.961 194.906 134.999 192.571C135.038 190.235 133.13 188.314 130.764 188.276C129.066 188.258 127.406 189.369 126.7 190.8C126.09 191.441 125.326 191.591 124.449 191.742C124.372 190.537 124.449 189.237 124.639 188.484C125.536 186.035 127.768 183.116 128.97 182.136C127.368 183.473 120.9 183.379 119.336 182.004C120.499 183.021 122.808 186.148 123.476 188.465C123.686 189.388 123.628 191.121 123.609 191.723C122.713 191.554 121.93 191.384 121.339 190.706C120.671 189.275 119.049 188.107 117.351 188.088C114.985 188.05 113.039 189.934 113.001 192.27C112.944 194.586 114.852 196.507 117.218 196.545Z" fill="#EAEAEA"/>
<path fill-rule="evenodd" clip-rule="evenodd" d="M69.2177 196.545C70.9158 196.564 72.4039 195.603 73.1099 194.191C73.6632 193.55 74.5026 193.287 75.3612 193.117C75.1513 194.134 74.9033 195.264 74.0829 195.924C72.6329 196.583 71.6217 198.033 71.5835 199.709C71.5454 202.045 73.4533 203.966 75.8191 204.004C78.1849 204.042 80.131 202.158 80.1691 199.822C80.1882 198.146 79.2152 196.677 77.7843 195.98C77.0974 195.471 76.7921 194.228 76.6013 193.155C77.4408 193.343 78.2803 193.644 78.8145 194.285C79.4823 195.716 80.9514 196.733 82.6494 196.752C85.0152 196.79 86.9613 194.906 86.9994 192.571C87.0376 190.235 85.1297 188.314 82.7639 188.276C81.0659 188.258 79.406 189.369 78.7 190.8C78.0895 191.441 77.3263 191.591 76.4487 191.742C76.3724 190.537 76.4487 189.237 76.6395 188.484C77.5362 186.035 79.7685 183.116 80.9705 182.136C79.3678 183.473 72.9 183.379 71.3355 182.004C72.4993 183.021 74.8079 186.148 75.4757 188.465C75.6856 189.388 75.6283 191.121 75.6092 191.723C74.7125 191.554 73.9303 191.384 73.3388 190.706C72.6711 189.275 71.0493 188.107 69.3513 188.088C66.9855 188.05 65.0394 189.934 65.0013 192.27C64.944 194.586 66.8519 196.507 69.2177 196.545Z" fill="#EAEAEA"/>
</g>
<defs>
<linearGradient id="paint0_linear_2709_120203" x1="0" y1="278.004" x2="200" y2="0.00440461" gradientUnits="userSpaceOnUse">
<stop stop-color="#101010"/>
<stop offset="0.712851" stop-color="#201F1F"/>
<stop offset="1" stop-color="#101010"/>
</linearGradient>
<clipPath id="clip0_2709_120203">
<rect width="200" height="278" fill="white"/>
</clipPath>
</defs>
</svg>
