<svg width="30" height="30" viewBox="0 0 30 30" fill="none" xmlns="http://www.w3.org/2000/svg">
<rect width="30" height="30" rx="15" fill="url(#paint0_linear_3866_42780)"/>
<path d="M16.9507 1.88269C16.8545 1.97888 16.7266 2.03186 16.5903 2.0321L13.7686 2.03687C13.4868 2.03735 13.2573 1.80847 13.2563 1.52698L13.2529 0.136475L13.2534 0.11438L13.2539 0.100586C10.48 0.422119 7.9375 1.50049 5.83643 3.12366L5.86328 3.14856L6.84863 4.12915C6.89355 4.17395 6.9292 4.22571 6.95459 4.28198C6.98389 4.34692 6.99951 4.41772 6.99951 4.49097C6.99951 4.53967 6.99268 4.58728 6.97949 4.63281C6.95605 4.71448 6.91211 4.78931 6.85059 4.8512L4.8584 6.84998C4.771 6.9375 4.65967 6.98682 4.54541 6.9978C4.51562 7.00061 4.48535 7.00085 4.45508 6.99841C4.41016 6.99487 4.36572 6.98535 4.32324 6.97009C4.28564 6.95654 4.24902 6.9386 4.21484 6.91602C4.18652 6.89758 4.16016 6.8761 4.13574 6.85156L3.1499 5.87097C3.13965 5.86096 3.13037 5.85046 3.12109 5.83972C1.56689 7.85217 0.512695 10.2705 0.144531 12.9086L1.52051 12.9049C1.65723 12.9045 1.78613 12.9575 1.88281 13.0543C1.979 13.1505 2.03174 13.2784 2.03223 13.4143L2.03662 16.2362C2.03711 16.5179 1.80859 16.7477 1.52686 16.7484L0.136719 16.7521L0.101074 16.751C0.42334 19.5227 1.50098 22.0638 3.12305 24.1631L3.14795 24.1364L4.12842 23.1506C4.18994 23.0889 4.26416 23.0448 4.34521 23.0208L4.3833 23.0112L4.40723 23.0067L4.44971 23.0016C4.46289 23.0005 4.47656 23 4.49023 23C4.54932 23 4.60645 23.0099 4.66016 23.0288C4.73096 23.0537 4.7959 23.0944 4.85059 23.1489L6.84912 25.141C7.04883 25.3398 7.04932 25.6641 6.85107 25.8638L5.87012 26.8495C5.85986 26.8596 5.84961 26.8693 5.83887 26.8784C7.91895 28.4847 10.2788 29.5343 13.02 29.8672C13.02 29.8672 13.02 29.6688 13.02 29.527L13.0166 28.1365C13.0161 27.9996 13.0693 27.871 13.166 27.7742C13.2622 27.678 13.3896 27.6249 13.5259 27.6248L16.3477 27.62C16.6294 27.6195 16.8594 27.8484 16.8599 28.1299L16.8638 29.5204C16.8643 29.6685 16.8638 29.8828 16.8638 29.8828C18 29.8828 22.182 28.8324 24.1631 26.8768L24.1357 26.8516L23.1499 25.871C23.0527 25.7744 22.9995 25.6459 22.9995 25.5092C22.9995 25.4572 23.0073 25.4062 23.022 25.3578C23.0332 25.3217 23.0483 25.287 23.0674 25.2543C23.0894 25.2162 23.1162 25.1808 23.1484 25.1489L25.1401 23.1501C25.3394 22.9507 25.6636 22.95 25.8633 23.1486L26.8486 24.1292L26.8613 24.1423L26.8784 24.1613C28.9637 22.2192 30 17.5 29.8945 16.7484C29.8945 16.7484 29.6846 16.7479 29.5264 16.7484L28.5117 16.7521C28.4561 16.7522 28.4014 16.7435 28.3501 16.7266C28.2749 16.7019 28.2065 16.6599 28.1494 16.6027C28.105 16.5585 28.0698 16.5076 28.0449 16.4521C28.0386 16.4384 28.0332 16.4242 28.0283 16.4099C28.022 16.3927 28.0171 16.3751 28.0132 16.3573L28.0059 16.3201C28.0034 16.3054 28.002 16.2905 28.001 16.2755L28 16.2427L27.9956 13.4207C27.9951 13.139 28.2236 12.9093 28.5054 12.9084L29.5195 12.9048C29.6528 12.9044 29.8477 12.9048 29.8477 12.9048C29.8477 11.6094 28.7455 7.81374 26.8765 5.83618L26.8511 5.86377L25.8701 6.84949C25.7739 6.94653 25.645 7 25.5083 7C25.3726 7 25.2446 6.94714 25.1479 6.8512L23.1494 4.85913C22.9497 4.66028 22.9492 4.33606 23.1479 4.13635L24.1284 3.15063L24.1445 3.13525L24.1606 3.12109C22.1494 1.56775 19.7324 0.513916 17.0962 0.145264L17.1001 1.52039C17.1001 1.578 17.0908 1.63403 17.0728 1.68701C17.0483 1.75989 17.0068 1.82666 16.9507 1.88269Z" fill="#090909"/>
<path d="M21.4662 12.0638C22.5357 12.0072 23.2309 11.7909 24.0487 11.3415C25.124 10.751 25.5803 8.89765 25.5803 8.89765C22.9399 10.6718 19.3301 11.0471 19.3301 11.0471C18.2546 12.7711 17.2635 13.7803 16.4344 14.3658C16.298 14.2865 16.1756 14.1856 16.0719 14.0669C15.8152 13.7285 15.7854 13.3845 15.7936 13.3262C15.8018 13.2679 15.8621 13.1734 15.999 13.1317C16.0455 13.1153 16.0952 13.1101 16.1441 13.1166C16.193 13.1231 16.2396 13.1412 16.28 13.1693C16.24 12.9304 16.2177 12.8161 16.0774 12.6977C15.947 12.5882 15.7097 12.5715 15.7097 12.5715C15.5906 12.4754 15.4476 12.4132 15.2959 12.3914C14.8974 12.3357 14.6342 12.507 14.4473 12.681C14.1977 12.9134 14.1782 13.3463 13.9985 13.8434C13.9178 14.0629 13.7607 14.2462 13.5558 14.36C12.7288 13.7732 11.7415 12.765 10.6697 11.0478C10.6697 11.0478 7.05992 10.6725 4.41992 8.89833C4.41992 8.89833 4.8759 10.7516 5.95113 11.3422C6.76929 11.7916 7.46454 12.0079 8.53362 12.0645C8.53362 12.0645 7.0921 12.1877 5.43559 11.392C5.43559 11.392 6.36671 12.8547 7.24306 13.3323C8.11941 13.81 9.21381 13.9987 9.9926 13.9601C9.9926 13.9601 8.63803 14.2853 7.51247 13.81C7.51247 13.81 8.69485 15.3617 10.8131 15.3112C10.8131 15.3112 10.1261 15.4842 9.48562 15.3699C9.48562 15.3699 10.4602 16.1932 11.2657 16.3286C11.2657 16.3286 11.5909 16.3931 12.2632 16.3204C12.056 16.4486 11.818 16.5187 11.5741 16.5234C11.5741 16.5234 12.2622 16.9328 12.7743 16.9775C12.9101 16.9865 13.0464 16.981 13.181 16.9612C13.0819 17.0211 12.9724 17.0618 12.8582 17.0813C12.8582 17.0813 13.5411 17.3238 13.9879 17.1123C13.4918 18.6111 13.1262 19.0605 13.1262 19.0605L13.2577 19.2167C13.2713 19.2331 13.2885 19.2461 13.308 19.2547C13.3276 19.2633 13.3488 19.2672 13.3701 19.2662C13.3915 19.2651 13.4122 19.2591 13.4308 19.2486C13.4494 19.2381 13.4652 19.2235 13.4771 19.2058L13.7715 18.8032L13.4268 19.4265L13.5716 19.5709C13.5866 19.586 13.6049 19.5975 13.6252 19.6043C13.6454 19.6112 13.667 19.6132 13.6881 19.6102C13.7093 19.6073 13.7294 19.5994 13.747 19.5873C13.7646 19.5752 13.7791 19.5592 13.7893 19.5405L13.982 19.2208L13.726 19.8059L13.8841 19.9359C13.9005 19.9496 13.9199 19.9593 13.9407 19.9642C13.9616 19.9691 13.9832 19.969 14.004 19.964C14.0248 19.9591 14.0442 19.9493 14.0605 19.9355C14.0768 19.9218 14.0897 19.9044 14.0981 19.8848L14.2165 19.6374L14.071 20.1048L14.2422 20.2164C14.26 20.2279 14.2802 20.2351 14.3012 20.2375C14.3223 20.2399 14.3436 20.2374 14.3635 20.2302C14.3834 20.2229 14.4013 20.2112 14.4159 20.1959C14.4305 20.1806 14.4414 20.1622 14.4476 20.142L14.5845 19.7483L14.4839 20.2805C14.4765 20.32 14.4807 20.3609 14.4961 20.398C14.5114 20.4352 14.5373 20.4672 14.5705 20.49L14.8697 20.649L14.9854 19.8984L15.1007 20.649L15.4003 20.49C15.4335 20.4672 15.4593 20.4352 15.4747 20.398C15.4901 20.3609 15.4943 20.32 15.4869 20.2805L15.39 19.7483L15.5269 20.142C15.5332 20.1622 15.544 20.1806 15.5586 20.1959C15.5732 20.2112 15.5912 20.2229 15.6111 20.2302C15.631 20.2374 15.6523 20.2399 15.6733 20.2375C15.6944 20.2351 15.7146 20.2279 15.7323 20.2164L15.9035 20.1048L15.758 19.6374L15.8764 19.8848C15.8848 19.9044 15.8977 19.9218 15.914 19.9355C15.9304 19.9493 15.9497 19.9591 15.9705 19.964C15.9913 19.969 16.013 19.9691 16.0338 19.9642C16.0546 19.9593 16.074 19.9496 16.0904 19.9359L16.2486 19.8059L15.9922 19.2208L16.1852 19.5405C16.1955 19.5592 16.21 19.5752 16.2275 19.5873C16.2451 19.5994 16.2653 19.6073 16.2864 19.6102C16.3076 19.6132 16.3291 19.6112 16.3494 19.6043C16.3696 19.5975 16.3879 19.586 16.4029 19.5709L16.5477 19.4265L16.2003 18.8035L16.4947 19.2061C16.5065 19.2239 16.5224 19.2386 16.541 19.2491C16.5596 19.2597 16.5804 19.2657 16.6018 19.2668C16.6232 19.2678 16.6445 19.2639 16.6641 19.2552C16.6836 19.2466 16.7009 19.2335 16.7145 19.2171L16.8459 19.0608C16.8459 19.0608 16.4789 18.6101 15.9815 17.1045V17.1007C16.4266 17.3361 17.1396 17.083 17.1396 17.083C17.0255 17.0635 16.9161 17.0228 16.8172 16.9629C16.9516 16.9827 17.0878 16.9882 17.2235 16.9792C17.737 16.9339 18.4237 16.5251 18.4237 16.5251C18.1798 16.5204 17.9418 16.4503 17.7346 16.3221C18.4069 16.3948 18.7321 16.3303 18.7321 16.3303C19.5393 16.1938 20.5122 15.3716 20.5122 15.3716C19.8717 15.4859 19.1847 15.3129 19.1847 15.3129C21.303 15.3624 22.4857 13.8117 22.4857 13.8117C21.3601 14.287 20.0056 13.9618 20.0056 13.9618C20.784 14.0004 21.8787 13.8114 22.7547 13.334C23.6308 12.8567 24.5643 11.3917 24.5643 11.3917C22.9078 12.187 21.4662 12.0638 21.4662 12.0638Z" fill="url(#paint1_linear_3866_42780)"/>
<path d="M22.8965 14.1188C22.8687 14.1553 22.5062 14.621 21.8394 15.0567C21.8229 18.8018 18.7612 21.8431 15.0001 21.8431C11.239 21.8431 8.17692 18.8015 8.16049 15.0567C7.49364 14.621 7.13146 14.1553 7.10339 14.1188L6.84836 13.7837C6.78599 14.195 6.75475 14.6104 6.75491 15.0263C6.76894 17.1966 7.64379 19.2732 9.18851 20.8029C10.7332 22.3325 12.8224 23.1911 14.9999 23.1911C17.1775 23.1911 19.2666 22.3325 20.8113 20.8029C22.3561 19.2732 23.2309 17.1966 23.245 15.0263C23.2451 14.6104 23.2139 14.195 23.1518 13.7837L22.8965 14.1188Z" fill="url(#paint2_linear_3866_42780)"/>
<path d="M8.64624 10.1368C9.15596 10.2675 9.60988 10.3596 9.96247 10.4224C10.6021 9.72499 11.3805 9.16802 12.2481 8.78696C13.1156 8.40589 14.0532 8.20909 15.0013 8.20909C15.9493 8.20909 16.887 8.40589 17.7545 8.78696C18.6221 9.16802 19.4005 9.72499 20.0401 10.4224C20.3927 10.3596 20.8466 10.2675 21.3564 10.1368C21.43 10.1177 21.506 10.0976 21.5837 10.0764C21.3527 9.77267 21.101 9.48506 20.8305 9.21563C20.065 8.45252 19.1561 7.84717 18.1558 7.43417C17.1555 7.02116 16.0834 6.80859 15.0006 6.80859C13.9179 6.80859 12.8457 7.02116 11.8454 7.43417C10.8451 7.84717 9.93624 8.45252 9.17068 9.21563C8.90018 9.48506 8.64856 9.77267 8.41757 10.0764C8.49528 10.0976 8.57127 10.1177 8.64624 10.1368Z" fill="url(#paint3_linear_3866_42780)"/>
<defs>
<linearGradient id="paint0_linear_3866_42780" x1="0" y1="30.5505" x2="30" y2="30.5505" gradientUnits="userSpaceOnUse">
<stop stop-color="#F8EEB8"/>
<stop offset="0.5625" stop-color="#DBB370"/>
<stop offset="1" stop-color="#8E5B2D"/>
</linearGradient>
<linearGradient id="paint1_linear_3866_42780" x1="4.41992" y1="23.4917" x2="25.5803" y2="23.4917" gradientUnits="userSpaceOnUse">
<stop stop-color="#F8EEB8"/>
<stop offset="0.5625" stop-color="#DBB370"/>
<stop offset="1" stop-color="#8E5B2D"/>
</linearGradient>
<linearGradient id="paint2_linear_3866_42780" x1="4.41992" y1="23.4917" x2="25.5803" y2="23.4917" gradientUnits="userSpaceOnUse">
<stop stop-color="#F8EEB8"/>
<stop offset="0.5625" stop-color="#DBB370"/>
<stop offset="1" stop-color="#8E5B2D"/>
</linearGradient>
<linearGradient id="paint3_linear_3866_42780" x1="4.41992" y1="23.4917" x2="25.5803" y2="23.4917" gradientUnits="userSpaceOnUse">
<stop stop-color="#F8EEB8"/>
<stop offset="0.5625" stop-color="#DBB370"/>
<stop offset="1" stop-color="#8E5B2D"/>
</linearGradient>
</defs>
</svg>
