<svg width="24" height="24" viewBox="0 0 24 24" fill="none" xmlns="http://www.w3.org/2000/svg">
<rect width="24" height="24" rx="12" fill="#080808"/>
<path d="M17.1732 9.65108C18.0287 9.60578 18.5849 9.43273 19.2392 9.07326C20.0994 8.60079 20.4644 7.11815 20.4644 7.11815C18.3522 8.53746 15.4643 8.83771 15.4643 8.83771C14.6038 10.2169 13.811 11.0243 13.1477 11.4927C13.0386 11.4293 12.9407 11.3485 12.8577 11.2536C12.6523 10.9828 12.6285 10.7077 12.6351 10.661C12.6417 10.6143 12.6899 10.5387 12.7994 10.5054C12.8366 10.4922 12.8764 10.4881 12.9155 10.4933C12.9546 10.4985 12.9919 10.513 13.0242 10.5354C12.9922 10.3444 12.9744 10.2529 12.8621 10.1582C12.7578 10.0706 12.568 10.0572 12.568 10.0572C12.4727 9.98036 12.3583 9.93057 12.2369 9.91311C11.9181 9.86862 11.7075 10.0056 11.558 10.1448C11.3584 10.3307 11.3427 10.6771 11.199 11.0748C11.1344 11.2504 11.0088 11.397 10.8449 11.488C10.1832 11.0185 9.39342 10.212 8.53597 8.83825C8.53597 8.83825 5.64813 8.53801 3.53613 7.11869C3.53613 7.11869 3.90091 8.60133 4.7611 9.0738C5.41562 9.43327 5.97183 9.60632 6.82709 9.65163C6.82709 9.65163 5.67387 9.75016 4.34867 9.11365C4.34867 9.11365 5.09357 10.2838 5.79464 10.6659C6.49572 11.048 7.37125 11.199 7.99428 11.1681C7.99428 11.1681 6.91062 11.4282 6.01017 11.048C6.01017 11.048 6.95608 12.2894 8.65071 12.249C8.65071 12.249 8.10108 12.3874 7.58869 12.2959C7.58869 12.2959 8.36837 12.9545 9.01275 13.0629C9.01275 13.0629 9.27292 13.1145 9.81078 13.0564C9.64501 13.1589 9.45457 13.215 9.2595 13.2188C9.2595 13.2188 9.80996 13.5463 10.2197 13.5821C10.3283 13.5892 10.4373 13.5848 10.545 13.5689C10.4657 13.6169 10.3781 13.6495 10.2867 13.665C10.2867 13.665 10.8331 13.8591 11.1905 13.6899C10.7937 14.8889 10.5012 15.2484 10.5012 15.2484L10.6063 15.3734C10.6172 15.3865 10.631 15.3969 10.6466 15.4038C10.6622 15.4107 10.6793 15.4138 10.6963 15.413C10.7134 15.4121 10.73 15.4073 10.7448 15.3989C10.7597 15.3905 10.7724 15.3788 10.7819 15.3647L11.0174 15.0426L10.7416 15.5413L10.8575 15.6567C10.8695 15.6688 10.8841 15.678 10.9003 15.6835C10.9165 15.689 10.9338 15.6906 10.9507 15.6882C10.9676 15.6859 10.9837 15.6796 10.9978 15.6699C11.0119 15.6602 11.0234 15.6474 11.0316 15.6324L11.1858 15.3767L10.981 15.8448L11.1075 15.9488C11.1206 15.9597 11.1361 15.9675 11.1528 15.9714C11.1694 15.9753 11.1868 15.9752 11.2034 15.9713C11.2201 15.9673 11.2355 15.9595 11.2486 15.9484C11.2617 15.9374 11.272 15.9235 11.2787 15.9078L11.3734 15.7099L11.257 16.0839L11.394 16.1731C11.4082 16.1823 11.4243 16.1881 11.4412 16.19C11.458 16.1919 11.475 16.1899 11.491 16.1841C11.5069 16.1784 11.5213 16.169 11.5329 16.1568C11.5446 16.1445 11.5533 16.1298 11.5583 16.1136L11.6678 15.7986L11.5873 16.2244C11.5814 16.2561 11.5848 16.2887 11.5971 16.3185C11.6094 16.3482 11.63 16.3738 11.6566 16.392L11.8959 16.5192L11.9885 15.9187L12.0808 16.5192L12.3204 16.392C12.347 16.3738 12.3677 16.3482 12.3799 16.3185C12.3922 16.2887 12.3956 16.2561 12.3897 16.2244L12.3122 15.7986L12.4217 16.1136C12.4267 16.1298 12.4354 16.1445 12.4471 16.1568C12.4588 16.169 12.4731 16.1784 12.489 16.1841C12.505 16.1899 12.522 16.1919 12.5389 16.19C12.5557 16.1881 12.5718 16.1823 12.5861 16.1731L12.723 16.0839L12.6066 15.7099L12.7014 15.9078C12.7081 15.9235 12.7183 15.9374 12.7314 15.9484C12.7445 15.9595 12.76 15.9673 12.7766 15.9713C12.7932 15.9752 12.8106 15.9753 12.8272 15.9714C12.8439 15.9675 12.8594 15.9597 12.8725 15.9488L12.999 15.8448L12.7939 15.3767L12.9484 15.6324C12.9566 15.6474 12.9682 15.6602 12.9822 15.6699C12.9963 15.6796 13.0124 15.6859 13.0293 15.6882C13.0463 15.6906 13.0635 15.689 13.0797 15.6835C13.0959 15.678 13.1106 15.6688 13.1226 15.6567L13.2384 15.5413L12.9604 15.0429L13.1959 15.3649C13.2054 15.3791 13.2181 15.3909 13.233 15.3993C13.2479 15.4078 13.2646 15.4126 13.2816 15.4134C13.2987 15.4143 13.3158 15.4111 13.3314 15.4042C13.3471 15.3973 13.3609 15.3869 13.3718 15.3737L13.4769 15.2487C13.4769 15.2487 13.1833 14.8881 12.7854 13.6836V13.6806C13.1414 13.8689 13.7119 13.6664 13.7119 13.6664C13.6206 13.6508 13.5331 13.6182 13.4539 13.5703C13.5615 13.5862 13.6705 13.5906 13.779 13.5834C14.1898 13.5471 14.7391 13.2201 14.7391 13.2201C14.5441 13.2164 14.3536 13.1603 14.1879 13.0577C14.7257 13.1159 14.9859 13.0643 14.9859 13.0643C15.6316 12.9551 16.4099 12.2973 16.4099 12.2973C15.8976 12.3887 15.3479 12.2503 15.3479 12.2503C17.0426 12.2899 17.9887 11.0494 17.9887 11.0494C17.0883 11.4296 16.0046 11.1695 16.0046 11.1695C16.6274 11.2003 17.5032 11.0491 18.204 10.6673C18.9048 10.2854 19.6516 9.11338 19.6516 9.11338C18.3264 9.74962 17.1732 9.65108 17.1732 9.65108Z" fill="url(#paint0_linear_4863_16233)"/>
<path d="M18.3174 11.295C18.2952 11.3242 18.0052 11.6968 17.4717 12.0454C17.4586 15.0415 15.0092 17.4745 12.0003 17.4745C8.99139 17.4745 6.54173 15.0412 6.52858 12.0454C5.99511 11.6968 5.70537 11.3242 5.68291 11.295L5.47889 11.027C5.42899 11.356 5.40399 11.6883 5.40412 12.0211C5.41535 13.7573 6.11523 15.4186 7.35101 16.6423C8.58678 17.8661 10.2581 18.5529 12.0001 18.5529C13.7422 18.5529 15.4135 17.8661 16.6493 16.6423C17.8851 15.4186 18.5849 13.7573 18.5962 12.0211C18.5962 11.6883 18.5713 11.356 18.5217 11.027L18.3174 11.295Z" fill="url(#paint1_linear_4863_16233)"/>
<path d="M6.91719 8.10949C7.32496 8.21402 7.6881 8.28772 7.97017 8.33794C8.4819 7.78002 9.10462 7.33444 9.79864 7.02959C10.4927 6.72474 11.2428 6.5673 12.0012 6.5673C12.7597 6.5673 13.5098 6.72474 14.2038 7.02959C14.8979 7.33444 15.5206 7.78002 16.0323 8.33794C16.3144 8.28772 16.6775 8.21402 17.0853 8.10949C17.1442 8.0942 17.205 8.0781 17.2671 8.06117C17.0823 7.81816 16.881 7.58807 16.6646 7.37253C16.0522 6.76204 15.3251 6.27776 14.5248 5.94736C13.7246 5.61696 12.8669 5.4469 12.0007 5.4469C11.1345 5.4469 10.2768 5.61696 9.47654 5.94736C8.67629 6.27776 7.94919 6.76204 7.33674 7.37253C7.12034 7.58807 6.91904 7.81816 6.73425 8.06117C6.79642 8.0781 6.85721 8.0942 6.91719 8.10949Z" fill="url(#paint2_linear_4863_16233)"/>
<path d="M23.9183 13.4075C23.9722 12.9458 24 12.4761 24 12C24 11.4271 23.9598 10.8635 23.8822 10.312C23.8273 10.312 23.7524 10.3119 23.6927 10.3121L22.8759 10.315C22.649 10.3157 22.465 10.5008 22.4654 10.7276L22.4689 13.0003L22.4697 13.0268C22.4705 13.0389 22.4717 13.0509 22.4736 13.0627L22.4795 13.0926C22.4827 13.107 22.4866 13.1212 22.4917 13.135C22.4957 13.1465 22.5 13.1579 22.5051 13.169C22.5251 13.2137 22.5535 13.2547 22.5892 13.2902C22.6353 13.3364 22.6903 13.3702 22.7509 13.39C22.7922 13.4037 22.8362 13.4107 22.881 13.4106L23.6982 13.4076C23.7711 13.4074 23.8576 13.4074 23.9183 13.4075Z" fill="url(#paint3_linear_4863_16233)"/>
<path d="M21.5096 19.3199L20.7481 18.5621C20.5872 18.4022 20.3261 18.4027 20.1657 18.5634L18.5616 20.1731C18.5357 20.1988 18.514 20.2273 18.4963 20.258C18.481 20.2843 18.4688 20.3123 18.4598 20.3413C18.448 20.3804 18.4417 20.4214 18.4417 20.4633C18.4417 20.5734 18.4845 20.6769 18.5628 20.7547L19.321 21.5088C20.1412 20.8764 20.8772 20.1402 21.5096 19.3199Z" fill="url(#paint4_linear_4863_16233)"/>
<path d="M13.5003 23.9071C13.5004 23.8463 13.5004 23.7615 13.5001 23.6938L13.497 22.5739C13.4966 22.3472 13.3114 22.1629 13.0845 22.1633L10.8119 22.1671C10.7022 22.1672 10.5996 22.21 10.5221 22.2874C10.4442 22.3654 10.4014 22.469 10.4018 22.5792L10.4045 23.6991V23.8948C10.9265 23.9642 11.4591 24 12 24C12.5081 24 13.0088 23.9684 13.5003 23.9071Z" fill="url(#paint5_linear_4863_16233)"/>
<path d="M4.67956 21.5092L5.43624 20.7488C5.59589 20.588 5.5955 20.3269 5.43466 20.1667L3.82511 18.5624C3.78106 18.5185 3.72876 18.4857 3.67174 18.4657C3.62848 18.4504 3.58247 18.4425 3.53489 18.4425C3.52388 18.4425 3.51287 18.4429 3.50225 18.4437L3.46804 18.4479L3.44877 18.4515L3.4181 18.4592C3.35282 18.4785 3.29304 18.514 3.2435 18.5638L2.49082 19.3205C3.1232 20.1407 3.85933 20.8768 4.67956 21.5092Z" fill="url(#paint6_linear_4863_16233)"/>
<path d="M0.0820158 13.4104C0.0278509 12.9478 0 12.4772 0 12C0 11.4281 0.0400089 10.8655 0.117381 10.3149L1.14317 10.3122C1.25328 10.3119 1.35709 10.3546 1.43496 10.4325C1.51243 10.51 1.5549 10.613 1.55529 10.7224L1.55883 12.9951C1.55922 13.222 1.37518 13.407 1.14828 13.4076L0.0820158 13.4104Z" fill="url(#paint7_linear_4863_16233)"/>
<path d="M2.48951 4.68119L3.24939 5.43702C3.26906 5.45678 3.29029 5.47409 3.3131 5.48893C3.34063 5.50712 3.37012 5.52157 3.4004 5.53248C3.43461 5.54477 3.4704 5.55244 3.50658 5.55529C3.53096 5.55726 3.55534 5.55706 3.57933 5.5548C3.67135 5.54595 3.76101 5.50623 3.8314 5.43574L5.43584 3.82599C5.48539 3.77615 5.52078 3.71588 5.53966 3.65011C5.55028 3.61344 5.55578 3.5751 5.55578 3.53587C5.55578 3.47689 5.5432 3.41987 5.5196 3.36756C5.49916 3.32224 5.47045 3.28056 5.43427 3.24448L4.67806 2.49192C3.85787 3.12447 3.1218 3.86078 2.48951 4.68119Z" fill="url(#paint8_linear_4863_16233)"/>
<path d="M10.5922 0.0817015L10.5948 1.14877C10.5956 1.37548 10.7805 1.55981 11.0074 1.55942L13.2799 1.55558C13.3896 1.55539 13.4927 1.51272 13.5701 1.43525C13.6154 1.39013 13.6488 1.33635 13.6685 1.27766C13.683 1.23499 13.6905 1.18986 13.6905 1.14346L13.6876 0.117734C13.1362 0.0401308 12.5728 0 12 0C11.5237 0 11.054 0.0277432 10.5922 0.0817015Z" fill="url(#paint9_linear_4863_16233)"/>
<path d="M19.3183 2.48914L18.5612 3.25028C18.4012 3.41112 18.4016 3.67223 18.5624 3.83238L20.172 5.43673C20.2498 5.514 20.3529 5.55657 20.4622 5.55657C20.5723 5.55657 20.6761 5.51351 20.7536 5.43535L21.5077 4.67758C20.8751 3.85742 20.1387 3.12139 19.3183 2.48914Z" fill="url(#paint10_linear_4863_16233)"/>
<defs>
<linearGradient id="paint0_linear_4863_16233" x1="3.53613" y1="18.7934" x2="20.4644" y2="18.7934" gradientUnits="userSpaceOnUse">
<stop stop-color="#F8EEB8"/>
<stop offset="0.5625" stop-color="#DBB370"/>
<stop offset="1" stop-color="#8E5B2D"/>
</linearGradient>
<linearGradient id="paint1_linear_4863_16233" x1="3.53613" y1="18.7934" x2="20.4644" y2="18.7934" gradientUnits="userSpaceOnUse">
<stop stop-color="#F8EEB8"/>
<stop offset="0.5625" stop-color="#DBB370"/>
<stop offset="1" stop-color="#8E5B2D"/>
</linearGradient>
<linearGradient id="paint2_linear_4863_16233" x1="3.53613" y1="18.7934" x2="20.4644" y2="18.7934" gradientUnits="userSpaceOnUse">
<stop stop-color="#F8EEB8"/>
<stop offset="0.5625" stop-color="#DBB370"/>
<stop offset="1" stop-color="#8E5B2D"/>
</linearGradient>
<linearGradient id="paint3_linear_4863_16233" x1="0" y1="24.4403" x2="24" y2="24.4403" gradientUnits="userSpaceOnUse">
<stop stop-color="#F8EEB8"/>
<stop offset="0.5625" stop-color="#DBB370"/>
<stop offset="1" stop-color="#8E5B2D"/>
</linearGradient>
<linearGradient id="paint4_linear_4863_16233" x1="0" y1="24.4403" x2="24" y2="24.4403" gradientUnits="userSpaceOnUse">
<stop stop-color="#F8EEB8"/>
<stop offset="0.5625" stop-color="#DBB370"/>
<stop offset="1" stop-color="#8E5B2D"/>
</linearGradient>
<linearGradient id="paint5_linear_4863_16233" x1="0" y1="24.4403" x2="24" y2="24.4403" gradientUnits="userSpaceOnUse">
<stop stop-color="#F8EEB8"/>
<stop offset="0.5625" stop-color="#DBB370"/>
<stop offset="1" stop-color="#8E5B2D"/>
</linearGradient>
<linearGradient id="paint6_linear_4863_16233" x1="0" y1="24.4403" x2="24" y2="24.4403" gradientUnits="userSpaceOnUse">
<stop stop-color="#F8EEB8"/>
<stop offset="0.5625" stop-color="#DBB370"/>
<stop offset="1" stop-color="#8E5B2D"/>
</linearGradient>
<linearGradient id="paint7_linear_4863_16233" x1="0" y1="24.4403" x2="24" y2="24.4403" gradientUnits="userSpaceOnUse">
<stop stop-color="#F8EEB8"/>
<stop offset="0.5625" stop-color="#DBB370"/>
<stop offset="1" stop-color="#8E5B2D"/>
</linearGradient>
<linearGradient id="paint8_linear_4863_16233" x1="0" y1="24.4403" x2="24" y2="24.4403" gradientUnits="userSpaceOnUse">
<stop stop-color="#F8EEB8"/>
<stop offset="0.5625" stop-color="#DBB370"/>
<stop offset="1" stop-color="#8E5B2D"/>
</linearGradient>
<linearGradient id="paint9_linear_4863_16233" x1="0" y1="24.4403" x2="24" y2="24.4403" gradientUnits="userSpaceOnUse">
<stop stop-color="#F8EEB8"/>
<stop offset="0.5625" stop-color="#DBB370"/>
<stop offset="1" stop-color="#8E5B2D"/>
</linearGradient>
<linearGradient id="paint10_linear_4863_16233" x1="0" y1="24.4403" x2="24" y2="24.4403" gradientUnits="userSpaceOnUse">
<stop stop-color="#F8EEB8"/>
<stop offset="0.5625" stop-color="#DBB370"/>
<stop offset="1" stop-color="#8E5B2D"/>
</linearGradient>
</defs>
</svg>
