<svg width="30" height="30" viewBox="0 0 30 30" fill="none" xmlns="http://www.w3.org/2000/svg">
<circle cx="15" cy="15" r="15" fill="#0F0F0F"/>
<circle cx="15" cy="15" r="15" fill="#B78A51"/>
<path d="M21.4661 12.0638C22.5355 12.0072 23.2308 11.7909 24.0486 11.3415C25.1238 10.751 25.5802 8.89765 25.5802 8.89765C22.9398 10.6718 19.33 11.0471 19.33 11.0471C18.2544 12.7711 17.2634 13.7803 16.4343 14.3658C16.2979 14.2865 16.1755 14.1856 16.0718 14.0669C15.8151 13.7285 15.7853 13.3845 15.7935 13.3262C15.8017 13.2679 15.8619 13.1734 15.9989 13.1317C16.0453 13.1153 16.0951 13.1101 16.144 13.1166C16.1928 13.1231 16.2394 13.1412 16.2799 13.1693C16.2399 12.9304 16.2176 12.8161 16.0773 12.6977C15.9468 12.5882 15.7096 12.5715 15.7096 12.5715C15.5904 12.4754 15.4475 12.4132 15.2957 12.3914C14.8973 12.3357 14.634 12.507 14.4471 12.681C14.1976 12.9134 14.1781 13.3463 13.9983 13.8434C13.9177 14.0629 13.7606 14.2462 13.5557 14.36C12.7287 13.7732 11.7414 12.765 10.6696 11.0478C10.6696 11.0478 7.0598 10.6725 4.4198 8.89833C4.4198 8.89833 4.87577 10.7516 5.95101 11.3422C6.76916 11.7916 7.46442 12.0079 8.5335 12.0645C8.5335 12.0645 7.09197 12.1877 5.43547 11.392C5.43547 11.392 6.36659 12.8547 7.24294 13.3323C8.11929 13.81 9.21369 13.9987 9.99248 13.9601C9.99248 13.9601 8.63791 14.2853 7.51235 13.81C7.51235 13.81 8.69473 15.3617 10.813 15.3112C10.813 15.3112 10.126 15.4842 9.4855 15.3699C9.4855 15.3699 10.4601 16.1932 11.2656 16.3286C11.2656 16.3286 11.5908 16.3931 12.2631 16.3204C12.0559 16.4486 11.8178 16.5187 11.574 16.5234C11.574 16.5234 12.2621 16.9328 12.7742 16.9775C12.91 16.9865 13.0463 16.981 13.1809 16.9612C13.0818 17.0211 12.9723 17.0618 12.8581 17.0813C12.8581 17.0813 13.541 17.3238 13.9877 17.1123C13.4917 18.6111 13.1261 19.0605 13.1261 19.0605L13.2576 19.2167C13.2711 19.2331 13.2884 19.2461 13.3079 19.2547C13.3274 19.2633 13.3487 19.2672 13.37 19.2662C13.3913 19.2651 13.4121 19.2591 13.4307 19.2486C13.4493 19.2381 13.4651 19.2235 13.477 19.2058L13.7714 18.8032L13.4267 19.4265L13.5715 19.5709C13.5865 19.586 13.6048 19.5975 13.625 19.6043C13.6453 19.6112 13.6668 19.6132 13.688 19.6102C13.7091 19.6073 13.7293 19.5994 13.7469 19.5873C13.7645 19.5752 13.7789 19.5592 13.7892 19.5405L13.9819 19.2208L13.7259 19.8059L13.884 19.9359C13.9004 19.9496 13.9198 19.9593 13.9406 19.9642C13.9614 19.9691 13.9831 19.969 14.0039 19.964C14.0247 19.9591 14.0441 19.9493 14.0604 19.9355C14.0767 19.9218 14.0896 19.9044 14.098 19.8848L14.2164 19.6374L14.0709 20.1048L14.2421 20.2164C14.2598 20.2279 14.28 20.2351 14.3011 20.2375C14.3221 20.2399 14.3434 20.2374 14.3634 20.2302C14.3833 20.2229 14.4012 20.2112 14.4158 20.1959C14.4304 20.1806 14.4412 20.1622 14.4475 20.142L14.5844 19.7483L14.4838 20.2805C14.4763 20.32 14.4806 20.3609 14.496 20.398C14.5113 20.4352 14.5372 20.4672 14.5704 20.49L14.8696 20.649L14.9853 19.8984L15.1006 20.649L15.4002 20.49C15.4334 20.4672 15.4592 20.4352 15.4746 20.398C15.4899 20.3609 15.4942 20.32 15.4868 20.2805L15.3899 19.7483L15.5268 20.142C15.533 20.1622 15.5439 20.1806 15.5585 20.1959C15.5731 20.2112 15.591 20.2229 15.6109 20.2302C15.6308 20.2374 15.6522 20.2399 15.6732 20.2375C15.6942 20.2351 15.7144 20.2279 15.7322 20.2164L15.9034 20.1048L15.7579 19.6374L15.8763 19.8848C15.8847 19.9044 15.8976 19.9218 15.9139 19.9355C15.9302 19.9493 15.9496 19.9591 15.9704 19.964C15.9912 19.969 16.0129 19.9691 16.0337 19.9642C16.0545 19.9593 16.0739 19.9496 16.0903 19.9359L16.2484 19.8059L15.992 19.2208L16.1851 19.5405C16.1953 19.5592 16.2098 19.5752 16.2274 19.5873C16.245 19.5994 16.2651 19.6073 16.2863 19.6102C16.3075 19.6132 16.329 19.6112 16.3492 19.6043C16.3695 19.5975 16.3878 19.586 16.4028 19.5709L16.5476 19.4265L16.2002 18.8035L16.4946 19.2061C16.5064 19.2239 16.5223 19.2386 16.5409 19.2491C16.5595 19.2597 16.5803 19.2657 16.6017 19.2668C16.6231 19.2678 16.6444 19.2639 16.6639 19.2552C16.6835 19.2466 16.7008 19.2335 16.7143 19.2171L16.8458 19.0608C16.8458 19.0608 16.4788 18.6101 15.9814 17.1045V17.1007C16.4264 17.3361 17.1395 17.083 17.1395 17.083C17.0254 17.0635 16.916 17.0228 16.817 16.9629C16.9515 16.9827 17.0877 16.9882 17.2234 16.9792C17.7369 16.9339 18.4236 16.5251 18.4236 16.5251C18.1797 16.5204 17.9417 16.4503 17.7345 16.3221C18.4068 16.3948 18.732 16.3303 18.732 16.3303C19.5392 16.1938 20.5121 15.3716 20.5121 15.3716C19.8716 15.4859 19.1845 15.3129 19.1845 15.3129C21.3028 15.3624 22.4856 13.8117 22.4856 13.8117C21.36 14.287 20.0054 13.9618 20.0054 13.9618C20.7839 14.0004 21.8786 13.8114 22.7546 13.334C23.6306 12.8567 24.5641 11.3917 24.5641 11.3917C22.9076 12.187 21.4661 12.0638 21.4661 12.0638Z" fill="white"/>
<path d="M22.8963 14.1188C22.8686 14.1553 22.5061 14.621 21.8393 15.0567C21.8228 18.8018 18.7611 21.8431 15 21.8431C11.2389 21.8431 8.1768 18.8015 8.16036 15.0567C7.49352 14.621 7.13134 14.1553 7.10327 14.1188L6.84824 13.7837C6.78587 14.195 6.75463 14.6104 6.75479 15.0263C6.76882 17.1966 7.64367 19.2732 9.18839 20.8029C10.7331 22.3325 12.8223 23.1911 14.9998 23.1911C17.1774 23.1911 19.2665 22.3325 20.8112 20.8029C22.3559 19.2732 23.2308 17.1966 23.2448 15.0263C23.2449 14.6104 23.2138 14.195 23.1517 13.7837L22.8963 14.1188Z" fill="white"/>
<path d="M8.64612 10.1368C9.15584 10.2675 9.60976 10.3596 9.96235 10.4224C10.602 9.72499 11.3804 9.16802 12.2479 8.78696C13.1155 8.40589 14.0531 8.20909 15.0012 8.20909C15.9492 8.20909 16.8869 8.40589 17.7544 8.78696C18.6219 9.16802 19.4003 9.72499 20.04 10.4224C20.3926 10.3596 20.8465 10.2675 21.3562 10.1368C21.4298 10.1177 21.5058 10.0976 21.5835 10.0764C21.3525 9.77267 21.1009 9.48506 20.8304 9.21563C20.0649 8.45252 19.156 7.84717 18.1557 7.43417C17.1554 7.02116 16.0832 6.80859 15.0005 6.80859C13.9178 6.80859 12.8456 7.02116 11.8453 7.43417C10.845 7.84717 9.93612 8.45252 9.17056 9.21563C8.90006 9.48506 8.64843 9.77267 8.41745 10.0764C8.49515 10.0976 8.57115 10.1177 8.64612 10.1368Z" fill="white"/>
</svg>
