<svg width="32" height="32" viewBox="0 0 32 32" fill="none" xmlns="http://www.w3.org/2000/svg">
<rect width="32" height="32" rx="16" fill="#3A3026"/>
<path d="M22.1116 12.9671C23.1223 12.9135 23.7795 12.7091 24.5524 12.2844C25.5687 11.7262 26 9.9745 26 9.9745C23.5044 11.6514 20.0926 12.0061 20.0926 12.0061C19.076 13.6355 18.1393 14.5894 17.3557 15.1428C17.2268 15.0679 17.111 14.9725 17.013 14.8603C16.7704 14.5404 16.7422 14.2153 16.75 14.1602C16.7578 14.1051 16.8147 14.0157 16.9441 13.9764C16.988 13.9608 17.035 13.9559 17.0812 13.9621C17.1274 13.9683 17.1715 13.9853 17.2098 14.0119C17.1719 13.7861 17.1509 13.6781 17.0182 13.5662C16.8949 13.4627 16.6707 13.4469 16.6707 13.4469C16.5581 13.3561 16.4229 13.2973 16.2795 13.2766C15.9029 13.2241 15.6541 13.3859 15.4775 13.5504C15.2416 13.77 15.2232 14.1792 15.0533 14.6491C14.977 14.8565 14.8286 15.0298 14.6349 15.1373C13.8532 14.5826 12.9201 13.6297 11.9071 12.0067C11.9071 12.0067 8.49523 11.652 6 9.97515C6 9.97515 6.43097 11.7268 7.44725 12.285C8.22053 12.7097 8.87767 12.9142 9.88812 12.9677C9.88812 12.9677 8.52564 13.0841 6.95998 12.3321C6.95998 12.3321 7.84004 13.7145 8.66833 14.166C9.49662 14.6175 10.531 14.7958 11.2671 14.7594C11.2671 14.7594 9.9868 15.0667 8.92296 14.6175C8.92296 14.6175 10.0405 16.0841 12.0426 16.0364C12.0426 16.0364 11.3933 16.1998 10.7879 16.0918C10.7879 16.0918 11.7091 16.8699 12.4704 16.998C12.4704 16.998 12.7778 17.0589 13.4132 16.9902C13.2174 17.1114 12.9924 17.1777 12.7619 17.1821C12.7619 17.1821 13.4122 17.5691 13.8963 17.6113C14.0246 17.6198 14.1534 17.6146 14.2806 17.5958C14.187 17.6525 14.0835 17.691 13.9755 17.7093C13.9755 17.7093 14.621 17.9386 15.0433 17.7387C14.5744 19.1553 14.2289 19.58 14.2289 19.58L14.3531 19.7277C14.366 19.7432 14.3823 19.7555 14.4007 19.7636C14.4192 19.7718 14.4393 19.7755 14.4594 19.7745C14.4796 19.7735 14.4992 19.7678 14.5168 19.7579C14.5343 19.748 14.5493 19.7341 14.5605 19.7174L14.8388 19.3369L14.513 19.926L14.6498 20.0624C14.664 20.0768 14.6813 20.0876 14.7005 20.0941C14.7196 20.1005 14.74 20.1024 14.76 20.0996C14.7799 20.0969 14.799 20.0894 14.8156 20.078C14.8322 20.0666 14.8459 20.0514 14.8556 20.0337L15.0378 19.7316L14.7957 20.2846L14.9452 20.4075C14.9607 20.4204 14.979 20.4296 14.9987 20.4342C15.0184 20.4388 15.0389 20.4387 15.0586 20.434C15.0782 20.4293 15.0965 20.4201 15.1119 20.4071C15.1274 20.3941 15.1395 20.3776 15.1474 20.3591L15.2594 20.1253L15.1219 20.5671L15.2837 20.6726C15.3005 20.6834 15.3195 20.6902 15.3394 20.6925C15.3593 20.6948 15.3795 20.6924 15.3983 20.6856C15.4171 20.6788 15.4341 20.6677 15.4479 20.6532C15.4617 20.6388 15.4719 20.6213 15.4778 20.6023L15.6072 20.2301L15.5121 20.7332C15.5051 20.7705 15.5091 20.8091 15.5236 20.8442C15.5381 20.8794 15.5626 20.9096 15.5939 20.9312L15.8767 21.0814L15.9861 20.372L16.0951 21.0814L16.3782 20.9312C16.4096 20.9096 16.434 20.8794 16.4486 20.8442C16.4631 20.8091 16.4671 20.7705 16.4601 20.7332L16.3685 20.2301L16.4979 20.6023C16.5038 20.6213 16.5141 20.6388 16.5279 20.6532C16.5417 20.6677 16.5586 20.6788 16.5775 20.6856C16.5963 20.6924 16.6164 20.6948 16.6363 20.6925C16.6562 20.6902 16.6753 20.6834 16.6921 20.6726L16.8539 20.5671L16.7163 20.1253L16.8283 20.3591C16.8362 20.3776 16.8484 20.3941 16.8638 20.4071C16.8792 20.4201 16.8975 20.4293 16.9172 20.434C16.9368 20.4387 16.9573 20.4388 16.977 20.4342C16.9967 20.4296 17.015 20.4204 17.0305 20.4075L17.18 20.2846L16.9377 19.7316L17.1201 20.0337C17.1298 20.0514 17.1435 20.0666 17.1601 20.078C17.1767 20.0894 17.1958 20.0969 17.2158 20.0996C17.2358 20.1024 17.2562 20.1005 17.2753 20.0941C17.2944 20.0876 17.3117 20.0768 17.3259 20.0624L17.4628 19.926L17.1344 19.3372L17.4126 19.7177C17.4238 19.7345 17.4388 19.7484 17.4564 19.7583C17.474 19.7683 17.4937 19.774 17.5139 19.775C17.5341 19.776 17.5542 19.7723 17.5727 19.7641C17.5912 19.756 17.6075 19.7436 17.6203 19.728L17.7446 19.5803C17.7446 19.5803 17.3977 19.1543 16.9276 17.7313V17.7277C17.3482 17.9502 18.0222 17.711 18.0222 17.711C17.9143 17.6926 17.8109 17.654 17.7174 17.5974C17.8445 17.6162 17.9733 17.6214 18.1015 17.6129C18.5868 17.57 19.2358 17.1837 19.2358 17.1837C19.0054 17.1793 18.7804 17.113 18.5845 16.9918C19.22 17.0605 19.5274 16.9996 19.5274 16.9996C20.2903 16.8706 21.2098 16.0934 21.2098 16.0934C20.6045 16.2015 19.9551 16.038 19.9551 16.038C21.9572 16.0847 23.0751 14.6191 23.0751 14.6191C22.0113 15.0683 20.731 14.761 20.731 14.761C21.4667 14.7974 22.5014 14.6188 23.3294 14.1676C24.1574 13.7165 25.0397 12.3318 25.0397 12.3318C23.474 13.0835 22.1116 12.9671 22.1116 12.9671Z" fill="#D9B06E"/>
<path d="M23.4634 14.9093C23.4372 14.9438 23.0945 15.384 22.4642 15.7958C22.4487 19.3356 19.5549 22.2101 16 22.2101C12.4451 22.2101 9.55098 19.3353 9.53544 15.7958C8.90517 15.384 8.56285 14.9438 8.53632 14.9093L8.29527 14.5926C8.23632 14.9814 8.20679 15.374 8.20694 15.7671C8.2202 17.8183 9.04709 19.7811 10.5071 21.2269C11.9671 22.6727 13.9417 23.4841 15.9998 23.4841C18.058 23.4841 20.0326 22.6727 21.4926 21.2269C22.9526 19.7811 23.7795 17.8183 23.7927 15.7671C23.7928 15.374 23.7634 14.9814 23.7047 14.5926L23.4634 14.9093Z" fill="#D9B06E"/>
<path d="M9.99456 11.1457C10.4763 11.2692 10.9054 11.3563 11.2386 11.4156C11.8432 10.7565 12.5789 10.23 13.3989 9.86988C14.2188 9.50971 15.1051 9.3237 16.0011 9.3237C16.8972 9.3237 17.7834 9.50971 18.6034 9.86988C19.4234 10.23 20.1591 10.7565 20.7636 11.4156C21.0969 11.3563 21.5259 11.2692 22.0077 11.1457C22.0773 11.1277 22.1491 11.1086 22.2225 11.0886C22.0042 10.8015 21.7664 10.5297 21.5107 10.275C20.7871 9.55378 19.9281 8.98163 18.9826 8.59127C18.0372 8.20091 17.0239 8 16.0005 8C14.9771 8 13.9638 8.20091 13.0183 8.59127C12.0729 8.98163 11.2138 9.55378 10.4902 10.275C10.2346 10.5297 9.99675 10.8015 9.77843 11.0886C9.85188 11.1086 9.9237 11.1277 9.99456 11.1457Z" fill="#D9B06E"/>
</svg>
