<svg width="32" height="32" viewBox="0 0 32 32" fill="none" xmlns="http://www.w3.org/2000/svg">
<rect width="32" height="32" rx="16" fill="#3F1A0C"/>
<path d="M24 16.3276C24 15.3496 23.2126 14.5559 22.2425 14.5559C21.7645 14.5559 21.3427 14.7402 21.0334 15.052C19.8383 14.1874 18.1793 13.6205 16.3515 13.5496L17.1529 9.76536L19.7539 10.3181C19.782 10.9843 20.3304 11.5229 21.0052 11.5229C21.6942 11.5229 22.2566 10.9559 22.2566 10.2614C22.2566 9.56694 21.6942 9 21.0052 9C20.5132 9 20.0913 9.28347 19.8946 9.70867L16.9841 9.08505C16.8998 9.07087 16.8154 9.08504 16.7452 9.12757C16.6748 9.17009 16.6327 9.24095 16.6046 9.32599L15.7188 13.5496C13.8489 13.6063 12.1757 14.1591 10.9666 15.052C10.6573 14.7543 10.2214 14.5559 9.75747 14.5559C8.78734 14.5559 8 15.3496 8 16.3276C8 17.0504 8.42179 17.6598 9.04042 17.9433C9.0123 18.1134 8.99824 18.2977 8.99824 18.4819C8.99824 21.2032 12.1336 23.4 16.014 23.4C19.8946 23.4 23.0298 21.2032 23.0298 18.4819C23.0298 18.2977 23.0158 18.1276 22.9877 17.9575C23.5641 17.674 24 17.0504 24 16.3276ZM11.9789 17.589C11.9789 16.8945 12.5413 16.3276 13.2302 16.3276C13.9191 16.3276 14.4815 16.8945 14.4815 17.589C14.4815 18.2835 13.9191 18.8504 13.2302 18.8504C12.5413 18.8504 11.9789 18.2835 11.9789 17.589ZM18.9666 20.9197C18.109 21.7842 16.478 21.8409 16 21.8409C15.522 21.8409 13.877 21.7701 13.0334 20.9197C12.9068 20.7921 12.9068 20.5795 13.0334 20.452C13.1599 20.3244 13.3708 20.3244 13.4974 20.452C14.0316 20.9906 15.1845 21.189 16.014 21.189C16.8436 21.189 17.9824 20.9906 18.5307 20.452C18.6573 20.3244 18.8682 20.3244 18.9947 20.452C19.0931 20.5937 19.0931 20.7921 18.9666 20.9197ZM18.7416 18.8504C18.0527 18.8504 17.4903 18.2835 17.4903 17.589C17.4903 16.8945 18.0527 16.3276 18.7416 16.3276C19.4305 16.3276 19.993 16.8945 19.993 17.589C19.993 18.2835 19.4305 18.8504 18.7416 18.8504Z" fill="#FF4400"/>
</svg>
