<svg width="196" height="196" viewBox="0 0 196 196" fill="none" xmlns="http://www.w3.org/2000/svg">
<path fill-rule="evenodd" clip-rule="evenodd" d="M69.2555 146.022C69.2555 140.43 67.2955 135.678 63.3733 131.756C59.3836 127.762 54.6274 125.767 49.1111 125.767C43.5229 125.767 38.6948 127.762 34.6288 131.756C30.7067 135.678 28.751 140.427 28.751 146.022C28.751 151.684 30.7067 156.473 34.6288 160.396C38.6948 164.313 43.5229 166.273 49.1111 166.273C54.6274 166.273 59.3836 164.313 63.3733 160.396C67.2933 156.399 69.2555 151.61 69.2555 146.022ZM34.6267 63.4822C38.6926 67.4 43.5207 69.36 49.1089 69.36C54.6252 69.36 59.3815 67.4 63.3712 63.4822C67.2933 59.4163 69.2533 54.6274 69.2533 49.1089C69.2533 43.5164 67.2933 38.6882 63.3712 34.6267C59.3815 30.7045 54.6252 28.7445 49.1089 28.7445C43.5207 28.7445 38.6926 30.7045 34.6267 34.6267C30.7045 38.6882 28.7488 43.5164 28.7488 49.1089C28.7488 54.7711 30.7067 59.5622 34.6267 63.4822ZM167.471 146.889C167.471 141.301 165.511 136.544 161.593 132.627C157.527 128.633 152.699 126.638 147.111 126.638C141.595 126.638 136.801 128.633 132.738 132.627C128.816 136.544 126.856 141.299 126.856 146.889C126.856 152.556 128.816 157.344 132.738 161.267C136.799 165.184 141.593 167.144 147.111 167.144C152.773 167.144 157.599 165.184 161.593 161.267C165.511 157.344 167.471 152.556 167.471 146.889ZM195.893 20.9067H196V175.093C195.928 180.756 193.822 185.616 189.684 189.682C185.621 193.822 180.756 195.928 175.093 196H21.1266C15.3163 195.928 10.4163 193.822 6.42662 189.684C2.36071 185.616 0.217778 180.756 0 175.093V20.9067C0.217778 15.2444 2.36071 10.4185 6.42662 6.42444C10.4163 2.36071 15.3163 0.217778 21.1266 0H175.093C180.756 0.217778 185.621 2.36071 189.684 6.42227C193.75 10.4163 195.821 15.2444 195.893 20.9067ZM112.373 83.7334C108.456 79.7437 103.701 77.7445 98.1111 77.7445C92.5207 77.7445 87.7274 79.7437 83.7377 83.7334C79.7437 87.6556 77.7488 92.4096 77.7488 98C77.7488 103.662 79.7437 108.456 83.7377 112.373C87.7274 116.296 92.5207 118.256 98.1111 118.256C103.701 118.256 108.456 116.296 112.373 112.373C116.296 108.307 118.256 103.518 118.256 98C118.256 92.4118 116.293 87.6556 112.373 83.7334ZM161.593 34.6267C157.599 30.7045 152.771 28.7445 147.111 28.7445C141.595 28.7445 136.801 30.7045 132.738 34.6267C128.816 38.6882 126.856 43.5164 126.856 49.1089C126.856 54.7711 128.816 59.56 132.738 63.4822C136.799 67.4 141.593 69.36 147.111 69.36C152.773 69.36 157.599 67.4 161.593 63.4822C165.511 59.56 167.471 54.7711 167.471 49.1089C167.471 43.5164 165.511 38.6904 161.593 34.6267Z" fill="url(#paint0_linear_165_1710)" fill-opacity="1"/>
<defs>
<linearGradient id="paint0_linear_165_1710" x1="934" y1="685.5" x2="371.464" y2="910.827" gradientUnits="userSpaceOnUse">
<stop stop-color="#D5A75D"/>
<stop offset="0.510417" stop-color="#FEF9E3"/>
<stop offset="1" stop-color="#C99B55"/>
</linearGradient>
</defs>
</svg>
