<svg width="32" height="32" viewBox="0 0 32 32" fill="none" xmlns="http://www.w3.org/2000/svg">
<path fill-rule="evenodd" clip-rule="evenodd" d="M6.66667 8C6.66667 7.26363 7.26363 6.66667 8 6.66667H24C24.7364 6.66667 25.3333 7.26363 25.3333 8V24C25.3333 24.7364 24.7364 25.3333 24 25.3333H8C7.26363 25.3333 6.66667 24.7364 6.66667 24V8ZM8 4C5.79087 4 4 5.79087 4 8V24C4 26.2092 5.79087 28 8 28H24C26.2092 28 28 26.2092 28 24V8C28 5.79087 26.2092 4 24 4H8ZM13.3333 11.3333C13.3333 12.4379 12.4379 13.3333 11.3333 13.3333C10.2288 13.3333 9.33333 12.4379 9.33333 11.3333C9.33333 10.2288 10.2288 9.33333 11.3333 9.33333C12.4379 9.33333 13.3333 10.2288 13.3333 11.3333ZM18 16.0001C18 17.1047 17.1045 18.0001 16 18.0001C14.8955 18.0001 14 17.1047 14 16.0001C14 14.8955 14.8955 14.0001 16 14.0001C17.1045 14.0001 18 14.8955 18 16.0001ZM20.6667 13.3333C21.7712 13.3333 22.6667 12.4379 22.6667 11.3333C22.6667 10.2288 21.7712 9.33333 20.6667 9.33333C19.5621 9.33333 18.6667 10.2288 18.6667 11.3333C18.6667 12.4379 19.5621 13.3333 20.6667 13.3333ZM22.6667 20.6667C22.6667 21.7712 21.7712 22.6667 20.6667 22.6667C19.5621 22.6667 18.6667 21.7712 18.6667 20.6667C18.6667 19.5621 19.5621 18.6667 20.6667 18.6667C21.7712 18.6667 22.6667 19.5621 22.6667 20.6667ZM11.3333 22.6667C12.4379 22.6667 13.3333 21.7712 13.3333 20.6667C13.3333 19.5621 12.4379 18.6667 11.3333 18.6667C10.2288 18.6667 9.33333 19.5621 9.33333 20.6667C9.33333 21.7712 10.2288 22.6667 11.3333 22.6667Z" fill="white"/>
</svg>
