<svg width="14" height="15" viewBox="0 0 14 15" fill="none" xmlns="http://www.w3.org/2000/svg">
<path d="M7.80759 0.455566C7.36116 0.0161133 6.63616 0.0161133 6.18973 0.455566L0.475446 6.08057C0.0290179 6.52002 0.0290179 7.23369 0.475446 7.67314C0.921875 8.1126 1.64687 8.1126 2.0933 7.67314L7.00045 2.84268L11.9076 7.66963C12.354 8.10908 13.079 8.10908 13.5254 7.66963C13.9719 7.23018 13.9719 6.5165 13.5254 6.07705L7.80759 0.455566ZM13.5254 12.8271L7.80759 7.20557C7.36116 6.76611 6.63616 6.76611 6.18973 7.20557L0.475446 12.8306C0.0290179 13.27 0.0290179 13.9837 0.475446 14.4231C0.921875 14.8626 1.64687 14.8626 2.0933 14.4231L7.00045 9.59268L11.9076 14.4196C12.354 14.8591 13.079 14.8591 13.5254 14.4196C13.9719 13.9802 13.9719 13.2665 13.5254 12.8271Z" fill="currentColor"/>
</svg>
