<svg width="99" height="99" viewBox="0 0 99 99" fill="none" xmlns="http://www.w3.org/2000/svg">
<g filter="url(#filter0_bdi_10500_61454)">
<path d="M37.4856 19.74C38.0366 19.5152 38.6266 19.4013 39.2217 19.4048C39.8168 19.4082 40.4054 19.5289 40.9538 19.76C41.5022 19.9911 41.9996 20.3281 42.4177 20.7516C42.8358 21.1752 43.1662 21.677 43.3902 22.2283L52.1588 43.7593L73.693 34.9987C74.2441 34.7743 74.834 34.6608 75.429 34.6644C76.024 34.6681 76.6124 34.7889 77.1607 35.0199C77.709 35.251 78.2064 35.5878 78.6245 36.0111C79.0427 36.4344 79.3733 36.9359 79.5976 37.487C79.8219 38.0381 79.9355 38.628 79.9319 39.2229C79.9282 39.8179 79.8074 40.4064 79.5763 40.9546C79.3453 41.5029 79.0085 42.0004 78.5852 42.4185C78.1619 42.8366 77.6604 43.1673 77.1093 43.3916L55.5783 52.1602L64.3389 73.6944C64.792 74.8074 64.7843 76.0548 64.3177 77.1621C63.851 78.2694 62.9636 79.146 61.8506 79.599C60.7376 80.0521 59.4903 80.0444 58.383 79.5777C57.2756 79.1111 56.399 78.2237 55.946 77.1107L47.1774 55.5797L25.6432 64.3404C24.5302 64.7934 23.2828 64.7857 22.1755 64.3191C21.0682 63.8524 20.1916 62.965 19.7386 61.852C19.2855 60.739 19.2932 59.4917 19.7599 58.3844C20.2265 57.277 21.1139 56.4005 22.2269 55.9474L43.7579 47.1788L34.9972 25.6446C34.7725 25.0935 34.6586 24.5036 34.662 23.9085C34.6655 23.3134 34.7862 22.7248 35.0173 22.1764C35.2484 21.628 35.5854 21.1306 36.0089 20.7125C36.4324 20.2944 36.9342 19.964 37.4856 19.74Z" fill="#121212" fill-opacity="0.5" shape-rendering="crispEdges"/>
<path d="M37.4856 19.74C38.0366 19.5152 38.6266 19.4013 39.2217 19.4048C39.8168 19.4082 40.4054 19.5289 40.9538 19.76C41.5022 19.9911 41.9996 20.3281 42.4177 20.7516C42.8358 21.1752 43.1662 21.677 43.3902 22.2283L52.1588 43.7593L73.693 34.9987C74.2441 34.7743 74.834 34.6608 75.429 34.6644C76.024 34.6681 76.6124 34.7889 77.1607 35.0199C77.709 35.251 78.2064 35.5878 78.6245 36.0111C79.0427 36.4344 79.3733 36.9359 79.5976 37.487C79.8219 38.0381 79.9355 38.628 79.9319 39.2229C79.9282 39.8179 79.8074 40.4064 79.5763 40.9546C79.3453 41.5029 79.0085 42.0004 78.5852 42.4185C78.1619 42.8366 77.6604 43.1673 77.1093 43.3916L55.5783 52.1602L64.3389 73.6944C64.792 74.8074 64.7843 76.0548 64.3177 77.1621C63.851 78.2694 62.9636 79.146 61.8506 79.599C60.7376 80.0521 59.4903 80.0444 58.383 79.5777C57.2756 79.1111 56.399 78.2237 55.946 77.1107L47.1774 55.5797L25.6432 64.3404C24.5302 64.7934 23.2828 64.7857 22.1755 64.3191C21.0682 63.8524 20.1916 62.965 19.7386 61.852C19.2855 60.739 19.2932 59.4917 19.7599 58.3844C20.2265 57.277 21.1139 56.4005 22.2269 55.9474L43.7579 47.1788L34.9972 25.6446C34.7725 25.0935 34.6586 24.5036 34.662 23.9085C34.6655 23.3134 34.7862 22.7248 35.0173 22.1764C35.2484 21.628 35.5854 21.1306 36.0089 20.7125C36.4324 20.2944 36.9342 19.964 37.4856 19.74Z" stroke="#FFEF29" stroke-width="2" shape-rendering="crispEdges"/>
</g>
<defs>
<filter id="filter0_bdi_10500_61454" x="0.402344" y="0.404785" width="98.5312" height="98.5288" filterUnits="userSpaceOnUse" color-interpolation-filters="sRGB">
<feFlood flood-opacity="0" result="BackgroundImageFix"/>
<feGaussianBlur in="BackgroundImageFix" stdDeviation="1.5"/>
<feComposite in2="SourceAlpha" operator="in" result="effect1_backgroundBlur_10500_61454"/>
<feColorMatrix in="SourceAlpha" type="matrix" values="0 0 0 0 0 0 0 0 0 0 0 0 0 0 0 0 0 0 127 0" result="hardAlpha"/>
<feOffset/>
<feGaussianBlur stdDeviation="9"/>
<feComposite in2="hardAlpha" operator="out"/>
<feColorMatrix type="matrix" values="0 0 0 0 0.92549 0 0 0 0 0.505882 0 0 0 0 0.145098 0 0 0 0.9 0"/>
<feBlend mode="normal" in2="effect1_backgroundBlur_10500_61454" result="effect2_dropShadow_10500_61454"/>
<feBlend mode="normal" in="SourceGraphic" in2="effect2_dropShadow_10500_61454" result="shape"/>
<feColorMatrix in="SourceAlpha" type="matrix" values="0 0 0 0 0 0 0 0 0 0 0 0 0 0 0 0 0 0 127 0" result="hardAlpha"/>
<feOffset/>
<feGaussianBlur stdDeviation="6.1"/>
<feComposite in2="hardAlpha" operator="arithmetic" k2="-1" k3="1"/>
<feColorMatrix type="matrix" values="0 0 0 0 0.92549 0 0 0 0 0.505882 0 0 0 0 0.145098 0 0 0 1 0"/>
<feBlend mode="normal" in2="shape" result="effect3_innerShadow_10500_61454"/>
</filter>
</defs>
</svg>
