<svg width="159" height="153" viewBox="0 0 159 153" fill="none" xmlns="http://www.w3.org/2000/svg">
<g filter="url(#filter0_bdi_10500_56080)">
<path d="M119.888 57.2862C117.955 58.7299 115.532 59.355 113.142 59.0265C110.751 58.698 108.586 57.4421 107.115 55.5304C105.643 53.6187 104.982 51.2046 105.276 48.8098C105.569 46.4151 106.793 44.232 108.683 42.7324L98.284 29.2186L29.6728 82.0396L40.0775 95.5541C42.0113 94.1269 44.4275 93.5147 46.8076 93.8486C49.1877 94.1826 51.342 95.4362 52.8084 97.3404C54.2747 99.2447 54.9363 101.648 54.6511 104.034C54.3658 106.421 53.1566 108.6 51.2827 110.105L61.6848 123.619L130.293 70.7979L119.888 57.2862ZM78.5308 44.4241L83.3319 50.6601L78.5308 44.4241ZM87.6011 56.2053L92.4022 62.4413L87.6011 56.2053ZM96.6714 67.9865L101.473 74.2225L96.6714 67.9865ZM105.742 79.7677L110.543 86.0037L105.742 79.7677Z" fill="#121212" fill-opacity="0.5" shape-rendering="crispEdges"/>
<path d="M78.5308 44.4241L83.3319 50.6601M87.6011 56.2053L92.4022 62.4413M96.6714 67.9865L101.473 74.2225M105.742 79.7677L110.543 86.0037M119.888 57.2862C117.955 58.7299 115.532 59.355 113.142 59.0265C110.751 58.698 108.586 57.4421 107.115 55.5304C105.643 53.6187 104.982 51.2046 105.276 48.8098C105.569 46.4151 106.793 44.232 108.683 42.7324L98.284 29.2186L29.6728 82.0396L40.0775 95.5541C42.0113 94.1269 44.4275 93.5147 46.8076 93.8486C49.1877 94.1826 51.342 95.4362 52.8084 97.3404C54.2747 99.2447 54.9363 101.648 54.6511 104.034C54.3658 106.421 53.1566 108.6 51.2827 110.105L61.6848 123.619L130.293 70.7979L119.888 57.2862Z" stroke="#EC1F46" stroke-width="2" shape-rendering="crispEdges"/>
</g>
<defs>
<filter id="filter0_bdi_10500_56080" x="0.969532" y="0.515919" width="158.026" height="151.806" filterUnits="userSpaceOnUse" color-interpolation-filters="sRGB">
<feFlood flood-opacity="0" result="BackgroundImageFix"/>
<feGaussianBlur in="BackgroundImageFix" stdDeviation="1.5"/>
<feComposite in2="SourceAlpha" operator="in" result="effect1_backgroundBlur_10500_56080"/>
<feColorMatrix in="SourceAlpha" type="matrix" values="0 0 0 0 0 0 0 0 0 0 0 0 0 0 0 0 0 0 127 0" result="hardAlpha"/>
<feOffset/>
<feGaussianBlur stdDeviation="13.65"/>
<feComposite in2="hardAlpha" operator="out"/>
<feColorMatrix type="matrix" values="0 0 0 0 0.92549 0 0 0 0 0.121569 0 0 0 0 0.27451 0 0 0 1 0"/>
<feBlend mode="normal" in2="effect1_backgroundBlur_10500_56080" result="effect2_dropShadow_10500_56080"/>
<feBlend mode="normal" in="SourceGraphic" in2="effect2_dropShadow_10500_56080" result="shape"/>
<feColorMatrix in="SourceAlpha" type="matrix" values="0 0 0 0 0 0 0 0 0 0 0 0 0 0 0 0 0 0 127 0" result="hardAlpha"/>
<feOffset/>
<feGaussianBlur stdDeviation="6.1"/>
<feComposite in2="hardAlpha" operator="arithmetic" k2="-1" k3="1"/>
<feColorMatrix type="matrix" values="0 0 0 0 0.92549 0 0 0 0 0.121569 0 0 0 0 0.27451 0 0 0 1 0"/>
<feBlend mode="normal" in2="shape" result="effect3_innerShadow_10500_56080"/>
</filter>
</defs>
</svg>
