<svg width="327" height="65" viewBox="0 0 327 65" fill="none" xmlns="http://www.w3.org/2000/svg">
<g filter="url(#filter0_di_10500_80924)">
<path d="M29.0909 45.1189C25.4436 45.1189 22.3389 44.4356 19.7768 43.0689C17.2448 41.7022 15.3157 39.7889 13.9894 37.3289C12.6631 34.8689 12 31.9989 12 28.7189C12 25.3174 12.6933 22.3715 14.0798 19.8811C15.4966 17.3604 17.5161 15.4167 20.1385 14.05C22.7609 12.6833 25.9259 12 29.6335 12C31.1105 12 32.5573 12.1367 33.974 12.41C35.3907 12.653 36.6869 13.0326 37.8624 13.5489C39.0681 14.0348 40.093 14.6119 40.937 15.28L38.405 21.7489C36.9883 20.8378 35.5866 20.1848 34.2001 19.79C32.8135 19.3648 31.3064 19.1522 29.6787 19.1522C26.6343 19.1522 24.3585 19.9722 22.8514 21.6122C21.3744 23.2219 20.6359 25.5907 20.6359 28.7189C20.6359 31.8167 21.3894 34.1552 22.8966 35.7344C24.4037 37.3137 26.6343 38.1033 29.5883 38.1033C30.4925 38.1033 31.4722 38.0122 32.5272 37.83C33.6123 37.6478 33.1602 37.7389 34.2453 37.4048V32.4089H27.8701V26.5322H41.0274V42.6589C39.9121 43.1752 38.6913 43.6156 37.3651 43.98C36.0689 44.3444 34.7125 44.6178 33.2958 44.8C31.9092 45.0126 30.5076 45.1189 29.0909 45.1189Z" fill="black"/>
<path d="M46.0493 44.6178V22.2044H53.8714V27.7167C53.8714 25.8864 54.4742 24.4822 55.6799 23.48C56.9158 22.4474 58.5284 21.8704 60.5178 21.7489L62.7333 21.5667L63.1855 28.4L58.7997 28.81C57.2021 28.9619 56.0416 29.4174 55.3182 30.1767C54.5948 30.9056 54.2331 31.9989 54.2331 33.4567V44.6178H46.0493Z" fill="black"/>
<path d="M77.3738 45.1189C74.661 45.1189 72.3099 44.6482 70.3204 43.7067C68.3612 42.7348 66.854 41.3681 65.799 39.6067C64.744 37.8452 64.2165 35.7648 64.2165 33.3656C64.2165 31.0574 64.7139 29.0378 65.7086 27.3067C66.7335 25.5452 68.12 24.1785 69.8683 23.2067C71.6467 22.2044 73.6663 21.7033 75.927 21.7033C78.1877 21.7033 80.1319 22.1741 81.7596 23.1156C83.3873 24.057 84.6382 25.4085 85.5123 27.17C86.4166 28.9011 86.8688 30.9359 86.8688 33.2744V35.0511H72.0896V31.2244H80.9909H80.2675C80.2675 29.5844 79.9209 28.9619 79.2276 28.1722C78.5343 27.3522 77.5547 26.9422 76.2887 26.9422C75.3543 26.9422 74.5404 27.17 73.8471 27.6256C73.184 28.0507 72.6716 28.6885 72.3099 29.5389C71.9481 30.3893 71.7673 31.4522 71.7673 32.7278V33.1378C71.7673 34.5652 71.9632 35.7193 72.3551 36.6C72.7771 37.4807 73.4251 38.1337 74.2993 38.5589C75.1734 38.9537 76.2736 39.1511 77.5999 39.1511C78.7453 39.1511 79.936 38.9841 81.1718 38.65C82.4378 38.2856 83.5531 37.7693 84.5176 37.1011L86.5071 42.4311C85.3616 43.2511 83.96 43.9041 82.3022 44.39C80.6443 44.8759 79.0015 45.1189 77.3738 45.1189Z" fill="black"/>
<path d="M102.453 45.1189C99.7406 45.1189 97.3895 44.6482 95.4001 43.7067C93.4408 42.7348 91.9337 41.3681 90.8787 39.6067C89.8237 37.8452 89.2962 35.7648 89.2962 33.3656C89.2962 31.0574 89.7935 29.0378 90.7883 27.3067C91.8131 25.5452 93.1997 24.1785 94.948 23.2067C96.7264 22.2044 98.7459 21.7033 101.007 21.7033C103.267 21.7033 105.212 22.1741 106.839 23.1156C108.467 24.057 109.718 25.4085 110.592 27.17C111.496 28.9011 111.948 30.9359 111.948 33.2744V35.0511H97.3341V31.2244H106.071H105.347C105.347 29.5844 105.001 28.9619 104.307 28.1722C103.614 27.3522 102.634 26.9422 101.368 26.9422C100.434 26.9422 99.6201 27.17 98.9268 27.6256C98.2636 28.0507 97.7512 28.6885 97.3895 29.5389C97.0278 30.3893 96.8469 31.4522 96.8469 32.7278V33.1378C96.8469 34.5652 97.0429 35.7193 97.4347 36.6C97.8567 37.4807 98.5048 38.1337 99.3789 38.5589C100.253 38.9537 101.353 39.1511 102.68 39.1511C103.825 39.1511 105.016 38.9841 106.251 38.65C107.517 38.2856 108.633 37.7693 109.597 37.1011L111.587 42.4311C110.441 43.2511 109.04 43.9041 107.382 44.39C105.724 44.8759 104.081 45.1189 102.453 45.1189Z" fill="black"/>
<path d="M115.416 44.6178V12.5011H123.464V31.2244H123.554L130.879 22.2044H140.329L131.502 32.8492L140.645 44.6178H131.015L123.554 35.2789H123.464V44.6178H115.416Z" fill="black"/>
<path d="M142.186 44.6178V12.5011H150.505V26.2589H150.596L162.984 12.5011H172.841L158.642 27.7887L173.338 44.6178H163.437L150.596 30.1311H150.505V44.6178H142.186Z" fill="black"/>
<path d="M185.331 45.1189C182.618 45.1189 180.267 44.6482 178.278 43.7067C176.318 42.7348 174.811 41.3681 173.756 39.6067C172.701 37.8452 172.174 35.7648 172.174 33.3656C172.174 31.0574 172.671 29.0378 173.666 27.3067C174.691 25.5452 176.077 24.1785 177.826 23.2067C179.604 22.2044 181.624 21.7033 183.884 21.7033C186.145 21.7033 188.089 22.1741 189.717 23.1156C191.345 24.057 192.596 25.4085 193.47 27.17C194.374 28.9011 194.826 30.9359 194.826 33.2744V35.0511H180.006V31.2244H188.948H188.227C188.227 29.5844 187.878 28.9619 187.185 28.1722C186.492 27.3522 185.512 26.9422 184.246 26.9422C183.312 26.9422 182.498 27.17 181.804 27.6256C181.141 28.0507 180.629 28.6885 180.267 29.5389C179.905 30.3893 179.725 31.4522 179.725 32.7278V33.1378C179.725 34.5652 179.921 35.7193 180.312 36.6C180.734 37.4807 181.382 38.1337 182.257 38.5589C183.131 38.9537 184.231 39.1511 185.557 39.1511C186.703 39.1511 187.893 38.9841 189.129 38.65C190.395 38.2856 191.51 37.7693 192.475 37.1011L194.464 42.4311C193.319 43.2511 191.917 43.9041 190.259 44.39C188.602 44.8759 186.959 45.1189 185.331 45.1189Z" fill="black"/>
<path d="M223.752 53V22.3867H231.574V26.4411C231.574 25.0592 232.464 23.9811 233.79 23.1611C235.146 22.3107 236.684 21.8856 238.402 21.8856C240.331 21.8856 242.019 22.3563 243.466 23.2978C244.943 24.2393 246.088 25.5756 246.902 27.3067C247.716 29.0378 248.123 31.1333 248.123 33.5933C248.123 35.9926 247.716 38.073 246.902 39.8344C246.088 41.5959 244.943 42.9474 243.466 43.8889C242.019 44.8304 240.331 45.3011 238.402 45.3011C236.744 45.3011 235.252 44.9063 233.925 44.1167C232.599 43.327 231.8 42.3674 231.8 41.0189V53H223.752ZM235.87 39.3333C237.075 39.3333 238.07 38.8778 238.854 37.9667C239.638 37.0556 240.029 35.5978 240.029 33.5933C240.029 31.5585 239.638 30.1007 238.854 29.22C238.07 28.3089 237.075 27.8533 235.87 27.8533C234.634 27.8533 233.624 28.3089 232.84 29.22C232.057 30.1007 231.665 31.5585 231.665 33.5933C231.665 35.5978 232.057 37.0556 232.84 37.9667C233.624 38.8778 234.634 39.3333 235.87 39.3333Z" fill="black"/>
<path d="M210.912 45.1189C208.199 45.1189 205.848 44.6482 203.858 43.7067C201.899 42.7348 200.392 41.3681 199.337 39.6067C198.282 37.8452 197.754 35.7648 197.754 33.3656C197.754 31.0574 198.252 29.0378 199.246 27.3067C200.271 25.5452 201.658 24.1785 203.406 23.2067C205.184 22.2044 207.204 21.7033 209.465 21.7033C211.725 21.7033 213.67 22.1741 215.297 23.1156C216.925 24.057 218.176 25.4085 219.05 27.17C219.954 28.9011 220.406 30.9359 220.406 33.2744V35.0511H205.6V31.2244H214.529H213.807C213.807 29.5844 213.459 28.9619 212.765 28.1722C212.072 27.3522 211.092 26.9422 209.826 26.9422C208.892 26.9422 208.078 27.17 207.385 27.6256C206.722 28.0507 206.209 28.6885 205.848 29.5389C205.486 30.3893 205.305 31.4522 205.305 32.7278V33.1378C205.305 34.5652 205.501 35.7193 205.893 36.6C206.315 37.4807 206.963 38.1337 207.837 38.5589C208.711 38.9537 209.811 39.1511 211.138 39.1511C212.283 39.1511 213.474 38.9841 214.71 38.65C215.976 38.2856 217.091 37.7693 218.055 37.1011L220.045 42.4311C218.899 43.2511 217.498 43.9041 215.84 44.39C214.182 44.8759 212.539 45.1189 210.912 45.1189Z" fill="black"/>
<path d="M263.528 45.1189C260.816 45.1189 258.464 44.6482 256.475 43.7067C254.516 42.7348 253.009 41.3681 251.954 39.6067C250.899 37.8452 250.371 35.7648 250.371 33.3656C250.371 31.0574 250.868 29.0378 251.863 27.3067C252.888 25.5452 254.275 24.1785 256.023 23.2067C257.801 22.2044 259.821 21.7033 262.082 21.7033C264.342 21.7033 266.286 22.1741 267.914 23.1156C269.542 24.057 270.793 25.4085 271.667 27.17C272.571 28.9011 273.023 30.9359 273.023 33.2744V35.0511H258.221V31.2244H267.146H266.42C266.42 29.5844 266.075 28.9619 265.382 28.1722C264.689 27.3522 263.709 26.9422 262.443 26.9422C261.509 26.9422 260.695 27.17 260.002 27.6256C259.339 28.0507 258.826 28.6885 258.464 29.5389C258.103 30.3893 257.922 31.4522 257.922 32.7278V33.1378C257.922 34.5652 258.118 35.7193 258.51 36.6C258.932 37.4807 259.58 38.1337 260.454 38.5589C261.328 38.9537 262.428 39.1511 263.755 39.1511C264.9 39.1511 266.091 38.9841 267.326 38.65C268.592 38.2856 269.708 37.7693 270.672 37.1011L272.662 42.4311C271.516 43.2511 270.115 43.9041 268.457 44.39C266.799 44.8759 265.156 45.1189 263.528 45.1189Z" fill="black"/>
<path d="M276.491 44.6178V22.2044H284.313V27.7167C284.313 25.8806 284.916 24.4822 286.121 23.48C287.357 22.4474 288.97 21.8704 290.959 21.7489L293.175 21.5667L293.627 28.4L289.241 28.81C287.644 28.9619 286.483 29.4174 285.76 30.1767C285.036 30.9056 284.674 31.9989 284.674 33.4567V44.6178H276.491Z" fill="black"/>
<path d="M304.736 45.1189C303.38 45.1189 302.069 45.0278 300.803 44.8456C299.567 44.6633 298.437 44.39 297.412 44.0256C296.387 43.6611 295.468 43.2207 294.654 42.7044L296.507 37.4656C297.261 37.8907 298.09 38.2704 298.994 38.6044C299.929 38.9385 300.893 39.1967 301.888 39.3789C302.883 39.5611 303.847 39.6522 304.782 39.6522C305.897 39.6522 306.696 39.5004 307.178 39.1967C307.66 38.8626 307.901 38.4374 307.901 37.9211C307.901 37.4656 307.736 37.1163 307.404 36.8733C307.103 36.6304 306.666 36.4633 306.093 36.3722L301.074 35.5522C299.205 35.2181 297.758 34.5348 296.734 33.5022C295.709 32.4393 295.196 31.0574 295.196 29.3567C295.196 27.7774 295.633 26.4259 296.507 25.3022C297.412 24.1481 298.633 23.2674 300.17 22.66C301.737 22.0222 303.531 21.7033 305.55 21.7033C306.635 21.7033 307.705 21.7944 308.76 21.9767C309.815 22.1285 310.825 22.3867 311.79 22.7511C312.754 23.0852 313.629 23.5407 314.412 24.1178L312.423 29.2656C311.85 28.8404 311.172 28.4759 310.388 28.1722C309.604 27.8685 308.791 27.6256 307.947 27.4433C307.133 27.2307 306.379 27.1244 305.686 27.1244C304.45 27.1244 303.576 27.2915 303.064 27.6256C302.551 27.9596 302.295 28.3848 302.295 28.9011C302.295 29.2959 302.431 29.63 302.702 29.9033C302.973 30.1463 303.395 30.3133 303.968 30.4044L308.987 31.27C310.916 31.5737 312.393 32.2419 313.418 33.2744C314.473 34.2767 315 35.6433 315 37.3744C315 39.0144 314.578 40.4115 313.734 41.5656C312.89 42.7196 311.699 43.6004 310.162 44.2078C308.625 44.8152 306.816 45.1189 304.736 45.1189Z" fill="black"/>
<path d="M29.0909 45.1189C25.4436 45.1189 22.3389 44.4356 19.7768 43.0689C17.2448 41.7022 15.3157 39.7889 13.9894 37.3289C12.6631 34.8689 12 31.9989 12 28.7189C12 25.3174 12.6933 22.3715 14.0798 19.8811C15.4966 17.3604 17.5161 15.4167 20.1385 14.05C22.7609 12.6833 25.9259 12 29.6335 12C31.1105 12 32.5573 12.1367 33.974 12.41C35.3907 12.653 36.6869 13.0326 37.8624 13.5489C39.0681 14.0348 40.093 14.6119 40.937 15.28L38.405 21.7489C36.9883 20.8378 35.5866 20.1848 34.2001 19.79C32.8135 19.3648 31.3064 19.1522 29.6787 19.1522C26.6343 19.1522 24.3585 19.9722 22.8514 21.6122C21.3744 23.2219 20.6359 25.5907 20.6359 28.7189C20.6359 31.8167 21.3894 34.1552 22.8966 35.7344C24.4037 37.3137 26.6343 38.1033 29.5883 38.1033C30.4925 38.1033 31.4722 38.0122 32.5272 37.83C33.6123 37.6478 33.1602 37.7389 34.2453 37.4048V32.4089H27.8701V26.5322H41.0274V42.6589C39.9121 43.1752 38.6913 43.6156 37.3651 43.98C36.0689 44.3444 34.7125 44.6178 33.2958 44.8C31.9092 45.0126 30.5076 45.1189 29.0909 45.1189Z" stroke="#B4E915"/>
<path d="M46.0493 44.6178V22.2044H53.8714V27.7167C53.8714 25.8864 54.4742 24.4822 55.6799 23.48C56.9158 22.4474 58.5284 21.8704 60.5178 21.7489L62.7333 21.5667L63.1855 28.4L58.7997 28.81C57.2021 28.9619 56.0416 29.4174 55.3182 30.1767C54.5948 30.9056 54.2331 31.9989 54.2331 33.4567V44.6178H46.0493Z" stroke="#B4E915"/>
<path d="M77.3738 45.1189C74.661 45.1189 72.3099 44.6482 70.3204 43.7067C68.3612 42.7348 66.854 41.3681 65.799 39.6067C64.744 37.8452 64.2165 35.7648 64.2165 33.3656C64.2165 31.0574 64.7139 29.0378 65.7086 27.3067C66.7335 25.5452 68.12 24.1785 69.8683 23.2067C71.6467 22.2044 73.6663 21.7033 75.927 21.7033C78.1877 21.7033 80.1319 22.1741 81.7596 23.1156C83.3873 24.057 84.6382 25.4085 85.5123 27.17C86.4166 28.9011 86.8688 30.9359 86.8688 33.2744V35.0511H72.0896V31.2244H80.9909H80.2675C80.2675 29.5844 79.9209 28.9619 79.2276 28.1722C78.5343 27.3522 77.5547 26.9422 76.2887 26.9422C75.3543 26.9422 74.5404 27.17 73.8471 27.6256C73.184 28.0507 72.6716 28.6885 72.3099 29.5389C71.9481 30.3893 71.7673 31.4522 71.7673 32.7278V33.1378C71.7673 34.5652 71.9632 35.7193 72.3551 36.6C72.7771 37.4807 73.4251 38.1337 74.2993 38.5589C75.1734 38.9537 76.2736 39.1511 77.5999 39.1511C78.7453 39.1511 79.936 38.9841 81.1718 38.65C82.4378 38.2856 83.5531 37.7693 84.5176 37.1011L86.5071 42.4311C85.3616 43.2511 83.96 43.9041 82.3022 44.39C80.6443 44.8759 79.0015 45.1189 77.3738 45.1189Z" stroke="#B4E915"/>
<path d="M102.453 45.1189C99.7406 45.1189 97.3895 44.6482 95.4001 43.7067C93.4408 42.7348 91.9337 41.3681 90.8787 39.6067C89.8237 37.8452 89.2962 35.7648 89.2962 33.3656C89.2962 31.0574 89.7935 29.0378 90.7883 27.3067C91.8131 25.5452 93.1997 24.1785 94.948 23.2067C96.7264 22.2044 98.7459 21.7033 101.007 21.7033C103.267 21.7033 105.212 22.1741 106.839 23.1156C108.467 24.057 109.718 25.4085 110.592 27.17C111.496 28.9011 111.948 30.9359 111.948 33.2744V35.0511H97.3341V31.2244H106.071H105.347C105.347 29.5844 105.001 28.9619 104.307 28.1722C103.614 27.3522 102.634 26.9422 101.368 26.9422C100.434 26.9422 99.6201 27.17 98.9268 27.6256C98.2636 28.0507 97.7512 28.6885 97.3895 29.5389C97.0278 30.3893 96.8469 31.4522 96.8469 32.7278V33.1378C96.8469 34.5652 97.0429 35.7193 97.4347 36.6C97.8567 37.4807 98.5048 38.1337 99.3789 38.5589C100.253 38.9537 101.353 39.1511 102.68 39.1511C103.825 39.1511 105.016 38.9841 106.251 38.65C107.517 38.2856 108.633 37.7693 109.597 37.1011L111.587 42.4311C110.441 43.2511 109.04 43.9041 107.382 44.39C105.724 44.8759 104.081 45.1189 102.453 45.1189Z" stroke="#B4E915"/>
<path d="M115.416 44.6178V12.5011H123.464V31.2244H123.554L130.879 22.2044H140.329L131.502 32.8492L140.645 44.6178H131.015L123.554 35.2789H123.464V44.6178H115.416Z" stroke="#B4E915"/>
<path d="M142.186 44.6178V12.5011H150.505V26.2589H150.596L162.984 12.5011H172.841L158.642 27.7887L173.338 44.6178H163.437L150.596 30.1311H150.505V44.6178H142.186Z" stroke="#B4E915"/>
<path d="M185.331 45.1189C182.618 45.1189 180.267 44.6482 178.278 43.7067C176.318 42.7348 174.811 41.3681 173.756 39.6067C172.701 37.8452 172.174 35.7648 172.174 33.3656C172.174 31.0574 172.671 29.0378 173.666 27.3067C174.691 25.5452 176.077 24.1785 177.826 23.2067C179.604 22.2044 181.624 21.7033 183.884 21.7033C186.145 21.7033 188.089 22.1741 189.717 23.1156C191.345 24.057 192.596 25.4085 193.47 27.17C194.374 28.9011 194.826 30.9359 194.826 33.2744V35.0511H180.006V31.2244H188.948H188.227C188.227 29.5844 187.878 28.9619 187.185 28.1722C186.492 27.3522 185.512 26.9422 184.246 26.9422C183.312 26.9422 182.498 27.17 181.804 27.6256C181.141 28.0507 180.629 28.6885 180.267 29.5389C179.905 30.3893 179.725 31.4522 179.725 32.7278V33.1378C179.725 34.5652 179.921 35.7193 180.312 36.6C180.734 37.4807 181.382 38.1337 182.257 38.5589C183.131 38.9537 184.231 39.1511 185.557 39.1511C186.703 39.1511 187.893 38.9841 189.129 38.65C190.395 38.2856 191.51 37.7693 192.475 37.1011L194.464 42.4311C193.319 43.2511 191.917 43.9041 190.259 44.39C188.602 44.8759 186.959 45.1189 185.331 45.1189Z" stroke="#B4E915"/>
<path d="M223.752 53V22.3867H231.574V26.4411C231.574 25.0592 232.464 23.9811 233.79 23.1611C235.146 22.3107 236.684 21.8856 238.402 21.8856C240.331 21.8856 242.019 22.3563 243.466 23.2978C244.943 24.2393 246.088 25.5756 246.902 27.3067C247.716 29.0378 248.123 31.1333 248.123 33.5933C248.123 35.9926 247.716 38.073 246.902 39.8344C246.088 41.5959 244.943 42.9474 243.466 43.8889C242.019 44.8304 240.331 45.3011 238.402 45.3011C236.744 45.3011 235.252 44.9063 233.925 44.1167C232.599 43.327 231.8 42.3674 231.8 41.0189V53H223.752ZM235.87 39.3333C237.075 39.3333 238.07 38.8778 238.854 37.9667C239.638 37.0556 240.029 35.5978 240.029 33.5933C240.029 31.5585 239.638 30.1007 238.854 29.22C238.07 28.3089 237.075 27.8533 235.87 27.8533C234.634 27.8533 233.624 28.3089 232.84 29.22C232.057 30.1007 231.665 31.5585 231.665 33.5933C231.665 35.5978 232.057 37.0556 232.84 37.9667C233.624 38.8778 234.634 39.3333 235.87 39.3333Z" stroke="#B4E915"/>
<path d="M210.912 45.1189C208.199 45.1189 205.848 44.6482 203.858 43.7067C201.899 42.7348 200.392 41.3681 199.337 39.6067C198.282 37.8452 197.754 35.7648 197.754 33.3656C197.754 31.0574 198.252 29.0378 199.246 27.3067C200.271 25.5452 201.658 24.1785 203.406 23.2067C205.184 22.2044 207.204 21.7033 209.465 21.7033C211.725 21.7033 213.67 22.1741 215.297 23.1156C216.925 24.057 218.176 25.4085 219.05 27.17C219.954 28.9011 220.406 30.9359 220.406 33.2744V35.0511H205.6V31.2244H214.529H213.807C213.807 29.5844 213.459 28.9619 212.765 28.1722C212.072 27.3522 211.092 26.9422 209.826 26.9422C208.892 26.9422 208.078 27.17 207.385 27.6256C206.722 28.0507 206.209 28.6885 205.848 29.5389C205.486 30.3893 205.305 31.4522 205.305 32.7278V33.1378C205.305 34.5652 205.501 35.7193 205.893 36.6C206.315 37.4807 206.963 38.1337 207.837 38.5589C208.711 38.9537 209.811 39.1511 211.138 39.1511C212.283 39.1511 213.474 38.9841 214.71 38.65C215.976 38.2856 217.091 37.7693 218.055 37.1011L220.045 42.4311C218.899 43.2511 217.498 43.9041 215.84 44.39C214.182 44.8759 212.539 45.1189 210.912 45.1189Z" stroke="#B4E915"/>
<path d="M263.528 45.1189C260.816 45.1189 258.464 44.6482 256.475 43.7067C254.516 42.7348 253.009 41.3681 251.954 39.6067C250.899 37.8452 250.371 35.7648 250.371 33.3656C250.371 31.0574 250.868 29.0378 251.863 27.3067C252.888 25.5452 254.275 24.1785 256.023 23.2067C257.801 22.2044 259.821 21.7033 262.082 21.7033C264.342 21.7033 266.286 22.1741 267.914 23.1156C269.542 24.057 270.793 25.4085 271.667 27.17C272.571 28.9011 273.023 30.9359 273.023 33.2744V35.0511H258.221V31.2244H267.146H266.42C266.42 29.5844 266.075 28.9619 265.382 28.1722C264.689 27.3522 263.709 26.9422 262.443 26.9422C261.509 26.9422 260.695 27.17 260.002 27.6256C259.339 28.0507 258.826 28.6885 258.464 29.5389C258.103 30.3893 257.922 31.4522 257.922 32.7278V33.1378C257.922 34.5652 258.118 35.7193 258.51 36.6C258.932 37.4807 259.58 38.1337 260.454 38.5589C261.328 38.9537 262.428 39.1511 263.755 39.1511C264.9 39.1511 266.091 38.9841 267.326 38.65C268.592 38.2856 269.708 37.7693 270.672 37.1011L272.662 42.4311C271.516 43.2511 270.115 43.9041 268.457 44.39C266.799 44.8759 265.156 45.1189 263.528 45.1189Z" stroke="#B4E915"/>
<path d="M276.491 44.6178V22.2044H284.313V27.7167C284.313 25.8806 284.916 24.4822 286.121 23.48C287.357 22.4474 288.97 21.8704 290.959 21.7489L293.175 21.5667L293.627 28.4L289.241 28.81C287.644 28.9619 286.483 29.4174 285.76 30.1767C285.036 30.9056 284.674 31.9989 284.674 33.4567V44.6178H276.491Z" stroke="#B4E915"/>
<path d="M304.736 45.1189C303.38 45.1189 302.069 45.0278 300.803 44.8456C299.567 44.6633 298.437 44.39 297.412 44.0256C296.387 43.6611 295.468 43.2207 294.654 42.7044L296.507 37.4656C297.261 37.8907 298.09 38.2704 298.994 38.6044C299.929 38.9385 300.893 39.1967 301.888 39.3789C302.883 39.5611 303.847 39.6522 304.782 39.6522C305.897 39.6522 306.696 39.5004 307.178 39.1967C307.66 38.8626 307.901 38.4374 307.901 37.9211C307.901 37.4656 307.736 37.1163 307.404 36.8733C307.103 36.6304 306.666 36.4633 306.093 36.3722L301.074 35.5522C299.205 35.2181 297.758 34.5348 296.734 33.5022C295.709 32.4393 295.196 31.0574 295.196 29.3567C295.196 27.7774 295.633 26.4259 296.507 25.3022C297.412 24.1481 298.633 23.2674 300.17 22.66C301.737 22.0222 303.531 21.7033 305.55 21.7033C306.635 21.7033 307.705 21.7944 308.76 21.9767C309.815 22.1285 310.825 22.3867 311.79 22.7511C312.754 23.0852 313.629 23.5407 314.412 24.1178L312.423 29.2656C311.85 28.8404 311.172 28.4759 310.388 28.1722C309.604 27.8685 308.791 27.6256 307.947 27.4433C307.133 27.2307 306.379 27.1244 305.686 27.1244C304.45 27.1244 303.576 27.2915 303.064 27.6256C302.551 27.9596 302.295 28.3848 302.295 28.9011C302.295 29.2959 302.431 29.63 302.702 29.9033C302.973 30.1463 303.395 30.3133 303.968 30.4044L308.987 31.27C310.916 31.5737 312.393 32.2419 313.418 33.2744C314.473 34.2767 315 35.6433 315 37.3744C315 39.0144 314.578 40.4115 313.734 41.5656C312.89 42.7196 311.699 43.6004 310.162 44.2078C308.625 44.8152 306.816 45.1189 304.736 45.1189Z" stroke="#B4E915"/>
</g>
<defs>
<filter id="filter0_di_10500_80924" x="0.7" y="0.7" width="325.6" height="63.6" filterUnits="userSpaceOnUse" color-interpolation-filters="sRGB">
<feFlood flood-opacity="0" result="BackgroundImageFix"/>
<feColorMatrix in="SourceAlpha" type="matrix" values="0 0 0 0 0 0 0 0 0 0 0 0 0 0 0 0 0 0 127 0" result="hardAlpha"/>
<feOffset/>
<feGaussianBlur stdDeviation="5.4"/>
<feComposite in2="hardAlpha" operator="out"/>
<feColorMatrix type="matrix" values="0 0 0 0 0.705882 0 0 0 0 0.913725 0 0 0 0 0.0823529 0 0 0 0.9 0"/>
<feBlend mode="normal" in2="BackgroundImageFix" result="effect1_dropShadow_10500_80924"/>
<feBlend mode="normal" in="SourceGraphic" in2="effect1_dropShadow_10500_80924" result="shape"/>
<feColorMatrix in="SourceAlpha" type="matrix" values="0 0 0 0 0 0 0 0 0 0 0 0 0 0 0 0 0 0 127 0" result="hardAlpha"/>
<feOffset/>
<feGaussianBlur stdDeviation="5.4"/>
<feComposite in2="hardAlpha" operator="arithmetic" k2="-1" k3="1"/>
<feColorMatrix type="matrix" values="0 0 0 0 0.705882 0 0 0 0 0.913725 0 0 0 0 0.0823529 0 0 0 1 0"/>
<feBlend mode="normal" in2="shape" result="effect2_innerShadow_10500_80924"/>
</filter>
</defs>
</svg>
