<svg width="200" height="278" viewBox="0 0 200 278" fill="none" xmlns="http://www.w3.org/2000/svg">
<g clip-path="url(#clip0_2709_120488)">
<rect y="0.00439453" width="200" height="278" rx="10" fill="url(#paint0_linear_2709_120488)"/>
<path fill-rule="evenodd" clip-rule="evenodd" d="M161 207.651C163.088 207.633 172.39 198.092 172.353 196.004C172.372 198.092 181.912 207.395 184 207.358C181.912 207.376 172.61 216.917 172.646 219.004C172.628 216.917 163.088 207.633 161 207.651Z" fill="#E04749"/>
<path fill-rule="evenodd" clip-rule="evenodd" d="M39 70.3579C36.9124 70.3762 27.6099 79.9168 27.6465 82.0044C27.6282 79.9168 18.0876 70.6142 16 70.6509C18.0876 70.6326 27.3902 61.092 27.3535 59.0044C27.3718 61.092 36.9124 70.3762 39 70.3579Z" fill="#E04749"/>
<path fill-rule="evenodd" clip-rule="evenodd" d="M150 138.363C140.924 138.443 100.478 179.924 100.637 189C100.557 179.924 59.0764 139.478 50 139.637C59.0764 139.557 99.5224 98.0764 99.3632 89C99.4428 98.0764 140.924 138.443 150 138.363Z" fill="#E04749"/>
<path d="M16 47.0044L24.0205 16.0044H30.9402L39 47.0044H32.8667L29.5248 31.3142C29.1578 29.761 28.804 28.1128 28.4632 26.3694C28.1225 24.6261 27.7818 22.9461 27.441 21.3295H27.2838C26.9954 22.9461 26.6809 24.6261 26.3402 26.3694C25.9994 28.1128 25.6456 29.761 25.2786 31.3142L21.8974 47.0044H16ZM21.2684 39.6348V34.167H33.6137V39.6348H21.2684Z" fill="#E04749"/>
<path d="M184 231.004L175.979 262.004L169.06 262.004L161 231.004L167.133 231.004L170.475 246.695C170.842 248.248 171.196 249.896 171.537 251.639C171.877 253.383 172.218 255.063 172.559 256.679L172.716 256.679C173.005 255.063 173.319 253.383 173.66 251.639C174.001 249.896 174.354 248.248 174.721 246.695L178.103 231.004L184 231.004ZM178.732 238.374L178.732 243.842L166.386 243.842L166.386 238.374L178.732 238.374Z" fill="#E04749"/>
</g>
<defs>
<linearGradient id="paint0_linear_2709_120488" x1="0" y1="278.004" x2="200" y2="0.00440461" gradientUnits="userSpaceOnUse">
<stop stop-color="#101010"/>
<stop offset="0.712851" stop-color="#201F1F"/>
<stop offset="1" stop-color="#101010"/>
</linearGradient>
<clipPath id="clip0_2709_120488">
<rect width="200" height="278" fill="white"/>
</clipPath>
</defs>
</svg>
