<svg width="200" height="278" viewBox="0 0 200 278" fill="none" xmlns="http://www.w3.org/2000/svg">
<g clip-path="url(#clip0_2709_120257)">
<rect y="0.00439453" width="200" height="278" rx="10" fill="url(#paint0_linear_2709_120257)"/>
<path fill-rule="evenodd" clip-rule="evenodd" d="M155 207.651C157.088 207.633 166.39 198.092 166.353 196.004C166.372 198.092 175.912 207.395 178 207.358C175.912 207.376 166.61 216.917 166.646 219.004C166.628 216.917 157.088 207.633 155 207.651Z" fill="#E04749"/>
<path fill-rule="evenodd" clip-rule="evenodd" d="M45 70.3574C42.9124 70.3757 33.6099 79.9163 33.6465 82.0039C33.6282 79.9163 24.0876 70.6138 22 70.6504C24.0876 70.6321 33.3902 61.0915 33.3535 59.0039C33.3718 61.0915 42.9124 70.3757 45 70.3574Z" fill="#E04749"/>
<path d="M12 46.4394V40.8415H18.4732V23.5775H12.8912V19.2968C14.5174 18.9832 15.8933 18.6068 17.0191 18.1678C18.1761 17.7287 19.2706 17.1956 20.3026 16.5684H25.3686V40.8415H30.9506V46.4394H12Z" fill="#E04749"/>
<path d="M44.352 47.0039C41.1623 47.0039 38.5824 45.6711 36.6123 43.0054C34.6735 40.3398 33.7041 36.4667 33.7041 31.3863C33.7041 26.2745 34.6735 22.4328 36.6123 19.8613C38.5824 17.2897 41.1623 16.0039 44.352 16.0039C47.5417 16.0039 50.106 17.3054 52.0448 19.9083C54.0149 22.4799 55 26.3059 55 31.3863C55 36.4667 54.0149 40.3398 52.0448 43.0054C50.106 45.6711 47.5417 47.0039 44.352 47.0039ZM44.352 41.6412C45.1338 41.6412 45.8374 41.359 46.4629 40.7945C47.0883 40.1986 47.573 39.1637 47.917 37.6898C48.2923 36.1845 48.4799 34.0833 48.4799 31.3863C48.4799 28.6579 48.2923 26.5724 47.917 25.1299C47.573 23.6873 47.0883 22.6994 46.4629 22.1663C45.8374 21.6331 45.1338 21.3666 44.352 21.3666C43.5702 21.3666 42.8666 21.6331 42.2412 22.1663C41.6158 22.6994 41.1154 23.6873 40.7402 25.1299C40.3962 26.5724 40.2242 28.6579 40.2242 31.3863C40.2242 34.0833 40.3962 36.1845 40.7402 37.6898C41.1154 39.1637 41.6158 40.1986 42.2412 40.7945C42.8666 41.359 43.5702 41.6412 44.352 41.6412Z" fill="#E04749"/>
<path d="M188 231.569L188 237.167L181.527 237.167L181.527 254.431L187.109 254.431L187.109 258.712C185.483 259.025 184.107 259.401 182.981 259.841C181.824 260.28 180.729 260.813 179.697 261.44L174.631 261.44L174.631 237.167L169.049 237.167L169.049 231.569L188 231.569Z" fill="#E04749"/>
<path d="M155.648 231.004C158.838 231.004 161.418 232.337 163.388 235.003C165.327 237.669 166.296 241.542 166.296 246.622C166.296 251.734 165.327 255.575 163.388 258.147C161.418 260.719 158.838 262.004 155.648 262.004C152.458 262.004 149.894 260.703 147.955 258.1C145.985 255.528 145 251.702 145 246.622C145 241.542 145.985 237.669 147.955 235.003C149.894 232.337 152.458 231.004 155.648 231.004ZM155.648 236.367C154.866 236.367 154.163 236.649 153.537 237.214C152.912 237.81 152.427 238.845 152.083 240.319C151.708 241.824 151.52 243.925 151.52 246.622C151.52 249.35 151.708 251.436 152.083 252.878C152.427 254.321 152.912 255.309 153.537 255.842C154.163 256.375 154.866 256.642 155.648 256.642C156.43 256.642 157.133 256.375 157.759 255.842C158.384 255.309 158.885 254.321 159.26 252.878C159.604 251.436 159.776 249.35 159.776 246.622C159.776 243.925 159.604 241.824 159.26 240.319C158.885 238.845 158.384 237.81 157.759 237.214C157.133 236.649 156.43 236.367 155.648 236.367Z" fill="#E04749"/>
<path fill-rule="evenodd" clip-rule="evenodd" d="M87 84.8642C85.0032 84.8818 76.1051 94.0076 76.1402 96.0044C76.1226 94.0076 66.9968 85.1095 65 85.1445C66.9968 85.127 75.8949 76.0012 75.8599 74.0044C75.8774 76.0012 85.0032 84.8818 87 84.8642Z" fill="#E04749"/>
<path fill-rule="evenodd" clip-rule="evenodd" d="M135 84.8642C133.003 84.8818 124.105 94.0076 124.14 96.0044C124.123 94.0076 114.997 85.1095 113 85.1445C114.997 85.127 123.895 76.0012 123.86 74.0044C123.877 76.0012 133.003 84.8818 135 84.8642Z" fill="#E04749"/>
<path fill-rule="evenodd" clip-rule="evenodd" d="M135 122.864C133.003 122.882 124.105 132.008 124.14 134.004C124.123 132.008 114.997 123.109 113 123.144C114.997 123.127 123.895 114.001 123.86 112.004C123.877 114.001 133.003 122.882 135 122.864Z" fill="#E04749"/>
<path fill-rule="evenodd" clip-rule="evenodd" d="M65 155.145C66.9968 155.127 75.8949 146.001 75.8598 144.004C75.8774 146.001 85.0032 154.899 87 154.864C85.0032 154.882 76.1051 164.008 76.1401 166.004C76.1226 164.008 66.9968 155.127 65 155.145Z" fill="#E04749"/>
<path fill-rule="evenodd" clip-rule="evenodd" d="M111 103.864C109.003 103.882 100.105 113.008 100.14 115.004C100.123 113.008 90.9968 104.109 89 104.144C90.9968 104.127 99.8949 95.0012 99.8599 93.0044C99.8774 95.0012 109.003 103.882 111 103.864Z" fill="#E04749"/>
<path fill-rule="evenodd" clip-rule="evenodd" d="M89 174.145C90.9968 174.127 99.8949 165.001 99.8598 163.004C99.8774 165.001 109.003 173.899 111 173.864C109.003 173.882 100.105 183.008 100.14 185.004C100.123 183.008 90.9968 174.127 89 174.145Z" fill="#E04749"/>
<path fill-rule="evenodd" clip-rule="evenodd" d="M87 122.864C85.0032 122.882 76.1051 132.008 76.1402 134.004C76.1226 132.008 66.9968 123.109 65 123.144C66.9968 123.127 75.8949 114.001 75.8599 112.004C75.8774 114.001 85.0032 122.882 87 122.864Z" fill="#E04749"/>
<path fill-rule="evenodd" clip-rule="evenodd" d="M113 155.145C114.997 155.127 123.895 146.001 123.86 144.004C123.877 146.001 133.003 154.899 135 154.864C133.003 154.882 124.105 164.008 124.14 166.004C124.123 164.008 114.997 155.127 113 155.145Z" fill="#E04749"/>
<path fill-rule="evenodd" clip-rule="evenodd" d="M113 193.145C114.997 193.127 123.895 184.001 123.86 182.004C123.877 184.001 133.003 192.899 135 192.864C133.003 192.882 124.105 202.008 124.14 204.004C124.123 202.008 114.997 193.127 113 193.145Z" fill="#E04749"/>
<path fill-rule="evenodd" clip-rule="evenodd" d="M65 193.145C66.9968 193.127 75.8949 184.001 75.8598 182.004C75.8774 184.001 85.0032 192.899 87 192.864C85.0032 192.882 76.1051 202.008 76.1401 204.004C76.1226 202.008 66.9968 193.127 65 193.145Z" fill="#E04749"/>
</g>
<defs>
<linearGradient id="paint0_linear_2709_120257" x1="0" y1="278.004" x2="200" y2="0.00440461" gradientUnits="userSpaceOnUse">
<stop stop-color="#101010"/>
<stop offset="0.712851" stop-color="#201F1F"/>
<stop offset="1" stop-color="#101010"/>
</linearGradient>
<clipPath id="clip0_2709_120257">
<rect width="200" height="278" fill="white"/>
</clipPath>
</defs>
</svg>
