<svg width="200" height="278" viewBox="0 0 200 278" fill="none" xmlns="http://www.w3.org/2000/svg">
<g clip-path="url(#clip0_2709_119963)">
<rect y="0.00439453" width="200" height="278" rx="10" fill="url(#paint0_linear_2709_119963)"/>
<path fill-rule="evenodd" clip-rule="evenodd" d="M161 207.651C163.088 207.633 172.39 198.092 172.353 196.004C172.372 198.092 181.912 207.395 184 207.358C181.912 207.376 172.61 216.917 172.646 219.004C172.628 216.917 163.088 207.633 161 207.651Z" fill="#E04749"/>
<path fill-rule="evenodd" clip-rule="evenodd" d="M39 70.3579C36.9124 70.3762 27.6099 79.9168 27.6465 82.0044C27.6282 79.9168 18.0876 70.6142 16 70.6509C18.0876 70.6326 27.3902 61.092 27.3535 59.0044C27.3718 61.092 36.9124 70.3762 39 70.3579Z" fill="#E04749"/>
<path d="M26.6389 47.0044C25.0022 47.0044 23.5098 46.8162 22.1619 46.4399C20.8461 46.0949 19.6747 45.6088 18.6477 44.9816C17.6207 44.3544 16.7381 43.6174 16 42.7707L19.2735 38.3959C20.2042 39.274 21.2312 39.9953 22.3545 40.5598C23.4778 41.1243 24.6813 41.4065 25.965 41.4065C27.4413 41.4065 28.6287 41.1086 29.5274 40.5127C30.4581 39.8855 30.9234 39.0074 30.9234 37.8784C30.9234 37.0003 30.6988 36.2477 30.2495 35.6205C29.8001 34.9619 28.9818 34.4601 27.7943 34.1152C26.6389 33.7702 24.938 33.5977 22.6915 33.5977V28.7055C24.5208 28.7055 25.965 28.533 27.0241 28.188C28.0831 27.843 28.8213 27.3726 29.2385 26.7768C29.6878 26.1809 29.9125 25.491 29.9125 24.707C29.9125 23.6407 29.5755 22.8253 28.9015 22.2608C28.2597 21.6964 27.345 21.4141 26.1575 21.4141C25.0664 21.4141 24.0715 21.6493 23.1729 22.1197C22.3063 22.5588 21.3917 23.2017 20.4289 24.0484L16.8665 19.8147C18.2786 18.623 19.771 17.6979 21.3435 17.0393C22.9161 16.3494 24.6331 16.0044 26.4945 16.0044C28.5806 16.0044 30.4099 16.3337 31.9825 16.9923C33.5872 17.6195 34.8228 18.5446 35.6893 19.7677C36.5879 20.9594 37.0372 22.4333 37.0372 24.1895C37.0372 25.7262 36.5879 27.0433 35.6893 28.141C34.8228 29.2386 33.5711 30.1324 31.9344 30.8223V31.0105C33.0897 31.3554 34.1327 31.8572 35.0635 32.5158C35.9942 33.143 36.7163 33.9427 37.2298 34.9149C37.7433 35.887 38 37.016 38 38.3018C38 40.1521 37.4705 41.7358 36.4114 43.053C35.3844 44.3387 34.0044 45.3266 32.2713 46.0165C30.5704 46.6751 28.6929 47.0044 26.6389 47.0044Z" fill="#E04749"/>
<path d="M172.361 231.004C173.998 231.004 175.49 231.193 176.838 231.569C178.154 231.914 179.325 232.4 180.352 233.027C181.379 233.654 182.262 234.391 183 235.238L179.726 239.613C178.796 238.735 177.769 238.014 176.646 237.449C175.522 236.885 174.319 236.602 173.035 236.602C171.559 236.602 170.371 236.9 169.473 237.496C168.542 238.123 168.077 239.001 168.077 240.13C168.077 241.008 168.301 241.761 168.751 242.388C169.2 243.047 170.018 243.549 171.206 243.894C172.361 244.239 174.062 244.411 176.309 244.411L176.309 249.303C174.479 249.303 173.035 249.476 171.976 249.821C170.917 250.166 170.179 250.636 169.761 251.232C169.312 251.828 169.088 252.518 169.088 253.302C169.088 254.368 169.425 255.183 170.098 255.748C170.74 256.312 171.655 256.595 172.842 256.595C173.934 256.595 174.929 256.359 175.827 255.889C176.694 255.45 177.608 254.807 178.571 253.96L182.133 258.194C180.721 259.386 179.229 260.311 177.656 260.969C176.084 261.659 174.367 262.004 172.505 262.004C170.419 262.004 168.59 261.675 167.018 261.017C165.413 260.389 164.177 259.464 163.311 258.241C162.412 257.049 161.963 255.575 161.963 253.819C161.963 252.283 162.412 250.965 163.311 249.868C164.177 248.77 165.429 247.876 167.066 247.186L167.066 246.998C165.91 246.653 164.867 246.152 163.937 245.493C163.006 244.866 162.284 244.066 161.77 243.094C161.257 242.122 161 240.993 161 239.707C161 237.857 161.53 236.273 162.589 234.956C163.616 233.67 164.996 232.682 166.729 231.992C168.43 231.334 170.307 231.004 172.361 231.004Z" fill="#E04749"/>
<path fill-rule="evenodd" clip-rule="evenodd" d="M111 84.8642C109.003 84.8818 100.105 94.0076 100.14 96.0044C100.123 94.0076 90.9968 85.1095 89 85.1445C90.9968 85.127 99.8949 76.0012 99.8599 74.0044C99.8774 76.0012 109.003 84.8818 111 84.8642Z" fill="#E04749"/>
<path fill-rule="evenodd" clip-rule="evenodd" d="M111 138.864C109.003 138.882 100.105 148.008 100.14 150.004C100.123 148.008 90.9968 139.109 89 139.144C90.9968 139.127 99.8949 130.001 99.8599 128.004C99.8774 130.001 109.003 138.882 111 138.864Z" fill="#E04749"/>
<path fill-rule="evenodd" clip-rule="evenodd" d="M89 193.145C90.9968 193.127 99.8949 184.001 99.8598 182.004C99.8774 184.001 109.003 192.899 111 192.864C109.003 192.882 100.105 202.008 100.14 204.004C100.123 202.008 90.9968 193.127 89 193.145Z" fill="#E04749"/>
</g>
<defs>
<linearGradient id="paint0_linear_2709_119963" x1="0" y1="278.004" x2="200" y2="0.00440461" gradientUnits="userSpaceOnUse">
<stop stop-color="#101010"/>
<stop offset="0.712851" stop-color="#201F1F"/>
<stop offset="1" stop-color="#101010"/>
</linearGradient>
<clipPath id="clip0_2709_119963">
<rect width="200" height="278" fill="white"/>
</clipPath>
</defs>
</svg>
