<svg width="24" height="25" viewBox="0 0 24 25" fill="none" xmlns="http://www.w3.org/2000/svg">
<path d="M24 12.0992C24 5.41709 18.6274 0 11.9998 0C5.37216 0 0 5.41709 0 12.0992C0 18.7813 5.37258 24.1984 11.9998 24.1984C13.2915 24.1984 14.533 23.9872 15.6987 23.6062L23.1932 25L20.1171 20.9923C22.4988 18.7809 24 15.6208 24 12.0992ZM6.35801 14.0362C5.29725 14.0362 4.43736 13.1692 4.43736 12.0996C4.43736 11.0301 5.29725 10.1631 6.35801 10.1631C7.41878 10.1631 8.27867 11.0301 8.27867 12.0996C8.27867 13.1692 7.41878 14.0362 6.35801 14.0362ZM11.9998 14.0362C10.939 14.0362 10.0791 13.1692 10.0791 12.0996C10.0791 11.0301 10.939 10.1631 11.9998 10.1631C13.0606 10.1631 13.9205 11.0301 13.9205 12.0996C13.9209 13.1692 13.0606 14.0362 11.9998 14.0362ZM17.6428 14.0362C16.582 14.0362 15.7221 13.1692 15.7221 12.0996C15.7221 11.0301 16.582 10.1631 17.6428 10.1631C18.7036 10.1631 19.5635 11.0301 19.5635 12.0996C19.5635 13.1692 18.7036 14.0362 17.6428 14.0362Z" fill="#7E7E7E"/>
</svg>
