<svg width="200" height="278" viewBox="0 0 200 278" fill="none" xmlns="http://www.w3.org/2000/svg">
<g clip-path="url(#clip0_2709_120536)">
<rect y="0.00439453" width="200" height="278" rx="10" fill="url(#paint0_linear_2709_120536)"/>
<path d="M172.472 214.964C175.652 221.229 183.943 218.885 184 212.718C184.057 205.804 175.519 202.199 172.699 195.737L172.661 195.658L172.623 195.757C169.67 202.159 161.057 205.587 161.001 212.502C160.925 218.648 169.159 221.15 172.472 214.964Z" fill="#E04749"/>
<path d="M27.5283 63.0445C24.3481 56.7799 16.0571 59.1242 16.0003 65.2903C15.9435 72.2051 24.4806 75.8102 27.3011 82.2718L27.339 82.3506L27.3768 82.2521C30.3298 75.8496 38.9427 72.4218 38.9995 65.507C39.0752 59.3606 30.8409 56.8587 27.5283 63.0445Z" fill="#E04749"/>
<path d="M16 47.0044V16.0044H23.0387V28.6992H23.2302L32.5193 16.0044H40.2762L30.8435 28.3664L42 47.0044H34.291L26.6777 33.9292L23.0387 38.6838V47.0044H16Z" fill="#E04749"/>
<path d="M184 231.004V262.004H176.961V249.31H176.77L167.481 262.004H159.724L169.157 249.642L158 231.004H165.709L173.322 244.08L176.961 239.325V231.004H184Z" fill="#E04749"/>
<path d="M100.011 105.624C85.9137 77.1853 50 88.2075 50 116.398C50 147.996 87.2304 159.168 99.807 188.577L100.011 189L100.193 188.577C112.77 159.168 150 147.996 150 116.398C150.023 88.1826 114.109 77.1853 100.011 105.624Z" fill="#E04749"/>
</g>
<defs>
<linearGradient id="paint0_linear_2709_120536" x1="0" y1="278.004" x2="200" y2="0.00440461" gradientUnits="userSpaceOnUse">
<stop stop-color="#101010"/>
<stop offset="0.712851" stop-color="#201F1F"/>
<stop offset="1" stop-color="#101010"/>
</linearGradient>
<clipPath id="clip0_2709_120536">
<rect width="200" height="278" fill="white"/>
</clipPath>
</defs>
</svg>
