<svg width="272" height="44" viewBox="0 0 272 44" fill="none" xmlns="http://www.w3.org/2000/svg">
<path d="M102.997 1.34375H169.016C170.163 1.34375 171.212 1.98547 171.735 3.00562L174.124 7.66861C174.817 9.02275 176.211 9.87456 177.732 9.87456H266.806C269.278 9.87456 271.282 11.8787 271.282 14.3509V38.438C271.282 40.9096 269.279 42.9135 266.807 42.9143L5.19572 42.9962C2.72298 42.997 0.718018 40.9927 0.718018 38.5199V14.3465C0.718018 11.8758 2.71972 9.87235 5.19037 9.87016L94.3604 9.79142C95.889 9.79007 97.2869 8.92915 97.976 7.56471L100.271 3.02126C100.79 1.99248 101.845 1.34375 102.997 1.34375Z" fill="#021F25" stroke="url(#paint0_linear_8401_43192)"/>
<defs>
<linearGradient id="paint0_linear_8401_43192" x1="136" y1="0.84375" x2="136" y2="42.076" gradientUnits="userSpaceOnUse">
<stop stop-color="#1B9477"/>
<stop offset="1" stop-color="#105453" stop-opacity="0"/>
</linearGradient>
</defs>
</svg>
