<svg width="24" height="24" viewBox="0 0 24 24" fill="none" xmlns="http://www.w3.org/2000/svg">
<rect width="24" height="24" rx="12" fill="#B78A51"/>
<path d="M17.1732 9.65145C18.0287 9.60614 18.5849 9.43309 19.2392 9.07362C20.0994 8.60116 20.4644 7.11851 20.4644 7.11851C18.3522 8.53783 15.4643 8.83807 15.4643 8.83807C14.6038 10.2173 13.811 11.0246 13.1477 11.493C13.0386 11.4296 12.9407 11.3489 12.8577 11.2539C12.6523 10.9832 12.6285 10.708 12.6351 10.6614C12.6417 10.6147 12.6899 10.5391 12.7994 10.5058C12.8366 10.4926 12.8764 10.4885 12.9155 10.4937C12.9546 10.4989 12.9919 10.5133 13.0242 10.5358C12.9922 10.3447 12.9744 10.2533 12.8621 10.1586C12.7578 10.071 12.568 10.0576 12.568 10.0576C12.4727 9.98073 12.3583 9.93093 12.2369 9.91348C11.9181 9.86899 11.7075 10.006 11.558 10.1452C11.3584 10.3311 11.3427 10.6775 11.199 11.0751C11.1344 11.2507 11.0088 11.3974 10.8449 11.4884C10.1832 11.0189 9.39342 10.2124 8.53597 8.83862C8.53597 8.83862 5.64813 8.53838 3.53613 7.11906C3.53613 7.11906 3.90091 8.6017 4.7611 9.07417C5.41562 9.43364 5.97183 9.60669 6.82709 9.652C6.82709 9.652 5.67387 9.75053 4.34867 9.11402C4.34867 9.11402 5.09357 10.2841 5.79464 10.6663C6.49572 11.0484 7.37125 11.1993 7.99428 11.1685C7.99428 11.1685 6.91062 11.4286 6.01017 11.0484C6.01017 11.0484 6.95608 12.2897 8.65071 12.2494C8.65071 12.2494 8.10108 12.3877 7.58869 12.2963C7.58869 12.2963 8.36837 12.9549 9.01275 13.0633C9.01275 13.0633 9.27292 13.1149 9.81078 13.0567C9.64501 13.1593 9.45457 13.2154 9.2595 13.2191C9.2595 13.2191 9.80996 13.5467 10.2196 13.5824C10.3283 13.5896 10.4373 13.5852 10.545 13.5693C10.4657 13.6173 10.3781 13.6499 10.2867 13.6654C10.2867 13.6654 10.8331 13.8595 11.1905 13.6902C10.7937 14.8893 10.5012 15.2488 10.5012 15.2488L10.6063 15.3738C10.6172 15.3869 10.631 15.3973 10.6466 15.4042C10.6622 15.4111 10.6793 15.4142 10.6963 15.4133C10.7134 15.4125 10.73 15.4077 10.7448 15.3993C10.7597 15.3909 10.7724 15.3792 10.7819 15.365L11.0174 15.043L10.7416 15.5416L10.8575 15.6571C10.8695 15.6692 10.8841 15.6784 10.9003 15.6839C10.9165 15.6893 10.9338 15.6909 10.9507 15.6886C10.9676 15.6862 10.9837 15.6799 10.9978 15.6703C11.0119 15.6606 11.0234 15.6477 11.0316 15.6328L11.1858 15.377L10.981 15.8451L11.1075 15.9491C11.1206 15.9601 11.1361 15.9678 11.1528 15.9717C11.1694 15.9756 11.1868 15.9756 11.2034 15.9716C11.2201 15.9676 11.2355 15.9598 11.2486 15.9488C11.2617 15.9378 11.272 15.9239 11.2787 15.9082L11.3734 15.7103L11.257 16.0842L11.394 16.1735C11.4082 16.1827 11.4243 16.1885 11.4412 16.1904C11.458 16.1923 11.475 16.1903 11.491 16.1845C11.5069 16.1787 11.5213 16.1694 11.5329 16.1571C11.5446 16.1449 11.5533 16.1301 11.5583 16.114L11.6678 15.799L11.5873 16.2248C11.5814 16.2564 11.5848 16.2891 11.5971 16.3188C11.6094 16.3486 11.63 16.3741 11.6566 16.3924L11.8959 16.5196L11.9885 15.9191L12.0808 16.5196L12.3204 16.3924C12.347 16.3741 12.3677 16.3486 12.3799 16.3188C12.3922 16.2891 12.3956 16.2564 12.3897 16.2248L12.3122 15.799L12.4217 16.114C12.4267 16.1301 12.4354 16.1449 12.4471 16.1571C12.4587 16.1694 12.4731 16.1787 12.489 16.1845C12.505 16.1903 12.522 16.1923 12.5389 16.1904C12.5557 16.1885 12.5718 16.1827 12.5861 16.1735L12.723 16.0842L12.6066 15.7103L12.7014 15.9082C12.7081 15.9239 12.7183 15.9378 12.7314 15.9488C12.7445 15.9598 12.76 15.9676 12.7766 15.9716C12.7932 15.9756 12.8106 15.9756 12.8272 15.9717C12.8439 15.9678 12.8594 15.9601 12.8725 15.9491L12.999 15.8451L12.7939 15.377L12.9484 15.6328C12.9566 15.6477 12.9682 15.6606 12.9822 15.6703C12.9963 15.6799 13.0124 15.6862 13.0293 15.6886C13.0463 15.6909 13.0635 15.6893 13.0797 15.6839C13.0959 15.6784 13.1106 15.6692 13.1226 15.6571L13.2384 15.5416L12.9604 15.0432L13.1959 15.3653C13.2054 15.3795 13.2181 15.3913 13.233 15.3997C13.2479 15.4081 13.2646 15.4129 13.2816 15.4138C13.2987 15.4146 13.3158 15.4115 13.3314 15.4046C13.3471 15.3977 13.3609 15.3872 13.3718 15.374L13.4769 15.249C13.4769 15.249 13.1833 14.8885 12.7854 13.684V13.681C13.1414 13.8693 13.7119 13.6668 13.7119 13.6668C13.6206 13.6512 13.5331 13.6186 13.4539 13.5707C13.5615 13.5866 13.6705 13.591 13.779 13.5838C14.1898 13.5475 14.7391 13.2205 14.7391 13.2205C14.5441 13.2167 14.3536 13.1606 14.1879 13.0581C14.7257 13.1162 14.9859 13.0646 14.9859 13.0646C15.6316 12.9555 16.4099 12.2977 16.4099 12.2977C15.8976 12.3891 15.3479 12.2507 15.3479 12.2507C17.0426 12.2903 17.9887 11.0498 17.9887 11.0498C17.0883 11.43 16.0046 11.1698 16.0046 11.1698C16.6274 11.2007 17.5032 11.0495 18.204 10.6676C18.9048 10.2858 19.6516 9.11375 19.6516 9.11375C18.3264 9.74998 17.1732 9.65145 17.1732 9.65145Z" fill="#EAEAEA"/>
<path d="M18.3174 11.2954C18.2952 11.3246 18.0052 11.6972 17.4717 12.0457C17.4586 15.0419 15.0092 17.4749 12.0003 17.4749C8.99139 17.4749 6.54173 15.0416 6.52858 12.0457C5.99511 11.6972 5.70537 11.3246 5.68291 11.2954L5.47888 11.0274C5.42899 11.3564 5.40399 11.6887 5.40412 12.0214C5.41535 13.7576 6.11523 15.4189 7.35101 16.6427C8.58678 17.8664 10.2581 18.5533 12.0001 18.5533C13.7422 18.5533 15.4135 17.8664 16.6493 16.6427C17.8851 15.4189 18.5849 13.7576 18.5962 12.0214C18.5962 11.6887 18.5713 11.3564 18.5217 11.0274L18.3174 11.2954Z" fill="#EAEAEA"/>
<path d="M6.91719 8.10985C7.32496 8.21439 7.6881 8.28809 7.97017 8.33831C8.4819 7.78039 9.10462 7.33481 9.79864 7.02996C10.4927 6.7251 11.2428 6.56766 12.0012 6.56766C12.7597 6.56766 13.5098 6.7251 14.2038 7.02996C14.8979 7.33481 15.5206 7.78039 16.0323 8.33831C16.3144 8.28809 16.6775 8.21439 17.0853 8.10985C17.1442 8.09457 17.205 8.07846 17.2671 8.06154C17.0823 7.81853 16.881 7.58844 16.6646 7.3729C16.0522 6.7624 15.3251 6.27813 14.5248 5.94772C13.7246 5.61732 12.8669 5.44727 12.0007 5.44727C11.1345 5.44727 10.2768 5.61732 9.47654 5.94772C8.67629 6.27813 7.94919 6.7624 7.33674 7.3729C7.12034 7.58844 6.91904 7.81853 6.73425 8.06154C6.79642 8.07846 6.85721 8.09457 6.91719 8.10985Z" fill="#EAEAEA"/>
</svg>
