<svg width="47" height="47" viewBox="0 0 47 47" fill="none" xmlns="http://www.w3.org/2000/svg">
<path d="M0.199715 23.529C0.199715 36.2603 10.5209 46.5815 23.2522 46.5815C35.9835 46.5815 46.3047 36.2603 46.3047 23.529C46.3047 10.7978 35.9835 0.476562 23.2522 0.476562C10.5209 0.476562 0.199715 10.7978 0.199715 23.529Z" fill="#333333"/>
<path d="M2.61923 23.5302C2.61923 34.9261 11.8551 44.162 23.251 44.162C34.6469 44.162 43.8828 34.9261 43.8828 23.5302C43.8828 12.1343 34.6469 2.89844 23.251 2.89844C11.8551 2.89844 2.61923 12.1343 2.61923 23.5302Z" fill="#252626"/>
<path d="M7.64709 23.53C7.64709 32.1487 14.6325 39.1342 23.2513 39.1342C31.87 39.1342 38.8555 32.1487 38.8555 23.53C38.8555 14.9112 31.87 7.92578 23.2513 7.92578C14.6325 7.92578 7.64709 14.9112 7.64709 23.53Z" fill="#333333"/>
<path d="M12.5859 23.5264C12.5859 29.4212 17.3634 34.1934 23.2529 34.1934C29.1424 34.1934 33.9199 29.4159 33.9199 23.5264C33.9199 17.6369 29.1424 12.8594 23.2529 12.8594C17.3634 12.8594 12.5859 17.6369 12.5859 23.5264Z" fill="#505151"/>
<path d="M23.2523 8.4117C14.9209 8.4117 8.1376 15.1896 8.1376 23.5211C8.1376 31.8526 14.9156 38.6358 23.2523 38.6358C31.5891 38.6358 38.3617 31.8579 38.3617 23.5211C38.3617 15.1843 31.5838 8.4117 23.2523 8.4117ZM23.2523 7.34766C32.185 7.34766 39.4258 14.5885 39.4258 23.5211C39.4258 32.4537 32.185 39.6999 23.2523 39.6999C14.3197 39.6999 7.07356 32.4591 7.07356 23.5211C7.07356 14.5831 14.3144 7.34766 23.2523 7.34766Z" fill="white"/>
<path d="M7.82917 24.2289L7.91962 20.9144L21.8799 23.6224L22.0395 23.4947L21.9863 23.2979L9.10071 17.286L10.9734 14.5514L21.4755 21.4464L18.1664 9.32697L21.3425 8.39062L23.0822 22.4998L23.2525 22.6115L23.4227 22.4998L25.1624 8.39062L28.3439 9.32697L25.0294 21.4464L35.5315 14.5514L37.4096 17.286L24.524 23.2979L24.4708 23.4947L24.6304 23.6224L38.5853 20.9144L38.6758 24.2289L26.1254 24.8248L35.9305 32.6827L33.9089 35.3109L24.2101 24.9152L24.0026 24.9258L23.9335 25.1174L30.8231 37.556L27.6949 38.6626L23.2525 26.9103L18.8101 38.6626L15.6871 37.556L22.5715 25.1174L22.5023 24.9258L22.2948 24.9152L12.5961 35.3109L10.5744 32.6827L20.3796 24.8248L7.82917 24.2289Z" fill="white"/>
<path d="M10.3072 23.6354C10.3072 30.8572 16.1705 36.6967 23.3685 36.6967C30.5665 36.6967 36.4297 30.8334 36.4297 23.6354C36.4297 16.4374 30.5665 10.5742 23.3685 10.5742C16.1705 10.5742 10.3072 16.4374 10.3072 23.6354Z" fill="white"/>
<path d="M21.3911 23.5261C21.3911 24.5529 22.2264 25.3882 23.2532 25.3882C24.28 25.3882 25.1152 24.5529 25.1152 23.5261C25.1152 22.4993 24.28 21.6641 23.2532 21.6641C22.2264 21.6641 21.3911 22.4993 21.3911 23.5261Z" fill="#333333"/>
</svg>
