<svg width="44" height="44" viewBox="0 0 44 44" fill="none" xmlns="http://www.w3.org/2000/svg">
<path d="M0.824905 22.0387C0.824905 33.9232 10.4596 43.5579 22.3441 43.5579C34.2286 43.5579 43.8633 33.9232 43.8633 22.0387C43.8633 10.1542 34.2286 0.519531 22.3441 0.519531C10.4596 0.519531 0.824905 10.1542 0.824905 22.0387Z" fill="#333333"/>
<path d="M3.08451 22.0408C3.08451 32.6787 11.7061 41.3003 22.344 41.3003C32.9819 41.3003 41.6035 32.6787 41.6035 22.0408C41.6035 11.4028 32.9819 2.78125 22.344 2.78125C11.7061 2.78125 3.08451 11.4028 3.08451 22.0408Z" fill="#252626"/>
<path d="M7.77755 22.0429C7.77755 30.0883 14.2984 36.6092 22.3439 36.6092C30.3893 36.6092 36.9102 30.0883 36.9102 22.0429C36.9102 13.9974 30.3893 7.47656 22.3439 7.47656C14.2984 7.47656 7.77755 13.9974 7.77755 22.0429Z" fill="#333333"/>
<path d="M12.3857 22.0357C12.3857 27.5384 16.8455 31.9932 22.3433 31.9932C27.841 31.9932 32.3008 27.5334 32.3008 22.0357C32.3008 16.5379 27.841 12.0781 22.3433 12.0781C16.8455 12.0781 12.3857 16.5379 12.3857 22.0357Z" fill="#505151"/>
<path d="M22.3437 7.93077C14.5664 7.93077 8.23431 14.2579 8.23431 22.0352C8.23431 29.8125 14.5614 36.1446 22.3437 36.1446C30.126 36.1446 36.4481 29.8175 36.4481 22.0352C36.4481 14.2529 30.121 7.93077 22.3437 7.93077ZM22.3437 6.9375C30.6822 6.9375 37.4414 13.6967 37.4414 22.0352C37.4414 30.3737 30.6822 37.1379 22.3437 37.1379C14.0052 37.1379 7.24104 30.3787 7.24104 22.0352C7.24104 13.6917 14.0002 6.9375 22.3437 6.9375Z" fill="white"/>
<path d="M7.94534 22.6989L8.02977 19.6048L21.0615 22.1327L21.2105 22.0135L21.1608 21.8298L9.1323 16.2178L10.8805 13.6651L20.684 20.1015L17.595 8.78813L20.5599 7.91406L22.1839 21.0848L22.3428 21.1891L22.5017 21.0848L24.1257 7.91406L27.0956 8.78813L24.0016 20.1015L33.8051 13.6651L35.5582 16.2178L23.5298 21.8298L23.4801 22.0135L23.6291 22.1327L36.6558 19.6048L36.7402 22.6989L25.0246 23.2551L34.1776 30.5904L32.2904 33.0438L23.2367 23.3395L23.043 23.3495L22.9785 23.5283L29.4099 35.1396L26.4897 36.1726L22.3428 25.2019L18.1959 36.1726L15.2806 35.1396L21.7071 23.5283L21.6425 23.3495L21.4488 23.3395L12.3952 33.0438L10.508 30.5904L19.661 23.2551L7.94534 22.6989Z" fill="white"/>
<path d="M19.6213 22.038C19.6213 23.5428 20.8431 24.7595 22.3429 24.7595C23.8427 24.7595 25.0645 23.5378 25.0645 22.038C25.0645 20.5381 23.8427 19.3164 22.3429 19.3164C20.8431 19.3164 19.6213 20.5381 19.6213 22.038Z" fill="white"/>
<path d="M20.6056 22.039C20.6056 22.9975 21.3853 23.7772 22.3438 23.7772C23.3023 23.7772 24.082 22.9975 24.082 22.039C24.082 21.0805 23.3023 20.3008 22.3438 20.3008C21.3853 20.3008 20.6056 21.0805 20.6056 22.039Z" fill="#333333"/>
</svg>
