<svg width="200" height="278" viewBox="0 0 200 278" fill="none" xmlns="http://www.w3.org/2000/svg">
<g clip-path="url(#clip0_2709_119837)">
<rect y="0.00439453" width="200" height="278" rx="10" fill="url(#paint0_linear_2709_119837)"/>
<path fill-rule="evenodd" clip-rule="evenodd" d="M161 207.651C163.088 207.633 172.39 198.092 172.353 196.004C172.372 198.092 181.912 207.395 184 207.358C181.912 207.376 172.61 216.917 172.646 219.004C172.628 216.917 163.088 207.633 161 207.651Z" fill="#E04749"/>
<path fill-rule="evenodd" clip-rule="evenodd" d="M39 70.3579C36.9124 70.3762 27.6099 79.9168 27.6465 82.0044C27.6282 79.9168 18.0876 70.6142 16 70.6509C18.0876 70.6326 27.3902 61.092 27.3535 59.0044C27.3718 61.092 36.9124 70.3762 39 70.3579Z" fill="#E04749"/>
<path d="M26.4712 47.0044C24.2917 47.0044 22.4167 46.5531 20.8462 45.6505C19.3077 44.7479 18.0256 43.3317 17 41.402L21.5192 38.414C21.9679 39.2544 22.5769 39.908 23.3462 40.3749C24.1154 40.8417 24.9327 41.0752 25.7981 41.0752C27.1763 41.0752 28.2019 40.6706 28.875 39.8613C29.5801 39.0521 29.9327 37.6048 29.9327 35.5195V16.0044H37V36.0797C37 38.0717 36.6314 39.908 35.8942 41.5887C35.157 43.2383 34.0032 44.5611 32.4327 45.5571C30.8942 46.522 28.9071 47.0044 26.4712 47.0044Z" fill="#E04749"/>
<path d="M173.529 231.004C175.708 231.004 177.583 231.456 179.154 232.358C180.692 233.261 181.974 234.677 183 236.607L178.481 239.595C178.032 238.754 177.423 238.101 176.654 237.634C175.885 237.167 175.067 236.934 174.202 236.934C172.824 236.934 171.798 237.338 171.125 238.147C170.42 238.957 170.067 240.404 170.067 242.489V262.004H163V241.929C163 239.937 163.369 238.101 164.106 236.42C164.843 234.77 165.997 233.448 167.567 232.452C169.106 231.487 171.093 231.004 173.529 231.004Z" fill="#E04749"/>
<path fill-rule="evenodd" clip-rule="evenodd" d="M150 138.363C140.924 138.443 100.478 179.924 100.637 189C100.557 179.924 59.0764 139.478 50 139.637C59.0764 139.557 99.5224 98.0764 99.3632 89C99.4428 98.0764 140.924 138.443 150 138.363Z" fill="#E04749"/>
</g>
<defs>
<linearGradient id="paint0_linear_2709_119837" x1="0" y1="278.004" x2="200" y2="0.00440461" gradientUnits="userSpaceOnUse">
<stop stop-color="#101010"/>
<stop offset="0.712851" stop-color="#201F1F"/>
<stop offset="1" stop-color="#101010"/>
</linearGradient>
<clipPath id="clip0_2709_119837">
<rect width="200" height="278" fill="white"/>
</clipPath>
</defs>
</svg>
