<svg width="200" height="278" viewBox="0 0 200 278" fill="none" xmlns="http://www.w3.org/2000/svg">
<g clip-path="url(#clip0_2709_119897)">
<rect y="0.00439453" width="200" height="278" rx="10" fill="url(#paint0_linear_2709_119897)"/>
<path fill-rule="evenodd" clip-rule="evenodd" d="M161 207.651C163.088 207.633 172.39 198.092 172.353 196.004C172.372 198.092 181.912 207.395 184 207.358C181.912 207.376 172.61 216.917 172.646 219.004C172.628 216.917 163.088 207.633 161 207.651Z" fill="#E04749"/>
<path fill-rule="evenodd" clip-rule="evenodd" d="M39 70.3579C36.9124 70.3762 27.6099 79.9168 27.6465 82.0044C27.6282 79.9168 18.0876 70.6142 16 70.6509C18.0876 70.6326 27.3902 61.092 27.3535 59.0044C27.3718 61.092 36.9124 70.3762 39 70.3579Z" fill="#E04749"/>
<path d="M16 47.0044V16.0044H23.0387V28.6992H23.2302L32.5193 16.0044H40.2762L30.8435 28.3664L42 47.0044H34.291L26.6777 33.9292L23.0387 38.6838V47.0044H16Z" fill="#E04749"/>
<path d="M184 231.004V262.004H176.961V249.31H176.77L167.481 262.004H159.724L169.157 249.642L158 231.004H165.709L173.322 244.08L176.961 239.325V231.004H184Z" fill="#E04749"/>
<path fill-rule="evenodd" clip-rule="evenodd" d="M150 138.363C140.924 138.443 100.478 179.924 100.637 189C100.557 179.924 59.0764 139.478 50 139.637C59.0764 139.557 99.5224 98.0764 99.3632 89C99.4428 98.0764 140.924 138.443 150 138.363Z" fill="#E04749"/>
</g>
<defs>
<linearGradient id="paint0_linear_2709_119897" x1="0" y1="278.004" x2="200" y2="0.00440461" gradientUnits="userSpaceOnUse">
<stop stop-color="#101010"/>
<stop offset="0.712851" stop-color="#201F1F"/>
<stop offset="1" stop-color="#101010"/>
</linearGradient>
<clipPath id="clip0_2709_119897">
<rect width="200" height="278" fill="white"/>
</clipPath>
</defs>
</svg>
