<svg width="200" height="278" viewBox="0 0 200 278" fill="none" xmlns="http://www.w3.org/2000/svg">
<g clip-path="url(#clip0_2709_120056)">
<rect y="0.00439453" width="200" height="278" rx="10" fill="url(#paint0_linear_2709_120056)"/>
<path fill-rule="evenodd" clip-rule="evenodd" d="M161 207.651C163.088 207.633 172.39 198.092 172.353 196.004C172.372 198.092 181.912 207.395 184 207.358C181.912 207.376 172.61 216.917 172.646 219.004C172.628 216.917 163.088 207.633 161 207.651Z" fill="#E04749"/>
<path fill-rule="evenodd" clip-rule="evenodd" d="M39 70.3579C36.9124 70.3762 27.6099 79.9168 27.6465 82.0044C27.6282 79.9168 18.0876 70.6142 16 70.6509C18.0876 70.6326 27.3902 61.092 27.3535 59.0044C27.3718 61.092 36.9124 70.3762 39 70.3579Z" fill="#E04749"/>
<path d="M26.7834 47.0044C25.1145 47.0044 23.6061 46.8127 22.2582 46.4294C20.9424 46.0461 19.771 45.535 18.744 44.8962C17.717 44.2574 16.8023 43.5387 16 42.7401L19.1772 38.2841C20.108 39.1146 21.1189 39.8333 22.2101 40.4403C23.3012 41.0152 24.4887 41.3027 25.7724 41.3027C26.7994 41.3027 27.698 41.127 28.4683 40.7756C29.2385 40.3923 29.8322 39.8493 30.2495 39.1466C30.6988 38.4439 30.9234 37.5814 30.9234 36.5593C30.9234 35.026 30.4741 33.8601 29.5755 33.0616C28.6769 32.263 27.5215 31.8637 26.1094 31.8637C25.2429 31.8637 24.5047 31.9755 23.895 32.1991C23.2852 32.4227 22.515 32.822 21.5842 33.397L18.407 31.3846L19.2735 16.0044H36.6039V21.9457H25.3873L24.8578 27.6474C25.4675 27.3918 26.0292 27.2161 26.5427 27.1203C27.0562 26.9925 27.6338 26.9287 28.2757 26.9287C30.0408 26.9287 31.6616 27.2641 33.1379 27.9348C34.6142 28.6056 35.7856 29.6438 36.6521 31.0492C37.5507 32.4547 38 34.2275 38 36.3676C38 38.6355 37.4705 40.568 36.4114 42.1651C35.3844 43.7303 34.0204 44.9281 32.3195 45.7586C30.6185 46.5891 28.7732 47.0044 26.7834 47.0044Z" fill="#E04749"/>
<path d="M173.217 231.004C174.885 231.004 176.394 231.196 177.742 231.579C179.058 231.963 180.229 232.474 181.256 233.113C182.283 233.751 183.198 234.47 184 235.269L180.823 239.725C179.892 238.894 178.881 238.175 177.79 237.569C176.699 236.994 175.511 236.706 174.228 236.706C173.201 236.706 172.302 236.882 171.532 237.233C170.761 237.616 170.168 238.159 169.751 238.862C169.301 239.565 169.077 240.427 169.077 241.45C169.077 242.983 169.526 244.149 170.425 244.947C171.323 245.746 172.478 246.145 173.891 246.145C174.757 246.145 175.495 246.033 176.105 245.81C176.715 245.586 177.485 245.187 178.416 244.612L181.593 246.624L180.726 262.004H163.396V256.063H174.613L175.142 250.361C174.532 250.617 173.971 250.793 173.457 250.888C172.944 251.016 172.366 251.08 171.724 251.08C169.959 251.08 168.338 250.745 166.862 250.074C165.386 249.403 164.214 248.365 163.348 246.96C162.449 245.554 162 243.781 162 241.641C162 239.373 162.53 237.441 163.589 235.844C164.616 234.278 165.98 233.081 167.681 232.25C169.381 231.42 171.227 231.004 173.217 231.004Z" fill="#E04749"/>
<path fill-rule="evenodd" clip-rule="evenodd" d="M87 84.8642C85.0032 84.8818 76.1051 94.0076 76.1402 96.0044C76.1226 94.0076 66.9968 85.1095 65 85.1445C66.9968 85.127 75.8949 76.0012 75.8599 74.0044C75.8774 76.0012 85.0032 84.8818 87 84.8642Z" fill="#E04749"/>
<path fill-rule="evenodd" clip-rule="evenodd" d="M135 84.8642C133.003 84.8818 124.105 94.0076 124.14 96.0044C124.123 94.0076 114.997 85.1095 113 85.1445C114.997 85.127 123.895 76.0012 123.86 74.0044C123.877 76.0012 133.003 84.8818 135 84.8642Z" fill="#E04749"/>
<path fill-rule="evenodd" clip-rule="evenodd" d="M111 138.864C109.003 138.882 100.105 148.008 100.14 150.004C100.123 148.008 90.9968 139.109 89 139.144C90.9968 139.127 99.8949 130.001 99.8599 128.004C99.8774 130.001 109.003 138.882 111 138.864Z" fill="#E04749"/>
<path fill-rule="evenodd" clip-rule="evenodd" d="M113 193.145C114.997 193.127 123.895 184.001 123.86 182.004C123.877 184.001 133.003 192.899 135 192.864C133.003 192.882 124.105 202.008 124.14 204.004C124.123 202.008 114.997 193.127 113 193.145Z" fill="#E04749"/>
<path fill-rule="evenodd" clip-rule="evenodd" d="M65 193.145C66.9968 193.127 75.8949 184.001 75.8598 182.004C75.8774 184.001 85.0032 192.899 87 192.864C85.0032 192.882 76.1051 202.008 76.1401 204.004C76.1226 202.008 66.9968 193.127 65 193.145Z" fill="#E04749"/>
</g>
<defs>
<linearGradient id="paint0_linear_2709_120056" x1="0" y1="278.004" x2="200" y2="0.00440461" gradientUnits="userSpaceOnUse">
<stop stop-color="#101010"/>
<stop offset="0.712851" stop-color="#201F1F"/>
<stop offset="1" stop-color="#101010"/>
</linearGradient>
<clipPath id="clip0_2709_120056">
<rect width="200" height="278" fill="white"/>
</clipPath>
</defs>
</svg>
