<svg width="201" height="278" viewBox="0 0 201 278" fill="none" xmlns="http://www.w3.org/2000/svg">
<g clip-path="url(#clip0_2709_120413)">
<rect x="1" y="0.00439453" width="200" height="278" rx="10" fill="url(#paint0_linear_2709_120413)"/>
<path fill-rule="evenodd" clip-rule="evenodd" d="M162 207.651C164.088 207.633 173.39 198.092 173.353 196.004C173.372 198.092 182.912 207.395 185 207.358C182.912 207.376 173.61 216.917 173.646 219.004C173.628 216.917 164.088 207.633 162 207.651Z" fill="#E04749"/>
<path fill-rule="evenodd" clip-rule="evenodd" d="M40 70.3579C37.9124 70.3762 28.6099 79.9168 28.6465 82.0044C28.6282 79.9168 19.0876 70.6142 17 70.6509C19.0876 70.6326 28.3902 61.092 28.3535 59.0044C28.3718 61.092 37.9124 70.3762 40 70.3579Z" fill="#E04749"/>
<path d="M28.4058 47.0044C26.4283 47.0044 24.639 46.6594 23.0381 45.9695C21.4686 45.2796 20.2287 44.3231 19.3184 43.1C18.4395 41.8456 18 40.4187 18 38.8193C18 37.5962 18.2197 36.5456 18.6592 35.6675C19.13 34.7581 19.7422 33.9584 20.4955 33.2684C21.2803 32.5785 22.1435 31.9826 23.0852 31.4809V31.2927C21.9552 30.4146 20.9978 29.4111 20.213 28.2821C19.4596 27.1531 19.083 25.8046 19.083 24.2366C19.083 22.5431 19.491 21.0848 20.3072 19.8618C21.1233 18.6073 22.2534 17.6508 23.6973 16.9923C25.1413 16.3337 26.7892 16.0044 28.6413 16.0044C31.4036 16.0044 33.6009 16.757 35.2332 18.2624C36.8969 19.7363 37.7287 21.712 37.7287 24.1895C37.7287 25.1303 37.5404 26.0241 37.1637 26.8709C36.8184 27.6862 36.3475 28.4232 35.7511 29.0818C35.1547 29.709 34.5112 30.2578 33.8206 30.7282V30.9164C34.7623 31.4182 35.6256 32.0297 36.4103 32.751C37.1951 33.4409 37.8229 34.2877 38.2937 35.2912C38.7646 36.2634 39 37.408 39 38.7252C39 40.2932 38.5605 41.7044 37.6816 42.9589C36.8027 44.1819 35.5628 45.1698 33.9619 45.9225C32.3924 46.6437 30.5404 47.0044 28.4058 47.0044ZM30.2892 29.0347C30.8857 28.3448 31.3408 27.6392 31.6547 26.9179C31.9686 26.1966 32.1256 25.4439 32.1256 24.6599C32.1256 23.8759 31.9843 23.2017 31.7018 22.6372C31.4193 22.0727 30.9955 21.6336 30.4305 21.32C29.8969 20.9751 29.2534 20.8026 28.5 20.8026C27.5897 20.8026 26.8049 21.1005 26.1457 21.6964C25.4865 22.2608 25.157 23.1076 25.157 24.2366C25.157 25.0519 25.3767 25.7419 25.8161 26.3064C26.2556 26.8709 26.852 27.3726 27.6054 27.8117C28.3901 28.2507 29.2848 28.6584 30.2892 29.0347ZM28.5471 42.2062C29.3004 42.2062 29.9753 42.0808 30.5717 41.8299C31.1996 41.5476 31.6861 41.14 32.0314 40.6068C32.3767 40.0423 32.5493 39.3367 32.5493 38.49C32.5493 37.6119 32.2825 36.8906 31.7489 36.3261C31.2466 35.7302 30.509 35.2128 29.5359 34.7737C28.5942 34.3033 27.4955 33.8016 26.2399 33.2684C25.5807 33.8643 25.0314 34.5856 24.5919 35.4323C24.1525 36.2477 23.9327 37.1101 23.9327 38.0196C23.9327 38.8977 24.1368 39.6503 24.5448 40.2775C24.9843 40.9047 25.5493 41.3908 26.2399 41.7358C26.9619 42.0494 27.7309 42.2062 28.5471 42.2062Z" fill="#E04749"/>
<path d="M172.594 231.004C174.572 231.004 176.361 231.349 177.962 232.039C179.531 232.729 180.771 233.686 181.682 234.909C182.561 236.163 183 237.59 183 239.19C183 240.413 182.78 241.463 182.341 242.341C181.87 243.251 181.258 244.05 180.504 244.74C179.72 245.43 178.857 246.026 177.915 246.528L177.915 246.716C179.045 247.594 180.002 248.598 180.787 249.727C181.54 250.856 181.917 252.204 181.917 253.772C181.917 255.466 181.509 256.924 180.693 258.147C179.877 259.401 178.747 260.358 177.303 261.017C175.859 261.675 174.211 262.004 172.359 262.004C169.596 262.004 167.399 261.252 165.767 259.746C164.103 258.272 163.271 256.297 163.271 253.819C163.271 252.878 163.46 251.985 163.836 251.138C164.182 250.323 164.652 249.586 165.249 248.927C165.845 248.3 166.489 247.751 167.179 247.281L167.179 247.092C166.238 246.591 165.374 245.979 164.59 245.258C163.805 244.568 163.177 243.721 162.706 242.718C162.235 241.745 162 240.601 162 239.284C162 237.716 162.439 236.304 163.318 235.05C164.197 233.827 165.437 232.839 167.038 232.086C168.608 231.365 170.46 231.004 172.594 231.004ZM170.711 248.974C170.114 249.664 169.659 250.37 169.345 251.091C169.031 251.812 168.874 252.565 168.874 253.349C168.874 254.133 169.016 254.807 169.298 255.372C169.581 255.936 170.004 256.375 170.57 256.689C171.103 257.034 171.747 257.206 172.5 257.206C173.41 257.206 174.195 256.908 174.854 256.312C175.513 255.748 175.843 254.901 175.843 253.772C175.843 252.957 175.623 252.267 175.184 251.702C174.744 251.138 174.148 250.636 173.395 250.197C172.61 249.758 171.715 249.35 170.711 248.974ZM172.453 235.803C171.7 235.803 171.025 235.928 170.428 236.179C169.8 236.461 169.314 236.869 168.969 237.402C168.623 237.966 168.451 238.672 168.451 239.519C168.451 240.397 168.717 241.118 169.251 241.683C169.753 242.279 170.491 242.796 171.464 243.235C172.406 243.705 173.504 244.207 174.76 244.74C175.419 244.145 175.969 243.423 176.408 242.576C176.848 241.761 177.067 240.899 177.067 239.989C177.067 239.111 176.863 238.358 176.455 237.731C176.016 237.104 175.451 236.618 174.76 236.273C174.038 235.959 173.269 235.803 172.453 235.803Z" fill="#E04749"/>
<path fill-rule="evenodd" clip-rule="evenodd" d="M88 84.8642C86.0032 84.8818 77.1051 94.0076 77.1402 96.0044C77.1226 94.0076 67.9968 85.1095 66 85.1445C67.9968 85.127 76.8949 76.0012 76.8599 74.0044C76.8774 76.0012 86.0032 84.8818 88 84.8642Z" fill="#E04749"/>
<path fill-rule="evenodd" clip-rule="evenodd" d="M136 84.8642C134.003 84.8818 125.105 94.0076 125.14 96.0044C125.123 94.0076 115.997 85.1095 114 85.1445C115.997 85.127 124.895 76.0012 124.86 74.0044C124.877 76.0012 134.003 84.8818 136 84.8642Z" fill="#E04749"/>
<path fill-rule="evenodd" clip-rule="evenodd" d="M136 138.864C134.003 138.882 125.105 148.008 125.14 150.004C125.123 148.008 115.997 139.109 114 139.144C115.997 139.127 124.895 130.001 124.86 128.004C124.877 130.001 134.003 138.882 136 138.864Z" fill="#E04749"/>
<path fill-rule="evenodd" clip-rule="evenodd" d="M112 111.864C110.003 111.882 101.105 121.008 101.14 123.004C101.123 121.008 91.9968 112.109 90 112.144C91.9968 112.127 100.895 103.001 100.86 101.004C100.877 103.001 110.003 111.882 112 111.864Z" fill="#E04749"/>
<path fill-rule="evenodd" clip-rule="evenodd" d="M90 166.145C91.9968 166.127 100.895 157.001 100.86 155.004C100.877 157.001 110.003 165.899 112 165.864C110.003 165.882 101.105 175.008 101.14 177.004C101.123 175.008 91.9968 166.127 90 166.145Z" fill="#E04749"/>
<path fill-rule="evenodd" clip-rule="evenodd" d="M88 138.864C86.0032 138.882 77.1051 148.008 77.1402 150.004C77.1226 148.008 67.9968 139.109 66 139.144C67.9968 139.127 76.8949 130.001 76.8599 128.004C76.8774 130.001 86.0032 138.882 88 138.864Z" fill="#E04749"/>
<path fill-rule="evenodd" clip-rule="evenodd" d="M114 193.145C115.997 193.127 124.895 184.001 124.86 182.004C124.877 184.001 134.003 192.899 136 192.864C134.003 192.882 125.105 202.008 125.14 204.004C125.123 202.008 115.997 193.127 114 193.145Z" fill="#E04749"/>
<path fill-rule="evenodd" clip-rule="evenodd" d="M66 193.145C67.9968 193.127 76.8949 184.001 76.8598 182.004C76.8774 184.001 86.0032 192.899 88 192.864C86.0032 192.882 77.1051 202.008 77.1401 204.004C77.1226 202.008 67.9968 193.127 66 193.145Z" fill="#E04749"/>
</g>
<defs>
<linearGradient id="paint0_linear_2709_120413" x1="1" y1="278.004" x2="201" y2="0.00440461" gradientUnits="userSpaceOnUse">
<stop stop-color="#101010"/>
<stop offset="0.712851" stop-color="#201F1F"/>
<stop offset="1" stop-color="#101010"/>
</linearGradient>
<clipPath id="clip0_2709_120413">
<rect width="200" height="278" fill="white" transform="translate(0.5)"/>
</clipPath>
</defs>
</svg>
