<svg width="33" height="32" viewBox="0 0 33 32" fill="none" xmlns="http://www.w3.org/2000/svg">
<g clip-path="url(#clip0_9415_91991)">
<path d="M7.425 19.3383L6.31113 23.4966L2.23994 23.5827C1.02325 21.326 0.33313 18.7441 0.33313 16.0003C0.33313 13.3472 0.97838 10.8452 2.12213 8.64209H2.123L5.7475 9.30659L7.33525 12.9093C7.00294 13.8782 6.82182 14.9182 6.82182 16.0003C6.82194 17.1748 7.03469 18.3001 7.425 19.3383Z" fill="#FBBB00"/>
<path d="M32.0532 13.0112C32.2369 13.9791 32.3327 14.9787 32.3327 16.0002C32.3327 17.1457 32.2123 18.2631 31.9829 19.3409C31.204 23.0086 29.1688 26.2112 26.3495 28.4776L26.3486 28.4767L21.7834 28.2438L21.1372 24.2104C23.008 23.1132 24.47 21.3963 25.2401 19.3409H16.6845V13.0112H25.3649H32.0532Z" fill="#518EF8"/>
<path d="M26.3482 28.4763L26.3491 28.4772C23.6071 30.6811 20.124 31.9998 16.3324 31.9998C10.2392 31.9998 4.94163 28.5941 2.2392 23.5823L7.42426 19.3379C8.77545 22.944 12.2541 25.5111 16.3324 25.5111C18.0853 25.5111 19.7276 25.0372 21.1368 24.21L26.3482 28.4763Z" fill="#28B446"/>
<path d="M26.546 3.6835L21.3627 7.927C19.9043 7.01538 18.1803 6.48875 16.3333 6.48875C12.1627 6.48875 8.61894 9.17356 7.33544 12.909L2.12312 8.64175H2.12225C4.78512 3.50769 10.1495 0 16.3333 0C20.2154 0 23.775 1.38287 26.546 3.6835Z" fill="#F14336"/>
</g>
<defs>
<clipPath id="clip0_9415_91991">
<rect width="32" height="32" fill="white" transform="translate(0.333332)"/>
</clipPath>
</defs>
</svg>
