<svg xmlns="http://www.w3.org/2000/svg" width="15" height="12" viewBox="0 0 15 12" fill="none">
  <path d="M2.00008 6.48807H1.00004C0.448332 6.48807 0 6.92438 0 7.46354V10.3905C0 10.9298 0.448299 11.3661 1.00004 11.3661H2.00008C2.55282 11.3661 3.00003 10.9298 3.00003 10.3905V7.46354C3.00003 6.92438 2.55282 6.48807 2.00008 6.48807ZM10 2.58557H8.99998C8.44735 2.58557 8.00014 3.02188 8.00014 3.56114V10.3905C8.00014 10.9298 8.44735 11.3661 8.99998 11.3661H10C10.5529 11.3661 11.0001 10.9298 11.0001 10.3905V3.56114C11.0001 3.02192 10.5528 2.58557 10 2.58557ZM14.0001 0.634277H12.9999C12.4473 0.634277 12.0001 1.07068 12.0001 1.60994V10.3905C12.0001 10.9299 12.4473 11.3662 12.9999 11.3662H14.0001C14.5528 11.3662 15 10.9299 15 10.3905V1.60991C15 1.07068 14.5528 0.634277 14.0001 0.634277ZM6.00005 4.53674H5.00008C4.44837 4.53674 4.00004 4.97321 4.00004 5.51241V10.3905C4.00004 10.9299 4.44833 11.3662 5.00008 11.3662H6.00005C6.55285 11.3662 7.00006 10.9299 7.00006 10.3905V5.51241C7.00006 4.97321 6.55285 4.53674 6.00005 4.53674Z" fill="#EAEAEA"/>
</svg>