<svg width="26" height="36" viewBox="0 0 26 36" fill="none" xmlns="http://www.w3.org/2000/svg">
<g clip-path="url(#clip0_3185_202115)">
<rect width="26" height="36" rx="1.3" fill="#292929"/>
<g clip-path="url(#clip1_3185_202115)">
<path d="M7.96907 14V8.22047C7.96907 7.90551 7.97869 7.53281 7.99794 7.10236C8.0268 6.67192 8.04605 6.29921 8.05567 5.98425H7.99794C7.88247 6.25722 7.7622 6.53543 7.63711 6.8189C7.51203 7.09186 7.38213 7.37533 7.24742 7.66929L6.03505 9.84252H11V11.6063H4V10.0157L7.34845 4H9.94639V14H7.96907Z" fill="#E04749"/>
</g>
<g clip-path="url(#clip2_3185_202115)">
<path fill-rule="evenodd" clip-rule="evenodd" d="M23 25.9108C21.7293 25.922 16.0669 31.7293 16.0892 33C16.078 31.7293 10.2707 26.0669 9 26.0892C10.2707 26.078 15.9331 20.2707 15.9108 19C15.922 20.2707 21.7293 25.922 23 25.9108Z" fill="#E04749"/>
</g>
</g>
<defs>
<clipPath id="clip0_3185_202115">
<rect width="26" height="36" fill="white"/>
</clipPath>
<clipPath id="clip1_3185_202115">
<rect width="7" height="10" fill="white" transform="translate(4 4)"/>
</clipPath>
<clipPath id="clip2_3185_202115">
<rect width="14" height="14" fill="white" transform="translate(9 19)"/>
</clipPath>
</defs>
</svg>
