<svg width="26" height="36" viewBox="0 0 26 36" fill="none" xmlns="http://www.w3.org/2000/svg">
<g clip-path="url(#clip0_3185_202121)">
<rect width="26" height="36" rx="1.3" fill="#292929"/>
<g clip-path="url(#clip1_3185_202121)">
<path d="M7.96907 14V8.22047C7.96907 7.90551 7.97869 7.53281 7.99794 7.10236C8.0268 6.67192 8.04605 6.29921 8.05567 5.98425H7.99794C7.88247 6.25722 7.7622 6.53543 7.63711 6.8189C7.51203 7.09186 7.38213 7.37533 7.24742 7.66929L6.03505 9.84252H11V11.6063H4V10.0157L7.34845 4H9.94639V14H7.96907Z" fill="#EAEAEA"/>
</g>
<g clip-path="url(#clip2_3185_202121)">
<path fill-rule="evenodd" clip-rule="evenodd" d="M20.2663 23.6949C19.1809 23.6949 18.2462 24.3247 17.8065 25.2333C17.4623 25.6415 16.9271 25.8183 16.3869 25.9353C16.51 25.2806 16.6608 24.5637 17.1734 24.1405C18.0905 23.7048 18.7261 22.7788 18.7261 21.7034C18.7261 20.2098 17.505 19 15.9975 19C14.4899 19 13.2688 20.2098 13.2688 21.7034C13.2688 22.7788 13.9045 23.7048 14.8216 24.1405C15.2663 24.4616 15.4648 25.2532 15.603 25.9353C15.0653 25.8183 14.5301 25.6415 14.1884 25.2358C13.7487 24.3272 12.8141 23.6974 11.7286 23.6974C10.2211 23.6974 9 24.9072 9 26.4008C9 27.8944 10.2211 29.1042 11.7286 29.1042C12.8141 29.1042 13.8492 28.3748 14.2889 27.4662C14.6683 27.048 15.1558 26.9484 15.7186 26.8439C15.7739 27.6081 15.7437 28.4371 15.6281 28.92C15.0754 30.4907 13.6809 32.3652 12.9372 33C13.9497 32.1387 18.0528 32.1387 19.0653 33C18.3191 32.3652 16.8266 30.3887 16.3744 28.92C16.2312 28.33 16.2487 27.2297 16.2588 26.8414C16.8317 26.9484 17.3266 27.0455 17.7111 27.4662C18.1508 28.3748 19.1859 29.1042 20.2714 29.1042C21.7789 29.1042 23 27.8944 23 26.4008C22.995 24.9047 21.7739 23.6949 20.2663 23.6949Z" fill="#EAEAEA"/>
</g>
</g>
<defs>
<clipPath id="clip0_3185_202121">
<rect width="26" height="36" fill="white"/>
</clipPath>
<clipPath id="clip1_3185_202121">
<rect width="7" height="10" fill="white" transform="translate(4 4)"/>
</clipPath>
<clipPath id="clip2_3185_202121">
<rect width="14" height="14" fill="white" transform="translate(9 19)"/>
</clipPath>
</defs>
</svg>
