<svg width="26" height="36" viewBox="0 0 26 36" fill="none" xmlns="http://www.w3.org/2000/svg">
<g clip-path="url(#clip0_3185_202248)">
<rect width="26" height="36" rx="1.3" fill="#292929"/>
<g clip-path="url(#clip1_3185_202248)">
<path d="M4 13.8179V12.0121H6.10756V6.4431H4.29017V5.06222C4.81961 4.96105 5.26759 4.83966 5.63412 4.69803C6.01083 4.5564 6.36718 4.38442 6.70317 4.18209H8.35256V12.0121H10.1699V13.8179H4Z" fill="#E04749"/>
<path d="M14.5332 14C13.4947 14 12.6547 13.5701 12.0133 12.7102C11.3821 11.8503 11.0664 10.6009 11.0664 8.96206C11.0664 7.3131 11.3821 6.07385 12.0133 5.24431C12.6547 4.41477 13.4947 4 14.5332 4C15.5717 4 16.4066 4.41983 17.0379 5.25948C17.6793 6.08902 18 7.32322 18 8.96206C18 10.6009 17.6793 11.8503 17.0379 12.7102C16.4066 13.5701 15.5717 14 14.5332 14ZM14.5332 12.2701C14.7878 12.2701 15.0168 12.1791 15.2205 11.997C15.4241 11.8048 15.5819 11.4709 15.6939 10.9954C15.8161 10.5099 15.8772 9.83207 15.8772 8.96206C15.8772 8.08194 15.8161 7.40921 15.6939 6.94385C15.5819 6.4785 15.4241 6.15984 15.2205 5.98786C15.0168 5.81588 14.7878 5.72989 14.5332 5.72989C14.2787 5.72989 14.0496 5.81588 13.846 5.98786C13.6423 6.15984 13.4794 6.4785 13.3573 6.94385C13.2453 7.40921 13.1893 8.08194 13.1893 8.96206C13.1893 9.83207 13.2453 10.5099 13.3573 10.9954C13.4794 11.4709 13.6423 11.8048 13.846 11.997C14.0496 12.1791 14.2787 12.2701 14.5332 12.2701Z" fill="#E04749"/>
</g>
<g clip-path="url(#clip2_3185_202248)">
<path fill-rule="evenodd" clip-rule="evenodd" d="M23 25.9108C21.7293 25.922 16.0669 31.7293 16.0892 33C16.078 31.7293 10.2707 26.0669 9 26.0892C10.2707 26.078 15.9331 20.2707 15.9108 19C15.922 20.2707 21.7293 25.922 23 25.9108Z" fill="#E04749"/>
</g>
</g>
<defs>
<clipPath id="clip0_3185_202248">
<rect width="26" height="36" fill="white"/>
</clipPath>
<clipPath id="clip1_3185_202248">
<rect width="14" height="10" fill="white" transform="translate(4 4)"/>
</clipPath>
<clipPath id="clip2_3185_202248">
<rect width="14" height="14" fill="white" transform="translate(9 19)"/>
</clipPath>
</defs>
</svg>
