<svg width="130" height="130" viewBox="0 0 130 130" fill="none" xmlns="http://www.w3.org/2000/svg">
<g id="Group 1707478843">
<g id="Linked Path Group">
<path id="[Copy] Ellipse 2035" d="M127.176 66.8036C126.078 66.8036 108.035 66.3533 108.035 65.0034C108.035 63.6534 126.078 63.2031 127.176 63.2031C128.274 63.2031 130 64.0091 130 65.0034C130 65.9976 128.274 66.8036 127.176 66.8036Z" fill="url(#paint0_linear_8142_53142)"/>
<path id="[Copy] Ellipse 2035_2" d="M117.987 97.5955C117.036 97.0478 101.625 87.6534 102.299 86.4836C102.973 85.3138 118.833 93.9278 119.784 94.4755C120.735 95.0232 121.829 96.5832 121.333 97.4448C120.837 98.3063 118.938 98.1432 117.987 97.5955Z" fill="url(#paint1_linear_8142_53142)"/>
<path id="[Copy] Ellipse 2035_3" d="M94.5666 119.736C94.0153 118.787 85.3422 102.96 86.5096 102.282C87.6771 101.604 97.1289 116.978 97.6802 117.927C98.2315 118.876 98.4016 120.774 97.5418 121.273C96.682 121.773 95.1178 120.685 94.5666 119.736Z" fill="url(#paint2_linear_8142_53142)"/>
<path id="[Copy] Ellipse 2035_4" d="M62.9609 127.162C62.9652 126.065 63.4851 108.025 64.8352 108.03C66.1853 108.036 66.5659 126.079 66.5617 127.176C66.5574 128.274 65.7447 129.997 64.7504 129.993C63.7561 129.989 62.9567 128.26 62.9609 127.162Z" fill="url(#paint3_linear_8142_53142)"/>
<path id="[Copy] Ellipse 2035_5" d="M32.172 117.836C32.7232 116.887 42.1751 101.512 43.3426 102.19C44.51 102.868 35.8369 118.695 35.2856 119.644C34.7343 120.593 33.1702 121.681 32.3104 121.182C31.4506 120.682 31.6207 118.785 32.172 117.836Z" fill="url(#paint4_linear_8142_53142)"/>
<path id="[Copy] Ellipse 2035_6" d="M10.1745 94.3848C11.1256 93.8371 26.9858 85.2231 27.6595 86.3929C28.3333 87.5627 12.9227 96.9571 11.9716 97.5048C11.0205 98.0525 9.12213 98.2156 8.62588 97.3541C8.12963 96.4925 9.22344 94.9325 10.1745 94.3848Z" fill="url(#paint5_linear_8142_53142)"/>
<path id="[Copy] Ellipse 2035_7" d="M2.85196 62.7162C3.94947 62.7246 21.9886 63.3131 21.9781 64.6631C21.9676 66.013 3.92147 66.325 2.82395 66.3166C1.72644 66.3082 0.00626931 65.489 0.0140029 64.4947C0.0217365 63.5005 1.75444 62.7078 2.85196 62.7162Z" fill="url(#paint6_linear_8142_53142)"/>
<path id="[Copy] Ellipse 2035_8" d="M12.204 32.1292C13.151 32.6839 28.4921 42.1915 27.8097 43.3563C27.1273 44.5211 11.331 35.7906 10.384 35.2359C9.43698 34.6812 8.35469 33.1131 8.85727 32.2553C9.35985 31.3974 11.257 31.5745 12.204 32.1292Z" fill="url(#paint7_linear_8142_53142)"/>
<path id="[Copy] Ellipse 2035_9" d="M35.6874 10.1453C36.2317 11.0983 44.7879 26.9887 43.6155 27.6581C42.4431 28.3275 33.1048 12.8837 32.5605 11.9307C32.0163 10.9776 31.8601 9.07884 32.7236 8.58581C33.5871 8.09279 35.1432 9.19225 35.6874 10.1453Z" fill="url(#paint8_linear_8142_53142)"/>
<path id="[Copy] Ellipse 2035_10" d="M67.5388 2.86561C67.5262 3.96298 66.8685 21.9981 65.5185 21.9823C64.1685 21.9666 63.9256 3.92098 63.9382 2.8236C63.9509 1.72622 64.7767 0.00940367 65.771 0.0210037C66.7652 0.0326037 67.5514 1.76823 67.5388 2.86561Z" fill="url(#paint9_linear_8142_53142)"/>
<path id="[Copy] Ellipse 2035_11" d="M98.0271 12.2977C97.4689 13.2426 87.904 28.5471 86.7416 27.8605C85.5792 27.1739 94.3687 11.4113 94.9269 10.4664C95.4851 9.52151 97.0573 8.4451 97.9134 8.95079C98.7695 9.45649 98.5854 11.3528 98.0271 12.2977Z" fill="url(#paint10_linear_8142_53142)"/>
<path id="[Copy] Ellipse 2035_12" d="M119.994 35.9267C119.039 36.4674 103.116 44.9642 102.451 43.7895C101.786 42.6147 117.265 33.3342 118.22 32.7936C119.175 32.2529 121.075 32.1037 121.565 32.9689C122.055 33.8341 120.949 35.386 119.994 35.9267Z" fill="url(#paint11_linear_8142_53142)"/>
</g>
<g id="Linked Path Group_2">
<path id="[Copy] Ellipse 2037" d="M92.4501 93.6813C92.028 93.2593 85.2434 86.166 85.7069 85.7026C86.1704 85.2391 93.2642 92.0232 93.6864 92.4452C94.1085 92.8673 94.4957 93.808 94.1544 94.1493C93.813 94.4906 92.8723 94.1034 92.4501 93.6813Z" fill="url(#paint12_linear_8142_53142)"/>
<path id="[Copy] Ellipse 2037_2" d="M36.2089 92.3356C36.6326 91.915 43.751 85.1568 44.2128 85.6219C44.6746 86.0871 37.8643 93.1556 37.4406 93.5761C37.017 93.9967 36.0749 94.3805 35.7347 94.0379C35.3946 93.6953 35.7853 92.7561 36.2089 92.3356Z" fill="url(#paint13_linear_8142_53142)"/>
<path id="[Copy] Ellipse 2037_3" d="M37.7501 36.1246C38.1691 36.5497 44.9021 43.6921 44.4352 44.1521C43.9683 44.6122 36.924 37.7768 36.5049 37.3517C36.0859 36.9266 35.7055 35.9831 36.0493 35.6443C36.3932 35.3054 37.3311 35.6995 37.7501 36.1246Z" fill="url(#paint14_linear_8142_53142)"/>
<path id="[Copy] Ellipse 2037_4" d="M93.9705 37.851C93.5438 38.2684 86.3764 44.9747 85.918 44.5062C85.4596 44.0378 92.3211 37.0189 92.7478 36.6014C93.1745 36.184 94.1194 35.8071 94.457 36.1521C94.7947 36.4971 94.3972 37.4335 93.9705 37.851Z" fill="url(#paint15_linear_8142_53142)"/>
</g>
<g id="Linked Path Group_3">
<path id="[Copy] Ellipse 2038" d="M115.864 65.9396C115.413 65.9396 107.994 65.9396 107.994 65.1544C107.994 64.3691 115.413 64.3691 115.864 64.3691C116.316 64.3691 117.025 64.7207 117.025 65.1544C117.025 65.5881 116.316 65.9396 115.864 65.9396Z" fill="url(#paint16_linear_8142_53142)"/>
<path id="[Copy] Ellipse 2038_2" d="M105.692 95.6847C105.327 95.4193 99.3275 91.0556 99.7895 90.4206C100.251 89.7856 106.251 94.1492 106.616 94.4147C106.981 94.6801 107.348 95.382 107.093 95.7327C106.838 96.0834 106.057 95.9501 105.692 95.6847Z" fill="url(#paint17_linear_8142_53142)"/>
<path id="[Copy] Ellipse 2038_3" d="M79.994 113.778C79.853 113.349 77.5364 106.302 78.2824 106.057C79.0284 105.812 81.3451 112.859 81.486 113.288C81.627 113.716 81.5146 114.5 81.1026 114.636C80.6906 114.771 80.1349 114.207 79.994 113.778Z" fill="url(#paint18_linear_8142_53142)"/>
<path id="[Copy] Ellipse 2038_4" d="M48.3412 113.233C48.4821 112.804 50.7988 105.757 51.5449 106.002C52.2909 106.247 49.9742 113.295 49.8333 113.723C49.6924 114.152 49.1367 114.716 48.7247 114.581C48.3126 114.446 48.2003 113.661 48.3412 113.233Z" fill="url(#paint19_linear_8142_53142)"/>
<path id="[Copy] Ellipse 2038_5" d="M23.2683 94.2541C23.6342 93.99 29.6494 89.6483 30.1091 90.285C30.5687 90.9217 24.5535 95.2634 24.1876 95.5275C23.8217 95.7916 23.0403 95.922 22.7865 95.5703C22.5326 95.2187 22.9024 94.5182 23.2683 94.2541Z" fill="url(#paint20_linear_8142_53142)"/>
<path id="[Copy] Ellipse 2038_6" d="M14.14 63.9698C14.5913 63.9733 22.0097 64.0305 22.0037 64.8157C21.9976 65.601 14.5792 65.5437 14.1279 65.5402C13.6766 65.5367 12.9695 65.1797 12.9729 64.746C12.9762 64.3124 13.6888 63.9663 14.14 63.9698Z" fill="url(#paint21_linear_8142_53142)"/>
<path id="[Copy] Ellipse 2038_7" d="M24.5117 34.3524C24.8747 34.6205 30.842 39.0278 30.3754 39.6594C29.9088 40.291 23.9415 35.8837 23.5785 35.6156C23.2155 35.3475 22.8534 34.643 23.1111 34.2942C23.3688 33.9453 24.1487 34.0843 24.5117 34.3524Z" fill="url(#paint22_linear_8142_53142)"/>
<path id="[Copy] Ellipse 2038_8" d="M50.3828 16.4167C50.5188 16.8469 52.7556 23.9198 52.0068 24.1565C51.2581 24.3933 49.0213 17.3204 48.8852 16.8902C48.7492 16.46 48.8704 15.6772 49.2839 15.5465C49.6975 15.4157 50.2467 15.9865 50.3828 16.4167Z" fill="url(#paint23_linear_8142_53142)"/>
<path id="[Copy] Ellipse 2038_9" d="M81.968 17.1878C81.8239 17.6154 79.4541 24.6448 78.71 24.394C77.9658 24.1431 80.3355 17.1137 80.4797 16.6861C80.6238 16.2586 81.1838 15.6982 81.5948 15.8368C82.0058 15.9753 82.1122 16.7602 81.968 17.1878Z" fill="url(#paint24_linear_8142_53142)"/>
<path id="[Copy] Ellipse 2038_10" d="M106.929 36.3472C106.562 36.6087 100.515 40.9063 100.06 40.2663C99.6048 39.6262 105.652 35.3286 106.019 35.0672C106.387 34.8058 107.17 34.6811 107.421 35.0346C107.672 35.388 107.297 36.0858 106.929 36.3472Z" fill="url(#paint25_linear_8142_53142)"/>
</g>
<g id="Linked Path Group_4">
<path id="[Copy] Ellipse 2039" d="M104.505 66.174C103.979 66.174 99.058 65.9124 99.058 65.128C99.058 64.3437 103.979 64.082 104.505 64.082C105.031 64.082 105.857 64.5503 105.857 65.128C105.857 65.7057 105.031 66.174 104.505 66.174Z" fill="url(#paint26_linear_8142_53142)"/>
<path id="[Copy] Ellipse 2039_2" d="M98.733 85.6886C98.2775 85.4263 94.1436 82.7437 94.5351 82.064C94.9266 81.3843 99.3216 83.6135 99.7772 83.8758C100.233 84.1381 100.715 84.9566 100.427 85.4572C100.139 85.9578 99.1885 85.9509 98.733 85.6886Z" fill="url(#paint27_linear_8142_53142)"/>
<path id="[Copy] Ellipse 2039_3" d="M83.9295 99.7484C83.6655 99.2939 81.42 94.9075 82.0983 94.5135C82.7766 94.1196 85.4746 98.2432 85.7386 98.6977C86.0026 99.1522 86.013 100.102 85.5134 100.393C85.0139 100.683 84.1936 100.203 83.9295 99.7484Z" fill="url(#paint28_linear_8142_53142)"/>
<path id="[Copy] Ellipse 2039_4" d="M63.9307 104.493C63.9327 103.967 64.2134 99.0477 64.9978 99.0507C65.7822 99.0537 66.0248 103.975 66.0228 104.501C66.0208 105.027 65.5492 105.852 64.9715 105.849C64.3938 105.847 63.9287 105.019 63.9307 104.493Z" fill="url(#paint29_linear_8142_53142)"/>
<path id="[Copy] Ellipse 2039_5" d="M44.4152 98.6333C44.6792 98.1788 47.3772 94.0552 48.0555 94.4491C48.7338 94.8431 46.4883 99.2295 46.2243 99.684C45.9602 100.139 45.1399 100.618 44.6404 100.328C44.1408 100.038 44.1512 99.0878 44.4152 98.6333Z" fill="url(#paint30_linear_8142_53142)"/>
<path id="[Copy] Ellipse 2039_6" d="M30.4492 83.8111C30.9047 83.5487 35.2998 81.3196 35.6913 81.9993C36.0828 82.679 31.9489 85.3615 31.4934 85.6239C31.0378 85.8862 30.0876 85.893 29.7992 85.3924C29.5109 84.8918 29.9937 84.0734 30.4492 83.8111Z" fill="url(#paint31_linear_8142_53142)"/>
<path id="[Copy] Ellipse 2039_7" d="M25.7671 63.7721C26.2928 63.7761 31.2118 64.0757 31.2057 64.8601C31.1997 65.6444 26.2766 65.868 25.751 65.864C25.2253 65.8599 24.4021 65.3852 24.4065 64.8076C24.411 64.2299 25.2415 63.768 25.7671 63.7721Z" fill="url(#paint32_linear_8142_53142)"/>
<path id="[Copy] Ellipse 2039_8" d="M31.6405 44.3961C32.0941 44.6618 36.2082 47.3747 35.8117 48.0515C35.4152 48.7283 31.0366 46.4668 30.5831 46.2012C30.1295 45.9355 29.6527 45.1135 29.9447 44.6151C30.2368 44.1166 31.187 44.1304 31.6405 44.3961Z" fill="url(#paint33_linear_8142_53142)"/>
<path id="[Copy] Ellipse 2039_9" d="M46.4797 30.434C46.7403 30.8904 48.9535 35.2933 48.2723 35.6822C47.5911 36.0712 44.9236 31.9278 44.6629 31.4713C44.4022 31.0149 44.3989 30.0647 44.9006 29.7782C45.4023 29.4917 46.219 29.9775 46.4797 30.434Z" fill="url(#paint34_linear_8142_53142)"/>
<path id="[Copy] Ellipse 2039_10" d="M66.6427 25.7731C66.6366 26.2986 66.318 31.216 65.5337 31.207C64.7493 31.1979 64.5447 26.2744 64.5507 25.7488C64.5568 25.2232 65.0347 24.4019 65.6124 24.4086C66.1901 24.4153 66.6488 25.2475 66.6427 25.7731Z" fill="url(#paint35_linear_8142_53142)"/>
<path id="[Copy] Ellipse 2039_11" d="M85.9552 31.6933C85.6878 32.1458 82.9595 36.2495 82.2841 35.8506C81.6087 35.4516 83.8865 31.0818 84.1539 30.6293C84.4212 30.1767 85.245 29.703 85.7424 29.9968C86.2399 30.2907 86.2225 31.2407 85.9552 31.6933Z" fill="url(#paint36_linear_8142_53142)"/>
<path id="[Copy] Ellipse 2039_12" d="M99.9104 46.6293C99.4529 46.8883 95.0415 49.085 94.6551 48.4024C94.2686 47.7199 98.4222 45.0679 98.8796 44.8089C99.3371 44.5499 100.287 44.5501 100.572 45.0528C100.857 45.5555 100.368 46.3704 99.9104 46.6293Z" fill="url(#paint37_linear_8142_53142)"/>
</g>
<g id="Linked Path Group_5">
<path id="[Copy] Ellipse 2036" d="M87.8431 89.6395C87.2305 89.027 81.7203 83.0682 82.3929 82.3956C83.0654 81.7231 89.0243 87.2333 89.6368 87.8458C90.2493 88.4583 90.8113 89.8234 90.316 90.3188C89.8207 90.8141 88.4556 90.2521 87.8431 89.6395Z" fill="url(#paint38_linear_8142_53142)"/>
<path id="[Copy] Ellipse 2036_2" d="M69.0168 98.3539C68.8817 97.4982 67.9308 89.4384 68.8703 89.2902C69.8098 89.142 71.3876 97.1029 71.5226 97.9586C71.6577 98.8142 71.3092 100.249 70.6172 100.358C69.9252 100.467 69.1518 99.2095 69.0168 98.3539Z" fill="url(#paint39_linear_8142_53142)"/>
<path id="[Copy] Ellipse 2036_3" d="M48.6674 94.353C49.0579 93.5798 52.9976 86.4849 53.8466 86.9139C54.6956 87.3428 51.3223 94.7239 50.9317 95.497C50.5411 96.2702 49.4199 97.2302 48.7946 96.9143C48.1693 96.5984 48.2768 95.1261 48.6674 94.353Z" fill="url(#paint40_linear_8142_53142)"/>
<path id="[Copy] Ellipse 2036_4" d="M34.4888 79.0041C35.2619 78.6136 42.643 75.2402 43.072 76.0892C43.5009 76.9382 36.406 80.8779 35.6329 81.2685C34.8597 81.6591 33.3874 81.7665 33.0715 81.1413C32.7556 80.516 33.7157 79.3947 34.4888 79.0041Z" fill="url(#paint41_linear_8142_53142)"/>
<path id="[Copy] Ellipse 2036_5" d="M32.1038 58.3883C32.9589 58.5264 40.9141 60.1333 40.7624 61.0722C40.6108 62.0112 32.5545 61.0308 31.6993 60.8926C30.8442 60.7545 29.5896 59.9765 29.7013 59.2849C29.8129 58.5934 31.2486 58.2501 32.1038 58.3883Z" fill="url(#paint42_linear_8142_53142)"/>
<path id="[Copy] Ellipse 2036_6" d="M42.3841 40.2224C42.9919 40.8397 48.4559 46.8408 47.7782 47.5082C47.1005 48.1755 41.1844 42.6195 40.5766 42.0023C39.9688 41.385 39.4173 40.0156 39.9165 39.5241C40.4156 39.0326 41.7763 39.6052 42.3841 40.2224Z" fill="url(#paint43_linear_8142_53142)"/>
<path id="[Copy] Ellipse 2036_7" d="M61.2463 31.6591C61.3751 32.5157 62.2672 40.5823 61.3266 40.7236C60.386 40.865 58.8665 32.8927 58.7377 32.0361C58.6089 31.1795 58.9678 29.7476 59.6606 29.6435C60.3533 29.5394 61.1175 30.8025 61.2463 31.6591Z" fill="url(#paint44_linear_8142_53142)"/>
<path id="[Copy] Ellipse 2036_8" d="M81.5959 35.8232C81.1966 36.5919 77.1769 43.6417 76.3328 43.2032C75.4887 42.7646 78.9454 35.4222 79.3447 34.6536C79.744 33.8849 80.876 32.9376 81.4977 33.2606C82.1194 33.5836 81.9952 35.0545 81.5959 35.8232Z" fill="url(#paint45_linear_8142_53142)"/>
<path id="[Copy] Ellipse 2036_9" d="M95.636 51.2355C94.8599 51.6202 87.4536 54.9378 87.0311 54.0856C86.6086 53.2334 93.733 49.3473 94.509 48.9626C95.2851 48.5779 96.7581 48.4815 97.0693 49.1091C97.3805 49.7368 96.412 50.8508 95.636 51.2355Z" fill="url(#paint46_linear_8142_53142)"/>
<path id="[Copy] Ellipse 2036_10" d="M97.8855 71.8778C97.0314 71.7334 89.0882 70.0685 89.2467 69.1306C89.4052 68.1928 97.4541 69.232 98.3082 69.3764C99.1623 69.5209 100.411 70.308 100.294 70.9987C100.178 71.6895 98.7396 72.0222 97.8855 71.8778Z" fill="url(#paint47_linear_8142_53142)"/>
</g>
</g>
<defs>
<linearGradient id="paint0_linear_8142_53142" x1="130" y1="65.0034" x2="108.035" y2="65.0034" gradientUnits="userSpaceOnUse">
<stop stop-color="#ECA059"/>
<stop offset="1" stop-color="#ECA059" stop-opacity="0"/>
</linearGradient>
<linearGradient id="paint1_linear_8142_53142" x1="121.333" y1="97.4448" x2="102.3" y2="86.4821" gradientUnits="userSpaceOnUse">
<stop stop-color="#ECA059"/>
<stop offset="1" stop-color="#ECA059" stop-opacity="0"/>
</linearGradient>
<linearGradient id="paint2_linear_8142_53142" x1="97.5418" y1="121.273" x2="86.5111" y2="102.281" gradientUnits="userSpaceOnUse">
<stop stop-color="#ECA059"/>
<stop offset="1" stop-color="#ECA059" stop-opacity="0"/>
</linearGradient>
<linearGradient id="paint3_linear_8142_53142" x1="64.7504" y1="129.993" x2="64.8352" y2="108.03" gradientUnits="userSpaceOnUse">
<stop stop-color="#ECA059"/>
<stop offset="1" stop-color="#ECA059" stop-opacity="0"/>
</linearGradient>
<linearGradient id="paint4_linear_8142_53142" x1="32.3104" y1="121.182" x2="43.3411" y2="102.189" gradientUnits="userSpaceOnUse">
<stop stop-color="#ECA059"/>
<stop offset="1" stop-color="#ECA059" stop-opacity="0"/>
</linearGradient>
<linearGradient id="paint5_linear_8142_53142" x1="8.62588" y1="97.3541" x2="27.6587" y2="86.3914" gradientUnits="userSpaceOnUse">
<stop stop-color="#ECA059"/>
<stop offset="1" stop-color="#ECA059" stop-opacity="0"/>
</linearGradient>
<linearGradient id="paint6_linear_8142_53142" x1="0.0140029" y1="64.4947" x2="21.9781" y2="64.6656" gradientUnits="userSpaceOnUse">
<stop stop-color="#ECA059"/>
<stop offset="1" stop-color="#ECA059" stop-opacity="0"/>
</linearGradient>
<linearGradient id="paint7_linear_8142_53142" x1="8.85727" y1="32.2553" x2="27.8088" y2="43.3578" gradientUnits="userSpaceOnUse">
<stop stop-color="#ECA059"/>
<stop offset="1" stop-color="#ECA059" stop-opacity="0"/>
</linearGradient>
<linearGradient id="paint8_linear_8142_53142" x1="32.7236" y1="8.58581" x2="43.6141" y2="27.6589" gradientUnits="userSpaceOnUse">
<stop stop-color="#ECA059"/>
<stop offset="1" stop-color="#ECA059" stop-opacity="0"/>
</linearGradient>
<linearGradient id="paint9_linear_8142_53142" x1="65.771" y1="0.0210037" x2="65.5147" y2="21.9823" gradientUnits="userSpaceOnUse">
<stop stop-color="#ECA059"/>
<stop offset="1" stop-color="#ECA059" stop-opacity="0"/>
</linearGradient>
<linearGradient id="paint10_linear_8142_53142" x1="97.9134" y1="8.95079" x2="86.7431" y2="27.8614" gradientUnits="userSpaceOnUse">
<stop stop-color="#ECA059"/>
<stop offset="1" stop-color="#ECA059" stop-opacity="0"/>
</linearGradient>
<linearGradient id="paint11_linear_8142_53142" x1="121.565" y1="32.9689" x2="102.452" y2="43.7909" gradientUnits="userSpaceOnUse">
<stop stop-color="#ECA059"/>
<stop offset="1" stop-color="#ECA059" stop-opacity="0"/>
</linearGradient>
<linearGradient id="paint12_linear_8142_53142" x1="94.1544" y1="94.1493" x2="85.7076" y2="85.7018" gradientUnits="userSpaceOnUse">
<stop stop-color="#ECA059"/>
<stop offset="1" stop-color="#ECA059" stop-opacity="0"/>
</linearGradient>
<linearGradient id="paint13_linear_8142_53142" x1="35.7347" y1="94.0379" x2="44.2121" y2="85.6212" gradientUnits="userSpaceOnUse">
<stop stop-color="#ECA059"/>
<stop offset="1" stop-color="#ECA059" stop-opacity="0"/>
</linearGradient>
<linearGradient id="paint14_linear_8142_53142" x1="36.0493" y1="35.6443" x2="44.4344" y2="44.1529" gradientUnits="userSpaceOnUse">
<stop stop-color="#ECA059"/>
<stop offset="1" stop-color="#ECA059" stop-opacity="0"/>
</linearGradient>
<linearGradient id="paint15_linear_8142_53142" x1="94.457" y1="36.1521" x2="85.9187" y2="44.507" gradientUnits="userSpaceOnUse">
<stop stop-color="#ECA059"/>
<stop offset="1" stop-color="#ECA059" stop-opacity="0"/>
</linearGradient>
<linearGradient id="paint16_linear_8142_53142" x1="117.025" y1="65.1544" x2="107.994" y2="65.1544" gradientUnits="userSpaceOnUse">
<stop stop-color="#E959EC"/>
<stop offset="1" stop-color="#ECA059" stop-opacity="0"/>
<stop offset="1" stop-color="#E959EC" stop-opacity="0"/>
</linearGradient>
<linearGradient id="paint17_linear_8142_53142" x1="107.093" y1="95.7327" x2="99.7899" y2="90.42" gradientUnits="userSpaceOnUse">
<stop stop-color="#E959EC"/>
<stop offset="1" stop-color="#ECA059" stop-opacity="0"/>
<stop offset="1" stop-color="#E959EC" stop-opacity="0"/>
</linearGradient>
<linearGradient id="paint18_linear_8142_53142" x1="81.1026" y1="114.636" x2="78.2828" y2="106.057" gradientUnits="userSpaceOnUse">
<stop stop-color="#E959EC"/>
<stop offset="1" stop-color="#ECA059" stop-opacity="0"/>
<stop offset="1" stop-color="#E959EC" stop-opacity="0"/>
</linearGradient>
<linearGradient id="paint19_linear_8142_53142" x1="48.7247" y1="114.581" x2="51.5444" y2="106.002" gradientUnits="userSpaceOnUse">
<stop stop-color="#E959EC"/>
<stop offset="1" stop-color="#ECA059" stop-opacity="0"/>
<stop offset="1" stop-color="#E959EC" stop-opacity="0"/>
</linearGradient>
<linearGradient id="paint20_linear_8142_53142" x1="22.7865" y1="95.5703" x2="30.1086" y2="90.2844" gradientUnits="userSpaceOnUse">
<stop stop-color="#E959EC"/>
<stop offset="1" stop-color="#ECA059" stop-opacity="0"/>
<stop offset="1" stop-color="#E959EC" stop-opacity="0"/>
</linearGradient>
<linearGradient id="paint21_linear_8142_53142" x1="12.9729" y1="64.746" x2="22.0037" y2="64.8158" gradientUnits="userSpaceOnUse">
<stop stop-color="#E959EC"/>
<stop offset="1" stop-color="#ECA059" stop-opacity="0"/>
<stop offset="1" stop-color="#E959EC" stop-opacity="0"/>
</linearGradient>
<linearGradient id="paint22_linear_8142_53142" x1="23.1111" y1="34.2942" x2="30.3749" y2="39.66" gradientUnits="userSpaceOnUse">
<stop stop-color="#E959EC"/>
<stop offset="1" stop-color="#ECA059" stop-opacity="0"/>
<stop offset="1" stop-color="#E959EC" stop-opacity="0"/>
</linearGradient>
<linearGradient id="paint23_linear_8142_53142" x1="49.2839" y1="15.5465" x2="52.0064" y2="24.1567" gradientUnits="userSpaceOnUse">
<stop stop-color="#E959EC"/>
<stop offset="1" stop-color="#ECA059" stop-opacity="0"/>
<stop offset="1" stop-color="#E959EC" stop-opacity="0"/>
</linearGradient>
<linearGradient id="paint24_linear_8142_53142" x1="81.5948" y1="15.8368" x2="78.7104" y2="24.3941" gradientUnits="userSpaceOnUse">
<stop stop-color="#E959EC"/>
<stop offset="1" stop-color="#ECA059" stop-opacity="0"/>
<stop offset="1" stop-color="#E959EC" stop-opacity="0"/>
</linearGradient>
<linearGradient id="paint25_linear_8142_53142" x1="107.421" y1="35.0346" x2="100.06" y2="40.2669" gradientUnits="userSpaceOnUse">
<stop stop-color="#E959EC"/>
<stop offset="1" stop-color="#ECA059" stop-opacity="0"/>
<stop offset="1" stop-color="#E959EC" stop-opacity="0"/>
</linearGradient>
<linearGradient id="paint26_linear_8142_53142" x1="105.857" y1="65.128" x2="99.058" y2="65.128" gradientUnits="userSpaceOnUse">
<stop stop-color="#ECE659"/>
<stop offset="1" stop-color="#ECA059" stop-opacity="0"/>
</linearGradient>
<linearGradient id="paint27_linear_8142_53142" x1="100.427" y1="85.4572" x2="94.5353" y2="82.0636" gradientUnits="userSpaceOnUse">
<stop stop-color="#ECE659"/>
<stop offset="1" stop-color="#ECA059" stop-opacity="0"/>
</linearGradient>
<linearGradient id="paint28_linear_8142_53142" x1="85.5134" y1="100.393" x2="82.0987" y2="94.5133" gradientUnits="userSpaceOnUse">
<stop stop-color="#ECE659"/>
<stop offset="1" stop-color="#ECA059" stop-opacity="0"/>
</linearGradient>
<linearGradient id="paint29_linear_8142_53142" x1="64.9715" y1="105.849" x2="64.9978" y2="99.0507" gradientUnits="userSpaceOnUse">
<stop stop-color="#ECE659"/>
<stop offset="1" stop-color="#ECA059" stop-opacity="0"/>
</linearGradient>
<linearGradient id="paint30_linear_8142_53142" x1="44.6404" y1="100.328" x2="48.0551" y2="94.4489" gradientUnits="userSpaceOnUse">
<stop stop-color="#ECE659"/>
<stop offset="1" stop-color="#ECA059" stop-opacity="0"/>
</linearGradient>
<linearGradient id="paint31_linear_8142_53142" x1="29.7992" y1="85.3924" x2="35.691" y2="81.9988" gradientUnits="userSpaceOnUse">
<stop stop-color="#ECE659"/>
<stop offset="1" stop-color="#ECA059" stop-opacity="0"/>
</linearGradient>
<linearGradient id="paint32_linear_8142_53142" x1="24.4065" y1="64.8076" x2="31.2057" y2="64.8601" gradientUnits="userSpaceOnUse">
<stop stop-color="#ECE659"/>
<stop offset="1" stop-color="#ECA059" stop-opacity="0"/>
</linearGradient>
<linearGradient id="paint33_linear_8142_53142" x1="29.9447" y1="44.6151" x2="35.8114" y2="48.052" gradientUnits="userSpaceOnUse">
<stop stop-color="#ECE659"/>
<stop offset="1" stop-color="#ECA059" stop-opacity="0"/>
</linearGradient>
<linearGradient id="paint34_linear_8142_53142" x1="44.9006" y1="29.7782" x2="48.2718" y2="35.6825" gradientUnits="userSpaceOnUse">
<stop stop-color="#ECE659"/>
<stop offset="1" stop-color="#ECA059" stop-opacity="0"/>
</linearGradient>
<linearGradient id="paint35_linear_8142_53142" x1="65.6124" y1="24.4086" x2="65.5337" y2="31.207" gradientUnits="userSpaceOnUse">
<stop stop-color="#ECE659"/>
<stop offset="1" stop-color="#ECA059" stop-opacity="0"/>
</linearGradient>
<linearGradient id="paint36_linear_8142_53142" x1="85.7424" y1="29.9968" x2="82.2846" y2="35.8508" gradientUnits="userSpaceOnUse">
<stop stop-color="#ECE659"/>
<stop offset="1" stop-color="#ECA059" stop-opacity="0"/>
</linearGradient>
<linearGradient id="paint37_linear_8142_53142" x1="100.572" y1="45.0528" x2="94.6553" y2="48.4029" gradientUnits="userSpaceOnUse">
<stop stop-color="#ECE659"/>
<stop offset="1" stop-color="#ECA059" stop-opacity="0"/>
</linearGradient>
<linearGradient id="paint38_linear_8142_53142" x1="90.316" y1="90.3188" x2="82.3929" y2="82.3956" gradientUnits="userSpaceOnUse">
<stop stop-color="#EC6259"/>
<stop offset="1" stop-color="#ECA059" stop-opacity="0"/>
</linearGradient>
<linearGradient id="paint39_linear_8142_53142" x1="70.6172" y1="100.358" x2="68.8712" y2="89.29" gradientUnits="userSpaceOnUse">
<stop stop-color="#EC6259"/>
<stop offset="1" stop-color="#ECA059" stop-opacity="0"/>
</linearGradient>
<linearGradient id="paint40_linear_8142_53142" x1="48.7946" y1="96.9143" x2="53.8471" y2="86.9141" gradientUnits="userSpaceOnUse">
<stop stop-color="#EC6259"/>
<stop offset="1" stop-color="#ECA059" stop-opacity="0"/>
</linearGradient>
<linearGradient id="paint41_linear_8142_53142" x1="33.0715" y1="81.1413" x2="43.0717" y2="76.0887" gradientUnits="userSpaceOnUse">
<stop stop-color="#EC6259"/>
<stop offset="1" stop-color="#ECA059" stop-opacity="0"/>
</linearGradient>
<linearGradient id="paint42_linear_8142_53142" x1="29.7013" y1="59.2849" x2="40.7626" y2="61.0713" gradientUnits="userSpaceOnUse">
<stop stop-color="#EC6259"/>
<stop offset="1" stop-color="#ECA059" stop-opacity="0"/>
</linearGradient>
<linearGradient id="paint43_linear_8142_53142" x1="39.9165" y1="39.5241" x2="47.7782" y2="47.5082" gradientUnits="userSpaceOnUse">
<stop stop-color="#EC6259"/>
<stop offset="1" stop-color="#ECA059" stop-opacity="0"/>
</linearGradient>
<linearGradient id="paint44_linear_8142_53142" x1="59.6606" y1="29.6435" x2="61.3257" y2="40.7237" gradientUnits="userSpaceOnUse">
<stop stop-color="#EC6259"/>
<stop offset="1" stop-color="#ECA059" stop-opacity="0"/>
</linearGradient>
<linearGradient id="paint45_linear_8142_53142" x1="81.4977" y1="33.2606" x2="76.3323" y2="43.2029" gradientUnits="userSpaceOnUse">
<stop stop-color="#EC6259"/>
<stop offset="1" stop-color="#ECA059" stop-opacity="0"/>
</linearGradient>
<linearGradient id="paint46_linear_8142_53142" x1="97.0693" y1="49.1091" x2="87.0314" y2="54.0861" gradientUnits="userSpaceOnUse">
<stop stop-color="#EC6259"/>
<stop offset="1" stop-color="#ECA059" stop-opacity="0"/>
</linearGradient>
<linearGradient id="paint47_linear_8142_53142" x1="100.294" y1="70.9987" x2="89.2465" y2="69.1315" gradientUnits="userSpaceOnUse">
<stop stop-color="#EC6259"/>
<stop offset="1" stop-color="#ECA059" stop-opacity="0"/>
</linearGradient>
</defs>
</svg>
