<svg width="18" height="19" viewBox="0 0 18 19" fill="none" xmlns="http://www.w3.org/2000/svg">
<path d="M3.21971 10.3442C3.21971 10.103 3.13931 9.86181 3.13931 9.5402C3.13931 9.21859 3.13931 8.97739 3.21971 8.73618L1.53127 7.36935C1.37047 7.20854 1.37047 7.04774 1.45087 6.88693L3.05891 4.07286C3.13931 3.99246 3.30008 3.91206 3.54132 3.99246L5.55136 4.79648C5.95337 4.47487 6.43578 4.23367 6.91819 3.99246L7.2398 1.90201C7.1594 1.6608 7.40064 1.5 7.56141 1.5H10.7775C10.9383 1.5 11.1795 1.6608 11.1795 1.82161L11.5011 3.99246C11.9835 4.15327 12.3855 4.47487 12.8679 4.79648L14.7976 3.99246C15.0388 3.91206 15.1996 3.99246 15.3604 4.15327L16.9685 6.96734C17.0489 7.04774 16.9685 7.28894 16.8077 7.44975L15.1192 8.73618C15.1192 8.97739 15.1996 9.21859 15.1996 9.5402C15.1996 9.86181 15.1996 10.103 15.1192 10.3442L16.8077 11.7111C16.9685 11.8719 16.9685 12.0327 16.8881 12.1935L15.28 15.0076C15.1996 15.088 15.0388 15.1684 14.7976 15.088L12.7876 14.2839C12.3856 14.6056 11.9031 14.8468 11.4207 15.088L11.0991 17.1784C11.0991 17.3392 10.9383 17.5 10.6971 17.5H7.48104C7.3202 17.5 7.07903 17.3392 7.07903 17.1784L6.75742 15.088C6.27501 14.8468 5.7926 14.6056 5.39059 14.2839L3.38054 15.088C3.21971 15.1684 2.97854 15.088 2.8981 14.9271L1.29007 12.1131C1.20966 11.9523 1.20966 11.7111 1.3705 11.6307L3.21971 10.3442ZM9.16945 12.3543C10.6971 12.3543 11.9835 11.0678 11.9835 9.5402C11.9835 8.01256 10.6971 6.72613 9.16945 6.72613C7.64181 6.72613 6.35538 8.01256 6.35538 9.5402C6.35538 11.0678 7.64181 12.3543 9.16945 12.3543Z" fill="#7E7E7E"/>
</svg>
