<svg width="19" height="18" viewBox="0 0 19 18" fill="none" xmlns="http://www.w3.org/2000/svg">
<g id="Icon/Menu/Settings">
<path id="Settings" d="M3.33494 9.84422C3.33494 9.60301 3.25454 9.36181 3.25454 9.0402C3.25454 8.71859 3.25454 8.47739 3.33494 8.23618L1.64651 6.86935C1.4857 6.70854 1.4857 6.54774 1.5661 6.38693L3.17414 3.57286C3.25454 3.49246 3.41531 3.41206 3.65655 3.49246L5.6666 4.29648C6.06861 3.97487 6.55102 3.73367 7.03343 3.49246L7.35504 1.40201C7.27464 1.1608 7.51587 1 7.67664 1H10.8927C11.0536 1 11.2947 1.1608 11.2947 1.32161L11.6163 3.49246C12.0987 3.65327 12.5008 3.97487 12.9832 4.29648L14.9128 3.49246C15.154 3.41206 15.3148 3.49246 15.4757 3.65327L17.0837 6.46734C17.1641 6.54774 17.0837 6.78894 16.9229 6.94975L15.2344 8.23618C15.2344 8.47739 15.3149 8.71859 15.3149 9.0402C15.3149 9.36181 15.3149 9.60301 15.2344 9.84422L16.9229 11.2111C17.0837 11.3719 17.0837 11.5327 17.0033 11.6935L15.3953 14.5076C15.3149 14.588 15.1541 14.6684 14.9128 14.588L12.9028 13.7839C12.5008 14.1056 12.0184 14.3468 11.536 14.588L11.2144 16.6784C11.2144 16.8392 11.0536 17 10.8123 17H7.59627C7.43544 17 7.19427 16.8392 7.19427 16.6784L6.87266 14.588C6.39025 14.3468 5.90784 14.1056 5.50583 13.7839L3.49578 14.588C3.33494 14.6684 3.09377 14.588 3.01334 14.4271L1.4053 11.6131C1.3249 11.4523 1.3249 11.2111 1.48573 11.1307L3.33494 9.84422ZM9.28468 11.8543C10.8123 11.8543 12.0987 10.5678 12.0987 9.0402C12.0987 7.51256 10.8123 6.22613 9.28468 6.22613C7.75705 6.22613 6.47062 7.51256 6.47062 9.0402C6.47062 10.5678 7.75705 11.8543 9.28468 11.8543Z" fill="#EAEAEA"/>
</g>
</svg>
