<svg width="30" height="30" viewBox="0 0 30 30" fill="none" xmlns="http://www.w3.org/2000/svg">
<path d="M14.9996 0C23.2838 0 29.9991 6.71544 29.9991 14.9996C29.9991 23.283 23.2836 30 14.9996 30C6.71544 29.9998 0 23.283 0 14.9996C0 6.71544 6.71544 0 14.9996 0Z" fill="#8C9EFF"/>
<path d="M21.5114 10.145C21.5114 10.145 19.655 8.69288 17.4632 8.5257L17.2648 8.92054C19.2476 9.40592 20.1558 10.1011 21.1066 10.9547C19.4686 10.119 17.852 9.33536 15.0342 9.33536C12.2165 9.33536 10.5985 10.119 8.96203 10.9547C9.91015 10.1011 10.9927 9.32946 12.8025 8.92054L12.6054 8.5257C10.3042 8.74347 8.55729 10.145 8.55729 10.145C8.55729 10.145 6.48377 13.1507 6.1283 19.0511C8.2176 21.4613 11.3908 21.4801 11.3908 21.4801L12.054 20.5959C10.9275 20.2043 9.65567 19.504 8.5571 18.2417C9.86736 19.2324 11.8462 20.2657 15.0342 20.2657C18.2223 20.2657 20.1996 19.2337 21.5114 18.2417C20.4114 19.504 19.1396 20.2043 18.0144 20.5959L18.6776 21.4801C18.6776 21.4801 21.8495 21.4613 23.9402 19.0511C23.5833 13.1507 21.5114 10.145 21.5114 10.145ZM12.4029 17.4316C11.6198 17.4316 10.9861 16.7072 10.9861 15.8123C10.9861 14.9182 11.62 14.1932 12.4029 14.1932C13.1859 14.1932 13.8198 14.9182 13.8198 15.8123C13.8198 16.7074 13.1859 17.4316 12.4029 17.4316ZM17.6656 17.4316C16.8825 17.4316 16.2486 16.7072 16.2486 15.8123C16.2486 14.9182 16.8825 14.1932 17.6656 14.1932C18.4484 14.1932 19.0824 14.9182 19.0824 15.8123C19.0824 16.7074 18.4471 17.4316 17.6656 17.4316Z" fill="white"/>
</svg>
