<svg width="30" height="30" viewBox="0 0 30 30" fill="none" xmlns="http://www.w3.org/2000/svg">
<circle cx="14.999" cy="15" r="15" fill="url(#paint0_radial_113_52935)"/>
<path d="M19.1006 11.6589C19.6122 11.6589 20.0269 11.2441 20.0269 10.7326C20.0269 10.221 19.6122 9.80627 19.1006 9.80627C18.589 9.80627 18.1743 10.221 18.1743 10.7326C18.1743 11.2441 18.589 11.6589 19.1006 11.6589Z" fill="white"/>
<path d="M14.9773 10.9952C12.8275 10.9952 11.0786 12.7441 11.0786 14.894C11.0786 17.0438 12.8275 18.7927 14.9773 18.7927C17.1271 18.7927 18.876 17.0438 18.876 14.894C18.8726 12.7441 17.1237 10.9952 14.9773 10.9952ZM14.9773 17.3895C13.6017 17.3895 12.4818 16.2696 12.4818 14.894C12.4818 13.5184 13.6017 12.3985 14.9773 12.3985C16.3529 12.3985 17.4728 13.5184 17.4728 14.894C17.4728 16.2696 16.3529 17.3895 14.9773 17.3895Z" fill="white"/>
<path d="M18.0706 22.8055H11.7524C9.13255 22.8055 7 20.6729 7 18.053V11.7349C7 9.11498 9.13255 6.98242 11.7524 6.98242H18.0706C20.6905 6.98242 22.8231 9.11498 22.8231 11.7349V18.053C22.8231 20.6729 20.6905 22.8055 18.0706 22.8055ZM11.7524 8.46864C9.9517 8.46864 8.48622 9.93413 8.48622 11.7349V18.053C8.48622 19.8538 9.9517 21.3193 11.7524 21.3193H18.0706C19.8714 21.3193 21.3368 19.8538 21.3368 18.053V11.7349C21.3368 9.93413 19.8714 8.46864 18.0706 8.46864H11.7524Z" fill="white"/>
<defs>
<radialGradient id="paint0_radial_113_52935" cx="0" cy="0" r="1" gradientUnits="userSpaceOnUse" gradientTransform="translate(-10.3135 51.875) rotate(-53.6252) scale(79.5655 52.3684)">
<stop offset="0.375793" stop-color="#FAC369"/>
<stop offset="0.567161" stop-color="#E85447"/>
<stop offset="0.649153" stop-color="#BC3288"/>
<stop offset="0.755396" stop-color="#6864AB"/>
</radialGradient>
</defs>
</svg>
