<svg width="30" height="30" viewBox="0 0 30 30" fill="none" xmlns="http://www.w3.org/2000/svg">
<g id="Twitter">
<circle id="Ellipse 220" cx="14.999" cy="15" r="15" fill="#00AAEC"/>
<path id="Twitter_1_" fill-rule="evenodd" clip-rule="evenodd" d="M23.1227 11.0819C22.5257 11.3538 21.8828 11.5377 21.2085 11.6198C21.897 11.1973 22.4255 10.5273 22.6744 9.72939C22.0297 10.1206 21.3173 10.4052 20.5562 10.5578C19.9497 9.89378 19.0826 9.47906 18.1232 9.47906C16.2835 9.47906 14.7909 11.0096 14.7909 12.8972C14.7909 13.1652 14.8195 13.4253 14.8767 13.6757C12.1064 13.5328 9.65059 12.1734 8.00532 10.103C7.7183 10.6096 7.55417 11.1973 7.55417 11.8233C7.55417 13.0086 8.14267 14.055 9.03722 14.6683C8.49175 14.6516 7.97663 14.4961 7.5265 14.2419V14.2839C7.5265 15.9406 8.67569 17.3225 10.2016 17.6355C9.92224 17.7157 9.62749 17.7558 9.32321 17.7558C9.10868 17.7558 8.89885 17.7353 8.69562 17.6952C9.11998 19.0527 10.3503 20.0414 11.8095 20.0678C10.6688 20.9852 9.23067 21.5318 7.66943 21.5318C7.40045 21.5318 7.13438 21.5162 6.87402 21.4848C8.34945 22.453 10.1024 23.0193 11.984 23.0193C18.1164 23.0193 21.4686 17.8114 21.4686 13.2941C21.4686 13.1455 21.4657 12.9968 21.46 12.8511C22.1117 12.369 22.6772 11.7675 23.1227 11.0819Z" fill="white"/>
</g>
</svg>
