<svg width="20" height="17" viewBox="0 0 20 17" fill="none" xmlns="http://www.w3.org/2000/svg">
<path d="M17.8417 4.54163C17.8417 4.71663 17.8417 4.89163 17.8417 5.04163C17.8417 10.2166 13.8917 16.1916 6.69166 16.1916C4.46666 16.1916 2.41666 15.5416 0.666656 14.4416C0.966656 14.4666 1.29166 14.4916 1.59166 14.4916C3.41666 14.4916 5.11666 13.8666 6.46666 12.8166C4.74166 12.7916 3.29166 11.6416 2.81666 10.0916C3.06666 10.1416 3.29166 10.1666 3.56666 10.1666C3.91666 10.1666 4.26666 10.1166 4.59166 10.0166C2.79166 9.66663 1.44166 8.09163 1.44166 6.19163C1.44166 6.16663 1.44166 6.16663 1.44166 6.14163C1.96666 6.44163 2.56666 6.61663 3.21666 6.64163C2.16666 5.94163 1.46666 4.74163 1.46666 3.36663C1.46666 2.64163 1.66666 1.96663 1.99166 1.39163C3.91666 3.76663 6.81666 5.31663 10.0667 5.49163C9.99166 5.21663 9.96666 4.89163 9.96666 4.59163C9.96666 2.41663 11.7167 0.666626 13.8917 0.666626C15.0167 0.666626 16.0417 1.14163 16.7417 1.89163C17.6417 1.71663 18.4667 1.39163 19.2417 0.941626C18.9417 1.86663 18.3167 2.61663 17.5167 3.11663C18.3167 3.01663 19.0667 2.81663 19.7667 2.49163C19.2667 3.29163 18.6167 3.99163 17.8417 4.54163Z" fill="white" fill-opacity="0.25"/>
</svg>
