<svg width="55" height="24" viewBox="0 0 55 24" fill="none" xmlns="http://www.w3.org/2000/svg">
<path d="M5.73156 10.6083C4.56503 10.6083 3.57495 10.3894 2.76132 9.95167C1.95749 9.51392 1.34481 8.90106 0.923295 8.11309C0.501775 7.32513 0.291016 6.40098 0.291016 5.34063C0.291016 4.25111 0.506677 3.3075 0.937999 2.50981C1.37912 1.71212 2.0114 1.09439 2.83484 0.656636C3.65827 0.218879 4.64835 0 5.80508 0C6.53048 0 7.21668 0.102143 7.86366 0.306429C8.52045 0.510716 9.0547 0.783098 9.46642 1.12358L8.73121 2.8892C8.28028 2.55845 7.81955 2.32498 7.34902 2.18878C6.87848 2.04287 6.36874 1.96991 5.81978 1.96991C4.77088 1.96991 3.98176 2.26174 3.45241 2.84542C2.93286 3.41937 2.67309 4.25111 2.67309 5.34063C2.67309 6.43989 2.93777 7.27163 3.46712 7.83585C4.00627 8.40007 4.80029 8.68218 5.84919 8.68218C6.40795 8.68218 6.99612 8.59463 7.61369 8.41952V6.40584H5.37866V4.77155H9.49582V9.82035C8.98608 10.0733 8.39791 10.2678 7.73132 10.404C7.06474 10.5402 6.39815 10.6083 5.73156 10.6083Z" fill="#E5C787"/>
<path d="M12.9835 10.4478V0.160511H17.7182C18.8749 0.160511 19.767 0.437757 20.3944 0.992249C21.0217 1.54674 21.3354 2.32011 21.3354 3.31236C21.3354 4.08087 21.1345 4.72291 20.7326 5.23849C20.3405 5.74434 19.7768 6.08968 19.0416 6.27452C19.5611 6.43016 19.9876 6.80469 20.3208 7.39809L21.9971 10.4478H19.4827L17.6888 7.16462C17.5418 6.90197 17.3604 6.722 17.1447 6.62472C16.9291 6.51771 16.6742 6.46421 16.3801 6.46421H15.2626V10.4478H12.9835ZM15.2626 4.82992H17.3065C18.5318 4.82992 19.1445 4.34352 19.1445 3.37073C19.1445 2.40766 18.5318 1.92613 17.3065 1.92613H15.2626V4.82992Z" fill="#E5C787"/>
<path d="M24.6922 10.4478V0.160511H31.7943V1.92613H26.8685V4.33379H31.4709V6.114H26.8685V8.68218H31.7943V10.4478H24.6922Z" fill="#E5C787"/>
<path d="M35.0656 10.4478V0.160511H42.1677V1.92613H37.2418V4.33379H41.8442V6.114H37.2418V8.68218H42.1677V10.4478H35.0656Z" fill="#E5C787"/>
<path d="M45.4389 10.4478V0.160511H47.718V4.64022H47.7474L52.0558 0.160511H54.7907L49.9678 5.07798L54.9966 10.4478H52.2322L47.7474 5.74921H47.718V10.4478H45.4389Z" fill="#E5C787"/>
<path d="M0.750419 23.5886V15.9591H2.42548V19.2814H2.4471L5.61351 15.9591H7.62359L4.07894 19.6061L7.77489 23.5886H5.74319L2.4471 20.1039H2.42548V23.5886H0.750419Z" fill="#E5C787"/>
<path d="M9.25028 23.5886V15.9591H14.47V17.2685H10.8497V19.0542H14.2322V20.3745H10.8497V22.2791H14.47V23.5886H9.25028Z" fill="#E5C787"/>
<path d="M16.8742 23.5886V15.9591H22.0939V17.2685H18.4736V19.0542H21.8562V20.3745H18.4736V22.2791H22.0939V23.5886H16.8742Z" fill="#E5C787"/>
<path d="M24.4981 23.5886V15.9591H27.9779C28.8281 15.9591 29.4837 16.1755 29.9448 16.6084C30.4059 17.0341 30.6364 17.6293 30.6364 18.394C30.6364 19.1588 30.4059 19.7576 29.9448 20.1905C29.4837 20.6234 28.8281 20.8398 27.9779 20.8398H26.1732V23.5886H24.4981ZM26.1732 19.5412H27.6969C28.5831 19.5412 29.0262 19.1588 29.0262 18.394C29.0262 17.6437 28.5831 17.2685 27.6969 17.2685H26.1732V19.5412Z" fill="#E5C787"/>
<path d="M32.7552 23.5886V15.9591H37.9749V17.2685H34.3546V19.0542H37.7372V20.3745H34.3546V22.2791H37.9749V23.5886H32.7552Z" fill="#E5C787"/>
<path d="M40.3791 23.5886V15.9591H43.859C44.7091 15.9591 45.3647 16.1647 45.8258 16.5759C46.2869 16.9872 46.5174 17.5607 46.5174 18.2966C46.5174 18.8666 46.3698 19.3428 46.0744 19.7251C45.7862 20.1003 45.3719 20.3564 44.8316 20.4935C45.2134 20.6089 45.5268 20.8867 45.7718 21.3268L47.0038 23.5886H45.1558L43.8373 21.1537C43.7293 20.9589 43.596 20.8254 43.4375 20.7532C43.279 20.6739 43.0917 20.6342 42.8755 20.6342H42.0542V23.5886H40.3791ZM42.0542 19.4221H43.5564C44.4569 19.4221 44.9072 19.0614 44.9072 18.3399C44.9072 17.6257 44.4569 17.2685 43.5564 17.2685H42.0542V19.4221Z" fill="#E5C787"/>
<path d="M51.6762 23.7077C51.0782 23.7077 50.5127 23.6319 49.9795 23.4804C49.4536 23.3289 49.0141 23.1233 48.6611 22.8635L49.1474 21.5432C49.486 21.7813 49.8715 21.9689 50.3037 22.106C50.7432 22.2431 51.2007 22.3116 51.6762 22.3116C52.1949 22.3116 52.566 22.2323 52.7893 22.0735C53.0199 21.9076 53.1351 21.702 53.1351 21.4567C53.1351 21.2474 53.0559 21.0815 52.8974 20.9589C52.7389 20.8362 52.4615 20.7316 52.0653 20.645L50.8441 20.3853C49.4824 20.0967 48.8016 19.3897 48.8016 18.2642C48.8016 17.7808 48.9313 17.3587 49.1906 16.998C49.45 16.63 49.8102 16.3451 50.2713 16.143C50.7396 15.941 51.28 15.84 51.8923 15.84C52.4183 15.84 52.9118 15.9158 53.3729 16.0673C53.834 16.2188 54.2158 16.4316 54.5184 16.7058L54.0321 17.9395C53.4413 17.4706 52.7245 17.2361 51.8815 17.2361C51.4276 17.2361 51.0746 17.3263 50.8225 17.5066C50.5775 17.6798 50.455 17.907 50.455 18.1884C50.455 18.3976 50.5307 18.5672 50.682 18.6971C50.8333 18.8269 51.0962 18.9315 51.4709 19.0109L52.6921 19.2706C54.0897 19.5736 54.7886 20.259 54.7886 21.3268C54.7886 21.803 54.6589 22.2214 54.3995 22.5822C54.1474 22.9357 53.7871 23.2134 53.3188 23.4155C52.8578 23.6103 52.3102 23.7077 51.6762 23.7077Z" fill="#E5C787"/>
</svg>
