<svg width="18" height="18" viewBox="0 0 18 18" fill="none" xmlns="http://www.w3.org/2000/svg">
<path d="M9.22498 16.5H9.14998C8.12138 16.4922 7.10467 16.2792 6.15941 15.8735C5.21414 15.4678 4.35931 14.8777 3.64498 14.1375C2.32037 12.721 1.56739 10.864 1.53138 8.92495C1.49537 6.9859 2.17888 5.10225 3.44998 3.6375C4.26889 2.71976 5.29838 2.01457 6.44998 1.5825C6.58436 1.5308 6.73077 1.51886 6.87174 1.54812C7.01271 1.57738 7.14229 1.6466 7.24498 1.7475C7.3401 1.8445 7.40708 1.9655 7.43878 2.09759C7.47048 2.22969 7.46571 2.36791 7.42498 2.4975C7.01395 3.62321 6.93251 4.84279 7.19023 6.01315C7.44795 7.1835 8.03413 8.25608 8.87998 9.10501C9.73372 9.94826 10.8088 10.5325 11.9809 10.79C13.1529 11.0475 14.3739 10.9677 15.5025 10.56C15.6368 10.5127 15.7818 10.5047 15.9206 10.5368C16.0593 10.5689 16.1861 10.6398 16.286 10.7413C16.3859 10.8428 16.4548 10.9706 16.4848 11.1098C16.5147 11.2491 16.5044 11.3939 16.455 11.5275C16.0719 12.5503 15.4733 13.4788 14.7 14.25C13.9806 14.9672 13.1266 15.5352 12.187 15.9214C11.2474 16.3075 10.2408 16.5041 9.22498 16.5Z" fill="#7E7E7E"/>
</svg>
