<svg width="21" height="21" viewBox="0 0 21 21" fill="none" xmlns="http://www.w3.org/2000/svg">
<path d="M3.29885 10.4483C3.29885 10.1207 3.08046 9.89655 2.74713 9.89655H0.551725C0.224138 9.89655 0 10.2241 0 10.4483C0 10.7759 0.218391 11.0001 0.551725 11.0001H2.74713C3.08046 10.9942 3.29885 10.7759 3.29885 10.4483Z" fill="#363636"/>
<path d="M4.62065 15.5L3.08042 17.0402C2.86203 17.2586 2.86203 17.592 3.08042 17.8103C3.29881 18.0287 3.63214 18.0287 3.85054 17.8103L5.39077 16.2701C5.60916 16.0517 5.60916 15.7183 5.39077 15.5C5.17238 15.3908 4.83904 15.2816 4.62065 15.5Z" fill="#363636"/>
<path d="M16.2701 5.39089L17.8103 3.85066C18.0287 3.63227 18.0287 3.29893 17.8103 3.08054C17.5919 2.86215 17.2585 2.86215 17.0402 3.08054L15.5 4.62077C15.2816 4.83916 15.2816 5.1725 15.5 5.39089C15.7242 5.60928 16.1609 5.60928 16.2701 5.39089Z" fill="#363636"/>
<path d="M10.4483 3.29885C10.7759 3.29885 11.0001 3.08046 11.0001 2.74713V0.551725C11.0001 0.224138 10.7817 0 10.4483 0C10.2299 0 9.89661 0.218391 9.89661 0.551725V2.74713C9.89661 3.08046 10.2242 3.29885 10.4483 3.29885Z" fill="#363636"/>
<path d="M4.62065 5.39089C4.83904 5.60928 5.17238 5.60928 5.39077 5.39089C5.60916 5.1725 5.60916 4.83916 5.39077 4.62077L3.85054 3.08054C3.63214 2.86215 3.29881 2.86215 3.08042 3.08054C2.86203 3.29893 2.86203 3.63227 3.08042 3.85066L4.62065 5.39089Z" fill="#363636"/>
<path d="M10.4483 17.7012C10.1208 17.7012 9.89661 17.9196 9.89661 18.253V20.4483C9.89661 20.7759 10.115 21.0001 10.4483 21.0001C10.7817 21.0001 11.0001 20.7817 11.0001 20.4483V18.253C10.9943 17.9196 10.7759 17.7012 10.4483 17.7012Z" fill="#363636"/>
<path d="M20.4483 9.89655H18.253C17.9254 9.89655 17.7012 10.1149 17.7012 10.4483C17.7012 10.7817 17.9196 11.0001 18.253 11.0001H20.4483C20.7759 11.0001 21.0001 10.7817 21.0001 10.4483C21 10.2241 20.6667 9.89655 20.4483 9.89655Z" fill="#363636"/>
<path d="M16.2702 15.5C16.0517 15.2816 15.7184 15.2816 15.5001 15.5C15.2817 15.7184 15.2817 16.0518 15.5001 16.2702L17.0403 17.8104C17.2587 18.0288 17.5921 18.0288 17.8104 17.8104C18.0288 17.592 18.0288 17.2586 17.8104 17.0403L16.2702 15.5Z" fill="#363636"/>
<path d="M10.4483 16.4942C13.7874 16.4942 16.4943 13.7874 16.4943 10.4483C16.4943 7.10916 13.7874 4.40228 10.4483 4.40228C7.10922 4.40228 4.40234 7.10916 4.40234 10.4483C4.40234 13.7874 7.10922 16.4942 10.4483 16.4942Z" fill="#363636"/>
</svg>
