<svg width="22" height="26" viewBox="0 0 22 26" fill="none" xmlns="http://www.w3.org/2000/svg">
<path id="Vector" d="M4.23233 4.00957L10.9971 0L17.7619 4.00957L15.2237 5.41913L10.9971 2.92574L6.66071 5.41913L4.23233 4.00957ZM17.6578 8.99043L15.2237 7.58087L10.9971 10.0743L6.66071 7.58087L4.22654 8.99043V11.9162L8.45887 14.4096V19.503L10.893 21.0191L13.3272 19.503V14.5221L17.5595 12.0287V8.99636H17.6578V8.99043ZM17.6578 17.0096V14.0838L15.2237 15.6V18.4132L17.6578 17.0096ZM19.456 17.9809L15.2294 20.4743V23.4L22 19.3904V11.3772L19.4618 13L19.456 17.9809ZM17.0218 6.50296L19.456 8.01913V10.9449L21.8901 9.4287V6.50296L19.456 4.98679L17.0218 6.50296ZM8.45887 21.5581V24.4838L10.893 26L13.3272 24.4838V21.5581L10.893 23.0743L8.45887 21.5581ZM4.22654 17.0096L6.66071 18.4191V15.4934L4.22654 13.9772V17.0096ZM8.45887 6.50296L10.893 8.01913L13.4313 6.50296L10.9971 4.98679L8.45887 6.50296ZM2.43417 8.01913L4.9724 6.50296L2.43417 4.98679L0 6.50296V9.4287L2.43417 10.9449V8.01913ZM2.43417 13L0 11.4838V19.497L6.77057 23.5066V20.5809L2.53824 18.0875V12.9941L2.43417 13Z" fill="#F0B90B"/>
</svg>
